<svg width="398" height="852" viewBox="0 0 398 852" fill="none" xmlns="http://www.w3.org/2000/svg">
<g clip-path="url(#clip0_113_150)" filter="url(#filter0_d_113_150)">
<rect width="390" height="844" transform="translate(4)" fill="#F4F2E5"/>
<path d="M58.6904 28.0627C57.8327 28.0627 57.0662 28.2454 56.3911 28.6106C55.7215 28.9703 55.1958 29.4683 54.814 30.1047C54.4377 30.7356 54.2495 31.4578 54.2495 32.2712V32.2878C54.2495 33.0404 54.4155 33.7156 54.7476 34.3132C55.0851 34.9109 55.5472 35.3813 56.1338 35.7244C56.7204 36.0675 57.3955 36.239 58.1592 36.239C58.7126 36.239 59.194 36.156 59.6035 35.99C60.0186 35.824 60.3672 35.6054 60.6494 35.3342C60.9316 35.0631 61.1447 34.7698 61.2886 34.4543H61.5791V32.2463H61.0811V32.2629C61.0811 32.7112 60.9759 33.1124 60.7656 33.4666C60.5553 33.8207 60.2703 34.0974 59.9106 34.2966C59.5509 34.4958 59.1442 34.5955 58.6904 34.5955C58.2367 34.5955 57.8327 34.4931 57.4785 34.2883C57.1243 34.0836 56.8449 33.8041 56.6401 33.45C56.4354 33.0903 56.333 32.678 56.333 32.2131V32.1965C56.333 31.7483 56.4409 31.3443 56.6567 30.9846C56.8726 30.6194 57.1603 30.3316 57.52 30.1213C57.8797 29.9111 58.2754 29.8059 58.707 29.8059C59.1553 29.8059 59.5565 29.9138 59.9106 30.1296C60.2703 30.3455 60.5553 30.6388 60.7656 31.0095C60.9759 31.3803 61.0811 31.7926 61.0811 32.2463L61.4546 34.2468C61.4546 34.3243 61.4546 34.4045 61.4546 34.4875C61.4546 34.565 61.4518 34.6453 61.4463 34.7283C61.4186 35.4919 61.3024 36.1892 61.0977 36.8201C60.8984 37.4454 60.5968 37.9462 60.1929 38.3225C59.7944 38.6933 59.2798 38.8787 58.6489 38.8787C58.3003 38.8787 57.9849 38.8233 57.7026 38.7126C57.4259 38.5964 57.188 38.4332 56.9888 38.2229C56.7951 38.0126 56.6457 37.7691 56.5405 37.4924L56.5073 37.4094H54.4072L54.4238 37.5007C54.5566 38.1095 54.814 38.6518 55.1958 39.1277C55.5832 39.5981 56.0701 39.9688 56.6567 40.24C57.2489 40.5056 57.9129 40.6384 58.6489 40.6384C59.6506 40.6384 60.5111 40.3839 61.2305 39.8748C61.9554 39.3601 62.5116 38.6241 62.8989 37.6667C63.2863 36.7094 63.48 35.5583 63.48 34.2136V34.197C63.48 33.1124 63.3527 32.1855 63.0981 31.4163C62.8436 30.6415 62.4922 30.0079 62.0439 29.5154C61.6012 29.0173 61.0921 28.6521 60.5166 28.4197C59.9411 28.1817 59.3324 28.0627 58.6904 28.0627ZM67.2485 38.7292C67.6304 38.7292 67.9458 38.6047 68.1948 38.3557C68.4438 38.1012 68.5684 37.7913 68.5684 37.426C68.5684 37.0553 68.4438 36.7454 68.1948 36.4963C67.9458 36.2418 67.6304 36.1145 67.2485 36.1145C66.8722 36.1145 66.5568 36.2418 66.3022 36.4963C66.0532 36.7454 65.9287 37.0553 65.9287 37.426C65.9287 37.7913 66.0532 38.1012 66.3022 38.3557C66.5568 38.6047 66.8722 38.7292 67.2485 38.7292ZM67.2485 32.5701C67.6304 32.5701 67.9458 32.4456 68.1948 32.1965C68.4438 31.942 68.5684 31.6321 68.5684 31.2668C68.5684 30.8961 68.4438 30.5862 68.1948 30.3372C67.9458 30.0826 67.6304 29.9553 67.2485 29.9553C66.8722 29.9553 66.5568 30.0826 66.3022 30.3372C66.0532 30.5862 65.9287 30.8961 65.9287 31.2668C65.9287 31.6321 66.0532 31.942 66.3022 32.1965C66.5568 32.4456 66.8722 32.5701 67.2485 32.5701ZM76.8276 40.3396H78.8696V38.0403H80.4883V36.2722H78.8696V28.3616H75.8564C75.5244 28.8541 75.1924 29.3604 74.8604 29.8806C74.5339 30.3953 74.2046 30.9182 73.8726 31.4495C73.5461 31.9752 73.2168 32.5092 72.8848 33.0515C72.5583 33.5883 72.2345 34.1278 71.9136 34.6702C71.5981 35.2125 71.2827 35.752 70.9673 36.2888V38.0403H76.8276V40.3396ZM72.9595 36.322V36.1975C73.1919 35.788 73.4326 35.3757 73.6816 34.9607C73.9307 34.5401 74.1825 34.1223 74.437 33.7073C74.6916 33.2867 74.9489 32.8689 75.209 32.4539C75.4691 32.0388 75.7264 31.6321 75.981 31.2336C76.241 30.8352 76.4928 30.4478 76.7363 30.0715H76.8608V36.322H72.9595ZM85.4438 40.3396H87.5771V28.3616H85.4438L82.3145 30.5613V32.5701L85.2944 30.47H85.4438V40.3396Z" fill="black"/>
<rect opacity="0.35" x="335" y="28.5" width="24" height="12" rx="3.8" stroke="black"/>
<path opacity="0.4" d="M360.5 32.7811V36.8566C361.305 36.5114 361.828 35.7085 361.828 34.8189C361.828 33.9293 361.305 33.1263 360.5 32.7811Z" fill="black"/>
<rect x="336.5" y="30" width="21" height="9" rx="2.5" fill="black"/>
<path fill-rule="evenodd" clip-rule="evenodd" d="M318.771 31.104C321.258 31.1041 323.65 32.0262 325.452 33.6796C325.588 33.8073 325.805 33.8057 325.939 33.676L327.236 32.4126C327.304 32.3468 327.341 32.2577 327.341 32.165C327.34 32.0724 327.302 31.9837 327.233 31.9187C322.502 27.544 315.038 27.544 310.307 31.9187C310.239 31.9837 310.2 32.0723 310.199 32.165C310.199 32.2577 310.236 32.3468 310.304 32.4126L311.602 33.676C311.735 33.8059 311.952 33.8075 312.088 33.6796C313.891 32.0261 316.283 31.104 318.771 31.104ZM318.767 35.3243C320.124 35.3242 321.433 35.8359 322.439 36.76C322.576 36.8912 322.79 36.8883 322.923 36.7536L324.21 35.4343C324.278 35.3651 324.315 35.2712 324.314 35.1737C324.313 35.0761 324.274 34.9831 324.205 34.9153C321.141 32.0244 316.396 32.0244 313.332 34.9153C313.263 34.9831 313.224 35.0762 313.223 35.1738C313.222 35.2714 313.26 35.3652 313.327 35.4343L314.614 36.7536C314.747 36.8883 314.961 36.8912 315.097 36.76C316.103 35.8365 317.411 35.3248 318.767 35.3243ZM321.292 38.1178C321.294 38.2232 321.256 38.3247 321.189 38.3985L319.012 40.8533C318.949 40.9254 318.862 40.966 318.771 40.966C318.68 40.966 318.593 40.9254 318.529 40.8533L316.352 38.3985C316.285 38.3247 316.248 38.2231 316.25 38.1177C316.252 38.0124 316.293 37.9126 316.363 37.842C317.753 36.5281 319.789 36.5281 321.179 37.842C321.249 37.9127 321.29 38.0125 321.292 38.1178Z" fill="black"/>
<path fill-rule="evenodd" clip-rule="evenodd" d="M302.7 29.682C302.7 29.0489 302.222 28.5358 301.633 28.5358H300.567C299.978 28.5358 299.5 29.0489 299.5 29.682V39.616C299.5 40.249 299.978 40.7622 300.567 40.7622H301.633C302.222 40.7622 302.7 40.249 302.7 39.616V29.682ZM295.266 30.981H296.333C296.922 30.981 297.399 31.5065 297.399 32.1548V39.5884C297.399 40.2367 296.922 40.7622 296.333 40.7622H295.266C294.677 40.7622 294.199 40.2367 294.199 39.5884V32.1548C294.199 31.5065 294.677 30.981 295.266 30.981ZM290.934 33.6301H289.867C289.278 33.6301 288.801 34.1623 288.801 34.8188V39.5735C288.801 40.23 289.278 40.7622 289.867 40.7622H290.934C291.523 40.7622 292.001 40.23 292.001 39.5735V34.8188C292.001 34.1623 291.523 33.6301 290.934 33.6301ZM285.633 36.0754H284.567C283.978 36.0754 283.5 36.6 283.5 37.2471V39.5905C283.5 40.2376 283.978 40.7622 284.567 40.7622H285.633C286.222 40.7622 286.7 40.2376 286.7 39.5905V37.2471C286.7 36.6 286.222 36.0754 285.633 36.0754Z" fill="black"/>
<rect x="143" y="183" width="112" height="112" rx="15" fill="white"/>
<path d="M187.96 315.6C186.696 316.912 185.336 318.12 183.88 319.224L183.496 318.84C185.448 316.792 186.928 314.432 187.936 311.76C188.528 311.952 189.128 312.2 189.736 312.504C190.36 312.808 190.672 313.008 190.672 313.104C190.672 313.2 190.568 313.272 190.36 313.32C190.152 313.352 189.992 313.408 189.88 313.488C189.784 313.552 189.6 313.76 189.328 314.112C189.056 314.448 188.8 314.728 188.56 314.952H194.344L195.088 314.16C195.28 313.952 195.432 313.848 195.544 313.848C195.704 313.848 196.144 314.224 196.864 314.976C197.6 315.712 197.968 316.192 197.968 316.416C197.968 316.496 197.912 316.536 197.8 316.536C197.688 316.536 197.52 316.52 197.296 316.488C197.088 316.44 196.88 316.416 196.672 316.416C196.032 316.416 194.968 317.048 193.48 318.312L193.048 318.048C193.608 317.136 194.056 316.32 194.392 315.6H189.4C190.12 315.808 190.656 316 191.008 316.176C191.376 316.352 191.56 316.48 191.56 316.56C191.56 316.672 191.368 316.8 190.984 316.944C191.48 318.128 192.248 319.016 193.288 319.608C194.328 320.184 195.816 320.592 197.752 320.832V321.432C196.504 321.384 195.696 321.68 195.328 322.32C195.824 322.624 196.272 322.944 196.672 323.28C197.088 323.6 197.296 323.824 197.296 323.952C197.296 324.112 197.08 324.192 196.648 324.192H184.408L183.928 325.68H189.856L190.384 325.08C190.56 324.872 190.704 324.768 190.816 324.768C190.928 324.768 191.296 324.968 191.92 325.368C192.56 325.768 192.88 326.04 192.88 326.184C192.88 326.408 192.536 326.6 191.848 326.76L191.32 330.528C191.272 330.944 191.376 331.216 191.632 331.344C191.904 331.488 192.408 331.56 193.144 331.56C193.896 331.56 194.416 331.464 194.704 331.272C194.992 331.096 195.224 330.728 195.4 330.168C195.592 329.608 195.816 328.64 196.072 327.264L196.624 327.288C196.592 327.752 196.576 328.168 196.576 328.536C196.576 330.152 196.88 331.12 197.488 331.44C197.664 331.52 197.752 331.608 197.752 331.704C197.752 331.928 197.616 332.192 197.344 332.496C197.072 332.816 196.736 333.04 196.336 333.168C195.952 333.296 195.272 333.36 194.296 333.36C193.336 333.36 192.416 333.32 191.536 333.24C190.656 333.16 190.056 333.032 189.736 332.856C189.416 332.68 189.256 332.304 189.256 331.728C189.256 331.472 189.288 331.088 189.352 330.576L189.856 326.328H183.736L182.2 331.176C184.392 331.048 186.608 330.816 188.848 330.48L188.968 330.936C185.752 331.784 183.608 332.368 182.536 332.688C181.464 333.024 180.808 333.264 180.568 333.408C180.328 333.568 180.168 333.648 180.088 333.648C180.024 333.648 179.928 333.528 179.8 333.288C179.688 333.064 179.448 332.448 179.08 331.44C179.448 331.424 179.76 331.312 180.016 331.104C180.272 330.912 180.496 330.504 180.688 329.88L182.44 324.192H178.216C177.784 324.192 177.448 324.248 177.208 324.36L176.776 323.328C177.112 323.408 177.512 323.448 177.976 323.448H193.408L194.152 322.368C193.08 321.664 192.288 320.96 191.776 320.256C191.28 319.536 190.896 318.544 190.624 317.28C189.888 319.376 189.024 320.784 188.032 321.504C187.056 322.208 185.416 322.712 183.112 323.016L183.016 322.56C184.792 322.112 186.144 321.352 187.072 320.28C188 319.208 188.68 317.648 189.112 315.6H187.96ZM178.648 312.528C179.448 312.736 180.088 312.928 180.568 313.104C181.064 313.264 181.44 313.424 181.696 313.584C181.952 313.744 182.12 313.896 182.2 314.04C182.28 314.184 182.32 314.448 182.32 314.832C182.32 315.2 182.24 315.488 182.08 315.696C181.936 315.888 181.76 315.984 181.552 315.984C181.36 315.984 181.088 315.736 180.736 315.24C180.384 314.728 180.032 314.312 179.68 313.992C179.328 313.656 178.912 313.344 178.432 313.056L178.648 312.528ZM185.944 313.68L182.2 318.024C181.816 318.456 181.56 318.792 181.432 319.032C181.304 319.256 181.24 319.52 181.24 319.824C181.24 320.128 181.288 320.528 181.384 321.024C181.496 321.504 181.552 321.816 181.552 321.96C181.552 322.52 181.28 322.8 180.736 322.8C180.192 322.8 179.744 322.648 179.392 322.344C179.056 322.04 178.888 321.712 178.888 321.36C178.888 321.28 178.896 321.2 178.912 321.12C179.136 320.336 179.248 319.792 179.248 319.488C179.248 319.168 179.096 318.912 178.792 318.72C178.504 318.512 178.008 318.272 177.304 318L177.472 317.52C178.48 317.808 179.168 317.952 179.536 317.952C179.904 317.952 180.208 317.896 180.448 317.784C180.704 317.672 181.024 317.44 181.408 317.088L185.512 313.32L185.944 313.68ZM183.952 327.12C185.232 327.28 186.192 327.448 186.832 327.624C187.488 327.8 187.928 328.008 188.152 328.248C188.392 328.472 188.512 328.848 188.512 329.376C188.512 329.888 188.304 330.144 187.888 330.144C187.712 330.144 187.576 330.112 187.48 330.048C187.4 330 187.136 329.776 186.688 329.376C186.24 328.96 185.808 328.624 185.392 328.368C184.992 328.096 184.496 327.84 183.904 327.6L183.952 327.12ZM205.688 311.592C207.016 311.992 207.88 312.336 208.28 312.624C208.696 312.912 208.904 313.264 208.904 313.68C208.904 314.08 208.752 314.456 208.448 314.808C208.16 315.144 207.888 315.312 207.632 315.312C207.392 315.312 207.224 315.272 207.128 315.192C207.048 315.096 206.92 314.776 206.744 314.232C206.584 313.672 206.408 313.24 206.216 312.936C206.04 312.616 205.784 312.264 205.448 311.88L205.688 311.592ZM212.696 320.472C213.928 318.312 214.856 315.368 215.48 311.64C217.416 312.264 218.384 312.688 218.384 312.912C218.384 313.024 218.256 313.112 218 313.176C217.744 313.24 217.56 313.336 217.448 313.464C217.352 313.592 217.184 313.936 216.944 314.496C216.72 315.04 216.472 315.592 216.2 316.152H219.704L220.304 315.288C220.4 315.144 220.496 315.072 220.592 315.072C220.688 315.072 221.096 315.304 221.816 315.768C222.536 316.216 222.896 316.52 222.896 316.68C222.896 316.84 222.608 317.04 222.032 317.28C221.968 320.8 221.864 323.712 221.72 326.016C221.592 328.304 221.456 329.864 221.312 330.696C221.168 331.528 220.968 332.104 220.712 332.424C220.456 332.76 219.96 333.064 219.224 333.336C218.504 333.624 218.056 333.768 217.88 333.768C217.736 333.768 217.624 333.632 217.544 333.36C217.384 332.832 217.112 332.424 216.728 332.136C216.344 331.848 215.576 331.512 214.424 331.128L214.544 330.648C216.24 330.984 217.36 331.152 217.904 331.152C218.464 331.152 218.84 331.024 219.032 330.768C219.224 330.528 219.368 330.072 219.464 329.4C219.576 328.712 219.688 327.12 219.8 324.624L216.848 326.448C215.088 327.536 214.08 328.192 213.824 328.416C213.584 328.624 213.432 328.728 213.368 328.728C213.304 328.728 213.24 328.696 213.176 328.632C213.128 328.568 212.984 328.336 212.744 327.936C212.504 327.536 212.264 327.104 212.024 326.64C213.912 326.032 215.256 325.584 216.056 325.296L219.824 323.952L219.992 316.848H215.84C215.248 317.952 214.296 319.264 212.984 320.784C213 320.816 213.072 320.912 213.2 321.072C213.328 321.216 213.392 321.328 213.392 321.408C213.392 321.472 213.272 321.504 213.032 321.504H202.376C201.944 321.504 201.608 321.56 201.368 321.672L200.936 320.688C201.272 320.768 201.672 320.808 202.136 320.808H207.776C208.304 319.608 208.776 318.136 209.192 316.392C210.216 316.824 210.864 317.12 211.136 317.28C211.408 317.44 211.544 317.576 211.544 317.688C211.544 317.784 211.424 317.872 211.184 317.952C210.944 318.016 210.696 318.2 210.44 318.504C210.184 318.792 209.592 319.56 208.664 320.808H210.344L211.16 319.728C211.304 319.552 211.424 319.464 211.52 319.464C211.696 319.464 212.088 319.8 212.696 320.472ZM210.152 315.504L211.016 314.328C211.128 314.2 211.224 314.136 211.304 314.136C211.432 314.136 211.784 314.432 212.36 315.024C212.936 315.616 213.224 315.968 213.224 316.08C213.224 316.176 213.104 316.224 212.864 316.224H203.336C202.904 316.224 202.568 316.28 202.328 316.392L201.896 315.384C202.232 315.464 202.632 315.504 203.096 315.504H210.152ZM203.624 316.632C204.488 317 205.12 317.304 205.52 317.544C205.936 317.784 206.208 318.008 206.336 318.216C206.464 318.424 206.528 318.688 206.528 319.008C206.528 319.312 206.376 319.648 206.072 320.016C205.784 320.368 205.488 320.544 205.184 320.544C205.072 320.544 204.984 320.48 204.92 320.352C204.872 320.224 204.808 319.952 204.728 319.536C204.664 319.104 204.544 318.704 204.368 318.336C204.192 317.968 203.872 317.52 203.408 316.992L203.624 316.632ZM214.376 319.224C215.336 319.928 216.064 320.552 216.56 321.096C217.056 321.624 217.304 322.096 217.304 322.512C217.304 322.928 217.12 323.328 216.752 323.712C216.384 324.096 216.032 324.288 215.696 324.288C215.52 324.288 215.4 324.224 215.336 324.096C215.272 323.968 215.224 323.592 215.192 322.968C215.176 322.328 215.088 321.744 214.928 321.216C214.768 320.688 214.48 320.136 214.064 319.56L214.376 319.224ZM205.328 323.376H209.072L209.72 322.512C209.8 322.416 209.888 322.368 209.984 322.368C210.096 322.368 210.464 322.576 211.088 322.992C211.712 323.408 212.024 323.68 212.024 323.808C212.024 323.936 211.76 324.096 211.232 324.288V330.096L211.28 332.256C211.28 332.448 211.264 332.56 211.232 332.592C211.2 332.64 211.072 332.728 210.848 332.856C210.624 332.984 210.344 333.104 210.008 333.216C209.672 333.328 209.464 333.384 209.384 333.384C209.32 333.384 209.288 333.288 209.288 333.096V331.272H205.28V332.76C205.28 332.904 205.264 333 205.232 333.048C205.216 333.096 205.096 333.176 204.872 333.288C204.648 333.416 204.344 333.544 203.96 333.672C203.576 333.8 203.344 333.864 203.264 333.864C203.2 333.864 203.176 333.792 203.192 333.648C203.272 332.864 203.312 332.064 203.312 331.248V324.504C203.312 323.832 203.288 323.152 203.24 322.464C204.088 322.768 204.784 323.072 205.328 323.376ZM205.28 326.904H209.288V324.024H205.28V326.904ZM209.288 327.552H205.28V330.624H209.288V327.552Z" fill="#9A764E"/>
<path d="M191.208 279.886C189.62 279.598 188.012 278.411 185.044 275.333C183.278 273.501 182.622 272.501 181.219 269.497C179.202 265.177 177.843 259.148 178.015 255.284C178.201 251.091 179.304 247.667 181.948 243.069C183.602 240.192 184.284 239.317 187.19 236.347C190.764 232.693 192.029 230.878 193.282 227.607C194.107 225.456 194.305 224.148 194.296 220.91C194.286 217.657 194.092 216.632 193.068 214.42C191.897 211.892 190.784 210.252 188.789 208.111C187.78 207.028 187.486 206.62 187.486 206.306C187.486 205.786 187.878 205.361 188.545 205.159C189.215 204.956 211.573 204.943 212.371 205.145C212.675 205.221 213.031 205.43 213.164 205.608C213.656 206.269 213.507 206.568 211.641 208.654C209.764 210.753 208.817 212.221 207.66 214.83C206.833 216.697 206.615 217.926 206.612 220.76C206.608 224.385 206.952 226.118 208.226 228.895C209.567 231.813 210.526 233.071 214.499 237.126C217.242 239.924 218.612 241.935 220.585 246.052C222.748 250.568 223.444 254.998 222.73 259.712C222.209 263.145 220.815 267.583 219.405 270.295C217.933 273.126 217.278 273.979 214.646 276.493C212.548 278.497 211.546 279.253 210.45 279.661C209.642 279.961 209.321 279.972 200.79 279.998C195.937 280.012 191.625 279.962 191.208 279.886Z" fill="#E3BD93" fill-opacity="0.51"/>
<path d="M181.145 257.086C181.145 257.017 181.628 256.879 181.973 256.327C182.249 255.982 182.456 255.223 182.111 254.671C181.697 254.05 180.731 253.981 180.11 254.188C178.868 254.602 178.73 256.189 178.661 256.327C178.523 257.638 179.351 258.604 179.558 258.88C180.869 260.329 182.801 260.26 183.008 260.26C185.492 260.122 186.872 257.845 187.079 257.431C188.735 254.671 187.562 251.704 187.355 251.152C187.148 250.669 186.458 249.082 184.802 247.978C181.766 245.908 177.626 247.081 175.211 248.668C172.796 250.255 171.83 252.532 171.416 253.498C171.002 254.533 169.691 257.776 171.002 261.64C172.451 265.918 176.177 267.712 177.005 268.057C177.488 268.264 180.8 269.713 184.664 268.609C185.078 268.471 186.941 267.988 188.804 266.47C190.184 265.366 191.15 263.779 191.15 263.779C191.426 263.158 191.771 262.537 192.047 261.847C192.323 262.123 192.668 262.399 193.082 262.744C194.048 263.572 194.945 264.055 195.497 264.331C195.98 264.607 196.877 265.09 198.188 265.573C199.844 266.194 201.086 266.47 201.362 266.539C203.57 266.953 205.226 266.884 205.571 266.815C205.916 266.815 206.399 266.815 206.882 266.677C209.642 266.056 212.126 264.331 213.644 262.468C214.127 261.916 214.472 261.364 215.3 260.605C215.852 260.122 217.232 258.88 219.371 258.259C219.785 258.121 221.993 257.5 224.753 258.19C226.685 258.673 227.996 259.639 229.721 260.812C231.584 262.123 232.481 263.089 232.55 263.02C232.757 262.882 230.963 260.191 228.272 257.914C226.685 256.534 224.132 254.395 220.544 253.981C218.75 253.774 217.025 254.05 216.887 254.05C214.679 254.395 213.782 255.085 211.505 255.085C210.263 255.085 209.573 254.878 209.366 254.74C209.366 254.74 207.848 254.188 206.675 252.877L206.261 252.325C206.054 252.049 205.985 251.911 205.916 251.842C205.847 251.704 205.364 251.083 204.605 250.669C203.432 250.048 202.259 250.255 201.914 250.324C200.741 250.531 200.051 251.221 199.775 251.497C199.844 251.014 199.844 249.358 198.74 247.909C197.498 246.322 195.704 246.046 194.945 245.908C192.392 245.494 190.322 246.805 189.287 247.357C188.666 247.702 188.183 248.116 187.907 248.392C188.183 248.944 188.597 249.772 188.942 250.807C189.218 251.635 189.563 252.946 189.563 254.326C189.494 256.12 188.666 258.673 186.458 260.191C185.975 260.536 183.698 262.123 181.076 261.226C180.8 261.157 179.075 260.536 178.178 258.673C177.557 257.431 177.212 255.43 178.316 254.05C178.454 253.843 179.282 252.877 180.593 252.808C180.8 252.808 182.18 252.739 182.87 253.774C183.284 254.326 183.491 255.292 182.939 256.051C182.387 257.155 181.145 257.224 181.145 257.086Z" fill="#DAB68E" fill-opacity="0.93"/>
</g>
<defs>
<filter id="filter0_d_113_150" x="0" y="0" width="398" height="852" filterUnits="userSpaceOnUse" color-interpolation-filters="sRGB">
<feFlood flood-opacity="0" result="BackgroundImageFix"/>
<feColorMatrix in="SourceAlpha" type="matrix" values="0 0 0 0 0 0 0 0 0 0 0 0 0 0 0 0 0 0 127 0" result="hardAlpha"/>
<feOffset dy="4"/>
<feGaussianBlur stdDeviation="2"/>
<feComposite in2="hardAlpha" operator="out"/>
<feColorMatrix type="matrix" values="0 0 0 0 0 0 0 0 0 0 0 0 0 0 0 0 0 0 0.25 0"/>
<feBlend mode="normal" in2="BackgroundImageFix" result="effect1_dropShadow_113_150"/>
<feBlend mode="normal" in="SourceGraphic" in2="effect1_dropShadow_113_150" result="shape"/>
</filter>
<clipPath id="clip0_113_150">
<rect width="390" height="844" fill="white" transform="translate(4)"/>
</clipPath>
</defs>
</svg>
