<svg width="398" height="852" viewBox="0 0 398 852" fill="none" xmlns="http://www.w3.org/2000/svg">
<g clip-path="url(#clip0_1109_616)" filter="url(#filter0_d_1109_616)">
<rect width="390" height="844" transform="translate(4)" fill="#F4F2E5"/>
<path d="M58.6904 28.0627C57.8327 28.0627 57.0662 28.2454 56.3911 28.6106C55.7215 28.9703 55.1958 29.4683 54.814 30.1047C54.4377 30.7356 54.2495 31.4578 54.2495 32.2712V32.2878C54.2495 33.0404 54.4155 33.7156 54.7476 34.3132C55.0851 34.9109 55.5472 35.3813 56.1338 35.7244C56.7204 36.0675 57.3955 36.239 58.1592 36.239C58.7126 36.239 59.194 36.156 59.6035 35.99C60.0186 35.824 60.3672 35.6054 60.6494 35.3342C60.9316 35.0631 61.1447 34.7698 61.2886 34.4543H61.5791V32.2463H61.0811V32.2629C61.0811 32.7112 60.9759 33.1124 60.7656 33.4666C60.5553 33.8207 60.2703 34.0974 59.9106 34.2966C59.5509 34.4958 59.1442 34.5955 58.6904 34.5955C58.2367 34.5955 57.8327 34.4931 57.4785 34.2883C57.1243 34.0836 56.8449 33.8041 56.6401 33.45C56.4354 33.0903 56.333 32.678 56.333 32.2131V32.1965C56.333 31.7483 56.4409 31.3443 56.6567 30.9846C56.8726 30.6194 57.1603 30.3316 57.52 30.1213C57.8797 29.9111 58.2754 29.8059 58.707 29.8059C59.1553 29.8059 59.5565 29.9138 59.9106 30.1296C60.2703 30.3455 60.5553 30.6388 60.7656 31.0095C60.9759 31.3803 61.0811 31.7926 61.0811 32.2463L61.4546 34.2468C61.4546 34.3243 61.4546 34.4045 61.4546 34.4875C61.4546 34.565 61.4518 34.6453 61.4463 34.7283C61.4186 35.4919 61.3024 36.1892 61.0977 36.8201C60.8984 37.4454 60.5968 37.9462 60.1929 38.3225C59.7944 38.6933 59.2798 38.8787 58.6489 38.8787C58.3003 38.8787 57.9849 38.8233 57.7026 38.7126C57.4259 38.5964 57.188 38.4332 56.9888 38.2229C56.7951 38.0126 56.6457 37.7691 56.5405 37.4924L56.5073 37.4094H54.4072L54.4238 37.5007C54.5566 38.1095 54.814 38.6518 55.1958 39.1277C55.5832 39.5981 56.0701 39.9688 56.6567 40.24C57.2489 40.5056 57.9129 40.6384 58.6489 40.6384C59.6506 40.6384 60.5111 40.3839 61.2305 39.8748C61.9554 39.3601 62.5116 38.6241 62.8989 37.6667C63.2863 36.7094 63.48 35.5583 63.48 34.2136V34.197C63.48 33.1124 63.3527 32.1855 63.0981 31.4163C62.8436 30.6415 62.4922 30.0079 62.0439 29.5154C61.6012 29.0173 61.0921 28.6521 60.5166 28.4197C59.9411 28.1817 59.3324 28.0627 58.6904 28.0627ZM67.2485 38.7292C67.6304 38.7292 67.9458 38.6047 68.1948 38.3557C68.4438 38.1012 68.5684 37.7913 68.5684 37.426C68.5684 37.0553 68.4438 36.7454 68.1948 36.4963C67.9458 36.2418 67.6304 36.1145 67.2485 36.1145C66.8722 36.1145 66.5568 36.2418 66.3022 36.4963C66.0532 36.7454 65.9287 37.0553 65.9287 37.426C65.9287 37.7913 66.0532 38.1012 66.3022 38.3557C66.5568 38.6047 66.8722 38.7292 67.2485 38.7292ZM67.2485 32.5701C67.6304 32.5701 67.9458 32.4456 68.1948 32.1965C68.4438 31.942 68.5684 31.6321 68.5684 31.2668C68.5684 30.8961 68.4438 30.5862 68.1948 30.3372C67.9458 30.0826 67.6304 29.9553 67.2485 29.9553C66.8722 29.9553 66.5568 30.0826 66.3022 30.3372C66.0532 30.5862 65.9287 30.8961 65.9287 31.2668C65.9287 31.6321 66.0532 31.942 66.3022 32.1965C66.5568 32.4456 66.8722 32.5701 67.2485 32.5701ZM76.8276 40.3396H78.8696V38.0403H80.4883V36.2722H78.8696V28.3616H75.8564C75.5244 28.8541 75.1924 29.3604 74.8604 29.8806C74.5339 30.3953 74.2046 30.9182 73.8726 31.4495C73.5461 31.9752 73.2168 32.5092 72.8848 33.0515C72.5583 33.5883 72.2345 34.1278 71.9136 34.6702C71.5981 35.2125 71.2827 35.752 70.9673 36.2888V38.0403H76.8276V40.3396ZM72.9595 36.322V36.1975C73.1919 35.788 73.4326 35.3757 73.6816 34.9607C73.9307 34.5401 74.1825 34.1223 74.437 33.7073C74.6916 33.2867 74.9489 32.8689 75.209 32.4539C75.4691 32.0388 75.7264 31.6321 75.981 31.2336C76.241 30.8352 76.4928 30.4478 76.7363 30.0715H76.8608V36.322H72.9595ZM85.4438 40.3396H87.5771V28.3616H85.4438L82.3145 30.5613V32.5701L85.2944 30.47H85.4438V40.3396Z" fill="black"/>
<rect opacity="0.35" x="335" y="28.5" width="24" height="12" rx="3.8" stroke="black"/>
<path opacity="0.4" d="M360.5 32.7811V36.8566C361.305 36.5114 361.828 35.7085 361.828 34.8189C361.828 33.9293 361.305 33.1263 360.5 32.7811Z" fill="black"/>
<rect x="336.5" y="30" width="21" height="9" rx="2.5" fill="black"/>
<path fill-rule="evenodd" clip-rule="evenodd" d="M318.771 31.104C321.258 31.1041 323.65 32.0262 325.452 33.6797C325.588 33.8074 325.805 33.8058 325.939 33.6761L327.236 32.4126C327.304 32.3469 327.341 32.2578 327.341 32.1651C327.34 32.0724 327.302 31.9838 327.233 31.9188C322.502 27.5441 315.038 27.5441 310.307 31.9188C310.239 31.9837 310.2 32.0724 310.199 32.165C310.199 32.2577 310.236 32.3468 310.304 32.4126L311.602 33.6761C311.735 33.8059 311.952 33.8076 312.088 33.6797C313.891 32.0261 316.283 31.104 318.771 31.104ZM318.767 35.3243C320.124 35.3242 321.433 35.836 322.439 36.7601C322.576 36.8913 322.79 36.8884 322.923 36.7537L324.21 35.4344C324.278 35.3652 324.315 35.2713 324.314 35.1738C324.313 35.0762 324.274 34.9831 324.205 34.9153C321.141 32.0245 316.396 32.0245 313.332 34.9153C313.263 34.9831 313.224 35.0762 313.223 35.1738C313.222 35.2714 313.26 35.3653 313.327 35.4344L314.614 36.7537C314.747 36.8884 314.961 36.8913 315.097 36.7601C316.103 35.8366 317.411 35.3249 318.767 35.3243ZM321.292 38.1179C321.294 38.2232 321.256 38.3248 321.189 38.3986L319.012 40.8533C318.949 40.9255 318.862 40.9661 318.771 40.9661C318.68 40.9661 318.593 40.9255 318.529 40.8533L316.352 38.3986C316.285 38.3247 316.248 38.2231 316.25 38.1178C316.252 38.0124 316.293 37.9127 316.363 37.842C317.753 36.5282 319.789 36.5282 321.179 37.842C321.249 37.9127 321.29 38.0125 321.292 38.1179Z" fill="black"/>
<path fill-rule="evenodd" clip-rule="evenodd" d="M302.7 29.6821C302.7 29.049 302.222 28.5358 301.633 28.5358H300.567C299.978 28.5358 299.5 29.049 299.5 29.6821V39.616C299.5 40.2491 299.978 40.7622 300.567 40.7622H301.633C302.222 40.7622 302.7 40.2491 302.7 39.616V29.6821ZM295.266 30.9811H296.333C296.922 30.9811 297.399 31.5066 297.399 32.1548V39.5885C297.399 40.2367 296.922 40.7622 296.333 40.7622H295.266C294.677 40.7622 294.199 40.2367 294.199 39.5885V32.1548C294.199 31.5066 294.677 30.9811 295.266 30.9811ZM290.934 33.6302H289.867C289.278 33.6302 288.801 34.1623 288.801 34.8188V39.5736C288.801 40.23 289.278 40.7622 289.867 40.7622H290.934C291.523 40.7622 292.001 40.23 292.001 39.5736V34.8188C292.001 34.1623 291.523 33.6302 290.934 33.6302ZM285.633 36.0755H284.567C283.978 36.0755 283.5 36.6 283.5 37.2471V39.5905C283.5 40.2377 283.978 40.7622 284.567 40.7622H285.633C286.222 40.7622 286.7 40.2377 286.7 39.5905V37.2471C286.7 36.6 286.222 36.0755 285.633 36.0755Z" fill="black"/>
<path d="M168.16 75.96C169.147 74.1733 169.913 72.3933 170.46 70.62C171.007 70.86 171.48 71.0933 171.88 71.32C172.293 71.5467 172.54 71.6933 172.62 71.76C172.713 71.8267 172.76 71.8933 172.76 71.96C172.76 72.0133 172.62 72.0867 172.34 72.18C172.073 72.26 171.833 72.4533 171.62 72.76C170.993 73.6533 170.127 74.72 169.02 75.96H171.9L172.76 74.6C172.867 74.4267 172.953 74.34 173.02 74.34C173.153 74.34 173.473 74.5533 173.98 74.98C174.5 75.3933 174.867 75.7 175.08 75.9C175.293 76.0867 175.4 76.2467 175.4 76.38C175.4 76.5133 175.233 76.58 174.9 76.58H168.4C168.36 77.9267 168.28 79.12 168.16 80.16H173.3L174.22 78.84C174.34 78.6667 174.447 78.58 174.54 78.58C174.74 78.58 175.133 78.8533 175.72 79.4C176.307 79.9467 176.6 80.3133 176.6 80.5C176.6 80.6733 176.44 80.76 176.12 80.76H168.9C169.54 82.5867 170.493 84.0067 171.76 85.02C173.027 86.02 174.76 86.7267 176.96 87.14V87.58C176.173 87.5533 175.6 87.62 175.24 87.78C174.88 87.94 174.56 88.22 174.28 88.62C174.213 88.7133 174.14 88.76 174.06 88.76C173.887 88.76 173.353 88.4333 172.46 87.78C171.58 87.1267 170.813 86.28 170.16 85.24C169.52 84.2 168.907 82.7067 168.32 80.76H168.08C167.773 82.9067 167.027 84.5667 165.84 85.74C164.653 86.9133 162.52 88.0467 159.44 89.14L159.24 88.74C161.547 87.6067 163.227 86.4467 164.28 85.26C165.333 84.0733 165.987 82.5733 166.24 80.76H160.62C160.26 80.76 159.98 80.8067 159.78 80.9L159.42 80.06C159.7 80.1267 160.033 80.16 160.42 80.16H166.3C166.38 79.4667 166.42 78.8067 166.42 78.18C166.42 77.54 166.413 77.0067 166.4 76.58H161.34C160.98 76.58 160.7 76.6267 160.5 76.72L160.14 75.86C160.42 75.9267 160.753 75.96 161.14 75.96H168.16ZM162.64 71.12C163.68 71.64 164.447 72.0667 164.94 72.4C165.447 72.7333 165.78 73.0267 165.94 73.28C166.1 73.52 166.18 73.84 166.18 74.24C166.18 74.64 166.067 74.9933 165.84 75.3C165.613 75.5933 165.413 75.74 165.24 75.74C165.067 75.74 164.953 75.7067 164.9 75.64C164.847 75.56 164.72 75.24 164.52 74.68C164.333 74.1067 164.087 73.6 163.78 73.16C163.473 72.7067 163.013 72.1333 162.4 71.44L162.64 71.12ZM187.88 73.28H182.46C182.1 73.28 181.82 73.3267 181.62 73.42L181.26 72.54C181.54 72.6067 181.873 72.64 182.26 72.64H193.18L194.2 71.34C194.32 71.1933 194.413 71.12 194.48 71.12C194.56 71.12 194.76 71.2533 195.08 71.52C195.4 71.7867 195.733 72.1 196.08 72.46C196.427 72.8067 196.6 73.0267 196.6 73.12C196.6 73.2267 196.46 73.28 196.18 73.28H189.74V78.88H195.08L195.78 77.64C195.927 77.3733 196.093 77.24 196.28 77.24C196.48 77.24 196.88 77.5533 197.48 78.18C198.093 78.7933 198.4 79.18 198.4 79.34C198.4 79.4867 198.273 79.56 198.02 79.56H189.74V86.34C189.74 87.0467 189.68 87.5333 189.56 87.8C189.44 88.08 189.08 88.3667 188.48 88.66C187.893 88.9667 187.507 89.12 187.32 89.12C187.213 89.12 187.133 89.02 187.08 88.82C186.987 88.4467 186.88 88.1733 186.76 88C186.653 87.8267 186.447 87.66 186.14 87.5C185.847 87.34 185.327 87.1267 184.58 86.86L184.6 86.48C185.84 86.72 186.647 86.84 187.02 86.84C187.407 86.84 187.647 86.78 187.74 86.66C187.833 86.5533 187.88 86.36 187.88 86.08V79.56H180.5C180.14 79.56 179.86 79.6067 179.66 79.7L179.3 78.78C179.58 78.8467 179.913 78.88 180.3 78.88H187.88V73.28ZM212.32 77.3C213.813 75.8733 215.1 74.2267 216.18 72.36C216.807 72.7467 217.287 73.08 217.62 73.36C217.953 73.64 218.12 73.8133 218.12 73.88C218.12 73.9467 218.027 73.9933 217.84 74.02C217.667 74.0467 217.513 74.1 217.38 74.18C217.26 74.2467 217.087 74.38 216.86 74.58C215.687 75.5667 214.173 76.7 212.32 77.98V78.92H216.04L216.64 78.02C216.773 77.8333 216.9 77.74 217.02 77.74C217.153 77.74 217.487 77.96 218.02 78.4C218.567 78.84 218.84 79.14 218.84 79.3C218.84 79.46 218.66 79.54 218.3 79.54H213.84C214.653 83.1667 216.527 85.5533 219.46 86.7V87.12C218.807 87.0933 218.34 87.14 218.06 87.26C217.78 87.38 217.513 87.6067 217.26 87.94C217.193 88.0333 217.127 88.08 217.06 88.08C216.887 88.08 216.513 87.7267 215.94 87.02C215.367 86.3133 214.84 85.36 214.36 84.16C213.88 82.9467 213.493 81.4067 213.2 79.54H212.32V86.18L214.44 84.98L214.72 85.34C213.827 86.1133 213.187 86.7267 212.8 87.18C212.413 87.6333 212.047 88.1733 211.7 88.8C211.607 88.96 211.52 89.04 211.44 89.04C211.373 89.04 211.2 88.9067 210.92 88.64C210.653 88.3867 210.34 88.0267 209.98 87.56C210.26 87.3733 210.453 87.16 210.56 86.92C210.667 86.6933 210.72 86.2667 210.72 85.64V79.54H208.78V81.34L208.82 82.88C208.82 83.0267 208.613 83.1867 208.2 83.36C207.787 83.5333 207.533 83.62 207.44 83.62C207.36 83.62 207.32 83.5333 207.32 83.36V72.94H203.38V83.16C203.38 83.3067 203.36 83.4067 203.32 83.46C203.293 83.5 203.193 83.5667 203.02 83.66C202.847 83.7533 202.62 83.8533 202.34 83.96C202.06 84.0533 201.893 84.1 201.84 84.1C201.787 84.1 201.76 84.0333 201.76 83.9L201.82 82.6C201.833 82.2 201.84 81.7533 201.84 81.26V73.4C201.84 72.8133 201.82 72.24 201.78 71.68C202.42 71.8933 202.98 72.12 203.46 72.36H207.16L207.56 71.72C207.68 71.52 207.8 71.42 207.92 71.42C208.04 71.42 208.347 71.58 208.84 71.9C209.347 72.22 209.6 72.4533 209.6 72.6C209.6 72.7333 209.327 72.9533 208.78 73.26V78.92H210.72V72.58C210.72 71.9 210.7 71.2733 210.66 70.7C212.34 71.1533 213.18 71.5067 213.18 71.76C213.18 71.9067 212.893 72.08 212.32 72.28V77.3ZM205.58 83.96C205.393 84.8933 204.98 85.7267 204.34 86.46C203.713 87.1933 202.68 88.1 201.24 89.18L200.96 88.88C202.16 87.6667 202.987 86.58 203.44 85.62C203.893 84.6467 204.2 83.4133 204.36 81.92C204.52 80.4267 204.58 77.9733 204.54 74.56C205.98 74.92 206.7 75.1933 206.7 75.38C206.7 75.4333 206.633 75.5067 206.5 75.6C206.367 75.68 206.28 75.78 206.24 75.9C206.2 76.0067 206.173 76.2467 206.16 76.62C206.067 80.0067 205.907 82.3133 205.68 83.54C208.147 84.7133 209.38 85.7467 209.38 86.64C209.38 86.96 209.273 87.26 209.06 87.54C208.847 87.8333 208.627 87.98 208.4 87.98C208.28 87.98 208.187 87.94 208.12 87.86C208.053 87.7933 207.947 87.6 207.8 87.28C207.12 85.7867 206.38 84.68 205.58 83.96ZM234.1 76.9H227.44V77.46C227.44 77.6067 227.387 77.72 227.28 77.8C227.173 77.8667 226.913 77.98 226.5 78.14C226.1 78.2867 225.847 78.36 225.74 78.36C225.633 78.36 225.58 78.32 225.58 78.24L225.64 77.12C225.68 76.5867 225.7 76.0533 225.7 75.52V72.8C225.7 72.24 225.68 71.6733 225.64 71.1C226.56 71.3533 227.233 71.6133 227.66 71.88H233.7L234.46 70.9C234.54 70.8067 234.627 70.76 234.72 70.76C234.827 70.76 235.053 70.8733 235.4 71.1L236.3 71.68C236.54 71.84 236.66 71.9733 236.66 72.08C236.66 72.1867 236.433 72.3333 235.98 72.52V74.96C235.98 75.4267 235.987 75.88 236 76.32C236.027 76.76 236.04 77.0133 236.04 77.08C236.04 77.1467 235.973 77.22 235.84 77.3C235.707 77.38 235.44 77.4867 235.04 77.62C234.64 77.74 234.38 77.8 234.26 77.8C234.153 77.8 234.1 77.7 234.1 77.5V76.9ZM227.44 76.28H234.1V72.46H227.44V76.28ZM230 79.6L228.88 82.04H234.52L235.18 81.14C235.273 81.02 235.36 80.96 235.44 80.96C235.533 80.96 235.867 81.1533 236.44 81.54C237.027 81.9133 237.32 82.1733 237.32 82.32C237.32 82.48 237.073 82.6267 236.58 82.76C236.433 83.48 236.193 84.36 235.86 85.4C235.527 86.4267 235.26 87.1 235.06 87.42C234.86 87.74 234.587 88.0267 234.24 88.28C233.893 88.5333 233.447 88.74 232.9 88.9C232.353 89.06 231.92 89.14 231.6 89.14C231.28 89.14 231.08 89.1067 231 89.04C230.92 88.9867 230.873 88.8933 230.86 88.76C230.86 88.64 230.86 88.52 230.86 88.4C230.86 88.0933 230.593 87.7933 230.06 87.5C229.54 87.2067 228.833 86.8933 227.94 86.56L228.08 86.22C229.813 86.6467 231.1 86.86 231.94 86.86C232.327 86.86 232.64 86.8133 232.88 86.72C233.133 86.6267 233.32 86.4867 233.44 86.3C233.573 86.1133 233.76 85.66 234 84.94C234.253 84.22 234.48 83.46 234.68 82.66H228.88L228.18 83.5C228.007 83.7133 227.847 83.82 227.7 83.82C227.58 83.82 227.36 83.6933 227.04 83.44C226.72 83.1867 226.307 82.84 225.8 82.4C226.653 82.12 227.153 81.7933 227.3 81.42L228.04 79.6H222.96C222.6 79.6 222.32 79.6467 222.12 79.74L221.76 78.92C222.04 78.9867 222.373 79.02 222.76 79.02H236.84L237.78 77.84C237.9 77.68 238.033 77.6 238.18 77.6C238.327 77.6 238.507 77.6933 238.72 77.88L239.66 78.7C240.1 79.06 240.32 79.3 240.32 79.42C240.32 79.54 240.173 79.6 239.88 79.6H230Z" fill="#9A764E"/>
</g>
<defs>
<filter id="filter0_d_1109_616" x="0" y="0" width="398" height="852" filterUnits="userSpaceOnUse" color-interpolation-filters="sRGB">
<feFlood flood-opacity="0" result="BackgroundImageFix"/>
<feColorMatrix in="SourceAlpha" type="matrix" values="0 0 0 0 0 0 0 0 0 0 0 0 0 0 0 0 0 0 127 0" result="hardAlpha"/>
<feOffset dy="4"/>
<feGaussianBlur stdDeviation="2"/>
<feComposite in2="hardAlpha" operator="out"/>
<feColorMatrix type="matrix" values="0 0 0 0 0 0 0 0 0 0 0 0 0 0 0 0 0 0 0.25 0"/>
<feBlend mode="normal" in2="BackgroundImageFix" result="effect1_dropShadow_1109_616"/>
<feBlend mode="normal" in="SourceGraphic" in2="effect1_dropShadow_1109_616" result="shape"/>
</filter>
<clipPath id="clip0_1109_616">
<rect width="390" height="844" fill="white" transform="translate(4)"/>
</clipPath>
</defs>
</svg>
