<svg width="398" height="852" viewBox="0 0 398 852" fill="none" xmlns="http://www.w3.org/2000/svg">
<g clip-path="url(#clip0_113_150)" filter="url(#filter0_d_113_150)">
<rect width="390" height="844" transform="translate(4)" fill="#F4F2E5"/>
<path d="M57.6335 28.0627C58.2755 28.0627 58.8842 28.1817 59.4597 28.4197C60.0352 28.6521 60.5444 29.0173 60.9871 29.5154C61.4353 30.0079 61.7867 30.6415 62.0413 31.4163C62.2958 32.1855 62.4231 33.1124 62.4231 34.197V34.2136C62.4231 35.5583 62.2294 36.7094 61.842 37.6667C61.4547 38.6241 60.8985 39.3601 60.1736 39.8748C59.4542 40.3839 58.5937 40.6384 57.592 40.6384C56.856 40.6384 56.192 40.5056 55.5999 40.24C55.0133 39.9688 54.5263 39.5981 54.1389 39.1277C53.7571 38.6518 53.4998 38.1095 53.3669 37.5007L53.3503 37.4094H55.4504L55.4836 37.4924C55.5888 37.7691 55.7382 38.0126 55.9319 38.2229C56.1311 38.4332 56.3691 38.5964 56.6458 38.7126C56.928 38.8233 57.2434 38.8787 57.592 38.8787C58.2229 38.8787 58.7375 38.6933 59.136 38.3225C59.54 37.9462 59.8416 37.4454 60.0408 36.8201C60.2455 36.1892 60.3617 35.4919 60.3894 34.7283C60.3949 34.6453 60.3977 34.565 60.3977 34.4875C60.3977 34.4045 60.3977 34.3243 60.3977 34.2468L60.0242 32.2463C60.0242 31.7926 59.919 31.3803 59.7087 31.0095C59.4985 30.6388 59.2135 30.3455 58.8538 30.1296C58.4996 29.9138 58.0984 29.8059 57.6501 29.8059C57.2185 29.8059 56.8228 29.9111 56.4631 30.1213C56.1034 30.3316 55.8157 30.6194 55.5999 30.9846C55.384 31.3443 55.2761 31.7483 55.2761 32.1965V32.2131C55.2761 32.678 55.3785 33.0903 55.5833 33.45C55.788 33.8041 56.0675 34.0836 56.4216 34.2883C56.7758 34.4931 57.1798 34.5955 57.6335 34.5955C58.0873 34.5955 58.4941 34.4958 58.8538 34.2966C59.2135 34.0974 59.4985 33.8207 59.7087 33.4666C59.919 33.1124 60.0242 32.7112 60.0242 32.2629V32.2463H60.5222V34.4543H60.2317C60.0878 34.7698 59.8748 35.0631 59.5925 35.3342C59.3103 35.6054 58.9617 35.824 58.5466 35.99C58.1371 36.156 57.6557 36.239 57.1023 36.239C56.3386 36.239 55.6635 36.0675 55.0769 35.7244C54.4903 35.3813 54.0282 34.9109 53.6907 34.3132C53.3586 33.7156 53.1926 33.0404 53.1926 32.2878V32.2712C53.1926 31.4578 53.3808 30.7356 53.7571 30.1047C54.1389 29.4683 54.6646 28.9703 55.3342 28.6106C56.0094 28.2454 56.7758 28.0627 57.6335 28.0627ZM66.1917 38.7292C65.8153 38.7292 65.4999 38.6047 65.2454 38.3557C64.9963 38.1012 64.8718 37.7913 64.8718 37.426C64.8718 37.0553 64.9963 36.7454 65.2454 36.4963C65.4999 36.2418 65.8153 36.1145 66.1917 36.1145C66.5735 36.1145 66.8889 36.2418 67.1379 36.4963C67.387 36.7454 67.5115 37.0553 67.5115 37.426C67.5115 37.7913 67.387 38.1012 67.1379 38.3557C66.8889 38.6047 66.5735 38.7292 66.1917 38.7292ZM66.1917 32.5701C65.8153 32.5701 65.4999 32.4456 65.2454 32.1965C64.9963 31.942 64.8718 31.6321 64.8718 31.2668C64.8718 30.8961 64.9963 30.5862 65.2454 30.3372C65.4999 30.0826 65.8153 29.9553 66.1917 29.9553C66.5735 29.9553 66.8889 30.0826 67.1379 30.3372C67.387 30.5862 67.5115 30.8961 67.5115 31.2668C67.5115 31.6321 67.387 31.942 67.1379 32.1965C66.8889 32.4456 66.5735 32.5701 66.1917 32.5701ZM75.7708 40.3396V38.0403H69.9104V36.2888C70.2258 35.752 70.5413 35.2125 70.8567 34.6702C71.1777 34.1278 71.5014 33.5883 71.8279 33.0515C72.1599 32.5092 72.4892 31.9752 72.8157 31.4495C73.1477 30.9182 73.477 30.3953 73.8035 29.8806C74.1355 29.3604 74.4675 28.8541 74.7996 28.3616H77.8127V36.2722H79.4314V38.0403H77.8127V40.3396H75.7708ZM71.9026 36.322H75.804V30.0715H75.6794C75.436 30.4478 75.1842 30.8352 74.9241 31.2336C74.6695 31.6321 74.4122 32.0388 74.1521 32.4539C73.892 32.8689 73.6347 33.2867 73.3801 33.7073C73.1256 34.1223 72.8738 34.5401 72.6248 34.9607C72.3757 35.3757 72.135 35.788 71.9026 36.1975V36.322ZM84.387 40.3396V30.47H84.2375L81.2576 32.5701V30.5613L84.387 28.3616H86.5203V40.3396H84.387Z" fill="black"/>
<rect opacity="0.35" x="335" y="28.5" width="24" height="12" rx="3.8" stroke="black"/>
<path opacity="0.4" d="M360.5 32.7811V36.8566C361.305 36.5114 361.828 35.7085 361.828 34.8189C361.828 33.9293 361.305 33.1263 360.5 32.7811Z" fill="black"/>
<rect x="336.5" y="30" width="21" height="9" rx="2.5" fill="black"/>
<path fill-rule="evenodd" clip-rule="evenodd" d="M318.771 31.104C321.258 31.1041 323.65 32.0262 325.452 33.6796C325.588 33.8073 325.805 33.8057 325.939 33.676L327.236 32.4126C327.304 32.3468 327.341 32.2577 327.341 32.165C327.34 32.0724 327.302 31.9837 327.233 31.9187C322.502 27.544 315.038 27.544 310.307 31.9187C310.239 31.9837 310.2 32.0723 310.199 32.165C310.199 32.2577 310.236 32.3468 310.304 32.4126L311.602 33.676C311.735 33.8059 311.952 33.8075 312.088 33.6796C313.891 32.0261 316.283 31.104 318.771 31.104ZM318.767 35.3243C320.124 35.3242 321.433 35.8359 322.439 36.76C322.576 36.8912 322.79 36.8883 322.923 36.7536L324.21 35.4343C324.278 35.3651 324.315 35.2712 324.314 35.1737C324.313 35.0761 324.274 34.9831 324.205 34.9153C321.141 32.0244 316.396 32.0244 313.332 34.9153C313.263 34.9831 313.224 35.0762 313.223 35.1738C313.222 35.2714 313.26 35.3652 313.327 35.4343L314.614 36.7536C314.747 36.8883 314.961 36.8912 315.097 36.76C316.103 35.8365 317.411 35.3248 318.767 35.3243ZM321.292 38.1178C321.294 38.2232 321.256 38.3247 321.189 38.3985L319.012 40.8533C318.949 40.9254 318.862 40.966 318.771 40.966C318.68 40.966 318.593 40.9254 318.529 40.8533L316.352 38.3985C316.285 38.3247 316.248 38.2231 316.25 38.1177C316.252 38.0124 316.293 37.9126 316.363 37.842C317.753 36.5281 319.789 36.5281 321.179 37.842C321.249 37.9127 321.29 38.0125 321.292 38.1178Z" fill="black"/>
<path fill-rule="evenodd" clip-rule="evenodd" d="M302.7 29.682C302.7 29.0489 302.222 28.5358 301.633 28.5358H300.567C299.978 28.5358 299.5 29.0489 299.5 29.682V39.616C299.5 40.249 299.978 40.7622 300.567 40.7622H301.633C302.222 40.7622 302.7 40.249 302.7 39.616V29.682ZM295.266 30.981H296.333C296.922 30.981 297.399 31.5065 297.399 32.1548V39.5884C297.399 40.2367 296.922 40.7622 296.333 40.7622H295.266C294.677 40.7622 294.199 40.2367 294.199 39.5884V32.1548C294.199 31.5065 294.677 30.981 295.266 30.981ZM290.934 33.6301H289.867C289.278 33.6301 288.801 34.1623 288.801 34.8188V39.5735C288.801 40.23 289.278 40.7622 289.867 40.7622H290.934C291.523 40.7622 292.001 40.23 292.001 39.5735V34.8188C292.001 34.1623 291.523 33.6301 290.934 33.6301ZM285.633 36.0754H284.567C283.978 36.0754 283.5 36.6 283.5 37.2471V39.5905C283.5 40.2376 283.978 40.7622 284.567 40.7622H285.633C286.222 40.7622 286.7 40.2376 286.7 39.5905V37.2471C286.7 36.6 286.222 36.0754 285.633 36.0754Z" fill="black"/>
<rect x="138" y="208" width="120" height="120" rx="15" fill="white"/>
<path d="M185.12 362.2C183.645 363.731 182.059 365.14 180.36 366.428L179.912 365.98C182.189 363.591 183.916 360.837 185.092 357.72C185.783 357.944 186.483 358.233 187.192 358.588C187.92 358.943 188.284 359.176 188.284 359.288C188.284 359.4 188.163 359.484 187.92 359.54C187.677 359.577 187.491 359.643 187.36 359.736C187.248 359.811 187.033 360.053 186.716 360.464C186.399 360.856 186.1 361.183 185.82 361.444H192.568L193.436 360.52C193.66 360.277 193.837 360.156 193.968 360.156C194.155 360.156 194.668 360.595 195.508 361.472C196.367 362.331 196.796 362.891 196.796 363.152C196.796 363.245 196.731 363.292 196.6 363.292C196.469 363.292 196.273 363.273 196.012 363.236C195.769 363.18 195.527 363.152 195.284 363.152C194.537 363.152 193.296 363.889 191.56 365.364L191.056 365.056C191.709 363.992 192.232 363.04 192.624 362.2H186.8C187.64 362.443 188.265 362.667 188.676 362.872C189.105 363.077 189.32 363.227 189.32 363.32C189.32 363.451 189.096 363.6 188.648 363.768C189.227 365.149 190.123 366.185 191.336 366.876C192.549 367.548 194.285 368.024 196.544 368.304V369.004C195.088 368.948 194.145 369.293 193.716 370.04C194.295 370.395 194.817 370.768 195.284 371.16C195.769 371.533 196.012 371.795 196.012 371.944C196.012 372.131 195.76 372.224 195.256 372.224H180.976L180.416 373.96H187.332L187.948 373.26C188.153 373.017 188.321 372.896 188.452 372.896C188.583 372.896 189.012 373.129 189.74 373.596C190.487 374.063 190.86 374.38 190.86 374.548C190.86 374.809 190.459 375.033 189.656 375.22L189.04 379.616C188.984 380.101 189.105 380.419 189.404 380.568C189.721 380.736 190.309 380.82 191.168 380.82C192.045 380.82 192.652 380.708 192.988 380.484C193.324 380.279 193.595 379.849 193.8 379.196C194.024 378.543 194.285 377.413 194.584 375.808L195.228 375.836C195.191 376.377 195.172 376.863 195.172 377.292C195.172 379.177 195.527 380.307 196.236 380.68C196.441 380.773 196.544 380.876 196.544 380.988C196.544 381.249 196.385 381.557 196.068 381.912C195.751 382.285 195.359 382.547 194.892 382.696C194.444 382.845 193.651 382.92 192.512 382.92C191.392 382.92 190.319 382.873 189.292 382.78C188.265 382.687 187.565 382.537 187.192 382.332C186.819 382.127 186.632 381.688 186.632 381.016C186.632 380.717 186.669 380.269 186.744 379.672L187.332 374.716H180.192L178.4 380.372C180.957 380.223 183.543 379.952 186.156 379.56L186.296 380.092C182.544 381.081 180.043 381.763 178.792 382.136C177.541 382.528 176.776 382.808 176.496 382.976C176.216 383.163 176.029 383.256 175.936 383.256C175.861 383.256 175.749 383.116 175.6 382.836C175.469 382.575 175.189 381.856 174.76 380.68C175.189 380.661 175.553 380.531 175.852 380.288C176.151 380.064 176.412 379.588 176.636 378.86L178.68 372.224H173.752C173.248 372.224 172.856 372.289 172.576 372.42L172.072 371.216C172.464 371.309 172.931 371.356 173.472 371.356H191.476L192.344 370.096C191.093 369.275 190.169 368.453 189.572 367.632C188.993 366.792 188.545 365.635 188.228 364.16C187.369 366.605 186.361 368.248 185.204 369.088C184.065 369.909 182.152 370.497 179.464 370.852L179.352 370.32C181.424 369.797 183.001 368.911 184.084 367.66C185.167 366.409 185.96 364.589 186.464 362.2H185.12ZM174.256 358.616C175.189 358.859 175.936 359.083 176.496 359.288C177.075 359.475 177.513 359.661 177.812 359.848C178.111 360.035 178.307 360.212 178.4 360.38C178.493 360.548 178.54 360.856 178.54 361.304C178.54 361.733 178.447 362.069 178.26 362.312C178.092 362.536 177.887 362.648 177.644 362.648C177.42 362.648 177.103 362.359 176.692 361.78C176.281 361.183 175.871 360.697 175.46 360.324C175.049 359.932 174.564 359.568 174.004 359.232L174.256 358.616ZM182.768 359.96L178.4 365.028C177.952 365.532 177.653 365.924 177.504 366.204C177.355 366.465 177.28 366.773 177.28 367.128C177.28 367.483 177.336 367.949 177.448 368.528C177.579 369.088 177.644 369.452 177.644 369.62C177.644 370.273 177.327 370.6 176.692 370.6C176.057 370.6 175.535 370.423 175.124 370.068C174.732 369.713 174.536 369.331 174.536 368.92C174.536 368.827 174.545 368.733 174.564 368.64C174.825 367.725 174.956 367.091 174.956 366.736C174.956 366.363 174.779 366.064 174.424 365.84C174.088 365.597 173.509 365.317 172.688 365L172.884 364.44C174.06 364.776 174.863 364.944 175.292 364.944C175.721 364.944 176.076 364.879 176.356 364.748C176.655 364.617 177.028 364.347 177.476 363.936L182.264 359.54L182.768 359.96ZM180.444 375.64C181.937 375.827 183.057 376.023 183.804 376.228C184.569 376.433 185.083 376.676 185.344 376.956C185.624 377.217 185.764 377.656 185.764 378.272C185.764 378.869 185.521 379.168 185.036 379.168C184.831 379.168 184.672 379.131 184.56 379.056C184.467 379 184.159 378.739 183.636 378.272C183.113 377.787 182.609 377.395 182.124 377.096C181.657 376.779 181.079 376.48 180.388 376.2L180.444 375.64ZM205.636 357.524C207.185 357.991 208.193 358.392 208.66 358.728C209.145 359.064 209.388 359.475 209.388 359.96C209.388 360.427 209.211 360.865 208.856 361.276C208.52 361.668 208.203 361.864 207.904 361.864C207.624 361.864 207.428 361.817 207.316 361.724C207.223 361.612 207.073 361.239 206.868 360.604C206.681 359.951 206.476 359.447 206.252 359.092C206.047 358.719 205.748 358.308 205.356 357.86L205.636 357.524ZM213.812 367.884C215.249 365.364 216.332 361.929 217.06 357.58C219.319 358.308 220.448 358.803 220.448 359.064C220.448 359.195 220.299 359.297 220 359.372C219.701 359.447 219.487 359.559 219.356 359.708C219.244 359.857 219.048 360.259 218.768 360.912C218.507 361.547 218.217 362.191 217.9 362.844H221.988L222.688 361.836C222.8 361.668 222.912 361.584 223.024 361.584C223.136 361.584 223.612 361.855 224.452 362.396C225.292 362.919 225.712 363.273 225.712 363.46C225.712 363.647 225.376 363.88 224.704 364.16C224.629 368.267 224.508 371.664 224.34 374.352C224.191 377.021 224.032 378.841 223.864 379.812C223.696 380.783 223.463 381.455 223.164 381.828C222.865 382.22 222.287 382.575 221.428 382.892C220.588 383.228 220.065 383.396 219.86 383.396C219.692 383.396 219.561 383.237 219.468 382.92C219.281 382.304 218.964 381.828 218.516 381.492C218.068 381.156 217.172 380.764 215.828 380.316L215.968 379.756C217.947 380.148 219.253 380.344 219.888 380.344C220.541 380.344 220.98 380.195 221.204 379.896C221.428 379.616 221.596 379.084 221.708 378.3C221.839 377.497 221.969 375.64 222.1 372.728L218.656 374.856C216.603 376.125 215.427 376.891 215.128 377.152C214.848 377.395 214.671 377.516 214.596 377.516C214.521 377.516 214.447 377.479 214.372 377.404C214.316 377.329 214.148 377.059 213.868 376.592C213.588 376.125 213.308 375.621 213.028 375.08C215.231 374.371 216.799 373.848 217.732 373.512L222.128 371.944L222.324 363.656H217.48C216.789 364.944 215.679 366.475 214.148 368.248C214.167 368.285 214.251 368.397 214.4 368.584C214.549 368.752 214.624 368.883 214.624 368.976C214.624 369.051 214.484 369.088 214.204 369.088H201.772C201.268 369.088 200.876 369.153 200.596 369.284L200.092 368.136C200.484 368.229 200.951 368.276 201.492 368.276H208.072C208.688 366.876 209.239 365.159 209.724 363.124C210.919 363.628 211.675 363.973 211.992 364.16C212.309 364.347 212.468 364.505 212.468 364.636C212.468 364.748 212.328 364.851 212.048 364.944C211.768 365.019 211.479 365.233 211.18 365.588C210.881 365.924 210.191 366.82 209.108 368.276H211.068L212.02 367.016C212.188 366.811 212.328 366.708 212.44 366.708C212.645 366.708 213.103 367.1 213.812 367.884ZM210.844 362.088L211.852 360.716C211.983 360.567 212.095 360.492 212.188 360.492C212.337 360.492 212.748 360.837 213.42 361.528C214.092 362.219 214.428 362.629 214.428 362.76C214.428 362.872 214.288 362.928 214.008 362.928H202.892C202.388 362.928 201.996 362.993 201.716 363.124L201.212 361.948C201.604 362.041 202.071 362.088 202.612 362.088H210.844ZM203.228 363.404C204.236 363.833 204.973 364.188 205.44 364.468C205.925 364.748 206.243 365.009 206.392 365.252C206.541 365.495 206.616 365.803 206.616 366.176C206.616 366.531 206.439 366.923 206.084 367.352C205.748 367.763 205.403 367.968 205.048 367.968C204.917 367.968 204.815 367.893 204.74 367.744C204.684 367.595 204.609 367.277 204.516 366.792C204.441 366.288 204.301 365.821 204.096 365.392C203.891 364.963 203.517 364.44 202.976 363.824L203.228 363.404ZM215.772 366.428C216.892 367.249 217.741 367.977 218.32 368.612C218.899 369.228 219.188 369.779 219.188 370.264C219.188 370.749 218.973 371.216 218.544 371.664C218.115 372.112 217.704 372.336 217.312 372.336C217.107 372.336 216.967 372.261 216.892 372.112C216.817 371.963 216.761 371.524 216.724 370.796C216.705 370.049 216.603 369.368 216.416 368.752C216.229 368.136 215.893 367.492 215.408 366.82L215.772 366.428ZM205.216 371.272H209.584L210.34 370.264C210.433 370.152 210.536 370.096 210.648 370.096C210.779 370.096 211.208 370.339 211.936 370.824C212.664 371.309 213.028 371.627 213.028 371.776C213.028 371.925 212.72 372.112 212.104 372.336V379.112L212.16 381.632C212.16 381.856 212.141 381.987 212.104 382.024C212.067 382.08 211.917 382.183 211.656 382.332C211.395 382.481 211.068 382.621 210.676 382.752C210.284 382.883 210.041 382.948 209.948 382.948C209.873 382.948 209.836 382.836 209.836 382.612V380.484H205.16V382.22C205.16 382.388 205.141 382.5 205.104 382.556C205.085 382.612 204.945 382.705 204.684 382.836C204.423 382.985 204.068 383.135 203.62 383.284C203.172 383.433 202.901 383.508 202.808 383.508C202.733 383.508 202.705 383.424 202.724 383.256C202.817 382.341 202.864 381.408 202.864 380.456V372.588C202.864 371.804 202.836 371.011 202.78 370.208C203.769 370.563 204.581 370.917 205.216 371.272ZM205.16 375.388H209.836V372.028H205.16V375.388ZM209.836 376.144H205.16V379.728H209.836V376.144Z" fill="#9A764E"/>
<path d="M189.328 303.891C187.845 303.614 186.345 302.474 183.574 299.519C181.926 297.761 181.314 296.801 180.005 293.917C178.122 289.77 176.853 283.982 177.014 280.273C177.188 276.247 178.217 272.96 180.685 268.546C182.228 265.784 182.865 264.944 185.577 262.093C188.913 258.585 190.094 256.843 191.264 253.703C192.033 251.638 192.218 250.382 192.209 247.273C192.201 244.151 192.02 243.166 191.064 241.043C189.971 238.617 188.932 237.042 187.07 234.986C186.128 233.947 185.853 233.556 185.853 233.254C185.853 232.754 186.22 232.346 186.842 232.153C187.467 231.958 208.334 231.945 209.08 232.139C209.363 232.212 209.696 232.412 209.82 232.584C210.279 233.218 210.139 233.505 208.398 235.508C206.646 237.523 205.763 238.932 204.683 241.437C203.91 243.229 203.708 244.409 203.705 247.129C203.701 250.609 204.022 252.274 205.211 254.939C206.462 257.741 207.357 258.949 211.066 262.841C213.626 265.527 214.905 267.457 216.746 271.41C218.765 275.745 219.414 279.998 218.748 284.524C218.262 287.819 216.961 292.08 215.645 294.683C214.271 297.401 213.66 298.22 211.203 300.633C209.245 302.557 208.31 303.283 207.287 303.674C206.532 303.963 206.233 303.973 198.271 303.998C193.741 304.011 189.717 303.963 189.328 303.891Z" fill="#E3BD93" fill-opacity="0.51"/>
</g>
<defs>
<filter id="filter0_d_113_150" x="0" y="0" width="398" height="852" filterUnits="userSpaceOnUse" color-interpolation-filters="sRGB">
<feFlood flood-opacity="0" result="BackgroundImageFix"/>
<feColorMatrix in="SourceAlpha" type="matrix" values="0 0 0 0 0 0 0 0 0 0 0 0 0 0 0 0 0 0 127 0" result="hardAlpha"/>
<feOffset dy="4"/>
<feGaussianBlur stdDeviation="2"/>
<feComposite in2="hardAlpha" operator="out"/>
<feColorMatrix type="matrix" values="0 0 0 0 0 0 0 0 0 0 0 0 0 0 0 0 0 0 0.25 0"/>
<feBlend mode="normal" in2="BackgroundImageFix" result="effect1_dropShadow_113_150"/>
<feBlend mode="normal" in="SourceGraphic" in2="effect1_dropShadow_113_150" result="shape"/>
</filter>
<clipPath id="clip0_113_150">
<rect width="390" height="844" fill="white" transform="translate(4)"/>
</clipPath>
</defs>
</svg>
