<svg width="174" height="55" viewBox="0 0 174 55" fill="none" xmlns="http://www.w3.org/2000/svg">
<rect x="25.7507" y="8.98926" width="120.449" height="37.4221" fill="#B1AA93"/>
<ellipse cx="8.74367" cy="19.8827" rx="8.74367" ry="19.8827" transform="matrix(0.0010598 0.999999 -1 0.000825105 173.545 0)" fill="#F7F6ED"/>
<ellipse cx="8.74367" cy="19.8827" rx="8.74367" ry="19.8827" transform="matrix(0.0010598 0.999999 -1 0.000825105 39.7654 0.00805664)" fill="#F7F6ED"/>
<ellipse cx="8.74367" cy="19.8827" rx="8.74367" ry="19.8827" transform="matrix(0.0010598 0.999999 -1 0.000825105 39.7654 37.4307)" fill="#F7F6ED"/>
<ellipse cx="8.74367" cy="20.1017" rx="8.74367" ry="20.1017" transform="matrix(0.0010598 0.999999 -1 0.000825105 173.981 37.4221)" fill="#F7F6ED"/>
<path d="M60.952 20.672C61.224 20.704 61.432 20.912 61.256 21.136C61.176 21.248 61.032 21.312 60.808 21.344V23.2H62.248L62.808 22.512C62.968 22.32 63.16 22.272 63.368 22.432C63.688 22.688 64.024 22.96 64.328 23.232C64.504 23.376 64.616 23.568 64.44 23.728C64.36 23.808 64.248 23.824 64.12 23.824H60.808V25.792H62.648L63.208 25.088C63.368 24.896 63.576 24.864 63.768 25.024C64.088 25.264 64.44 25.552 64.76 25.808C64.936 25.968 65.032 26.16 64.872 26.32C64.792 26.4 64.696 26.416 64.568 26.416H60.808V28.16H62.424L62.808 27.728C62.968 27.552 63.176 27.52 63.368 27.664L64.328 28.336C64.552 28.496 64.616 28.736 64.376 28.864C64.264 28.944 64.12 28.992 63.976 29.008V32.512C63.976 33.344 63.816 33.904 62.776 34.128C62.504 34.192 62.344 34.032 62.328 33.76C62.312 33.648 62.296 33.552 62.264 33.456C62.2 33.296 62.136 33.184 61.992 33.088C61.928 33.056 61.848 33.008 61.752 32.976C61.528 32.912 61.4 32.816 61.4 32.688C61.4 32.576 61.544 32.496 61.816 32.512C62.04 32.528 62.232 32.544 62.328 32.544C62.552 32.544 62.568 32.512 62.568 32.368V28.784H60.808V34.816C60.808 35.104 60.168 35.376 59.672 35.376C59.496 35.376 59.4 35.232 59.4 34.976V28.784H57.672V33.792C57.672 34.032 57.032 34.272 56.504 34.272C56.376 34.272 56.296 34.128 56.296 33.872V28.096C56.296 27.808 56.488 27.664 56.76 27.776L57.752 28.16H59.4V26.416H55.96C55.736 26.416 55.592 26.32 55.528 26.096C55.464 25.92 55.624 25.792 55.912 25.792H59.4V23.824H57.448C57.064 24.416 56.648 24.928 56.232 25.328C56.056 25.504 55.944 25.552 55.848 25.488C55.752 25.44 55.768 25.296 55.88 25.056C56.344 24.064 56.776 22.72 57.016 21.376C57.08 21.104 57.224 20.992 57.496 21.072L58.648 21.392C58.92 21.472 59.08 21.712 58.856 21.872C58.76 21.936 58.632 21.968 58.44 21.968C58.248 22.416 58.024 22.832 57.816 23.2H59.4V20.944C59.4 20.688 59.56 20.528 59.816 20.56L60.952 20.672ZM65.576 32.032C65.496 32.032 65.448 31.888 65.448 31.632V22.192C65.448 21.936 65.608 21.776 65.864 21.808L66.904 21.904C67.176 21.936 67.384 22.16 67.192 22.368C67.112 22.448 66.968 22.512 66.776 22.544V31.552C66.776 31.792 66.232 32.032 65.704 32.032H65.576ZM66.504 34.08C66.248 34.032 66.12 33.936 66.12 33.808C66.12 33.68 66.264 33.616 66.536 33.632C67.192 33.68 67.816 33.728 67.992 33.728C68.264 33.728 68.328 33.664 68.328 33.472V21.152C68.328 20.896 68.488 20.752 68.744 20.784L69.88 20.88C70.152 20.912 70.36 21.12 70.168 21.344C70.072 21.44 69.928 21.504 69.72 21.536V33.584C69.72 34.512 69.544 35.12 68.2 35.344C67.944 35.392 67.784 35.264 67.736 35.008C67.672 34.784 67.608 34.608 67.432 34.432C67.256 34.288 66.984 34.16 66.504 34.08ZM84.056 26.368C84.216 26.16 84.424 26.144 84.616 26.304C84.952 26.544 85.336 26.848 85.656 27.104C85.832 27.264 85.928 27.456 85.768 27.616C85.688 27.696 85.592 27.712 85.464 27.712H81.656V30.528H83.608L84.264 29.76C84.424 29.568 84.616 29.536 84.808 29.68C85.192 29.952 85.624 30.272 85.976 30.56C86.152 30.72 86.264 30.928 86.088 31.072C85.992 31.152 85.88 31.168 85.768 31.168H81.656V34.912C81.656 35.12 81.192 35.376 80.36 35.376C80.184 35.376 80.088 35.232 80.088 34.976V24.352H79.272C78.36 25.728 77.368 26.928 76.296 27.824C76.104 27.984 75.976 28.016 75.896 27.936C75.816 27.872 75.848 27.728 75.992 27.52C77.176 25.84 78.408 23.36 79.16 20.864C79.24 20.624 79.416 20.528 79.656 20.608L81 21.04C81.256 21.12 81.432 21.376 81.192 21.536C81.096 21.6 80.952 21.616 80.76 21.616C80.408 22.384 80.024 23.088 79.656 23.744H83.944L84.616 22.928C84.776 22.736 84.984 22.72 85.176 22.864C85.56 23.136 85.976 23.456 86.328 23.744C86.504 23.904 86.616 24.096 86.44 24.256C86.36 24.336 86.248 24.352 86.12 24.352H81.656V27.088H83.464L84.056 26.368ZM71.496 28.832C71.416 28.752 71.448 28.64 71.592 28.432C72.936 26.528 74.328 23.712 75.16 20.848C75.24 20.592 75.416 20.496 75.656 20.576L77 20.992C77.256 21.072 77.432 21.328 77.192 21.488C77.08 21.568 76.936 21.584 76.744 21.568C76.216 22.816 75.624 23.984 74.984 25.008L75.352 25.12C75.624 25.216 75.768 25.424 75.592 25.584C75.512 25.648 75.416 25.696 75.256 25.712V34.896C75.224 35.136 74.616 35.392 74.024 35.392C73.848 35.392 73.736 35.248 73.736 34.992V26.752C73.144 27.504 72.52 28.144 71.896 28.704C71.704 28.864 71.576 28.912 71.496 28.832ZM102.168 23.36C102.376 23.552 102.424 23.824 102.184 23.872C102.088 23.904 101.976 23.92 101.8 23.92C101.32 24.432 100.552 25.072 99.928 25.504C99.736 25.632 99.624 25.664 99.56 25.616C99.496 25.584 99.496 25.44 99.576 25.2C99.752 24.72 99.944 24.144 100.072 23.664H90.024C90.088 24.752 89.656 25.504 89.16 25.808C88.664 26.144 87.928 26.096 87.688 25.52C87.496 24.992 87.864 24.544 88.296 24.336C88.84 24.032 89.4 23.344 89.48 22.56C89.512 22.304 89.528 22.16 89.592 22.16C89.656 22.16 89.736 22.256 89.816 22.48C89.864 22.672 89.912 22.864 89.944 23.04H95.224C95.16 23.024 95.112 23.008 95.048 22.992C94.856 22.912 94.776 22.752 94.744 22.544C94.632 21.984 94.296 21.376 93.864 20.928C93.672 20.736 93.608 20.608 93.672 20.544C93.752 20.464 93.88 20.464 94.104 20.496C97.016 20.992 96.648 22.816 95.624 23.04H100.056L100.632 22.512C100.808 22.352 101.016 22.336 101.208 22.512L102.168 23.36ZM87.592 35.232C87.528 35.12 87.64 34.992 87.896 34.88C91.48 33.264 92.008 31.248 92.2 28.96H88.744C88.52 28.96 88.36 28.864 88.296 28.64C88.232 28.464 88.392 28.336 88.68 28.336H99.496L100.12 27.616C100.28 27.424 100.488 27.392 100.68 27.536C101.032 27.792 101.448 28.096 101.784 28.368C101.96 28.512 102.088 28.704 101.912 28.88C101.832 28.944 101.736 28.96 101.608 28.96H97.304V33.328C97.304 33.504 97.368 33.568 97.928 33.568H99.432C100.024 33.568 100.536 33.552 100.76 33.536C100.984 33.52 101.064 33.472 101.128 33.344C101.256 33.12 101.4 32.608 101.592 31.904L101.688 31.536C101.752 31.296 101.816 31.2 101.864 31.2C101.912 31.2 101.96 31.328 101.96 31.6L101.992 33.392C102.424 33.536 102.536 33.744 102.536 34.048C102.536 34.72 101.928 34.944 99.304 34.944H97.608C96.136 34.944 95.8 34.688 95.8 33.616V28.96H93.848C93.544 31.744 92.808 33.952 88.056 35.312C87.816 35.376 87.672 35.344 87.592 35.232ZM90.552 25.968C90.504 25.776 90.632 25.664 90.92 25.664H97.064L97.656 24.992C97.816 24.8 98.024 24.768 98.216 24.928C98.552 25.152 98.92 25.44 99.256 25.696C99.448 25.84 99.56 26.032 99.384 26.192C99.304 26.272 99.208 26.288 99.08 26.288H90.984C90.744 26.288 90.6 26.176 90.552 25.968ZM108.92 26.768L109.4 26.32C109.592 26.144 109.768 26.16 109.96 26.304L110.792 26.928C111.016 27.088 111.08 27.344 110.856 27.456C110.76 27.504 110.632 27.536 110.472 27.552C110.376 30.784 110.136 32.24 109.512 32.752C109.16 33.04 108.776 33.184 108.328 33.232C108.072 33.248 107.944 33.104 107.912 32.848C107.896 32.656 107.832 32.496 107.704 32.336C107.592 32.224 107.352 32.128 107.048 32.048C106.808 31.984 106.696 31.888 106.696 31.76C106.696 31.632 106.84 31.568 107.112 31.6C107.48 31.632 107.88 31.648 108.072 31.648C108.328 31.648 108.456 31.616 108.536 31.536C108.84 31.216 108.984 30.016 109.048 27.392H106.632C106.632 29.792 106.376 33.008 103.88 35.2C103.688 35.36 103.56 35.424 103.48 35.344C103.416 35.28 103.432 35.136 103.56 34.928C104.984 32.608 105.128 29.824 105.128 27.216V23.552C105.128 23.264 105.32 23.136 105.592 23.232L106.888 23.696H111.416C111.368 22.784 111.336 21.856 111.32 20.896C111.32 20.624 111.48 20.48 111.736 20.512L112.984 20.624C113.24 20.656 113.448 20.848 113.288 21.072C113.192 21.184 113.048 21.264 112.84 21.296C112.824 22.112 112.84 22.896 112.888 23.696H115.816L116.456 22.928C116.616 22.736 116.824 22.704 117.016 22.848C117.384 23.12 117.816 23.44 118.152 23.728C118.328 23.872 118.456 24.064 118.28 24.224C118.2 24.304 118.088 24.32 117.96 24.32H112.904C113.064 26.224 113.352 28.032 113.976 29.584C114.616 28.384 115.08 27.2 115.384 26C115.448 25.744 115.64 25.632 115.88 25.712L117.192 26.096C117.464 26.176 117.64 26.448 117.384 26.592C117.288 26.64 117.144 26.656 116.936 26.656C116.424 28.144 115.672 29.632 114.664 30.96C115.144 31.776 115.8 32.496 116.664 33.056C116.92 33.264 117.08 33.264 117.224 32.992C117.416 32.64 117.736 32 117.976 31.424C118.056 31.2 118.152 31.088 118.2 31.104C118.248 31.12 118.264 31.264 118.232 31.504L117.944 33.648C118.472 34.32 118.568 34.752 118.344 34.976C117.72 35.568 116.6 35.04 115.832 34.448C114.984 33.824 114.248 33.04 113.656 32.112C112.456 33.344 110.968 34.4 109.144 35.136C108.92 35.232 108.776 35.216 108.712 35.12C108.648 35.024 108.744 34.896 108.984 34.768C110.696 33.76 112.056 32.48 113.064 31.04C112.136 29.184 111.688 26.864 111.464 24.32H106.632V26.768H108.92ZM114.04 21.328C113.816 21.168 113.72 21.056 113.784 20.96C113.848 20.88 113.976 20.832 114.216 20.848C117.32 21.104 116.952 23.136 115.848 23.008C115.656 22.992 115.56 22.88 115.48 22.752C115.208 22.256 114.616 21.712 114.04 21.328Z" fill="#FFFEF9"/>
</svg>
