<svg width="55" height="26" viewBox="0 0 55 26" fill="none" xmlns="http://www.w3.org/2000/svg">
<rect width="55" height="26" rx="5" fill="#9A764E"/>
<path d="M20.112 9.972C20.8027 8.72133 21.3393 7.47533 21.722 6.234C22.1047 6.402 22.436 6.56533 22.716 6.724C23.0053 6.88267 23.178 6.98533 23.234 7.032C23.2993 7.07867 23.332 7.12533 23.332 7.172C23.332 7.20933 23.234 7.26067 23.038 7.326C22.8513 7.382 22.6833 7.51733 22.534 7.732C22.0953 8.35733 21.4887 9.104 20.714 9.972H22.73L23.332 9.02C23.4067 8.89867 23.4673 8.838 23.514 8.838C23.6073 8.838 23.8313 8.98733 24.186 9.286C24.55 9.57533 24.8067 9.79 24.956 9.93C25.1053 10.0607 25.18 10.1727 25.18 10.266C25.18 10.3593 25.0633 10.406 24.83 10.406H20.28C20.252 11.3487 20.196 12.184 20.112 12.912H23.71L24.354 11.988C24.438 11.8667 24.5127 11.806 24.578 11.806C24.718 11.806 24.9933 11.9973 25.404 12.38C25.8147 12.7627 26.02 13.0193 26.02 13.15C26.02 13.2713 25.908 13.332 25.684 13.332H20.63C21.078 14.6107 21.7453 15.6047 22.632 16.314C23.5187 17.014 24.732 17.5087 26.272 17.798V18.106C25.7213 18.0873 25.32 18.134 25.068 18.246C24.816 18.358 24.592 18.554 24.396 18.834C24.3493 18.8993 24.298 18.932 24.242 18.932C24.1207 18.932 23.7473 18.7033 23.122 18.246C22.506 17.7887 21.9693 17.196 21.512 16.468C21.064 15.74 20.6347 14.6947 20.224 13.332H20.056C19.8413 14.8347 19.3187 15.9967 18.488 16.818C17.6573 17.6393 16.164 18.4327 14.008 19.198L13.868 18.918C15.4827 18.1247 16.6587 17.3127 17.396 16.482C18.1333 15.6513 18.5907 14.6013 18.768 13.332H14.834C14.582 13.332 14.386 13.3647 14.246 13.43L13.994 12.842C14.19 12.8887 14.4233 12.912 14.694 12.912H18.81C18.866 12.4267 18.894 11.9647 18.894 11.526C18.894 11.078 18.8893 10.7047 18.88 10.406H15.338C15.086 10.406 14.89 10.4387 14.75 10.504L14.498 9.902C14.694 9.94867 14.9273 9.972 15.198 9.972H20.112ZM16.248 6.584C16.976 6.948 17.5127 7.24667 17.858 7.48C18.2127 7.71333 18.446 7.91867 18.558 8.096C18.67 8.264 18.726 8.488 18.726 8.768C18.726 9.048 18.6467 9.29533 18.488 9.51C18.3293 9.71533 18.1893 9.818 18.068 9.818C17.9467 9.818 17.8673 9.79467 17.83 9.748C17.7927 9.692 17.704 9.468 17.564 9.076C17.4333 8.67467 17.2607 8.32 17.046 8.012C16.8313 7.69467 16.5093 7.29333 16.08 6.808L16.248 6.584ZM35.35 6.22C36.0127 6.54667 36.5307 6.85 36.904 7.13C37.2867 7.41 37.478 7.67133 37.478 7.914C37.478 8.14733 37.3893 8.39467 37.212 8.656C37.0347 8.91733 36.8107 9.048 36.54 9.048C36.4747 9.048 36.4233 9.02933 36.386 8.992C36.3487 8.94533 36.2787 8.73067 36.176 8.348C36.0827 7.96533 35.9613 7.634 35.812 7.354C35.6627 7.074 35.4573 6.766 35.196 6.43L35.35 6.22ZM30.31 6.444C31.2247 6.82667 31.8453 7.13933 32.172 7.382C32.508 7.62467 32.676 7.858 32.676 8.082C32.676 8.29667 32.6013 8.56267 32.452 8.88C32.3027 9.188 32.13 9.342 31.934 9.342C31.85 9.342 31.7847 9.314 31.738 9.258C31.7007 9.202 31.64 9.06667 31.556 8.852C31.2107 7.956 30.7627 7.228 30.212 6.668L30.31 6.444ZM35.98 9.86H33.95C33.7167 9.86 33.5393 9.888 33.418 9.944L33.194 9.37C33.3713 9.41667 33.5813 9.44 33.824 9.44H38.99L39.606 8.6C39.6807 8.488 39.7507 8.432 39.816 8.432C39.9093 8.432 40.1893 8.628 40.656 9.02C41.132 9.40267 41.37 9.64067 41.37 9.734C41.37 9.818 41.2673 9.86 41.062 9.86H37.31V13.108H38.836L39.396 12.38C39.48 12.268 39.564 12.212 39.648 12.212C39.7413 12.212 39.97 12.4033 40.334 12.786C40.7073 13.1687 40.894 13.402 40.894 13.486C40.894 13.57 40.8053 13.612 40.628 13.612H37.31V17.616H39.382L39.956 16.762C40.04 16.6313 40.124 16.566 40.208 16.566C40.3013 16.566 40.5487 16.7667 40.95 17.168C41.3513 17.5693 41.552 17.8213 41.552 17.924C41.552 18.0267 41.4633 18.078 41.286 18.078H32.732C32.4987 18.078 32.3213 18.106 32.2 18.162L31.976 17.546C32.1533 17.5927 32.3633 17.616 32.606 17.616H35.98V13.612H33.88C33.6467 13.612 33.4693 13.64 33.348 13.696L33.124 13.038C33.3013 13.0847 33.5113 13.108 33.754 13.108H35.98V9.86ZM33.334 8.768L31.99 12.898C31.5607 14.1953 31.346 15.32 31.346 16.272C31.346 16.692 31.374 17.098 31.43 17.49C31.486 17.882 31.514 18.1667 31.514 18.344C31.514 18.9227 31.3413 19.212 30.996 19.212C30.66 19.212 30.3893 19.114 30.184 18.918C29.9787 18.722 29.876 18.4887 29.876 18.218C29.876 18.162 29.8807 18.1107 29.89 18.064C30.0767 17.0093 30.17 16.2907 30.17 15.908C30.17 15.6747 30.072 15.4927 29.876 15.362C29.6893 15.2313 29.26 15.0773 28.588 14.9L28.616 14.578C29.1293 14.6433 29.5073 14.676 29.75 14.676C30.002 14.676 30.1933 14.6153 30.324 14.494C30.4547 14.3727 30.604 14.1253 30.772 13.752L33.082 8.656L33.334 8.768ZM28.924 9.384C29.6893 9.67333 30.2773 9.958 30.688 10.238C31.108 10.5087 31.318 10.7933 31.318 11.092C31.318 11.2787 31.2387 11.5027 31.08 11.764C30.9307 12.0253 30.7487 12.156 30.534 12.156C30.45 12.156 30.3847 12.128 30.338 12.072C30.2913 12.016 30.226 11.8807 30.142 11.666C29.862 10.9007 29.414 10.224 28.798 9.636L28.924 9.384Z" fill="white"/>
</svg>
