<svg width="143" height="42" viewBox="0 0 143 42" fill="none" xmlns="http://www.w3.org/2000/svg">
<path d="M9.795 9.73C9.255 10.2 8.635 10.65 7.935 11.08L7.755 10.87C8.775 9.92 9.57 9.01 10.14 8.14C10.72 7.26 11.29 6.055 11.85 4.525C12.89 4.835 13.41 5.05 13.41 5.17C13.41 5.23 13.355 5.29 13.245 5.35C13.135 5.41 13.04 5.49 12.96 5.59C13.5 6.57 14.13 7.34 14.85 7.9C15.57 8.45 16.53 8.88 17.73 9.19V9.43C17.4 9.43 17.105 9.475 16.845 9.565C16.595 9.655 16.355 9.83 16.125 10.09C16.065 10.16 16.01 10.195 15.96 10.195C15.83 10.195 15.34 9.81 14.49 9.04C13.64 8.26 13.035 7.255 12.675 6.025C11.825 7.495 10.905 8.695 9.915 9.625C10.025 9.655 10.145 9.67 10.275 9.67H13.125L13.5 9.1C13.56 9.01 13.63 8.965 13.71 8.965C13.8 8.965 14.03 9.105 14.4 9.385C14.77 9.665 14.955 9.855 14.955 9.955C14.955 10.055 14.86 10.105 14.67 10.105H13.035V12.145H14.7L15.195 11.515C15.275 11.415 15.355 11.365 15.435 11.365C15.525 11.365 15.75 11.52 16.11 11.83C16.48 12.14 16.665 12.35 16.665 12.46C16.665 12.56 16.56 12.61 16.35 12.61H13.035V16.72C13.035 17.13 12.985 17.4 12.885 17.53C12.795 17.67 12.58 17.83 12.24 18.01C11.9 18.19 11.695 18.28 11.625 18.28C11.555 18.28 11.5 18.22 11.46 18.1C11.33 17.72 11.12 17.45 10.83 17.29C10.55 17.14 10.12 17 9.54 16.87L9.6 16.525C10.53 16.675 11.1 16.75 11.31 16.75C11.53 16.75 11.66 16.72 11.7 16.66C11.75 16.61 11.775 16.51 11.775 16.36V12.61H9.09C8.91 12.61 8.765 12.64 8.655 12.7L8.445 12.085C8.575 12.125 8.755 12.145 8.985 12.145H11.775V10.105H10.38C10.2 10.105 10.055 10.135 9.945 10.195L9.795 9.73ZM7.5 4.615C7.91 4.855 8.25 5.085 8.52 5.305C8.79 5.525 8.925 5.68 8.925 5.77C8.925 5.85 8.85 5.89 8.7 5.89C8.55 5.89 8.41 5.925 8.28 5.995C8.15 6.065 8.04 6.155 7.95 6.265C7.11 7.305 5.695 8.425 3.705 9.625L3.6 9.385C5.24 7.905 6.54 6.315 7.5 4.615ZM5.895 11.665C5.135 12.215 4.305 12.72 3.405 13.18L3.3 12.925C5.34 11.315 6.855 9.64 7.845 7.9C8.665 8.44 9.075 8.765 9.075 8.875C9.075 8.935 8.98 8.985 8.79 9.025C8.6 9.065 8.35 9.27 8.04 9.64C7.74 10.01 7.43 10.35 7.11 10.66V17.74C7.11 17.8 7.095 17.845 7.065 17.875C7.035 17.905 6.94 17.955 6.78 18.025C6.63 18.105 6.455 18.175 6.255 18.235C6.055 18.295 5.93 18.325 5.88 18.325C5.84 18.325 5.82 18.28 5.82 18.19L5.88 16.795C5.89 16.375 5.895 15.96 5.895 15.55V11.665ZM9.66 13.18C10.4 13.42 10.84 13.575 10.98 13.645C11.13 13.705 11.205 13.77 11.205 13.84C11.205 13.91 11.145 13.965 11.025 14.005C10.915 14.045 10.82 14.1 10.74 14.17C10.66 14.24 10.475 14.485 10.185 14.905C9.895 15.315 9.585 15.705 9.255 16.075C8.925 16.445 8.49 16.895 7.95 17.425L7.71 17.275C8.75 15.785 9.4 14.42 9.66 13.18ZM14.04 13.645C14.9 14.095 15.555 14.515 16.005 14.905C16.465 15.295 16.695 15.68 16.695 16.06C16.695 16.3 16.61 16.555 16.44 16.825C16.28 17.105 16.11 17.245 15.93 17.245C15.75 17.245 15.61 17.095 15.51 16.795C15.27 16.015 15.035 15.44 14.805 15.07C14.575 14.69 14.265 14.295 13.875 13.885L14.04 13.645ZM24.765 8.11H20.16C19.89 8.11 19.68 8.145 19.53 8.215L19.23 7.525C19.44 7.575 19.69 7.6 19.98 7.6H24.765V5.785C24.765 5.015 24.755 4.545 24.735 4.375C25.055 4.445 25.45 4.55 25.92 4.69C26.4 4.82 26.675 4.905 26.745 4.945C26.825 4.985 26.865 5.035 26.865 5.095C26.865 5.205 26.665 5.37 26.265 5.59V7.6H29.97L30.57 6.775C30.66 6.655 30.75 6.595 30.84 6.595C30.94 6.595 31.09 6.685 31.29 6.865L31.995 7.525C32.265 7.765 32.4 7.925 32.4 8.005C32.4 8.075 32.3 8.11 32.1 8.11H26.265V10.57H28.47L29.145 9.7C29.215 9.61 29.28 9.565 29.34 9.565C29.45 9.565 29.735 9.775 30.195 10.195C30.665 10.615 30.9 10.86 30.9 10.93C30.9 11.01 30.805 11.05 30.615 11.05H21.375C21.105 11.05 20.895 11.085 20.745 11.155L20.445 10.495C20.655 10.545 20.905 10.57 21.195 10.57H24.765V8.11ZM24.9 11.575C25.63 12.015 26.185 12.425 26.565 12.805C26.955 13.185 27.15 13.555 27.15 13.915C27.15 14.275 27.04 14.57 26.82 14.8C26.6 15.03 26.39 15.145 26.19 15.145C26 15.145 25.885 14.965 25.845 14.605C25.735 13.605 25.36 12.67 24.72 11.8L24.9 11.575ZM28.65 13.57C28.64 14.56 28.68 15.225 28.77 15.565C28.86 15.895 29.055 16.185 29.355 16.435C29.455 16.525 29.505 16.6 29.505 16.66C29.505 16.73 29.365 16.935 29.085 17.275C28.805 17.615 28.49 17.82 28.14 17.89C27.8 17.96 27.04 17.995 25.86 17.995C25.08 17.995 24.455 17.955 23.985 17.875C23.515 17.795 23.225 17.675 23.115 17.515C23.015 17.355 22.965 17.005 22.965 16.465V13.375C22.965 12.965 22.95 12.555 22.92 12.145C24.12 12.445 24.72 12.685 24.72 12.865C24.72 12.975 24.565 13.1 24.255 13.24V16.165C24.255 16.395 24.275 16.54 24.315 16.6C24.355 16.66 24.49 16.7 24.72 16.72C24.96 16.74 25.3 16.75 25.74 16.75C26.64 16.75 27.205 16.7 27.435 16.6C27.675 16.51 27.835 16.29 27.915 15.94C28.005 15.58 28.12 14.79 28.26 13.57H28.65ZM28.95 12.265C29.99 12.865 30.795 13.435 31.365 13.975C31.935 14.505 32.22 15.04 32.22 15.58C32.22 15.96 32.12 16.29 31.92 16.57C31.73 16.85 31.52 16.99 31.29 16.99C31.13 16.99 31.015 16.945 30.945 16.855C30.885 16.775 30.82 16.585 30.75 16.285C30.45 14.875 29.775 13.62 28.725 12.52L28.95 12.265ZM21.39 12.52C21.55 13.35 21.63 14.055 21.63 14.635C21.63 15.545 21.425 16.205 21.015 16.615C20.605 17.025 20.205 17.23 19.815 17.23C19.585 17.23 19.385 17.18 19.215 17.08C19.045 16.98 18.96 16.84 18.96 16.66C18.96 16.48 19.105 16.285 19.395 16.075C19.995 15.655 20.415 15.165 20.655 14.605C20.895 14.035 21.04 13.34 21.09 12.52H21.39ZM36.285 5.815H45.045L45.45 5.185C45.53 5.055 45.62 4.99 45.72 4.99C45.83 4.99 46.095 5.21 46.515 5.65C46.945 6.08 47.16 6.345 47.16 6.445C47.16 6.535 47.13 6.605 47.07 6.655C47.01 6.695 46.92 6.71 46.8 6.7C46.69 6.69 46.615 6.685 46.575 6.685C46.315 6.685 46.065 6.75 45.825 6.88C45.585 7.01 45.195 7.285 44.655 7.705L44.385 7.525L45.075 6.25H36.285C36.285 7.25 36.14 7.89 35.85 8.17C35.57 8.44 35.27 8.575 34.95 8.575C34.63 8.575 34.39 8.515 34.23 8.395C34.07 8.265 33.99 8.12 33.99 7.96C33.99 7.8 34.13 7.615 34.41 7.405C34.86 7.055 35.16 6.765 35.31 6.535C35.47 6.295 35.67 5.8 35.91 5.05H36.225C36.245 5.22 36.265 5.475 36.285 5.815ZM38.04 9.295H35.745C35.405 9.295 35.155 9.325 34.995 9.385L34.725 8.8C34.935 8.85 35.185 8.875 35.475 8.875H38.25C38.64 8.075 38.955 7.265 39.195 6.445C39.695 6.645 40.085 6.82 40.365 6.97C40.655 7.11 40.825 7.205 40.875 7.255C40.925 7.305 40.95 7.355 40.95 7.405C40.95 7.525 40.84 7.6 40.62 7.63C40.4 7.65 40.225 7.785 40.095 8.035L39.63 8.875H43.68L44.295 7.93C44.385 7.8 44.475 7.735 44.565 7.735C44.665 7.735 44.945 7.96 45.405 8.41C45.875 8.86 46.11 9.12 46.11 9.19C46.11 9.26 46.035 9.295 45.885 9.295H39.405C38.795 10.435 38.225 11.44 37.695 12.31H40.2V11.23C40.2 10.8 40.185 10.38 40.155 9.97C40.935 10.12 41.435 10.235 41.655 10.315C41.885 10.395 42 10.465 42 10.525C42 10.615 41.835 10.74 41.505 10.9V12.31H42.975L43.5 11.44C43.59 11.3 43.69 11.23 43.8 11.23C43.92 11.23 44.19 11.435 44.61 11.845C45.04 12.245 45.255 12.495 45.255 12.595C45.255 12.695 45.19 12.745 45.06 12.745H41.505V14.62H45.105L45.735 13.66C45.805 13.55 45.9 13.495 46.02 13.495C46.15 13.495 46.445 13.71 46.905 14.14C47.365 14.57 47.595 14.83 47.595 14.92C47.595 15.01 47.52 15.055 47.37 15.055H41.505V16.21C41.505 16.57 41.51 16.92 41.52 17.26L41.55 18.07C41.55 18.17 41.51 18.25 41.43 18.31C41.35 18.37 41.17 18.44 40.89 18.52C40.62 18.61 40.41 18.655 40.26 18.655C40.19 18.655 40.155 18.585 40.155 18.445L40.185 17.86C40.195 17.46 40.2 17.005 40.2 16.495V15.055H34.5C34.23 15.055 34.02 15.09 33.87 15.16L33.6 14.545C33.81 14.595 34.06 14.62 34.35 14.62H40.2V12.745H37.635L37.2 13.3C37.15 13.37 37.075 13.405 36.975 13.405C36.785 13.405 36.35 13.115 35.67 12.535C35.95 12.405 36.18 12.265 36.36 12.115C36.55 11.955 36.83 11.53 37.2 10.84C37.58 10.15 37.86 9.635 38.04 9.295Z" fill="#9A764E"/>
<path d="M4.641 28.084H1.586C1.352 28.084 1.17 28.1143 1.04 28.175L0.78 27.616C0.962 27.6593 1.17867 27.681 1.43 27.681H4.797C5.12633 26.901 5.43833 26.004 5.733 24.99C6.79033 25.3973 7.319 25.692 7.319 25.874C7.319 25.9433 7.25833 25.978 7.137 25.978C7.02433 25.978 6.93767 26.0083 6.877 26.069C6.81633 26.1297 6.72533 26.2727 6.604 26.498C6.49133 26.7233 6.30067 27.1177 6.032 27.681H10.101L10.699 26.784C10.751 26.6973 10.8073 26.654 10.868 26.654C10.9633 26.654 11.245 26.849 11.713 27.239C12.1897 27.6203 12.428 27.8587 12.428 27.954C12.428 28.0407 12.324 28.084 12.116 28.084H5.837C5.317 29.15 4.76233 30.0643 4.173 30.827V36.495C4.173 36.573 4.15567 36.625 4.121 36.651C4.095 36.6857 4.01267 36.7377 3.874 36.807C3.744 36.885 3.59667 36.95 3.432 37.002C3.26733 37.0627 3.15467 37.093 3.094 37.093C3.042 37.093 3.016 37.0583 3.016 36.989L3.042 36.378C3.05933 35.9533 3.068 35.5677 3.068 35.221V32.062C2.33133 32.79 1.42133 33.492 0.338 34.168L0.182 34.012C1.33467 32.9807 2.29667 31.9363 3.068 30.879C3.068 30.1597 3.05933 29.683 3.042 29.449C3.44067 29.579 3.70067 29.6743 3.822 29.735C4.082 29.293 4.355 28.7427 4.641 28.084ZM7.384 35.637V32.101H5.499C5.265 32.101 5.083 32.1313 4.953 32.192L4.693 31.633C4.875 31.6763 5.09167 31.698 5.343 31.698H7.384V29.826C7.384 29.1587 7.37533 28.7513 7.358 28.604C7.748 28.682 8.10333 28.786 8.424 28.916C8.75333 29.0373 8.918 29.1327 8.918 29.202C8.918 29.2713 8.775 29.3667 8.489 29.488V31.698H9.789L10.179 30.996C10.2483 30.866 10.3393 30.801 10.452 30.801C10.5733 30.801 10.842 30.9743 11.258 31.321C11.674 31.659 11.882 31.8757 11.882 31.971C11.882 32.0577 11.7737 32.101 11.557 32.101H8.489V35.637H10.322L10.868 34.857C10.946 34.753 11.024 34.701 11.102 34.701C11.18 34.701 11.3577 34.805 11.635 35.013C11.9123 35.221 12.142 35.4073 12.324 35.572C12.506 35.7367 12.597 35.845 12.597 35.897C12.597 35.9923 12.4973 36.04 12.298 36.04H5.07C4.836 36.04 4.654 36.0703 4.524 36.131L4.29 35.572C4.472 35.6153 4.68867 35.637 4.94 35.637H7.384ZM20.02 27.2C19.3353 27.9107 18.5987 28.565 17.81 29.163L17.602 28.955C18.6593 27.8457 19.461 26.5673 20.007 25.12C20.3277 25.224 20.6527 25.3583 20.982 25.523C21.32 25.6877 21.489 25.796 21.489 25.848C21.489 25.9 21.4327 25.939 21.32 25.965C21.2073 25.9823 21.1207 26.0127 21.06 26.056C21.008 26.0907 20.9083 26.2033 20.761 26.394C20.6137 26.576 20.475 26.7277 20.345 26.849H23.478L23.881 26.42C23.985 26.3073 24.0673 26.251 24.128 26.251C24.2147 26.251 24.453 26.4547 24.843 26.862C25.2417 27.2607 25.441 27.5207 25.441 27.642C25.441 27.6853 25.4107 27.707 25.35 27.707C25.2893 27.707 25.1983 27.6983 25.077 27.681C24.9643 27.655 24.8517 27.642 24.739 27.642C24.3923 27.642 23.816 27.9843 23.01 28.669L22.776 28.526C23.0793 28.032 23.322 27.59 23.504 27.2H20.8C21.19 27.3127 21.4803 27.4167 21.671 27.512C21.8703 27.6073 21.97 27.6767 21.97 27.72C21.97 27.7807 21.866 27.85 21.658 27.928C21.9267 28.5693 22.3427 29.0503 22.906 29.371C23.4693 29.683 24.2753 29.904 25.324 30.034V30.359C24.648 30.333 24.2103 30.4933 24.011 30.84C24.2797 31.0047 24.5223 31.178 24.739 31.36C24.9643 31.5333 25.077 31.6547 25.077 31.724C25.077 31.8107 24.96 31.854 24.726 31.854H18.096L17.836 32.66H21.047L21.333 32.335C21.4283 32.2223 21.5063 32.166 21.567 32.166C21.6277 32.166 21.827 32.2743 22.165 32.491C22.5117 32.7077 22.685 32.855 22.685 32.933C22.685 33.0543 22.4987 33.1583 22.126 33.245L21.84 35.286C21.814 35.5113 21.8703 35.6587 22.009 35.728C22.1563 35.806 22.4293 35.845 22.828 35.845C23.2353 35.845 23.517 35.793 23.673 35.689C23.829 35.5937 23.9547 35.3943 24.05 35.091C24.154 34.7877 24.2753 34.2633 24.414 33.518L24.713 33.531C24.6957 33.7823 24.687 34.0077 24.687 34.207C24.687 35.0823 24.8517 35.6067 25.181 35.78C25.2763 35.8233 25.324 35.871 25.324 35.923C25.324 36.0443 25.2503 36.1873 25.103 36.352C24.9557 36.5253 24.7737 36.6467 24.557 36.716C24.349 36.7853 23.9807 36.82 23.452 36.82C22.932 36.82 22.4337 36.7983 21.957 36.755C21.4803 36.7117 21.1553 36.6423 20.982 36.547C20.8087 36.4517 20.722 36.248 20.722 35.936C20.722 35.7973 20.7393 35.5893 20.774 35.312L21.047 33.011H17.732L16.9 35.637C18.0873 35.5677 19.2877 35.442 20.501 35.26L20.566 35.507C18.824 35.9663 17.6627 36.2827 17.082 36.456C16.5013 36.638 16.146 36.768 16.016 36.846C15.886 36.9327 15.7993 36.976 15.756 36.976C15.7213 36.976 15.6693 36.911 15.6 36.781C15.5393 36.6597 15.4093 36.326 15.21 35.78C15.4093 35.7713 15.5783 35.7107 15.717 35.598C15.8557 35.494 15.977 35.273 16.081 34.935L17.03 31.854H14.742C14.508 31.854 14.326 31.8843 14.196 31.945L13.962 31.386C14.144 31.4293 14.3607 31.451 14.612 31.451H22.971L23.374 30.866C22.7933 30.4847 22.3643 30.1033 22.087 29.722C21.8183 29.332 21.6103 28.7947 21.463 28.11C21.0643 29.2453 20.5963 30.008 20.059 30.398C19.5303 30.7793 18.642 31.0523 17.394 31.217L17.342 30.97C18.304 30.7273 19.0363 30.3157 19.539 29.735C20.0417 29.1543 20.41 28.3093 20.644 27.2H20.02ZM14.976 25.536C15.4093 25.6487 15.756 25.7527 16.016 25.848C16.2847 25.9347 16.4883 26.0213 16.627 26.108C16.7657 26.1947 16.8567 26.277 16.9 26.355C16.9433 26.433 16.965 26.576 16.965 26.784C16.965 26.9833 16.9217 27.1393 16.835 27.252C16.757 27.356 16.6617 27.408 16.549 27.408C16.445 27.408 16.2977 27.2737 16.107 27.005C15.9163 26.7277 15.7257 26.5023 15.535 26.329C15.3443 26.147 15.119 25.978 14.859 25.822L14.976 25.536ZM18.928 26.16L16.9 28.513C16.692 28.747 16.5533 28.929 16.484 29.059C16.4147 29.1803 16.38 29.3233 16.38 29.488C16.38 29.6527 16.406 29.8693 16.458 30.138C16.5187 30.398 16.549 30.567 16.549 30.645C16.549 30.9483 16.4017 31.1 16.107 31.1C15.8123 31.1 15.5697 31.0177 15.379 30.853C15.197 30.6883 15.106 30.5107 15.106 30.32C15.106 30.2767 15.1103 30.2333 15.119 30.19C15.2403 29.7653 15.301 29.4707 15.301 29.306C15.301 29.1327 15.2187 28.994 15.054 28.89C14.898 28.7773 14.6293 28.6473 14.248 28.5L14.339 28.24C14.885 28.396 15.2577 28.474 15.457 28.474C15.6563 28.474 15.821 28.4437 15.951 28.383C16.0897 28.3223 16.263 28.1967 16.471 28.006L18.694 25.965L18.928 26.16ZM17.849 33.44C18.5423 33.5267 19.0623 33.6177 19.409 33.713C19.7643 33.8083 20.0027 33.921 20.124 34.051C20.254 34.1723 20.319 34.376 20.319 34.662C20.319 34.9393 20.2063 35.078 19.981 35.078C19.8857 35.078 19.812 35.0607 19.76 35.026C19.7167 35 19.5737 34.8787 19.331 34.662C19.0883 34.4367 18.8543 34.2547 18.629 34.116C18.4123 33.9687 18.1437 33.83 17.823 33.7L17.849 33.44ZM33.137 35.689H36.387L36.894 34.935C37.0153 34.7617 37.115 34.675 37.193 34.675C37.2797 34.675 37.3577 34.7053 37.427 34.766C37.505 34.818 37.6913 34.9827 37.986 35.26C38.2893 35.5373 38.467 35.7107 38.519 35.78C38.5797 35.8493 38.61 35.91 38.61 35.962C38.61 36.0487 38.519 36.092 38.337 36.092H27.573C27.339 36.092 27.157 36.1223 27.027 36.183L26.793 35.624C26.975 35.6673 27.1917 35.689 27.443 35.689H31.837V26.875C31.837 26.251 31.8283 25.7353 31.811 25.328C32.2703 25.4147 32.669 25.5143 33.007 25.627C33.3537 25.7397 33.5747 25.822 33.67 25.874C33.7653 25.9173 33.813 25.965 33.813 26.017C33.813 26.121 33.5877 26.2813 33.137 26.498V29.267H35.737L36.296 28.5C36.4 28.3613 36.491 28.292 36.569 28.292C36.6557 28.292 36.9027 28.487 37.31 28.877C37.7173 29.2583 37.921 29.488 37.921 29.566C37.921 29.644 37.8343 29.683 37.661 29.683H33.137V35.689ZM48.919 26.303L49.517 25.51C49.595 25.406 49.6643 25.354 49.725 25.354C49.7857 25.354 49.946 25.4537 50.206 25.653C50.466 25.8437 50.6913 26.03 50.882 26.212C51.0813 26.394 51.181 26.5283 51.181 26.615C51.181 26.693 51.103 26.732 50.947 26.732H40.885C40.651 26.732 40.469 26.7623 40.339 26.823L40.105 26.238C40.287 26.2813 40.5037 26.303 40.755 26.303H48.919ZM44.096 27.928H47.307L47.567 27.538C47.6277 27.4513 47.6883 27.408 47.749 27.408C47.8183 27.408 47.9873 27.499 48.256 27.681C48.5333 27.8543 48.7153 27.9757 48.802 28.045C48.8973 28.1057 48.945 28.175 48.945 28.253C48.945 28.331 48.7847 28.4523 48.464 28.617V32.998C48.464 33.3793 48.4683 33.648 48.477 33.804L48.49 34.246C48.49 34.3067 48.4597 34.363 48.399 34.415C48.3383 34.4583 48.1953 34.5233 47.97 34.61C47.7447 34.688 47.5973 34.727 47.528 34.727C47.4673 34.727 47.437 34.6707 47.437 34.558V33.869H43.849V34.22C43.849 34.324 43.8187 34.3977 43.758 34.441C43.706 34.4843 43.5587 34.545 43.316 34.623C43.082 34.6923 42.9173 34.727 42.822 34.727C42.77 34.727 42.7483 34.6793 42.757 34.584C42.8003 34.1853 42.822 33.7607 42.822 33.31V28.669C42.822 28.227 42.809 27.8153 42.783 27.434C43.4677 27.642 43.9053 27.8067 44.096 27.928ZM45.175 30.684V28.37H43.849V30.684H45.175ZM46.189 28.37V30.684H47.437V28.37H46.189ZM46.189 31.087V33.466H47.437V31.087H46.189ZM45.175 33.466V31.087H43.849V33.466H45.175ZM49.218 35.624V29.085C49.218 28.7557 49.2093 28.526 49.192 28.396C49.5127 28.4567 49.803 28.5303 50.063 28.617C50.323 28.695 50.492 28.76 50.57 28.812C50.6567 28.8553 50.7 28.916 50.7 28.994C50.7 29.0633 50.557 29.1673 50.271 29.306V36.092C50.271 36.248 50.2753 36.3737 50.284 36.469L50.297 36.729C50.297 36.8243 50.1583 36.9153 49.881 37.002C49.6037 37.0973 49.4217 37.145 49.335 37.145C49.257 37.145 49.218 37.1017 49.218 37.015V36.04H42.003L41.782 36.365C41.73 36.443 41.6737 36.482 41.613 36.482C41.4743 36.482 41.0843 36.2653 40.443 35.832C40.651 35.6153 40.781 35.4593 40.833 35.364C40.885 35.2773 40.911 35.1647 40.911 35.026V29.449C40.911 28.9897 40.898 28.6647 40.872 28.474C41.6607 28.7167 42.1157 28.8683 42.237 28.929C42.3583 28.981 42.419 29.0417 42.419 29.111C42.419 29.215 42.2803 29.319 42.003 29.423V35.624H49.218ZM55.068 28.305H57.798V26.16C57.798 25.7093 57.7893 25.3237 57.772 25.003C58.422 25.2197 58.877 25.38 59.137 25.484C59.4057 25.5793 59.54 25.6703 59.54 25.757C59.54 25.835 59.3623 25.9433 59.007 26.082V28.305H61.919L62.257 27.668C62.309 27.5727 62.3653 27.525 62.426 27.525C62.5127 27.525 62.777 27.655 63.219 27.915C63.661 28.1663 63.882 28.3397 63.882 28.435C63.882 28.5303 63.6653 28.6777 63.232 28.877V31.945C63.232 32.075 63.2363 32.1963 63.245 32.309L63.271 32.582C63.271 32.6427 63.2277 32.699 63.141 32.751C63.0543 32.803 62.8897 32.8637 62.647 32.933C62.4043 32.9937 62.2267 33.024 62.114 33.024C62.062 33.024 62.036 32.9807 62.036 32.894V32.205H59.007V35.13C59.007 35.416 59.0157 35.7193 59.033 36.04L59.046 36.482C59.046 36.5513 59.0157 36.6077 58.955 36.651C58.8943 36.6943 58.7037 36.7637 58.383 36.859C58.071 36.963 57.889 37.015 57.837 37.015C57.785 37.015 57.759 36.9457 57.759 36.807L57.785 36.3C57.7937 35.9533 57.798 35.5633 57.798 35.13V32.205H54.808V32.764C54.808 32.8247 54.7733 32.881 54.704 32.933C54.6347 32.985 54.4527 33.0587 54.158 33.154C53.872 33.2493 53.6943 33.297 53.625 33.297C53.5643 33.297 53.5383 33.2537 53.547 33.167C53.5903 32.8723 53.612 32.5473 53.612 32.192V28.656C53.612 28.292 53.599 27.9237 53.573 27.551C54.197 27.7937 54.6953 28.045 55.068 28.305ZM57.798 28.682H54.808V31.828H57.798V28.682ZM62.036 31.828V28.682H59.007V31.828H62.036ZM75.413 35.676H67.886V36.326C67.886 36.4473 67.8557 36.5297 67.795 36.573C67.7343 36.6163 67.5697 36.6813 67.301 36.768C67.041 36.8633 66.872 36.911 66.794 36.911C66.7247 36.911 66.6943 36.859 66.703 36.755C66.7377 36.365 66.755 35.7887 66.755 35.026V26.55C66.755 26.1167 66.7463 25.731 66.729 25.393C67.2403 25.523 67.6737 25.7093 68.029 25.952H75.283L75.647 25.432C75.7077 25.3367 75.764 25.289 75.816 25.289C75.9027 25.289 76.1497 25.4407 76.557 25.744C76.9643 26.0387 77.168 26.2293 77.168 26.316C77.168 26.4027 76.9687 26.55 76.57 26.758V34.818C76.57 35.2687 76.5743 35.572 76.583 35.728L76.596 36.183C76.596 36.2523 76.557 36.3087 76.479 36.352C76.401 36.3953 76.232 36.4603 75.972 36.547C75.7207 36.6423 75.5603 36.69 75.491 36.69C75.439 36.69 75.413 36.6337 75.413 36.521V35.676ZM67.886 35.286H75.413V26.342H67.886V35.286ZM70.928 28.331H69.004C68.77 28.331 68.588 28.357 68.458 28.409L68.224 27.902C68.406 27.9453 68.6227 27.967 68.874 27.967H73.32L73.775 27.356C73.853 27.252 73.918 27.2 73.97 27.2C74.0567 27.2 74.2647 27.3473 74.594 27.642C74.932 27.9367 75.101 28.1273 75.101 28.214C75.101 28.292 74.9883 28.331 74.763 28.331H72.033V30.242H72.969L73.372 29.631C73.4413 29.527 73.5063 29.475 73.567 29.475C73.6277 29.475 73.8313 29.631 74.178 29.943C74.5247 30.2463 74.698 30.4327 74.698 30.502C74.698 30.5713 74.607 30.606 74.425 30.606H72.033V33.401H73.619L74.126 32.738C74.204 32.6253 74.2777 32.569 74.347 32.569C74.425 32.569 74.6113 32.7337 74.906 33.063C75.2007 33.3837 75.348 33.583 75.348 33.661C75.348 33.7303 75.2613 33.765 75.088 33.765H68.874C68.6747 33.765 68.4927 33.7953 68.328 33.856L68.094 33.336C68.276 33.3793 68.4927 33.401 68.744 33.401H70.928V30.606H69.316C69.1773 30.606 69.0387 30.6363 68.9 30.697L68.666 30.177C68.848 30.2203 69.0647 30.242 69.316 30.242H70.928V28.331ZM72.41 30.879C73.1813 31.1563 73.658 31.36 73.84 31.49C74.0307 31.62 74.126 31.7847 74.126 31.984C74.126 32.1747 74.0653 32.3567 73.944 32.53C73.8313 32.6947 73.723 32.777 73.619 32.777C73.5237 32.777 73.4457 32.7467 73.385 32.686C73.3243 32.6253 73.2637 32.517 73.203 32.361C73.047 31.9883 72.7263 31.5637 72.241 31.087L72.41 30.879ZM87.919 26.303L88.517 25.51C88.595 25.406 88.6643 25.354 88.725 25.354C88.7857 25.354 88.946 25.4537 89.206 25.653C89.466 25.8437 89.6913 26.03 89.882 26.212C90.0813 26.394 90.181 26.5283 90.181 26.615C90.181 26.693 90.103 26.732 89.947 26.732H79.885C79.651 26.732 79.469 26.7623 79.339 26.823L79.105 26.238C79.287 26.2813 79.5037 26.303 79.755 26.303H87.919ZM83.096 27.928H86.307L86.567 27.538C86.6277 27.4513 86.6883 27.408 86.749 27.408C86.8183 27.408 86.9873 27.499 87.256 27.681C87.5333 27.8543 87.7153 27.9757 87.802 28.045C87.8973 28.1057 87.945 28.175 87.945 28.253C87.945 28.331 87.7847 28.4523 87.464 28.617V32.998C87.464 33.3793 87.4683 33.648 87.477 33.804L87.49 34.246C87.49 34.3067 87.4597 34.363 87.399 34.415C87.3383 34.4583 87.1953 34.5233 86.97 34.61C86.7447 34.688 86.5973 34.727 86.528 34.727C86.4673 34.727 86.437 34.6707 86.437 34.558V33.869H82.849V34.22C82.849 34.324 82.8187 34.3977 82.758 34.441C82.706 34.4843 82.5587 34.545 82.316 34.623C82.082 34.6923 81.9173 34.727 81.822 34.727C81.77 34.727 81.7483 34.6793 81.757 34.584C81.8003 34.1853 81.822 33.7607 81.822 33.31V28.669C81.822 28.227 81.809 27.8153 81.783 27.434C82.4677 27.642 82.9053 27.8067 83.096 27.928ZM84.175 30.684V28.37H82.849V30.684H84.175ZM85.189 28.37V30.684H86.437V28.37H85.189ZM85.189 31.087V33.466H86.437V31.087H85.189ZM84.175 33.466V31.087H82.849V33.466H84.175ZM88.218 35.624V29.085C88.218 28.7557 88.2093 28.526 88.192 28.396C88.5127 28.4567 88.803 28.5303 89.063 28.617C89.323 28.695 89.492 28.76 89.57 28.812C89.6567 28.8553 89.7 28.916 89.7 28.994C89.7 29.0633 89.557 29.1673 89.271 29.306V36.092C89.271 36.248 89.2753 36.3737 89.284 36.469L89.297 36.729C89.297 36.8243 89.1583 36.9153 88.881 37.002C88.6037 37.0973 88.4217 37.145 88.335 37.145C88.257 37.145 88.218 37.1017 88.218 37.015V36.04H81.003L80.782 36.365C80.73 36.443 80.6737 36.482 80.613 36.482C80.4743 36.482 80.0843 36.2653 79.443 35.832C79.651 35.6153 79.781 35.4593 79.833 35.364C79.885 35.2773 79.911 35.1647 79.911 35.026V29.449C79.911 28.9897 79.898 28.6647 79.872 28.474C80.6607 28.7167 81.1157 28.8683 81.237 28.929C81.3583 28.981 81.419 29.0417 81.419 29.111C81.419 29.215 81.2803 29.319 81.003 29.423V35.624H88.218ZM99.333 28.513C98.9603 29.267 98.3017 30.268 97.357 31.516L97.136 31.373C97.6733 30.203 98.072 29.2107 98.332 28.396C98.6007 27.5727 98.8607 26.511 99.112 25.211C99.5107 25.3497 99.8617 25.484 100.165 25.614C100.468 25.744 100.65 25.835 100.711 25.887C100.78 25.9303 100.815 25.9823 100.815 26.043C100.815 26.1037 100.741 26.1513 100.594 26.186C100.455 26.2207 100.36 26.2727 100.308 26.342C100.265 26.4113 100.165 26.6367 100.009 27.018C99.853 27.3907 99.697 27.7417 99.541 28.071H101.309L101.66 27.538C101.738 27.4253 101.816 27.369 101.894 27.369C101.981 27.369 102.215 27.5077 102.596 27.785C102.986 28.0537 103.181 28.2443 103.181 28.357C103.181 28.4697 102.999 28.604 102.635 28.76C102.574 31.2127 102.527 32.8637 102.492 33.713C102.457 34.5623 102.41 35.1387 102.349 35.442C102.297 35.754 102.184 36.0313 102.011 36.274C101.838 36.5167 101.573 36.7203 101.218 36.885C100.863 37.0583 100.611 37.145 100.464 37.145C100.395 37.145 100.343 37.08 100.308 36.95C100.239 36.7073 100.152 36.5167 100.048 36.378C99.944 36.2393 99.7663 36.1093 99.515 35.988C99.2637 35.8667 98.8823 35.7367 98.371 35.598L98.436 35.325C99.4673 35.4723 100.117 35.546 100.386 35.546C100.655 35.546 100.837 35.5157 100.932 35.455C101.036 35.403 101.105 35.312 101.14 35.182C101.175 35.052 101.209 34.753 101.244 34.285C101.279 33.8083 101.313 33.0413 101.348 31.984C101.383 30.918 101.404 29.761 101.413 28.513H99.333ZM94.445 28.266H95.706L96.057 27.746C96.1177 27.6507 96.1827 27.603 96.252 27.603C96.3213 27.603 96.5423 27.72 96.915 27.954C97.2877 28.188 97.474 28.3657 97.474 28.487C97.474 28.5997 97.3093 28.721 96.98 28.851V34.22C96.98 34.6013 96.9843 34.87 96.993 35.026L97.006 35.468C97.006 35.5113 96.993 35.546 96.967 35.572C96.9497 35.6067 96.8717 35.6543 96.733 35.715C96.603 35.7843 96.4383 35.8493 96.239 35.91C96.0483 35.9793 95.927 36.014 95.875 36.014C95.8317 36.014 95.81 35.9663 95.81 35.871V35.052H93.691V35.819C93.691 35.9143 93.652 35.988 93.574 36.04C93.496 36.092 93.3227 36.1657 93.054 36.261C92.794 36.365 92.625 36.417 92.547 36.417C92.4777 36.417 92.4473 36.365 92.456 36.261C92.4993 35.8623 92.521 35.4333 92.521 34.974V28.734C92.521 28.37 92.508 28.0017 92.482 27.629C92.9587 27.7937 93.3963 27.993 93.795 28.227C94.055 27.0483 94.1893 26.0907 94.198 25.354C94.5793 25.432 94.939 25.536 95.277 25.666C95.615 25.796 95.81 25.8827 95.862 25.926C95.914 25.9693 95.94 26.017 95.94 26.069C95.94 26.1557 95.8707 26.2163 95.732 26.251C95.628 26.277 95.511 26.3897 95.381 26.589C95.2597 26.7797 94.9477 27.3387 94.445 28.266ZM95.81 31.347V28.682H93.691V31.347H95.81ZM95.81 34.636V31.776H93.691V34.636H95.81ZM98.436 30.476C99.06 30.9267 99.4933 31.2647 99.736 31.49C99.9787 31.7153 100.139 31.88 100.217 31.984C100.295 32.088 100.334 32.2267 100.334 32.4C100.334 32.712 100.234 32.9893 100.035 33.232C99.8357 33.4747 99.671 33.596 99.541 33.596C99.4197 33.596 99.333 33.4183 99.281 33.063C99.229 32.699 99.112 32.296 98.93 31.854C98.7567 31.4033 98.5443 31.0047 98.293 30.658L98.436 30.476ZM109.785 27.252C107.61 27.5033 106.063 27.629 105.144 27.629V27.343C108.654 26.8837 111.397 26.2033 113.373 25.302C113.962 25.8133 114.326 26.147 114.465 26.303C114.604 26.459 114.673 26.5717 114.673 26.641C114.673 26.7103 114.634 26.745 114.556 26.745C114.478 26.745 114.4 26.732 114.322 26.706C114.244 26.68 114.114 26.667 113.932 26.667C113.759 26.667 113.399 26.7147 112.853 26.81C112.316 26.9053 111.692 27.0007 110.981 27.096V29.462H112.749L113.23 28.76C113.308 28.6473 113.399 28.591 113.503 28.591C113.607 28.591 113.854 28.773 114.244 29.137C114.634 29.4923 114.829 29.709 114.829 29.787C114.829 29.8563 114.725 29.891 114.517 29.891H110.981V31.997H114.049L114.712 31.165C114.807 31.0523 114.89 30.996 114.959 30.996C115.037 30.996 115.275 31.204 115.674 31.62C116.081 32.0273 116.285 32.2657 116.285 32.335C116.285 32.4043 116.181 32.439 115.973 32.439H110.981V35.637C110.981 35.9663 110.938 36.2133 110.851 36.378C110.773 36.5513 110.569 36.7203 110.24 36.885C109.919 37.0583 109.694 37.145 109.564 37.145C109.477 37.145 109.421 37.0757 109.395 36.937C109.334 36.625 109.187 36.3823 108.953 36.209C108.719 36.0443 108.268 35.858 107.601 35.65L107.666 35.39C108.394 35.5113 108.888 35.572 109.148 35.572C109.417 35.572 109.59 35.52 109.668 35.416C109.746 35.3207 109.785 35.1387 109.785 34.87V32.439H105.3C105.005 32.439 104.789 32.465 104.65 32.517L104.416 31.932C104.598 31.9753 104.815 31.997 105.066 31.997H109.785V29.891H106.743C106.448 29.891 106.232 29.917 106.093 29.969L105.859 29.397C106.041 29.4403 106.258 29.462 106.509 29.462H109.785V27.252ZM125.905 27.278H127.348L127.946 26.407C128.007 26.3203 128.063 26.277 128.115 26.277C128.254 26.277 128.54 26.472 128.973 26.862C129.415 27.2433 129.636 27.486 129.636 27.59C129.636 27.6333 129.554 27.655 129.389 27.655H125.905C125.905 27.9323 125.914 28.162 125.931 28.344L125.957 28.773C125.957 28.8163 125.948 28.851 125.931 28.877C125.914 28.8943 125.844 28.929 125.723 28.981C125.602 29.033 125.441 29.085 125.242 29.137C125.051 29.1803 124.93 29.202 124.878 29.202C124.826 29.202 124.8 29.1413 124.8 29.02V27.655H121.953V29.033C121.953 29.111 121.936 29.1673 121.901 29.202C121.875 29.2367 121.754 29.2843 121.537 29.345C121.32 29.397 121.099 29.423 120.874 29.423C120.805 29.423 120.77 29.371 120.77 29.267L120.809 27.655H118.196C117.971 27.655 117.789 27.681 117.65 27.733L117.338 27.213C117.52 27.2563 117.737 27.278 117.988 27.278H120.809V25.848C120.809 25.562 120.796 25.2457 120.77 24.899C121.515 25.055 121.975 25.1677 122.148 25.237C122.33 25.2977 122.421 25.3583 122.421 25.419C122.421 25.5143 122.265 25.627 121.953 25.757V27.278H124.8V25.848C124.8 25.432 124.783 25.1157 124.748 24.899C125.069 24.9683 125.394 25.0463 125.723 25.133C126.052 25.2197 126.247 25.2803 126.308 25.315C126.369 25.3497 126.399 25.3887 126.399 25.432C126.399 25.51 126.234 25.6227 125.905 25.77V27.278ZM124.293 29.956L124.943 29.449C125.021 29.3883 125.103 29.358 125.19 29.358C125.303 29.358 125.45 29.436 125.632 29.592C125.823 29.7393 126.031 29.8953 126.256 30.06C126.49 30.216 126.607 30.3287 126.607 30.398C126.607 30.4587 126.577 30.5063 126.516 30.541C126.464 30.567 126.325 30.58 126.1 30.58C125.875 30.58 125.688 30.6233 125.541 30.71C125.394 30.788 125.056 31.0263 124.527 31.425C124.007 31.8237 123.418 32.3003 122.759 32.855C122.1 33.4097 121.637 33.8127 121.368 34.064C121.099 34.3067 120.93 34.4887 120.861 34.61C120.8 34.7227 120.77 34.8267 120.77 34.922C120.77 35.1213 120.883 35.2773 121.108 35.39C121.342 35.5027 121.706 35.572 122.2 35.598C122.694 35.624 123.379 35.637 124.254 35.637C125.979 35.637 126.988 35.585 127.283 35.481C127.586 35.3857 127.816 35.13 127.972 34.714C128.128 34.2893 128.262 33.5787 128.375 32.582L128.661 32.608C128.67 33.31 128.687 33.8127 128.713 34.116C128.739 34.4193 128.791 34.6403 128.869 34.779C128.947 34.9177 129.086 35.0693 129.285 35.234C129.38 35.312 129.428 35.377 129.428 35.429C129.428 35.4897 129.35 35.624 129.194 35.832C129.047 36.0487 128.834 36.2263 128.557 36.365C128.28 36.5037 127.933 36.5903 127.517 36.625C127.11 36.6683 126.399 36.69 125.385 36.69C124.38 36.69 123.444 36.677 122.577 36.651C121.71 36.625 121.13 36.5817 120.835 36.521C120.54 36.469 120.28 36.3737 120.055 36.235C119.838 36.0963 119.674 35.936 119.561 35.754C119.448 35.572 119.392 35.39 119.392 35.208C119.392 35.0347 119.418 34.8743 119.47 34.727C119.522 34.5797 119.596 34.441 119.691 34.311C119.786 34.1723 120.012 33.9383 120.367 33.609C120.722 33.271 121.238 32.8203 121.914 32.257C122.59 31.685 123.34 31.074 124.163 30.424H119.47C119.288 30.424 119.141 30.4457 119.028 30.489L118.781 29.904C118.937 29.9387 119.11 29.956 119.301 29.956H124.293ZM136.565 27.278C136.331 30.1813 135.85 32.296 135.122 33.622C134.394 34.948 132.882 36.1613 130.585 37.262L130.468 37.041C132.366 35.8537 133.649 34.4453 134.316 32.816C134.992 31.1867 135.391 28.6647 135.512 25.25C135.911 25.3453 136.279 25.4537 136.617 25.575C136.955 25.6877 137.15 25.7657 137.202 25.809C137.263 25.8437 137.293 25.887 137.293 25.939C137.293 25.991 137.215 26.0473 137.059 26.108C136.912 26.16 136.808 26.225 136.747 26.303C137.12 28.955 137.787 31.0653 138.749 32.634C139.72 34.2027 141.028 35.2947 142.675 35.91L142.636 36.157C142.393 36.1397 142.159 36.131 141.934 36.131C141.709 36.131 141.514 36.17 141.349 36.248C141.184 36.326 140.989 36.4777 140.764 36.703C140.703 36.7637 140.656 36.794 140.621 36.794C140.517 36.794 140.079 36.3563 139.308 35.481C138.537 34.6143 137.939 33.6047 137.514 32.452C137.089 31.2907 136.773 29.566 136.565 27.278Z" fill="#9A764E" fill-opacity="0.5"/>
</svg>
