<svg width="146" height="42" viewBox="0 0 146 42" fill="none" xmlns="http://www.w3.org/2000/svg">
<path d="M9.825 14.95V17.935C9.825 18.045 9.785 18.13 9.705 18.19C9.635 18.25 9.45 18.325 9.15 18.415C8.85 18.505 8.64 18.55 8.52 18.55C8.48 18.55 8.46 18.53 8.46 18.49C8.46 18.46 8.465 18.275 8.475 17.935C8.495 17.605 8.505 17.09 8.505 16.39V6.865C8.505 6.145 8.485 5.62 8.445 5.29C8.905 5.49 9.44 5.76 10.05 6.1H11.895L12.315 5.485C12.395 5.375 12.47 5.32 12.54 5.32C12.62 5.32 12.79 5.415 13.05 5.605L13.77 6.145C14 6.315 14.115 6.45 14.115 6.55C14.115 6.64 14.005 6.72 13.785 6.79C13.565 6.85 13.415 6.92 13.335 7C13.255 7.07 13.075 7.325 12.795 7.765L11.22 10.18C12.24 10.95 12.92 11.575 13.26 12.055C13.61 12.525 13.785 13.055 13.785 13.645C13.785 14.235 13.68 14.745 13.47 15.175C13.27 15.595 12.975 15.92 12.585 16.15C12.205 16.38 11.945 16.495 11.805 16.495C11.675 16.495 11.605 16.42 11.595 16.27C11.575 15.94 11.435 15.685 11.175 15.505C10.915 15.325 10.465 15.14 9.825 14.95ZM9.825 6.61V14.635C10.315 14.715 10.765 14.755 11.175 14.755C11.595 14.755 11.91 14.66 12.12 14.47C12.34 14.27 12.45 13.92 12.45 13.42C12.45 12.91 12.29 12.4 11.97 11.89C11.66 11.38 11.21 10.855 10.62 10.315C11.21 8.775 11.64 7.54 11.91 6.61H9.825ZM4.845 12.685C3.855 14.315 2.46 15.81 0.66 17.17L0.45 16.975C2.01 15.365 3.27 13.535 4.23 11.485C3.52 10.175 2.665 8.985 1.665 7.915L1.92 7.63C3.03 8.72 3.94 9.685 4.65 10.525C5.13 9.305 5.46 8.095 5.64 6.895H1.575C1.305 6.895 1.085 6.93 0.915 7L0.645 6.295C0.855 6.345 1.115 6.37 1.425 6.37H5.55L5.97 5.725C6.05 5.595 6.115 5.53 6.165 5.53C6.225 5.53 6.305 5.565 6.405 5.635L7.515 6.4C7.655 6.5 7.725 6.585 7.725 6.655C7.725 6.725 7.64 6.79 7.47 6.85C7.31 6.91 7.195 6.985 7.125 7.075C7.065 7.155 7 7.33 6.93 7.6C6.52 9.08 6.035 10.395 5.475 11.545C6.485 12.865 6.99 13.885 6.99 14.605C6.99 14.925 6.905 15.225 6.735 15.505C6.565 15.775 6.385 15.91 6.195 15.91C6.075 15.91 5.99 15.875 5.94 15.805C5.89 15.735 5.83 15.55 5.76 15.25C5.57 14.49 5.265 13.635 4.845 12.685ZM21.795 6.82C20.615 6.35 19.235 5.865 17.655 5.365L17.7 5.02C19.74 5.39 21.445 5.785 22.815 6.205C23.795 5.565 24.62 4.915 25.29 4.255C25.66 4.505 25.965 4.735 26.205 4.945C26.455 5.145 26.595 5.27 26.625 5.32C26.665 5.37 26.685 5.42 26.685 5.47C26.685 5.52 26.665 5.555 26.625 5.575C26.585 5.585 26.475 5.59 26.295 5.59C25.965 5.59 25.635 5.705 25.305 5.935C24.845 6.235 24.465 6.465 24.165 6.625C25.285 7.015 26.01 7.365 26.34 7.675C26.67 7.975 26.835 8.32 26.835 8.71C26.835 8.88 26.8 9.035 26.73 9.175C26.66 9.315 26.545 9.385 26.385 9.385C26.225 9.385 26.025 9.28 25.785 9.07C24.995 8.38 24.035 7.78 22.905 7.27C22.265 7.57 21.66 7.83 21.09 8.05C21.58 8.22 21.935 8.365 22.155 8.485C22.375 8.605 22.485 8.7 22.485 8.77C22.485 8.83 22.375 8.87 22.155 8.89C22.045 8.9 21.96 8.96 21.9 9.07L21.42 9.865H27.075L27.75 9.055C27.84 8.945 27.92 8.89 27.99 8.89C28.1 8.89 28.37 9.085 28.8 9.475C29.23 9.865 29.445 10.125 29.445 10.255C29.445 10.325 29.35 10.36 29.16 10.36H21.09C20.67 10.99 20.22 11.575 19.74 12.115L20.055 12.28H22.17C22.17 11.43 22.16 10.815 22.14 10.435C23.22 10.525 23.76 10.65 23.76 10.81C23.76 10.88 23.645 10.98 23.415 11.11V12.28H25.71L26.01 11.77C26.09 11.64 26.18 11.575 26.28 11.575C26.39 11.575 26.665 11.72 27.105 12.01C27.545 12.3 27.765 12.5 27.765 12.61C27.765 12.72 27.595 12.845 27.255 12.985V15.7C27.255 16.02 27.21 16.26 27.12 16.42C27.03 16.58 26.8 16.765 26.43 16.975C26.07 17.195 25.85 17.305 25.77 17.305C25.7 17.305 25.65 17.24 25.62 17.11C25.55 16.75 25.415 16.49 25.215 16.33C25.025 16.18 24.59 15.985 23.91 15.745L23.985 15.415C24.685 15.555 25.15 15.625 25.38 15.625C25.61 15.625 25.755 15.575 25.815 15.475C25.875 15.365 25.905 15.17 25.905 14.89V12.805H23.415V16.78C23.415 17.08 23.42 17.33 23.43 17.53L23.46 18.04C23.46 18.12 23.42 18.19 23.34 18.25C23.26 18.31 23.09 18.38 22.83 18.46C22.58 18.55 22.375 18.595 22.215 18.595C22.135 18.595 22.1 18.545 22.11 18.445C22.15 17.965 22.17 17.425 22.17 16.825V12.805H19.86V16.555C19.86 16.655 19.845 16.72 19.815 16.75C19.795 16.79 19.705 16.85 19.545 16.93C19.395 17.01 19.22 17.08 19.02 17.14C18.82 17.21 18.69 17.245 18.63 17.245C18.58 17.245 18.555 17.2 18.555 17.11L18.585 16.42C18.605 16.13 18.615 15.815 18.615 15.475V13.27C17.585 14.22 16.49 15.015 15.33 15.655L15.135 15.355C16.385 14.445 17.535 13.32 18.585 11.98L18.57 11.68L18.78 11.725C19.09 11.325 19.4 10.87 19.71 10.36H16.56C16.39 10.36 16.175 10.39 15.915 10.45L15.555 9.79C15.765 9.84 16.02 9.865 16.32 9.865H19.995C20.335 9.285 20.6 8.72 20.79 8.17C19.42 8.68 18.13 9.035 16.92 9.235L16.86 8.95C18.65 8.37 20.295 7.66 21.795 6.82ZM37.035 6.61H32.805C32.535 6.61 32.325 6.645 32.175 6.715L31.905 6.145C32.115 6.195 32.365 6.22 32.655 6.22H40.995L41.67 5.23C41.76 5.09 41.855 5.02 41.955 5.02C42.065 5.02 42.385 5.235 42.915 5.665C43.445 6.085 43.71 6.35 43.71 6.46C43.71 6.56 43.605 6.61 43.395 6.61H38.385V12.265H41.625L42.39 11.2C42.49 11.07 42.58 11.005 42.66 11.005C42.74 11.005 42.95 11.135 43.29 11.395C43.64 11.655 43.925 11.88 44.145 12.07C44.375 12.25 44.49 12.395 44.49 12.505C44.49 12.615 44.4 12.67 44.22 12.67H38.385V16.33C38.385 16.66 38.395 17.01 38.415 17.38L38.43 17.89C38.43 17.97 38.39 18.035 38.31 18.085C38.24 18.145 38.04 18.23 37.71 18.34C37.39 18.45 37.18 18.505 37.08 18.505C37.02 18.505 36.99 18.425 36.99 18.265L37.035 16.33V12.67H31.515C31.245 12.67 31.035 12.705 30.885 12.775L30.615 12.19C30.825 12.24 31.075 12.265 31.365 12.265H37.035V6.61ZM41.25 7.435C41.63 7.685 41.95 7.92 42.21 8.14C42.47 8.35 42.62 8.485 42.66 8.545C42.71 8.595 42.735 8.645 42.735 8.695C42.735 8.795 42.65 8.85 42.48 8.86C42.31 8.87 42.185 8.895 42.105 8.935C42.035 8.975 41.945 9.05 41.835 9.16C40.695 10.24 39.725 11.075 38.925 11.665L38.715 11.47C39.685 10.32 40.53 8.975 41.25 7.435ZM33.405 7.555C34.145 7.975 34.73 8.365 35.16 8.725C35.59 9.075 35.805 9.435 35.805 9.805C35.805 10.165 35.69 10.5 35.46 10.81C35.23 11.11 35.015 11.26 34.815 11.26C34.685 11.26 34.595 11.21 34.545 11.11C34.495 11.01 34.455 10.845 34.425 10.615C34.325 9.645 33.915 8.69 33.195 7.75L33.405 7.555Z" fill="#9A764E"/>
<path d="M12.402 25.094C12.0293 25.3367 11.765 25.6313 11.609 25.978C11.453 26.3247 11.375 26.628 11.375 26.888C11.375 27.0267 11.44 27.096 11.57 27.096C11.8387 27.096 12.0207 27.1653 12.116 27.304C12.22 27.4427 12.272 27.6593 12.272 27.954C12.272 28.5433 11.9253 28.838 11.232 28.838C10.8853 28.838 10.5993 28.721 10.374 28.487C10.1573 28.253 10.049 27.954 10.049 27.59C10.049 26.3593 10.725 25.3583 12.077 24.587L12.402 25.094ZM9.594 25.094C9.18667 25.354 8.91367 25.6487 8.775 25.978C8.63633 26.2987 8.567 26.602 8.567 26.888C8.567 27.0267 8.64933 27.096 8.814 27.096C8.97867 27.096 9.126 27.174 9.256 27.33C9.39467 27.4773 9.464 27.6853 9.464 27.954C9.464 28.5433 9.11733 28.838 8.424 28.838C8.09467 28.838 7.813 28.7167 7.579 28.474C7.35367 28.2227 7.241 27.928 7.241 27.59C7.241 26.3593 7.917 25.3583 9.269 24.587L9.594 25.094ZM22.815 30.736L23.556 29.748C23.66 29.6093 23.751 29.54 23.829 29.54C23.907 29.54 24.1757 29.7653 24.635 30.216C25.0943 30.658 25.324 30.9267 25.324 31.022C25.324 31.1173 25.22 31.165 25.012 31.165H14.183C13.949 31.165 13.767 31.1953 13.637 31.256L13.377 30.671C13.559 30.7143 13.7757 30.736 14.027 30.736H22.815ZM32.357 32.426H29.64C29.406 32.426 29.224 32.4563 29.094 32.517L28.808 31.932C28.99 31.9753 29.2067 31.997 29.458 31.997H32.357V29.059H29.848C29.2153 30.3157 28.4353 31.4553 27.508 32.478L27.183 32.309C28.301 30.5323 29.0723 28.4047 29.497 25.926C29.9217 26.0647 30.2857 26.2033 30.589 26.342C30.901 26.472 31.0873 26.563 31.148 26.615C31.2173 26.667 31.252 26.7233 31.252 26.784C31.252 26.8447 31.1697 26.8923 31.005 26.927C30.8403 26.9617 30.7233 27.07 30.654 27.252L30.069 28.604H32.357V26.16C32.357 25.718 32.3483 25.3107 32.331 24.938C32.5997 24.9813 32.981 25.0853 33.475 25.25C33.9777 25.406 34.229 25.5403 34.229 25.653C34.229 25.757 34.0123 25.8697 33.579 25.991V28.604H35.737L36.257 27.837C36.361 27.681 36.452 27.603 36.53 27.603C36.608 27.603 36.8853 27.798 37.362 28.188C37.8387 28.5693 38.077 28.825 38.077 28.955C38.077 29.0243 37.999 29.059 37.843 29.059H33.579V31.997H35.204L35.724 31.23C35.828 31.0827 35.932 31.009 36.036 31.009C36.1487 31.009 36.426 31.204 36.868 31.594C37.31 31.984 37.531 32.2223 37.531 32.309C37.531 32.387 37.44 32.426 37.258 32.426H33.579V35.689H36.218L36.751 34.883C36.8637 34.7183 36.9547 34.636 37.024 34.636C37.102 34.636 37.206 34.688 37.336 34.792C37.466 34.896 37.6697 35.0693 37.947 35.312C38.2243 35.5633 38.4063 35.7367 38.493 35.832C38.5797 35.9273 38.623 36.001 38.623 36.053C38.623 36.1137 38.532 36.144 38.35 36.144H28.054C27.82 36.144 27.638 36.1743 27.508 36.235L27.261 35.624C27.443 35.6673 27.6597 35.689 27.911 35.689H32.357V32.426ZM46.215 26.758C46.0763 26.0733 45.7817 25.549 45.331 25.185L45.487 24.925C46.0417 25.1243 46.4793 25.3193 46.8 25.51C47.1293 25.7007 47.294 25.9087 47.294 26.134C47.294 26.3507 47.2117 26.5587 47.047 26.758H49.01L49.725 25.913C49.7943 25.8263 49.8593 25.783 49.92 25.783C50.0153 25.783 50.2667 25.9823 50.674 26.381C51.0813 26.771 51.285 26.9963 51.285 27.057C51.285 27.109 51.181 27.135 50.973 27.135H42.887C42.8263 28.8943 42.7483 30.4327 42.653 31.75C42.809 31.7847 42.9867 31.802 43.186 31.802H44.395C44.4557 31.1953 44.5033 30.4457 44.538 29.553H44.369C43.979 30.307 43.5283 30.9137 43.017 31.373L42.77 31.243C43.108 30.6017 43.3593 30.034 43.524 29.54C43.6973 29.046 43.9183 28.2617 44.187 27.187C44.8543 27.4557 45.2313 27.616 45.318 27.668C45.4133 27.7113 45.461 27.759 45.461 27.811C45.461 27.8543 45.4003 27.902 45.279 27.954C45.1577 27.9973 45.0537 28.1187 44.967 28.318L44.564 29.163H45.539L45.968 28.63C46.0373 28.5433 46.098 28.5 46.15 28.5C46.202 28.5 46.3753 28.6387 46.67 28.916C46.9733 29.1933 47.125 29.371 47.125 29.449C47.125 29.5183 47.034 29.553 46.852 29.553H45.565C45.539 30.307 45.4827 31.0567 45.396 31.802H45.838L46.267 31.152C46.3363 31.048 46.3927 30.996 46.436 30.996C46.5573 30.996 46.839 31.2777 47.281 31.841V29.566C47.281 29.202 47.268 28.8337 47.242 28.461C47.6493 28.643 48.0437 28.8553 48.425 29.098H49.452L49.79 28.63C49.842 28.552 49.894 28.513 49.946 28.513C49.998 28.513 50.2103 28.6343 50.583 28.877C50.9557 29.1197 51.142 29.2757 51.142 29.345C51.142 29.423 50.9773 29.5443 50.648 29.709V34.532C50.648 34.7833 50.6567 35.052 50.674 35.338L50.687 35.741C50.687 35.8103 50.6653 35.8667 50.622 35.91C50.5873 35.9533 50.4443 36.0227 50.193 36.118C49.9417 36.2133 49.7727 36.261 49.686 36.261C49.608 36.261 49.569 36.2263 49.569 36.157V34.896H48.282V35.806C48.282 35.91 48.256 35.9837 48.204 36.027C48.152 36.0703 48.0003 36.1397 47.749 36.235C47.4977 36.3303 47.3417 36.378 47.281 36.378C47.229 36.378 47.2073 36.3303 47.216 36.235C47.2593 35.8623 47.281 35.4333 47.281 34.948V32.218H45.331C45.305 32.4347 45.2573 32.699 45.188 33.011C45.7687 33.453 46.2063 33.843 46.501 34.181C46.7957 34.519 46.943 34.818 46.943 35.078C46.943 35.3467 46.865 35.5893 46.709 35.806C46.553 36.0227 46.371 36.131 46.163 36.131C46.0503 36.131 45.9767 36.0963 45.942 36.027C45.9073 35.9663 45.8857 35.8623 45.877 35.715C45.8077 34.8223 45.5477 34.038 45.097 33.362C44.889 34.168 44.5207 34.831 43.992 35.351C43.4633 35.8797 42.5533 36.4343 41.262 37.015L41.119 36.729C42.185 36.1137 42.952 35.494 43.42 34.87C43.8967 34.2373 44.2087 33.3533 44.356 32.218H43.303C43.1123 32.218 42.939 32.2397 42.783 32.283L42.64 31.893C42.64 33.011 42.4103 33.934 41.951 34.662C41.4917 35.3813 40.7767 36.1613 39.806 37.002L39.572 36.781C40.378 35.8797 40.9197 35.078 41.197 34.376C41.483 33.674 41.6433 32.6253 41.678 31.23C40.976 31.9493 40.495 32.4737 40.235 32.803C40.1743 32.881 40.1223 32.92 40.079 32.92C40.0443 32.92 40.0053 32.8983 39.962 32.855C39.9273 32.803 39.715 32.4607 39.325 31.828C40.0963 31.5073 40.8893 31.087 41.704 30.567C41.7473 29.3277 41.769 28.3873 41.769 27.746C41.769 27.1047 41.7647 26.55 41.756 26.082C42.1547 26.1947 42.64 26.42 43.212 26.758H46.215ZM49.569 34.506V29.488H48.282V34.506H49.569ZM39.832 27.46C40.274 27.7807 40.638 28.0797 40.924 28.357C41.2187 28.6343 41.366 28.8857 41.366 29.111C41.366 29.3363 41.314 29.5703 41.21 29.813C41.106 30.047 40.937 30.164 40.703 30.164C40.6423 30.164 40.5903 30.125 40.547 30.047C40.5123 29.969 40.4647 29.813 40.404 29.579C40.144 28.617 39.897 27.9713 39.663 27.642L39.832 27.46ZM61.763 25.107C62.2743 25.5577 62.5907 25.8567 62.712 26.004C62.8333 26.1427 62.894 26.251 62.894 26.329C62.894 26.3983 62.868 26.4547 62.816 26.498C62.764 26.5413 62.712 26.5543 62.66 26.537C62.296 26.4157 62.0057 26.355 61.789 26.355C61.581 26.355 61.2473 26.3853 60.788 26.446C58.786 26.706 56.5327 26.8143 54.028 26.771L54.041 26.485C57.6463 26.2337 60.2203 25.7743 61.763 25.107ZM54.574 29.449H59.618C60.138 28.7643 60.6363 27.824 61.113 26.628C61.7283 26.888 62.114 27.0657 62.27 27.161C62.4347 27.2563 62.517 27.3343 62.517 27.395C62.517 27.4817 62.413 27.538 62.205 27.564C62.0317 27.5813 61.8497 27.6983 61.659 27.915C61.1303 28.5043 60.6147 29.0157 60.112 29.449H62.53L62.933 28.877C62.985 28.7903 63.05 28.747 63.128 28.747C63.206 28.747 63.3013 28.7903 63.414 28.877L64.012 29.345C64.298 29.5617 64.4583 29.696 64.493 29.748C64.5277 29.7913 64.545 29.839 64.545 29.891C64.545 30.021 64.4107 30.0947 64.142 30.112C63.8733 30.1207 63.648 30.1727 63.466 30.268C63.2927 30.3547 63.0023 30.5973 62.595 30.996C62.9763 31.3167 63.167 31.5247 63.167 31.62C63.167 31.7153 63.0847 31.763 62.92 31.763H57.772C57.642 32.0663 57.4947 32.361 57.33 32.647H60.554L60.866 32.27C60.944 32.1747 61.0133 32.127 61.074 32.127C61.1347 32.127 61.256 32.192 61.438 32.322C61.6287 32.452 61.8193 32.595 62.01 32.751C62.2007 32.8983 62.296 33.0067 62.296 33.076C62.296 33.1713 62.205 33.2363 62.023 33.271C61.8497 33.297 61.7283 33.336 61.659 33.388C61.5897 33.44 61.5073 33.5223 61.412 33.635C60.9267 34.2417 60.4413 34.7487 59.956 35.156C60.8487 35.4767 62.3913 35.6933 64.584 35.806V36.027C64.1767 36.079 63.8647 36.157 63.648 36.261C63.44 36.3737 63.2753 36.5817 63.154 36.885C63.128 36.963 63.076 37.002 62.998 37.002C62.8593 37.002 62.3393 36.885 61.438 36.651C60.5367 36.4257 59.7653 36.1267 59.124 35.754C58.0667 36.4387 56.3897 36.9153 54.093 37.184L54.067 36.976C56.0083 36.56 57.4687 35.9923 58.448 35.273C57.902 34.8137 57.4297 34.1117 57.031 33.167C56.4677 34.0943 55.8653 34.8353 55.224 35.39C54.5827 35.9533 53.6987 36.521 52.572 37.093L52.468 36.872C54.3053 35.78 55.7007 34.077 56.654 31.763H54.925C54.6997 31.763 54.5133 31.7847 54.366 31.828L54.145 31.295C54.327 31.3383 54.5437 31.36 54.795 31.36H56.81C57.0007 30.8487 57.1523 30.3677 57.265 29.917C57.525 29.9863 57.8153 30.0773 58.136 30.19C58.4567 30.294 58.643 30.3633 58.695 30.398C58.7557 30.4327 58.786 30.4673 58.786 30.502C58.786 30.5627 58.7123 30.6103 58.565 30.645C58.4177 30.671 58.3093 30.723 58.24 30.801C58.1793 30.879 58.0797 31.0653 57.941 31.36H61.256L61.724 30.723C61.8193 30.593 61.8973 30.528 61.958 30.528C62.0187 30.528 62.127 30.6017 62.283 30.749L62.621 29.826H54.587C54.587 30.294 54.4743 30.7057 54.249 31.061C54.0237 31.4077 53.729 31.581 53.365 31.581C53.183 31.581 53.0183 31.542 52.871 31.464C52.7237 31.3773 52.65 31.256 52.65 31.1C52.65 30.9353 52.7583 30.7837 52.975 30.645C53.6943 30.203 54.1017 29.5097 54.197 28.565H54.47C54.5307 28.9463 54.5653 29.241 54.574 29.449ZM59.085 34.766C59.6223 34.3067 60.086 33.726 60.476 33.024H57.408C57.876 33.8127 58.435 34.3933 59.085 34.766ZM57.46 26.784C57.9973 27.0527 58.4003 27.3083 58.669 27.551C58.9463 27.785 59.085 28.0017 59.085 28.201C59.085 28.4003 59.0027 28.6127 58.838 28.838C58.6733 29.0547 58.5173 29.163 58.37 29.163C58.2313 29.163 58.1403 29.0287 58.097 28.76C58.0623 28.4913 57.967 28.1793 57.811 27.824C57.655 27.4687 57.486 27.187 57.304 26.979L57.46 26.784ZM54.808 26.992C55.354 27.2173 55.7917 27.434 56.121 27.642C56.459 27.8413 56.628 28.045 56.628 28.253C56.628 28.4523 56.5543 28.6603 56.407 28.877C56.2683 29.085 56.134 29.189 56.004 29.189C55.926 29.189 55.8653 29.1587 55.822 29.098C55.7787 29.0373 55.718 28.8813 55.64 28.63C55.5707 28.3787 55.484 28.1707 55.38 28.006C55.2847 27.8413 55.0593 27.5597 54.704 27.161L54.808 26.992ZM68.731 26.784C68.679 26.7407 68.627 26.5847 68.575 26.316C68.471 25.8047 68.2543 25.3627 67.925 24.99L68.055 24.808C68.601 24.9813 69.0127 25.1503 69.29 25.315C69.576 25.4797 69.719 25.6487 69.719 25.822C69.719 25.9867 69.6583 26.173 69.537 26.381C69.4243 26.5803 69.2943 26.7147 69.147 26.784H70.499L70.967 26.069C71.0277 25.9737 71.0883 25.926 71.149 25.926C71.2183 25.926 71.318 26.0083 71.448 26.173L71.877 26.68C72.033 26.862 72.111 26.9877 72.111 27.057C72.111 27.1263 72.007 27.161 71.799 27.161H66.69C66.456 27.161 66.274 27.1913 66.144 27.252L65.91 26.719C66.092 26.7623 66.3087 26.784 66.56 26.784H68.731ZM73.671 26.654H72.852C72.618 26.654 72.4317 26.68 72.293 26.732L72.072 26.173C72.254 26.2163 72.4707 26.238 72.722 26.238H75.712L76.245 25.471C76.3317 25.3497 76.4053 25.289 76.466 25.289C76.5353 25.289 76.661 25.38 76.843 25.562C77.0337 25.744 77.2243 25.9477 77.415 26.173C77.6143 26.3897 77.714 26.524 77.714 26.576C77.714 26.628 77.6273 26.654 77.454 26.654H74.88C74.6373 27.2607 74.3557 27.798 74.035 28.266H75.465L75.816 27.798C75.8767 27.7287 75.9287 27.694 75.972 27.694C76.024 27.694 76.232 27.8327 76.596 28.11C76.96 28.3873 77.142 28.5563 77.142 28.617C77.142 28.695 76.9947 28.825 76.7 29.007V32.881C76.7 33.1843 76.7043 33.401 76.713 33.531L76.726 33.895C76.726 33.9643 76.6827 34.025 76.596 34.077C76.518 34.129 76.3663 34.194 76.141 34.272C75.9243 34.35 75.7857 34.389 75.725 34.389C75.6643 34.389 75.634 34.3283 75.634 34.207V28.617H72.761V33.973C72.761 34.0683 72.7307 34.1377 72.67 34.181C72.618 34.2243 72.4837 34.2807 72.267 34.35C72.0503 34.4107 71.8943 34.441 71.799 34.441C71.7557 34.441 71.734 34.4063 71.734 34.337L71.76 33.596C71.7773 33.3013 71.786 32.946 71.786 32.53V28.942C71.786 28.5607 71.773 28.1793 71.747 27.798C72.1717 27.9107 72.5877 28.0667 72.995 28.266H73.372C73.5367 27.772 73.6363 27.2347 73.671 26.654ZM67.587 29.631H68.952C69.29 28.929 69.6063 28.11 69.901 27.174C70.3257 27.3647 70.6333 27.5163 70.824 27.629C71.0233 27.733 71.123 27.8197 71.123 27.889C71.123 27.9583 71.045 27.993 70.889 27.993C70.733 27.993 70.551 28.1013 70.343 28.318C70.1437 28.5347 69.8057 28.9723 69.329 29.631H70.148L70.629 28.994C70.6897 28.9247 70.7373 28.89 70.772 28.89C70.8587 28.89 71.0363 29.0417 71.305 29.345C71.5737 29.6397 71.708 29.8347 71.708 29.93C71.708 29.982 71.6387 30.008 71.5 30.008H67.548C67.522 31.88 67.3573 33.3143 67.054 34.311C66.7507 35.3077 66.2393 36.222 65.52 37.054L65.338 36.859C65.7887 35.9403 66.0963 35.1257 66.261 34.415C66.4343 33.6957 66.521 32.8333 66.521 31.828C66.521 30.814 66.5037 29.891 66.469 29.059C66.8763 29.2237 67.249 29.4143 67.587 29.631ZM67.054 27.304C67.9987 27.772 68.471 28.2313 68.471 28.682C68.471 28.838 68.4147 28.9983 68.302 29.163C68.1893 29.319 68.0507 29.397 67.886 29.397C67.808 29.397 67.7473 29.3623 67.704 29.293C67.6693 29.215 67.626 29.059 67.574 28.825C67.4787 28.3483 67.262 27.9107 66.924 27.512L67.054 27.304ZM74.269 34.298C74.0523 34.896 73.6753 35.4117 73.138 35.845C72.6093 36.287 71.8077 36.7593 70.733 37.262L70.616 36.976C71.5347 36.352 72.1587 35.858 72.488 35.494C72.826 35.13 73.086 34.688 73.268 34.168C73.4587 33.648 73.5757 32.9373 73.619 32.036C73.671 31.1347 73.684 30.294 73.658 29.514C74.568 29.7133 75.023 29.878 75.023 30.008C75.023 30.0427 74.9797 30.0817 74.893 30.125C74.815 30.1683 74.763 30.242 74.737 30.346C74.711 30.4413 74.6937 30.606 74.685 30.84C74.6243 32.1833 74.516 33.2233 74.36 33.96C75.4867 34.532 76.232 34.961 76.596 35.247C76.9687 35.533 77.155 35.7843 77.155 36.001C77.155 36.2263 77.1073 36.4603 77.012 36.703C76.9167 36.9543 76.804 37.08 76.674 37.08C76.544 37.08 76.4443 37.0453 76.375 36.976C76.3057 36.9067 76.232 36.7637 76.154 36.547C75.9113 35.8797 75.283 35.13 74.269 34.298ZM70.018 30.112C70.7027 30.5107 71.045 30.7533 71.045 30.84C71.045 30.8833 70.9757 30.905 70.837 30.905C70.6983 30.905 70.5163 30.9873 70.291 31.152C69.7017 31.5593 68.8047 32.0057 67.6 32.491L67.496 32.257C68.38 31.7197 69.2207 31.0047 70.018 30.112ZM70.226 31.815C70.902 32.205 71.24 32.4347 71.24 32.504C71.24 32.5647 71.175 32.5993 71.045 32.608C70.915 32.6167 70.811 32.634 70.733 32.66C70.6637 32.686 70.5597 32.7553 70.421 32.868C69.9703 33.2233 69.5067 33.5223 69.03 33.765C68.562 33.999 67.9727 34.246 67.262 34.506L67.184 34.298C68.4407 33.5787 69.4547 32.751 70.226 31.815ZM70.421 33.791C71.0797 34.233 71.409 34.5103 71.409 34.623C71.409 34.6663 71.3917 34.6923 71.357 34.701C71.3223 34.7097 71.2487 34.714 71.136 34.714C71.058 34.714 70.9323 34.779 70.759 34.909C70.135 35.3683 69.459 35.741 68.731 36.027C68.0117 36.3217 67.1407 36.5947 66.118 36.846L66.053 36.586C67.639 36.0313 69.095 35.0997 70.421 33.791ZM82.927 27.005H85.8L86.138 26.615C86.242 26.4937 86.3287 26.433 86.398 26.433C86.4673 26.433 86.6623 26.537 86.983 26.745C87.3123 26.9443 87.5463 27.0917 87.685 27.187C87.8237 27.2823 87.893 27.3777 87.893 27.473C87.893 27.6117 87.789 27.668 87.581 27.642C87.477 27.6247 87.3947 27.616 87.334 27.616C87.126 27.616 86.866 27.7243 86.554 27.941C86.242 28.149 85.722 28.5867 84.994 29.254H87.061L87.373 28.851C87.4423 28.7557 87.5073 28.708 87.568 28.708C87.6373 28.708 87.867 28.8293 88.257 29.072C88.647 29.306 88.842 29.4577 88.842 29.527C88.842 29.6223 88.6383 29.7653 88.231 29.956V32.608L88.257 33.206C88.257 33.284 88.2137 33.3577 88.127 33.427C88.0403 33.4963 87.9103 33.5613 87.737 33.622C87.5723 33.674 87.4163 33.7 87.269 33.7C87.1563 33.7 87.1 33.6263 87.1 33.479V32.777H81.601V34.792C81.601 35.0087 81.6183 35.156 81.653 35.234C81.6877 35.3207 81.77 35.377 81.9 35.403C82.0387 35.429 82.4937 35.4637 83.265 35.507C84.045 35.5503 84.773 35.572 85.449 35.572C86.125 35.572 86.723 35.5503 87.243 35.507C87.763 35.4723 88.0923 35.4247 88.231 35.364C88.3697 35.312 88.4867 35.2123 88.582 35.065C88.686 34.9177 88.7857 34.6793 88.881 34.35C88.985 34.0207 89.1107 33.5267 89.258 32.868L89.544 32.894C89.5007 33.3533 89.479 33.7693 89.479 34.142C89.479 34.5147 89.518 34.7833 89.596 34.948C89.6827 35.104 89.8213 35.2167 90.012 35.286C90.0987 35.3207 90.142 35.3943 90.142 35.507C90.142 35.6283 90.025 35.8147 89.791 36.066C89.557 36.3173 89.206 36.469 88.738 36.521C88.27 36.573 87.3687 36.599 86.034 36.599C84.708 36.599 83.6117 36.5773 82.745 36.534C81.887 36.4993 81.3367 36.443 81.094 36.365C80.86 36.287 80.6997 36.1527 80.613 35.962C80.535 35.7713 80.496 35.4767 80.496 35.078V29.878C79.8287 30.476 79.1527 30.9527 78.468 31.308L78.325 31.126C80.2403 29.4533 81.7007 27.3993 82.706 24.964C83.018 25.0853 83.3257 25.224 83.629 25.38C83.9323 25.5273 84.11 25.627 84.162 25.679C84.2227 25.7223 84.253 25.7657 84.253 25.809C84.253 25.8783 84.1533 25.9217 83.954 25.939C83.694 25.9563 83.5337 26.0213 83.473 26.134C83.4123 26.2467 83.2303 26.537 82.927 27.005ZM84.344 29.254C85.1847 28.1533 85.6353 27.5293 85.696 27.382H82.68C82.2553 27.9887 81.8133 28.539 81.354 29.033C81.6227 29.033 81.8393 29.1067 82.004 29.254H84.344ZM87.1 32.387V29.618H84.89V32.387H87.1ZM81.601 29.618V32.387H83.798V29.618H81.601ZM98.163 28.435H99.346V26.511C99.346 25.991 99.3373 25.5447 99.32 25.172C100.369 25.328 100.893 25.471 100.893 25.601C100.893 25.679 100.728 25.8047 100.399 25.978V28.435H101.543L101.777 27.98C101.855 27.8413 101.942 27.772 102.037 27.772C102.141 27.772 102.353 27.889 102.674 28.123C103.003 28.3483 103.168 28.5173 103.168 28.63C103.168 28.7427 103.034 28.8423 102.765 28.929V35.065C102.765 35.455 102.769 35.7237 102.778 35.871L102.791 36.3C102.791 36.3693 102.748 36.4343 102.661 36.495C102.574 36.5643 102.423 36.6337 102.206 36.703C101.998 36.781 101.859 36.82 101.79 36.82C101.729 36.82 101.699 36.7637 101.699 36.651V35.741H98.15V36.196C98.15 36.2827 98.137 36.3433 98.111 36.378C98.0937 36.4127 98.0373 36.456 97.942 36.508C97.8467 36.56 97.708 36.612 97.526 36.664C97.3527 36.7247 97.24 36.755 97.188 36.755C97.136 36.755 97.1143 36.703 97.123 36.599C97.1577 36.209 97.175 35.728 97.175 35.156V29.072C97.175 28.708 97.162 28.3397 97.136 27.967C97.5607 28.1317 97.903 28.2877 98.163 28.435ZM99.346 28.838H98.15V31.815H99.346V28.838ZM101.699 31.815V28.838H100.399V31.815H101.699ZM98.15 32.192V35.338H99.346V32.192H98.15ZM101.699 35.338V32.192H100.399V35.338H101.699ZM93.665 30.71H92.209C91.9837 30.71 91.7973 30.7317 91.65 30.775L91.429 30.216C91.611 30.2593 91.8277 30.281 92.079 30.281H93.951V27.135C93.145 27.239 92.391 27.2953 91.689 27.304L91.676 27.083C92.4733 26.953 93.3053 26.745 94.172 26.459C95.0473 26.173 95.719 25.8913 96.187 25.614C96.7503 26.212 97.032 26.5673 97.032 26.68C97.032 26.784 96.9887 26.836 96.902 26.836C96.8153 26.836 96.72 26.8143 96.616 26.771C96.512 26.7277 96.4123 26.706 96.317 26.706C96.2303 26.706 96.1003 26.732 95.927 26.784C95.7537 26.8273 95.42 26.8967 94.926 26.992V30.281H95.511L95.888 29.748C95.9747 29.6267 96.0483 29.566 96.109 29.566C96.1783 29.566 96.3473 29.7177 96.616 30.021C96.8847 30.3157 97.019 30.5063 97.019 30.593C97.019 30.671 96.9367 30.71 96.772 30.71H94.926V31.477C95.446 31.7023 95.8273 31.893 96.07 32.049C96.3213 32.205 96.486 32.3523 96.564 32.491C96.642 32.6297 96.681 32.803 96.681 33.011C96.681 33.219 96.6377 33.388 96.551 33.518C96.473 33.648 96.3863 33.713 96.291 33.713C96.2043 33.713 96.1393 33.6913 96.096 33.648C96.0613 33.6047 96.0007 33.479 95.914 33.271C95.836 33.063 95.6973 32.7987 95.498 32.478C95.3073 32.1573 95.1167 31.9017 94.926 31.711V36.508C94.926 36.5947 94.9173 36.651 94.9 36.677C94.8827 36.703 94.8177 36.742 94.705 36.794C94.601 36.8547 94.4667 36.9067 94.302 36.95C94.146 37.002 94.042 37.028 93.99 37.028C93.938 37.028 93.912 36.976 93.912 36.872L93.925 36.352C93.9423 35.9967 93.951 35.598 93.951 35.156V32.322C93.2663 33.6047 92.43 34.6967 91.442 35.598L91.273 35.442C92.3477 33.9773 93.145 32.4 93.665 30.71ZM95.966 27.434C96.1307 27.512 96.3387 27.6333 96.59 27.798C96.85 27.9627 96.98 28.071 96.98 28.123C96.98 28.175 96.9107 28.2097 96.772 28.227C96.694 28.2357 96.5553 28.344 96.356 28.552C96.1567 28.76 95.7753 29.215 95.212 29.917L95.056 29.813C95.4547 28.929 95.758 28.136 95.966 27.434ZM92.144 27.733C92.5947 28.0537 92.9413 28.331 93.184 28.565C93.4267 28.799 93.548 28.9897 93.548 29.137C93.548 29.2843 93.4657 29.4707 93.301 29.696C93.1363 29.9127 93.0063 30.021 92.911 30.021C92.8157 30.021 92.7463 29.995 92.703 29.943C92.6683 29.8823 92.6337 29.7653 92.599 29.592C92.469 28.8293 92.261 28.2573 91.975 27.876L92.144 27.733ZM107.445 28.5C107.913 28.0667 108.212 27.733 108.342 27.499C108.472 27.2563 108.537 27.031 108.537 26.823C108.537 26.693 108.472 26.628 108.342 26.628C108.134 26.628 107.948 26.5327 107.783 26.342C107.618 26.1513 107.536 25.9217 107.536 25.653C107.536 25.3843 107.64 25.1417 107.848 24.925C108.065 24.7083 108.333 24.6 108.654 24.6C108.975 24.6 109.239 24.717 109.447 24.951C109.655 25.1763 109.759 25.4753 109.759 25.848C109.759 26.4807 109.59 27.0657 109.252 27.603C108.923 28.1403 108.433 28.5997 107.783 28.981L107.445 28.5ZM104.637 28.5C105.036 28.2053 105.317 27.9107 105.482 27.616C105.647 27.3213 105.729 27.057 105.729 26.823C105.729 26.693 105.664 26.628 105.534 26.628C105.326 26.628 105.14 26.5327 104.975 26.342C104.81 26.1513 104.728 25.9217 104.728 25.653C104.728 25.3843 104.832 25.1417 105.04 24.925C105.257 24.7083 105.525 24.6 105.846 24.6C106.167 24.6 106.431 24.717 106.639 24.951C106.847 25.1763 106.951 25.4753 106.951 25.848C106.951 26.4807 106.782 27.0657 106.444 27.603C106.115 28.1403 105.625 28.5997 104.975 28.981L104.637 28.5Z" fill="#9A764E" fill-opacity="0.5"/>
</svg>
