<svg width="146" height="42" viewBox="0 0 146 42" fill="none" xmlns="http://www.w3.org/2000/svg">
<path d="M13.3685 6.835H16.9085L17.5985 5.725C17.6885 5.575 17.7735 5.5 17.8535 5.5C17.9335 5.5 18.0035 5.52 18.0635 5.56C18.1235 5.59 18.2885 5.725 18.5585 5.965C18.8285 6.205 19.0435 6.405 19.2035 6.565C19.3735 6.725 19.4835 6.84 19.5335 6.91C19.5835 6.98 19.6085 7.04 19.6085 7.09C19.6085 7.21 19.4935 7.27 19.2635 7.27H14.2085C15.2885 8.96 17.2385 9.975 20.0585 10.315L20.0135 10.615C19.4435 10.655 19.0635 10.725 18.8735 10.825C18.6835 10.915 18.4735 11.115 18.2435 11.425C18.1935 11.495 18.1335 11.53 18.0635 11.53C17.9435 11.53 17.5035 11.335 16.7435 10.945C15.9835 10.545 15.3735 10.08 14.9135 9.55C14.4635 9.01 14.0685 8.25 13.7285 7.27H13.3685V8.455L13.3985 10.18C13.3985 10.25 13.3785 10.305 13.3385 10.345C13.3085 10.385 13.2135 10.45 13.0535 10.54C12.8935 10.62 12.7035 10.69 12.4835 10.75C12.2735 10.81 12.1335 10.84 12.0635 10.84C12.0035 10.84 11.9735 10.795 11.9735 10.705L12.0035 10C12.0235 9.52 12.0335 9.08 12.0335 8.68V7.87C10.9535 9.33 8.93846 10.715 5.98846 12.025L5.85346 11.785C7.14346 10.995 8.08846 10.34 8.68846 9.82C9.29846 9.29 10.0285 8.44 10.8785 7.27H7.17346C6.91346 7.27 6.69846 7.295 6.52846 7.345L6.27346 6.76C6.48346 6.81 6.73346 6.835 7.02346 6.835H12.0335V6.115C12.0335 5.455 12.0185 4.885 11.9885 4.405C12.4785 4.505 12.8835 4.61 13.2035 4.72C13.5335 4.83 13.7335 4.91 13.8035 4.96C13.8835 5 13.9235 5.045 13.9235 5.095C13.9235 5.195 13.7385 5.335 13.3685 5.515V6.835ZM13.4585 14.35V16.315C13.4585 16.895 13.4135 17.295 13.3235 17.515C13.2335 17.735 12.9685 17.95 12.5285 18.16C12.0885 18.38 11.7885 18.49 11.6285 18.49C11.5185 18.49 11.4485 18.405 11.4185 18.235C11.3485 17.835 11.2185 17.565 11.0285 17.425C10.8485 17.295 10.4085 17.12 9.70846 16.9V16.63C10.4985 16.71 11.0435 16.75 11.3435 16.75C11.6535 16.75 11.8485 16.71 11.9285 16.63C12.0085 16.55 12.0485 16.39 12.0485 16.15V14.35H6.99346C6.72346 14.35 6.51346 14.385 6.36346 14.455L6.09346 13.84C6.30346 13.89 6.55346 13.915 6.84346 13.915H12.0485C12.0485 13.285 12.0285 12.78 11.9885 12.4C12.5885 12.56 13.0185 12.74 13.2785 12.94C13.7785 12.53 14.2185 12.065 14.5985 11.545H9.99346C9.72346 11.545 9.51346 11.58 9.36346 11.65L9.09346 11.035C9.30346 11.085 9.55346 11.11 9.84346 11.11H14.7185L15.1685 10.69C15.2285 10.63 15.2785 10.6 15.3185 10.6C15.3785 10.6 15.5285 10.7 15.7685 10.9L16.3835 11.425C16.5535 11.565 16.6385 11.71 16.6385 11.86C16.6385 12 16.4835 12.075 16.1735 12.085C15.8635 12.085 15.4835 12.195 15.0335 12.415C14.5935 12.625 14.0685 12.945 13.4585 13.375V13.915H16.9685L17.7185 12.865C17.8185 12.725 17.9285 12.655 18.0485 12.655C18.1685 12.655 18.3135 12.725 18.4835 12.865C18.6635 13.005 18.8585 13.175 19.0685 13.375C19.2885 13.575 19.4485 13.74 19.5485 13.87C19.6585 13.99 19.7135 14.1 19.7135 14.2C19.7135 14.3 19.5985 14.35 19.3685 14.35H13.4585ZM26.4935 4.375C27.5535 4.855 28.2485 5.22 28.5785 5.47C28.9185 5.71 29.0885 5.965 29.0885 6.235C29.0885 6.575 28.9835 6.88 28.7735 7.15C28.5635 7.42 28.3385 7.555 28.0985 7.555C27.9385 7.555 27.8135 7.38 27.7235 7.03C27.4935 6.06 27.0235 5.25 26.3135 4.6L26.4935 4.375ZM24.7085 8.215H22.1735C21.9235 8.215 21.7335 8.245 21.6035 8.305L21.3485 7.675C21.5485 7.725 21.7785 7.75 22.0385 7.75H32.0435L32.6585 6.865C32.7685 6.715 32.8835 6.64 33.0035 6.64C33.1235 6.64 33.4185 6.86 33.8885 7.3C34.3585 7.73 34.5935 7.99 34.5935 8.08C34.5935 8.17 34.4785 8.215 34.2485 8.215H30.5735C31.0035 8.285 31.3285 8.37 31.5485 8.47C31.7785 8.56 31.8935 8.625 31.8935 8.665C31.8935 8.725 31.8085 8.79 31.6385 8.86C31.4785 8.92 31.3735 8.99 31.3235 9.07C31.2735 9.14 31.2135 9.295 31.1435 9.535C30.5335 11.695 29.7235 13.35 28.7135 14.5C30.4935 15.78 32.5435 16.55 34.8635 16.81V17.14C34.3435 17.16 33.9185 17.245 33.5885 17.395C33.2585 17.545 33.0235 17.79 32.8835 18.13C32.8435 18.21 32.7935 18.25 32.7335 18.25C32.5735 18.25 31.9035 17.93 30.7235 17.29C29.5535 16.66 28.5885 16.02 27.8285 15.37C26.0185 16.86 23.7335 17.9 20.9735 18.49L20.8985 18.205C23.6185 17.095 25.6435 15.845 26.9735 14.455C26.3835 13.625 25.9235 12.76 25.5935 11.86C25.2635 10.96 24.9685 9.745 24.7085 8.215ZM29.9585 8.215H25.1135C25.7935 10.615 26.6635 12.41 27.7235 13.6C28.7935 12.22 29.5385 10.425 29.9585 8.215ZM45.9935 10.675C46.2435 12.425 46.6485 13.79 47.2085 14.77C47.7785 15.75 48.6735 16.585 49.8935 17.275L49.8485 17.605C49.5785 17.565 49.3385 17.545 49.1285 17.545C48.9285 17.545 48.7485 17.57 48.5885 17.62C48.4285 17.68 48.2785 17.77 48.1385 17.89C48.0085 18.01 47.9135 18.07 47.8535 18.07C47.6735 18.07 47.2835 17.46 46.6835 16.24C46.0835 15.03 45.7035 13.175 45.5435 10.675H45.3335C45.2135 12.055 45.0585 13.065 44.8685 13.705C44.6785 14.335 44.3535 14.94 43.8935 15.52C43.4335 16.1 42.8435 16.635 42.1235 17.125C41.4135 17.615 40.5585 18.065 39.5585 18.475L39.4535 18.205C41.1235 17.085 42.2635 16.04 42.8735 15.07C43.4835 14.09 43.8785 12.625 44.0585 10.675H42.1685C41.8985 10.675 41.6885 10.71 41.5385 10.78L41.2685 10.09C41.4785 10.14 41.7285 10.165 42.0185 10.165H44.1035C44.2035 9.405 44.2535 8.735 44.2535 8.155C44.2535 7.565 44.2485 7.125 44.2385 6.835C43.4485 6.905 42.6735 6.965 41.9135 7.015L41.8835 6.73C44.0935 6.22 46.1135 5.6 47.9435 4.87C48.5935 5.68 48.9185 6.18 48.9185 6.37C48.9185 6.45 48.8785 6.49 48.7985 6.49C48.7185 6.49 48.6185 6.47 48.4985 6.43C48.3785 6.38 48.2435 6.355 48.0935 6.355C47.9535 6.355 47.6235 6.4 47.1035 6.49C46.5935 6.57 46.0935 6.64 45.6035 6.7C45.5435 8.07 45.4685 9.225 45.3785 10.165H47.0885L47.7935 9.22C47.8735 9.11 47.9785 9.055 48.1085 9.055C48.2385 9.055 48.5335 9.265 48.9935 9.685C49.4635 10.095 49.6985 10.365 49.6985 10.495C49.6985 10.615 49.5885 10.675 49.3685 10.675H45.9935ZM38.5535 5.83H40.2785L40.6235 5.275C40.6735 5.195 40.7285 5.155 40.7885 5.155C40.8585 5.155 41.0385 5.265 41.3285 5.485C41.6285 5.705 41.8335 5.865 41.9435 5.965C42.0635 6.065 42.1235 6.155 42.1235 6.235C42.1235 6.305 41.9285 6.405 41.5385 6.535V8.425C41.5385 8.815 41.5435 9.075 41.5535 9.205L41.5685 9.595C41.5685 9.715 41.4335 9.83 41.1635 9.94C40.8935 10.04 40.6835 10.09 40.5335 10.09C40.4335 10.09 40.3835 10.01 40.3835 9.85V9.595H38.4935V9.985C38.4935 10.065 38.4735 10.125 38.4335 10.165C38.3935 10.205 38.2485 10.27 37.9985 10.36C37.7485 10.45 37.5585 10.495 37.4285 10.495C37.3485 10.495 37.3135 10.435 37.3235 10.315C37.3635 9.835 37.3835 9.36 37.3835 8.89V6.355C37.3835 5.945 37.3685 5.525 37.3385 5.095C37.8185 5.335 38.2235 5.58 38.5535 5.83ZM40.3835 9.16V6.295H38.4935V9.16H40.3835ZM40.2035 12.625H40.5785L41.0735 11.905C41.1535 11.795 41.2335 11.74 41.3135 11.74C41.3935 11.74 41.6185 11.91 41.9885 12.25C42.3685 12.59 42.5585 12.82 42.5585 12.94C42.5585 13.01 42.4585 13.045 42.2585 13.045H40.2035V15.49L42.3335 15.025L42.4385 15.325L39.7385 16.45C38.7885 16.85 38.0635 17.235 37.5635 17.605C37.4735 17.675 37.3935 17.71 37.3235 17.71C37.2535 17.71 37.1785 17.635 37.0985 17.485C37.0185 17.345 36.7635 16.945 36.3335 16.285L37.1735 16.15V11.98C37.1735 11.53 37.1635 11.13 37.1435 10.78C37.8235 10.97 38.2535 11.105 38.4335 11.185C38.6135 11.255 38.7035 11.325 38.7035 11.395C38.7035 11.465 38.5585 11.57 38.2685 11.71V15.91L39.0935 15.73V11.155C39.0935 10.705 39.0835 10.305 39.0635 9.955C39.6035 10.045 39.9835 10.12 40.2035 10.18C40.4335 10.24 40.5485 10.32 40.5485 10.42C40.5485 10.51 40.4335 10.6 40.2035 10.69V12.625Z" fill="#9A764E"/>
<path d="M10.348 35.585H2.821V36.391C2.821 36.4777 2.80367 36.534 2.769 36.56C2.743 36.5947 2.60433 36.6467 2.353 36.716C2.10167 36.794 1.90233 36.833 1.755 36.833C1.72033 36.833 1.703 36.7983 1.703 36.729L1.716 36.3C1.72467 36.17 1.729 36.014 1.729 35.832V26.654C1.729 26.29 1.716 25.9217 1.69 25.549C2.14067 25.7223 2.548 25.9347 2.912 26.186H10.179L10.556 25.64C10.6167 25.5533 10.6687 25.51 10.712 25.51C10.764 25.51 10.9243 25.601 11.193 25.783C11.4703 25.9563 11.6783 26.095 11.817 26.199C11.9643 26.303 12.038 26.381 12.038 26.433C12.038 26.5197 11.856 26.6367 11.492 26.784V35.663C11.492 35.845 11.4963 36.001 11.505 36.131L11.531 36.456C11.531 36.5167 11.479 36.573 11.375 36.625C11.2797 36.6857 11.1323 36.742 10.933 36.794C10.7423 36.846 10.5733 36.872 10.426 36.872C10.374 36.872 10.348 36.8287 10.348 36.742V35.585ZM2.821 35.221H10.348V26.576H2.821V35.221ZM7.852 33.622H5.278V34.311C5.278 34.3977 5.26067 34.4583 5.226 34.493C5.2 34.519 5.07433 34.5623 4.849 34.623C4.62367 34.675 4.44167 34.701 4.303 34.701C4.26833 34.701 4.251 34.6663 4.251 34.597L4.264 34.168C4.27267 34.038 4.277 33.882 4.277 33.7V31.23C4.277 30.7187 4.264 30.3503 4.238 30.125C4.602 30.281 4.96167 30.489 5.317 30.749H5.98V29.202H3.991C3.76567 29.202 3.58367 29.228 3.445 29.28L3.172 28.721C3.354 28.7643 3.57067 28.786 3.822 28.786H5.98V27.616C5.98 27.33 5.967 27.0137 5.941 26.667C6.96367 26.875 7.475 27.0353 7.475 27.148C7.475 27.2 7.34067 27.2953 7.072 27.434V28.786H8.385L8.866 28.136C8.93533 28.0493 8.99167 28.006 9.035 28.006C9.10433 28.006 9.31233 28.1707 9.659 28.5C10.0143 28.8207 10.192 29.02 10.192 29.098C10.192 29.1673 10.0967 29.202 9.906 29.202H7.072V30.749H7.722L8.047 30.32C8.10767 30.2333 8.164 30.19 8.216 30.19C8.27667 30.19 8.39367 30.255 8.567 30.385C8.749 30.5063 8.93533 30.6363 9.126 30.775C9.31667 30.9137 9.412 31.0003 9.412 31.035C9.412 31.1043 9.243 31.1997 8.905 31.321V33.284C8.905 33.466 8.90933 33.622 8.918 33.752L8.944 34.077C8.944 34.1463 8.918 34.1983 8.866 34.233C8.814 34.2677 8.66667 34.324 8.424 34.402C8.18133 34.4713 8.01667 34.506 7.93 34.506C7.878 34.506 7.852 34.4627 7.852 34.376V33.622ZM5.278 33.245H7.852V31.126H5.278V33.245ZM20.059 27.785H22.997L23.647 26.927C23.725 26.8317 23.8117 26.784 23.907 26.784C24.0023 26.784 24.2537 26.966 24.661 27.33C25.0683 27.694 25.272 27.928 25.272 28.032C25.272 28.136 25.1983 28.188 25.051 28.188H20.852C21.424 29.8 22.087 31.0523 22.841 31.945C23.595 32.829 24.557 33.4747 25.727 33.882L25.688 34.116C25.5407 34.1073 25.363 34.103 25.155 34.103C24.947 34.103 24.752 34.142 24.57 34.22C24.388 34.2893 24.232 34.4237 24.102 34.623C24.0587 34.6923 24.011 34.727 23.959 34.727C23.855 34.727 23.517 34.441 22.945 33.869C22.373 33.297 21.9007 32.6037 21.528 31.789C21.1553 30.9657 20.8 29.7653 20.462 28.188H20.059V33.518H20.969L21.32 33.024C21.4327 32.8593 21.5193 32.777 21.58 32.777C21.6407 32.777 21.7533 32.8593 21.918 33.024C22.0827 33.18 22.2473 33.336 22.412 33.492C22.5853 33.648 22.672 33.765 22.672 33.843C22.672 33.921 22.5897 33.96 22.425 33.96H20.059C20.059 34.5493 20.0633 35.013 20.072 35.351L20.098 36.495C20.098 36.573 20.059 36.638 19.981 36.69C19.9117 36.742 19.76 36.8027 19.526 36.872C19.292 36.9413 19.1187 36.976 19.006 36.976C18.954 36.976 18.928 36.9197 18.928 36.807L18.954 35.728C18.9627 35.3467 18.967 34.7573 18.967 33.96H17.056C16.8307 33.96 16.6443 33.9817 16.497 34.025L16.276 33.453C16.458 33.4963 16.6747 33.518 16.926 33.518H18.967V29.215C18.421 30.5237 17.7363 31.672 16.913 32.66C16.0983 33.648 15.0583 34.5883 13.793 35.481L13.637 35.286C15.8903 33.3793 17.3637 31.0133 18.057 28.188H14.703C14.4777 28.188 14.2913 28.2097 14.144 28.253L13.923 27.72C14.105 27.7633 14.3217 27.785 14.573 27.785H18.967C18.967 26.5023 18.954 25.6617 18.928 25.263C19.9333 25.393 20.436 25.523 20.436 25.653C20.436 25.7223 20.3103 25.8697 20.059 26.095V27.785ZM30.992 25.38C31.8067 26.108 32.4177 26.8143 32.825 27.499C33.2323 28.1837 33.436 28.7903 33.436 29.319C33.436 29.657 33.345 29.943 33.163 30.177C32.9897 30.4023 32.7773 30.515 32.526 30.515C32.37 30.515 32.266 30.2463 32.214 29.709C32.058 28.0797 31.577 26.6843 30.771 25.523L30.992 25.38ZM34.58 31.113H36.309L36.894 30.398C37.0153 30.2507 37.1323 30.177 37.245 30.177C37.3663 30.177 37.6177 30.3677 37.999 30.749C38.3803 31.1217 38.571 31.347 38.571 31.425C38.571 31.503 38.4627 31.542 38.246 31.542H27.079C26.845 31.542 26.663 31.5723 26.533 31.633L26.299 31.048C26.481 31.0913 26.6977 31.113 26.949 31.113H34.034C34.9093 29.189 35.4987 27.369 35.802 25.653C36.2093 25.7657 36.5647 25.8957 36.868 26.043C37.18 26.1817 37.3577 26.2727 37.401 26.316C37.4443 26.3507 37.466 26.394 37.466 26.446C37.466 26.498 37.414 26.5457 37.31 26.589C37.2147 26.6323 37.128 26.693 37.05 26.771C36.9807 26.849 36.894 26.9877 36.79 27.187C35.984 28.7383 35.2473 30.047 34.58 31.113ZM27.885 26.589C29.6617 27.9323 30.55 29.085 30.55 30.047C30.55 30.359 30.4807 30.6017 30.342 30.775C30.212 30.9397 30.056 31.022 29.874 31.022C29.692 31.022 29.5533 30.8053 29.458 30.372C29.25 29.4187 29.016 28.7123 28.756 28.253C28.5047 27.7937 28.1493 27.2867 27.69 26.732L27.885 26.589ZM30.55 31.802C31.1393 32.0533 31.5423 32.2527 31.759 32.4C31.9757 32.5473 32.084 32.6513 32.084 32.712C32.084 32.79 32.0103 32.842 31.863 32.868C31.7157 32.894 31.5943 32.933 31.499 32.985C31.4037 33.037 31.2867 33.1367 31.148 33.284C29.64 34.8873 28.119 36.1613 26.585 37.106L26.403 36.898C28.2143 35.2947 29.5967 33.596 30.55 31.802ZM33.176 32.153C34.3373 32.907 35.217 33.5137 35.815 33.973C36.4217 34.4323 36.8333 34.8093 37.05 35.104C37.2753 35.3987 37.388 35.6803 37.388 35.949C37.388 36.2263 37.323 36.482 37.193 36.716C37.0717 36.95 36.894 37.067 36.66 37.067C36.582 37.067 36.5127 37.0367 36.452 36.976C36.3913 36.924 36.3003 36.7897 36.179 36.573C35.6417 35.6543 35.139 34.9047 34.671 34.324C34.203 33.7433 33.6223 33.0847 32.929 32.348L33.176 32.153ZM42.562 27.07C42.4667 26.9747 42.3973 26.7927 42.354 26.524C42.3107 26.2467 42.2283 26.0083 42.107 25.809C41.9943 25.601 41.847 25.3887 41.665 25.172L41.795 25.003C42.3237 25.1937 42.7353 25.4147 43.03 25.666C43.3333 25.9173 43.485 26.134 43.485 26.316C43.485 26.55 43.3593 26.8013 43.108 27.07H43.966L44.395 26.459C44.4643 26.3637 44.525 26.316 44.577 26.316C44.6377 26.316 44.7287 26.3593 44.85 26.446C44.9713 26.5327 45.1317 26.6627 45.331 26.836C45.5303 27.0093 45.6517 27.1263 45.695 27.187C45.747 27.2477 45.773 27.2997 45.773 27.343C45.773 27.4297 45.682 27.473 45.5 27.473H40.638C40.404 27.473 40.222 27.5033 40.092 27.564L39.858 27.005C40.04 27.0483 40.2567 27.07 40.508 27.07H42.562ZM47.593 26.771C48.217 26.5543 49.1227 26.0777 50.31 25.341C50.9427 26.1383 51.259 26.5933 51.259 26.706C51.259 26.758 51.2287 26.784 51.168 26.784C51.116 26.784 51.0337 26.7623 50.921 26.719C50.8083 26.6757 50.6957 26.654 50.583 26.654C50.479 26.654 50.0587 26.732 49.322 26.888C48.594 27.044 48.0047 27.1393 47.554 27.174L47.463 29.696H49.673L50.258 28.968C50.336 28.8727 50.3967 28.825 50.44 28.825C50.5093 28.825 50.7347 29.007 51.116 29.371C51.4973 29.735 51.688 29.969 51.688 30.073C51.688 30.1337 51.6013 30.164 51.428 30.164H49.777V35.364C49.777 35.7887 49.7813 36.0833 49.79 36.248L49.803 36.716C49.803 36.7853 49.7683 36.8417 49.699 36.885C49.6383 36.937 49.4867 37.0063 49.244 37.093C49.0013 37.1883 48.8453 37.236 48.776 37.236C48.7153 37.236 48.685 37.1797 48.685 37.067V30.164H47.437C47.3763 31.5593 47.3113 32.4867 47.242 32.946C47.1813 33.3967 47.0687 33.83 46.904 34.246C46.7393 34.662 46.4837 35.0823 46.137 35.507C45.799 35.9317 45.2877 36.4517 44.603 37.067L44.343 36.846C44.8717 36.2827 45.266 35.767 45.526 35.299C45.7947 34.831 45.9897 34.298 46.111 33.7C46.2323 33.0933 46.3103 32.439 46.345 31.737C46.3883 31.035 46.41 30.1077 46.41 28.955C46.41 27.8023 46.4013 26.888 46.384 26.212C46.7913 26.3593 47.1943 26.5457 47.593 26.771ZM43.004 30.06C43.3333 29.0893 43.5587 28.253 43.68 27.551C44.2867 27.8283 44.6463 28.0017 44.759 28.071C44.8803 28.1403 44.941 28.1967 44.941 28.24C44.941 28.2833 44.8673 28.318 44.72 28.344C44.5813 28.37 44.4687 28.4653 44.382 28.63C44.2953 28.786 43.9877 29.2627 43.459 30.06H44.317L44.85 29.449C44.928 29.3623 44.9973 29.319 45.058 29.319C45.1273 29.319 45.331 29.475 45.669 29.787C46.0157 30.0903 46.189 30.281 46.189 30.359C46.189 30.4283 46.0893 30.463 45.89 30.463H43.29V31.763H44.018L44.395 31.152C44.4557 31.048 44.512 30.996 44.564 30.996C44.6247 30.996 44.759 31.074 44.967 31.23C45.1837 31.3773 45.37 31.5247 45.526 31.672C45.6907 31.8107 45.773 31.9147 45.773 31.984C45.773 32.1053 45.6647 32.166 45.448 32.166H43.29V35.104C43.29 35.6067 43.2553 35.9533 43.186 36.144C43.1167 36.3347 42.926 36.5167 42.614 36.69C42.3107 36.872 42.1113 36.963 42.016 36.963C41.9293 36.963 41.8643 36.8937 41.821 36.755C41.7517 36.495 41.652 36.3087 41.522 36.196C41.4007 36.0833 41.119 35.9273 40.677 35.728V35.494C41.301 35.6067 41.704 35.663 41.886 35.663C42.068 35.663 42.1807 35.6283 42.224 35.559C42.2673 35.4897 42.289 35.3553 42.289 35.156V32.166H40.599C40.365 32.166 40.183 32.1963 40.053 32.257L39.819 31.698C40.001 31.7413 40.2177 31.763 40.469 31.763H42.289V30.463H40.417C40.183 30.463 40.001 30.4933 39.871 30.554L39.637 29.995C39.819 30.0383 40.0357 30.06 40.287 30.06H43.004ZM40.976 27.629C41.4873 27.9843 41.8297 28.2573 42.003 28.448C42.1763 28.63 42.263 28.8163 42.263 29.007C42.263 29.1977 42.2023 29.4013 42.081 29.618C41.9597 29.8347 41.847 29.943 41.743 29.943C41.6477 29.943 41.5827 29.9127 41.548 29.852C41.5133 29.7913 41.47 29.618 41.418 29.332C41.3747 29.046 41.3097 28.7903 41.223 28.565C41.1363 28.3397 40.989 28.0797 40.781 27.785L40.976 27.629ZM40.859 32.439C41.1103 32.5777 41.353 32.7207 41.587 32.868C41.821 33.0067 41.9467 33.089 41.964 33.115C41.99 33.141 42.003 33.167 42.003 33.193C42.003 33.271 41.9293 33.323 41.782 33.349C41.704 33.3663 41.639 33.401 41.587 33.453C41.535 33.4963 41.4657 33.596 41.379 33.752C40.963 34.5147 40.313 35.3293 39.429 36.196L39.221 36.027C39.9577 34.9003 40.5037 33.7043 40.859 32.439ZM43.68 32.543C44.148 32.8203 44.5553 33.0977 44.902 33.375C45.2487 33.6437 45.422 33.882 45.422 34.09C45.422 34.298 45.344 34.519 45.188 34.753C45.0407 34.987 44.9063 35.104 44.785 35.104C44.6723 35.104 44.5857 34.9827 44.525 34.74C44.3257 33.9687 43.9877 33.3013 43.511 32.738L43.68 32.543ZM53.989 36.742C54.483 36.3347 54.795 35.988 54.925 35.702C55.055 35.416 55.12 35.2253 55.12 35.13C55.12 35.0347 55.0723 34.9783 54.977 34.961C54.7343 34.9177 54.5307 34.7963 54.366 34.597C54.21 34.3977 54.132 34.1593 54.132 33.882C54.132 33.6047 54.236 33.362 54.444 33.154C54.6607 32.9373 54.925 32.829 55.237 32.829C55.5577 32.829 55.8307 32.972 56.056 33.258C56.2813 33.544 56.394 33.921 56.394 34.389C56.394 34.8483 56.2207 35.338 55.874 35.858C55.5273 36.3867 55.0377 36.8243 54.405 37.171L53.989 36.742ZM71.11 27.187C70.9973 26.6757 70.8803 26.2857 70.759 26.017C70.6463 25.7397 70.4427 25.445 70.148 25.133L70.304 24.912C70.954 25.1287 71.4437 25.3453 71.773 25.562C72.111 25.7787 72.28 26.004 72.28 26.238C72.28 26.3507 72.2237 26.5067 72.111 26.706C71.9983 26.9053 71.851 27.0657 71.669 27.187H75.257L75.764 26.68C75.8333 26.6107 75.8983 26.576 75.959 26.576C76.0283 26.576 76.1887 26.68 76.44 26.888L77.09 27.434C77.272 27.5813 77.363 27.7113 77.363 27.824C77.363 27.928 77.233 27.9843 76.973 27.993C76.713 28.0017 76.453 28.0797 76.193 28.227C75.933 28.3657 75.4563 28.7297 74.763 29.319L74.542 29.163C74.9233 28.513 75.2007 27.9887 75.374 27.59H67.743C67.7517 27.746 67.756 27.889 67.756 28.019C67.756 28.7037 67.6173 29.1673 67.34 29.41C67.0713 29.644 66.8157 29.761 66.573 29.761C66.4257 29.761 66.274 29.709 66.118 29.605C65.9707 29.501 65.897 29.397 65.897 29.293C65.897 29.189 65.9707 29.0677 66.118 28.929C66.4733 28.5823 66.7333 28.227 66.898 27.863C67.0713 27.4903 67.21 27.044 67.314 26.524H67.626C67.6693 26.758 67.6953 26.979 67.704 27.187H71.11ZM73.528 30.71H75.153L75.725 29.969C75.8377 29.8303 75.9373 29.761 76.024 29.761C76.1193 29.761 76.362 29.9473 76.752 30.32C77.1507 30.684 77.35 30.9137 77.35 31.009C77.35 31.0957 77.2243 31.139 76.973 31.139H73.528V35.598C73.528 35.936 73.2637 36.248 72.735 36.534C72.2063 36.8287 71.8683 36.976 71.721 36.976C71.6343 36.976 71.5693 36.9197 71.526 36.807C71.3787 36.4257 71.1923 36.144 70.967 35.962C70.7417 35.78 70.3517 35.6197 69.797 35.481L69.823 35.221C70.6897 35.325 71.279 35.377 71.591 35.377C71.903 35.377 72.098 35.351 72.176 35.299C72.254 35.2557 72.293 35.1733 72.293 35.052V31.139H66.625C66.4083 31.139 66.222 31.1607 66.066 31.204L65.845 30.645C66.027 30.6883 66.2437 30.71 66.495 30.71H72.293V29.566C72.293 28.9767 72.28 28.5217 72.254 28.201C72.5573 28.2703 72.852 28.3527 73.138 28.448C73.4327 28.5347 73.619 28.5997 73.697 28.643C73.7837 28.6863 73.827 28.734 73.827 28.786C73.827 28.838 73.7273 28.9247 73.528 29.046V30.71ZM68.016 31.438C68.666 31.8627 69.1687 32.2483 69.524 32.595C69.8793 32.933 70.057 33.2363 70.057 33.505C70.057 33.7737 69.9747 34.0337 69.81 34.285C69.6453 34.5363 69.4633 34.662 69.264 34.662C69.0647 34.662 68.9347 34.5017 68.874 34.181C68.7613 33.6523 68.6313 33.2103 68.484 32.855C68.3453 32.4997 68.1373 32.088 67.86 31.62L68.016 31.438ZM85.293 30.58H86.996L87.542 29.761C87.6113 29.657 87.6763 29.605 87.737 29.605C87.8323 29.605 88.1053 29.7827 88.556 30.138C89.0153 30.4847 89.245 30.7273 89.245 30.866C89.245 30.996 89.1367 31.061 88.92 31.061H85.293V35.663H88.049L88.634 34.922C88.7467 34.7833 88.8593 34.714 88.972 34.714C89.0847 34.714 89.2233 34.805 89.388 34.987C89.5613 35.169 89.7607 35.364 89.986 35.572C90.2113 35.7887 90.324 35.936 90.324 36.014C90.324 36.1007 90.22 36.144 90.012 36.144H79.287C79.0963 36.144 78.9447 36.1657 78.832 36.209L78.559 35.598C78.6977 35.6413 78.871 35.663 79.079 35.663H80.756V30.19C80.756 29.7567 80.7473 29.371 80.73 29.033C81.094 29.1283 81.432 29.2323 81.744 29.345C82.056 29.4577 82.238 29.5313 82.29 29.566C82.3507 29.6007 82.381 29.644 82.381 29.696C82.381 29.8 82.2293 29.93 81.926 30.086V35.663H84.084V26.732H80.002C79.8113 26.732 79.6597 26.7537 79.547 26.797L79.274 26.186C79.4127 26.2293 79.586 26.251 79.794 26.251H87.685L88.205 25.523C88.2917 25.4017 88.3913 25.341 88.504 25.341C88.6253 25.341 88.894 25.51 89.31 25.848C89.7347 26.1773 89.947 26.407 89.947 26.537C89.947 26.667 89.8603 26.732 89.687 26.732H85.293V30.58ZM101.569 25.146C102.219 25.302 102.635 25.4147 102.817 25.484C102.999 25.5447 103.09 25.6097 103.09 25.679C103.09 25.7397 102.96 25.8307 102.7 25.952V35.442C102.7 35.754 102.644 35.988 102.531 36.144C102.418 36.3 102.206 36.4603 101.894 36.625C101.591 36.7983 101.391 36.885 101.296 36.885C101.209 36.885 101.153 36.8287 101.127 36.716C101.023 36.378 100.832 36.1093 100.555 35.91C100.286 35.7193 99.9137 35.559 99.437 35.429L99.502 35.143C100.386 35.2903 100.932 35.364 101.14 35.364C101.357 35.364 101.487 35.338 101.53 35.286C101.573 35.234 101.595 35.143 101.595 35.013V26.316C101.595 25.8653 101.586 25.4753 101.569 25.146ZM93.327 30.164C92.8503 30.7707 92.2307 31.4207 91.468 32.114L91.299 31.971C92.001 31.1303 92.6553 30.0687 93.262 28.786C93.8773 27.4947 94.315 26.2813 94.575 25.146C95.355 25.3453 95.8187 25.4753 95.966 25.536C96.1133 25.588 96.187 25.6573 96.187 25.744C96.187 25.822 96.1263 25.8783 96.005 25.913C95.8837 25.939 95.7927 25.9867 95.732 26.056C95.6713 26.1167 95.5933 26.2423 95.498 26.433C96.3387 26.6843 96.9627 26.8967 97.37 27.07C97.7773 27.2347 98.0547 27.4037 98.202 27.577C98.358 27.7503 98.436 27.9497 98.436 28.175C98.436 28.3917 98.3797 28.5823 98.267 28.747C98.163 28.903 98.059 28.981 97.955 28.981C97.8597 28.981 97.786 28.9637 97.734 28.929C97.6907 28.8857 97.5997 28.7557 97.461 28.539C97.331 28.3223 97.058 28.0407 96.642 27.694C96.2347 27.3387 95.8013 27.031 95.342 26.771C94.9347 27.6983 94.432 28.5997 93.834 29.475C94.042 29.553 94.237 29.6613 94.419 29.8H96.395L96.746 29.397C96.8067 29.3277 96.8673 29.293 96.928 29.293C96.9887 29.293 97.1447 29.3667 97.396 29.514C97.6473 29.6613 97.838 29.7827 97.968 29.878C98.1067 29.9733 98.176 30.0427 98.176 30.086C98.176 30.164 97.9983 30.2853 97.643 30.45C97.6517 30.9787 97.643 31.5247 97.617 32.088C97.5997 32.6427 97.5737 32.9937 97.539 33.141C97.513 33.2797 97.4393 33.4097 97.318 33.531C97.2053 33.6523 97.0103 33.7823 96.733 33.921C96.4557 34.051 96.2867 34.116 96.226 34.116C96.174 34.116 96.1263 34.0597 96.083 33.947C95.9703 33.6697 95.8577 33.4877 95.745 33.401C95.641 33.3057 95.3723 33.1627 94.939 32.972L94.965 32.725C95.485 32.803 95.836 32.842 96.018 32.842C96.2 32.842 96.3213 32.8247 96.382 32.79C96.4427 32.7467 96.486 32.673 96.512 32.569C96.538 32.465 96.5597 32.1617 96.577 31.659C96.603 31.1563 96.6073 30.658 96.59 30.164H94.354V35.312C94.354 35.494 94.4407 35.6153 94.614 35.676C94.7873 35.7453 95.1297 35.78 95.641 35.78C96.1523 35.78 96.5727 35.7583 96.902 35.715C97.2313 35.6717 97.4437 35.6197 97.539 35.559C97.6343 35.507 97.7123 35.403 97.773 35.247C97.8423 35.0997 97.9073 34.8743 97.968 34.571C98.0287 34.259 98.0893 33.8257 98.15 33.271H98.41C98.384 33.895 98.41 34.3413 98.488 34.61C98.566 34.8787 98.7133 35.0953 98.93 35.26C99.0427 35.338 99.099 35.416 99.099 35.494C99.099 35.624 98.969 35.8277 98.709 36.105C98.4577 36.391 98.124 36.5643 97.708 36.625C97.292 36.6943 96.6073 36.729 95.654 36.729C94.9 36.729 94.3757 36.677 94.081 36.573C93.7863 36.4777 93.587 36.352 93.483 36.196C93.379 36.0487 93.327 35.793 93.327 35.429V30.164ZM99.294 27.265C100.256 27.5423 100.737 27.7417 100.737 27.863C100.737 27.9497 100.598 28.0277 100.321 28.097V32.062L100.347 33.206C100.347 33.3187 100.317 33.4053 100.256 33.466C100.195 33.5267 100.07 33.6003 99.879 33.687C99.6883 33.7737 99.5367 33.817 99.424 33.817C99.3373 33.817 99.294 33.7347 99.294 33.57L99.32 32.062V28.318C99.32 27.9193 99.3113 27.5683 99.294 27.265ZM107.562 27.07C107.467 26.9747 107.397 26.7927 107.354 26.524C107.311 26.2467 107.228 26.0083 107.107 25.809C106.994 25.601 106.847 25.3887 106.665 25.172L106.795 25.003C107.324 25.1937 107.735 25.4147 108.03 25.666C108.333 25.9173 108.485 26.134 108.485 26.316C108.485 26.55 108.359 26.8013 108.108 27.07H108.966L109.395 26.459C109.464 26.3637 109.525 26.316 109.577 26.316C109.638 26.316 109.729 26.3593 109.85 26.446C109.971 26.5327 110.132 26.6627 110.331 26.836C110.53 27.0093 110.652 27.1263 110.695 27.187C110.747 27.2477 110.773 27.2997 110.773 27.343C110.773 27.4297 110.682 27.473 110.5 27.473H105.638C105.404 27.473 105.222 27.5033 105.092 27.564L104.858 27.005C105.04 27.0483 105.257 27.07 105.508 27.07H107.562ZM112.593 26.771C113.217 26.5543 114.123 26.0777 115.31 25.341C115.943 26.1383 116.259 26.5933 116.259 26.706C116.259 26.758 116.229 26.784 116.168 26.784C116.116 26.784 116.034 26.7623 115.921 26.719C115.808 26.6757 115.696 26.654 115.583 26.654C115.479 26.654 115.059 26.732 114.322 26.888C113.594 27.044 113.005 27.1393 112.554 27.174L112.463 29.696H114.673L115.258 28.968C115.336 28.8727 115.397 28.825 115.44 28.825C115.509 28.825 115.735 29.007 116.116 29.371C116.497 29.735 116.688 29.969 116.688 30.073C116.688 30.1337 116.601 30.164 116.428 30.164H114.777V35.364C114.777 35.7887 114.781 36.0833 114.79 36.248L114.803 36.716C114.803 36.7853 114.768 36.8417 114.699 36.885C114.638 36.937 114.487 37.0063 114.244 37.093C114.001 37.1883 113.845 37.236 113.776 37.236C113.715 37.236 113.685 37.1797 113.685 37.067V30.164H112.437C112.376 31.5593 112.311 32.4867 112.242 32.946C112.181 33.3967 112.069 33.83 111.904 34.246C111.739 34.662 111.484 35.0823 111.137 35.507C110.799 35.9317 110.288 36.4517 109.603 37.067L109.343 36.846C109.872 36.2827 110.266 35.767 110.526 35.299C110.795 34.831 110.99 34.298 111.111 33.7C111.232 33.0933 111.31 32.439 111.345 31.737C111.388 31.035 111.41 30.1077 111.41 28.955C111.41 27.8023 111.401 26.888 111.384 26.212C111.791 26.3593 112.194 26.5457 112.593 26.771ZM108.004 30.06C108.333 29.0893 108.559 28.253 108.68 27.551C109.287 27.8283 109.646 28.0017 109.759 28.071C109.88 28.1403 109.941 28.1967 109.941 28.24C109.941 28.2833 109.867 28.318 109.72 28.344C109.581 28.37 109.469 28.4653 109.382 28.63C109.295 28.786 108.988 29.2627 108.459 30.06H109.317L109.85 29.449C109.928 29.3623 109.997 29.319 110.058 29.319C110.127 29.319 110.331 29.475 110.669 29.787C111.016 30.0903 111.189 30.281 111.189 30.359C111.189 30.4283 111.089 30.463 110.89 30.463H108.29V31.763H109.018L109.395 31.152C109.456 31.048 109.512 30.996 109.564 30.996C109.625 30.996 109.759 31.074 109.967 31.23C110.184 31.3773 110.37 31.5247 110.526 31.672C110.691 31.8107 110.773 31.9147 110.773 31.984C110.773 32.1053 110.665 32.166 110.448 32.166H108.29V35.104C108.29 35.6067 108.255 35.9533 108.186 36.144C108.117 36.3347 107.926 36.5167 107.614 36.69C107.311 36.872 107.111 36.963 107.016 36.963C106.929 36.963 106.864 36.8937 106.821 36.755C106.752 36.495 106.652 36.3087 106.522 36.196C106.401 36.0833 106.119 35.9273 105.677 35.728V35.494C106.301 35.6067 106.704 35.663 106.886 35.663C107.068 35.663 107.181 35.6283 107.224 35.559C107.267 35.4897 107.289 35.3553 107.289 35.156V32.166H105.599C105.365 32.166 105.183 32.1963 105.053 32.257L104.819 31.698C105.001 31.7413 105.218 31.763 105.469 31.763H107.289V30.463H105.417C105.183 30.463 105.001 30.4933 104.871 30.554L104.637 29.995C104.819 30.0383 105.036 30.06 105.287 30.06H108.004ZM105.976 27.629C106.487 27.9843 106.83 28.2573 107.003 28.448C107.176 28.63 107.263 28.8163 107.263 29.007C107.263 29.1977 107.202 29.4013 107.081 29.618C106.96 29.8347 106.847 29.943 106.743 29.943C106.648 29.943 106.583 29.9127 106.548 29.852C106.513 29.7913 106.47 29.618 106.418 29.332C106.375 29.046 106.31 28.7903 106.223 28.565C106.136 28.3397 105.989 28.0797 105.781 27.785L105.976 27.629ZM105.859 32.439C106.11 32.5777 106.353 32.7207 106.587 32.868C106.821 33.0067 106.947 33.089 106.964 33.115C106.99 33.141 107.003 33.167 107.003 33.193C107.003 33.271 106.929 33.323 106.782 33.349C106.704 33.3663 106.639 33.401 106.587 33.453C106.535 33.4963 106.466 33.596 106.379 33.752C105.963 34.5147 105.313 35.3293 104.429 36.196L104.221 36.027C104.958 34.9003 105.504 33.7043 105.859 32.439ZM108.68 32.543C109.148 32.8203 109.555 33.0977 109.902 33.375C110.249 33.6437 110.422 33.882 110.422 34.09C110.422 34.298 110.344 34.519 110.188 34.753C110.041 34.987 109.906 35.104 109.785 35.104C109.672 35.104 109.586 34.9827 109.525 34.74C109.326 33.9687 108.988 33.3013 108.511 32.738L108.68 32.543Z" fill="#9A764E" fill-opacity="0.5"/>
</svg>
