<svg width="55" height="26" viewBox="0 0 55 26" fill="none" xmlns="http://www.w3.org/2000/svg">
<rect width="55" height="26" rx="5" fill="#9A764E" fill-opacity="0.5"/>
<path d="M14.394 11.652V8.278H7.688C7.436 8.278 7.24 8.31067 7.1 8.376L6.848 7.802C7.044 7.84867 7.27733 7.872 7.548 7.872H14.282L14.59 7.326C14.6833 7.17667 14.7767 7.102 14.87 7.102C14.9727 7.102 15.136 7.18133 15.36 7.34L16.004 7.788C16.2 7.928 16.298 8.05867 16.298 8.18C16.298 8.292 16.1113 8.41333 15.738 8.544V11.61C15.738 11.8713 15.7427 12.0627 15.752 12.184L15.766 12.534C15.766 12.6273 15.7147 12.7113 15.612 12.786C15.5187 12.8607 15.3227 12.954 15.024 13.066C14.7253 13.178 14.5433 13.234 14.478 13.234C14.422 13.234 14.394 13.1687 14.394 13.038V12.156H8.584V16.678C8.584 16.958 8.64933 17.1447 8.78 17.238C8.91067 17.3407 9.38667 17.4107 10.208 17.448C11.0293 17.4947 11.818 17.518 12.574 17.518C13.3393 17.518 14.0487 17.504 14.702 17.476C15.3553 17.448 15.7473 17.4107 15.878 17.364C16.018 17.3267 16.1347 17.2427 16.228 17.112C16.3307 16.9907 16.4193 16.8087 16.494 16.566C16.5687 16.314 16.634 15.9873 16.69 15.586C16.7553 15.1753 16.8253 14.6247 16.9 13.934H17.278C17.25 14.8113 17.278 15.502 17.362 16.006C17.4553 16.5007 17.642 16.8227 17.922 16.972C18.09 17.0467 18.174 17.1307 18.174 17.224C18.174 17.3173 18.0573 17.5273 17.824 17.854C17.5907 18.1807 17.32 18.3907 17.012 18.484C16.7133 18.5867 16.0927 18.6473 15.15 18.666C14.2167 18.6847 13.0593 18.694 11.678 18.694C10.2967 18.694 9.35867 18.6567 8.864 18.582C8.36933 18.5073 7.97733 18.3767 7.688 18.19C7.408 18.0033 7.268 17.602 7.268 16.986V11.4C7.268 10.7653 7.254 10.2427 7.226 9.832C7.87933 9.96267 8.36 10.0747 8.668 10.168C8.976 10.252 9.13 10.3267 9.13 10.392C9.13 10.476 8.948 10.602 8.584 10.77V11.652H14.394ZM27.112 9.972C27.8027 8.72133 28.3393 7.47533 28.722 6.234C29.1047 6.402 29.436 6.56533 29.716 6.724C30.0053 6.88267 30.178 6.98533 30.234 7.032C30.2993 7.07867 30.332 7.12533 30.332 7.172C30.332 7.20933 30.234 7.26067 30.038 7.326C29.8513 7.382 29.6833 7.51733 29.534 7.732C29.0953 8.35733 28.4887 9.104 27.714 9.972H29.73L30.332 9.02C30.4067 8.89867 30.4673 8.838 30.514 8.838C30.6073 8.838 30.8313 8.98733 31.186 9.286C31.55 9.57533 31.8067 9.79 31.956 9.93C32.1053 10.0607 32.18 10.1727 32.18 10.266C32.18 10.3593 32.0633 10.406 31.83 10.406H27.28C27.252 11.3487 27.196 12.184 27.112 12.912H30.71L31.354 11.988C31.438 11.8667 31.5127 11.806 31.578 11.806C31.718 11.806 31.9933 11.9973 32.404 12.38C32.8147 12.7627 33.02 13.0193 33.02 13.15C33.02 13.2713 32.908 13.332 32.684 13.332H27.63C28.078 14.6107 28.7453 15.6047 29.632 16.314C30.5187 17.014 31.732 17.5087 33.272 17.798V18.106C32.7213 18.0873 32.32 18.134 32.068 18.246C31.816 18.358 31.592 18.554 31.396 18.834C31.3493 18.8993 31.298 18.932 31.242 18.932C31.1207 18.932 30.7473 18.7033 30.122 18.246C29.506 17.7887 28.9693 17.196 28.512 16.468C28.064 15.74 27.6347 14.6947 27.224 13.332H27.056C26.8413 14.8347 26.3187 15.9967 25.488 16.818C24.6573 17.6393 23.164 18.4327 21.008 19.198L20.868 18.918C22.4827 18.1247 23.6587 17.3127 24.396 16.482C25.1333 15.6513 25.5907 14.6013 25.768 13.332H21.834C21.582 13.332 21.386 13.3647 21.246 13.43L20.994 12.842C21.19 12.8887 21.4233 12.912 21.694 12.912H25.81C25.866 12.4267 25.894 11.9647 25.894 11.526C25.894 11.078 25.8893 10.7047 25.88 10.406H22.338C22.086 10.406 21.89 10.4387 21.75 10.504L21.498 9.902C21.694 9.94867 21.9273 9.972 22.198 9.972H27.112ZM23.248 6.584C23.976 6.948 24.5127 7.24667 24.858 7.48C25.2127 7.71333 25.446 7.91867 25.558 8.096C25.67 8.264 25.726 8.488 25.726 8.768C25.726 9.048 25.6467 9.29533 25.488 9.51C25.3293 9.71533 25.1893 9.818 25.068 9.818C24.9467 9.818 24.8673 9.79467 24.83 9.748C24.7927 9.692 24.704 9.468 24.564 9.076C24.4333 8.67467 24.2607 8.32 24.046 8.012C23.8313 7.69467 23.5093 7.29333 23.08 6.808L23.248 6.584ZM42.35 6.22C43.0127 6.54667 43.5307 6.85 43.904 7.13C44.2867 7.41 44.478 7.67133 44.478 7.914C44.478 8.14733 44.3893 8.39467 44.212 8.656C44.0347 8.91733 43.8107 9.048 43.54 9.048C43.4747 9.048 43.4233 9.02933 43.386 8.992C43.3487 8.94533 43.2787 8.73067 43.176 8.348C43.0827 7.96533 42.9613 7.634 42.812 7.354C42.6627 7.074 42.4573 6.766 42.196 6.43L42.35 6.22ZM37.31 6.444C38.2247 6.82667 38.8453 7.13933 39.172 7.382C39.508 7.62467 39.676 7.858 39.676 8.082C39.676 8.29667 39.6013 8.56267 39.452 8.88C39.3027 9.188 39.13 9.342 38.934 9.342C38.85 9.342 38.7847 9.314 38.738 9.258C38.7007 9.202 38.64 9.06667 38.556 8.852C38.2107 7.956 37.7627 7.228 37.212 6.668L37.31 6.444ZM42.98 9.86H40.95C40.7167 9.86 40.5393 9.888 40.418 9.944L40.194 9.37C40.3713 9.41667 40.5813 9.44 40.824 9.44H45.99L46.606 8.6C46.6807 8.488 46.7507 8.432 46.816 8.432C46.9093 8.432 47.1893 8.628 47.656 9.02C48.132 9.40267 48.37 9.64067 48.37 9.734C48.37 9.818 48.2673 9.86 48.062 9.86H44.31V13.108H45.836L46.396 12.38C46.48 12.268 46.564 12.212 46.648 12.212C46.7413 12.212 46.97 12.4033 47.334 12.786C47.7073 13.1687 47.894 13.402 47.894 13.486C47.894 13.57 47.8053 13.612 47.628 13.612H44.31V17.616H46.382L46.956 16.762C47.04 16.6313 47.124 16.566 47.208 16.566C47.3013 16.566 47.5487 16.7667 47.95 17.168C48.3513 17.5693 48.552 17.8213 48.552 17.924C48.552 18.0267 48.4633 18.078 48.286 18.078H39.732C39.4987 18.078 39.3213 18.106 39.2 18.162L38.976 17.546C39.1533 17.5927 39.3633 17.616 39.606 17.616H42.98V13.612H40.88C40.6467 13.612 40.4693 13.64 40.348 13.696L40.124 13.038C40.3013 13.0847 40.5113 13.108 40.754 13.108H42.98V9.86ZM40.334 8.768L38.99 12.898C38.5607 14.1953 38.346 15.32 38.346 16.272C38.346 16.692 38.374 17.098 38.43 17.49C38.486 17.882 38.514 18.1667 38.514 18.344C38.514 18.9227 38.3413 19.212 37.996 19.212C37.66 19.212 37.3893 19.114 37.184 18.918C36.9787 18.722 36.876 18.4887 36.876 18.218C36.876 18.162 36.8807 18.1107 36.89 18.064C37.0767 17.0093 37.17 16.2907 37.17 15.908C37.17 15.6747 37.072 15.4927 36.876 15.362C36.6893 15.2313 36.26 15.0773 35.588 14.9L35.616 14.578C36.1293 14.6433 36.5073 14.676 36.75 14.676C37.002 14.676 37.1933 14.6153 37.324 14.494C37.4547 14.3727 37.604 14.1253 37.772 13.752L40.082 8.656L40.334 8.768ZM35.924 9.384C36.6893 9.67333 37.2773 9.958 37.688 10.238C38.108 10.5087 38.318 10.7933 38.318 11.092C38.318 11.2787 38.2387 11.5027 38.08 11.764C37.9307 12.0253 37.7487 12.156 37.534 12.156C37.45 12.156 37.3847 12.128 37.338 12.072C37.2913 12.016 37.226 11.8807 37.142 11.666C36.862 10.9007 36.414 10.224 35.798 9.636L35.924 9.384Z" fill="white"/>
</svg>
