<svg width="146" height="42" viewBox="0 0 146 42" fill="none" xmlns="http://www.w3.org/2000/svg">
<path d="M9.81132 7.12H13.0213L13.6513 6.205C13.7113 6.115 13.7713 6.07 13.8313 6.07C13.9413 6.07 14.2213 6.27 14.6713 6.67C15.1213 7.07 15.3463 7.33 15.3463 7.45C15.3463 7.52 15.2263 7.555 14.9863 7.555H9.57132C8.98132 8.575 8.22632 9.585 7.30632 10.585L7.08132 10.375C8.02132 8.855 8.77132 6.9 9.33132 4.51C9.67132 4.65 10.0063 4.805 10.3363 4.975C10.6763 5.145 10.8713 5.255 10.9213 5.305C10.9813 5.355 11.0113 5.41 11.0113 5.47C11.0113 5.52 10.9363 5.56 10.7863 5.59C10.6463 5.62 10.5213 5.745 10.4113 5.965C10.3113 6.185 10.1113 6.57 9.81132 7.12ZM3.66132 4.69C4.89132 5.39 5.50632 6.05 5.50632 6.67C5.50632 6.89 5.41132 7.11 5.22132 7.33C5.03132 7.55 4.86132 7.66 4.71132 7.66C4.56132 7.66 4.46132 7.63 4.41132 7.57C4.36132 7.51 4.32132 7.34 4.29132 7.06C4.27132 6.78 4.18132 6.425 4.02132 5.995C3.87132 5.555 3.69632 5.18 3.49632 4.87L3.66132 4.69ZM8.41632 11.71V11.185C8.41632 10.505 8.40132 9.945 8.37132 9.505C8.64132 9.575 8.93632 9.67 9.25632 9.79C9.57632 9.91 9.76632 9.99 9.82632 10.03C9.88632 10.06 9.91632 10.09 9.91632 10.12C9.91632 10.18 9.78132 10.3 9.51132 10.48V11.23L10.6213 10.735V9.955C10.6213 9.095 10.6113 8.465 10.5913 8.065C11.0213 8.185 11.3713 8.305 11.6413 8.425C11.9213 8.535 12.0613 8.615 12.0613 8.665C12.0613 8.725 11.9363 8.83 11.6863 8.98V10.27L13.0063 9.685L13.2463 9.19C13.3063 9.07 13.3713 9.01 13.4413 9.01C13.5113 9.01 13.7063 9.09 14.0263 9.25C14.3563 9.41 14.5613 9.525 14.6413 9.595C14.7313 9.655 14.7763 9.735 14.7763 9.835C14.7763 9.935 14.6163 10.11 14.2963 10.36C14.2863 10.93 14.2513 11.635 14.1913 12.475C14.1413 13.305 14.0913 13.845 14.0413 14.095C14.0013 14.335 13.9213 14.52 13.8013 14.65C13.6913 14.78 13.5063 14.92 13.2463 15.07C12.9963 15.21 12.8313 15.28 12.7513 15.28C12.6313 15.28 12.5363 15.18 12.4663 14.98C12.3963 14.77 12.3113 14.61 12.2113 14.5C12.1113 14.39 11.9363 14.28 11.6863 14.17V14.32C11.6863 14.6 11.6913 14.83 11.7013 15.01L11.7313 15.475C11.7313 15.525 11.7163 15.565 11.6863 15.595C11.6563 15.625 11.5613 15.685 11.4013 15.775C11.2513 15.855 11.1013 15.92 10.9513 15.97C10.8113 16.01 10.7163 16.03 10.6663 16.03C10.6163 16.03 10.5913 15.98 10.5913 15.88L10.6063 15.1C10.6163 14.88 10.6213 14.595 10.6213 14.245V11.305L9.51132 11.8V16.15C9.51132 16.53 9.59632 16.76 9.76632 16.84C9.93632 16.92 10.5313 16.96 11.5513 16.96C12.9013 16.96 13.7013 16.86 13.9513 16.66C14.2113 16.46 14.4413 15.675 14.6413 14.305H15.0013C14.9613 14.805 14.9413 15.21 14.9413 15.52C14.9413 15.82 14.9663 16.035 15.0163 16.165C15.0763 16.305 15.1713 16.425 15.3013 16.525C15.4313 16.625 15.4963 16.705 15.4963 16.765C15.4963 16.885 15.3963 17.105 15.1963 17.425C14.9963 17.745 14.5613 17.94 13.8913 18.01C13.2313 18.09 12.5213 18.13 11.7613 18.13C11.0113 18.13 10.3463 18.095 9.76632 18.025C9.19632 17.955 8.82632 17.815 8.65632 17.605C8.49632 17.395 8.41632 17.05 8.41632 16.57V12.28L8.05632 12.445C7.71632 12.605 7.49632 12.745 7.39632 12.865L6.99132 12.445C6.98132 13.405 6.95132 14.325 6.90132 15.205C6.85132 16.075 6.80132 16.645 6.75132 16.915C6.70132 17.185 6.60132 17.395 6.45132 17.545C6.31132 17.705 6.07632 17.87 5.74632 18.04C5.42632 18.21 5.22132 18.295 5.13132 18.295C5.05132 18.295 4.98132 18.2 4.92132 18.01C4.81132 17.69 4.68632 17.465 4.54632 17.335C4.41632 17.215 4.13632 17.085 3.70632 16.945L3.75132 16.69C4.26132 16.79 4.65132 16.84 4.92132 16.84C5.19132 16.84 5.36632 16.73 5.44632 16.51C5.53632 16.3 5.61132 15.63 5.67132 14.5C5.73132 13.37 5.76132 12.165 5.76132 10.885H4.62132C4.55132 12.455 4.41132 13.65 4.20132 14.47C3.99132 15.29 3.62632 16.035 3.10632 16.705C2.59632 17.375 2.05132 17.93 1.47132 18.37L1.29132 18.175C2.08132 17.315 2.63632 16.275 2.95632 15.055C3.28632 13.835 3.45132 12.045 3.45132 9.685C3.45132 9.225 3.44632 8.735 3.43632 8.215H2.31132C2.04132 8.215 1.83132 8.25 1.68132 8.32L1.41132 7.69C1.62132 7.74 1.87132 7.765 2.16132 7.765H6.04632L6.64632 7.015C6.71632 6.925 6.77632 6.88 6.82632 6.88C6.90632 6.88 7.13632 7.06 7.51632 7.42C7.89632 7.77 8.08632 7.99 8.08632 8.08C8.08632 8.17 7.99132 8.215 7.80132 8.215H4.69632C4.67632 9.235 4.65632 9.98 4.63632 10.45H5.82132L6.09132 10.06C6.15132 9.98 6.20632 9.94 6.25632 9.94C6.30632 9.94 6.42132 10 6.60132 10.12C6.78132 10.24 6.97632 10.38 7.18632 10.54C7.39632 10.69 7.50132 10.79 7.50132 10.84C7.50132 10.93 7.33632 11.06 7.00632 11.23C7.00632 11.7 7.00132 12.055 6.99132 12.295C7.14132 12.245 7.37132 12.155 7.68132 12.025L8.41632 11.71ZM11.6863 10.825V13.87C11.9963 13.95 12.2463 13.99 12.4363 13.99C12.6263 13.99 12.7463 13.91 12.7963 13.75C12.8563 13.58 12.9113 13.095 12.9613 12.295C13.0113 11.495 13.0413 10.8 13.0513 10.21L11.6863 10.825ZM18.9463 7.165H17.3113C17.0413 7.165 16.8313 7.195 16.6813 7.255L16.4113 6.685C16.6213 6.735 16.8713 6.76 17.1613 6.76H20.9263L21.5713 5.875C21.6513 5.765 21.7163 5.71 21.7663 5.71C21.8563 5.71 22.0863 5.91 22.4563 6.31C22.8263 6.71 23.0113 6.955 23.0113 7.045C23.0113 7.125 22.9413 7.165 22.8013 7.165H20.2213V10.84H20.6863L21.1963 10.15C21.2663 10.06 21.3313 10.015 21.3913 10.015C21.4613 10.015 21.5213 10.04 21.5713 10.09C21.6313 10.13 21.7413 10.27 21.9013 10.51C22.0713 10.74 22.1713 10.89 22.2013 10.96C22.9513 10 23.6063 8.925 24.1663 7.735C24.7363 6.535 25.0963 5.485 25.2463 4.585C25.9563 4.865 26.4213 5.06 26.6413 5.17C26.8713 5.28 26.9863 5.355 26.9863 5.395C26.9863 5.455 26.8813 5.525 26.6713 5.605C26.4613 5.675 26.3313 5.745 26.2813 5.815C26.8313 7.035 27.4413 7.985 28.1113 8.665C28.7813 9.345 29.6363 9.89 30.6763 10.3L30.6463 10.54C30.3163 10.53 30.0413 10.555 29.8213 10.615C29.6013 10.665 29.3563 10.81 29.0863 11.05C29.0263 11.1 28.9763 11.125 28.9363 11.125C28.7763 11.125 28.3813 10.735 27.7513 9.955C27.1213 9.165 26.5563 7.93 26.0563 6.25C24.9663 8.65 23.5463 10.53 21.7963 11.89L21.5713 11.695C21.6613 11.605 21.7913 11.46 21.9613 11.26H20.2213V14.62L22.5313 14.08L22.6363 14.305L19.5313 15.7C18.2913 16.26 17.6213 16.575 17.5213 16.645C17.4313 16.715 17.3663 16.75 17.3263 16.75C17.2863 16.75 17.2563 16.735 17.2363 16.705C17.2163 16.685 17.1213 16.545 16.9513 16.285C16.7813 16.035 16.6113 15.765 16.4413 15.475L18.9463 14.92V11.26H17.6563C17.4263 11.26 17.2163 11.295 17.0263 11.365L16.7563 10.765C16.9663 10.815 17.2163 10.84 17.5063 10.84H18.9463V7.165ZM25.7713 9.115C26.6913 9.655 27.1513 10.02 27.1513 10.21C27.1513 10.26 27.1263 10.3 27.0763 10.33C27.0363 10.36 26.9763 10.375 26.8963 10.375H26.6863C26.5463 10.375 26.4263 10.405 26.3263 10.465C26.2263 10.525 26.0863 10.645 25.9063 10.825C25.3263 11.405 24.7663 11.875 24.2263 12.235C23.6863 12.595 23.1163 12.94 22.5163 13.27L22.3813 13.075C23.1513 12.425 23.7563 11.845 24.1963 11.335C24.6463 10.825 25.1713 10.085 25.7713 9.115ZM27.0163 11.14C27.8863 11.69 28.3213 12.025 28.3213 12.145C28.3213 12.195 28.2613 12.22 28.1413 12.22L28.0363 12.205C27.9463 12.205 27.8563 12.24 27.7663 12.31C27.6763 12.38 27.5413 12.495 27.3613 12.655C26.2913 13.635 25.4263 14.31 24.7663 14.68C24.1163 15.05 23.4213 15.335 22.6813 15.535L22.5763 15.31C24.5463 14.15 26.0263 12.76 27.0163 11.14ZM28.6063 13.105C28.9663 13.415 29.2663 13.705 29.5063 13.975C29.7563 14.235 29.8813 14.4 29.8813 14.47C29.8813 14.53 29.7813 14.56 29.5813 14.56C29.3913 14.56 29.2463 14.585 29.1463 14.635C29.0563 14.685 28.8763 14.82 28.6063 15.04C27.9263 15.63 26.8413 16.29 25.3513 17.02C23.8713 17.75 22.4813 18.27 21.1813 18.58L21.1213 18.31C23.0713 17.45 24.5663 16.67 25.6063 15.97C26.6463 15.27 27.6463 14.315 28.6063 13.105Z" fill="#9A764E"/>
<path d="M7.26832 26.745C7.07765 26.0083 6.76132 25.4537 6.31932 25.081L6.43632 24.873C7.02565 25.0203 7.49799 25.1807 7.85332 25.354C8.20865 25.5187 8.38632 25.7483 8.38632 26.043C8.38632 26.3377 8.22165 26.5717 7.89232 26.745H11.3243L11.7143 26.316C11.8097 26.212 11.8877 26.16 11.9483 26.16C12.009 26.16 12.1433 26.2423 12.3513 26.407L12.8973 26.862C13.062 27.0007 13.1443 27.1177 13.1443 27.213C13.1443 27.2997 13.1227 27.369 13.0793 27.421C13.0447 27.473 13.01 27.5033 12.9753 27.512C12.9407 27.5207 12.8497 27.525 12.7023 27.525C12.5637 27.525 12.3773 27.5727 12.1433 27.668C11.9093 27.7633 11.4977 27.967 10.9083 28.279L10.7263 28.11C11.047 27.6333 11.2593 27.304 11.3633 27.122H3.74532C3.77132 27.6767 3.67165 28.11 3.44632 28.422C3.22965 28.734 2.96099 28.89 2.64032 28.89C2.44965 28.89 2.29365 28.8423 2.17232 28.747C2.05099 28.6517 1.99032 28.5347 1.99032 28.396C1.99032 28.2487 2.08132 28.1057 2.26332 27.967C2.59265 27.7157 2.83532 27.4427 2.99132 27.148C3.15599 26.8533 3.26432 26.4763 3.31632 26.017L3.57632 26.03C3.64565 26.3853 3.68899 26.6237 3.70632 26.745H7.26832ZM8.56832 30.19H4.00532C3.77132 30.19 3.58932 30.2203 3.45932 30.281L3.23832 29.748C3.05632 29.7913 2.91332 29.8303 2.80932 29.865L2.73132 29.618C4.22199 28.89 5.33565 28.1273 6.07232 27.33C6.83499 27.746 7.21632 28.019 7.21632 28.149C7.21632 28.227 7.11665 28.266 6.91732 28.266C6.78732 28.266 6.57065 28.344 6.26732 28.5C5.59132 28.8467 5.07132 29.098 4.70732 29.254C4.35199 29.4013 3.87532 29.5617 3.27732 29.735C3.45065 29.7697 3.64999 29.787 3.87532 29.787H10.6613L11.0253 29.293C11.112 29.1803 11.19 29.124 11.2593 29.124C11.3287 29.124 11.5193 29.267 11.8313 29.553C12.1433 29.839 12.2993 30.0167 12.2993 30.086C12.2993 30.1553 12.1823 30.19 11.9483 30.19H9.77732V32.153H11.2723L11.7403 31.542C11.8703 31.3687 11.9743 31.282 12.0523 31.282C12.1303 31.282 12.334 31.451 12.6633 31.789C12.9927 32.127 13.1573 32.335 13.1573 32.413C13.1573 32.491 13.062 32.53 12.8713 32.53H9.77732V35.728C9.77732 35.9967 9.75565 36.2003 9.71232 36.339C9.67765 36.4863 9.59099 36.612 9.45232 36.716C9.32232 36.82 9.10565 36.9283 8.80232 37.041C8.49899 37.1623 8.31265 37.223 8.24332 37.223C8.18265 37.223 8.12632 37.1493 8.07432 37.002C7.93565 36.664 7.77099 36.4257 7.58032 36.287C7.38965 36.157 6.98665 36.001 6.37132 35.819L6.39732 35.559C7.28132 35.6977 7.83599 35.767 8.06132 35.767C8.29532 35.767 8.43832 35.7453 8.49032 35.702C8.54232 35.6587 8.56832 35.5807 8.56832 35.468V32.647C7.20765 34.571 4.97599 35.975 1.87332 36.859L1.75632 36.638C4.31299 35.442 6.15465 34.0727 7.28132 32.53H4.68132L4.31732 32.946C4.23065 33.05 4.14832 33.102 4.07032 33.102C4.01832 33.102 3.88832 33.024 3.68032 32.868C3.47232 32.7033 3.26865 32.504 3.06932 32.27C3.32065 32.1747 3.49832 32.0923 3.60232 32.023C3.70632 31.945 3.79299 31.8453 3.86232 31.724L4.51232 30.619C4.58165 30.489 4.62932 30.3807 4.65532 30.294C4.81999 30.3373 5.06265 30.45 5.38332 30.632C5.71265 30.8053 5.87732 30.931 5.87732 31.009C5.87732 31.0783 5.72999 31.1303 5.43532 31.165L4.70732 32.153H8.56832V30.19ZM7.37232 27.512C8.09165 27.616 8.66799 27.7113 9.10132 27.798C9.53465 27.8847 9.87699 27.9757 10.1283 28.071C10.3883 28.1663 10.5617 28.266 10.6483 28.37C10.735 28.474 10.7783 28.643 10.7783 28.877C10.7783 29.2583 10.7047 29.449 10.5573 29.449C10.4967 29.449 10.436 29.4317 10.3753 29.397C10.3147 29.3623 10.1197 29.228 9.79032 28.994C9.46965 28.7513 9.11865 28.539 8.73732 28.357C8.36465 28.175 7.90532 27.9713 7.35932 27.746L7.37232 27.512ZM24.0773 27.902C23.8347 27.5467 23.501 27.1393 23.0763 26.68L23.1673 26.498C23.9387 26.8707 24.4977 27.161 24.8443 27.369C25.191 27.577 25.4163 27.7633 25.5203 27.928C25.6243 28.084 25.6763 28.266 25.6763 28.474C25.6763 28.682 25.6157 28.8857 25.4943 29.085C25.3817 29.2757 25.2647 29.371 25.1433 29.371C24.944 29.371 24.7967 29.2453 24.7013 28.994C24.6407 28.8207 24.5193 28.5867 24.3373 28.292C22.9247 28.422 21.915 28.5347 21.3083 28.63C20.7103 28.7167 20.3377 28.7947 20.1903 28.864C20.043 28.9247 19.9433 28.955 19.8913 28.955C19.848 28.955 19.8003 28.903 19.7483 28.799C19.705 28.695 19.6097 28.4133 19.4623 27.954C19.8437 27.876 20.121 27.772 20.2943 27.642C20.4763 27.512 20.7537 27.2 21.1263 26.706C21.5077 26.212 21.85 25.6487 22.1533 25.016C23.072 25.4927 23.5313 25.796 23.5313 25.926C23.5313 25.9953 23.462 26.0343 23.3233 26.043C23.1933 26.0517 23.0763 26.0863 22.9723 26.147C22.8683 26.2077 22.578 26.4243 22.1013 26.797C21.6333 27.161 21.2217 27.5207 20.8663 27.876L24.0773 27.902ZM17.4603 28.253H17.6423L18.1363 27.707C18.2057 27.6377 18.2707 27.603 18.3313 27.603C18.392 27.603 18.574 27.746 18.8773 28.032C19.1893 28.318 19.3453 28.4957 19.3453 28.565C19.3453 28.6257 19.289 28.656 19.1763 28.656H17.4603V29.748C18.0583 29.9473 18.457 30.1207 18.6563 30.268C18.8643 30.4153 18.9683 30.5887 18.9683 30.788C18.9683 30.9873 18.9033 31.165 18.7733 31.321C18.6433 31.477 18.522 31.555 18.4093 31.555C18.2967 31.555 18.2187 31.5333 18.1753 31.49C18.1407 31.4467 18.106 31.334 18.0713 31.152C17.976 30.7187 17.7723 30.3503 17.4603 30.047V36.209C17.4603 36.3303 17.4343 36.417 17.3823 36.469C17.339 36.521 17.196 36.599 16.9533 36.703C16.7107 36.8157 16.5547 36.872 16.4853 36.872C16.416 36.872 16.3813 36.8287 16.3813 36.742L16.4073 36.027C16.416 35.7237 16.4203 35.3857 16.4203 35.013V31.438C15.9697 32.5127 15.2937 33.5397 14.3923 34.519L14.2103 34.376C15.0857 32.9893 15.7963 31.0827 16.3423 28.656H15.1203C14.895 28.656 14.7087 28.6777 14.5613 28.721L14.3403 28.188C14.5223 28.2313 14.739 28.253 14.9903 28.253H16.4203V26.654C16.4203 26.108 16.4073 25.6313 16.3813 25.224C17.4473 25.4407 17.9803 25.5923 17.9803 25.679C17.9803 25.7397 17.807 25.8393 17.4603 25.978V28.253ZM20.7493 28.968C21.5293 29.358 21.9193 29.605 21.9193 29.709C21.9193 29.761 21.8413 29.8043 21.6853 29.839C21.5293 29.865 21.3517 29.9777 21.1523 30.177C20.329 31.0003 19.4797 31.698 18.6043 32.27L18.4353 32.101C19.3887 31.2083 20.16 30.164 20.7493 28.968ZM22.6993 29.267C23.566 29.4663 24.2247 29.6613 24.6753 29.852C25.1347 30.034 25.438 30.2117 25.5853 30.385C25.7413 30.5583 25.8193 30.762 25.8193 30.996C25.8193 31.2213 25.7803 31.4077 25.7023 31.555C25.633 31.7023 25.5507 31.776 25.4553 31.776C25.3687 31.776 25.2993 31.7587 25.2473 31.724C25.204 31.6807 25.113 31.5723 24.9743 31.399C24.4023 30.6883 23.6093 30.047 22.5953 29.475L22.6993 29.267ZM20.9183 32.725C20.3723 33.3663 19.4797 34.1203 18.2403 34.987L18.1103 34.831C19.3497 33.6783 20.3593 32.2353 21.1393 30.502C21.5207 30.6147 21.824 30.7273 22.0493 30.84C22.2747 30.944 22.3873 31.0133 22.3873 31.048C22.3873 31.0913 22.3397 31.126 22.2443 31.152C22.1577 31.1693 22.0883 31.204 22.0363 31.256C21.993 31.308 21.915 31.4163 21.8023 31.581H23.4793L23.8173 31.178C23.8693 31.1173 23.9257 31.087 23.9863 31.087C24.047 31.087 24.1727 31.1607 24.3633 31.308C24.554 31.4467 24.7317 31.5853 24.8963 31.724C25.061 31.8627 25.1433 31.9537 25.1433 31.997C25.1433 32.049 25.0783 32.0837 24.9483 32.101C24.827 32.1183 24.7273 32.1573 24.6493 32.218C24.58 32.2787 24.515 32.374 24.4543 32.504C24.0383 33.3967 23.5833 34.103 23.0893 34.623C24.0513 35.2643 25.217 35.6717 26.5863 35.845V36.066C26.231 36.092 25.945 36.1527 25.7283 36.248C25.5117 36.352 25.3513 36.534 25.2473 36.794C25.2127 36.8807 25.1433 36.924 25.0393 36.924C25.0047 36.924 24.9657 36.9153 24.9223 36.898C24.879 36.8807 24.6623 36.7637 24.2723 36.547C23.8823 36.3303 23.5313 36.118 23.2193 35.91C22.9073 35.702 22.63 35.4853 22.3873 35.26C21.486 35.988 20.082 36.5687 18.1753 37.002L18.0843 36.729C19.6443 36.235 20.8923 35.546 21.8283 34.662C21.421 34.1333 21.1177 33.4877 20.9183 32.725ZM21.5423 31.945C21.3257 32.231 21.2 32.3913 21.1653 32.426C21.486 33.0673 21.889 33.6177 22.3743 34.077C22.877 33.4617 23.28 32.751 23.5833 31.945H21.5423ZM32.6053 27.564C31.4527 27.7287 30.04 27.8283 28.3673 27.863V27.564C30.2047 27.3127 31.8557 27.0007 33.3203 26.628C34.7937 26.2553 35.8727 25.874 36.5573 25.484C37.4153 26.2207 37.8443 26.6583 37.8443 26.797C37.8443 26.8577 37.814 26.888 37.7533 26.888C37.6927 26.888 37.619 26.8793 37.5323 26.862C37.4457 26.8447 37.3113 26.836 37.1293 26.836C36.9473 26.836 36.7783 26.849 36.6223 26.875L35.4003 27.096C34.7243 27.226 34.2043 27.317 33.8403 27.369V30.619H37.3633L38.0003 29.826C38.0697 29.7393 38.139 29.696 38.2083 29.696C38.2863 29.696 38.5247 29.8867 38.9233 30.268C39.322 30.6493 39.5213 30.8747 39.5213 30.944C39.5213 31.0133 39.4347 31.048 39.2613 31.048H33.8403V35.481C33.8403 35.767 33.849 36.0703 33.8663 36.391L33.8793 36.833C33.8793 36.9023 33.849 36.9543 33.7883 36.989C33.7363 37.0323 33.5457 37.106 33.2163 37.21C32.8957 37.314 32.705 37.366 32.6443 37.366C32.5923 37.366 32.5663 37.2967 32.5663 37.158L32.5923 36.651C32.601 36.3043 32.6053 35.9143 32.6053 35.481V31.048H27.9123C27.6783 31.048 27.4963 31.0783 27.3663 31.139L27.1323 30.554C27.3143 30.5973 27.531 30.619 27.7823 30.619H32.6053V27.564ZM43.9153 27.226H49.7133L50.2983 26.394C50.3677 26.29 50.4283 26.238 50.4803 26.238C50.5323 26.238 50.6363 26.2987 50.7923 26.42C50.957 26.5413 51.152 26.6973 51.3773 26.888C51.6027 27.0787 51.7543 27.2173 51.8323 27.304C51.919 27.3907 51.9623 27.46 51.9623 27.512C51.9623 27.6073 51.9017 27.655 51.7803 27.655H47.5813V29.93H49.0633L49.5963 29.163C49.6657 29.0763 49.722 29.033 49.7653 29.033C49.8173 29.033 49.917 29.0893 50.0643 29.202C50.2203 29.306 50.398 29.449 50.5973 29.631C50.8053 29.813 50.931 29.9387 50.9743 30.008C51.0177 30.0687 51.0393 30.1293 51.0393 30.19C51.0393 30.32 50.9743 30.385 50.8443 30.385H47.5813V32.881H50.6493L51.2343 32.101C51.295 32.023 51.3687 31.984 51.4553 31.984C51.5507 31.984 51.7933 32.1703 52.1833 32.543C52.582 32.907 52.7813 33.128 52.7813 33.206C52.7813 33.284 52.7077 33.323 52.5603 33.323H47.5813C47.5813 34.415 47.5857 35.1733 47.5943 35.598L47.6203 36.755C47.6203 36.8157 47.5987 36.8677 47.5553 36.911C47.512 36.9543 47.3387 37.0323 47.0353 37.145C46.732 37.2577 46.5457 37.314 46.4763 37.314C46.4157 37.314 46.3853 37.2447 46.3853 37.106L46.4113 35.793C46.42 35.3163 46.4243 34.493 46.4243 33.323H41.3023C41.0683 33.323 40.8863 33.3533 40.7563 33.414L40.5223 32.816C40.7043 32.8593 40.921 32.881 41.1723 32.881H43.0183V30.593C43.0183 29.9517 43.0097 29.566 42.9923 29.436C43.495 29.5833 43.937 29.748 44.3183 29.93H46.4243V27.655H43.6293C43.144 28.4263 42.6933 29.0373 42.2773 29.488C41.87 29.9387 41.3327 30.4327 40.6653 30.97L40.4703 30.762C41.8483 29.2887 42.8623 27.3777 43.5123 25.029C44.2143 25.3063 44.6607 25.51 44.8513 25.64C45.042 25.7613 45.1373 25.8653 45.1373 25.952C45.1373 26.03 45.0637 26.0777 44.9163 26.095C44.7777 26.1123 44.6563 26.1773 44.5523 26.29C44.4483 26.4027 44.236 26.7147 43.9153 27.226ZM46.4243 30.385H44.1493V32.881H46.4243V30.385ZM57.6953 28.396L57.5263 30.463H62.8173L63.0643 30.06C63.1163 29.9733 63.177 29.93 63.2463 29.93C63.3243 29.93 63.5237 30.0383 63.8443 30.255C64.1737 30.463 64.3947 30.6017 64.5073 30.671C64.62 30.7317 64.6763 30.8053 64.6763 30.892C64.6763 30.97 64.4727 31.1087 64.0653 31.308C63.8747 33.284 63.7403 34.5017 63.6623 34.961C63.5843 35.4117 63.437 35.8233 63.2203 36.196C63.0037 36.5773 62.6657 36.8547 62.2063 37.028C61.7557 37.2013 61.461 37.288 61.3223 37.288C61.2183 37.288 61.136 37.1883 61.0753 36.989C60.98 36.6857 60.8153 36.4473 60.5813 36.274C60.3473 36.1007 59.8967 35.9057 59.2293 35.689L59.2943 35.39C60.2217 35.5807 60.863 35.676 61.2183 35.676C61.5737 35.676 61.825 35.6283 61.9723 35.533C62.1283 35.4377 62.2453 35.273 62.3233 35.039C62.41 34.805 62.501 34.3283 62.5963 33.609C62.7003 32.881 62.774 31.9667 62.8173 30.866H57.6563L57.3833 31.282C57.314 31.3947 57.2403 31.451 57.1623 31.451C57.0843 31.451 56.8807 31.3687 56.5513 31.204C56.2307 31.0307 55.9707 30.8747 55.7713 30.736C56.0227 30.58 56.183 30.463 56.2523 30.385C56.3217 30.2983 56.3607 30.1813 56.3693 30.034L56.6033 26.29C56.6207 25.9953 56.6293 25.7613 56.6293 25.588C56.6293 25.4147 56.625 25.263 56.6163 25.133C56.9717 25.211 57.3573 25.328 57.7733 25.484C58.1893 25.6313 58.3973 25.757 58.3973 25.861C58.3973 25.9563 58.2283 26.056 57.8903 26.16L57.7343 27.967H62.8563L63.3893 27.096C63.4673 26.9747 63.5497 26.914 63.6363 26.914C63.7317 26.914 63.9917 27.1133 64.4163 27.512C64.8497 27.902 65.0663 28.149 65.0663 28.253C65.0663 28.3483 64.9537 28.396 64.7283 28.396H57.6953ZM59.9183 33.258L60.3993 32.478C60.4687 32.3653 60.564 32.309 60.6853 32.309C60.8067 32.309 61.058 32.491 61.4393 32.855C61.8207 33.2103 62.0113 33.4487 62.0113 33.57C62.0113 33.6393 61.9203 33.674 61.7383 33.674H54.2893C54.0553 33.674 53.8733 33.7043 53.7433 33.765L53.4963 33.193C53.6783 33.2363 53.895 33.258 54.1463 33.258H59.9183ZM73.3343 27.941H73.9583L73.8153 25.055C74.3353 25.1937 74.6993 25.302 74.9073 25.38C75.1153 25.458 75.2193 25.5273 75.2193 25.588C75.2193 25.6747 75.085 25.7873 74.8163 25.926C74.799 26.6367 74.799 27.3083 74.8163 27.941H76.3503L76.7663 27.434C76.8183 27.3647 76.866 27.33 76.9093 27.33C76.996 27.33 77.1997 27.4687 77.5203 27.746C77.841 28.0147 78.0013 28.1793 78.0013 28.24C78.0013 28.292 77.932 28.318 77.7933 28.318H74.8423C74.9203 29.6353 75.1067 30.749 75.4013 31.659C75.644 30.9483 75.8607 29.969 76.0513 28.721C76.944 29.0503 77.3903 29.267 77.3903 29.371C77.3903 29.4317 77.334 29.4793 77.2213 29.514C77.1087 29.54 77.022 29.6007 76.9613 29.696C76.9093 29.7827 76.8573 29.9127 76.8053 30.086C76.4587 31.1693 76.125 32.0143 75.8043 32.621C75.9083 32.7857 76.1033 32.998 76.3893 33.258C76.6753 33.518 76.853 33.648 76.9223 33.648C76.9917 33.648 77.0437 33.609 77.0783 33.531C77.1217 33.453 77.204 33.219 77.3253 32.829C77.4467 32.4303 77.5637 31.971 77.6763 31.451L77.8843 31.49C77.789 32.348 77.7413 32.972 77.7413 33.362C77.7413 33.752 77.8193 34.168 77.9753 34.61C78.0187 34.74 78.0403 34.8527 78.0403 34.948C78.0403 35.0433 77.9753 35.091 77.8453 35.091C77.7153 35.091 77.3903 34.961 76.8703 34.701C76.359 34.441 75.8433 34.0163 75.3233 33.427C74.812 34.181 73.9757 34.9003 72.8143 35.585L72.7103 35.403C73.7243 34.545 74.461 33.6697 74.9203 32.777C74.4523 31.815 74.1403 30.3287 73.9843 28.318H73.1393V32.881L74.4133 32.088L74.5433 32.257C73.8673 32.9503 73.421 33.4227 73.2043 33.674C72.9963 33.9253 72.8403 34.1507 72.7363 34.35C72.6843 34.454 72.6323 34.506 72.5803 34.506C72.459 34.506 72.225 34.233 71.8783 33.687C71.9997 33.5483 72.082 33.4183 72.1253 33.297C72.1773 33.1757 72.2033 32.9417 72.2033 32.595V28.578C72.2033 28.136 72.1903 27.7287 72.1643 27.356C72.563 27.5293 72.953 27.7243 73.3343 27.941ZM68.9273 27.863H67.4843C67.2503 27.863 67.0683 27.8933 66.9383 27.954L66.7043 27.369C66.8863 27.4123 67.103 27.434 67.3543 27.434H68.9273V26.29C68.9273 25.8567 68.9187 25.471 68.9013 25.133C69.3 25.2283 69.6467 25.328 69.9413 25.432C70.2447 25.536 70.3963 25.6183 70.3963 25.679C70.3963 25.731 70.2447 25.8047 69.9413 25.9V27.434H70.3833L70.7603 26.927C70.8037 26.8577 70.847 26.823 70.8903 26.823C70.9683 26.823 71.1677 26.966 71.4883 27.252C71.809 27.5293 71.9693 27.7027 71.9693 27.772C71.9693 27.8327 71.9087 27.863 71.7873 27.863H69.9413V29.683H70.4613L70.8773 29.15C70.912 29.098 70.951 29.072 70.9943 29.072C71.0723 29.072 71.263 29.2107 71.5663 29.488C71.8783 29.7567 72.0343 29.9257 72.0343 29.995C72.0343 30.0643 71.9737 30.099 71.8523 30.099H69.8633C70.3747 30.2637 70.6303 30.3893 70.6303 30.476C70.6303 30.528 70.509 30.593 70.2663 30.671V32.01H70.6303L70.9813 31.568C71.0333 31.5073 71.081 31.477 71.1243 31.477C71.1937 31.477 71.3713 31.6113 71.6573 31.88C71.9433 32.1487 72.0863 32.3133 72.0863 32.374C72.0863 32.426 71.9953 32.452 71.8133 32.452H70.2663V35.156C70.8123 35.416 71.6097 35.611 72.6583 35.741C73.707 35.871 74.7037 35.936 75.6483 35.936C76.6017 35.936 77.5463 35.8883 78.4823 35.793V36.04C78.0057 36.1527 77.698 36.261 77.5593 36.365C77.4207 36.469 77.3383 36.6033 77.3123 36.768C77.2863 36.9327 77.2517 37.0237 77.2083 37.041C77.165 37.067 77.0913 37.08 76.9873 37.08C76.5887 37.08 75.9387 37.0367 75.0373 36.95C74.136 36.872 73.3647 36.7767 72.7233 36.664C72.0907 36.56 71.5837 36.456 71.2023 36.352C70.8297 36.248 70.4613 36.0963 70.0973 35.897C69.7333 35.7063 69.3867 35.4637 69.0573 35.169C68.7367 34.8743 68.4507 34.5277 68.1993 34.129C67.9133 35.143 67.324 36.1137 66.4313 37.041L66.2753 36.885C66.8387 35.949 67.194 35.0953 67.3413 34.324C67.4973 33.5527 67.584 32.3957 67.6013 30.853C68.182 30.9743 68.5417 31.0653 68.6803 31.126C68.8277 31.1867 68.9013 31.243 68.9013 31.295C68.9013 31.347 68.858 31.3903 68.7713 31.425C68.6933 31.4597 68.6413 31.5073 68.6153 31.568C68.598 31.62 68.572 31.841 68.5373 32.231C68.5027 32.6123 68.4377 33.0587 68.3423 33.57C68.6283 33.9513 68.936 34.272 69.2653 34.532V31.1L69.2523 30.099H67.1723C66.9383 30.099 66.7563 30.1293 66.6263 30.19L66.3923 29.618C66.5743 29.6613 66.791 29.683 67.0423 29.683H68.9273V27.863ZM75.5703 25.549C76.151 25.7483 76.528 25.9303 76.7013 26.095C76.8747 26.2597 76.9613 26.4373 76.9613 26.628C76.9613 26.81 76.9007 26.9877 76.7793 27.161C76.658 27.3257 76.5497 27.408 76.4543 27.408C76.3677 27.408 76.2853 27.2953 76.2073 27.07C76.0513 26.654 75.93 26.3723 75.8433 26.225C75.7567 26.069 75.6353 25.8913 75.4793 25.692L75.5703 25.549ZM85.3723 26.745C85.1297 26.0517 84.757 25.5187 84.2543 25.146L84.3063 24.938C85.719 25.1547 86.4253 25.5013 86.4253 25.978C86.4253 26.0907 86.382 26.2293 86.2953 26.394C86.2087 26.55 86.1047 26.667 85.9833 26.745H89.5453L89.8573 26.238C89.9353 26.108 90.009 26.043 90.0783 26.043C90.1563 26.043 90.2603 26.0907 90.3903 26.186L90.9753 26.602C91.244 26.784 91.4 26.9053 91.4433 26.966C91.4953 27.0267 91.5213 27.0873 91.5213 27.148C91.5213 27.2953 91.3957 27.369 91.1443 27.369C90.9017 27.369 90.672 27.434 90.4553 27.564C90.2473 27.6853 89.8703 27.9843 89.3243 28.461L89.1683 28.331C89.3243 27.9583 89.4543 27.5727 89.5583 27.174H81.5893C81.5807 27.7113 81.429 28.1577 81.1343 28.513C80.8483 28.8683 80.5277 29.046 80.1723 29.046C79.9557 29.046 79.7953 28.994 79.6913 28.89C79.5873 28.786 79.5353 28.6733 79.5353 28.552C79.5353 28.422 79.6653 28.2703 79.9253 28.097C80.3933 27.7763 80.714 27.4817 80.8873 27.213C81.0607 26.9357 81.1907 26.5543 81.2773 26.069H81.5503C81.5763 26.3117 81.5893 26.537 81.5893 26.745H85.3723ZM83.2533 30.723C82.6467 31.4077 81.949 31.9537 81.1603 32.361L81.0043 32.192C81.9057 31.4467 82.612 30.398 83.1233 29.046C82.4647 29.4187 81.5113 29.7913 80.2633 30.164L80.1463 29.917C81.559 29.2063 82.7767 28.3527 83.7993 27.356C84.6053 27.7807 85.0083 28.0797 85.0083 28.253C85.0083 28.2877 84.9867 28.318 84.9433 28.344C84.9 28.3613 84.8393 28.37 84.7613 28.37L84.5533 28.357C84.3887 28.357 84.2023 28.4177 83.9943 28.539C83.795 28.6603 83.574 28.7903 83.3313 28.929C83.6173 29.0503 83.8687 29.1803 84.0853 29.319C84.3107 29.4577 84.4233 29.5487 84.4233 29.592C84.4233 29.644 84.3583 29.6873 84.2283 29.722C84.0637 29.7653 83.9337 29.8563 83.8383 29.995C83.743 30.1337 83.652 30.2507 83.5653 30.346H87.4523L87.9463 29.644C88.007 29.566 88.072 29.527 88.1413 29.527C88.2193 29.527 88.462 29.6873 88.8693 30.008C89.2767 30.3287 89.4803 30.528 89.4803 30.606C89.4803 30.684 89.3763 30.723 89.1683 30.723H86.0613V32.426H89.2203L89.8053 31.607C89.8747 31.5117 89.9527 31.464 90.0393 31.464C90.126 31.464 90.386 31.6503 90.8193 32.023C91.2527 32.3957 91.4693 32.6297 91.4693 32.725C91.4693 32.8117 91.361 32.855 91.1443 32.855H86.0613V35.611H88.4273V34.129C88.4273 33.7997 88.4187 33.57 88.4013 33.44C89.2247 33.622 89.6927 33.7347 89.8053 33.778C89.918 33.8213 89.9743 33.8733 89.9743 33.934C89.9743 33.986 89.8313 34.0857 89.5453 34.233V36.261L89.5843 36.872C89.5843 36.9327 89.5453 36.9803 89.4673 37.015C89.398 37.0497 89.242 37.106 88.9993 37.184C88.7567 37.262 88.6007 37.301 88.5313 37.301C88.462 37.301 88.4273 37.2533 88.4273 37.158V36.066H82.6553L82.3823 36.547C82.339 36.625 82.287 36.664 82.2263 36.664C82.1657 36.664 82.014 36.612 81.7713 36.508C81.5373 36.4127 81.299 36.287 81.0563 36.131C81.3077 35.9317 81.442 35.7887 81.4593 35.702C81.4853 35.6153 81.4983 35.4767 81.4983 35.286V33.999C81.4983 33.6697 81.4897 33.4357 81.4723 33.297C82.131 33.4183 82.534 33.5007 82.6813 33.544C82.8287 33.5873 82.9023 33.6393 82.9023 33.7C82.9023 33.7607 82.781 33.8387 82.5383 33.934V35.611H84.9433V32.855H80.3803C80.1637 32.855 79.9773 32.8767 79.8213 32.92L79.6003 32.361C79.7823 32.4043 79.999 32.426 80.2503 32.426H84.9433V30.723H83.2533ZM85.6323 27.694C86.707 27.8327 87.552 27.9843 88.1673 28.149C88.7827 28.3137 89.2117 28.4957 89.4543 28.695C89.7057 28.8857 89.8313 29.124 89.8313 29.41C89.8313 29.7393 89.6927 29.904 89.4153 29.904C89.3027 29.904 89.125 29.7913 88.8823 29.566C88.6397 29.332 88.2107 29.0633 87.5953 28.76C86.98 28.4567 86.3257 28.201 85.6323 27.993V27.694ZM97.8523 27.07H94.0303C93.7963 27.07 93.6143 27.1003 93.4843 27.161L93.1463 26.602C93.3283 26.6453 93.545 26.667 93.7963 26.667H97.8523V26.082C97.8523 25.666 97.8437 25.2803 97.8263 24.925C98.953 25.133 99.5163 25.3063 99.5163 25.445C99.5163 25.523 99.369 25.614 99.0743 25.718V26.667H101.661L102.194 25.939C102.272 25.835 102.359 25.783 102.454 25.783C102.61 25.783 102.883 25.9563 103.273 26.303C103.663 26.641 103.858 26.862 103.858 26.966C103.858 27.0353 103.763 27.07 103.572 27.07H99.0743V28.084H101.05L101.453 27.512C101.54 27.3907 101.618 27.33 101.687 27.33C101.8 27.33 102.008 27.486 102.311 27.798C102.623 28.1013 102.779 28.3007 102.779 28.396C102.779 28.4653 102.662 28.5 102.428 28.5H99.0743V29.579H102.48L102.909 28.942C103.013 28.786 103.109 28.708 103.195 28.708C103.291 28.708 103.551 28.8813 103.975 29.228C104.4 29.5747 104.612 29.7957 104.612 29.891C104.612 29.9603 104.478 29.995 104.209 29.995H93.3413C93.1073 29.995 92.9253 30.0253 92.7953 30.086L92.4183 29.514C92.6003 29.5573 92.817 29.579 93.0683 29.579H97.8523V28.5H95.0313C94.7973 28.5 94.6153 28.5303 94.4853 28.591L94.1343 28.019C94.3163 28.0623 94.533 28.084 94.7843 28.084H97.8523V27.07ZM96.5523 31.009H100.699L100.92 30.619C100.981 30.5237 101.055 30.476 101.141 30.476C101.228 30.476 101.462 30.5843 101.843 30.801C102.233 31.009 102.428 31.1607 102.428 31.256C102.428 31.3513 102.285 31.477 101.999 31.633V35.689C101.999 36.0963 101.908 36.3867 101.726 36.56C101.544 36.7333 101.315 36.8807 101.037 37.002C100.769 37.132 100.591 37.197 100.504 37.197C100.418 37.197 100.357 37.1147 100.322 36.95C100.279 36.7333 100.162 36.5513 99.9713 36.404C99.7893 36.2653 99.4253 36.0877 98.8793 35.871L98.9443 35.637C99.6463 35.7497 100.101 35.806 100.309 35.806C100.517 35.806 100.643 35.767 100.686 35.689C100.738 35.6197 100.764 35.4853 100.764 35.286V34.454H96.3703V36.404C96.3703 36.5167 96.34 36.599 96.2793 36.651C96.2187 36.703 96.0453 36.768 95.7593 36.846C95.482 36.9327 95.313 36.976 95.2523 36.976C95.1917 36.976 95.1613 36.9327 95.1613 36.846L95.1873 36.118C95.196 35.8233 95.2003 35.4897 95.2003 35.117V31.893C95.2003 31.321 95.1873 30.827 95.1613 30.411C95.664 30.567 96.1277 30.7663 96.5523 31.009ZM100.764 32.53V31.425H96.3703V32.53H100.764ZM100.764 34.038V32.933H96.3703V34.038H100.764ZM111.996 27.2C111.312 27.9107 110.575 28.565 109.786 29.163L109.578 28.955C110.636 27.8457 111.437 26.5673 111.983 25.12C112.304 25.224 112.629 25.3583 112.958 25.523C113.296 25.6877 113.465 25.796 113.465 25.848C113.465 25.9 113.409 25.939 113.296 25.965C113.184 25.9823 113.097 26.0127 113.036 26.056C112.984 26.0907 112.885 26.2033 112.737 26.394C112.59 26.576 112.451 26.7277 112.321 26.849H115.454L115.857 26.42C115.961 26.3073 116.044 26.251 116.104 26.251C116.191 26.251 116.429 26.4547 116.819 26.862C117.218 27.2607 117.417 27.5207 117.417 27.642C117.417 27.6853 117.387 27.707 117.326 27.707C117.266 27.707 117.175 27.6983 117.053 27.681C116.941 27.655 116.828 27.642 116.715 27.642C116.369 27.642 115.792 27.9843 114.986 28.669L114.752 28.526C115.056 28.032 115.298 27.59 115.48 27.2H112.776C113.166 27.3127 113.457 27.4167 113.647 27.512C113.847 27.6073 113.946 27.6767 113.946 27.72C113.946 27.7807 113.842 27.85 113.634 27.928C113.903 28.5693 114.319 29.0503 114.882 29.371C115.446 29.683 116.252 29.904 117.3 30.034V30.359C116.624 30.333 116.187 30.4933 115.987 30.84C116.256 31.0047 116.499 31.178 116.715 31.36C116.941 31.5333 117.053 31.6547 117.053 31.724C117.053 31.8107 116.936 31.854 116.702 31.854H110.072L109.812 32.66H113.023L113.309 32.335C113.405 32.2223 113.483 32.166 113.543 32.166C113.604 32.166 113.803 32.2743 114.141 32.491C114.488 32.7077 114.661 32.855 114.661 32.933C114.661 33.0543 114.475 33.1583 114.102 33.245L113.816 35.286C113.79 35.5113 113.847 35.6587 113.985 35.728C114.133 35.806 114.406 35.845 114.804 35.845C115.212 35.845 115.493 35.793 115.649 35.689C115.805 35.5937 115.931 35.3943 116.026 35.091C116.13 34.7877 116.252 34.2633 116.39 33.518L116.689 33.531C116.672 33.7823 116.663 34.0077 116.663 34.207C116.663 35.0823 116.828 35.6067 117.157 35.78C117.253 35.8233 117.3 35.871 117.3 35.923C117.3 36.0443 117.227 36.1873 117.079 36.352C116.932 36.5253 116.75 36.6467 116.533 36.716C116.325 36.7853 115.957 36.82 115.428 36.82C114.908 36.82 114.41 36.7983 113.933 36.755C113.457 36.7117 113.132 36.6423 112.958 36.547C112.785 36.4517 112.698 36.248 112.698 35.936C112.698 35.7973 112.716 35.5893 112.75 35.312L113.023 33.011H109.708L108.876 35.637C110.064 35.5677 111.264 35.442 112.477 35.26L112.542 35.507C110.8 35.9663 109.639 36.2827 109.058 36.456C108.478 36.638 108.122 36.768 107.992 36.846C107.862 36.9327 107.776 36.976 107.732 36.976C107.698 36.976 107.646 36.911 107.576 36.781C107.516 36.6597 107.386 36.326 107.186 35.78C107.386 35.7713 107.555 35.7107 107.693 35.598C107.832 35.494 107.953 35.273 108.057 34.935L109.006 31.854H106.718C106.484 31.854 106.302 31.8843 106.172 31.945L105.938 31.386C106.12 31.4293 106.337 31.451 106.588 31.451H114.947L115.35 30.866C114.77 30.4847 114.341 30.1033 114.063 29.722C113.795 29.332 113.587 28.7947 113.439 28.11C113.041 29.2453 112.573 30.008 112.035 30.398C111.507 30.7793 110.618 31.0523 109.37 31.217L109.318 30.97C110.28 30.7273 111.013 30.3157 111.515 29.735C112.018 29.1543 112.386 28.3093 112.62 27.2H111.996ZM106.952 25.536C107.386 25.6487 107.732 25.7527 107.992 25.848C108.261 25.9347 108.465 26.0213 108.603 26.108C108.742 26.1947 108.833 26.277 108.876 26.355C108.92 26.433 108.941 26.576 108.941 26.784C108.941 26.9833 108.898 27.1393 108.811 27.252C108.733 27.356 108.638 27.408 108.525 27.408C108.421 27.408 108.274 27.2737 108.083 27.005C107.893 26.7277 107.702 26.5023 107.511 26.329C107.321 26.147 107.095 25.978 106.835 25.822L106.952 25.536ZM110.904 26.16L108.876 28.513C108.668 28.747 108.53 28.929 108.46 29.059C108.391 29.1803 108.356 29.3233 108.356 29.488C108.356 29.6527 108.382 29.8693 108.434 30.138C108.495 30.398 108.525 30.567 108.525 30.645C108.525 30.9483 108.378 31.1 108.083 31.1C107.789 31.1 107.546 31.0177 107.355 30.853C107.173 30.6883 107.082 30.5107 107.082 30.32C107.082 30.2767 107.087 30.2333 107.095 30.19C107.217 29.7653 107.277 29.4707 107.277 29.306C107.277 29.1327 107.195 28.994 107.03 28.89C106.874 28.7773 106.606 28.6473 106.224 28.5L106.315 28.24C106.861 28.396 107.234 28.474 107.433 28.474C107.633 28.474 107.797 28.4437 107.927 28.383C108.066 28.3223 108.239 28.1967 108.447 28.006L110.67 25.965L110.904 26.16ZM109.825 33.44C110.519 33.5267 111.039 33.6177 111.385 33.713C111.741 33.8083 111.979 33.921 112.1 34.051C112.23 34.1723 112.295 34.376 112.295 34.662C112.295 34.9393 112.183 35.078 111.957 35.078C111.862 35.078 111.788 35.0607 111.736 35.026C111.693 35 111.55 34.8787 111.307 34.662C111.065 34.4367 110.831 34.2547 110.605 34.116C110.389 33.9687 110.12 33.83 109.799 33.7L109.825 33.44ZM128.298 28.318H128.857L129.429 27.603C129.499 27.5163 129.568 27.473 129.637 27.473C129.707 27.473 129.828 27.5597 130.001 27.733C130.183 27.9063 130.348 28.0797 130.495 28.253C130.651 28.4177 130.729 28.552 130.729 28.656C130.729 28.7513 130.604 28.799 130.352 28.799H128.298V35.286C128.298 35.7193 128.216 36.04 128.051 36.248C127.895 36.4647 127.661 36.651 127.349 36.807C127.046 36.963 126.838 37.041 126.725 37.041C126.613 37.041 126.548 36.9717 126.53 36.833C126.478 36.4257 126.348 36.131 126.14 35.949C125.932 35.767 125.495 35.559 124.827 35.325L124.892 34.974C125.776 35.1647 126.335 35.26 126.569 35.26C126.803 35.26 126.955 35.2383 127.024 35.195C127.102 35.1603 127.141 35.091 127.141 34.987V28.799H124.372C124.156 28.799 123.969 28.8207 123.813 28.864L123.592 28.253C123.774 28.2963 123.991 28.318 124.242 28.318H127.141V26.407C127.141 25.913 127.133 25.4537 127.115 25.029C127.341 25.0897 127.648 25.185 128.038 25.315C128.437 25.4363 128.688 25.5273 128.792 25.588C128.905 25.6487 128.961 25.7093 128.961 25.77C128.961 25.8913 128.74 26.017 128.298 26.147V28.318ZM121.525 30.463C121.95 29.4577 122.266 28.396 122.474 27.278H119.484C119.25 27.278 119.068 27.3083 118.938 27.369L118.704 26.81C118.886 26.8533 119.103 26.875 119.354 26.875H122.422L122.773 26.407C122.843 26.3203 122.895 26.277 122.929 26.277C122.973 26.277 123.129 26.3637 123.397 26.537C123.666 26.7103 123.878 26.8533 124.034 26.966C124.199 27.0787 124.281 27.1697 124.281 27.239C124.281 27.3083 124.203 27.356 124.047 27.382C123.761 27.4253 123.566 27.6073 123.462 27.928C123.02 29.306 122.583 30.4023 122.149 31.217C122.817 32.0317 123.263 32.6427 123.488 33.05C123.714 33.4487 123.826 33.7867 123.826 34.064C123.826 34.3327 123.748 34.5927 123.592 34.844C123.445 35.0867 123.302 35.208 123.163 35.208C123.033 35.208 122.938 35.1603 122.877 35.065C122.825 34.9697 122.773 34.8223 122.721 34.623C122.531 33.8343 122.18 32.985 121.668 32.075C121.001 33.1757 119.909 34.4453 118.392 35.884L118.197 35.702C119.506 34.116 120.503 32.621 121.187 31.217C120.797 30.541 120.199 29.5877 119.393 28.357L119.575 28.214C120.494 29.254 121.144 30.0037 121.525 30.463ZM124.112 30.151C124.892 30.6797 125.417 31.1043 125.685 31.425C125.954 31.737 126.088 32.0273 126.088 32.296C126.088 32.556 126.015 32.7727 125.867 32.946C125.72 33.1193 125.56 33.206 125.386 33.206C125.291 33.206 125.217 33.115 125.165 32.933C125.001 32.361 124.832 31.893 124.658 31.529C124.485 31.1563 124.255 30.7447 123.969 30.294L124.112 30.151ZM132.393 25.406C133.208 25.6833 133.823 25.9737 134.239 26.277C134.655 26.5717 134.863 26.9053 134.863 27.278C134.863 27.5033 134.803 27.7417 134.681 27.993C134.56 28.2357 134.365 28.357 134.096 28.357C134.036 28.357 133.984 28.331 133.94 28.279C133.897 28.227 133.819 28.0363 133.706 27.707C133.594 27.369 133.425 27.0353 133.199 26.706C132.974 26.3767 132.662 26.0127 132.263 25.614L132.393 25.406ZM138.36 27.304C137.225 27.408 136.293 27.447 135.565 27.421L135.526 27.109C137.511 26.849 139.439 26.303 141.311 25.471C141.571 25.705 141.81 25.939 142.026 26.173C142.243 26.407 142.364 26.55 142.39 26.602C142.416 26.6453 142.429 26.6887 142.429 26.732C142.429 26.81 142.386 26.849 142.299 26.849C142.265 26.849 142.195 26.836 142.091 26.81C141.996 26.7753 141.892 26.758 141.779 26.758C141.667 26.758 141.411 26.8057 141.012 26.901C140.614 26.9963 140.115 27.083 139.517 27.161V29.579H141.376L141.857 28.851C141.953 28.7123 142.057 28.643 142.169 28.643C142.291 28.643 142.542 28.8293 142.923 29.202C143.313 29.5747 143.508 29.8 143.508 29.878C143.508 29.956 143.426 29.995 143.261 29.995H139.517V32.023H140.674L141.025 31.464C141.069 31.4033 141.112 31.373 141.155 31.373C141.225 31.373 141.454 31.503 141.844 31.763C142.234 32.0143 142.429 32.1833 142.429 32.27C142.429 32.348 142.265 32.4737 141.935 32.647V35.624C141.935 35.754 141.94 35.8753 141.948 35.988L141.974 36.261C141.974 36.365 141.81 36.495 141.48 36.651C141.151 36.8157 140.934 36.898 140.83 36.898C140.787 36.898 140.765 36.8503 140.765 36.755V35.676H137.216V36.534C137.216 36.5687 137.212 36.599 137.203 36.625C137.195 36.651 137.104 36.716 136.93 36.82C136.757 36.9327 136.584 37.0107 136.41 37.054C136.246 37.0973 136.142 37.119 136.098 37.119C136.064 37.119 136.051 37.0757 136.059 36.989C136.103 36.6943 136.124 36.3693 136.124 36.014V32.543C136.124 32.179 136.111 31.8107 136.085 31.438C136.597 31.6027 137.039 31.7977 137.411 32.023H138.36V29.995H136.02C135.786 29.995 135.604 30.0253 135.474 30.086L135.201 29.514C135.383 29.5573 135.6 29.579 135.851 29.579H138.36V27.304ZM140.765 35.273V32.426H137.216V35.273H140.765ZM135.877 33.505C134.577 35.1257 133.815 36.196 133.589 36.716C133.546 36.8113 133.494 36.859 133.433 36.859C133.373 36.859 133.247 36.7377 133.056 36.495C132.866 36.2523 132.71 36.014 132.588 35.78C132.987 35.4247 133.186 34.987 133.186 34.467V30.19H132.146C132.016 30.19 131.878 30.216 131.73 30.268L131.379 29.683C131.527 29.7263 131.709 29.748 131.925 29.748H133.186L133.485 29.28C133.563 29.1673 133.641 29.111 133.719 29.111C133.806 29.111 133.945 29.1847 134.135 29.332L134.655 29.748C134.811 29.878 134.889 29.9863 134.889 30.073C134.889 30.1597 134.69 30.2897 134.291 30.463V34.428L135.708 33.336L135.877 33.505Z" fill="#9A764E" fill-opacity="0.5"/>
</svg>
