<svg width="58" height="76" viewBox="0 0 58 76" fill="none" xmlns="http://www.w3.org/2000/svg">
<path d="M26.076 60.528C26.244 60.624 26.328 60.828 26.148 60.936C26.1 60.96 26.052 60.972 25.98 60.972C25.812 60.972 25.692 60.984 25.572 61.104C24.384 62.256 22.212 63.78 20.208 64.932C19.956 65.088 20.004 65.268 20.292 65.256C21.636 65.172 23.364 65.052 25.176 64.92C25.404 64.908 25.488 64.752 25.368 64.56C25.068 64.08 24.732 63.612 24.36 63.192C24.228 63.048 24.18 62.94 24.24 62.892C24.3 62.844 24.408 62.844 24.576 62.916C28.86 64.656 27.96 67.644 26.508 66.96C26.376 66.888 26.316 66.792 26.28 66.636C26.196 66.324 26.088 65.988 25.932 65.64C25.848 65.472 25.728 65.424 25.56 65.46C23.964 65.796 21.78 66.204 19.2 66.612C19.044 66.636 18.96 66.66 18.936 66.708C18.828 66.876 18.636 66.816 18.54 66.624L18.024 65.616C17.928 65.424 17.988 65.292 18.204 65.244C18.336 65.22 18.468 65.184 18.54 65.148C19.464 64.632 20.652 63.72 21.732 62.748C21.96 62.556 21.84 62.328 21.552 62.388C20.88 62.52 20.136 62.664 19.344 62.796C19.188 62.82 19.116 62.844 19.116 62.856C19.104 62.868 19.104 62.868 19.092 62.88C18.972 63.06 18.792 62.988 18.696 62.808L18.204 61.848C18.108 61.656 18.144 61.524 18.3 61.488C18.396 61.464 18.492 61.44 18.54 61.416C19.404 60.912 20.52 59.7 21.144 58.8C21.276 58.596 21.18 58.44 20.94 58.44H17.256C17.088 58.44 16.968 58.368 16.92 58.188C16.872 58.032 16.98 57.924 17.196 57.924H21.624C21.84 57.924 21.948 57.888 21.924 57.804C21.924 57.768 21.912 57.72 21.9 57.66C21.804 57.132 21.516 56.532 21.18 56.088C21.06 55.932 21.024 55.836 21.072 55.788C21.132 55.74 21.228 55.728 21.396 55.764C23.16 56.196 23.448 57.12 23.148 57.66C23.04 57.852 23.064 57.924 23.28 57.924H25.584C25.74 57.924 25.848 57.864 25.944 57.756L26.436 57.204C26.556 57.072 26.7 57.036 26.844 57.144C27.204 57.384 27.624 57.684 27.948 57.96C28.08 58.056 28.164 58.188 28.068 58.332C28.008 58.416 27.912 58.44 27.804 58.44H22.836C22.536 58.44 22.488 58.668 22.752 58.8L22.992 58.908C23.184 59.004 23.28 59.196 23.1 59.304C23.076 59.328 23.04 59.34 23.004 59.34C22.848 59.376 22.728 59.388 22.608 59.484C21.972 60.048 21.024 60.72 20.1 61.26C19.848 61.416 19.896 61.584 20.184 61.572C20.952 61.548 21.876 61.512 22.848 61.488C23.004 61.476 23.112 61.428 23.22 61.32C23.736 60.78 24.156 60.288 24.444 59.868C24.564 59.712 24.696 59.676 24.864 59.784L26.076 60.528ZM35.8 57.168C35.944 57.168 36.064 57.132 36.172 57.024L36.544 56.688C36.688 56.556 36.82 56.58 36.964 56.688L37.84 57.384C37.996 57.516 38.044 57.732 37.852 57.792C37.816 57.804 37.78 57.816 37.732 57.816C37.588 57.84 37.48 57.876 37.372 57.972C37.048 58.272 36.652 58.608 36.268 58.908C36.04 59.088 36.088 59.268 36.376 59.268H37.972C38.116 59.268 38.236 59.22 38.344 59.112L38.632 58.824C38.764 58.692 38.908 58.692 39.052 58.788L40 59.436C40.168 59.544 40.204 59.724 40.048 59.856C40.012 59.88 39.976 59.904 39.928 59.928C39.772 60 39.676 60.096 39.676 60.264V63.096C39.652 63.312 38.968 63.516 38.536 63.516C38.38 63.516 38.296 63.408 38.296 63.216V63.024C38.296 62.832 38.188 62.724 37.996 62.724H33.028C32.836 62.724 32.728 62.832 32.728 63.024V65.052C32.728 65.436 33.064 65.544 33.892 65.544H38.116C38.848 65.544 39.22 65.496 39.424 65.244C39.64 64.968 39.904 64.344 40.108 63.756C40.168 63.588 40.216 63.516 40.252 63.516C40.288 63.516 40.312 63.612 40.312 63.816L40.324 65.016C40.324 65.184 40.408 65.304 40.588 65.352C40.96 65.46 41.116 65.556 41.116 65.832C41.116 66.48 40.576 66.816 38.236 66.816H33.94C32.2 66.816 31.384 66.432 31.384 65.028V60.504C31.384 60.252 31.216 60.168 31.012 60.324C30.712 60.552 30.412 60.768 30.112 60.948C29.956 61.044 29.848 61.056 29.8 60.984C29.752 60.924 29.788 60.828 29.932 60.684C31.156 59.496 32.344 57.612 32.92 55.968C32.992 55.8 33.1 55.716 33.292 55.764L34.624 56.076C34.828 56.124 34.984 56.328 34.792 56.436C34.768 56.448 34.732 56.46 34.684 56.472C34.516 56.496 34.408 56.532 34.312 56.676C34.288 56.724 34.264 56.76 34.228 56.808C34.108 57.012 34.192 57.168 34.432 57.168H35.8ZM32.668 58.824C32.5 58.992 32.5 59.136 32.644 59.184L32.716 59.208C32.848 59.256 32.956 59.268 33.088 59.268H35.008C35.164 59.268 35.284 59.208 35.368 59.064C35.548 58.74 35.704 58.368 35.848 58.032C35.932 57.828 35.836 57.684 35.62 57.684H33.844C33.688 57.684 33.58 57.732 33.472 57.864C33.22 58.2 32.944 58.524 32.668 58.824ZM32.728 61.908C32.728 62.1 32.836 62.208 33.028 62.208H34.516C34.708 62.208 34.816 62.1 34.816 61.908V60.072C34.816 59.88 34.708 59.772 34.516 59.772H33.028C32.836 59.772 32.728 59.88 32.728 60.072V61.908ZM36.136 61.908C36.136 62.1 36.244 62.208 36.436 62.208H37.996C38.188 62.208 38.296 62.1 38.296 61.908V60.072C38.296 59.88 38.188 59.772 37.996 59.772H36.436C36.244 59.772 36.136 59.88 36.136 60.072V61.908Z" fill="#7A6855"/>
<circle cx="29" cy="15" r="15" fill="black"/>
</svg>
