<svg width="58" height="73" viewBox="0 0 58 73" fill="none" xmlns="http://www.w3.org/2000/svg">
<circle cx="29" cy="15" r="15" fill="url(#paint0_linear_1967_555)"/>
<path d="M21.792 52.944C21.984 52.968 22.14 53.112 22.02 53.28C21.984 53.328 21.948 53.364 21.9 53.4C21.744 53.484 21.636 53.544 21.612 53.712C21.588 53.928 21.552 54.132 21.516 54.336C21.492 54.54 21.588 54.66 21.792 54.66H25.632C25.788 54.66 25.896 54.6 25.992 54.492L26.46 53.976C26.58 53.832 26.736 53.808 26.88 53.916C27.216 54.156 27.612 54.444 27.936 54.696C28.068 54.792 28.164 54.924 28.056 55.068C27.996 55.152 27.9 55.176 27.78 55.176H21.66C21.48 55.176 21.372 55.26 21.336 55.452C20.64 58.824 19.392 61.32 17.364 63.024C17.22 63.144 17.112 63.18 17.052 63.12C16.992 63.06 17.016 62.964 17.124 62.808C18.48 60.876 19.44 58.392 19.884 55.5C19.92 55.296 19.812 55.176 19.608 55.176H17.268C17.1 55.176 16.98 55.104 16.932 54.924C16.884 54.768 16.992 54.66 17.208 54.66H19.716C19.896 54.66 20.016 54.564 20.028 54.372C20.064 53.94 20.1 53.508 20.124 53.064C20.136 52.86 20.256 52.764 20.448 52.788L21.792 52.944ZM18.492 63.912C18.444 63.816 18.516 63.72 18.708 63.636C22.968 61.8 22.884 59.364 22.884 55.812C22.884 55.608 23.004 55.512 23.196 55.524L24.372 55.632C24.576 55.656 24.732 55.788 24.6 55.968C24.576 56.004 24.552 56.028 24.516 56.052C24.372 56.16 24.276 56.232 24.288 56.412C24.36 57.384 24.468 58.224 24.648 58.956C24.72 59.22 24.936 59.244 25.068 59.004C25.452 58.308 25.812 57.564 26.028 57.012C26.1 56.82 26.244 56.772 26.424 56.868L27.576 57.504C27.744 57.6 27.852 57.792 27.684 57.9C27.648 57.912 27.612 57.924 27.564 57.924C27.408 57.936 27.288 57.96 27.18 58.068C26.628 58.608 25.92 59.232 25.188 59.772C25.044 59.88 25.008 60.012 25.08 60.18C25.596 61.284 26.472 62.064 27.9 62.616C28.068 62.688 28.152 62.748 28.152 62.856C28.14 62.952 28.056 63.024 27.888 63.072C27.504 63.204 27.24 63.408 27.12 63.732C27.048 63.936 26.94 64.008 26.76 63.9C25.152 62.94 24.504 61.212 24.24 58.764C24.204 58.488 24.156 58.476 24.12 58.752C23.82 61.056 22.776 62.82 18.84 63.984C18.66 64.032 18.552 64.008 18.492 63.912ZM20.28 60.096C20.064 59.688 20.352 59.292 20.676 59.088C21.132 58.752 21.588 58.032 21.636 57.192C21.648 56.988 21.672 56.88 21.708 56.88C21.744 56.892 21.792 56.964 21.852 57.12C22.392 58.632 22.02 59.76 21.492 60.192C21.084 60.516 20.544 60.552 20.28 60.096ZM35.272 60.72C35.272 60.912 35.38 61.02 35.572 61.02H35.728C35.92 61.02 36.028 60.912 36.028 60.72V58.896C36.028 58.704 35.92 58.596 35.728 58.596H34.264C34.096 58.596 33.976 58.524 33.928 58.344C33.88 58.188 33.988 58.08 34.204 58.08H35.728C35.92 58.08 36.028 57.972 36.028 57.78V57.216C36.028 57.024 35.944 56.916 35.788 56.916H35.764C35.608 56.916 35.512 56.964 35.392 57.072C35.116 57.36 34.84 57.6 34.564 57.792C34.432 57.888 34.324 57.9 34.264 57.852C34.192 57.804 34.216 57.696 34.312 57.528C34.516 57.18 34.696 56.748 34.864 56.292C34.948 56.016 34.696 55.884 34.492 56.1C34.192 56.424 33.88 56.724 33.544 57C33.4 57.12 33.292 57.144 33.244 57.084C33.196 57.036 33.208 56.928 33.316 56.772C34.012 55.668 34.576 54.168 34.852 53.064C34.9 52.872 35.032 52.8 35.224 52.86L36.4 53.232C36.592 53.292 36.724 53.472 36.556 53.604C36.52 53.628 36.496 53.64 36.448 53.652C36.292 53.7 36.172 53.736 36.088 53.88C36.052 53.964 36.004 54.036 35.968 54.108C35.848 54.324 35.932 54.468 36.172 54.468H39.148C39.292 54.468 39.412 54.432 39.52 54.324L39.844 54.012C39.976 53.88 40.12 53.88 40.264 54L41.056 54.636C41.212 54.756 41.248 54.96 41.068 55.056C41.044 55.068 41.008 55.08 40.972 55.092C40.804 55.152 40.708 55.248 40.708 55.44C40.672 60.42 40.576 62.796 39.976 63.492C39.616 63.912 39.208 64.116 38.668 64.164C38.476 64.176 38.38 64.068 38.368 63.864C38.344 63.648 38.296 63.48 38.14 63.336C37.996 63.192 37.672 63.072 37.264 62.976C37.084 62.928 37 62.856 37 62.736C37 62.628 37.108 62.568 37.312 62.58C37.768 62.628 38.284 62.664 38.512 62.664C38.752 62.664 38.884 62.628 38.956 62.544C39.376 62.088 39.448 59.652 39.484 55.296C39.484 55.092 39.376 54.984 39.184 54.984H35.644C35.488 54.984 35.38 55.02 35.308 55.128C35.308 55.128 35.344 55.308 35.548 55.38L36.352 55.644C36.544 55.704 36.652 55.872 36.508 56.016C36.472 56.052 36.424 56.076 36.364 56.1C36.208 56.148 36.1 56.148 36.028 56.256C36.028 56.256 36.124 56.4 36.364 56.4H37.252C37.408 56.4 37.528 56.352 37.624 56.232L37.816 56.004C37.936 55.86 38.092 55.836 38.236 55.956C38.428 56.1 38.632 56.28 38.824 56.436C38.944 56.544 39.028 56.676 38.932 56.808C38.872 56.892 38.788 56.916 38.692 56.916H37.372C37.18 56.916 37.072 57.024 37.072 57.216V57.78C37.072 57.972 37.18 58.08 37.372 58.08H37.624C37.78 58.08 37.9 58.032 37.996 57.9L38.2 57.636C38.32 57.48 38.464 57.456 38.62 57.576C38.812 57.732 39.04 57.924 39.232 58.104C39.352 58.224 39.412 58.356 39.316 58.5C39.256 58.572 39.172 58.596 39.076 58.596H37.372C37.18 58.596 37.072 58.704 37.072 58.896V60.72C37.072 60.912 37.18 61.02 37.372 61.02H37.54C37.732 61.02 37.84 60.912 37.84 60.72V59.376C37.84 59.184 37.96 59.076 38.152 59.1L38.764 59.16C38.968 59.172 39.124 59.304 39.028 59.46C39.016 59.472 39.016 59.484 39.004 59.496C38.896 59.628 38.788 59.676 38.788 59.844V61.74C38.788 61.944 38.368 62.076 38.02 62.076C37.912 62.076 37.84 61.968 37.84 61.8C37.84 61.632 37.732 61.536 37.54 61.536H35.536C35.38 61.536 35.296 61.572 35.224 61.644C35.104 61.776 34.96 61.812 34.804 61.728L34.336 61.5C34.144 61.404 34.06 61.284 34.144 61.188C34.144 61.176 34.156 61.176 34.156 61.164C34.216 61.104 34.3 61.044 34.324 61.02C34.348 60.996 34.36 60.912 34.36 60.768V59.388C34.36 59.196 34.48 59.088 34.672 59.112L35.272 59.172C35.464 59.196 35.62 59.328 35.512 59.484C35.5 59.496 35.5 59.508 35.488 59.52C35.368 59.64 35.272 59.7 35.272 59.868V60.72ZM30.424 64.104C30.364 64.104 30.316 63.996 30.316 63.804V53.46C30.316 53.244 30.46 53.148 30.664 53.22L31.516 53.52C31.648 53.568 31.756 53.58 31.888 53.58H32.272C32.416 53.58 32.524 53.544 32.644 53.436L32.908 53.208C33.052 53.076 33.196 53.076 33.34 53.208L34.156 53.928C34.3 54.06 34.36 54.264 34.168 54.336C34.132 54.348 34.084 54.36 34.036 54.36C33.868 54.384 33.76 54.432 33.688 54.588C33.352 55.248 32.848 56.184 32.416 56.844C32.32 57.012 32.344 57.144 32.476 57.264C33.4 58.092 33.82 59.124 33.82 60.024C33.832 61.128 33.484 61.752 32.524 61.884C32.32 61.908 32.212 61.8 32.2 61.596C32.188 61.38 32.14 61.164 32.056 61.044C32.032 60.996 31.948 60.948 31.828 60.912C31.66 60.852 31.564 60.78 31.564 60.672C31.564 60.564 31.672 60.504 31.864 60.504H32.2C32.32 60.504 32.416 60.492 32.464 60.456C32.656 60.312 32.692 60.12 32.692 59.76C32.692 58.968 32.524 58.164 32.02 57.372C31.936 57.228 31.924 57.12 31.96 56.964C32.14 56.28 32.356 55.248 32.5 54.42C32.536 54.216 32.44 54.096 32.236 54.096H31.84C31.648 54.096 31.54 54.204 31.54 54.396V63.66C31.54 63.852 31.156 64.104 30.532 64.104H30.424Z" fill="#7A6855"/>
<defs>
<linearGradient id="paint0_linear_1967_555" x1="24" y1="3" x2="41.5" y2="23" gradientUnits="userSpaceOnUse">
<stop stop-color="#EFEFEF"/>
<stop offset="1" stop-color="#7A7A7A"/>
</linearGradient>
</defs>
</svg>
