<svg width="58" height="73" viewBox="0 0 58 73" fill="none" xmlns="http://www.w3.org/2000/svg">
<circle cx="29" cy="15" r="15" fill="url(#paint0_linear_1967_554)"/>
<path d="M19.908 54.564C19.968 54.528 20.064 54.54 20.208 54.624C22.236 55.632 21.348 57.084 20.544 56.7C20.412 56.628 20.364 56.52 20.352 56.352C20.328 55.872 20.136 55.32 19.944 54.876C19.86 54.696 19.848 54.6 19.908 54.564ZM17.016 60.78C16.968 60.624 17.076 60.528 17.292 60.528H21.48C21.672 60.528 21.78 60.42 21.78 60.228V59.652C21.78 59.46 21.672 59.352 21.48 59.352H18.468C18.3 59.352 18.18 59.28 18.132 59.1C18.084 58.932 18.192 58.836 18.408 58.836H21.48C21.672 58.836 21.78 58.728 21.78 58.536V57.996C21.78 57.804 21.672 57.696 21.48 57.696H19.992C19.8 57.696 19.692 57.78 19.692 57.948C19.692 58.188 19.056 58.404 18.552 58.404C18.42 58.404 18.348 58.296 18.348 58.104V53.436C18.348 53.22 18.48 53.112 18.696 53.196L19.608 53.532C19.728 53.58 19.848 53.592 19.98 53.592H24.972C25.116 53.592 25.236 53.544 25.344 53.436L25.608 53.172C25.74 53.04 25.884 53.04 26.028 53.136L26.928 53.748C27.096 53.868 27.144 54.048 26.976 54.156C26.952 54.168 26.928 54.18 26.904 54.204C26.748 54.276 26.664 54.372 26.664 54.54V57.576C26.664 57.708 26.664 57.828 26.544 57.912C26.496 57.948 26.424 57.972 26.352 57.996C26.112 58.08 26.064 58.224 26.268 58.368C26.46 58.524 26.676 58.692 26.868 58.86C27 58.98 27.084 59.124 26.964 59.256C26.904 59.328 26.82 59.352 26.724 59.352H23.4C23.208 59.352 23.1 59.46 23.1 59.652V60.228C23.1 60.42 23.208 60.528 23.4 60.528H25.692C25.848 60.528 25.968 60.48 26.064 60.36L26.484 59.844C26.604 59.688 26.76 59.676 26.904 59.784C27.216 60.024 27.588 60.3 27.876 60.552C27.996 60.66 28.08 60.792 27.972 60.936C27.9 61.008 27.804 61.032 27.708 61.032H17.352C17.184 61.032 17.064 60.948 17.016 60.78ZM17.016 63.72C16.884 63.288 17.196 62.94 17.532 62.796C18.048 62.592 18.588 62.1 18.732 61.476C18.78 61.296 18.804 61.2 18.852 61.2C18.9 61.2 18.96 61.284 18.996 61.464C19.344 62.832 18.756 63.732 18.156 64.02C17.7 64.236 17.208 64.188 17.016 63.72ZM19.692 56.88C19.692 57.072 19.8 57.18 19.992 57.18H21.48C21.672 57.18 21.78 57.072 21.78 56.88V54.396C21.78 54.204 21.672 54.096 21.48 54.096H19.992C19.8 54.096 19.692 54.204 19.692 54.396V56.88ZM20.388 61.608C20.328 61.428 20.328 61.308 20.376 61.296C20.436 61.272 20.52 61.296 20.664 61.392C22.896 62.748 21.78 64.452 20.832 63.852C20.7 63.756 20.676 63.648 20.676 63.492C20.688 62.892 20.556 62.184 20.388 61.608ZM22.62 61.656C22.512 61.488 22.476 61.38 22.536 61.344C22.596 61.308 22.692 61.308 22.848 61.356C25.692 62.328 24.876 64.344 23.796 63.912C23.652 63.852 23.592 63.744 23.568 63.612C23.412 62.964 23.028 62.22 22.62 61.656ZM23.1 58.536C23.1 58.728 23.208 58.836 23.4 58.836H24.768C24.924 58.836 25.044 58.788 25.14 58.668L25.392 58.368C25.512 58.224 25.5 58.164 25.38 58.092C25.332 58.044 25.296 57.984 25.296 57.912C25.296 57.78 25.188 57.696 24.996 57.696H23.4C23.208 57.696 23.1 57.804 23.1 57.996V58.536ZM23.1 56.88C23.1 57.072 23.208 57.18 23.4 57.18H24.996C25.188 57.18 25.296 57.072 25.296 56.88V55.656C25.296 55.464 25.26 55.356 25.176 55.356C25.176 55.356 25.008 55.404 24.912 55.512C24.588 55.86 24.132 56.304 23.724 56.676C23.592 56.796 23.52 56.832 23.46 56.796C23.412 56.772 23.412 56.664 23.472 56.484C23.652 55.944 23.832 55.248 23.94 54.768C23.976 54.576 24.108 54.492 24.3 54.564L24.948 54.792C25.152 54.864 25.296 54.768 25.296 54.552V54.396C25.296 54.204 25.188 54.096 24.996 54.096H23.4C23.208 54.096 23.1 54.204 23.1 54.396V56.88ZM25.104 61.644C24.948 61.512 24.888 61.416 24.948 61.344C25.008 61.284 25.104 61.26 25.284 61.296C28.8 62.028 28.284 64.392 27.072 64.068C26.928 64.032 26.856 63.948 26.808 63.816C26.532 63.084 25.812 62.22 25.104 61.644ZM35.272 60.72C35.272 60.912 35.38 61.02 35.572 61.02H35.728C35.92 61.02 36.028 60.912 36.028 60.72V58.896C36.028 58.704 35.92 58.596 35.728 58.596H34.264C34.096 58.596 33.976 58.524 33.928 58.344C33.88 58.188 33.988 58.08 34.204 58.08H35.728C35.92 58.08 36.028 57.972 36.028 57.78V57.216C36.028 57.024 35.944 56.916 35.788 56.916H35.764C35.608 56.916 35.512 56.964 35.392 57.072C35.116 57.36 34.84 57.6 34.564 57.792C34.432 57.888 34.324 57.9 34.264 57.852C34.192 57.804 34.216 57.696 34.312 57.528C34.516 57.18 34.696 56.748 34.864 56.292C34.948 56.016 34.696 55.884 34.492 56.1C34.192 56.424 33.88 56.724 33.544 57C33.4 57.12 33.292 57.144 33.244 57.084C33.196 57.036 33.208 56.928 33.316 56.772C34.012 55.668 34.576 54.168 34.852 53.064C34.9 52.872 35.032 52.8 35.224 52.86L36.4 53.232C36.592 53.292 36.724 53.472 36.556 53.604C36.52 53.628 36.496 53.64 36.448 53.652C36.292 53.7 36.172 53.736 36.088 53.88C36.052 53.964 36.004 54.036 35.968 54.108C35.848 54.324 35.932 54.468 36.172 54.468H39.148C39.292 54.468 39.412 54.432 39.52 54.324L39.844 54.012C39.976 53.88 40.12 53.88 40.264 54L41.056 54.636C41.212 54.756 41.248 54.96 41.068 55.056C41.044 55.068 41.008 55.08 40.972 55.092C40.804 55.152 40.708 55.248 40.708 55.44C40.672 60.42 40.576 62.796 39.976 63.492C39.616 63.912 39.208 64.116 38.668 64.164C38.476 64.176 38.38 64.068 38.368 63.864C38.344 63.648 38.296 63.48 38.14 63.336C37.996 63.192 37.672 63.072 37.264 62.976C37.084 62.928 37 62.856 37 62.736C37 62.628 37.108 62.568 37.312 62.58C37.768 62.628 38.284 62.664 38.512 62.664C38.752 62.664 38.884 62.628 38.956 62.544C39.376 62.088 39.448 59.652 39.484 55.296C39.484 55.092 39.376 54.984 39.184 54.984H35.644C35.488 54.984 35.38 55.02 35.308 55.128C35.308 55.128 35.344 55.308 35.548 55.38L36.352 55.644C36.544 55.704 36.652 55.872 36.508 56.016C36.472 56.052 36.424 56.076 36.364 56.1C36.208 56.148 36.1 56.148 36.028 56.256C36.028 56.256 36.124 56.4 36.364 56.4H37.252C37.408 56.4 37.528 56.352 37.624 56.232L37.816 56.004C37.936 55.86 38.092 55.836 38.236 55.956C38.428 56.1 38.632 56.28 38.824 56.436C38.944 56.544 39.028 56.676 38.932 56.808C38.872 56.892 38.788 56.916 38.692 56.916H37.372C37.18 56.916 37.072 57.024 37.072 57.216V57.78C37.072 57.972 37.18 58.08 37.372 58.08H37.624C37.78 58.08 37.9 58.032 37.996 57.9L38.2 57.636C38.32 57.48 38.464 57.456 38.62 57.576C38.812 57.732 39.04 57.924 39.232 58.104C39.352 58.224 39.412 58.356 39.316 58.5C39.256 58.572 39.172 58.596 39.076 58.596H37.372C37.18 58.596 37.072 58.704 37.072 58.896V60.72C37.072 60.912 37.18 61.02 37.372 61.02H37.54C37.732 61.02 37.84 60.912 37.84 60.72V59.376C37.84 59.184 37.96 59.076 38.152 59.1L38.764 59.16C38.968 59.172 39.124 59.304 39.028 59.46C39.016 59.472 39.016 59.484 39.004 59.496C38.896 59.628 38.788 59.676 38.788 59.844V61.74C38.788 61.944 38.368 62.076 38.02 62.076C37.912 62.076 37.84 61.968 37.84 61.8C37.84 61.632 37.732 61.536 37.54 61.536H35.536C35.38 61.536 35.296 61.572 35.224 61.644C35.104 61.776 34.96 61.812 34.804 61.728L34.336 61.5C34.144 61.404 34.06 61.284 34.144 61.188C34.144 61.176 34.156 61.176 34.156 61.164C34.216 61.104 34.3 61.044 34.324 61.02C34.348 60.996 34.36 60.912 34.36 60.768V59.388C34.36 59.196 34.48 59.088 34.672 59.112L35.272 59.172C35.464 59.196 35.62 59.328 35.512 59.484C35.5 59.496 35.5 59.508 35.488 59.52C35.368 59.64 35.272 59.7 35.272 59.868V60.72ZM30.424 64.104C30.364 64.104 30.316 63.996 30.316 63.804V53.46C30.316 53.244 30.46 53.148 30.664 53.22L31.516 53.52C31.648 53.568 31.756 53.58 31.888 53.58H32.272C32.416 53.58 32.524 53.544 32.644 53.436L32.908 53.208C33.052 53.076 33.196 53.076 33.34 53.208L34.156 53.928C34.3 54.06 34.36 54.264 34.168 54.336C34.132 54.348 34.084 54.36 34.036 54.36C33.868 54.384 33.76 54.432 33.688 54.588C33.352 55.248 32.848 56.184 32.416 56.844C32.32 57.012 32.344 57.144 32.476 57.264C33.4 58.092 33.82 59.124 33.82 60.024C33.832 61.128 33.484 61.752 32.524 61.884C32.32 61.908 32.212 61.8 32.2 61.596C32.188 61.38 32.14 61.164 32.056 61.044C32.032 60.996 31.948 60.948 31.828 60.912C31.66 60.852 31.564 60.78 31.564 60.672C31.564 60.564 31.672 60.504 31.864 60.504H32.2C32.32 60.504 32.416 60.492 32.464 60.456C32.656 60.312 32.692 60.12 32.692 59.76C32.692 58.968 32.524 58.164 32.02 57.372C31.936 57.228 31.924 57.12 31.96 56.964C32.14 56.28 32.356 55.248 32.5 54.42C32.536 54.216 32.44 54.096 32.236 54.096H31.84C31.648 54.096 31.54 54.204 31.54 54.396V63.66C31.54 63.852 31.156 64.104 30.532 64.104H30.424Z" fill="#7A6855"/>
<defs>
<linearGradient id="paint0_linear_1967_554" x1="24" y1="3" x2="41.5" y2="23" gradientUnits="userSpaceOnUse">
<stop stop-color="#656565"/>
<stop offset="1"/>
</linearGradient>
</defs>
</svg>
