<svg width="58" height="76" viewBox="0 0 58 76" fill="none" xmlns="http://www.w3.org/2000/svg">
<path d="M18.484 57.192C18.64 57.324 18.688 57.528 18.508 57.6C18.484 57.612 18.448 57.612 18.412 57.624C18.268 57.648 18.16 57.66 18.04 57.732C17.824 57.852 17.584 57.996 17.344 58.128C17.08 58.272 17.128 58.476 17.428 58.476H18.484C18.628 58.476 18.748 58.428 18.856 58.32L19.108 58.08C19.24 57.96 19.384 57.948 19.528 58.044L20.404 58.632C20.572 58.752 20.62 58.932 20.452 59.04C20.428 59.052 20.416 59.064 20.392 59.076C20.236 59.16 20.152 59.256 20.152 59.424V60.684C20.152 60.816 20.152 60.936 20.044 61.02C20.032 61.032 20.02 61.032 20.008 61.044C19.792 61.164 19.744 61.296 19.948 61.44L20.068 61.524C20.224 61.632 20.308 61.86 20.116 61.92C20.092 61.932 20.068 61.932 20.02 61.932C19.876 61.92 19.756 61.908 19.624 61.968C19.18 62.148 18.64 62.34 18.1 62.508C17.896 62.58 17.824 62.736 17.956 62.904C18.7 63.948 19.996 64.632 21.388 65.028C21.568 65.076 21.652 65.136 21.652 65.244C21.64 65.34 21.556 65.4 21.388 65.46C21.064 65.568 20.824 65.796 20.68 66.096C20.584 66.276 20.464 66.336 20.284 66.24C19.024 65.532 18.112 64.524 17.572 62.976C17.5 62.796 17.38 62.724 17.188 62.772C17.188 62.772 16.948 62.952 17.02 63.144C17.512 64.548 17.296 66.036 16.708 66.636C16.384 66.948 15.928 67.068 15.268 67.104C15.076 67.104 14.98 66.996 14.956 66.804C14.92 66.612 14.848 66.48 14.704 66.348C14.62 66.264 14.356 66.156 14.008 66.06C13.828 66.012 13.744 65.952 13.744 65.832C13.732 65.724 13.852 65.688 14.056 65.7C14.524 65.724 15.112 65.76 15.34 65.76C15.484 65.76 15.64 65.736 15.676 65.688C15.82 65.508 15.916 65.268 15.976 64.956C16.024 64.692 15.832 64.572 15.592 64.704C14.224 65.472 12.532 66.108 10.852 66.456C10.672 66.492 10.552 66.444 10.516 66.336C10.48 66.228 10.564 66.132 10.744 66.072C12.676 65.436 14.62 64.332 15.76 63.12C15.868 63 15.904 62.928 15.892 62.856C15.88 62.796 15.76 62.844 15.568 62.94C14.296 63.66 12.604 64.332 11.008 64.716C10.828 64.752 10.708 64.728 10.672 64.608C10.636 64.5 10.708 64.404 10.9 64.344C12.532 63.744 14.248 62.736 15.268 61.74C15.388 61.62 15.412 61.488 15.34 61.356C15.34 61.356 15.124 61.224 14.956 61.344C13.924 62.1 12.652 62.688 11.152 63.12C10.972 63.168 10.852 63.132 10.804 63.024C10.756 62.916 10.84 62.832 11.02 62.748C12.016 62.316 12.892 61.788 13.6 61.2C13.804 61.02 13.828 60.828 13.66 60.828H13.612C13.42 60.828 13.312 60.888 13.312 60.984C13.312 61.164 12.916 61.416 12.232 61.416C12.076 61.416 11.992 61.308 11.992 61.116V59.472C11.992 59.244 11.848 59.148 11.632 59.268C11.32 59.436 11.02 59.58 10.72 59.712C10.564 59.784 10.444 59.772 10.384 59.688C10.324 59.604 10.384 59.508 10.552 59.4C11.92 58.476 13.12 57.072 13.708 56.004C13.792 55.848 13.912 55.788 14.08 55.824L15.412 56.052C15.616 56.088 15.772 56.268 15.604 56.412C15.556 56.448 15.472 56.472 15.364 56.484C15.196 56.508 15.1 56.556 14.992 56.676C14.992 56.676 14.944 56.988 15.208 56.988H16.624C16.768 56.988 16.876 56.952 16.996 56.844L17.296 56.58C17.44 56.448 17.572 56.448 17.716 56.568L18.484 57.192ZM13.444 58.08C13.252 58.236 13.18 58.368 13.288 58.404H13.3C13.42 58.452 13.54 58.476 13.672 58.476H15.64C15.784 58.476 15.904 58.44 16.012 58.32C16.144 58.176 16.276 58.02 16.396 57.876C16.552 57.672 16.456 57.504 16.204 57.504H14.368C14.224 57.504 14.104 57.54 13.984 57.648C13.816 57.792 13.624 57.948 13.444 58.08ZM13.312 60.012C13.312 60.204 13.42 60.312 13.612 60.312H14.272C14.428 60.312 14.536 60.264 14.632 60.144C14.86 59.88 15.052 59.604 15.22 59.34C15.352 59.136 15.256 58.98 15.016 58.98H13.612C13.42 58.98 13.312 59.088 13.312 59.28V60.012ZM15.556 60.876C15.52 60.912 15.58 60.996 15.736 61.14C16.048 61.44 16.324 61.8 16.552 62.172C16.66 62.34 16.804 62.376 16.972 62.268C17.596 61.86 18.208 61.404 18.64 61.032C18.76 60.936 18.808 60.864 18.808 60.852V60.828H15.82C15.676 60.828 15.592 60.84 15.556 60.876ZM16.42 59.952C16.264 60.156 16.348 60.312 16.6 60.312H18.508C18.7 60.312 18.808 60.204 18.808 60.012V59.28C18.808 59.088 18.7 58.98 18.508 58.98H17.308C17.152 58.98 17.032 59.04 16.948 59.196C16.78 59.46 16.612 59.712 16.42 59.952ZM32.324 56.172C32.444 56.028 32.6 56.016 32.744 56.124C33.056 56.352 33.44 56.628 33.74 56.88C33.872 56.988 33.956 57.132 33.836 57.264C33.776 57.336 33.68 57.36 33.584 57.36H31.424C31.232 57.36 31.124 57.468 31.124 57.66V60.228C31.124 60.42 31.232 60.528 31.424 60.528H31.988C32.144 60.528 32.252 60.468 32.348 60.36L32.828 59.82C32.948 59.676 33.104 59.652 33.248 59.76C33.596 60 34.016 60.3 34.352 60.564C34.472 60.66 34.568 60.792 34.46 60.936C34.4 61.02 34.304 61.044 34.184 61.044H31.424C31.232 61.044 31.124 61.152 31.124 61.344V65.424C31.124 66.264 30.896 66.9 29.444 67.08C29.24 67.116 29.132 67.008 29.096 66.816C29.06 66.564 28.964 66.372 28.748 66.216C28.556 66.072 28.268 65.928 27.656 65.832C27.464 65.808 27.368 65.736 27.368 65.628C27.368 65.52 27.488 65.472 27.68 65.484L27.908 65.496C28.58 65.532 29.216 65.568 29.42 65.568C29.672 65.568 29.732 65.508 29.732 65.376V62.7C29.732 62.436 29.552 62.364 29.372 62.556C27.92 64.056 25.988 65.316 23.744 66.156C23.564 66.216 23.456 66.216 23.408 66.12C23.36 66.036 23.42 65.928 23.588 65.832C25.616 64.692 27.368 63.012 28.448 61.404C28.592 61.2 28.496 61.044 28.256 61.044H26.528C26.384 61.044 26.264 61.08 26.156 61.2L25.916 61.452C25.796 61.584 25.64 61.596 25.496 61.5L24.644 60.948C24.452 60.816 24.428 60.648 24.608 60.54C24.644 60.516 24.68 60.504 24.716 60.48C24.86 60.42 24.944 60.336 24.992 60.192C25.268 59.448 25.556 58.452 25.712 57.84C25.748 57.648 25.88 57.564 26.072 57.612L27.272 57.924C27.464 57.972 27.596 58.14 27.452 58.296C27.416 58.332 27.38 58.356 27.332 58.368C27.152 58.428 27.044 58.464 26.996 58.632C26.852 59.112 26.66 59.688 26.504 60.192C26.432 60.396 26.528 60.528 26.744 60.528H29.432C29.624 60.528 29.732 60.42 29.732 60.228V57.66C29.732 57.468 29.624 57.36 29.432 57.36H24.608C24.44 57.36 24.32 57.288 24.272 57.108C24.224 56.952 24.332 56.844 24.548 56.844H31.52C31.676 56.844 31.796 56.796 31.892 56.676L32.324 56.172ZM37.644 58.032C37.644 57.816 37.788 57.708 37.992 57.78L39.024 58.164C39.144 58.212 39.264 58.224 39.396 58.224H40.308C40.488 58.224 40.596 58.14 40.632 57.96C40.776 57.336 40.908 56.616 41.004 56.028C41.04 55.836 41.16 55.752 41.352 55.788L42.792 56.088C42.984 56.124 43.128 56.292 42.984 56.46C42.948 56.508 42.9 56.532 42.828 56.556C42.684 56.604 42.564 56.628 42.468 56.748C42.168 57.084 41.832 57.492 41.484 57.864C41.304 58.056 41.376 58.224 41.64 58.224H44.58C44.724 58.224 44.844 58.176 44.952 58.068L45.324 57.696C45.456 57.564 45.6 57.552 45.744 57.66L46.776 58.428C46.944 58.56 46.968 58.728 46.8 58.848C46.752 58.884 46.704 58.908 46.644 58.932C46.476 59.004 46.392 59.1 46.392 59.268V66.48C46.368 66.72 45.66 67.008 45.156 67.008C45.012 67.008 44.928 66.9 44.928 66.708V66.276C44.928 66.084 44.82 65.976 44.628 65.976H39.396C39.204 65.976 39.096 66.084 39.096 66.276V66.516C39.096 66.792 38.472 67.056 37.884 67.056C37.728 67.056 37.644 66.948 37.644 66.756V58.032ZM39.096 65.16C39.096 65.352 39.204 65.46 39.396 65.46H44.628C44.82 65.46 44.928 65.352 44.928 65.16V62.592C44.928 62.4 44.82 62.292 44.628 62.292H39.396C39.204 62.292 39.096 62.4 39.096 62.592V65.16ZM39.096 61.476C39.096 61.668 39.204 61.776 39.396 61.776H44.628C44.82 61.776 44.928 61.668 44.928 61.476V59.028C44.928 58.836 44.82 58.728 44.628 58.728H39.396C39.204 58.728 39.096 58.836 39.096 59.028V61.476Z" fill="#7A6855"/>
<circle cx="29" cy="15" r="15" fill="white"/>
</svg>
