<svg width="58" height="75" viewBox="0 0 58 75" fill="none" xmlns="http://www.w3.org/2000/svg">
<path d="M28.008 55.76C28.188 55.844 28.308 56.072 28.116 56.156C28.092 56.168 28.056 56.18 28.008 56.18C27.84 56.18 27.72 56.216 27.624 56.36C27.204 57.044 26.76 57.68 26.292 58.268C26.136 58.46 26.124 58.628 26.268 58.628H26.304C26.46 58.628 26.58 58.58 26.676 58.448L26.904 58.16C27.024 58.004 27.168 57.98 27.324 58.112C27.528 58.28 27.756 58.472 27.972 58.64C28.092 58.748 28.176 58.88 28.08 59.024C28.02 59.096 27.936 59.132 27.828 59.132H25.776C25.62 59.132 25.512 59.18 25.404 59.288C25.068 59.636 24.732 59.96 24.396 60.272C24.228 60.44 24.18 60.572 24.264 60.596C24.372 60.644 24.48 60.656 24.612 60.656H25.884C26.028 60.656 26.148 60.62 26.256 60.5L26.472 60.272C26.592 60.14 26.748 60.14 26.892 60.236L27.72 60.8C27.888 60.92 27.924 61.1 27.756 61.22C27.72 61.244 27.696 61.268 27.66 61.28C27.504 61.364 27.408 61.46 27.408 61.628V65.516C27.408 65.648 27.408 65.756 27.288 65.84C27.096 65.972 26.676 66.056 26.4 66.056C26.28 66.056 26.208 65.948 26.208 65.756V65.624C26.208 65.432 26.1 65.324 25.908 65.324H24.564C24.372 65.324 24.264 65.432 24.264 65.624V65.696C24.264 65.888 23.88 66.116 23.268 66.116C23.136 66.116 23.064 66.008 23.064 65.816V61.808C23.064 61.568 23.016 61.412 22.956 61.448C22.824 61.544 22.728 61.616 22.62 61.688C22.596 61.712 22.608 61.796 22.632 61.976C22.776 62.732 22.308 63.236 21.828 62.972C21.684 62.9 21.648 62.78 21.648 62.624C21.636 62.228 21.564 61.796 21.468 61.376C21.396 61.124 21.108 61.184 21.108 61.436V64.7C21.108 65.372 20.988 65.888 20.148 66.08C19.944 66.128 19.824 66.008 19.8 65.804C19.788 65.624 19.752 65.492 19.68 65.372C19.632 65.288 19.5 65.204 19.26 65.132C19.08 65.096 18.984 65.012 18.984 64.904C18.984 64.796 19.092 64.748 19.296 64.76C19.548 64.772 19.764 64.784 19.848 64.784C20.04 64.784 20.052 64.772 20.052 64.664V59.468C20.052 59.276 19.956 59.168 19.8 59.168C19.644 59.168 19.548 59.276 19.536 59.468C19.476 62.036 19.248 64.28 17.364 65.9C17.22 66.02 17.1 66.032 17.028 65.96C16.956 65.888 16.98 65.768 17.1 65.624C17.712 64.844 18.048 63.98 18.252 63.044C18.18 63.392 17.856 62.372 17.952 62.156C17.736 62.636 17.484 63.068 17.208 63.428C17.1 63.572 17.004 63.62 16.932 63.572C16.86 63.524 16.86 63.428 16.92 63.248C17.208 62.444 17.424 61.424 17.508 60.404C17.532 60.2 17.652 60.104 17.844 60.14L18.168 60.212C18.372 60.26 18.492 60.152 18.504 59.936C18.504 59.78 18.504 59.624 18.504 59.468C18.504 59.276 18.396 59.168 18.204 59.168H17.268C17.1 59.168 16.98 59.096 16.932 58.916C16.884 58.76 16.992 58.652 17.208 58.652H18.876C19.068 58.652 19.176 58.544 19.176 58.352V57.44C19.176 57.248 19.068 57.14 18.876 57.14H17.772C17.604 57.14 17.484 57.068 17.436 56.888C17.388 56.732 17.496 56.624 17.712 56.624H18.876C19.068 56.624 19.176 56.516 19.176 56.324V55.1C19.176 54.908 19.296 54.8 19.488 54.812L20.52 54.896C20.712 54.908 20.868 55.04 20.772 55.22C20.748 55.268 20.712 55.304 20.664 55.328C20.52 55.424 20.424 55.508 20.424 55.676V56.324C20.424 56.516 20.496 56.624 20.616 56.624C20.736 56.624 20.844 56.576 20.94 56.444L21.168 56.144C21.288 55.988 21.444 55.964 21.588 56.096C21.804 56.264 22.044 56.468 22.236 56.66C22.356 56.768 22.44 56.9 22.344 57.032C22.284 57.116 22.2 57.14 22.104 57.14H20.724C20.532 57.14 20.424 57.248 20.424 57.44V58.352C20.424 58.544 20.532 58.652 20.724 58.652H20.796C20.952 58.652 21.072 58.604 21.168 58.484L21.468 58.112C21.588 57.956 21.732 57.944 21.876 58.064L22.428 58.496C22.536 58.58 22.656 58.628 22.8 58.628H23.376C23.568 58.628 23.676 58.52 23.676 58.328V57.428C23.676 57.236 23.568 57.128 23.376 57.128H22.884C22.716 57.128 22.596 57.056 22.548 56.876C22.5 56.72 22.608 56.612 22.824 56.612H23.376C23.568 56.612 23.676 56.504 23.676 56.312V55.16C23.676 54.968 23.796 54.86 23.988 54.872L24.984 54.956C25.104 54.968 25.224 55.028 25.26 55.112C25.296 55.244 25.212 55.34 25.092 55.4C25.092 55.4 24.9 55.532 24.9 55.712V56.312C24.9 56.504 24.948 56.612 25.02 56.612C25.092 56.612 25.176 56.564 25.272 56.432L25.404 56.264C25.524 56.108 25.68 56.096 25.824 56.228L25.92 56.312C26.088 56.456 26.244 56.42 26.34 56.228C26.472 55.976 26.592 55.724 26.7 55.484C26.784 55.316 26.94 55.256 27.108 55.34L28.008 55.76ZM21.108 59.972C21.108 60.152 21.168 60.212 21.3 60.236C21.36 60.248 21.42 60.272 21.48 60.32C21.78 60.548 22.02 60.812 22.212 61.064C22.332 61.232 22.476 61.256 22.632 61.112C22.728 61.028 22.824 60.932 22.92 60.848C23.028 60.74 23.064 60.656 23.064 60.548C23.064 60.332 23.136 60.2 23.244 60.236C23.364 60.284 23.484 60.248 23.604 60.128C23.796 59.912 23.976 59.708 24.156 59.504C24.324 59.3 24.228 59.132 23.976 59.132H22.872C22.74 59.132 22.656 59.144 22.584 59.156C22.56 59.168 22.524 59.168 22.488 59.168H21.408C21.216 59.168 21.108 59.276 21.108 59.468V59.972ZM24.264 64.508C24.264 64.7 24.372 64.808 24.564 64.808H25.908C26.1 64.808 26.208 64.7 26.208 64.508V63.428C26.208 63.236 26.1 63.128 25.908 63.128H24.564C24.372 63.128 24.264 63.236 24.264 63.428V64.508ZM24.264 62.312C24.264 62.504 24.372 62.612 24.564 62.612H25.908C26.1 62.612 26.208 62.504 26.208 62.312V61.472C26.208 61.28 26.1 61.172 25.908 61.172H24.564C24.372 61.172 24.264 61.28 24.264 61.472V62.312ZM24.9 57.896C24.9 58.184 25.104 58.256 25.272 58.016C25.392 57.836 25.5 57.668 25.62 57.488C25.74 57.284 25.656 57.128 25.416 57.128H25.2C25.008 57.128 24.9 57.236 24.9 57.428V57.896ZM39.712 64.208C39.832 64.064 39.976 64.04 40.132 64.16C40.432 64.388 40.792 64.664 41.08 64.904C41.212 65.024 41.284 65.156 41.164 65.3C41.104 65.372 41.02 65.396 40.912 65.396H33.952C33.784 65.396 33.664 65.324 33.616 65.144C33.568 64.988 33.676 64.892 33.892 64.892H36.376C36.568 64.892 36.676 64.784 36.676 64.592V57.176C36.676 56.984 36.568 56.876 36.376 56.876H34.78C34.612 56.876 34.492 56.804 34.444 56.624C34.396 56.468 34.504 56.36 34.72 56.36H38.692C38.848 56.36 38.968 56.3 39.064 56.18L39.448 55.712C39.568 55.556 39.724 55.544 39.868 55.664C40.156 55.892 40.504 56.156 40.792 56.396C40.912 56.504 40.996 56.636 40.888 56.78C40.816 56.852 40.732 56.876 40.636 56.876H38.392C38.2 56.876 38.092 56.984 38.092 57.176V64.592C38.092 64.784 38.2 64.892 38.392 64.892H38.944C39.1 64.892 39.22 64.844 39.316 64.712L39.712 64.208ZM29.98 58.52C29.932 58.424 29.92 58.34 29.944 58.28C29.992 58.16 30.1 58.16 30.184 58.136C30.22 58.112 30.256 58.1 30.28 58.088C30.904 57.512 31.696 56.084 32.008 55.16C32.08 54.98 32.212 54.908 32.392 54.98L33.604 55.448C33.784 55.52 33.892 55.7 33.736 55.832C33.712 55.856 33.688 55.868 33.652 55.88C33.496 55.94 33.388 55.952 33.28 56.084C32.788 56.684 32.104 57.356 31.444 57.92C31.228 58.1 31.024 58.292 31.06 58.292C31.096 58.28 31.12 58.28 31.144 58.28C31.516 58.28 31.96 58.268 32.416 58.244H32.644H32.656C32.704 58.232 32.92 58.172 33.016 58.04C33.208 57.74 33.364 57.464 33.484 57.224C33.568 57.044 33.712 56.984 33.88 57.08L35.008 57.668C35.188 57.764 35.272 57.956 35.092 58.052C35.068 58.064 35.032 58.076 34.996 58.088C34.84 58.124 34.72 58.136 34.624 58.268C33.94 59.06 32.884 60.044 31.852 60.848C31.624 61.028 31.684 61.196 31.972 61.16C32.728 61.076 33.604 60.956 34.48 60.848C34.684 60.824 34.804 60.86 34.804 60.968C34.804 61.076 34.732 61.148 34.576 61.22C33.796 61.556 32.536 62.072 31.06 62.564C30.928 62.612 30.88 62.624 30.88 62.624L30.868 62.636C30.808 62.708 30.556 62.744 30.472 62.54L30.052 61.58C29.968 61.388 30.016 61.28 30.172 61.232C30.28 61.208 30.376 61.172 30.412 61.148C30.856 60.824 31.36 60.308 31.828 59.732C32.02 59.492 31.864 59.276 31.576 59.372C31.3 59.468 31.024 59.564 30.736 59.648C30.712 59.66 30.688 59.684 30.676 59.696C30.676 59.696 30.496 59.66 30.412 59.48L29.98 58.52ZM30.028 64.304C29.944 64.112 30.004 63.968 30.208 63.92C31.144 63.728 32.896 63.332 34.6 62.888C34.804 62.828 34.924 62.84 34.936 62.936C34.948 63.044 34.9 63.116 34.756 63.212C33.916 63.752 32.728 64.448 31.096 65.216C30.964 65.276 30.916 65.312 30.892 65.336C30.892 65.348 30.88 65.36 30.868 65.372C30.76 65.564 30.568 65.492 30.484 65.3L30.028 64.304Z" fill="#7A6855"/>
<circle cx="28" cy="15" r="15" fill="#985649"/>
</svg>
