<svg width="58" height="76" viewBox="0 0 58 76" fill="none" xmlns="http://www.w3.org/2000/svg">
<circle cx="29" cy="15" r="15" fill="url(#paint0_linear_1967_557)"/>
<path d="M21.696 58.584C21.888 58.596 22.044 58.74 21.936 58.908C21.912 58.956 21.864 58.992 21.816 59.028C21.66 59.112 21.564 59.196 21.564 59.364V62.496C21.564 62.736 20.988 62.904 20.544 62.904C20.412 62.904 20.34 62.796 20.34 62.604V58.908C20.34 58.716 20.292 58.608 20.208 58.608C20.16 58.608 20.112 58.608 20.064 58.608C19.932 58.608 19.86 58.5 19.86 58.308V57.828C19.86 57.636 19.752 57.528 19.56 57.528H17.196C17.016 57.528 16.908 57.444 16.872 57.264C16.836 57.108 16.944 57.012 17.148 57.012H19.56C19.752 57.012 19.86 56.904 19.86 56.712V56.004C19.86 55.812 19.98 55.704 20.172 55.716L21.228 55.788C21.42 55.8 21.576 55.932 21.48 56.112C21.444 56.16 21.408 56.196 21.36 56.232C21.204 56.316 21.108 56.4 21.108 56.568V56.712C21.108 56.904 21.216 57.012 21.408 57.012H23.508C23.7 57.012 23.808 56.904 23.808 56.712V56.004C23.808 55.812 23.928 55.704 24.12 55.716L25.188 55.788C25.38 55.8 25.548 55.932 25.452 56.112C25.428 56.16 25.38 56.196 25.332 56.232C25.176 56.316 25.08 56.4 25.08 56.568V56.712C25.08 56.904 25.188 57.012 25.38 57.012H26.04C26.196 57.012 26.316 56.964 26.412 56.844L26.748 56.436C26.868 56.292 27.024 56.268 27.168 56.376C27.444 56.58 27.744 56.82 28.008 57.036C28.128 57.144 28.212 57.276 28.116 57.42C28.056 57.504 27.96 57.528 27.852 57.528H25.38C25.188 57.528 25.08 57.636 25.08 57.828V58.224C25.08 58.308 25.008 58.368 24.888 58.416C24.72 58.488 24.744 58.5 24.804 58.644C24.84 58.704 24.828 58.788 24.756 58.86C24.72 58.896 24.672 58.92 24.624 58.932C24.468 58.992 24.36 59.04 24.288 59.196C24.276 59.22 24.264 59.232 24.264 59.256C24.156 59.46 24.264 59.604 24.492 59.604H25.704C25.86 59.604 25.98 59.556 26.076 59.424L26.436 58.968C26.556 58.812 26.7 58.788 26.856 58.92C27.12 59.136 27.432 59.4 27.684 59.64C27.804 59.748 27.888 59.88 27.792 60.012C27.732 60.096 27.636 60.12 27.528 60.12H24.072C23.916 60.12 23.796 60.18 23.712 60.324C23.244 61.128 22.716 61.824 22.128 62.34C21.996 62.46 21.912 62.496 21.84 62.448C21.768 62.412 21.78 62.304 21.864 62.124C22.368 61.116 22.8 59.748 23.04 58.392C23.076 58.188 23.196 58.116 23.388 58.164L23.472 58.188C23.688 58.248 23.808 58.128 23.808 57.924V57.828C23.808 57.636 23.7 57.528 23.508 57.528H21.408C21.216 57.528 21.108 57.636 21.108 57.828V58.272C21.108 58.272 21.096 58.524 21.348 58.548L21.696 58.584ZM16.944 66.324C16.896 66.156 17.004 66.06 17.22 66.06H17.808C18 66.06 18.108 65.952 18.108 65.76V62.88C18.108 62.664 18.252 62.568 18.456 62.64L19.38 62.964C19.512 63.012 19.62 63.024 19.752 63.024H25.104C25.248 63.024 25.368 62.988 25.476 62.88L25.716 62.664C25.848 62.544 25.98 62.532 26.136 62.64L26.904 63.156C27.072 63.276 27.132 63.432 27 63.54L26.988 63.552C26.916 63.6 26.748 63.72 26.748 63.888V65.76C26.748 65.952 26.772 66.06 26.796 66.06H26.832L27.168 65.568C27.276 65.4 27.432 65.388 27.588 65.52C27.768 65.7 27.96 65.892 28.128 66.084C28.236 66.204 28.296 66.324 28.212 66.468C28.152 66.552 28.068 66.576 27.972 66.576H17.28C17.112 66.576 16.992 66.492 16.944 66.324ZM18.264 62.436C18.204 62.436 18.168 62.328 18.168 62.136V59.148C18.168 58.956 18.288 58.848 18.48 58.86L19.476 58.944C19.68 58.956 19.836 59.1 19.716 59.28C19.692 59.328 19.644 59.364 19.596 59.4C19.44 59.484 19.344 59.568 19.344 59.736V62.052C19.344 62.268 18.84 62.436 18.36 62.436H18.264ZM19.404 65.76C19.404 65.952 19.512 66.06 19.704 66.06H20.256C20.448 66.06 20.556 65.952 20.556 65.76V63.84C20.556 63.648 20.448 63.54 20.256 63.54H19.704C19.512 63.54 19.404 63.648 19.404 63.84V65.76ZM21.804 65.76C21.804 65.952 21.912 66.06 22.104 66.06H22.692C22.884 66.06 22.992 65.952 22.992 65.76V63.84C22.992 63.648 22.884 63.54 22.692 63.54H22.104C21.912 63.54 21.804 63.648 21.804 63.84V65.76ZM24.228 60.636C24.108 60.48 24.06 60.372 24.12 60.324C24.18 60.276 24.288 60.264 24.444 60.3C27 60.936 26.22 62.772 25.212 62.424C25.056 62.376 25.008 62.268 24.984 62.124C24.888 61.62 24.576 61.044 24.228 60.636ZM24.24 65.76C24.24 65.952 24.348 66.06 24.54 66.06H25.116C25.308 66.06 25.416 65.952 25.416 65.76V63.84C25.416 63.648 25.308 63.54 25.116 63.54H24.54C24.348 63.54 24.24 63.648 24.24 63.84V65.76ZM35.272 63.72C35.272 63.912 35.38 64.02 35.572 64.02H35.728C35.92 64.02 36.028 63.912 36.028 63.72V61.896C36.028 61.704 35.92 61.596 35.728 61.596H34.264C34.096 61.596 33.976 61.524 33.928 61.344C33.88 61.188 33.988 61.08 34.204 61.08H35.728C35.92 61.08 36.028 60.972 36.028 60.78V60.216C36.028 60.024 35.944 59.916 35.788 59.916H35.764C35.608 59.916 35.512 59.964 35.392 60.072C35.116 60.36 34.84 60.6 34.564 60.792C34.432 60.888 34.324 60.9 34.264 60.852C34.192 60.804 34.216 60.696 34.312 60.528C34.516 60.18 34.696 59.748 34.864 59.292C34.948 59.016 34.696 58.884 34.492 59.1C34.192 59.424 33.88 59.724 33.544 60C33.4 60.12 33.292 60.144 33.244 60.084C33.196 60.036 33.208 59.928 33.316 59.772C34.012 58.668 34.576 57.168 34.852 56.064C34.9 55.872 35.032 55.8 35.224 55.86L36.4 56.232C36.592 56.292 36.724 56.472 36.556 56.604C36.52 56.628 36.496 56.64 36.448 56.652C36.292 56.7 36.172 56.736 36.088 56.88C36.052 56.964 36.004 57.036 35.968 57.108C35.848 57.324 35.932 57.468 36.172 57.468H39.148C39.292 57.468 39.412 57.432 39.52 57.324L39.844 57.012C39.976 56.88 40.12 56.88 40.264 57L41.056 57.636C41.212 57.756 41.248 57.96 41.068 58.056C41.044 58.068 41.008 58.08 40.972 58.092C40.804 58.152 40.708 58.248 40.708 58.44C40.672 63.42 40.576 65.796 39.976 66.492C39.616 66.912 39.208 67.116 38.668 67.164C38.476 67.176 38.38 67.068 38.368 66.864C38.344 66.648 38.296 66.48 38.14 66.336C37.996 66.192 37.672 66.072 37.264 65.976C37.084 65.928 37 65.856 37 65.736C37 65.628 37.108 65.568 37.312 65.58C37.768 65.628 38.284 65.664 38.512 65.664C38.752 65.664 38.884 65.628 38.956 65.544C39.376 65.088 39.448 62.652 39.484 58.296C39.484 58.092 39.376 57.984 39.184 57.984H35.644C35.488 57.984 35.38 58.02 35.308 58.128C35.308 58.128 35.344 58.308 35.548 58.38L36.352 58.644C36.544 58.704 36.652 58.872 36.508 59.016C36.472 59.052 36.424 59.076 36.364 59.1C36.208 59.148 36.1 59.148 36.028 59.256C36.028 59.256 36.124 59.4 36.364 59.4H37.252C37.408 59.4 37.528 59.352 37.624 59.232L37.816 59.004C37.936 58.86 38.092 58.836 38.236 58.956C38.428 59.1 38.632 59.28 38.824 59.436C38.944 59.544 39.028 59.676 38.932 59.808C38.872 59.892 38.788 59.916 38.692 59.916H37.372C37.18 59.916 37.072 60.024 37.072 60.216V60.78C37.072 60.972 37.18 61.08 37.372 61.08H37.624C37.78 61.08 37.9 61.032 37.996 60.9L38.2 60.636C38.32 60.48 38.464 60.456 38.62 60.576C38.812 60.732 39.04 60.924 39.232 61.104C39.352 61.224 39.412 61.356 39.316 61.5C39.256 61.572 39.172 61.596 39.076 61.596H37.372C37.18 61.596 37.072 61.704 37.072 61.896V63.72C37.072 63.912 37.18 64.02 37.372 64.02H37.54C37.732 64.02 37.84 63.912 37.84 63.72V62.376C37.84 62.184 37.96 62.076 38.152 62.1L38.764 62.16C38.968 62.172 39.124 62.304 39.028 62.46C39.016 62.472 39.016 62.484 39.004 62.496C38.896 62.628 38.788 62.676 38.788 62.844V64.74C38.788 64.944 38.368 65.076 38.02 65.076C37.912 65.076 37.84 64.968 37.84 64.8C37.84 64.632 37.732 64.536 37.54 64.536H35.536C35.38 64.536 35.296 64.572 35.224 64.644C35.104 64.776 34.96 64.812 34.804 64.728L34.336 64.5C34.144 64.404 34.06 64.284 34.144 64.188C34.144 64.176 34.156 64.176 34.156 64.164C34.216 64.104 34.3 64.044 34.324 64.02C34.348 63.996 34.36 63.912 34.36 63.768V62.388C34.36 62.196 34.48 62.088 34.672 62.112L35.272 62.172C35.464 62.196 35.62 62.328 35.512 62.484C35.5 62.496 35.5 62.508 35.488 62.52C35.368 62.64 35.272 62.7 35.272 62.868V63.72ZM30.424 67.104C30.364 67.104 30.316 66.996 30.316 66.804V56.46C30.316 56.244 30.46 56.148 30.664 56.22L31.516 56.52C31.648 56.568 31.756 56.58 31.888 56.58H32.272C32.416 56.58 32.524 56.544 32.644 56.436L32.908 56.208C33.052 56.076 33.196 56.076 33.34 56.208L34.156 56.928C34.3 57.06 34.36 57.264 34.168 57.336C34.132 57.348 34.084 57.36 34.036 57.36C33.868 57.384 33.76 57.432 33.688 57.588C33.352 58.248 32.848 59.184 32.416 59.844C32.32 60.012 32.344 60.144 32.476 60.264C33.4 61.092 33.82 62.124 33.82 63.024C33.832 64.128 33.484 64.752 32.524 64.884C32.32 64.908 32.212 64.8 32.2 64.596C32.188 64.38 32.14 64.164 32.056 64.044C32.032 63.996 31.948 63.948 31.828 63.912C31.66 63.852 31.564 63.78 31.564 63.672C31.564 63.564 31.672 63.504 31.864 63.504H32.2C32.32 63.504 32.416 63.492 32.464 63.456C32.656 63.312 32.692 63.12 32.692 62.76C32.692 61.968 32.524 61.164 32.02 60.372C31.936 60.228 31.924 60.12 31.96 59.964C32.14 59.28 32.356 58.248 32.5 57.42C32.536 57.216 32.44 57.096 32.236 57.096H31.84C31.648 57.096 31.54 57.204 31.54 57.396V66.66C31.54 66.852 31.156 67.104 30.532 67.104H30.424Z" fill="#7A6855"/>
<defs>
<linearGradient id="paint0_linear_1967_557" x1="24" y1="3" x2="41.5" y2="23" gradientUnits="userSpaceOnUse">
<stop stop-color="#A9B8EF"/>
<stop offset="1" stop-color="#182767"/>
</linearGradient>
</defs>
</svg>
