<svg width="58" height="76" viewBox="0 0 58 76" fill="none" xmlns="http://www.w3.org/2000/svg">
<circle cx="29" cy="15" r="15" fill="url(#paint0_linear_1967_556)"/>
<path d="M18.144 58.032C18.144 57.816 18.288 57.708 18.492 57.78L19.524 58.164C19.644 58.212 19.764 58.224 19.896 58.224H20.808C20.988 58.224 21.096 58.14 21.132 57.96C21.276 57.336 21.408 56.616 21.504 56.028C21.54 55.836 21.66 55.752 21.852 55.788L23.292 56.088C23.484 56.124 23.628 56.292 23.484 56.46C23.448 56.508 23.4 56.532 23.328 56.556C23.184 56.604 23.064 56.628 22.968 56.748C22.668 57.084 22.332 57.492 21.984 57.864C21.804 58.056 21.876 58.224 22.14 58.224H25.08C25.224 58.224 25.344 58.176 25.452 58.068L25.824 57.696C25.956 57.564 26.1 57.552 26.244 57.66L27.276 58.428C27.444 58.56 27.468 58.728 27.3 58.848C27.252 58.884 27.204 58.908 27.144 58.932C26.976 59.004 26.892 59.1 26.892 59.268V66.48C26.868 66.72 26.16 67.008 25.656 67.008C25.512 67.008 25.428 66.9 25.428 66.708V66.276C25.428 66.084 25.32 65.976 25.128 65.976H19.896C19.704 65.976 19.596 66.084 19.596 66.276V66.516C19.596 66.792 18.972 67.056 18.384 67.056C18.228 67.056 18.144 66.948 18.144 66.756V58.032ZM19.596 65.16C19.596 65.352 19.704 65.46 19.896 65.46H25.128C25.32 65.46 25.428 65.352 25.428 65.16V62.592C25.428 62.4 25.32 62.292 25.128 62.292H19.896C19.704 62.292 19.596 62.4 19.596 62.592V65.16ZM19.596 61.476C19.596 61.668 19.704 61.776 19.896 61.776H25.128C25.32 61.776 25.428 61.668 25.428 61.476V59.028C25.428 58.836 25.32 58.728 25.128 58.728H19.896C19.704 58.728 19.596 58.836 19.596 59.028V61.476ZM35.272 63.72C35.272 63.912 35.38 64.02 35.572 64.02H35.728C35.92 64.02 36.028 63.912 36.028 63.72V61.896C36.028 61.704 35.92 61.596 35.728 61.596H34.264C34.096 61.596 33.976 61.524 33.928 61.344C33.88 61.188 33.988 61.08 34.204 61.08H35.728C35.92 61.08 36.028 60.972 36.028 60.78V60.216C36.028 60.024 35.944 59.916 35.788 59.916H35.764C35.608 59.916 35.512 59.964 35.392 60.072C35.116 60.36 34.84 60.6 34.564 60.792C34.432 60.888 34.324 60.9 34.264 60.852C34.192 60.804 34.216 60.696 34.312 60.528C34.516 60.18 34.696 59.748 34.864 59.292C34.948 59.016 34.696 58.884 34.492 59.1C34.192 59.424 33.88 59.724 33.544 60C33.4 60.12 33.292 60.144 33.244 60.084C33.196 60.036 33.208 59.928 33.316 59.772C34.012 58.668 34.576 57.168 34.852 56.064C34.9 55.872 35.032 55.8 35.224 55.86L36.4 56.232C36.592 56.292 36.724 56.472 36.556 56.604C36.52 56.628 36.496 56.64 36.448 56.652C36.292 56.7 36.172 56.736 36.088 56.88C36.052 56.964 36.004 57.036 35.968 57.108C35.848 57.324 35.932 57.468 36.172 57.468H39.148C39.292 57.468 39.412 57.432 39.52 57.324L39.844 57.012C39.976 56.88 40.12 56.88 40.264 57L41.056 57.636C41.212 57.756 41.248 57.96 41.068 58.056C41.044 58.068 41.008 58.08 40.972 58.092C40.804 58.152 40.708 58.248 40.708 58.44C40.672 63.42 40.576 65.796 39.976 66.492C39.616 66.912 39.208 67.116 38.668 67.164C38.476 67.176 38.38 67.068 38.368 66.864C38.344 66.648 38.296 66.48 38.14 66.336C37.996 66.192 37.672 66.072 37.264 65.976C37.084 65.928 37 65.856 37 65.736C37 65.628 37.108 65.568 37.312 65.58C37.768 65.628 38.284 65.664 38.512 65.664C38.752 65.664 38.884 65.628 38.956 65.544C39.376 65.088 39.448 62.652 39.484 58.296C39.484 58.092 39.376 57.984 39.184 57.984H35.644C35.488 57.984 35.38 58.02 35.308 58.128C35.308 58.128 35.344 58.308 35.548 58.38L36.352 58.644C36.544 58.704 36.652 58.872 36.508 59.016C36.472 59.052 36.424 59.076 36.364 59.1C36.208 59.148 36.1 59.148 36.028 59.256C36.028 59.256 36.124 59.4 36.364 59.4H37.252C37.408 59.4 37.528 59.352 37.624 59.232L37.816 59.004C37.936 58.86 38.092 58.836 38.236 58.956C38.428 59.1 38.632 59.28 38.824 59.436C38.944 59.544 39.028 59.676 38.932 59.808C38.872 59.892 38.788 59.916 38.692 59.916H37.372C37.18 59.916 37.072 60.024 37.072 60.216V60.78C37.072 60.972 37.18 61.08 37.372 61.08H37.624C37.78 61.08 37.9 61.032 37.996 60.9L38.2 60.636C38.32 60.48 38.464 60.456 38.62 60.576C38.812 60.732 39.04 60.924 39.232 61.104C39.352 61.224 39.412 61.356 39.316 61.5C39.256 61.572 39.172 61.596 39.076 61.596H37.372C37.18 61.596 37.072 61.704 37.072 61.896V63.72C37.072 63.912 37.18 64.02 37.372 64.02H37.54C37.732 64.02 37.84 63.912 37.84 63.72V62.376C37.84 62.184 37.96 62.076 38.152 62.1L38.764 62.16C38.968 62.172 39.124 62.304 39.028 62.46C39.016 62.472 39.016 62.484 39.004 62.496C38.896 62.628 38.788 62.676 38.788 62.844V64.74C38.788 64.944 38.368 65.076 38.02 65.076C37.912 65.076 37.84 64.968 37.84 64.8C37.84 64.632 37.732 64.536 37.54 64.536H35.536C35.38 64.536 35.296 64.572 35.224 64.644C35.104 64.776 34.96 64.812 34.804 64.728L34.336 64.5C34.144 64.404 34.06 64.284 34.144 64.188C34.144 64.176 34.156 64.176 34.156 64.164C34.216 64.104 34.3 64.044 34.324 64.02C34.348 63.996 34.36 63.912 34.36 63.768V62.388C34.36 62.196 34.48 62.088 34.672 62.112L35.272 62.172C35.464 62.196 35.62 62.328 35.512 62.484C35.5 62.496 35.5 62.508 35.488 62.52C35.368 62.64 35.272 62.7 35.272 62.868V63.72ZM30.424 67.104C30.364 67.104 30.316 66.996 30.316 66.804V56.46C30.316 56.244 30.46 56.148 30.664 56.22L31.516 56.52C31.648 56.568 31.756 56.58 31.888 56.58H32.272C32.416 56.58 32.524 56.544 32.644 56.436L32.908 56.208C33.052 56.076 33.196 56.076 33.34 56.208L34.156 56.928C34.3 57.06 34.36 57.264 34.168 57.336C34.132 57.348 34.084 57.36 34.036 57.36C33.868 57.384 33.76 57.432 33.688 57.588C33.352 58.248 32.848 59.184 32.416 59.844C32.32 60.012 32.344 60.144 32.476 60.264C33.4 61.092 33.82 62.124 33.82 63.024C33.832 64.128 33.484 64.752 32.524 64.884C32.32 64.908 32.212 64.8 32.2 64.596C32.188 64.38 32.14 64.164 32.056 64.044C32.032 63.996 31.948 63.948 31.828 63.912C31.66 63.852 31.564 63.78 31.564 63.672C31.564 63.564 31.672 63.504 31.864 63.504H32.2C32.32 63.504 32.416 63.492 32.464 63.456C32.656 63.312 32.692 63.12 32.692 62.76C32.692 61.968 32.524 61.164 32.02 60.372C31.936 60.228 31.924 60.12 31.96 59.964C32.14 59.28 32.356 58.248 32.5 57.42C32.536 57.216 32.44 57.096 32.236 57.096H31.84C31.648 57.096 31.54 57.204 31.54 57.396V66.66C31.54 66.852 31.156 67.104 30.532 67.104H30.424Z" fill="#7A6855"/>
<defs>
<linearGradient id="paint0_linear_1967_556" x1="24" y1="3" x2="41.5" y2="23" gradientUnits="userSpaceOnUse">
<stop stop-color="white"/>
<stop offset="1" stop-color="#E8E8E8"/>
</linearGradient>
</defs>
</svg>
