<svg width="58" height="75" viewBox="0 0 58 75" fill="none" xmlns="http://www.w3.org/2000/svg">
<circle cx="28" cy="15" r="15" fill="url(#paint0_linear_1967_558)"/>
<path d="M26.712 64.208C26.832 64.064 26.976 64.04 27.132 64.16C27.432 64.388 27.792 64.664 28.08 64.904C28.212 65.024 28.284 65.156 28.164 65.3C28.104 65.372 28.02 65.396 27.912 65.396H20.952C20.784 65.396 20.664 65.324 20.616 65.144C20.568 64.988 20.676 64.892 20.892 64.892H23.376C23.568 64.892 23.676 64.784 23.676 64.592V57.176C23.676 56.984 23.568 56.876 23.376 56.876H21.78C21.612 56.876 21.492 56.804 21.444 56.624C21.396 56.468 21.504 56.36 21.72 56.36H25.692C25.848 56.36 25.968 56.3 26.064 56.18L26.448 55.712C26.568 55.556 26.724 55.544 26.868 55.664C27.156 55.892 27.504 56.156 27.792 56.396C27.912 56.504 27.996 56.636 27.888 56.78C27.816 56.852 27.732 56.876 27.636 56.876H25.392C25.2 56.876 25.092 56.984 25.092 57.176V64.592C25.092 64.784 25.2 64.892 25.392 64.892H25.944C26.1 64.892 26.22 64.844 26.316 64.712L26.712 64.208ZM16.98 58.52C16.932 58.424 16.92 58.34 16.944 58.28C16.992 58.16 17.1 58.16 17.184 58.136C17.22 58.112 17.256 58.1 17.28 58.088C17.904 57.512 18.696 56.084 19.008 55.16C19.08 54.98 19.212 54.908 19.392 54.98L20.604 55.448C20.784 55.52 20.892 55.7 20.736 55.832C20.712 55.856 20.688 55.868 20.652 55.88C20.496 55.94 20.388 55.952 20.28 56.084C19.788 56.684 19.104 57.356 18.444 57.92C18.228 58.1 18.024 58.292 18.06 58.292C18.096 58.28 18.12 58.28 18.144 58.28C18.516 58.28 18.96 58.268 19.416 58.244H19.644H19.656C19.704 58.232 19.92 58.172 20.016 58.04C20.208 57.74 20.364 57.464 20.484 57.224C20.568 57.044 20.712 56.984 20.88 57.08L22.008 57.668C22.188 57.764 22.272 57.956 22.092 58.052C22.068 58.064 22.032 58.076 21.996 58.088C21.84 58.124 21.72 58.136 21.624 58.268C20.94 59.06 19.884 60.044 18.852 60.848C18.624 61.028 18.684 61.196 18.972 61.16C19.728 61.076 20.604 60.956 21.48 60.848C21.684 60.824 21.804 60.86 21.804 60.968C21.804 61.076 21.732 61.148 21.576 61.22C20.796 61.556 19.536 62.072 18.06 62.564C17.928 62.612 17.88 62.624 17.88 62.624L17.868 62.636C17.808 62.708 17.556 62.744 17.472 62.54L17.052 61.58C16.968 61.388 17.016 61.28 17.172 61.232C17.28 61.208 17.376 61.172 17.412 61.148C17.856 60.824 18.36 60.308 18.828 59.732C19.02 59.492 18.864 59.276 18.576 59.372C18.3 59.468 18.024 59.564 17.736 59.648C17.712 59.66 17.688 59.684 17.676 59.696C17.676 59.696 17.496 59.66 17.412 59.48L16.98 58.52ZM17.028 64.304C16.944 64.112 17.004 63.968 17.208 63.92C18.144 63.728 19.896 63.332 21.6 62.888C21.804 62.828 21.924 62.84 21.936 62.936C21.948 63.044 21.9 63.116 21.756 63.212C20.916 63.752 19.728 64.448 18.096 65.216C17.964 65.276 17.916 65.312 17.892 65.336C17.892 65.348 17.88 65.36 17.868 65.372C17.76 65.564 17.568 65.492 17.484 65.3L17.028 64.304ZM35.272 62.72C35.272 62.912 35.38 63.02 35.572 63.02H35.728C35.92 63.02 36.028 62.912 36.028 62.72V60.896C36.028 60.704 35.92 60.596 35.728 60.596H34.264C34.096 60.596 33.976 60.524 33.928 60.344C33.88 60.188 33.988 60.08 34.204 60.08H35.728C35.92 60.08 36.028 59.972 36.028 59.78V59.216C36.028 59.024 35.944 58.916 35.788 58.916H35.764C35.608 58.916 35.512 58.964 35.392 59.072C35.116 59.36 34.84 59.6 34.564 59.792C34.432 59.888 34.324 59.9 34.264 59.852C34.192 59.804 34.216 59.696 34.312 59.528C34.516 59.18 34.696 58.748 34.864 58.292C34.948 58.016 34.696 57.884 34.492 58.1C34.192 58.424 33.88 58.724 33.544 59C33.4 59.12 33.292 59.144 33.244 59.084C33.196 59.036 33.208 58.928 33.316 58.772C34.012 57.668 34.576 56.168 34.852 55.064C34.9 54.872 35.032 54.8 35.224 54.86L36.4 55.232C36.592 55.292 36.724 55.472 36.556 55.604C36.52 55.628 36.496 55.64 36.448 55.652C36.292 55.7 36.172 55.736 36.088 55.88C36.052 55.964 36.004 56.036 35.968 56.108C35.848 56.324 35.932 56.468 36.172 56.468H39.148C39.292 56.468 39.412 56.432 39.52 56.324L39.844 56.012C39.976 55.88 40.12 55.88 40.264 56L41.056 56.636C41.212 56.756 41.248 56.96 41.068 57.056C41.044 57.068 41.008 57.08 40.972 57.092C40.804 57.152 40.708 57.248 40.708 57.44C40.672 62.42 40.576 64.796 39.976 65.492C39.616 65.912 39.208 66.116 38.668 66.164C38.476 66.176 38.38 66.068 38.368 65.864C38.344 65.648 38.296 65.48 38.14 65.336C37.996 65.192 37.672 65.072 37.264 64.976C37.084 64.928 37 64.856 37 64.736C37 64.628 37.108 64.568 37.312 64.58C37.768 64.628 38.284 64.664 38.512 64.664C38.752 64.664 38.884 64.628 38.956 64.544C39.376 64.088 39.448 61.652 39.484 57.296C39.484 57.092 39.376 56.984 39.184 56.984H35.644C35.488 56.984 35.38 57.02 35.308 57.128C35.308 57.128 35.344 57.308 35.548 57.38L36.352 57.644C36.544 57.704 36.652 57.872 36.508 58.016C36.472 58.052 36.424 58.076 36.364 58.1C36.208 58.148 36.1 58.148 36.028 58.256C36.028 58.256 36.124 58.4 36.364 58.4H37.252C37.408 58.4 37.528 58.352 37.624 58.232L37.816 58.004C37.936 57.86 38.092 57.836 38.236 57.956C38.428 58.1 38.632 58.28 38.824 58.436C38.944 58.544 39.028 58.676 38.932 58.808C38.872 58.892 38.788 58.916 38.692 58.916H37.372C37.18 58.916 37.072 59.024 37.072 59.216V59.78C37.072 59.972 37.18 60.08 37.372 60.08H37.624C37.78 60.08 37.9 60.032 37.996 59.9L38.2 59.636C38.32 59.48 38.464 59.456 38.62 59.576C38.812 59.732 39.04 59.924 39.232 60.104C39.352 60.224 39.412 60.356 39.316 60.5C39.256 60.572 39.172 60.596 39.076 60.596H37.372C37.18 60.596 37.072 60.704 37.072 60.896V62.72C37.072 62.912 37.18 63.02 37.372 63.02H37.54C37.732 63.02 37.84 62.912 37.84 62.72V61.376C37.84 61.184 37.96 61.076 38.152 61.1L38.764 61.16C38.968 61.172 39.124 61.304 39.028 61.46C39.016 61.472 39.016 61.484 39.004 61.496C38.896 61.628 38.788 61.676 38.788 61.844V63.74C38.788 63.944 38.368 64.076 38.02 64.076C37.912 64.076 37.84 63.968 37.84 63.8C37.84 63.632 37.732 63.536 37.54 63.536H35.536C35.38 63.536 35.296 63.572 35.224 63.644C35.104 63.776 34.96 63.812 34.804 63.728L34.336 63.5C34.144 63.404 34.06 63.284 34.144 63.188C34.144 63.176 34.156 63.176 34.156 63.164C34.216 63.104 34.3 63.044 34.324 63.02C34.348 62.996 34.36 62.912 34.36 62.768V61.388C34.36 61.196 34.48 61.088 34.672 61.112L35.272 61.172C35.464 61.196 35.62 61.328 35.512 61.484C35.5 61.496 35.5 61.508 35.488 61.52C35.368 61.64 35.272 61.7 35.272 61.868V62.72ZM30.424 66.104C30.364 66.104 30.316 65.996 30.316 65.804V55.46C30.316 55.244 30.46 55.148 30.664 55.22L31.516 55.52C31.648 55.568 31.756 55.58 31.888 55.58H32.272C32.416 55.58 32.524 55.544 32.644 55.436L32.908 55.208C33.052 55.076 33.196 55.076 33.34 55.208L34.156 55.928C34.3 56.06 34.36 56.264 34.168 56.336C34.132 56.348 34.084 56.36 34.036 56.36C33.868 56.384 33.76 56.432 33.688 56.588C33.352 57.248 32.848 58.184 32.416 58.844C32.32 59.012 32.344 59.144 32.476 59.264C33.4 60.092 33.82 61.124 33.82 62.024C33.832 63.128 33.484 63.752 32.524 63.884C32.32 63.908 32.212 63.8 32.2 63.596C32.188 63.38 32.14 63.164 32.056 63.044C32.032 62.996 31.948 62.948 31.828 62.912C31.66 62.852 31.564 62.78 31.564 62.672C31.564 62.564 31.672 62.504 31.864 62.504H32.2C32.32 62.504 32.416 62.492 32.464 62.456C32.656 62.312 32.692 62.12 32.692 61.76C32.692 60.968 32.524 60.164 32.02 59.372C31.936 59.228 31.924 59.12 31.96 58.964C32.14 58.28 32.356 57.248 32.5 56.42C32.536 56.216 32.44 56.096 32.236 56.096H31.84C31.648 56.096 31.54 56.204 31.54 56.396V65.66C31.54 65.852 31.156 66.104 30.532 66.104H30.424Z" fill="#7A6855"/>
<defs>
<linearGradient id="paint0_linear_1967_558" x1="23" y1="3" x2="40.5" y2="23" gradientUnits="userSpaceOnUse">
<stop stop-color="#E5A0A0"/>
<stop offset="1" stop-color="#862A2A"/>
</linearGradient>
</defs>
</svg>
