<svg width="32" height="16" viewBox="0 0 32 16" fill="none" xmlns="http://www.w3.org/2000/svg">
    <path d="M3.808 0.559999H4.96V5.152H3.808V0.559999ZM3.808 9.44H4.96V15.264H3.808V9.44ZM2.368 7.856V9.216H6.496V7.856H2.368ZM2.368 5.648V6.976H6.496V5.648H2.368ZM1.28 4.704H7.632V10.144H1.28V4.704ZM0.832 2.352H8.064V3.44H0.832V2.352ZM9.52 5.152H14.128V6.24H9.52V5.152ZM9.52 1.328H14.128V2.432H9.52V1.328ZM9.472 8.96H14.144V10.064H9.472V8.96ZM0.64 11.424H8.096V12.512H0.64V11.424ZM13.504 1.328H14.688V13.792C14.688 14.496 14.528 14.864 14.08 15.056C13.632 15.264 12.912 15.28 11.744 15.28C11.696 14.976 11.52 14.416 11.36 14.096C12.192 14.128 12.96 14.128 13.184 14.112C13.424 14.096 13.504 14.032 13.504 13.776V1.328ZM8.96 1.328H10.112V7.248C10.112 9.792 9.792 13.152 7.632 15.312C7.456 15.104 6.96 14.752 6.704 14.624C8.752 12.576 8.96 9.616 8.96 7.248V1.328ZM21.168 6.064L31.088 4.816L31.264 5.952L21.344 7.2L21.168 6.064ZM27.424 1.472L28.304 0.895999C29.264 1.664 30.4 2.752 30.944 3.488L30.016 4.128C29.504 3.408 28.368 2.272 27.424 1.472ZM20.992 0.735999L22.128 1.104C20.928 3.904 19.024 6.656 17.024 8.448C16.896 8.16 16.544 7.552 16.32 7.28C18.176 5.728 19.936 3.264 20.992 0.735999ZM19.184 4.992L20.4 3.792V3.808V15.264H19.184V4.992ZM24.752 0.799999H25.968C26.192 7.984 27.296 13.632 29.712 13.856C30.16 13.888 30.432 12.944 30.592 11.072C30.832 11.312 31.36 11.616 31.584 11.712C31.248 14.496 30.592 15.312 29.76 15.28C26.16 15.024 25.104 8.976 24.752 0.799999Z"
          fill="#9A764E"/>
</svg>
