<svg width="58" height="76" viewBox="0 0 58 76" fill="none" xmlns="http://www.w3.org/2000/svg">
<path d="M18.852 60.912C18.852 60.696 18.996 60.588 19.2 60.66L20.1 60.996C20.22 61.044 20.34 61.056 20.472 61.056H24.624C24.768 61.056 24.888 61.008 24.996 60.9L25.26 60.636C25.392 60.504 25.536 60.504 25.68 60.6L26.604 61.236C26.772 61.344 26.82 61.536 26.652 61.644C26.628 61.656 26.592 61.68 26.556 61.692C26.4 61.764 26.316 61.872 26.316 62.04V65.664C26.316 66.408 26.112 66.9 24.804 67.068C24.6 67.092 24.492 66.996 24.456 66.804C24.42 66.612 24.36 66.468 24.192 66.324C24.036 66.204 23.82 66.096 23.352 66.012C23.16 65.976 23.064 65.904 23.064 65.796C23.064 65.688 23.148 65.64 23.304 65.64C23.376 65.64 23.46 65.652 23.544 65.652C24.048 65.688 24.528 65.712 24.696 65.712C24.924 65.712 24.948 65.676 24.948 65.556V64.872C24.948 64.68 24.84 64.572 24.648 64.572H20.496C20.304 64.572 20.196 64.68 20.196 64.872V66.624C20.196 66.876 19.584 67.092 19.056 67.092C18.924 67.092 18.852 66.984 18.852 66.792V60.912ZM17.028 60C16.98 59.844 17.088 59.748 17.304 59.748H21.48C21.672 59.748 21.78 59.64 21.78 59.448V59.1C21.78 58.908 21.672 58.8 21.48 58.8H18.6C18.432 58.8 18.312 58.728 18.264 58.548C18.216 58.392 18.324 58.296 18.54 58.296H21.48C21.672 58.296 21.78 58.188 21.78 57.996V57.708C21.78 57.516 21.672 57.408 21.48 57.408H18.084C17.916 57.408 17.796 57.336 17.748 57.156C17.7 57 17.808 56.892 18.024 56.892H21.48C21.672 56.892 21.78 56.784 21.78 56.592V56.076C21.78 55.884 21.9 55.776 22.092 55.788L23.28 55.884C23.472 55.896 23.628 56.028 23.532 56.208C23.496 56.256 23.46 56.304 23.4 56.34C23.244 56.424 23.148 56.496 23.148 56.652C23.148 56.808 23.256 56.892 23.448 56.892H25.26C25.416 56.892 25.536 56.844 25.632 56.724L26.004 56.292C26.124 56.148 26.28 56.136 26.424 56.244C26.712 56.448 27.048 56.7 27.324 56.928C27.456 57.036 27.54 57.18 27.42 57.312C27.36 57.384 27.276 57.408 27.168 57.408H23.448C23.256 57.408 23.148 57.516 23.148 57.708V57.996C23.148 58.188 23.256 58.296 23.448 58.296H24.888C25.044 58.296 25.164 58.248 25.26 58.128L25.608 57.732C25.728 57.588 25.884 57.564 26.028 57.684C26.292 57.876 26.616 58.104 26.88 58.32C27.012 58.428 27.096 58.572 26.976 58.704C26.916 58.776 26.832 58.8 26.736 58.8H23.448C23.256 58.8 23.148 58.908 23.148 59.1V59.448C23.148 59.64 23.256 59.748 23.448 59.748H25.812C25.968 59.748 26.088 59.7 26.184 59.58L26.556 59.136C26.676 58.992 26.832 58.98 26.976 59.088C27.276 59.304 27.612 59.556 27.9 59.784C28.032 59.892 28.116 60.036 27.996 60.168C27.936 60.228 27.84 60.252 27.744 60.252H17.364C17.196 60.252 17.076 60.168 17.028 60ZM20.196 63.756C20.196 63.948 20.304 64.056 20.496 64.056H24.648C24.84 64.056 24.948 63.948 24.948 63.756V63.36C24.948 63.168 24.84 63.06 24.648 63.06H20.496C20.304 63.06 20.196 63.168 20.196 63.36V63.756ZM20.196 62.244C20.196 62.436 20.304 62.544 20.496 62.544H24.648C24.84 62.544 24.948 62.436 24.948 62.244V61.872C24.948 61.68 24.84 61.572 24.648 61.572H20.496C20.304 61.572 20.196 61.68 20.196 61.872V62.244ZM34.144 63.612C34.204 63.54 34.3 63.516 34.48 63.54C36.772 63.78 36.328 65.256 35.488 65.148C35.344 65.124 35.272 65.028 35.188 64.896C35.008 64.572 34.636 64.2 34.3 63.912C34.144 63.78 34.084 63.684 34.144 63.612ZM30.1 61.74C30.052 61.584 30.16 61.488 30.376 61.488H31C31.252 61.488 31.396 61.452 31.324 61.368C31.288 61.308 31.252 61.26 31.228 61.188C31.168 61.056 31.18 60.96 31.192 60.816C31.288 60.036 31.252 59.676 30.964 59.556C30.868 59.52 30.772 59.484 30.652 59.46C30.472 59.424 30.376 59.34 30.376 59.208C30.376 59.076 30.484 59.004 30.676 59.004H31.024C31.24 59.004 31.3 58.992 31.456 58.848C31.768 58.584 31.78 58.584 33.772 56.64C33.916 56.496 34.024 56.448 34.096 56.496C34.156 56.544 34.144 56.652 34.024 56.82C33.928 56.964 33.808 57.12 33.676 57.288L33.424 57.624C32.992 58.188 32.56 58.764 32.464 58.908C32.296 59.172 32.176 59.388 32.176 59.532C32.176 59.652 32.224 59.76 32.308 59.952C32.392 60.144 32.512 60.42 32.488 60.804C32.488 60.972 32.44 61.116 32.368 61.236C32.224 61.44 32.212 61.488 32.452 61.488H38.776C38.932 61.488 39.028 61.452 39.136 61.332C39.256 61.2 39.196 61.08 38.992 60.972C38.092 60.516 37.576 59.82 37.276 59.112C37.18 58.896 37.096 58.908 37.012 59.112C36.628 60.012 35.74 60.768 33.232 61.344C33.04 61.38 32.92 61.344 32.872 61.212C32.824 61.104 32.908 60.996 33.1 60.924C35.464 60.048 35.848 59.112 35.944 57.924C35.968 57.732 36.076 57.636 36.268 57.648L37.36 57.732C37.552 57.744 37.708 57.888 37.6 58.056C37.576 58.104 37.54 58.14 37.492 58.164C37.348 58.26 37.252 58.236 37.252 58.272C37.24 58.296 37.264 58.38 37.348 58.5C37.756 59.112 38.74 59.628 40.54 59.94C40.732 59.976 40.828 60.048 40.828 60.144C40.816 60.24 40.732 60.312 40.552 60.36C40.348 60.42 40.192 60.504 40.072 60.612C39.94 60.744 39.988 60.9 40.144 61.008C40.336 61.152 40.576 61.332 40.804 61.512C40.936 61.62 41.02 61.764 40.912 61.896C40.84 61.968 40.756 61.992 40.648 61.992H34.636C34.468 61.992 34.348 62.064 34.288 62.232L34.168 62.544C34.084 62.76 34.18 62.892 34.396 62.892H36.988C37.144 62.892 37.252 62.832 37.348 62.724L37.528 62.532C37.648 62.4 37.792 62.364 37.948 62.472L38.812 63.036C38.992 63.144 39.04 63.336 38.86 63.432C38.836 63.444 38.812 63.456 38.788 63.456C38.632 63.528 38.548 63.552 38.524 63.636C38.512 63.684 38.512 63.72 38.5 63.756L38.404 64.188C38.248 64.944 38.164 65.34 38.164 65.544C38.176 65.664 38.236 65.688 38.512 65.688H39.664C40.036 65.688 40.12 65.664 40.156 65.58C40.264 65.34 40.384 64.98 40.48 64.596C40.516 64.416 40.564 64.332 40.6 64.332C40.636 64.332 40.66 64.428 40.66 64.632L40.648 65.268C40.648 65.436 40.732 65.556 40.9 65.628C41.14 65.724 41.224 65.832 41.224 66.06C41.224 66.588 40.768 66.9 39.676 66.9H38.32C37.216 66.9 36.892 66.528 36.88 65.664C36.868 65.364 36.928 65.052 37.012 64.572C37.072 64.332 37.12 64.056 37.18 63.732C37.216 63.528 37.108 63.408 36.904 63.408H34.084C33.916 63.408 33.796 63.48 33.736 63.648C33.496 64.236 33.256 64.836 33.064 65.292C32.98 65.508 33.076 65.64 33.304 65.616C34.072 65.556 34.96 65.46 35.824 65.364C36.028 65.34 36.148 65.376 36.148 65.496C36.148 65.616 36.076 65.7 35.908 65.76C34.972 66.072 33.568 66.516 31.924 66.924C31.924 66.924 31.684 66.984 31.576 66.804L31.108 66.012C31.012 65.856 31.06 65.724 31.216 65.604C31.384 65.472 31.576 65.292 31.672 65.124C31.876 64.776 32.428 63.312 32.776 62.34C32.848 62.124 32.752 61.992 32.536 61.992H30.436C30.268 61.992 30.148 61.908 30.1 61.74ZM30.616 56.46C30.46 56.328 30.388 56.232 30.448 56.172C30.508 56.112 30.616 56.076 30.784 56.088C33.352 56.244 32.788 58.056 31.768 57.84C31.624 57.804 31.552 57.72 31.516 57.6C31.36 57.216 31 56.772 30.616 56.46ZM32.992 59.448C32.932 59.4 32.98 59.292 33.1 59.148C33.808 58.332 34.384 57.072 34.66 55.956C34.696 55.776 34.828 55.692 35.008 55.716L36.268 55.908C36.472 55.944 36.64 56.136 36.46 56.256C36.436 56.28 36.4 56.292 36.352 56.304C36.184 56.34 36.076 56.376 35.992 56.532C35.956 56.592 35.92 56.652 35.884 56.712C35.764 56.928 35.848 57.072 36.088 57.072H38.704C38.848 57.072 38.956 57.036 39.076 56.928L39.388 56.652C39.532 56.52 39.676 56.52 39.82 56.652L40.624 57.36C40.78 57.504 40.816 57.708 40.636 57.756C40.612 57.768 40.576 57.768 40.552 57.78C40.396 57.804 40.288 57.828 40.18 57.924C39.784 58.248 39.28 58.596 38.86 58.836C38.716 58.92 38.62 58.932 38.572 58.896C38.524 58.872 38.524 58.764 38.596 58.584C38.668 58.38 38.74 58.152 38.812 57.924C38.884 57.72 38.776 57.588 38.56 57.588H35.512C35.356 57.588 35.248 57.636 35.14 57.768C34.6 58.416 33.964 58.992 33.304 59.4C33.16 59.496 33.052 59.508 32.992 59.448Z" fill="#7A6855"/>
<circle cx="29" cy="15" r="15" fill="url(#paint0_linear_2169_657)"/>
<defs>
<linearGradient id="paint0_linear_2169_657" x1="24" y1="3" x2="41.5" y2="23" gradientUnits="userSpaceOnUse">
<stop stop-color="#A9B8EF"/>
<stop offset="1" stop-color="#4A64D8"/>
</linearGradient>
</defs>
</svg>
