<svg width="58" height="75" viewBox="0 0 58 75" fill="none" xmlns="http://www.w3.org/2000/svg">
<circle cx="28" cy="15" r="15" fill="url(#paint0_linear_2169_656)"/>
<path d="M18.144 57.032C18.144 56.816 18.288 56.708 18.492 56.78L19.524 57.164C19.644 57.212 19.764 57.224 19.896 57.224H20.808C20.988 57.224 21.096 57.14 21.132 56.96C21.276 56.336 21.408 55.616 21.504 55.028C21.54 54.836 21.66 54.752 21.852 54.788L23.292 55.088C23.484 55.124 23.628 55.292 23.484 55.46C23.448 55.508 23.4 55.532 23.328 55.556C23.184 55.604 23.064 55.628 22.968 55.748C22.668 56.084 22.332 56.492 21.984 56.864C21.804 57.056 21.876 57.224 22.14 57.224H25.08C25.224 57.224 25.344 57.176 25.452 57.068L25.824 56.696C25.956 56.564 26.1 56.552 26.244 56.66L27.276 57.428C27.444 57.56 27.468 57.728 27.3 57.848C27.252 57.884 27.204 57.908 27.144 57.932C26.976 58.004 26.892 58.1 26.892 58.268V65.48C26.868 65.72 26.16 66.008 25.656 66.008C25.512 66.008 25.428 65.9 25.428 65.708V65.276C25.428 65.084 25.32 64.976 25.128 64.976H19.896C19.704 64.976 19.596 65.084 19.596 65.276V65.516C19.596 65.792 18.972 66.056 18.384 66.056C18.228 66.056 18.144 65.948 18.144 65.756V57.032ZM19.596 64.16C19.596 64.352 19.704 64.46 19.896 64.46H25.128C25.32 64.46 25.428 64.352 25.428 64.16V61.592C25.428 61.4 25.32 61.292 25.128 61.292H19.896C19.704 61.292 19.596 61.4 19.596 61.592V64.16ZM19.596 60.476C19.596 60.668 19.704 60.776 19.896 60.776H25.128C25.32 60.776 25.428 60.668 25.428 60.476V58.028C25.428 57.836 25.32 57.728 25.128 57.728H19.896C19.704 57.728 19.596 57.836 19.596 58.028V60.476ZM34.144 62.612C34.204 62.54 34.3 62.516 34.48 62.54C36.772 62.78 36.328 64.256 35.488 64.148C35.344 64.124 35.272 64.028 35.188 63.896C35.008 63.572 34.636 63.2 34.3 62.912C34.144 62.78 34.084 62.684 34.144 62.612ZM30.1 60.74C30.052 60.584 30.16 60.488 30.376 60.488H31C31.252 60.488 31.396 60.452 31.324 60.368C31.288 60.308 31.252 60.26 31.228 60.188C31.168 60.056 31.18 59.96 31.192 59.816C31.288 59.036 31.252 58.676 30.964 58.556C30.868 58.52 30.772 58.484 30.652 58.46C30.472 58.424 30.376 58.34 30.376 58.208C30.376 58.076 30.484 58.004 30.676 58.004H31.024C31.24 58.004 31.3 57.992 31.456 57.848C31.768 57.584 31.78 57.584 33.772 55.64C33.916 55.496 34.024 55.448 34.096 55.496C34.156 55.544 34.144 55.652 34.024 55.82C33.928 55.964 33.808 56.12 33.676 56.288L33.424 56.624C32.992 57.188 32.56 57.764 32.464 57.908C32.296 58.172 32.176 58.388 32.176 58.532C32.176 58.652 32.224 58.76 32.308 58.952C32.392 59.144 32.512 59.42 32.488 59.804C32.488 59.972 32.44 60.116 32.368 60.236C32.224 60.44 32.212 60.488 32.452 60.488H38.776C38.932 60.488 39.028 60.452 39.136 60.332C39.256 60.2 39.196 60.08 38.992 59.972C38.092 59.516 37.576 58.82 37.276 58.112C37.18 57.896 37.096 57.908 37.012 58.112C36.628 59.012 35.74 59.768 33.232 60.344C33.04 60.38 32.92 60.344 32.872 60.212C32.824 60.104 32.908 59.996 33.1 59.924C35.464 59.048 35.848 58.112 35.944 56.924C35.968 56.732 36.076 56.636 36.268 56.648L37.36 56.732C37.552 56.744 37.708 56.888 37.6 57.056C37.576 57.104 37.54 57.14 37.492 57.164C37.348 57.26 37.252 57.236 37.252 57.272C37.24 57.296 37.264 57.38 37.348 57.5C37.756 58.112 38.74 58.628 40.54 58.94C40.732 58.976 40.828 59.048 40.828 59.144C40.816 59.24 40.732 59.312 40.552 59.36C40.348 59.42 40.192 59.504 40.072 59.612C39.94 59.744 39.988 59.9 40.144 60.008C40.336 60.152 40.576 60.332 40.804 60.512C40.936 60.62 41.02 60.764 40.912 60.896C40.84 60.968 40.756 60.992 40.648 60.992H34.636C34.468 60.992 34.348 61.064 34.288 61.232L34.168 61.544C34.084 61.76 34.18 61.892 34.396 61.892H36.988C37.144 61.892 37.252 61.832 37.348 61.724L37.528 61.532C37.648 61.4 37.792 61.364 37.948 61.472L38.812 62.036C38.992 62.144 39.04 62.336 38.86 62.432C38.836 62.444 38.812 62.456 38.788 62.456C38.632 62.528 38.548 62.552 38.524 62.636C38.512 62.684 38.512 62.72 38.5 62.756L38.404 63.188C38.248 63.944 38.164 64.34 38.164 64.544C38.176 64.664 38.236 64.688 38.512 64.688H39.664C40.036 64.688 40.12 64.664 40.156 64.58C40.264 64.34 40.384 63.98 40.48 63.596C40.516 63.416 40.564 63.332 40.6 63.332C40.636 63.332 40.66 63.428 40.66 63.632L40.648 64.268C40.648 64.436 40.732 64.556 40.9 64.628C41.14 64.724 41.224 64.832 41.224 65.06C41.224 65.588 40.768 65.9 39.676 65.9H38.32C37.216 65.9 36.892 65.528 36.88 64.664C36.868 64.364 36.928 64.052 37.012 63.572C37.072 63.332 37.12 63.056 37.18 62.732C37.216 62.528 37.108 62.408 36.904 62.408H34.084C33.916 62.408 33.796 62.48 33.736 62.648C33.496 63.236 33.256 63.836 33.064 64.292C32.98 64.508 33.076 64.64 33.304 64.616C34.072 64.556 34.96 64.46 35.824 64.364C36.028 64.34 36.148 64.376 36.148 64.496C36.148 64.616 36.076 64.7 35.908 64.76C34.972 65.072 33.568 65.516 31.924 65.924C31.924 65.924 31.684 65.984 31.576 65.804L31.108 65.012C31.012 64.856 31.06 64.724 31.216 64.604C31.384 64.472 31.576 64.292 31.672 64.124C31.876 63.776 32.428 62.312 32.776 61.34C32.848 61.124 32.752 60.992 32.536 60.992H30.436C30.268 60.992 30.148 60.908 30.1 60.74ZM30.616 55.46C30.46 55.328 30.388 55.232 30.448 55.172C30.508 55.112 30.616 55.076 30.784 55.088C33.352 55.244 32.788 57.056 31.768 56.84C31.624 56.804 31.552 56.72 31.516 56.6C31.36 56.216 31 55.772 30.616 55.46ZM32.992 58.448C32.932 58.4 32.98 58.292 33.1 58.148C33.808 57.332 34.384 56.072 34.66 54.956C34.696 54.776 34.828 54.692 35.008 54.716L36.268 54.908C36.472 54.944 36.64 55.136 36.46 55.256C36.436 55.28 36.4 55.292 36.352 55.304C36.184 55.34 36.076 55.376 35.992 55.532C35.956 55.592 35.92 55.652 35.884 55.712C35.764 55.928 35.848 56.072 36.088 56.072H38.704C38.848 56.072 38.956 56.036 39.076 55.928L39.388 55.652C39.532 55.52 39.676 55.52 39.82 55.652L40.624 56.36C40.78 56.504 40.816 56.708 40.636 56.756C40.612 56.768 40.576 56.768 40.552 56.78C40.396 56.804 40.288 56.828 40.18 56.924C39.784 57.248 39.28 57.596 38.86 57.836C38.716 57.92 38.62 57.932 38.572 57.896C38.524 57.872 38.524 57.764 38.596 57.584C38.668 57.38 38.74 57.152 38.812 56.924C38.884 56.72 38.776 56.588 38.56 56.588H35.512C35.356 56.588 35.248 56.636 35.14 56.768C34.6 57.416 33.964 57.992 33.304 58.4C33.16 58.496 33.052 58.508 32.992 58.448Z" fill="#7A6855"/>
<defs>
<linearGradient id="paint0_linear_2169_656" x1="23" y1="3" x2="40.5" y2="23" gradientUnits="userSpaceOnUse">
<stop stop-color="white"/>
<stop offset="1" stop-color="#E8E8E8"/>
</linearGradient>
</defs>
</svg>
