<svg width="256" height="256" viewBox="0 0 256 256" fill="none" xmlns="http://www.w3.org/2000/svg">
<path d="M63.3178 105.553C58.0692 112.551 50.0685 123.468 47 128.582H198L195.855 122.503C194.36 118.269 191.037 114.934 186.809 113.424C184.299 112.528 182.075 110.975 180.369 108.927L175.13 102.64C172.896 99.9596 169.931 97.986 166.595 96.9597L153.696 92.9908C152.684 92.6791 151.7 92.2786 150.758 91.7939L135.292 83.8401C129.483 80.8524 122.51 81.2467 117.075 84.8704L110.132 89.4993C107.175 91.4705 103.701 92.5224 100.147 92.5224H91.885C88.1012 92.5224 84.4137 93.7148 81.3462 95.9302L74.7053 100.726C73.2991 101.742 71.6087 102.289 69.8741 102.289C67.2953 102.289 64.865 103.49 63.3178 105.553Z" fill="url(#paint0_linear_1967_641)"/>
<path d="M219 128.984H26C31.7902 170.636 42.3204 189.331 65.2481 220.022H181.192C201.233 190.119 210.629 171.379 219 128.984Z" fill="url(#paint1_linear_1967_641)"/>
<path d="M62.6938 223.494V219.636H180.842V223.494H62.6938Z" fill="#DDD4CD"/>
<path d="M26 144H214.597" stroke="#7A6855" stroke-width="3" stroke-dasharray="2 2"/>
<path d="M29.6685 162.545C100.747 165.577 140.439 165.7 210.927 162.545" stroke="#7A6855" stroke-opacity="0.43" stroke-width="0.2"/>
<path d="M37.6421 182.615C102.953 186.45 139.243 186.376 203.32 181.82" stroke="#7A6855" stroke-opacity="0.42" stroke-width="0.2"/>
<path d="M48.0132 202.663C104.753 206.25 136.578 205.88 193.314 201.896" stroke="#7A6855" stroke-opacity="0.4" stroke-width="0.2"/>
<path d="M122.135 129.37L122.138 219.636" stroke="#7A6855" stroke-opacity="0.49" stroke-width="0.2"/>
<path d="M75.1654 129.37C75.5074 166.194 78.9663 185.641 89.1115 218.865" stroke="#7A6855" stroke-opacity="0.42" stroke-width="0.2"/>
<path d="M167.629 129.37C168.872 167.614 165.464 186.844 155.157 218.865" stroke="#7A6855" stroke-opacity="0.48" stroke-width="0.2"/>
<path d="M46.832 128.984V53.113C46.832 53.113 65.734 4 122.054 4C178.374 4 198.048 53.113 198.048 53.113V128.984" stroke="url(#paint2_linear_1967_641)" stroke-width="7"/>
<path d="M113.385 244.193L6.3203 217.079C4.71415 216.672 3.74185 215.041 4.14861 213.435L4.85783 210.634C5.26458 209.028 6.89637 208.056 8.50252 208.462L115.567 235.576C117.173 235.983 118.145 237.615 117.739 239.221L117.029 242.022C116.623 243.628 114.991 244.6 113.385 244.193Z" fill="#948685"/>
<path d="M17.0585 228.992L7.98539 224.955C27.3104 172.747 56.3301 163.281 56.3301 163.281C56.3301 163.281 32.642 187.767 17.0585 228.992Z" fill="url(#paint3_linear_1967_641)"/>
<path d="M13.001 218.312L25.736 213.285" stroke="#7E7170" stroke-width="2"/>
<path d="M14.856 210.988L23.6335 220.854" stroke="#7E7170" stroke-width="2"/>
<path d="M187.756 209.783C189.639 221.484 189.384 233.5 189.717 235.553H155.199L160.982 215.493C161.173 214.833 161.419 214.19 161.719 213.572L165.429 205.937C165.689 205.402 165.992 204.888 166.335 204.4C169.856 199.387 176.76 198.15 181.803 201.629L182.985 202.445C185.488 204.172 187.273 206.781 187.756 209.783Z" fill="url(#paint4_linear_1967_641)"/>
<path d="M171.074 232.747L168.423 242.321C168.256 242.923 168.709 243.518 169.334 243.518H240.55C241.266 243.518 241.75 242.788 241.471 242.129L223.139 198.774C220.212 191.85 212.957 187.797 205.526 188.936C198.942 189.945 193.62 194.83 192.052 201.304L188.764 214.88C180.162 217.354 173.463 224.12 171.074 232.747Z" fill="url(#paint5_linear_1967_641)"/>
<path d="M225.958 231.887C224.488 240.21 224.687 248.696 224.421 250.157H252.112L242.345 230.096C240.06 225.401 234.221 223.706 229.777 226.447C227.803 227.664 226.361 229.604 225.958 231.887Z" fill="url(#paint6_linear_1967_641)"/>
<path d="M154.55 232.4C153.289 232.689 152.208 234.937 152.727 236.122C154.057 239.156 168.661 236.88 163.437 234.327C161.977 233.614 161.43 232.298 159.877 232.774C158.856 233.088 159.011 234.456 157.983 234.748C156.421 235.191 156.52 231.949 154.55 232.4Z" fill="#5EA56B"/>
<path d="M171.237 240.077C168.712 240.352 166.374 242.812 167.082 244.882C168.896 250.183 191.853 246.985 188.364 243.644C186.272 241.64 187.223 243.043 183.581 239.969C181.549 238.255 179.706 241.91 177.634 242.229C174.482 242.713 175.184 239.647 171.237 240.077Z" fill="#5EA56B"/>
<path d="M241.111 247.502C239.326 247.382 239.215 251.674 239.215 251.674H255.715C255.715 251.674 256.853 248.26 254.577 248.26C252.301 248.26 251.922 250.157 250.974 250.157C250.025 250.157 250.784 245.226 247.75 245.415C244.715 245.605 244.715 250.157 243.387 250.157C242.06 250.157 242.474 247.593 241.111 247.502Z" fill="#5EA56B"/>
<defs>
<linearGradient id="paint0_linear_1967_641" x1="123" y1="129" x2="123" y2="62" gradientUnits="userSpaceOnUse">
<stop stop-color="white"/>
<stop offset="1" stop-color="#9B8770"/>
</linearGradient>
<linearGradient id="paint1_linear_1967_641" x1="122.5" y1="128.984" x2="122.5" y2="220.022" gradientUnits="userSpaceOnUse">
<stop stop-color="#C2AEA0"/>
<stop offset="1" stop-color="#E7E1DA"/>
</linearGradient>
<linearGradient id="paint2_linear_1967_641" x1="122.44" y1="4" x2="122.44" y2="128.984" gradientUnits="userSpaceOnUse">
<stop stop-color="#FAE6D0"/>
<stop offset="1" stop-color="#C4A789"/>
</linearGradient>
<linearGradient id="paint3_linear_1967_641" x1="13.6636" y1="227.481" x2="52.5813" y2="172.801" gradientUnits="userSpaceOnUse">
<stop stop-color="#8E9B9E"/>
<stop offset="1" stop-color="#E5FBFF"/>
</linearGradient>
<linearGradient id="paint4_linear_1967_641" x1="172.458" y1="195.345" x2="172.458" y2="235.553" gradientUnits="userSpaceOnUse">
<stop stop-color="#BCA283"/>
<stop offset="1" stop-color="#EFE7DD"/>
</linearGradient>
<linearGradient id="paint5_linear_1967_641" x1="197.109" y1="192.69" x2="211.903" y2="241.622" gradientUnits="userSpaceOnUse">
<stop offset="0.107377" stop-color="#9B8770"/>
<stop offset="0.376293" stop-color="#B9AC9E"/>
<stop offset="0.85124" stop-color="#EFE7DE"/>
</linearGradient>
<linearGradient id="paint6_linear_1967_641" x1="238.267" y1="221.328" x2="238.267" y2="250.157" gradientUnits="userSpaceOnUse">
<stop stop-color="#9B8770"/>
<stop offset="1" stop-color="#EFE7DD"/>
</linearGradient>
</defs>
</svg>
