<svg width="58" height="73" viewBox="0 0 58 73" fill="none" xmlns="http://www.w3.org/2000/svg">
<path d="M19.908 54.564C19.968 54.528 20.064 54.54 20.208 54.624C22.236 55.632 21.348 57.084 20.544 56.7C20.412 56.628 20.364 56.52 20.352 56.352C20.328 55.872 20.136 55.32 19.944 54.876C19.86 54.696 19.848 54.6 19.908 54.564ZM17.016 60.78C16.968 60.624 17.076 60.528 17.292 60.528H21.48C21.672 60.528 21.78 60.42 21.78 60.228V59.652C21.78 59.46 21.672 59.352 21.48 59.352H18.468C18.3 59.352 18.18 59.28 18.132 59.1C18.084 58.932 18.192 58.836 18.408 58.836H21.48C21.672 58.836 21.78 58.728 21.78 58.536V57.996C21.78 57.804 21.672 57.696 21.48 57.696H19.992C19.8 57.696 19.692 57.78 19.692 57.948C19.692 58.188 19.056 58.404 18.552 58.404C18.42 58.404 18.348 58.296 18.348 58.104V53.436C18.348 53.22 18.48 53.112 18.696 53.196L19.608 53.532C19.728 53.58 19.848 53.592 19.98 53.592H24.972C25.116 53.592 25.236 53.544 25.344 53.436L25.608 53.172C25.74 53.04 25.884 53.04 26.028 53.136L26.928 53.748C27.096 53.868 27.144 54.048 26.976 54.156C26.952 54.168 26.928 54.18 26.904 54.204C26.748 54.276 26.664 54.372 26.664 54.54V57.576C26.664 57.708 26.664 57.828 26.544 57.912C26.496 57.948 26.424 57.972 26.352 57.996C26.112 58.08 26.064 58.224 26.268 58.368C26.46 58.524 26.676 58.692 26.868 58.86C27 58.98 27.084 59.124 26.964 59.256C26.904 59.328 26.82 59.352 26.724 59.352H23.4C23.208 59.352 23.1 59.46 23.1 59.652V60.228C23.1 60.42 23.208 60.528 23.4 60.528H25.692C25.848 60.528 25.968 60.48 26.064 60.36L26.484 59.844C26.604 59.688 26.76 59.676 26.904 59.784C27.216 60.024 27.588 60.3 27.876 60.552C27.996 60.66 28.08 60.792 27.972 60.936C27.9 61.008 27.804 61.032 27.708 61.032H17.352C17.184 61.032 17.064 60.948 17.016 60.78ZM17.016 63.72C16.884 63.288 17.196 62.94 17.532 62.796C18.048 62.592 18.588 62.1 18.732 61.476C18.78 61.296 18.804 61.2 18.852 61.2C18.9 61.2 18.96 61.284 18.996 61.464C19.344 62.832 18.756 63.732 18.156 64.02C17.7 64.236 17.208 64.188 17.016 63.72ZM19.692 56.88C19.692 57.072 19.8 57.18 19.992 57.18H21.48C21.672 57.18 21.78 57.072 21.78 56.88V54.396C21.78 54.204 21.672 54.096 21.48 54.096H19.992C19.8 54.096 19.692 54.204 19.692 54.396V56.88ZM20.388 61.608C20.328 61.428 20.328 61.308 20.376 61.296C20.436 61.272 20.52 61.296 20.664 61.392C22.896 62.748 21.78 64.452 20.832 63.852C20.7 63.756 20.676 63.648 20.676 63.492C20.688 62.892 20.556 62.184 20.388 61.608ZM22.62 61.656C22.512 61.488 22.476 61.38 22.536 61.344C22.596 61.308 22.692 61.308 22.848 61.356C25.692 62.328 24.876 64.344 23.796 63.912C23.652 63.852 23.592 63.744 23.568 63.612C23.412 62.964 23.028 62.22 22.62 61.656ZM23.1 58.536C23.1 58.728 23.208 58.836 23.4 58.836H24.768C24.924 58.836 25.044 58.788 25.14 58.668L25.392 58.368C25.512 58.224 25.5 58.164 25.38 58.092C25.332 58.044 25.296 57.984 25.296 57.912C25.296 57.78 25.188 57.696 24.996 57.696H23.4C23.208 57.696 23.1 57.804 23.1 57.996V58.536ZM23.1 56.88C23.1 57.072 23.208 57.18 23.4 57.18H24.996C25.188 57.18 25.296 57.072 25.296 56.88V55.656C25.296 55.464 25.26 55.356 25.176 55.356C25.176 55.356 25.008 55.404 24.912 55.512C24.588 55.86 24.132 56.304 23.724 56.676C23.592 56.796 23.52 56.832 23.46 56.796C23.412 56.772 23.412 56.664 23.472 56.484C23.652 55.944 23.832 55.248 23.94 54.768C23.976 54.576 24.108 54.492 24.3 54.564L24.948 54.792C25.152 54.864 25.296 54.768 25.296 54.552V54.396C25.296 54.204 25.188 54.096 24.996 54.096H23.4C23.208 54.096 23.1 54.204 23.1 54.396V56.88ZM25.104 61.644C24.948 61.512 24.888 61.416 24.948 61.344C25.008 61.284 25.104 61.26 25.284 61.296C28.8 62.028 28.284 64.392 27.072 64.068C26.928 64.032 26.856 63.948 26.808 63.816C26.532 63.084 25.812 62.22 25.104 61.644ZM34.144 60.612C34.204 60.54 34.3 60.516 34.48 60.54C36.772 60.78 36.328 62.256 35.488 62.148C35.344 62.124 35.272 62.028 35.188 61.896C35.008 61.572 34.636 61.2 34.3 60.912C34.144 60.78 34.084 60.684 34.144 60.612ZM30.1 58.74C30.052 58.584 30.16 58.488 30.376 58.488H31C31.252 58.488 31.396 58.452 31.324 58.368C31.288 58.308 31.252 58.26 31.228 58.188C31.168 58.056 31.18 57.96 31.192 57.816C31.288 57.036 31.252 56.676 30.964 56.556C30.868 56.52 30.772 56.484 30.652 56.46C30.472 56.424 30.376 56.34 30.376 56.208C30.376 56.076 30.484 56.004 30.676 56.004H31.024C31.24 56.004 31.3 55.992 31.456 55.848C31.768 55.584 31.78 55.584 33.772 53.64C33.916 53.496 34.024 53.448 34.096 53.496C34.156 53.544 34.144 53.652 34.024 53.82C33.928 53.964 33.808 54.12 33.676 54.288L33.424 54.624C32.992 55.188 32.56 55.764 32.464 55.908C32.296 56.172 32.176 56.388 32.176 56.532C32.176 56.652 32.224 56.76 32.308 56.952C32.392 57.144 32.512 57.42 32.488 57.804C32.488 57.972 32.44 58.116 32.368 58.236C32.224 58.44 32.212 58.488 32.452 58.488H38.776C38.932 58.488 39.028 58.452 39.136 58.332C39.256 58.2 39.196 58.08 38.992 57.972C38.092 57.516 37.576 56.82 37.276 56.112C37.18 55.896 37.096 55.908 37.012 56.112C36.628 57.012 35.74 57.768 33.232 58.344C33.04 58.38 32.92 58.344 32.872 58.212C32.824 58.104 32.908 57.996 33.1 57.924C35.464 57.048 35.848 56.112 35.944 54.924C35.968 54.732 36.076 54.636 36.268 54.648L37.36 54.732C37.552 54.744 37.708 54.888 37.6 55.056C37.576 55.104 37.54 55.14 37.492 55.164C37.348 55.26 37.252 55.236 37.252 55.272C37.24 55.296 37.264 55.38 37.348 55.5C37.756 56.112 38.74 56.628 40.54 56.94C40.732 56.976 40.828 57.048 40.828 57.144C40.816 57.24 40.732 57.312 40.552 57.36C40.348 57.42 40.192 57.504 40.072 57.612C39.94 57.744 39.988 57.9 40.144 58.008C40.336 58.152 40.576 58.332 40.804 58.512C40.936 58.62 41.02 58.764 40.912 58.896C40.84 58.968 40.756 58.992 40.648 58.992H34.636C34.468 58.992 34.348 59.064 34.288 59.232L34.168 59.544C34.084 59.76 34.18 59.892 34.396 59.892H36.988C37.144 59.892 37.252 59.832 37.348 59.724L37.528 59.532C37.648 59.4 37.792 59.364 37.948 59.472L38.812 60.036C38.992 60.144 39.04 60.336 38.86 60.432C38.836 60.444 38.812 60.456 38.788 60.456C38.632 60.528 38.548 60.552 38.524 60.636C38.512 60.684 38.512 60.72 38.5 60.756L38.404 61.188C38.248 61.944 38.164 62.34 38.164 62.544C38.176 62.664 38.236 62.688 38.512 62.688H39.664C40.036 62.688 40.12 62.664 40.156 62.58C40.264 62.34 40.384 61.98 40.48 61.596C40.516 61.416 40.564 61.332 40.6 61.332C40.636 61.332 40.66 61.428 40.66 61.632L40.648 62.268C40.648 62.436 40.732 62.556 40.9 62.628C41.14 62.724 41.224 62.832 41.224 63.06C41.224 63.588 40.768 63.9 39.676 63.9H38.32C37.216 63.9 36.892 63.528 36.88 62.664C36.868 62.364 36.928 62.052 37.012 61.572C37.072 61.332 37.12 61.056 37.18 60.732C37.216 60.528 37.108 60.408 36.904 60.408H34.084C33.916 60.408 33.796 60.48 33.736 60.648C33.496 61.236 33.256 61.836 33.064 62.292C32.98 62.508 33.076 62.64 33.304 62.616C34.072 62.556 34.96 62.46 35.824 62.364C36.028 62.34 36.148 62.376 36.148 62.496C36.148 62.616 36.076 62.7 35.908 62.76C34.972 63.072 33.568 63.516 31.924 63.924C31.924 63.924 31.684 63.984 31.576 63.804L31.108 63.012C31.012 62.856 31.06 62.724 31.216 62.604C31.384 62.472 31.576 62.292 31.672 62.124C31.876 61.776 32.428 60.312 32.776 59.34C32.848 59.124 32.752 58.992 32.536 58.992H30.436C30.268 58.992 30.148 58.908 30.1 58.74ZM30.616 53.46C30.46 53.328 30.388 53.232 30.448 53.172C30.508 53.112 30.616 53.076 30.784 53.088C33.352 53.244 32.788 55.056 31.768 54.84C31.624 54.804 31.552 54.72 31.516 54.6C31.36 54.216 31 53.772 30.616 53.46ZM32.992 56.448C32.932 56.4 32.98 56.292 33.1 56.148C33.808 55.332 34.384 54.072 34.66 52.956C34.696 52.776 34.828 52.692 35.008 52.716L36.268 52.908C36.472 52.944 36.64 53.136 36.46 53.256C36.436 53.28 36.4 53.292 36.352 53.304C36.184 53.34 36.076 53.376 35.992 53.532C35.956 53.592 35.92 53.652 35.884 53.712C35.764 53.928 35.848 54.072 36.088 54.072H38.704C38.848 54.072 38.956 54.036 39.076 53.928L39.388 53.652C39.532 53.52 39.676 53.52 39.82 53.652L40.624 54.36C40.78 54.504 40.816 54.708 40.636 54.756C40.612 54.768 40.576 54.768 40.552 54.78C40.396 54.804 40.288 54.828 40.18 54.924C39.784 55.248 39.28 55.596 38.86 55.836C38.716 55.92 38.62 55.932 38.572 55.896C38.524 55.872 38.524 55.764 38.596 55.584C38.668 55.38 38.74 55.152 38.812 54.924C38.884 54.72 38.776 54.588 38.56 54.588H35.512C35.356 54.588 35.248 54.636 35.14 54.768C34.6 55.416 33.964 55.992 33.304 56.4C33.16 56.496 33.052 56.508 32.992 56.448Z" fill="#7A6855"/>
<circle cx="29" cy="15" r="15" fill="url(#paint0_linear_2173_660)"/>
<defs>
<linearGradient id="paint0_linear_2173_660" x1="24" y1="3" x2="41.5" y2="23" gradientUnits="userSpaceOnUse">
<stop stop-color="#656565"/>
<stop offset="1"/>
</linearGradient>
</defs>
</svg>
