<svg width="58" height="76" viewBox="0 0 58 76" fill="none" xmlns="http://www.w3.org/2000/svg">
<path d="M26.712 65.208C26.832 65.064 26.976 65.04 27.132 65.16C27.432 65.388 27.792 65.664 28.08 65.904C28.212 66.024 28.284 66.156 28.164 66.3C28.104 66.372 28.02 66.396 27.912 66.396H20.952C20.784 66.396 20.664 66.324 20.616 66.144C20.568 65.988 20.676 65.892 20.892 65.892H23.376C23.568 65.892 23.676 65.784 23.676 65.592V58.176C23.676 57.984 23.568 57.876 23.376 57.876H21.78C21.612 57.876 21.492 57.804 21.444 57.624C21.396 57.468 21.504 57.36 21.72 57.36H25.692C25.848 57.36 25.968 57.3 26.064 57.18L26.448 56.712C26.568 56.556 26.724 56.544 26.868 56.664C27.156 56.892 27.504 57.156 27.792 57.396C27.912 57.504 27.996 57.636 27.888 57.78C27.816 57.852 27.732 57.876 27.636 57.876H25.392C25.2 57.876 25.092 57.984 25.092 58.176V65.592C25.092 65.784 25.2 65.892 25.392 65.892H25.944C26.1 65.892 26.22 65.844 26.316 65.712L26.712 65.208ZM16.98 59.52C16.932 59.424 16.92 59.34 16.944 59.28C16.992 59.16 17.1 59.16 17.184 59.136C17.22 59.112 17.256 59.1 17.28 59.088C17.904 58.512 18.696 57.084 19.008 56.16C19.08 55.98 19.212 55.908 19.392 55.98L20.604 56.448C20.784 56.52 20.892 56.7 20.736 56.832C20.712 56.856 20.688 56.868 20.652 56.88C20.496 56.94 20.388 56.952 20.28 57.084C19.788 57.684 19.104 58.356 18.444 58.92C18.228 59.1 18.024 59.292 18.06 59.292C18.096 59.28 18.12 59.28 18.144 59.28C18.516 59.28 18.96 59.268 19.416 59.244H19.644H19.656C19.704 59.232 19.92 59.172 20.016 59.04C20.208 58.74 20.364 58.464 20.484 58.224C20.568 58.044 20.712 57.984 20.88 58.08L22.008 58.668C22.188 58.764 22.272 58.956 22.092 59.052C22.068 59.064 22.032 59.076 21.996 59.088C21.84 59.124 21.72 59.136 21.624 59.268C20.94 60.06 19.884 61.044 18.852 61.848C18.624 62.028 18.684 62.196 18.972 62.16C19.728 62.076 20.604 61.956 21.48 61.848C21.684 61.824 21.804 61.86 21.804 61.968C21.804 62.076 21.732 62.148 21.576 62.22C20.796 62.556 19.536 63.072 18.06 63.564C17.928 63.612 17.88 63.624 17.88 63.624L17.868 63.636C17.808 63.708 17.556 63.744 17.472 63.54L17.052 62.58C16.968 62.388 17.016 62.28 17.172 62.232C17.28 62.208 17.376 62.172 17.412 62.148C17.856 61.824 18.36 61.308 18.828 60.732C19.02 60.492 18.864 60.276 18.576 60.372C18.3 60.468 18.024 60.564 17.736 60.648C17.712 60.66 17.688 60.684 17.676 60.696C17.676 60.696 17.496 60.66 17.412 60.48L16.98 59.52ZM17.028 65.304C16.944 65.112 17.004 64.968 17.208 64.92C18.144 64.728 19.896 64.332 21.6 63.888C21.804 63.828 21.924 63.84 21.936 63.936C21.948 64.044 21.9 64.116 21.756 64.212C20.916 64.752 19.728 65.448 18.096 66.216C17.964 66.276 17.916 66.312 17.892 66.336C17.892 66.348 17.88 66.36 17.868 66.372C17.76 66.564 17.568 66.492 17.484 66.3L17.028 65.304ZM34.144 63.612C34.204 63.54 34.3 63.516 34.48 63.54C36.772 63.78 36.328 65.256 35.488 65.148C35.344 65.124 35.272 65.028 35.188 64.896C35.008 64.572 34.636 64.2 34.3 63.912C34.144 63.78 34.084 63.684 34.144 63.612ZM30.1 61.74C30.052 61.584 30.16 61.488 30.376 61.488H31C31.252 61.488 31.396 61.452 31.324 61.368C31.288 61.308 31.252 61.26 31.228 61.188C31.168 61.056 31.18 60.96 31.192 60.816C31.288 60.036 31.252 59.676 30.964 59.556C30.868 59.52 30.772 59.484 30.652 59.46C30.472 59.424 30.376 59.34 30.376 59.208C30.376 59.076 30.484 59.004 30.676 59.004H31.024C31.24 59.004 31.3 58.992 31.456 58.848C31.768 58.584 31.78 58.584 33.772 56.64C33.916 56.496 34.024 56.448 34.096 56.496C34.156 56.544 34.144 56.652 34.024 56.82C33.928 56.964 33.808 57.12 33.676 57.288L33.424 57.624C32.992 58.188 32.56 58.764 32.464 58.908C32.296 59.172 32.176 59.388 32.176 59.532C32.176 59.652 32.224 59.76 32.308 59.952C32.392 60.144 32.512 60.42 32.488 60.804C32.488 60.972 32.44 61.116 32.368 61.236C32.224 61.44 32.212 61.488 32.452 61.488H38.776C38.932 61.488 39.028 61.452 39.136 61.332C39.256 61.2 39.196 61.08 38.992 60.972C38.092 60.516 37.576 59.82 37.276 59.112C37.18 58.896 37.096 58.908 37.012 59.112C36.628 60.012 35.74 60.768 33.232 61.344C33.04 61.38 32.92 61.344 32.872 61.212C32.824 61.104 32.908 60.996 33.1 60.924C35.464 60.048 35.848 59.112 35.944 57.924C35.968 57.732 36.076 57.636 36.268 57.648L37.36 57.732C37.552 57.744 37.708 57.888 37.6 58.056C37.576 58.104 37.54 58.14 37.492 58.164C37.348 58.26 37.252 58.236 37.252 58.272C37.24 58.296 37.264 58.38 37.348 58.5C37.756 59.112 38.74 59.628 40.54 59.94C40.732 59.976 40.828 60.048 40.828 60.144C40.816 60.24 40.732 60.312 40.552 60.36C40.348 60.42 40.192 60.504 40.072 60.612C39.94 60.744 39.988 60.9 40.144 61.008C40.336 61.152 40.576 61.332 40.804 61.512C40.936 61.62 41.02 61.764 40.912 61.896C40.84 61.968 40.756 61.992 40.648 61.992H34.636C34.468 61.992 34.348 62.064 34.288 62.232L34.168 62.544C34.084 62.76 34.18 62.892 34.396 62.892H36.988C37.144 62.892 37.252 62.832 37.348 62.724L37.528 62.532C37.648 62.4 37.792 62.364 37.948 62.472L38.812 63.036C38.992 63.144 39.04 63.336 38.86 63.432C38.836 63.444 38.812 63.456 38.788 63.456C38.632 63.528 38.548 63.552 38.524 63.636C38.512 63.684 38.512 63.72 38.5 63.756L38.404 64.188C38.248 64.944 38.164 65.34 38.164 65.544C38.176 65.664 38.236 65.688 38.512 65.688H39.664C40.036 65.688 40.12 65.664 40.156 65.58C40.264 65.34 40.384 64.98 40.48 64.596C40.516 64.416 40.564 64.332 40.6 64.332C40.636 64.332 40.66 64.428 40.66 64.632L40.648 65.268C40.648 65.436 40.732 65.556 40.9 65.628C41.14 65.724 41.224 65.832 41.224 66.06C41.224 66.588 40.768 66.9 39.676 66.9H38.32C37.216 66.9 36.892 66.528 36.88 65.664C36.868 65.364 36.928 65.052 37.012 64.572C37.072 64.332 37.12 64.056 37.18 63.732C37.216 63.528 37.108 63.408 36.904 63.408H34.084C33.916 63.408 33.796 63.48 33.736 63.648C33.496 64.236 33.256 64.836 33.064 65.292C32.98 65.508 33.076 65.64 33.304 65.616C34.072 65.556 34.96 65.46 35.824 65.364C36.028 65.34 36.148 65.376 36.148 65.496C36.148 65.616 36.076 65.7 35.908 65.76C34.972 66.072 33.568 66.516 31.924 66.924C31.924 66.924 31.684 66.984 31.576 66.804L31.108 66.012C31.012 65.856 31.06 65.724 31.216 65.604C31.384 65.472 31.576 65.292 31.672 65.124C31.876 64.776 32.428 63.312 32.776 62.34C32.848 62.124 32.752 61.992 32.536 61.992H30.436C30.268 61.992 30.148 61.908 30.1 61.74ZM30.616 56.46C30.46 56.328 30.388 56.232 30.448 56.172C30.508 56.112 30.616 56.076 30.784 56.088C33.352 56.244 32.788 58.056 31.768 57.84C31.624 57.804 31.552 57.72 31.516 57.6C31.36 57.216 31 56.772 30.616 56.46ZM32.992 59.448C32.932 59.4 32.98 59.292 33.1 59.148C33.808 58.332 34.384 57.072 34.66 55.956C34.696 55.776 34.828 55.692 35.008 55.716L36.268 55.908C36.472 55.944 36.64 56.136 36.46 56.256C36.436 56.28 36.4 56.292 36.352 56.304C36.184 56.34 36.076 56.376 35.992 56.532C35.956 56.592 35.92 56.652 35.884 56.712C35.764 56.928 35.848 57.072 36.088 57.072H38.704C38.848 57.072 38.956 57.036 39.076 56.928L39.388 56.652C39.532 56.52 39.676 56.52 39.82 56.652L40.624 57.36C40.78 57.504 40.816 57.708 40.636 57.756C40.612 57.768 40.576 57.768 40.552 57.78C40.396 57.804 40.288 57.828 40.18 57.924C39.784 58.248 39.28 58.596 38.86 58.836C38.716 58.92 38.62 58.932 38.572 58.896C38.524 58.872 38.524 58.764 38.596 58.584C38.668 58.38 38.74 58.152 38.812 57.924C38.884 57.72 38.776 57.588 38.56 57.588H35.512C35.356 57.588 35.248 57.636 35.14 57.768C34.6 58.416 33.964 58.992 33.304 59.4C33.16 59.496 33.052 59.508 32.992 59.448Z" fill="#7A6855"/>
<circle cx="29" cy="15" r="15" fill="url(#paint0_linear_2173_661)"/>
<defs>
<linearGradient id="paint0_linear_2173_661" x1="24" y1="3" x2="41.5" y2="23" gradientUnits="userSpaceOnUse">
<stop stop-color="#E5A0A0"/>
<stop offset="1" stop-color="#C85B5B"/>
</linearGradient>
</defs>
</svg>
