<svg width="58" height="73" viewBox="0 0 58 73" fill="none" xmlns="http://www.w3.org/2000/svg">
<path d="M23.208 62.076C23.232 61.956 23.34 61.908 23.556 61.932C29.496 62.352 27.624 64.524 26.412 63.948C26.292 63.9 26.22 63.828 26.124 63.744C25.632 63.276 24.744 62.736 23.448 62.328C23.268 62.268 23.184 62.184 23.208 62.076ZM16.86 63.96C16.824 63.864 16.908 63.756 17.088 63.696C18.408 63.216 19.776 62.448 20.532 61.824C20.664 61.716 20.808 61.704 20.952 61.8L22.02 62.472C22.2 62.592 22.26 62.808 22.056 62.868C21.972 62.892 21.876 62.892 21.744 62.88C21.6 62.856 21.492 62.856 21.348 62.916C20.28 63.396 18.732 63.84 17.184 64.08C17.004 64.104 16.896 64.068 16.86 63.96ZM16.98 56.232C16.932 56.064 17.04 55.98 17.256 55.98H19.86C20.052 55.98 20.16 55.872 20.16 55.68V55.02C20.16 54.828 20.052 54.72 19.86 54.72H18.072C17.904 54.72 17.784 54.648 17.736 54.468C17.688 54.3 17.796 54.204 18.012 54.204H19.86C20.052 54.204 20.16 54.096 20.16 53.904V53.088C20.16 52.896 20.28 52.788 20.472 52.8L21.636 52.896C21.828 52.908 21.984 53.04 21.888 53.22C21.852 53.268 21.816 53.304 21.756 53.34C21.6 53.424 21.504 53.508 21.504 53.676V53.904C21.504 54.096 21.612 54.204 21.804 54.204H23.148C23.34 54.204 23.448 54.096 23.448 53.904V53.088C23.448 52.896 23.568 52.788 23.76 52.8L24.936 52.896C25.14 52.908 25.284 53.052 25.176 53.232C25.152 53.268 25.116 53.304 25.068 53.34C24.912 53.424 24.816 53.508 24.816 53.676V53.904C24.816 54.096 24.924 54.204 25.116 54.204H25.248C25.404 54.204 25.512 54.144 25.608 54.036L26.028 53.568C26.148 53.424 26.304 53.412 26.448 53.52C26.748 53.736 27.12 54 27.42 54.24C27.552 54.348 27.636 54.48 27.528 54.624C27.468 54.696 27.36 54.72 27.264 54.72H25.116C24.924 54.72 24.816 54.828 24.816 55.02V55.68C24.816 55.872 24.924 55.98 25.116 55.98H25.728C25.884 55.98 25.992 55.932 26.088 55.812L26.532 55.308C26.652 55.164 26.808 55.14 26.952 55.248C27.276 55.476 27.672 55.764 27.984 56.016C28.116 56.112 28.212 56.244 28.104 56.388C28.044 56.472 27.948 56.496 27.84 56.496H23.448C23.256 56.496 23.148 56.604 23.148 56.796V57.072C23.148 57.264 23.256 57.372 23.448 57.372H24.816C24.96 57.372 25.08 57.324 25.188 57.216L25.476 56.94C25.608 56.82 25.752 56.808 25.896 56.904L26.82 57.54C26.988 57.66 27.036 57.828 26.868 57.948C26.844 57.972 26.808 57.984 26.784 57.996C26.616 58.08 26.532 58.176 26.532 58.344V61.356C26.532 61.488 26.532 61.608 26.412 61.692C26.184 61.836 25.692 61.92 25.38 61.92C25.224 61.92 25.14 61.824 25.14 61.668C25.14 61.512 25.032 61.428 24.84 61.428H20.232C20.04 61.428 19.932 61.512 19.932 61.668C19.932 61.92 19.308 62.136 18.768 62.136C18.636 62.136 18.564 62.028 18.564 61.836V57.216C18.564 57 18.708 56.904 18.912 56.976L19.836 57.312C19.956 57.36 20.076 57.372 20.208 57.372H21.504C21.696 57.372 21.804 57.264 21.804 57.072V56.796C21.804 56.604 21.696 56.496 21.504 56.496H17.316C17.148 56.496 17.028 56.424 16.98 56.244V56.232ZM19.932 60.612C19.932 60.804 20.04 60.912 20.232 60.912H21.504C21.696 60.912 21.804 60.804 21.804 60.612V59.892C21.804 59.7 21.696 59.592 21.504 59.592H20.232C20.04 59.592 19.932 59.7 19.932 59.892V60.612ZM19.932 58.788C19.932 58.98 20.04 59.088 20.232 59.088H21.504C21.696 59.088 21.804 58.98 21.804 58.788V58.176C21.804 57.984 21.696 57.876 21.504 57.876H20.232C20.04 57.876 19.932 57.984 19.932 58.176V58.788ZM21.504 55.68C21.504 55.872 21.612 55.98 21.804 55.98H23.148C23.34 55.98 23.448 55.872 23.448 55.68V55.02C23.448 54.828 23.34 54.72 23.148 54.72H21.804C21.612 54.72 21.504 54.828 21.504 55.02V55.68ZM23.148 60.612C23.148 60.804 23.256 60.912 23.448 60.912H24.84C25.032 60.912 25.14 60.804 25.14 60.612V59.892C25.14 59.7 25.032 59.592 24.84 59.592H23.448C23.256 59.592 23.148 59.7 23.148 59.892V60.612ZM23.148 58.788C23.148 58.98 23.256 59.088 23.448 59.088H24.84C25.032 59.088 25.14 58.98 25.14 58.788V58.176C25.14 57.984 25.032 57.876 24.84 57.876H23.448C23.256 57.876 23.148 57.984 23.148 58.176V58.788ZM34.144 60.612C34.204 60.54 34.3 60.516 34.48 60.54C36.772 60.78 36.328 62.256 35.488 62.148C35.344 62.124 35.272 62.028 35.188 61.896C35.008 61.572 34.636 61.2 34.3 60.912C34.144 60.78 34.084 60.684 34.144 60.612ZM30.1 58.74C30.052 58.584 30.16 58.488 30.376 58.488H31C31.252 58.488 31.396 58.452 31.324 58.368C31.288 58.308 31.252 58.26 31.228 58.188C31.168 58.056 31.18 57.96 31.192 57.816C31.288 57.036 31.252 56.676 30.964 56.556C30.868 56.52 30.772 56.484 30.652 56.46C30.472 56.424 30.376 56.34 30.376 56.208C30.376 56.076 30.484 56.004 30.676 56.004H31.024C31.24 56.004 31.3 55.992 31.456 55.848C31.768 55.584 31.78 55.584 33.772 53.64C33.916 53.496 34.024 53.448 34.096 53.496C34.156 53.544 34.144 53.652 34.024 53.82C33.928 53.964 33.808 54.12 33.676 54.288L33.424 54.624C32.992 55.188 32.56 55.764 32.464 55.908C32.296 56.172 32.176 56.388 32.176 56.532C32.176 56.652 32.224 56.76 32.308 56.952C32.392 57.144 32.512 57.42 32.488 57.804C32.488 57.972 32.44 58.116 32.368 58.236C32.224 58.44 32.212 58.488 32.452 58.488H38.776C38.932 58.488 39.028 58.452 39.136 58.332C39.256 58.2 39.196 58.08 38.992 57.972C38.092 57.516 37.576 56.82 37.276 56.112C37.18 55.896 37.096 55.908 37.012 56.112C36.628 57.012 35.74 57.768 33.232 58.344C33.04 58.38 32.92 58.344 32.872 58.212C32.824 58.104 32.908 57.996 33.1 57.924C35.464 57.048 35.848 56.112 35.944 54.924C35.968 54.732 36.076 54.636 36.268 54.648L37.36 54.732C37.552 54.744 37.708 54.888 37.6 55.056C37.576 55.104 37.54 55.14 37.492 55.164C37.348 55.26 37.252 55.236 37.252 55.272C37.24 55.296 37.264 55.38 37.348 55.5C37.756 56.112 38.74 56.628 40.54 56.94C40.732 56.976 40.828 57.048 40.828 57.144C40.816 57.24 40.732 57.312 40.552 57.36C40.348 57.42 40.192 57.504 40.072 57.612C39.94 57.744 39.988 57.9 40.144 58.008C40.336 58.152 40.576 58.332 40.804 58.512C40.936 58.62 41.02 58.764 40.912 58.896C40.84 58.968 40.756 58.992 40.648 58.992H34.636C34.468 58.992 34.348 59.064 34.288 59.232L34.168 59.544C34.084 59.76 34.18 59.892 34.396 59.892H36.988C37.144 59.892 37.252 59.832 37.348 59.724L37.528 59.532C37.648 59.4 37.792 59.364 37.948 59.472L38.812 60.036C38.992 60.144 39.04 60.336 38.86 60.432C38.836 60.444 38.812 60.456 38.788 60.456C38.632 60.528 38.548 60.552 38.524 60.636C38.512 60.684 38.512 60.72 38.5 60.756L38.404 61.188C38.248 61.944 38.164 62.34 38.164 62.544C38.176 62.664 38.236 62.688 38.512 62.688H39.664C40.036 62.688 40.12 62.664 40.156 62.58C40.264 62.34 40.384 61.98 40.48 61.596C40.516 61.416 40.564 61.332 40.6 61.332C40.636 61.332 40.66 61.428 40.66 61.632L40.648 62.268C40.648 62.436 40.732 62.556 40.9 62.628C41.14 62.724 41.224 62.832 41.224 63.06C41.224 63.588 40.768 63.9 39.676 63.9H38.32C37.216 63.9 36.892 63.528 36.88 62.664C36.868 62.364 36.928 62.052 37.012 61.572C37.072 61.332 37.12 61.056 37.18 60.732C37.216 60.528 37.108 60.408 36.904 60.408H34.084C33.916 60.408 33.796 60.48 33.736 60.648C33.496 61.236 33.256 61.836 33.064 62.292C32.98 62.508 33.076 62.64 33.304 62.616C34.072 62.556 34.96 62.46 35.824 62.364C36.028 62.34 36.148 62.376 36.148 62.496C36.148 62.616 36.076 62.7 35.908 62.76C34.972 63.072 33.568 63.516 31.924 63.924C31.924 63.924 31.684 63.984 31.576 63.804L31.108 63.012C31.012 62.856 31.06 62.724 31.216 62.604C31.384 62.472 31.576 62.292 31.672 62.124C31.876 61.776 32.428 60.312 32.776 59.34C32.848 59.124 32.752 58.992 32.536 58.992H30.436C30.268 58.992 30.148 58.908 30.1 58.74ZM30.616 53.46C30.46 53.328 30.388 53.232 30.448 53.172C30.508 53.112 30.616 53.076 30.784 53.088C33.352 53.244 32.788 55.056 31.768 54.84C31.624 54.804 31.552 54.72 31.516 54.6C31.36 54.216 31 53.772 30.616 53.46ZM32.992 56.448C32.932 56.4 32.98 56.292 33.1 56.148C33.808 55.332 34.384 54.072 34.66 52.956C34.696 52.776 34.828 52.692 35.008 52.716L36.268 52.908C36.472 52.944 36.64 53.136 36.46 53.256C36.436 53.28 36.4 53.292 36.352 53.304C36.184 53.34 36.076 53.376 35.992 53.532C35.956 53.592 35.92 53.652 35.884 53.712C35.764 53.928 35.848 54.072 36.088 54.072H38.704C38.848 54.072 38.956 54.036 39.076 53.928L39.388 53.652C39.532 53.52 39.676 53.52 39.82 53.652L40.624 54.36C40.78 54.504 40.816 54.708 40.636 54.756C40.612 54.768 40.576 54.768 40.552 54.78C40.396 54.804 40.288 54.828 40.18 54.924C39.784 55.248 39.28 55.596 38.86 55.836C38.716 55.92 38.62 55.932 38.572 55.896C38.524 55.872 38.524 55.764 38.596 55.584C38.668 55.38 38.74 55.152 38.812 54.924C38.884 54.72 38.776 54.588 38.56 54.588H35.512C35.356 54.588 35.248 54.636 35.14 54.768C34.6 55.416 33.964 55.992 33.304 56.4C33.16 56.496 33.052 56.508 32.992 56.448Z" fill="#7A6855"/>
<circle cx="29" cy="15" r="15" fill="url(#paint0_linear_2173_659)"/>
<defs>
<linearGradient id="paint0_linear_2173_659" x1="24" y1="3" x2="41.5" y2="23" gradientUnits="userSpaceOnUse">
<stop stop-color="#F4E6B8"/>
<stop offset="1" stop-color="#EDCE69"/>
</linearGradient>
</defs>
</svg>
