<svg width="58" height="75" viewBox="0 0 58 75" fill="none" xmlns="http://www.w3.org/2000/svg">
<path d="M21.696 57.584C21.888 57.596 22.044 57.74 21.936 57.908C21.912 57.956 21.864 57.992 21.816 58.028C21.66 58.112 21.564 58.196 21.564 58.364V61.496C21.564 61.736 20.988 61.904 20.544 61.904C20.412 61.904 20.34 61.796 20.34 61.604V57.908C20.34 57.716 20.292 57.608 20.208 57.608C20.16 57.608 20.112 57.608 20.064 57.608C19.932 57.608 19.86 57.5 19.86 57.308V56.828C19.86 56.636 19.752 56.528 19.56 56.528H17.196C17.016 56.528 16.908 56.444 16.872 56.264C16.836 56.108 16.944 56.012 17.148 56.012H19.56C19.752 56.012 19.86 55.904 19.86 55.712V55.004C19.86 54.812 19.98 54.704 20.172 54.716L21.228 54.788C21.42 54.8 21.576 54.932 21.48 55.112C21.444 55.16 21.408 55.196 21.36 55.232C21.204 55.316 21.108 55.4 21.108 55.568V55.712C21.108 55.904 21.216 56.012 21.408 56.012H23.508C23.7 56.012 23.808 55.904 23.808 55.712V55.004C23.808 54.812 23.928 54.704 24.12 54.716L25.188 54.788C25.38 54.8 25.548 54.932 25.452 55.112C25.428 55.16 25.38 55.196 25.332 55.232C25.176 55.316 25.08 55.4 25.08 55.568V55.712C25.08 55.904 25.188 56.012 25.38 56.012H26.04C26.196 56.012 26.316 55.964 26.412 55.844L26.748 55.436C26.868 55.292 27.024 55.268 27.168 55.376C27.444 55.58 27.744 55.82 28.008 56.036C28.128 56.144 28.212 56.276 28.116 56.42C28.056 56.504 27.96 56.528 27.852 56.528H25.38C25.188 56.528 25.08 56.636 25.08 56.828V57.224C25.08 57.308 25.008 57.368 24.888 57.416C24.72 57.488 24.744 57.5 24.804 57.644C24.84 57.704 24.828 57.788 24.756 57.86C24.72 57.896 24.672 57.92 24.624 57.932C24.468 57.992 24.36 58.04 24.288 58.196C24.276 58.22 24.264 58.232 24.264 58.256C24.156 58.46 24.264 58.604 24.492 58.604H25.704C25.86 58.604 25.98 58.556 26.076 58.424L26.436 57.968C26.556 57.812 26.7 57.788 26.856 57.92C27.12 58.136 27.432 58.4 27.684 58.64C27.804 58.748 27.888 58.88 27.792 59.012C27.732 59.096 27.636 59.12 27.528 59.12H24.072C23.916 59.12 23.796 59.18 23.712 59.324C23.244 60.128 22.716 60.824 22.128 61.34C21.996 61.46 21.912 61.496 21.84 61.448C21.768 61.412 21.78 61.304 21.864 61.124C22.368 60.116 22.8 58.748 23.04 57.392C23.076 57.188 23.196 57.116 23.388 57.164L23.472 57.188C23.688 57.248 23.808 57.128 23.808 56.924V56.828C23.808 56.636 23.7 56.528 23.508 56.528H21.408C21.216 56.528 21.108 56.636 21.108 56.828V57.272C21.108 57.272 21.096 57.524 21.348 57.548L21.696 57.584ZM16.944 65.324C16.896 65.156 17.004 65.06 17.22 65.06H17.808C18 65.06 18.108 64.952 18.108 64.76V61.88C18.108 61.664 18.252 61.568 18.456 61.64L19.38 61.964C19.512 62.012 19.62 62.024 19.752 62.024H25.104C25.248 62.024 25.368 61.988 25.476 61.88L25.716 61.664C25.848 61.544 25.98 61.532 26.136 61.64L26.904 62.156C27.072 62.276 27.132 62.432 27 62.54L26.988 62.552C26.916 62.6 26.748 62.72 26.748 62.888V64.76C26.748 64.952 26.772 65.06 26.796 65.06H26.832L27.168 64.568C27.276 64.4 27.432 64.388 27.588 64.52C27.768 64.7 27.96 64.892 28.128 65.084C28.236 65.204 28.296 65.324 28.212 65.468C28.152 65.552 28.068 65.576 27.972 65.576H17.28C17.112 65.576 16.992 65.492 16.944 65.324ZM18.264 61.436C18.204 61.436 18.168 61.328 18.168 61.136V58.148C18.168 57.956 18.288 57.848 18.48 57.86L19.476 57.944C19.68 57.956 19.836 58.1 19.716 58.28C19.692 58.328 19.644 58.364 19.596 58.4C19.44 58.484 19.344 58.568 19.344 58.736V61.052C19.344 61.268 18.84 61.436 18.36 61.436H18.264ZM19.404 64.76C19.404 64.952 19.512 65.06 19.704 65.06H20.256C20.448 65.06 20.556 64.952 20.556 64.76V62.84C20.556 62.648 20.448 62.54 20.256 62.54H19.704C19.512 62.54 19.404 62.648 19.404 62.84V64.76ZM21.804 64.76C21.804 64.952 21.912 65.06 22.104 65.06H22.692C22.884 65.06 22.992 64.952 22.992 64.76V62.84C22.992 62.648 22.884 62.54 22.692 62.54H22.104C21.912 62.54 21.804 62.648 21.804 62.84V64.76ZM24.228 59.636C24.108 59.48 24.06 59.372 24.12 59.324C24.18 59.276 24.288 59.264 24.444 59.3C27 59.936 26.22 61.772 25.212 61.424C25.056 61.376 25.008 61.268 24.984 61.124C24.888 60.62 24.576 60.044 24.228 59.636ZM24.24 64.76C24.24 64.952 24.348 65.06 24.54 65.06H25.116C25.308 65.06 25.416 64.952 25.416 64.76V62.84C25.416 62.648 25.308 62.54 25.116 62.54H24.54C24.348 62.54 24.24 62.648 24.24 62.84V64.76ZM35.8 56.168C35.944 56.168 36.064 56.132 36.172 56.024L36.544 55.688C36.688 55.556 36.82 55.58 36.964 55.688L37.84 56.384C37.996 56.516 38.044 56.732 37.852 56.792C37.816 56.804 37.78 56.816 37.732 56.816C37.588 56.84 37.48 56.876 37.372 56.972C37.048 57.272 36.652 57.608 36.268 57.908C36.04 58.088 36.088 58.268 36.376 58.268H37.972C38.116 58.268 38.236 58.22 38.344 58.112L38.632 57.824C38.764 57.692 38.908 57.692 39.052 57.788L40 58.436C40.168 58.544 40.204 58.724 40.048 58.856C40.012 58.88 39.976 58.904 39.928 58.928C39.772 59 39.676 59.096 39.676 59.264V62.096C39.652 62.312 38.968 62.516 38.536 62.516C38.38 62.516 38.296 62.408 38.296 62.216V62.024C38.296 61.832 38.188 61.724 37.996 61.724H33.028C32.836 61.724 32.728 61.832 32.728 62.024V64.052C32.728 64.436 33.064 64.544 33.892 64.544H38.116C38.848 64.544 39.22 64.496 39.424 64.244C39.64 63.968 39.904 63.344 40.108 62.756C40.168 62.588 40.216 62.516 40.252 62.516C40.288 62.516 40.312 62.612 40.312 62.816L40.324 64.016C40.324 64.184 40.408 64.304 40.588 64.352C40.96 64.46 41.116 64.556 41.116 64.832C41.116 65.48 40.576 65.816 38.236 65.816H33.94C32.2 65.816 31.384 65.432 31.384 64.028V59.504C31.384 59.252 31.216 59.168 31.012 59.324C30.712 59.552 30.412 59.768 30.112 59.948C29.956 60.044 29.848 60.056 29.8 59.984C29.752 59.924 29.788 59.828 29.932 59.684C31.156 58.496 32.344 56.612 32.92 54.968C32.992 54.8 33.1 54.716 33.292 54.764L34.624 55.076C34.828 55.124 34.984 55.328 34.792 55.436C34.768 55.448 34.732 55.46 34.684 55.472C34.516 55.496 34.408 55.532 34.312 55.676C34.288 55.724 34.264 55.76 34.228 55.808C34.108 56.012 34.192 56.168 34.432 56.168H35.8ZM32.668 57.824C32.5 57.992 32.5 58.136 32.644 58.184L32.716 58.208C32.848 58.256 32.956 58.268 33.088 58.268H35.008C35.164 58.268 35.284 58.208 35.368 58.064C35.548 57.74 35.704 57.368 35.848 57.032C35.932 56.828 35.836 56.684 35.62 56.684H33.844C33.688 56.684 33.58 56.732 33.472 56.864C33.22 57.2 32.944 57.524 32.668 57.824ZM32.728 60.908C32.728 61.1 32.836 61.208 33.028 61.208H34.516C34.708 61.208 34.816 61.1 34.816 60.908V59.072C34.816 58.88 34.708 58.772 34.516 58.772H33.028C32.836 58.772 32.728 58.88 32.728 59.072V60.908ZM36.136 60.908C36.136 61.1 36.244 61.208 36.436 61.208H37.996C38.188 61.208 38.296 61.1 38.296 60.908V59.072C38.296 58.88 38.188 58.772 37.996 58.772H36.436C36.244 58.772 36.136 58.88 36.136 59.072V60.908Z" fill="#7A6855"/>
<circle cx="28" cy="15" r="15" fill="#1E2F7B"/>
</svg>
