<svg width="58" height="79" viewBox="0 0 58 79" fill="none" xmlns="http://www.w3.org/2000/svg">
<circle cx="28" cy="15" r="15" fill="#0F5435"/>
<path d="M26.892 62.496C27.012 62.34 27.156 62.316 27.312 62.448C27.552 62.652 27.84 62.892 28.068 63.12C28.188 63.228 28.272 63.36 28.176 63.492C28.116 63.576 28.02 63.6 27.912 63.6H25.092C24.888 63.6 24.768 63.732 24.828 63.936C24.948 64.392 25.116 64.788 25.308 65.16C25.428 65.388 25.62 65.376 25.74 65.16C25.944 64.764 26.148 64.38 26.28 64.068C26.364 63.888 26.52 63.84 26.688 63.948L27.612 64.524C27.78 64.62 27.864 64.824 27.684 64.908C27.66 64.92 27.636 64.932 27.6 64.932C27.432 64.944 27.324 64.944 27.192 65.04C26.892 65.268 26.472 65.532 26.064 65.772C25.896 65.88 25.86 66.036 25.992 66.192C26.568 66.852 27.288 67.296 28.032 67.644C28.212 67.716 28.284 67.8 28.26 67.884C28.224 67.992 28.14 68.04 27.996 68.1C27.66 68.232 27.396 68.484 27.252 68.796C27.156 68.988 27.036 69.048 26.868 68.904C25.716 67.884 25.02 66.504 24.66 63.888V68.688C24.66 69.432 24.492 69.924 23.388 70.08C23.184 70.116 23.076 70.008 23.052 69.804C23.028 69.636 22.992 69.504 22.872 69.372C22.8 69.276 22.632 69.18 22.32 69.108C22.128 69.072 22.032 69 22.032 68.892C22.032 68.784 22.14 68.736 22.344 68.748C22.692 68.772 23.028 68.796 23.148 68.796C23.352 68.796 23.364 68.772 23.364 68.664V67.2C23.364 66.924 23.184 66.852 23.004 67.056C22.584 67.524 22.092 68.028 21.54 68.58C21.432 68.688 21.396 68.736 21.384 68.76C21.384 68.784 21.384 68.796 21.372 68.808C21.3 69.012 21.108 68.988 20.976 68.832L20.352 68.112C20.208 67.956 20.244 67.8 20.436 67.704C21.06 67.404 22.092 66.84 23.148 66.24C23.304 66.156 23.364 66.036 23.364 65.88V63.9C23.364 63.708 23.256 63.6 23.064 63.6H21.036C20.868 63.6 20.748 63.528 20.7 63.348C20.652 63.192 20.76 63.084 20.976 63.084H24.744C24.936 63.084 25.032 62.988 25.044 62.796L25.092 62.076C25.104 61.884 24.984 61.764 24.792 61.764H21.948C21.78 61.764 21.66 61.692 21.612 61.512C21.564 61.344 21.672 61.248 21.888 61.248H24.828C25.008 61.248 25.128 61.14 25.14 60.96L25.176 60.3C25.188 60.108 25.08 59.988 24.888 59.988H21.504C21.336 59.988 21.216 59.904 21.168 59.736C21.12 59.592 21.228 59.484 21.444 59.484H24.9C25.056 59.484 25.152 59.436 25.26 59.328L25.428 59.148C25.548 59.016 25.704 59.004 25.848 59.1L26.664 59.652C26.832 59.76 26.892 59.952 26.736 60.048C26.724 60.048 26.724 60.06 26.712 60.06C26.616 60.12 26.46 60.216 26.448 60.384L26.316 62.772C26.304 62.964 26.34 63.084 26.376 63.084C26.424 63.084 26.484 63.024 26.58 62.904L26.892 62.496ZM16.848 62.52C16.764 62.34 16.8 62.208 16.92 62.172H16.932C17.004 62.148 17.124 62.1 17.124 62.1V62.112C17.64 61.512 18.276 60.048 18.528 59.124C18.576 58.932 18.72 58.86 18.9 58.92L20.004 59.292C20.196 59.364 20.316 59.544 20.148 59.676C20.124 59.7 20.1 59.712 20.076 59.724C19.92 59.784 19.812 59.82 19.716 59.952C19.272 60.588 18.672 61.296 18.108 61.908C17.928 62.1 18 62.256 18.264 62.244C18.528 62.22 18.804 62.208 19.092 62.196C19.248 62.184 19.356 62.112 19.428 61.968C19.584 61.68 19.704 61.416 19.8 61.188C19.872 60.996 20.016 60.936 20.196 61.032L21.204 61.56C21.372 61.644 21.48 61.836 21.312 61.956C21.288 61.968 21.252 61.992 21.216 61.992C21.048 62.04 20.94 62.052 20.832 62.184C20.232 63 19.332 63.996 18.444 64.8C18.24 64.992 18.312 65.16 18.588 65.124C19.188 65.052 19.872 64.956 20.556 64.86C20.748 64.824 20.868 64.86 20.88 64.968C20.892 65.064 20.832 65.16 20.664 65.232C19.98 65.556 18.912 66.06 17.676 66.516C17.676 66.516 17.376 66.6 17.292 66.396L16.908 65.508C16.824 65.328 16.86 65.208 17.016 65.172C17.112 65.136 17.196 65.112 17.232 65.088C17.628 64.752 18.048 64.212 18.444 63.612C18.624 63.372 18.48 63.156 18.216 63.264C18.012 63.348 17.796 63.444 17.58 63.528C17.58 63.528 17.316 63.576 17.232 63.384L16.848 62.52ZM16.944 68.232C16.836 68.04 16.896 67.896 17.1 67.848C17.892 67.608 19.296 67.152 20.688 66.66C20.88 66.588 21 66.6 21.024 66.684C21.036 66.768 20.988 66.864 20.868 66.96C20.208 67.5 19.272 68.196 18.06 69C17.928 69.072 17.868 69.12 17.868 69.132C17.856 69.156 17.856 69.156 17.856 69.168C17.76 69.36 17.568 69.312 17.46 69.12L16.944 68.232ZM21.132 64.344C21.012 64.176 20.964 64.068 21.024 64.032C21.084 63.996 21.192 63.984 21.348 64.044C23.748 64.824 22.884 66.564 21.96 66.18C21.816 66.108 21.78 66 21.768 65.856C21.72 65.352 21.456 64.788 21.132 64.344ZM35.8 60.168C35.944 60.168 36.064 60.132 36.172 60.024L36.544 59.688C36.688 59.556 36.82 59.58 36.964 59.688L37.84 60.384C37.996 60.516 38.044 60.732 37.852 60.792C37.816 60.804 37.78 60.816 37.732 60.816C37.588 60.84 37.48 60.876 37.372 60.972C37.048 61.272 36.652 61.608 36.268 61.908C36.04 62.088 36.088 62.268 36.376 62.268H37.972C38.116 62.268 38.236 62.22 38.344 62.112L38.632 61.824C38.764 61.692 38.908 61.692 39.052 61.788L40 62.436C40.168 62.544 40.204 62.724 40.048 62.856C40.012 62.88 39.976 62.904 39.928 62.928C39.772 63 39.676 63.096 39.676 63.264V66.096C39.652 66.312 38.968 66.516 38.536 66.516C38.38 66.516 38.296 66.408 38.296 66.216V66.024C38.296 65.832 38.188 65.724 37.996 65.724H33.028C32.836 65.724 32.728 65.832 32.728 66.024V68.052C32.728 68.436 33.064 68.544 33.892 68.544H38.116C38.848 68.544 39.22 68.496 39.424 68.244C39.64 67.968 39.904 67.344 40.108 66.756C40.168 66.588 40.216 66.516 40.252 66.516C40.288 66.516 40.312 66.612 40.312 66.816L40.324 68.016C40.324 68.184 40.408 68.304 40.588 68.352C40.96 68.46 41.116 68.556 41.116 68.832C41.116 69.48 40.576 69.816 38.236 69.816H33.94C32.2 69.816 31.384 69.432 31.384 68.028V63.504C31.384 63.252 31.216 63.168 31.012 63.324C30.712 63.552 30.412 63.768 30.112 63.948C29.956 64.044 29.848 64.056 29.8 63.984C29.752 63.924 29.788 63.828 29.932 63.684C31.156 62.496 32.344 60.612 32.92 58.968C32.992 58.8 33.1 58.716 33.292 58.764L34.624 59.076C34.828 59.124 34.984 59.328 34.792 59.436C34.768 59.448 34.732 59.46 34.684 59.472C34.516 59.496 34.408 59.532 34.312 59.676C34.288 59.724 34.264 59.76 34.228 59.808C34.108 60.012 34.192 60.168 34.432 60.168H35.8ZM32.668 61.824C32.5 61.992 32.5 62.136 32.644 62.184L32.716 62.208C32.848 62.256 32.956 62.268 33.088 62.268H35.008C35.164 62.268 35.284 62.208 35.368 62.064C35.548 61.74 35.704 61.368 35.848 61.032C35.932 60.828 35.836 60.684 35.62 60.684H33.844C33.688 60.684 33.58 60.732 33.472 60.864C33.22 61.2 32.944 61.524 32.668 61.824ZM32.728 64.908C32.728 65.1 32.836 65.208 33.028 65.208H34.516C34.708 65.208 34.816 65.1 34.816 64.908V63.072C34.816 62.88 34.708 62.772 34.516 62.772H33.028C32.836 62.772 32.728 62.88 32.728 63.072V64.908ZM36.136 64.908C36.136 65.1 36.244 65.208 36.436 65.208H37.996C38.188 65.208 38.296 65.1 38.296 64.908V63.072C38.296 62.88 38.188 62.772 37.996 62.772H36.436C36.244 62.772 36.136 62.88 36.136 63.072V64.908Z" fill="#7A6855"/>
</svg>
