<svg width="58" height="79" viewBox="0 0 58 79" fill="none" xmlns="http://www.w3.org/2000/svg">
<path d="M19.908 60.564C19.968 60.528 20.064 60.54 20.208 60.624C22.236 61.632 21.348 63.084 20.544 62.7C20.412 62.628 20.364 62.52 20.352 62.352C20.328 61.872 20.136 61.32 19.944 60.876C19.86 60.696 19.848 60.6 19.908 60.564ZM17.016 66.78C16.968 66.624 17.076 66.528 17.292 66.528H21.48C21.672 66.528 21.78 66.42 21.78 66.228V65.652C21.78 65.46 21.672 65.352 21.48 65.352H18.468C18.3 65.352 18.18 65.28 18.132 65.1C18.084 64.932 18.192 64.836 18.408 64.836H21.48C21.672 64.836 21.78 64.728 21.78 64.536V63.996C21.78 63.804 21.672 63.696 21.48 63.696H19.992C19.8 63.696 19.692 63.78 19.692 63.948C19.692 64.188 19.056 64.404 18.552 64.404C18.42 64.404 18.348 64.296 18.348 64.104V59.436C18.348 59.22 18.48 59.112 18.696 59.196L19.608 59.532C19.728 59.58 19.848 59.592 19.98 59.592H24.972C25.116 59.592 25.236 59.544 25.344 59.436L25.608 59.172C25.74 59.04 25.884 59.04 26.028 59.136L26.928 59.748C27.096 59.868 27.144 60.048 26.976 60.156C26.952 60.168 26.928 60.18 26.904 60.204C26.748 60.276 26.664 60.372 26.664 60.54V63.576C26.664 63.708 26.664 63.828 26.544 63.912C26.496 63.948 26.424 63.972 26.352 63.996C26.112 64.08 26.064 64.224 26.268 64.368C26.46 64.524 26.676 64.692 26.868 64.86C27 64.98 27.084 65.124 26.964 65.256C26.904 65.328 26.82 65.352 26.724 65.352H23.4C23.208 65.352 23.1 65.46 23.1 65.652V66.228C23.1 66.42 23.208 66.528 23.4 66.528H25.692C25.848 66.528 25.968 66.48 26.064 66.36L26.484 65.844C26.604 65.688 26.76 65.676 26.904 65.784C27.216 66.024 27.588 66.3 27.876 66.552C27.996 66.66 28.08 66.792 27.972 66.936C27.9 67.008 27.804 67.032 27.708 67.032H17.352C17.184 67.032 17.064 66.948 17.016 66.78ZM17.016 69.72C16.884 69.288 17.196 68.94 17.532 68.796C18.048 68.592 18.588 68.1 18.732 67.476C18.78 67.296 18.804 67.2 18.852 67.2C18.9 67.2 18.96 67.284 18.996 67.464C19.344 68.832 18.756 69.732 18.156 70.02C17.7 70.236 17.208 70.188 17.016 69.72ZM19.692 62.88C19.692 63.072 19.8 63.18 19.992 63.18H21.48C21.672 63.18 21.78 63.072 21.78 62.88V60.396C21.78 60.204 21.672 60.096 21.48 60.096H19.992C19.8 60.096 19.692 60.204 19.692 60.396V62.88ZM20.388 67.608C20.328 67.428 20.328 67.308 20.376 67.296C20.436 67.272 20.52 67.296 20.664 67.392C22.896 68.748 21.78 70.452 20.832 69.852C20.7 69.756 20.676 69.648 20.676 69.492C20.688 68.892 20.556 68.184 20.388 67.608ZM22.62 67.656C22.512 67.488 22.476 67.38 22.536 67.344C22.596 67.308 22.692 67.308 22.848 67.356C25.692 68.328 24.876 70.344 23.796 69.912C23.652 69.852 23.592 69.744 23.568 69.612C23.412 68.964 23.028 68.22 22.62 67.656ZM23.1 64.536C23.1 64.728 23.208 64.836 23.4 64.836H24.768C24.924 64.836 25.044 64.788 25.14 64.668L25.392 64.368C25.512 64.224 25.5 64.164 25.38 64.092C25.332 64.044 25.296 63.984 25.296 63.912C25.296 63.78 25.188 63.696 24.996 63.696H23.4C23.208 63.696 23.1 63.804 23.1 63.996V64.536ZM23.1 62.88C23.1 63.072 23.208 63.18 23.4 63.18H24.996C25.188 63.18 25.296 63.072 25.296 62.88V61.656C25.296 61.464 25.26 61.356 25.176 61.356C25.176 61.356 25.008 61.404 24.912 61.512C24.588 61.86 24.132 62.304 23.724 62.676C23.592 62.796 23.52 62.832 23.46 62.796C23.412 62.772 23.412 62.664 23.472 62.484C23.652 61.944 23.832 61.248 23.94 60.768C23.976 60.576 24.108 60.492 24.3 60.564L24.948 60.792C25.152 60.864 25.296 60.768 25.296 60.552V60.396C25.296 60.204 25.188 60.096 24.996 60.096H23.4C23.208 60.096 23.1 60.204 23.1 60.396V62.88ZM25.104 67.644C24.948 67.512 24.888 67.416 24.948 67.344C25.008 67.284 25.104 67.26 25.284 67.296C28.8 68.028 28.284 70.392 27.072 70.068C26.928 70.032 26.856 69.948 26.808 69.816C26.532 69.084 25.812 68.22 25.104 67.644ZM35.8 60.168C35.944 60.168 36.064 60.132 36.172 60.024L36.544 59.688C36.688 59.556 36.82 59.58 36.964 59.688L37.84 60.384C37.996 60.516 38.044 60.732 37.852 60.792C37.816 60.804 37.78 60.816 37.732 60.816C37.588 60.84 37.48 60.876 37.372 60.972C37.048 61.272 36.652 61.608 36.268 61.908C36.04 62.088 36.088 62.268 36.376 62.268H37.972C38.116 62.268 38.236 62.22 38.344 62.112L38.632 61.824C38.764 61.692 38.908 61.692 39.052 61.788L40 62.436C40.168 62.544 40.204 62.724 40.048 62.856C40.012 62.88 39.976 62.904 39.928 62.928C39.772 63 39.676 63.096 39.676 63.264V66.096C39.652 66.312 38.968 66.516 38.536 66.516C38.38 66.516 38.296 66.408 38.296 66.216V66.024C38.296 65.832 38.188 65.724 37.996 65.724H33.028C32.836 65.724 32.728 65.832 32.728 66.024V68.052C32.728 68.436 33.064 68.544 33.892 68.544H38.116C38.848 68.544 39.22 68.496 39.424 68.244C39.64 67.968 39.904 67.344 40.108 66.756C40.168 66.588 40.216 66.516 40.252 66.516C40.288 66.516 40.312 66.612 40.312 66.816L40.324 68.016C40.324 68.184 40.408 68.304 40.588 68.352C40.96 68.46 41.116 68.556 41.116 68.832C41.116 69.48 40.576 69.816 38.236 69.816H33.94C32.2 69.816 31.384 69.432 31.384 68.028V63.504C31.384 63.252 31.216 63.168 31.012 63.324C30.712 63.552 30.412 63.768 30.112 63.948C29.956 64.044 29.848 64.056 29.8 63.984C29.752 63.924 29.788 63.828 29.932 63.684C31.156 62.496 32.344 60.612 32.92 58.968C32.992 58.8 33.1 58.716 33.292 58.764L34.624 59.076C34.828 59.124 34.984 59.328 34.792 59.436C34.768 59.448 34.732 59.46 34.684 59.472C34.516 59.496 34.408 59.532 34.312 59.676C34.288 59.724 34.264 59.76 34.228 59.808C34.108 60.012 34.192 60.168 34.432 60.168H35.8ZM32.668 61.824C32.5 61.992 32.5 62.136 32.644 62.184L32.716 62.208C32.848 62.256 32.956 62.268 33.088 62.268H35.008C35.164 62.268 35.284 62.208 35.368 62.064C35.548 61.74 35.704 61.368 35.848 61.032C35.932 60.828 35.836 60.684 35.62 60.684H33.844C33.688 60.684 33.58 60.732 33.472 60.864C33.22 61.2 32.944 61.524 32.668 61.824ZM32.728 64.908C32.728 65.1 32.836 65.208 33.028 65.208H34.516C34.708 65.208 34.816 65.1 34.816 64.908V63.072C34.816 62.88 34.708 62.772 34.516 62.772H33.028C32.836 62.772 32.728 62.88 32.728 63.072V64.908ZM36.136 64.908C36.136 65.1 36.244 65.208 36.436 65.208H37.996C38.188 65.208 38.296 65.1 38.296 64.908V63.072C38.296 62.88 38.188 62.772 37.996 62.772H36.436C36.244 62.772 36.136 62.88 36.136 63.072V64.908Z" fill="#7A6855"/>
<circle cx="29" cy="15" r="15" fill="black"/>
</svg>
