<svg width="58" height="76" viewBox="0 0 58 76" fill="none" xmlns="http://www.w3.org/2000/svg">
<path d="M26.712 65.208C26.832 65.064 26.976 65.04 27.132 65.16C27.432 65.388 27.792 65.664 28.08 65.904C28.212 66.024 28.284 66.156 28.164 66.3C28.104 66.372 28.02 66.396 27.912 66.396H20.952C20.784 66.396 20.664 66.324 20.616 66.144C20.568 65.988 20.676 65.892 20.892 65.892H23.376C23.568 65.892 23.676 65.784 23.676 65.592V58.176C23.676 57.984 23.568 57.876 23.376 57.876H21.78C21.612 57.876 21.492 57.804 21.444 57.624C21.396 57.468 21.504 57.36 21.72 57.36H25.692C25.848 57.36 25.968 57.3 26.064 57.18L26.448 56.712C26.568 56.556 26.724 56.544 26.868 56.664C27.156 56.892 27.504 57.156 27.792 57.396C27.912 57.504 27.996 57.636 27.888 57.78C27.816 57.852 27.732 57.876 27.636 57.876H25.392C25.2 57.876 25.092 57.984 25.092 58.176V65.592C25.092 65.784 25.2 65.892 25.392 65.892H25.944C26.1 65.892 26.22 65.844 26.316 65.712L26.712 65.208ZM16.98 59.52C16.932 59.424 16.92 59.34 16.944 59.28C16.992 59.16 17.1 59.16 17.184 59.136C17.22 59.112 17.256 59.1 17.28 59.088C17.904 58.512 18.696 57.084 19.008 56.16C19.08 55.98 19.212 55.908 19.392 55.98L20.604 56.448C20.784 56.52 20.892 56.7 20.736 56.832C20.712 56.856 20.688 56.868 20.652 56.88C20.496 56.94 20.388 56.952 20.28 57.084C19.788 57.684 19.104 58.356 18.444 58.92C18.228 59.1 18.024 59.292 18.06 59.292C18.096 59.28 18.12 59.28 18.144 59.28C18.516 59.28 18.96 59.268 19.416 59.244H19.644H19.656C19.704 59.232 19.92 59.172 20.016 59.04C20.208 58.74 20.364 58.464 20.484 58.224C20.568 58.044 20.712 57.984 20.88 58.08L22.008 58.668C22.188 58.764 22.272 58.956 22.092 59.052C22.068 59.064 22.032 59.076 21.996 59.088C21.84 59.124 21.72 59.136 21.624 59.268C20.94 60.06 19.884 61.044 18.852 61.848C18.624 62.028 18.684 62.196 18.972 62.16C19.728 62.076 20.604 61.956 21.48 61.848C21.684 61.824 21.804 61.86 21.804 61.968C21.804 62.076 21.732 62.148 21.576 62.22C20.796 62.556 19.536 63.072 18.06 63.564C17.928 63.612 17.88 63.624 17.88 63.624L17.868 63.636C17.808 63.708 17.556 63.744 17.472 63.54L17.052 62.58C16.968 62.388 17.016 62.28 17.172 62.232C17.28 62.208 17.376 62.172 17.412 62.148C17.856 61.824 18.36 61.308 18.828 60.732C19.02 60.492 18.864 60.276 18.576 60.372C18.3 60.468 18.024 60.564 17.736 60.648C17.712 60.66 17.688 60.684 17.676 60.696C17.676 60.696 17.496 60.66 17.412 60.48L16.98 59.52ZM17.028 65.304C16.944 65.112 17.004 64.968 17.208 64.92C18.144 64.728 19.896 64.332 21.6 63.888C21.804 63.828 21.924 63.84 21.936 63.936C21.948 64.044 21.9 64.116 21.756 64.212C20.916 64.752 19.728 65.448 18.096 66.216C17.964 66.276 17.916 66.312 17.892 66.336C17.892 66.348 17.88 66.36 17.868 66.372C17.76 66.564 17.568 66.492 17.484 66.3L17.028 65.304ZM35.8 57.168C35.944 57.168 36.064 57.132 36.172 57.024L36.544 56.688C36.688 56.556 36.82 56.58 36.964 56.688L37.84 57.384C37.996 57.516 38.044 57.732 37.852 57.792C37.816 57.804 37.78 57.816 37.732 57.816C37.588 57.84 37.48 57.876 37.372 57.972C37.048 58.272 36.652 58.608 36.268 58.908C36.04 59.088 36.088 59.268 36.376 59.268H37.972C38.116 59.268 38.236 59.22 38.344 59.112L38.632 58.824C38.764 58.692 38.908 58.692 39.052 58.788L40 59.436C40.168 59.544 40.204 59.724 40.048 59.856C40.012 59.88 39.976 59.904 39.928 59.928C39.772 60 39.676 60.096 39.676 60.264V63.096C39.652 63.312 38.968 63.516 38.536 63.516C38.38 63.516 38.296 63.408 38.296 63.216V63.024C38.296 62.832 38.188 62.724 37.996 62.724H33.028C32.836 62.724 32.728 62.832 32.728 63.024V65.052C32.728 65.436 33.064 65.544 33.892 65.544H38.116C38.848 65.544 39.22 65.496 39.424 65.244C39.64 64.968 39.904 64.344 40.108 63.756C40.168 63.588 40.216 63.516 40.252 63.516C40.288 63.516 40.312 63.612 40.312 63.816L40.324 65.016C40.324 65.184 40.408 65.304 40.588 65.352C40.96 65.46 41.116 65.556 41.116 65.832C41.116 66.48 40.576 66.816 38.236 66.816H33.94C32.2 66.816 31.384 66.432 31.384 65.028V60.504C31.384 60.252 31.216 60.168 31.012 60.324C30.712 60.552 30.412 60.768 30.112 60.948C29.956 61.044 29.848 61.056 29.8 60.984C29.752 60.924 29.788 60.828 29.932 60.684C31.156 59.496 32.344 57.612 32.92 55.968C32.992 55.8 33.1 55.716 33.292 55.764L34.624 56.076C34.828 56.124 34.984 56.328 34.792 56.436C34.768 56.448 34.732 56.46 34.684 56.472C34.516 56.496 34.408 56.532 34.312 56.676C34.288 56.724 34.264 56.76 34.228 56.808C34.108 57.012 34.192 57.168 34.432 57.168H35.8ZM32.668 58.824C32.5 58.992 32.5 59.136 32.644 59.184L32.716 59.208C32.848 59.256 32.956 59.268 33.088 59.268H35.008C35.164 59.268 35.284 59.208 35.368 59.064C35.548 58.74 35.704 58.368 35.848 58.032C35.932 57.828 35.836 57.684 35.62 57.684H33.844C33.688 57.684 33.58 57.732 33.472 57.864C33.22 58.2 32.944 58.524 32.668 58.824ZM32.728 61.908C32.728 62.1 32.836 62.208 33.028 62.208H34.516C34.708 62.208 34.816 62.1 34.816 61.908V60.072C34.816 59.88 34.708 59.772 34.516 59.772H33.028C32.836 59.772 32.728 59.88 32.728 60.072V61.908ZM36.136 61.908C36.136 62.1 36.244 62.208 36.436 62.208H37.996C38.188 62.208 38.296 62.1 38.296 61.908V60.072C38.296 59.88 38.188 59.772 37.996 59.772H36.436C36.244 59.772 36.136 59.88 36.136 60.072V61.908Z" fill="#7A6855"/>
<circle cx="29" cy="15" r="15" fill="#AB3D3D"/>
</svg>
