<svg width="58" height="76" viewBox="0 0 58 76" fill="none" xmlns="http://www.w3.org/2000/svg">
<path d="M23.208 65.076C23.232 64.956 23.34 64.908 23.556 64.932C29.496 65.352 27.624 67.524 26.412 66.948C26.292 66.9 26.22 66.828 26.124 66.744C25.632 66.276 24.744 65.736 23.448 65.328C23.268 65.268 23.184 65.184 23.208 65.076ZM16.86 66.96C16.824 66.864 16.908 66.756 17.088 66.696C18.408 66.216 19.776 65.448 20.532 64.824C20.664 64.716 20.808 64.704 20.952 64.8L22.02 65.472C22.2 65.592 22.26 65.808 22.056 65.868C21.972 65.892 21.876 65.892 21.744 65.88C21.6 65.856 21.492 65.856 21.348 65.916C20.28 66.396 18.732 66.84 17.184 67.08C17.004 67.104 16.896 67.068 16.86 66.96ZM16.98 59.232C16.932 59.064 17.04 58.98 17.256 58.98H19.86C20.052 58.98 20.16 58.872 20.16 58.68V58.02C20.16 57.828 20.052 57.72 19.86 57.72H18.072C17.904 57.72 17.784 57.648 17.736 57.468C17.688 57.3 17.796 57.204 18.012 57.204H19.86C20.052 57.204 20.16 57.096 20.16 56.904V56.088C20.16 55.896 20.28 55.788 20.472 55.8L21.636 55.896C21.828 55.908 21.984 56.04 21.888 56.22C21.852 56.268 21.816 56.304 21.756 56.34C21.6 56.424 21.504 56.508 21.504 56.676V56.904C21.504 57.096 21.612 57.204 21.804 57.204H23.148C23.34 57.204 23.448 57.096 23.448 56.904V56.088C23.448 55.896 23.568 55.788 23.76 55.8L24.936 55.896C25.14 55.908 25.284 56.052 25.176 56.232C25.152 56.268 25.116 56.304 25.068 56.34C24.912 56.424 24.816 56.508 24.816 56.676V56.904C24.816 57.096 24.924 57.204 25.116 57.204H25.248C25.404 57.204 25.512 57.144 25.608 57.036L26.028 56.568C26.148 56.424 26.304 56.412 26.448 56.52C26.748 56.736 27.12 57 27.42 57.24C27.552 57.348 27.636 57.48 27.528 57.624C27.468 57.696 27.36 57.72 27.264 57.72H25.116C24.924 57.72 24.816 57.828 24.816 58.02V58.68C24.816 58.872 24.924 58.98 25.116 58.98H25.728C25.884 58.98 25.992 58.932 26.088 58.812L26.532 58.308C26.652 58.164 26.808 58.14 26.952 58.248C27.276 58.476 27.672 58.764 27.984 59.016C28.116 59.112 28.212 59.244 28.104 59.388C28.044 59.472 27.948 59.496 27.84 59.496H23.448C23.256 59.496 23.148 59.604 23.148 59.796V60.072C23.148 60.264 23.256 60.372 23.448 60.372H24.816C24.96 60.372 25.08 60.324 25.188 60.216L25.476 59.94C25.608 59.82 25.752 59.808 25.896 59.904L26.82 60.54C26.988 60.66 27.036 60.828 26.868 60.948C26.844 60.972 26.808 60.984 26.784 60.996C26.616 61.08 26.532 61.176 26.532 61.344V64.356C26.532 64.488 26.532 64.608 26.412 64.692C26.184 64.836 25.692 64.92 25.38 64.92C25.224 64.92 25.14 64.824 25.14 64.668C25.14 64.512 25.032 64.428 24.84 64.428H20.232C20.04 64.428 19.932 64.512 19.932 64.668C19.932 64.92 19.308 65.136 18.768 65.136C18.636 65.136 18.564 65.028 18.564 64.836V60.216C18.564 60 18.708 59.904 18.912 59.976L19.836 60.312C19.956 60.36 20.076 60.372 20.208 60.372H21.504C21.696 60.372 21.804 60.264 21.804 60.072V59.796C21.804 59.604 21.696 59.496 21.504 59.496H17.316C17.148 59.496 17.028 59.424 16.98 59.244V59.232ZM19.932 63.612C19.932 63.804 20.04 63.912 20.232 63.912H21.504C21.696 63.912 21.804 63.804 21.804 63.612V62.892C21.804 62.7 21.696 62.592 21.504 62.592H20.232C20.04 62.592 19.932 62.7 19.932 62.892V63.612ZM19.932 61.788C19.932 61.98 20.04 62.088 20.232 62.088H21.504C21.696 62.088 21.804 61.98 21.804 61.788V61.176C21.804 60.984 21.696 60.876 21.504 60.876H20.232C20.04 60.876 19.932 60.984 19.932 61.176V61.788ZM21.504 58.68C21.504 58.872 21.612 58.98 21.804 58.98H23.148C23.34 58.98 23.448 58.872 23.448 58.68V58.02C23.448 57.828 23.34 57.72 23.148 57.72H21.804C21.612 57.72 21.504 57.828 21.504 58.02V58.68ZM23.148 63.612C23.148 63.804 23.256 63.912 23.448 63.912H24.84C25.032 63.912 25.14 63.804 25.14 63.612V62.892C25.14 62.7 25.032 62.592 24.84 62.592H23.448C23.256 62.592 23.148 62.7 23.148 62.892V63.612ZM23.148 61.788C23.148 61.98 23.256 62.088 23.448 62.088H24.84C25.032 62.088 25.14 61.98 25.14 61.788V61.176C25.14 60.984 25.032 60.876 24.84 60.876H23.448C23.256 60.876 23.148 60.984 23.148 61.176V61.788ZM35.8 57.168C35.944 57.168 36.064 57.132 36.172 57.024L36.544 56.688C36.688 56.556 36.82 56.58 36.964 56.688L37.84 57.384C37.996 57.516 38.044 57.732 37.852 57.792C37.816 57.804 37.78 57.816 37.732 57.816C37.588 57.84 37.48 57.876 37.372 57.972C37.048 58.272 36.652 58.608 36.268 58.908C36.04 59.088 36.088 59.268 36.376 59.268H37.972C38.116 59.268 38.236 59.22 38.344 59.112L38.632 58.824C38.764 58.692 38.908 58.692 39.052 58.788L40 59.436C40.168 59.544 40.204 59.724 40.048 59.856C40.012 59.88 39.976 59.904 39.928 59.928C39.772 60 39.676 60.096 39.676 60.264V63.096C39.652 63.312 38.968 63.516 38.536 63.516C38.38 63.516 38.296 63.408 38.296 63.216V63.024C38.296 62.832 38.188 62.724 37.996 62.724H33.028C32.836 62.724 32.728 62.832 32.728 63.024V65.052C32.728 65.436 33.064 65.544 33.892 65.544H38.116C38.848 65.544 39.22 65.496 39.424 65.244C39.64 64.968 39.904 64.344 40.108 63.756C40.168 63.588 40.216 63.516 40.252 63.516C40.288 63.516 40.312 63.612 40.312 63.816L40.324 65.016C40.324 65.184 40.408 65.304 40.588 65.352C40.96 65.46 41.116 65.556 41.116 65.832C41.116 66.48 40.576 66.816 38.236 66.816H33.94C32.2 66.816 31.384 66.432 31.384 65.028V60.504C31.384 60.252 31.216 60.168 31.012 60.324C30.712 60.552 30.412 60.768 30.112 60.948C29.956 61.044 29.848 61.056 29.8 60.984C29.752 60.924 29.788 60.828 29.932 60.684C31.156 59.496 32.344 57.612 32.92 55.968C32.992 55.8 33.1 55.716 33.292 55.764L34.624 56.076C34.828 56.124 34.984 56.328 34.792 56.436C34.768 56.448 34.732 56.46 34.684 56.472C34.516 56.496 34.408 56.532 34.312 56.676C34.288 56.724 34.264 56.76 34.228 56.808C34.108 57.012 34.192 57.168 34.432 57.168H35.8ZM32.668 58.824C32.5 58.992 32.5 59.136 32.644 59.184L32.716 59.208C32.848 59.256 32.956 59.268 33.088 59.268H35.008C35.164 59.268 35.284 59.208 35.368 59.064C35.548 58.74 35.704 58.368 35.848 58.032C35.932 57.828 35.836 57.684 35.62 57.684H33.844C33.688 57.684 33.58 57.732 33.472 57.864C33.22 58.2 32.944 58.524 32.668 58.824ZM32.728 61.908C32.728 62.1 32.836 62.208 33.028 62.208H34.516C34.708 62.208 34.816 62.1 34.816 61.908V60.072C34.816 59.88 34.708 59.772 34.516 59.772H33.028C32.836 59.772 32.728 59.88 32.728 60.072V61.908ZM36.136 61.908C36.136 62.1 36.244 62.208 36.436 62.208H37.996C38.188 62.208 38.296 62.1 38.296 61.908V60.072C38.296 59.88 38.188 59.772 37.996 59.772H36.436C36.244 59.772 36.136 59.88 36.136 60.072V61.908Z" fill="#7A6855"/>
<circle cx="29" cy="15" r="15" fill="#F5C23F"/>
</svg>
