<svg width="246" height="256" viewBox="0 0 246 256" fill="none" xmlns="http://www.w3.org/2000/svg">
<path d="M219 128.984H26C31.7902 170.636 42.3204 189.331 65.2481 220.022H181.192C201.233 190.119 210.629 171.379 219 128.984Z" fill="url(#paint0_linear_1194_281)"/>
<path d="M62.6938 223.494V219.636H180.842V223.494H62.6938Z" fill="#DDD4CD"/>
<path d="M26 143.643H214.597" stroke="#7A6855" stroke-width="3" stroke-dasharray="2 2"/>
<path d="M29.6685 162.545C100.747 165.577 140.439 165.7 210.927 162.545" stroke="#7A6855" stroke-opacity="0.43" stroke-width="0.2"/>
<path d="M37.6421 182.615C102.953 186.45 139.243 186.376 203.32 181.82" stroke="#7A6855" stroke-opacity="0.42" stroke-width="0.2"/>
<path d="M48.0132 202.663C104.753 206.25 136.578 205.88 193.314 201.896" stroke="#7A6855" stroke-opacity="0.4" stroke-width="0.2"/>
<path d="M122.135 129.37L122.138 219.636" stroke="#7A6855" stroke-opacity="0.49" stroke-width="0.2"/>
<path d="M75.1654 129.37C75.5074 166.194 78.9663 185.641 89.1115 218.865" stroke="#7A6855" stroke-opacity="0.42" stroke-width="0.2"/>
<path d="M167.629 129.37C168.872 167.614 165.464 186.844 155.157 218.865" stroke="#7A6855" stroke-opacity="0.48" stroke-width="0.2"/>
<path d="M46.832 128.984V53.113C46.832 53.113 65.734 4 122.054 4C178.374 4 198.048 53.113 198.048 53.113V128.984" stroke="url(#paint1_linear_1194_281)" stroke-width="7"/>
<path d="M65.7811 102.289C61.0232 108.549 50.606 122.572 47 128.582H198L193.493 115.811L182.975 112.055L171.706 98.5323L152.174 92.5224L125.881 79L105.597 92.5224H86.0647L72.5423 102.289H65.7811Z" fill="url(#paint2_linear_1194_281)"/>
<path d="M113.385 244.193L6.3203 217.079C4.71415 216.672 3.74185 215.041 4.14861 213.435L4.85783 210.634C5.26458 209.028 6.89637 208.056 8.50252 208.462L115.567 235.576C117.173 235.983 118.145 237.615 117.739 239.221L117.029 242.022C116.623 243.628 114.991 244.6 113.385 244.193Z" fill="#948685"/>
<path d="M17.0585 228.992L7.98539 224.955C27.3104 172.747 56.3301 163.281 56.3301 163.281C56.3301 163.281 32.642 187.767 17.0585 228.992Z" fill="url(#paint3_linear_1194_281)"/>
<path d="M13.001 218.312L25.736 213.285" stroke="#7E7170" stroke-width="2"/>
<path d="M14.856 210.988L23.6335 220.854" stroke="#7E7170" stroke-width="2"/>
<path d="M176.856 209.92L171.28 234.234H210.315L212.323 211.705L214.331 189.176L199.609 172L192.024 200.552L176.856 209.92Z" fill="url(#paint4_linear_1194_281)"/>
<path d="M214.108 189.176L199.609 172L229.5 177.577L241.322 234.011L210.316 234.234L214.108 189.176Z" fill="url(#paint5_linear_1194_281)"/>
<path d="M221.676 220.21L229.415 210.812L234.667 237.347H220.57L221.676 220.21Z" fill="url(#paint6_linear_1194_281)"/>
<path d="M239.754 217.281L229.416 210.812L234.668 237.346H246L239.754 217.281Z" fill="url(#paint7_linear_1194_281)"/>
<path d="M168.359 197.454C167.869 207.552 167.438 231.058 169.364 231.093C171.166 231.006 172.508 229.396 172.268 227.608L170.163 211.921L169.07 197.47C168.876 194.898 168.484 194.877 168.359 197.454Z" fill="#99DFA4"/>
<path d="M179.756 217.284C175.868 222.831 169.275 232.813 170.165 233.412C171.118 233.963 172.339 233.582 172.807 232.586L176.92 223.847L180.295 217.636C181.527 215.369 181.236 215.171 179.756 217.284Z" fill="#99DFA4"/>
<path d="M173.164 235.833L169.513 236.02C168.599 236.067 167.698 235.779 166.982 235.209C165.201 233.794 165.079 231.129 166.718 229.552C167.908 228.406 169.709 228.166 171.155 228.964L174.341 230.72C174.703 230.919 175.014 231.198 175.253 231.536C176.491 233.291 175.309 235.723 173.164 235.833Z" fill="#C1EFF9"/>
<ellipse cx="180.358" cy="211.251" rx="1.27593" ry="1.27593" fill="#FFBABA"/>
<ellipse cx="181.983" cy="209.859" rx="1.27593" ry="1.27593" fill="#FFBABA"/>
<ellipse cx="183.606" cy="211.251" rx="1.27593" ry="1.27593" fill="#FFBABA"/>
<ellipse cx="181.054" cy="212.875" rx="1.27593" ry="1.27593" fill="#FFBABA"/>
<ellipse cx="182.911" cy="212.875" rx="1.27593" ry="1.27593" fill="#FFBABA"/>
<defs>
<linearGradient id="paint0_linear_1194_281" x1="122.5" y1="128.984" x2="122.5" y2="220.022" gradientUnits="userSpaceOnUse">
<stop stop-color="#C2AEA0"/>
<stop offset="1" stop-color="#E7E1DA"/>
</linearGradient>
<linearGradient id="paint1_linear_1194_281" x1="122.44" y1="4" x2="122.44" y2="128.984" gradientUnits="userSpaceOnUse">
<stop stop-color="#FAE6D0"/>
<stop offset="1" stop-color="#C4A789"/>
</linearGradient>
<linearGradient id="paint2_linear_1194_281" x1="123" y1="129" x2="123" y2="62" gradientUnits="userSpaceOnUse">
<stop stop-color="white"/>
<stop offset="1" stop-color="#82DDFB"/>
</linearGradient>
<linearGradient id="paint3_linear_1194_281" x1="13.6636" y1="227.481" x2="52.5813" y2="172.801" gradientUnits="userSpaceOnUse">
<stop stop-color="#8E9B9E"/>
<stop offset="1" stop-color="#E5FBFF"/>
</linearGradient>
<linearGradient id="paint4_linear_1194_281" x1="202.954" y1="175.792" x2="193.586" y2="239.81" gradientUnits="userSpaceOnUse">
<stop stop-color="#7CD4E8"/>
<stop offset="1" stop-color="white"/>
</linearGradient>
<linearGradient id="paint5_linear_1194_281" x1="211.878" y1="175.123" x2="223.031" y2="242.264" gradientUnits="userSpaceOnUse">
<stop stop-color="#99E7F8"/>
<stop offset="1" stop-color="white"/>
</linearGradient>
<linearGradient id="paint6_linear_1194_281" x1="227.619" y1="210.812" x2="227.619" y2="237.347" gradientUnits="userSpaceOnUse">
<stop stop-color="#FFD2D2"/>
<stop offset="0.653425" stop-color="#C9F2FB"/>
</linearGradient>
<linearGradient id="paint7_linear_1194_281" x1="247.785" y1="224.865" x2="237.708" y2="237.346" gradientUnits="userSpaceOnUse">
<stop stop-color="#FFE1E2"/>
<stop offset="1" stop-color="#C9F2FB"/>
</linearGradient>
</defs>
</svg>
