<svg width="67" height="111" viewBox="0 0 67 111" fill="none" xmlns="http://www.w3.org/2000/svg">
<path d="M22.5578 0C16.1746 14.0179 3.4082 42.5563 3.4082 44.5666H48.5671V0H22.5578Z" fill="#E8E8E8"/>
<path d="M14.9523 17.8577L3.25537 44.5666H56.4096L53.5964 8.38174H48.6363V0H28.0557L21.3189 17.8577H14.9523Z" fill="url(#paint0_linear_2169_652)"/>
<path d="M42.2 22.2094C38.3492 30.6661 30.6475 47.8827 30.6475 49.0955H61.2962L57.8908 22.2094H42.2Z" fill="#ECECEC"/>
<path d="M43.7514 24.8742H58.2615L60.7045 49.1564H32.5728L36.4964 39.6064H37.977L43.7514 24.8742Z" fill="url(#paint1_linear_2169_652)"/>
<path d="M43.4582 48.7482C42.1997 48.9703 41.0448 50.9691 40.2749 50.9691H67C67 50.9691 65.2233 45.6771 60.8555 44.4927C56.4877 43.3082 54.7428 47.8333 52.564 48.0079C51.0872 48.1262 51.1574 46.3052 48.9365 46.8974C46.7156 47.4897 47.8128 49.6474 46.2714 49.8586C45.1012 50.019 44.7168 48.5261 43.4582 48.7482Z" fill="#8BC795"/>
<path d="M4.0717 41.0872C1.54321 41.0964 0 46.1213 0 46.1213H13.5477C12.9061 45.1095 12.7781 42.9734 11.1787 42.7158C9.86383 42.5041 9.00709 43.6289 8.1434 44.2705C7.2797 44.9121 6.09007 41.0798 4.0717 41.0872Z" fill="#8BC795"/>
<ellipse cx="35.9803" cy="17.9154" rx="1.03643" ry="1.03643" fill="white"/>
<ellipse cx="33.9807" cy="27.7615" rx="0.666278" ry="0.666279" fill="white"/>
<ellipse cx="7.47829" cy="41.6793" rx="0.666278" ry="0.666279" fill="white"/>
<ellipse cx="44.1941" cy="45.3809" rx="0.666278" ry="0.666279" fill="white"/>
<path d="M26.715 101.15C26.715 101.39 26.85 101.525 27.09 101.525H27.285C27.525 101.525 27.66 101.39 27.66 101.15V98.87C27.66 98.63 27.525 98.495 27.285 98.495H25.455C25.245 98.495 25.095 98.405 25.035 98.18C24.975 97.985 25.11 97.85 25.38 97.85H27.285C27.525 97.85 27.66 97.715 27.66 97.475V96.77C27.66 96.53 27.555 96.395 27.36 96.395H27.33C27.135 96.395 27.015 96.455 26.865 96.59C26.52 96.95 26.175 97.25 25.83 97.49C25.665 97.61 25.53 97.625 25.455 97.565C25.365 97.505 25.395 97.37 25.515 97.16C25.77 96.725 25.995 96.185 26.205 95.615C26.31 95.27 25.995 95.105 25.74 95.375C25.365 95.78 24.975 96.155 24.555 96.5C24.375 96.65 24.24 96.68 24.18 96.605C24.12 96.545 24.135 96.41 24.27 96.215C25.14 94.835 25.845 92.96 26.19 91.58C26.25 91.34 26.415 91.25 26.655 91.325L28.125 91.79C28.365 91.865 28.53 92.09 28.32 92.255C28.275 92.285 28.245 92.3 28.185 92.315C27.99 92.375 27.84 92.42 27.735 92.6C27.69 92.705 27.63 92.795 27.585 92.885C27.435 93.155 27.54 93.335 27.84 93.335H31.56C31.74 93.335 31.89 93.29 32.025 93.155L32.43 92.765C32.595 92.6 32.775 92.6 32.955 92.75L33.945 93.545C34.14 93.695 34.185 93.95 33.96 94.07C33.93 94.085 33.885 94.1 33.84 94.115C33.63 94.19 33.51 94.31 33.51 94.55C33.465 100.775 33.345 103.745 32.595 104.615C32.145 105.14 31.635 105.395 30.96 105.455C30.72 105.47 30.6 105.335 30.585 105.08C30.555 104.81 30.495 104.6 30.3 104.42C30.12 104.24 29.715 104.09 29.205 103.97C28.98 103.91 28.875 103.82 28.875 103.67C28.875 103.535 29.01 103.46 29.265 103.475C29.835 103.535 30.48 103.58 30.765 103.58C31.065 103.58 31.23 103.535 31.32 103.43C31.845 102.86 31.935 99.815 31.98 94.37C31.98 94.115 31.845 93.98 31.605 93.98H27.18C26.985 93.98 26.85 94.025 26.76 94.16C26.76 94.16 26.805 94.385 27.06 94.475L28.065 94.805C28.305 94.88 28.44 95.09 28.26 95.27C28.215 95.315 28.155 95.345 28.08 95.375C27.885 95.435 27.75 95.435 27.66 95.57C27.66 95.57 27.78 95.75 28.08 95.75H29.19C29.385 95.75 29.535 95.69 29.655 95.54L29.895 95.255C30.045 95.075 30.24 95.045 30.42 95.195C30.66 95.375 30.915 95.6 31.155 95.795C31.305 95.93 31.41 96.095 31.29 96.26C31.215 96.365 31.11 96.395 30.99 96.395H29.34C29.1 96.395 28.965 96.53 28.965 96.77V97.475C28.965 97.715 29.1 97.85 29.34 97.85H29.655C29.85 97.85 30 97.79 30.12 97.625L30.375 97.295C30.525 97.1 30.705 97.07 30.9 97.22C31.14 97.415 31.425 97.655 31.665 97.88C31.815 98.03 31.89 98.195 31.77 98.375C31.695 98.465 31.59 98.495 31.47 98.495H29.34C29.1 98.495 28.965 98.63 28.965 98.87V101.15C28.965 101.39 29.1 101.525 29.34 101.525H29.55C29.79 101.525 29.925 101.39 29.925 101.15V99.47C29.925 99.23 30.075 99.095 30.315 99.125L31.08 99.2C31.335 99.215 31.53 99.38 31.41 99.575C31.395 99.59 31.395 99.605 31.38 99.62C31.245 99.785 31.11 99.845 31.11 100.055V102.425C31.11 102.68 30.585 102.845 30.15 102.845C30.015 102.845 29.925 102.71 29.925 102.5C29.925 102.29 29.79 102.17 29.55 102.17H27.045C26.85 102.17 26.745 102.215 26.655 102.305C26.505 102.47 26.325 102.515 26.13 102.41L25.545 102.125C25.305 102.005 25.2 101.855 25.305 101.735C25.305 101.72 25.32 101.72 25.32 101.705C25.395 101.63 25.5 101.555 25.53 101.525C25.56 101.495 25.575 101.39 25.575 101.21V99.485C25.575 99.245 25.725 99.11 25.965 99.14L26.715 99.215C26.955 99.245 27.15 99.41 27.015 99.605C27 99.62 27 99.635 26.985 99.65C26.835 99.8 26.715 99.875 26.715 100.085V101.15ZM20.655 105.38C20.58 105.38 20.52 105.245 20.52 105.005V92.075C20.52 91.805 20.7 91.685 20.955 91.775L22.02 92.15C22.185 92.21 22.32 92.225 22.485 92.225H22.965C23.145 92.225 23.28 92.18 23.43 92.045L23.76 91.76C23.94 91.595 24.12 91.595 24.3 91.76L25.32 92.66C25.5 92.825 25.575 93.08 25.335 93.17C25.29 93.185 25.23 93.2 25.17 93.2C24.96 93.23 24.825 93.29 24.735 93.485C24.315 94.31 23.685 95.48 23.145 96.305C23.025 96.515 23.055 96.68 23.22 96.83C24.375 97.865 24.9 99.155 24.9 100.28C24.915 101.66 24.48 102.44 23.28 102.605C23.025 102.635 22.89 102.5 22.875 102.245C22.86 101.975 22.8 101.705 22.695 101.555C22.665 101.495 22.56 101.435 22.41 101.39C22.2 101.315 22.08 101.225 22.08 101.09C22.08 100.955 22.215 100.88 22.455 100.88H22.875C23.025 100.88 23.145 100.865 23.205 100.82C23.445 100.64 23.49 100.4 23.49 99.95C23.49 98.96 23.28 97.955 22.65 96.965C22.545 96.785 22.53 96.65 22.575 96.455C22.8 95.6 23.07 94.31 23.25 93.275C23.295 93.02 23.175 92.87 22.92 92.87H22.425C22.185 92.87 22.05 93.005 22.05 93.245V104.825C22.05 105.065 21.57 105.38 20.79 105.38H20.655ZM44.005 91.4C44.26 91.415 44.44 91.595 44.305 91.82C44.26 91.88 44.215 91.94 44.155 91.97C43.96 92.09 43.84 92.195 43.84 92.405V96.2C43.84 96.44 43.975 96.575 44.215 96.575H46.015C46.21 96.575 46.36 96.515 46.48 96.365L47.08 95.675C47.23 95.495 47.425 95.465 47.605 95.6C48.04 95.9 48.55 96.275 48.97 96.62C49.12 96.74 49.24 96.905 49.12 97.085C49.045 97.19 48.91 97.22 48.775 97.22H44.215C43.975 97.22 43.84 97.355 43.84 97.595V103.595C43.84 103.835 43.975 103.97 44.215 103.97H46.78C46.975 103.97 47.11 103.895 47.23 103.76L47.875 103.04C48.025 102.86 48.22 102.83 48.4 102.965C48.85 103.28 49.39 103.67 49.825 104.015C49.99 104.15 50.095 104.33 49.945 104.495C49.87 104.585 49.75 104.615 49.615 104.615H36.43C36.22 104.615 36.07 104.525 36.01 104.3C35.95 104.105 36.085 103.97 36.355 103.97H41.65C41.89 103.97 42.025 103.835 42.025 103.595V97.595C42.025 97.355 41.89 97.22 41.65 97.22H37.375C37.165 97.22 37.015 97.13 36.955 96.905C36.895 96.71 37.03 96.575 37.3 96.575H41.65C41.89 96.575 42.025 96.44 42.025 96.2V91.625C42.025 91.385 42.175 91.25 42.415 91.265L44.005 91.4Z" fill="#7A6855"/>
<defs>
<linearGradient id="paint0_linear_2169_652" x1="49.0065" y1="-1.85077" x2="6.58678" y2="42.6418" gradientUnits="userSpaceOnUse">
<stop stop-color="#9FA1A2"/>
<stop offset="1" stop-color="#E8EFF2"/>
</linearGradient>
<linearGradient id="paint1_linear_2169_652" x1="37.829" y1="29.0199" x2="58.7797" y2="49.1563" gradientUnits="userSpaceOnUse">
<stop stop-color="#A5B1B5"/>
<stop offset="1" stop-color="#F4F4F4"/>
</linearGradient>
</defs>
</svg>
