<svg width="85" height="130" viewBox="0 0 78 110" fill="none" xmlns="http://www.w3.org/2000/svg">
<path d="M26.8365 17.2137C28.2263 25.9492 28.0381 34.8814 28.2871 36.414H2.39899L6.66482 21.6169C6.85508 20.957 7.10167 20.3145 7.40185 19.6967L10.0713 14.2027C10.2665 13.801 10.4935 13.4155 10.7503 13.05C13.3912 9.29008 18.5695 8.36243 22.3513 10.9718L23.132 11.5104C25.0773 12.8526 26.4652 14.8797 26.8365 17.2137Z" fill="url(#paint0_linear_2169_654)"/>
<path d="M14.304 34.3096L12.3156 41.4899C12.1906 41.9416 12.5303 42.3882 12.999 42.3882H66.0329C66.7487 42.3882 67.2327 41.658 66.954 40.9987L53.3524 8.83009C51.1568 3.63719 45.7155 0.5981 40.1425 1.45202C35.2048 2.2086 31.2131 5.87259 30.0373 10.7276L27.5713 20.9096C21.1198 22.7655 16.0957 27.8399 14.304 34.3096Z" fill="url(#paint1_linear_2169_654)"/>
<path d="M55.4682 33.6645C54.3658 39.9072 54.515 46.2716 54.3159 47.3667H75.0833L67.7586 32.3214C66.0446 28.8006 61.6655 27.5292 58.3324 29.5846C56.8524 30.4972 55.7706 31.9522 55.4682 33.6645Z" fill="url(#paint2_linear_2169_654)"/>
<path d="M1.91217 34.05C0.966494 34.2664 0.155628 35.9526 0.545161 36.8411C1.54279 39.1166 12.4952 37.4097 8.57734 35.4949C7.48278 34.96 7.07259 33.9731 5.90791 34.3306C5.14203 34.5656 5.25817 35.5921 4.48743 35.8107C3.31537 36.1431 3.39007 33.7118 1.91217 34.05Z" fill="#5EA56B"/>
<path d="M14.4281 39.8071C12.5341 40.0135 10.7806 41.8586 11.3119 43.4109C12.6725 47.3866 29.89 44.988 27.2734 42.4822C25.7045 40.9797 26.4172 42.0314 23.6857 39.7263C22.1621 38.4405 20.7801 41.1821 19.2257 41.4209C16.862 41.7842 17.388 39.4847 14.4281 39.8071Z" fill="#5EA56B"/>
<path d="M66.8336 45.3751C65.4941 45.2856 65.4111 48.5045 65.4111 48.5045H77.7862C77.7862 48.5045 78.6397 45.9441 76.9328 45.9441C75.2259 45.9441 74.9414 47.3665 74.2302 47.3665C73.519 47.3665 74.0879 43.6682 71.812 43.8105C69.5362 43.9527 69.5362 47.3665 68.5405 47.3665C67.5448 47.3665 67.8556 45.4435 66.8336 45.3751Z" fill="#5EA56B"/>
<path d="M29.305 102.015C29.38 101.925 29.5 101.895 29.725 101.925C32.59 102.225 32.035 104.07 30.985 103.935C30.805 103.905 30.715 103.785 30.61 103.62C30.385 103.215 29.92 102.75 29.5 102.39C29.305 102.225 29.23 102.105 29.305 102.015ZM24.25 99.675C24.19 99.48 24.325 99.36 24.595 99.36H25.375C25.69 99.36 25.87 99.315 25.78 99.21C25.735 99.135 25.69 99.075 25.66 98.985C25.585 98.82 25.6 98.7 25.615 98.52C25.735 97.545 25.69 97.095 25.33 96.945C25.21 96.9 25.09 96.855 24.94 96.825C24.715 96.78 24.595 96.675 24.595 96.51C24.595 96.345 24.73 96.255 24.97 96.255H25.405C25.675 96.255 25.75 96.24 25.945 96.06C26.335 95.73 26.35 95.73 28.84 93.3C29.02 93.12 29.155 93.06 29.245 93.12C29.32 93.18 29.305 93.315 29.155 93.525C29.035 93.705 28.885 93.9 28.72 94.11L28.405 94.53C27.865 95.235 27.325 95.955 27.205 96.135C26.995 96.465 26.845 96.735 26.845 96.915C26.845 97.065 26.905 97.2 27.01 97.44C27.115 97.68 27.265 98.025 27.235 98.505C27.235 98.715 27.175 98.895 27.085 99.045C26.905 99.3 26.89 99.36 27.19 99.36H35.095C35.29 99.36 35.41 99.315 35.545 99.165C35.695 99 35.62 98.85 35.365 98.715C34.24 98.145 33.595 97.275 33.22 96.39C33.1 96.12 32.995 96.135 32.89 96.39C32.41 97.515 31.3 98.46 28.165 99.18C27.925 99.225 27.775 99.18 27.715 99.015C27.655 98.88 27.76 98.745 28 98.655C30.955 97.56 31.435 96.39 31.555 94.905C31.585 94.665 31.72 94.545 31.96 94.56L33.325 94.665C33.565 94.68 33.76 94.86 33.625 95.07C33.595 95.13 33.55 95.175 33.49 95.205C33.31 95.325 33.19 95.295 33.19 95.34C33.175 95.37 33.205 95.475 33.31 95.625C33.82 96.39 35.05 97.035 37.3 97.425C37.54 97.47 37.66 97.56 37.66 97.68C37.645 97.8 37.54 97.89 37.315 97.95C37.06 98.025 36.865 98.13 36.715 98.265C36.55 98.43 36.61 98.625 36.805 98.76C37.045 98.94 37.345 99.165 37.63 99.39C37.795 99.525 37.9 99.705 37.765 99.87C37.675 99.96 37.57 99.99 37.435 99.99H29.92C29.71 99.99 29.56 100.08 29.485 100.29L29.335 100.68C29.23 100.95 29.35 101.115 29.62 101.115H32.86C33.055 101.115 33.19 101.04 33.31 100.905L33.535 100.665C33.685 100.5 33.865 100.455 34.06 100.59L35.14 101.295C35.365 101.43 35.425 101.67 35.2 101.79C35.17 101.805 35.14 101.82 35.11 101.82C34.915 101.91 34.81 101.94 34.78 102.045C34.765 102.105 34.765 102.15 34.75 102.195L34.63 102.735C34.435 103.68 34.33 104.175 34.33 104.43C34.345 104.58 34.42 104.61 34.765 104.61H36.205C36.67 104.61 36.775 104.58 36.82 104.475C36.955 104.175 37.105 103.725 37.225 103.245C37.27 103.02 37.33 102.915 37.375 102.915C37.42 102.915 37.45 103.035 37.45 103.29L37.435 104.085C37.435 104.295 37.54 104.445 37.75 104.535C38.05 104.655 38.155 104.79 38.155 105.075C38.155 105.735 37.585 106.125 36.22 106.125H34.525C33.145 106.125 32.74 105.66 32.725 104.58C32.71 104.205 32.785 103.815 32.89 103.215C32.965 102.915 33.025 102.57 33.1 102.165C33.145 101.91 33.01 101.76 32.755 101.76H29.23C29.02 101.76 28.87 101.85 28.795 102.06C28.495 102.795 28.195 103.545 27.955 104.115C27.85 104.385 27.97 104.55 28.255 104.52C29.215 104.445 30.325 104.325 31.405 104.205C31.66 104.175 31.81 104.22 31.81 104.37C31.81 104.52 31.72 104.625 31.51 104.7C30.34 105.09 28.585 105.645 26.53 106.155C26.53 106.155 26.23 106.23 26.095 106.005L25.51 105.015C25.39 104.82 25.45 104.655 25.645 104.505C25.855 104.34 26.095 104.115 26.215 103.905C26.47 103.47 27.16 101.64 27.595 100.425C27.685 100.155 27.565 99.99 27.295 99.99H24.67C24.46 99.99 24.31 99.885 24.25 99.675ZM24.895 93.075C24.7 92.91 24.61 92.79 24.685 92.715C24.76 92.64 24.895 92.595 25.105 92.61C28.315 92.805 27.61 95.07 26.335 94.8C26.155 94.755 26.065 94.65 26.02 94.5C25.825 94.02 25.375 93.465 24.895 93.075ZM27.865 96.81C27.79 96.75 27.85 96.615 28 96.435C28.885 95.415 29.605 93.84 29.95 92.445C29.995 92.22 30.16 92.115 30.385 92.145L31.96 92.385C32.215 92.43 32.425 92.67 32.2 92.82C32.17 92.85 32.125 92.865 32.065 92.88C31.855 92.925 31.72 92.97 31.615 93.165C31.57 93.24 31.525 93.315 31.48 93.39C31.33 93.66 31.435 93.84 31.735 93.84H35.005C35.185 93.84 35.32 93.795 35.47 93.66L35.86 93.315C36.04 93.15 36.22 93.15 36.4 93.315L37.405 94.2C37.6 94.38 37.645 94.635 37.42 94.695C37.39 94.71 37.345 94.71 37.315 94.725C37.12 94.755 36.985 94.785 36.85 94.905C36.355 95.31 35.725 95.745 35.2 96.045C35.02 96.15 34.9 96.165 34.84 96.12C34.78 96.09 34.78 95.955 34.87 95.73C34.96 95.475 35.05 95.19 35.14 94.905C35.23 94.65 35.095 94.485 34.825 94.485H31.015C30.82 94.485 30.685 94.545 30.55 94.71C29.875 95.52 29.08 96.24 28.255 96.75C28.075 96.87 27.94 96.885 27.865 96.81ZM51.845 92.835C51.995 92.655 52.19 92.625 52.37 92.76C52.82 93.075 53.345 93.465 53.795 93.795C53.96 93.915 54.08 94.08 53.945 94.26C53.87 94.365 53.75 94.395 53.6 94.395H47.135C46.925 94.395 46.79 94.485 46.715 94.695C46.25 95.91 45.635 97.11 44.87 98.205C44.705 98.43 44.72 98.595 44.9 98.655L44.96 98.67C45.125 98.73 45.26 98.745 45.425 98.745H50.405C50.585 98.745 50.735 98.685 50.87 98.55L51.26 98.16C51.425 97.995 51.605 97.98 51.785 98.115L53.015 98.97C53.225 99.12 53.27 99.345 53.06 99.495C53.015 99.54 52.955 99.57 52.88 99.615C52.67 99.705 52.565 99.825 52.565 100.035V105.51C52.565 105.675 52.55 105.825 52.4 105.93C52.115 106.11 51.53 106.26 51.095 106.26C50.93 106.26 50.825 106.125 50.825 105.885V105.285C50.825 105.045 50.69 104.91 50.45 104.91H45.35C45.11 104.91 44.975 105.045 44.975 105.285V105.825C44.975 106.065 44.465 106.38 43.58 106.38C43.385 106.38 43.28 106.245 43.28 106.005V100.755C43.28 100.425 43.07 100.335 42.815 100.56C42.02 101.34 41.165 102.015 40.265 102.585C40.07 102.705 39.935 102.72 39.875 102.645C39.815 102.57 39.86 102.435 40.04 102.27C42.155 100.215 43.835 97.395 44.54 94.815C44.615 94.56 44.465 94.395 44.21 94.395H40.61C40.4 94.395 40.25 94.305 40.19 94.08C40.13 93.885 40.265 93.75 40.535 93.75H50.765C50.96 93.75 51.095 93.675 51.215 93.54L51.845 92.835ZM44.975 103.905C44.975 104.145 45.11 104.28 45.35 104.28H50.45C50.69 104.28 50.825 104.145 50.825 103.905V99.765C50.825 99.525 50.69 99.39 50.45 99.39H45.35C45.11 99.39 44.975 99.525 44.975 99.765V103.905Z" fill="#7A6855"/>
<defs>
<linearGradient id="paint0_linear_2169_654" x1="15.343" y1="6.25867" x2="15.343" y2="36.414" gradientUnits="userSpaceOnUse">
<stop stop-color="#9B8770" stop-opacity="0.51"/>
<stop offset="1" stop-color="#EFE7DD" stop-opacity="0.4"/>
</linearGradient>
<linearGradient id="paint1_linear_2169_654" x1="33.83" y1="4.26726" x2="44.9249" y2="40.9658" gradientUnits="userSpaceOnUse">
<stop offset="0.107377" stop-color="#9B8770"/>
<stop offset="0.376293" stop-color="#B9AC9E"/>
<stop offset="0.85124" stop-color="#EFE7DE"/>
</linearGradient>
<linearGradient id="paint2_linear_2169_654" x1="64.6996" y1="25.7458" x2="64.6996" y2="47.3667" gradientUnits="userSpaceOnUse">
<stop stop-color="#9B8770"/>
<stop offset="1" stop-color="#EFE7DD"/>
</linearGradient>
</defs>
</svg>
