<svg width="68" height="114" viewBox="0 0 68 114" fill="none" xmlns="http://www.w3.org/2000/svg">
<path d="M11.3502 31.0687L6.78125 50.9892H38.7637L40.4085 32.5307L42.0533 14.0723L29.9914 0L23.7776 23.3929L11.3502 31.0687Z" fill="url(#paint0_linear_2169_653)"/>
<path d="M41.8704 14.0723L29.9912 0L54.4806 4.56892L64.1668 50.8064L38.7635 50.9892L41.8704 14.0723Z" fill="url(#paint1_linear_2169_653)"/>
<path d="M48.0733 39.4988L54.4142 31.7991L58.7169 53.5393H47.1675L48.0733 39.4988Z" fill="url(#paint2_linear_2169_653)"/>
<path d="M62.882 37.0987L54.4116 31.7988L58.7144 53.5389H67.9992L62.882 37.0987Z" fill="url(#paint3_linear_2169_653)"/>
<path d="M4.35119 21.6716C3.96726 30.3269 3.68475 48.3881 5.21288 48.4162C6.68918 48.345 7.78833 47.0257 7.59177 45.5608L5.86719 32.7084L5.03414 21.6884C4.83967 19.1158 4.46552 19.0942 4.35119 21.6716Z" fill="#99DFA4"/>
<path d="M13.256 37.7745C10.0393 42.4083 5.17308 49.8477 5.86825 50.3148C6.64864 50.7669 7.64874 50.4542 8.03276 49.6382L11.402 42.4787L13.7747 38.1124C15.0066 35.8456 14.7271 35.6551 13.256 37.7745Z" fill="#99DFA4"/>
<path d="M8.32669 52.2984L5.33574 52.452C4.58643 52.4904 3.84883 52.2541 3.26141 51.7873C1.80237 50.6279 1.70295 48.4447 3.04564 47.1524C4.02074 46.2138 5.49591 46.017 6.68112 46.6704L9.29114 48.1094C9.58747 48.2728 9.84284 48.5014 10.038 48.7778C11.0529 50.2158 10.0844 52.2082 8.32669 52.2984Z" fill="#C1EFF9"/>
<ellipse cx="14.2187" cy="32.1576" rx="1.04539" ry="1.04539" fill="#FFBABA"/>
<ellipse cx="15.5498" cy="31.0174" rx="1.04539" ry="1.04539" fill="#FFBABA"/>
<ellipse cx="16.8799" cy="32.1576" rx="1.04539" ry="1.04539" fill="#FFBABA"/>
<ellipse cx="14.7895" cy="33.4881" rx="1.04539" ry="1.04539" fill="#FFBABA"/>
<ellipse cx="16.3105" cy="33.4881" rx="1.04539" ry="1.04539" fill="#FFBABA"/>
<path d="M20.245 94.235C20.32 94.145 20.44 94.13 20.65 94.13C22.57 94.235 23.185 95.075 23.065 95.705C23.005 95.96 23.05 96.08 23.305 96.08H25.825C26.02 96.08 26.155 96.02 26.275 95.87L26.86 95.21C27.01 95.03 27.205 95 27.385 95.135C27.82 95.435 28.33 95.795 28.75 96.125C28.915 96.26 29.02 96.44 28.885 96.605C28.795 96.695 28.69 96.725 28.555 96.725H15.61C15.4 96.725 15.25 96.635 15.19 96.41C15.13 96.2 15.265 96.08 15.535 96.08H20.995C21.28 96.08 21.415 95.9 21.28 95.645C21.085 95.27 20.77 94.88 20.44 94.595C20.26 94.43 20.17 94.31 20.245 94.235ZM16.12 108.38C16.045 108.38 15.985 108.245 15.985 108.005V101.345C15.985 101.075 16.165 100.955 16.42 101.045L17.59 101.465C17.755 101.525 17.89 101.54 18.055 101.54H26.095C26.275 101.54 26.425 101.495 26.56 101.345L26.875 101.015C27.025 100.85 27.22 100.82 27.4 100.955L28.57 101.765C28.78 101.9 28.84 102.14 28.63 102.275C28.6 102.305 28.57 102.32 28.525 102.335C28.33 102.44 28.21 102.545 28.21 102.755V106.58C28.21 107.54 27.985 108.155 26.44 108.35C26.185 108.395 26.05 108.26 26.005 108.02C25.975 107.75 25.915 107.57 25.735 107.39C25.6 107.24 25.36 107.105 24.895 107C24.655 106.955 24.535 106.865 24.535 106.73C24.535 106.61 24.655 106.55 24.88 106.55C25 106.565 25.105 106.565 25.225 106.565C25.66 106.595 26.035 106.61 26.2 106.61C26.47 106.61 26.5 106.565 26.5 106.43V102.56C26.5 102.32 26.365 102.185 26.125 102.185H18.04C17.8 102.185 17.665 102.32 17.665 102.56V107.795C17.665 108.095 16.9 108.38 16.24 108.38H16.12ZM18.4 101.285C18.34 101.285 18.28 101.15 18.28 100.91V97.505C18.28 97.235 18.46 97.115 18.715 97.205L19.81 97.595C19.975 97.655 20.11 97.67 20.275 97.67H23.755C23.935 97.67 24.085 97.61 24.22 97.475L24.55 97.145C24.715 96.98 24.895 96.98 25.075 97.1L26.23 97.895C26.44 98.03 26.5 98.27 26.29 98.405C26.26 98.42 26.215 98.45 26.17 98.465C25.975 98.555 25.87 98.69 25.87 98.9V100.46C25.87 100.625 25.87 100.775 25.72 100.865C25.435 101.045 24.835 101.15 24.46 101.15C24.265 101.15 24.16 101.03 24.16 100.82C24.16 100.625 24.025 100.505 23.785 100.505H20.32C20.08 100.505 19.945 100.595 19.945 100.745C19.945 101.045 19.15 101.285 18.505 101.285H18.4ZM19.36 106.925C19.3 106.925 19.24 106.79 19.24 106.55V103.025C19.24 102.755 19.42 102.62 19.675 102.71L20.635 103.07C20.785 103.13 20.935 103.145 21.1 103.145H22.825C23.005 103.145 23.155 103.1 23.29 102.965L23.575 102.695C23.74 102.53 23.905 102.53 24.1 102.665L25.105 103.34C25.315 103.49 25.375 103.7 25.165 103.85C25.15 103.865 25.135 103.88 25.105 103.88C24.925 104 24.805 104.09 24.805 104.3V106.22C24.775 106.49 23.995 106.715 23.5 106.715C23.335 106.715 23.23 106.58 23.23 106.355C23.23 106.13 23.095 105.995 22.855 105.995H21.16C20.92 105.995 20.785 106.13 20.785 106.37V106.415C20.785 106.685 20.11 106.925 19.465 106.925H19.36ZM19.945 99.485C19.945 99.725 20.08 99.86 20.32 99.86H23.785C24.025 99.86 24.16 99.725 24.16 99.485V98.69C24.16 98.45 24.025 98.315 23.785 98.315H20.32C20.08 98.315 19.945 98.45 19.945 98.69V99.485ZM20.785 104.975C20.785 105.215 20.92 105.35 21.16 105.35H22.855C23.095 105.35 23.23 105.215 23.23 104.975V104.165C23.23 103.925 23.095 103.79 22.855 103.79H21.16C20.92 103.79 20.785 103.925 20.785 104.165V104.975ZM38.06 104.435C38.15 104.345 38.27 104.33 38.465 104.39C39.23 104.57 39.875 104.795 40.43 105.05C40.655 105.155 40.835 105.095 40.925 104.855C41.21 104.195 41.495 103.445 41.735 102.83C41.84 102.56 41.705 102.395 41.435 102.395H37.865C37.655 102.395 37.505 102.305 37.445 102.08C37.385 101.87 37.52 101.75 37.79 101.75H41.69C41.87 101.75 42.02 101.705 42.155 101.585L42.605 101.195C42.785 101.045 42.95 101.045 43.13 101.21L44.18 102.14C44.375 102.32 44.42 102.575 44.18 102.65C44.135 102.665 44.09 102.665 44.045 102.68C43.85 102.71 43.73 102.77 43.595 102.92C43.025 103.595 42.245 104.45 41.555 105.2C41.39 105.395 41.42 105.575 41.63 105.74C43.385 107.045 42.89 108.515 41.81 108.29C41.615 108.26 41.525 108.155 41.42 107.99C40.775 106.94 39.44 105.665 38.255 104.81C38.045 104.645 37.97 104.525 38.06 104.435ZM31.16 104.78C31.055 104.57 31.115 104.42 31.31 104.27C31.43 104.165 31.445 104.09 31.445 103.925V97.46C31.445 97.22 31.595 97.085 31.835 97.115L32.795 97.205C33.035 97.235 33.23 97.415 33.095 97.625C33.08 97.64 33.065 97.655 33.05 97.685C32.885 97.82 32.765 97.91 32.765 98.12V103.67C32.765 103.91 32.885 104.045 33.095 104.03C33.305 104.015 33.425 103.895 33.425 103.655V94.985C33.425 94.745 33.56 94.595 33.815 94.625L34.865 94.715C35.12 94.745 35.315 94.94 35.15 95.165C35.135 95.195 35.105 95.225 35.075 95.255C34.91 95.39 34.775 95.45 34.775 95.66V103.505C34.775 103.745 34.895 103.895 35.12 103.865C35.12 103.865 35.45 103.7 35.45 103.475V97.415C35.45 97.175 35.585 97.025 35.84 97.055L36.905 97.16C37.145 97.19 37.34 97.355 37.205 97.565C37.19 97.595 37.16 97.625 37.13 97.655C36.965 97.79 36.845 97.88 36.845 98.09V105.425C36.845 105.725 36.185 105.92 35.72 105.92C35.555 105.92 35.45 105.785 35.45 105.545V104.975C35.45 104.705 35.285 104.57 35.03 104.66C34.235 104.9 33.32 105.185 32.345 105.425C32.165 105.485 32.075 105.515 32.045 105.56C32.03 105.575 32.03 105.59 32.015 105.62C31.85 105.815 31.625 105.725 31.52 105.5L31.16 104.78ZM36.95 101.57C36.89 101.51 36.92 101.39 37.04 101.195C38.285 99.335 39.215 96.545 39.575 94.565C39.62 94.325 39.77 94.22 40.01 94.28L41.615 94.685C41.855 94.745 42.02 94.94 41.855 95.135C41.825 95.165 41.81 95.18 41.78 95.21C41.57 95.345 41.465 95.435 41.555 95.66C42.23 97.31 43.55 98.69 44.93 99.575C45.11 99.695 45.185 99.8 45.17 99.92C45.155 100.055 45.05 100.145 44.87 100.235C44.465 100.445 44.18 100.715 44.03 101.015C43.91 101.24 43.805 101.285 43.625 101.105C42.56 99.935 41.81 98.225 41.33 96.41C41.255 96.065 41.06 96.05 40.925 96.365C40.64 97.025 40.28 97.685 39.905 98.315C39.77 98.525 39.83 98.705 40.07 98.825C42.62 100.175 41.45 102.02 40.355 101.495C40.19 101.405 40.13 101.27 40.115 101.06C40.07 100.55 39.905 99.965 39.695 99.44C39.59 99.14 39.35 99.125 39.17 99.38C38.6 100.16 37.97 100.85 37.325 101.435C37.145 101.585 37.025 101.63 36.95 101.57ZM55.005 94.4C55.26 94.415 55.44 94.595 55.305 94.82C55.26 94.88 55.215 94.94 55.155 94.97C54.96 95.09 54.84 95.195 54.84 95.405V99.2C54.84 99.44 54.975 99.575 55.215 99.575H57.015C57.21 99.575 57.36 99.515 57.48 99.365L58.08 98.675C58.23 98.495 58.425 98.465 58.605 98.6C59.04 98.9 59.55 99.275 59.97 99.62C60.12 99.74 60.24 99.905 60.12 100.085C60.045 100.19 59.91 100.22 59.775 100.22H55.215C54.975 100.22 54.84 100.355 54.84 100.595V106.595C54.84 106.835 54.975 106.97 55.215 106.97H57.78C57.975 106.97 58.11 106.895 58.23 106.76L58.875 106.04C59.025 105.86 59.22 105.83 59.4 105.965C59.85 106.28 60.39 106.67 60.825 107.015C60.99 107.15 61.095 107.33 60.945 107.495C60.87 107.585 60.75 107.615 60.615 107.615H47.43C47.22 107.615 47.07 107.525 47.01 107.3C46.95 107.105 47.085 106.97 47.355 106.97H52.65C52.89 106.97 53.025 106.835 53.025 106.595V100.595C53.025 100.355 52.89 100.22 52.65 100.22H48.375C48.165 100.22 48.015 100.13 47.955 99.905C47.895 99.71 48.03 99.575 48.3 99.575H52.65C52.89 99.575 53.025 99.44 53.025 99.2V94.625C53.025 94.385 53.175 94.25 53.415 94.265L55.005 94.4Z" fill="#7A6855"/>
<defs>
<linearGradient id="paint0_linear_2169_653" x1="32.7327" y1="3.10687" x2="25.0569" y2="55.5581" gradientUnits="userSpaceOnUse">
<stop stop-color="#7CD4E8"/>
<stop offset="1" stop-color="white"/>
</linearGradient>
<linearGradient id="paint1_linear_2169_653" x1="40.0428" y1="2.5586" x2="49.1807" y2="57.5684" gradientUnits="userSpaceOnUse">
<stop stop-color="#99E7F8"/>
<stop offset="1" stop-color="white"/>
</linearGradient>
<linearGradient id="paint2_linear_2169_653" x1="52.9422" y1="31.7991" x2="52.9422" y2="53.5393" gradientUnits="userSpaceOnUse">
<stop stop-color="#FFD2D2"/>
<stop offset="0.653425" stop-color="#C9F2FB"/>
</linearGradient>
<linearGradient id="paint3_linear_2169_653" x1="69.4612" y1="43.3124" x2="61.2054" y2="53.5389" gradientUnits="userSpaceOnUse">
<stop stop-color="#FFE1E2"/>
<stop offset="1" stop-color="#C9F2FB"/>
</linearGradient>
</defs>
</svg>
