<svg width="328" height="68" viewBox="0 0 328 68" fill="none" xmlns="http://www.w3.org/2000/svg">
<g filter="url(#filter0_d_1354_155)">
<path d="M23.655 5.8C21.9697 7.54933 20.1563 9.16 18.215 10.632L17.703 10.12C20.3057 7.38933 22.279 4.24266 23.623 0.679998C24.4123 0.935999 25.2123 1.26667 26.023 1.672C26.855 2.07733 27.271 2.344 27.271 2.472C27.271 2.6 27.1323 2.696 26.855 2.76C26.5777 2.80267 26.3643 2.87733 26.215 2.984C26.087 3.06933 25.8417 3.34667 25.479 3.816C25.1163 4.264 24.775 4.63733 24.455 4.936H32.167L33.159 3.88C33.415 3.60267 33.6177 3.464 33.767 3.464C33.9803 3.464 34.567 3.96533 35.527 4.968C36.5083 5.94933 36.999 6.58933 36.999 6.888C36.999 6.99467 36.9243 7.048 36.775 7.048C36.6257 7.048 36.4017 7.02667 36.103 6.984C35.8257 6.92 35.5483 6.888 35.271 6.888C34.4177 6.888 32.999 7.73067 31.015 9.416L30.439 9.064C31.1857 7.848 31.783 6.76 32.231 5.8H25.575C26.535 6.07733 27.2497 6.33333 27.719 6.568C28.2097 6.80267 28.455 6.97333 28.455 7.08C28.455 7.22933 28.199 7.4 27.687 7.592C28.3483 9.17067 29.3723 10.3547 30.759 11.144C32.1457 11.912 34.1297 12.456 36.711 12.776V13.576C35.047 13.512 33.9697 13.9067 33.479 14.76C34.1403 15.1653 34.7377 15.592 35.271 16.04C35.8257 16.4667 36.103 16.7653 36.103 16.936C36.103 17.1493 35.815 17.256 35.239 17.256H18.919L18.279 19.24H26.183L26.887 18.44C27.1217 18.1627 27.3137 18.024 27.463 18.024C27.6123 18.024 28.103 18.2907 28.935 18.824C29.7883 19.3573 30.215 19.72 30.215 19.912C30.215 20.2107 29.7563 20.4667 28.839 20.68L28.135 25.704C28.071 26.2587 28.2097 26.6213 28.551 26.792C28.9137 26.984 29.5857 27.08 30.567 27.08C31.5697 27.08 32.263 26.952 32.647 26.696C33.031 26.4613 33.3403 25.9707 33.575 25.224C33.831 24.4773 34.1297 23.1867 34.471 21.352L35.207 21.384C35.1643 22.0027 35.143 22.5573 35.143 23.048C35.143 25.2027 35.5483 26.4933 36.359 26.92C36.5937 27.0267 36.711 27.144 36.711 27.272C36.711 27.5707 36.5297 27.9227 36.167 28.328C35.8043 28.7547 35.3563 29.0533 34.823 29.224C34.311 29.3947 33.4043 29.48 32.103 29.48C30.823 29.48 29.5963 29.4267 28.423 29.32C27.2497 29.2133 26.4497 29.0427 26.023 28.808C25.5963 28.5733 25.383 28.072 25.383 27.304C25.383 26.9627 25.4257 26.4507 25.511 25.768L26.183 20.104H18.023L15.975 26.568C18.8977 26.3973 21.8523 26.088 24.839 25.64L24.999 26.248C20.711 27.3787 17.8523 28.1573 16.423 28.584C14.9937 29.032 14.119 29.352 13.799 29.544C13.479 29.7573 13.2657 29.864 13.159 29.864C13.0737 29.864 12.9457 29.704 12.775 29.384C12.6257 29.0853 12.3057 28.264 11.815 26.92C12.3057 26.8987 12.7217 26.7493 13.063 26.472C13.4043 26.216 13.703 25.672 13.959 24.84L16.295 17.256H10.663C10.087 17.256 9.639 17.3307 9.319 17.48L8.743 16.104C9.191 16.2107 9.72433 16.264 10.343 16.264H30.919L31.911 14.824C30.4817 13.8853 29.4257 12.9467 28.743 12.008C28.0817 11.048 27.5697 9.72533 27.207 8.04C26.2257 10.8347 25.0737 12.712 23.751 13.672C22.4497 14.6107 20.263 15.2827 17.191 15.688L17.063 15.08C19.431 14.4827 21.2337 13.4693 22.471 12.04C23.7083 10.6107 24.615 8.53067 25.191 5.8H23.655ZM11.239 1.704C12.3057 1.98133 13.159 2.23733 13.799 2.472C14.4603 2.68533 14.9617 2.89867 15.303 3.112C15.6443 3.32533 15.8683 3.528 15.975 3.72C16.0817 3.912 16.135 4.264 16.135 4.776C16.135 5.26667 16.0283 5.65067 15.815 5.928C15.623 6.184 15.3883 6.312 15.111 6.312C14.855 6.312 14.4923 5.98133 14.023 5.32C13.5537 4.63733 13.0843 4.08267 12.615 3.656C12.1457 3.208 11.591 2.792 10.951 2.408L11.239 1.704ZM20.967 3.24L15.975 9.032C15.463 9.608 15.1217 10.056 14.951 10.376C14.7803 10.6747 14.695 11.0267 14.695 11.432C14.695 11.8373 14.759 12.3707 14.887 13.032C15.0363 13.672 15.111 14.088 15.111 14.28C15.111 15.0267 14.7483 15.4 14.023 15.4C13.2977 15.4 12.7003 15.1973 12.231 14.792C11.783 14.3867 11.559 13.9493 11.559 13.48C11.559 13.3733 11.5697 13.2667 11.591 13.16C11.8897 12.1147 12.039 11.3893 12.039 10.984C12.039 10.5573 11.8363 10.216 11.431 9.96C11.047 9.68267 10.3857 9.36267 9.447 9L9.671 8.36C11.015 8.744 11.9323 8.936 12.423 8.936C12.9137 8.936 13.319 8.86133 13.639 8.712C13.9803 8.56267 14.407 8.25333 14.919 7.784L20.391 2.76L20.967 3.24ZM18.311 21.16C20.0177 21.3733 21.2977 21.5973 22.151 21.832C23.0257 22.0667 23.6123 22.344 23.911 22.664C24.231 22.9627 24.391 23.464 24.391 24.168C24.391 24.8507 24.1137 25.192 23.559 25.192C23.3243 25.192 23.143 25.1493 23.015 25.064C22.9083 25 22.5563 24.7013 21.959 24.168C21.3617 23.6133 20.7857 23.1653 20.231 22.824C19.6977 22.4613 19.0363 22.12 18.247 21.8L18.311 21.16ZM56.209 0.455999C57.9797 0.989332 59.1317 1.448 59.665 1.832C60.2197 2.216 60.497 2.68533 60.497 3.24C60.497 3.77333 60.2943 4.27467 59.889 4.744C59.505 5.192 59.1423 5.416 58.801 5.416C58.481 5.416 58.257 5.36267 58.129 5.256C58.0223 5.128 57.8517 4.70133 57.617 3.976C57.4037 3.22933 57.169 2.65333 56.913 2.248C56.6783 1.82133 56.337 1.352 55.889 0.839998L56.209 0.455999ZM65.553 12.296C67.1957 9.416 68.433 5.49067 69.265 0.519999C71.8463 1.352 73.137 1.91733 73.137 2.216C73.137 2.36533 72.9663 2.48267 72.625 2.568C72.2837 2.65333 72.0383 2.78133 71.889 2.952C71.761 3.12267 71.537 3.58133 71.217 4.328C70.9183 5.05333 70.5877 5.78933 70.225 6.536H74.897L75.697 5.384C75.825 5.192 75.953 5.096 76.081 5.096C76.209 5.096 76.753 5.40533 77.713 6.024C78.673 6.62133 79.153 7.02667 79.153 7.24C79.153 7.45333 78.769 7.72 78.001 8.04C77.9157 12.7333 77.777 16.616 77.585 19.688C77.4143 22.7387 77.233 24.8187 77.041 25.928C76.849 27.0373 76.5823 27.8053 76.241 28.232C75.8997 28.68 75.2383 29.0853 74.257 29.448C73.297 29.832 72.6997 30.024 72.465 30.024C72.273 30.024 72.1237 29.8427 72.017 29.48C71.8037 28.776 71.441 28.232 70.929 27.848C70.417 27.464 69.393 27.016 67.857 26.504L68.017 25.864C70.2783 26.312 71.7717 26.536 72.497 26.536C73.2437 26.536 73.745 26.3653 74.001 26.024C74.257 25.704 74.449 25.096 74.577 24.2C74.7263 23.2827 74.8757 21.16 75.025 17.832L71.089 20.264C68.7423 21.7147 67.3983 22.5893 67.057 22.888C66.737 23.1653 66.5343 23.304 66.449 23.304C66.3637 23.304 66.2783 23.2613 66.193 23.176C66.129 23.0907 65.937 22.7813 65.617 22.248C65.297 21.7147 64.977 21.1387 64.657 20.52C67.1743 19.7093 68.9663 19.112 70.033 18.728L75.057 16.936L75.281 7.464H69.745C68.9557 8.936 67.6863 10.6853 65.937 12.712C65.9583 12.7547 66.0543 12.8827 66.225 13.096C66.3957 13.288 66.481 13.4373 66.481 13.544C66.481 13.6293 66.321 13.672 66.001 13.672H51.793C51.217 13.672 50.769 13.7467 50.449 13.896L49.873 12.584C50.321 12.6907 50.8543 12.744 51.473 12.744H58.993C59.697 11.144 60.3263 9.18133 60.881 6.856C62.2463 7.432 63.1103 7.82667 63.473 8.04C63.8357 8.25333 64.017 8.43467 64.017 8.584C64.017 8.712 63.857 8.82933 63.537 8.936C63.217 9.02133 62.8863 9.26667 62.545 9.672C62.2037 10.056 61.4143 11.08 60.177 12.744H62.417L63.505 11.304C63.697 11.0693 63.857 10.952 63.985 10.952C64.2197 10.952 64.7423 11.4 65.553 12.296ZM62.161 5.672L63.313 4.104C63.4623 3.93333 63.5903 3.848 63.697 3.848C63.8677 3.848 64.337 4.24267 65.105 5.032C65.873 5.82133 66.257 6.29067 66.257 6.44C66.257 6.568 66.097 6.632 65.777 6.632H53.073C52.497 6.632 52.049 6.70667 51.729 6.856L51.153 5.512C51.601 5.61867 52.1343 5.672 52.753 5.672H62.161ZM53.457 7.176C54.609 7.66667 55.4517 8.072 55.985 8.392C56.5397 8.712 56.9023 9.01067 57.073 9.288C57.2437 9.56533 57.329 9.91733 57.329 10.344C57.329 10.7493 57.1263 11.1973 56.721 11.688C56.337 12.1573 55.9423 12.392 55.537 12.392C55.3877 12.392 55.2703 12.3067 55.185 12.136C55.121 11.9653 55.0357 11.6027 54.929 11.048C54.8437 10.472 54.6837 9.93867 54.449 9.448C54.2143 8.95733 53.7877 8.36 53.169 7.656L53.457 7.176ZM67.793 10.632C69.073 11.5707 70.0437 12.4027 70.705 13.128C71.3663 13.832 71.697 14.4613 71.697 15.016C71.697 15.5707 71.4517 16.104 70.961 16.616C70.4703 17.128 70.001 17.384 69.553 17.384C69.3183 17.384 69.1583 17.2987 69.073 17.128C68.9877 16.9573 68.9237 16.456 68.881 15.624C68.8597 14.7707 68.7423 13.992 68.529 13.288C68.3157 12.584 67.9317 11.848 67.377 11.08L67.793 10.632ZM55.729 16.168H60.721L61.585 15.016C61.6917 14.888 61.809 14.824 61.937 14.824C62.0863 14.824 62.577 15.1013 63.409 15.656C64.241 16.2107 64.657 16.5733 64.657 16.744C64.657 16.9147 64.305 17.128 63.601 17.384V25.128L63.665 28.008C63.665 28.264 63.6437 28.4133 63.601 28.456C63.5583 28.52 63.3877 28.6373 63.089 28.808C62.7903 28.9787 62.417 29.1387 61.969 29.288C61.521 29.4373 61.2437 29.512 61.137 29.512C61.0517 29.512 61.009 29.384 61.009 29.128V26.696H55.665V28.68C55.665 28.872 55.6437 29 55.601 29.064C55.5797 29.128 55.4197 29.2347 55.121 29.384C54.8223 29.5547 54.417 29.7253 53.905 29.896C53.393 30.0667 53.0837 30.152 52.977 30.152C52.8917 30.152 52.8597 30.056 52.881 29.864C52.9877 28.8187 53.041 27.752 53.041 26.664V17.672C53.041 16.776 53.009 15.8693 52.945 14.952C54.0757 15.3573 55.0037 15.7627 55.729 16.168ZM55.665 20.872H61.009V17.032H55.665V20.872ZM61.009 21.736H55.665V25.832H61.009V21.736Z" fill="#9A764E"/>
</g>
<g filter="url(#filter1_d_1354_155)">
<path d="M20 52.68H4V51.816H20V52.68ZM36 52.68H20V51.816H36V52.68ZM44.64 47.4C43.7973 48.2747 42.8907 49.08 41.92 49.816L41.664 49.56C42.9653 48.1947 43.952 46.6213 44.624 44.84C45.0187 44.968 45.4187 45.1333 45.824 45.336C46.24 45.5387 46.448 45.672 46.448 45.736C46.448 45.8 46.3787 45.848 46.24 45.88C46.1013 45.9013 45.9947 45.9387 45.92 45.992C45.856 46.0347 45.7333 46.1733 45.552 46.408C45.3707 46.632 45.2 46.8187 45.04 46.968H48.896L49.392 46.44C49.52 46.3013 49.6213 46.232 49.696 46.232C49.8027 46.232 50.096 46.4827 50.576 46.984C51.0667 47.4747 51.312 47.7947 51.312 47.944C51.312 47.9973 51.2747 48.024 51.2 48.024C51.1253 48.024 51.0133 48.0133 50.864 47.992C50.7253 47.96 50.5867 47.944 50.448 47.944C50.0213 47.944 49.312 48.3653 48.32 49.208L48.032 49.032C48.4053 48.424 48.704 47.88 48.928 47.4H45.6C46.08 47.5387 46.4373 47.6667 46.672 47.784C46.9173 47.9013 47.04 47.9867 47.04 48.04C47.04 48.1147 46.912 48.2 46.656 48.296C46.9867 49.0853 47.4987 49.6773 48.192 50.072C48.8853 50.456 49.8773 50.728 51.168 50.888V51.288C50.336 51.256 49.7973 51.4533 49.552 51.88C49.8827 52.0827 50.1813 52.296 50.448 52.52C50.7253 52.7333 50.864 52.8827 50.864 52.968C50.864 53.0747 50.72 53.128 50.432 53.128H42.272L41.952 54.12H45.904L46.256 53.72C46.3733 53.5813 46.4693 53.512 46.544 53.512C46.6187 53.512 46.864 53.6453 47.28 53.912C47.7067 54.1787 47.92 54.36 47.92 54.456C47.92 54.6053 47.6907 54.7333 47.232 54.84L46.88 57.352C46.848 57.6293 46.9173 57.8107 47.088 57.896C47.2693 57.992 47.6053 58.04 48.096 58.04C48.5973 58.04 48.944 57.976 49.136 57.848C49.328 57.7307 49.4827 57.4853 49.6 57.112C49.728 56.7387 49.8773 56.0933 50.048 55.176L50.416 55.192C50.3947 55.5013 50.384 55.7787 50.384 56.024C50.384 57.1013 50.5867 57.7467 50.992 57.96C51.1093 58.0133 51.168 58.072 51.168 58.136C51.168 58.2853 51.0773 58.4613 50.896 58.664C50.7147 58.8773 50.4907 59.0267 50.224 59.112C49.968 59.1973 49.5147 59.24 48.864 59.24C48.224 59.24 47.6107 59.2133 47.024 59.16C46.4373 59.1067 46.0373 59.0213 45.824 58.904C45.6107 58.7867 45.504 58.536 45.504 58.152C45.504 57.9813 45.5253 57.7253 45.568 57.384L45.904 54.552H41.824L40.8 57.784C42.2613 57.6987 43.7387 57.544 45.232 57.32L45.312 57.624C43.168 58.1893 41.7387 58.5787 41.024 58.792C40.3093 59.016 39.872 59.176 39.712 59.272C39.552 59.3787 39.4453 59.432 39.392 59.432C39.3493 59.432 39.2853 59.352 39.2 59.192C39.1253 59.0427 38.9653 58.632 38.72 57.96C38.9653 57.9493 39.1733 57.8747 39.344 57.736C39.5147 57.608 39.664 57.336 39.792 56.92L40.96 53.128H38.144C37.856 53.128 37.632 53.1653 37.472 53.24L37.184 52.552C37.408 52.6053 37.6747 52.632 37.984 52.632H48.272L48.768 51.912C48.0533 51.4427 47.5253 50.9733 47.184 50.504C46.8533 50.024 46.5973 49.3627 46.416 48.52C45.9253 49.9173 45.3493 50.856 44.688 51.336C44.0373 51.8053 42.944 52.1413 41.408 52.344L41.344 52.04C42.528 51.7413 43.4293 51.2347 44.048 50.52C44.6667 49.8053 45.12 48.7653 45.408 47.4H44.64ZM38.432 45.352C38.9653 45.4907 39.392 45.6187 39.712 45.736C40.0427 45.8427 40.2933 45.9493 40.464 46.056C40.6347 46.1627 40.7467 46.264 40.8 46.36C40.8533 46.456 40.88 46.632 40.88 46.888C40.88 47.1333 40.8267 47.3253 40.72 47.464C40.624 47.592 40.5067 47.656 40.368 47.656C40.24 47.656 40.0587 47.4907 39.824 47.16C39.5893 46.8187 39.3547 46.5413 39.12 46.328C38.8853 46.104 38.608 45.896 38.288 45.704L38.432 45.352ZM43.296 46.12L40.8 49.016C40.544 49.304 40.3733 49.528 40.288 49.688C40.2027 49.8373 40.16 50.0133 40.16 50.216C40.16 50.4187 40.192 50.6853 40.256 51.016C40.3307 51.336 40.368 51.544 40.368 51.64C40.368 52.0133 40.1867 52.2 39.824 52.2C39.4613 52.2 39.1627 52.0987 38.928 51.896C38.704 51.6933 38.592 51.4747 38.592 51.24C38.592 51.1867 38.5973 51.1333 38.608 51.08C38.7573 50.5573 38.832 50.1947 38.832 49.992C38.832 49.7787 38.7307 49.608 38.528 49.48C38.336 49.3413 38.0053 49.1813 37.536 49L37.648 48.68C38.32 48.872 38.7787 48.968 39.024 48.968C39.2693 48.968 39.472 48.9307 39.632 48.856C39.8027 48.7813 40.016 48.6267 40.272 48.392L43.008 45.88L43.296 46.12ZM41.968 55.08C42.8213 55.1867 43.4613 55.2987 43.888 55.416C44.3253 55.5333 44.6187 55.672 44.768 55.832C44.928 55.9813 45.008 56.232 45.008 56.584C45.008 56.9253 44.8693 57.096 44.592 57.096C44.4747 57.096 44.384 57.0747 44.32 57.032C44.2667 57 44.0907 56.8507 43.792 56.584C43.4933 56.3067 43.2053 56.0827 42.928 55.912C42.6613 55.7307 42.3307 55.56 41.936 55.4L41.968 55.08ZM55.888 45.976H57.6L57.856 45.544C57.92 45.4373 57.9893 45.384 58.064 45.384C58.1387 45.384 58.3947 45.5227 58.832 45.8C59.2693 46.0667 59.488 46.248 59.488 46.344C59.488 46.4293 59.2907 46.5627 58.896 46.744V48.68C58.896 48.808 58.9067 49 58.928 49.256L58.976 49.16C59.7333 49.4907 60.192 49.704 60.352 49.8C60.512 49.896 60.592 49.9707 60.592 50.024C60.592 50.1093 60.512 50.168 60.352 50.2C60.2027 50.2213 60.1013 50.2587 60.048 50.312C59.9947 50.3653 59.8827 50.5253 59.712 50.792C59.5413 51.0587 59.424 51.2347 59.36 51.32H62.704C62.6293 51.2453 62.512 51.112 62.352 50.92C62.2027 50.7173 62.064 50.5573 61.936 50.44C61.808 50.3227 61.6053 50.1893 61.328 50.04L61.344 49.768C62.1013 49.768 62.6507 49.8213 62.992 49.928C63.344 50.024 63.52 50.2373 63.52 50.568C63.52 50.888 63.4187 51.1387 63.216 51.32H64.608L65.264 50.44C65.3387 50.344 65.4027 50.296 65.456 50.296C65.584 50.296 65.8667 50.4933 66.304 50.888C66.7413 51.2827 66.96 51.528 66.96 51.624C66.96 51.7093 66.8533 51.752 66.64 51.752H61.344C61.9627 52.392 62.864 52.9467 64.048 53.416C65.2427 53.8853 66.4907 54.1733 67.792 54.28V54.616C67.2907 54.6053 66.944 54.648 66.752 54.744C66.56 54.84 66.3787 55.0587 66.208 55.4C66.1547 55.5067 66.0907 55.56 66.016 55.56C65.952 55.56 65.6107 55.4267 64.992 55.16V58.344C64.992 58.472 64.9973 58.5893 65.008 58.696L65.04 58.952C65.04 59.0053 64.9973 59.048 64.912 59.08C64.8373 59.112 64.672 59.1547 64.416 59.208C64.16 59.2613 63.9573 59.288 63.808 59.288C63.7547 59.288 63.728 59.256 63.728 59.192V58.072H61.776V58.92C61.776 58.9733 61.7653 59.0107 61.744 59.032C61.7227 59.0533 61.6267 59.0907 61.456 59.144C61.2853 59.1973 61.0987 59.24 60.896 59.272C60.6933 59.3147 60.576 59.336 60.544 59.336C60.512 59.336 60.496 59.304 60.496 59.24L60.512 58.888C60.5227 58.7813 60.528 58.6693 60.528 58.552V54.824C60.528 54.5467 60.512 54.2587 60.48 53.96C60.928 54.1093 61.424 54.3067 61.968 54.552H63.856C62.416 53.688 61.4187 52.7547 60.864 51.752H59.024C58.2133 52.7547 57.1573 53.6453 55.856 54.424C55.9413 54.4667 56.0107 54.4987 56.064 54.52H57.792L58.064 54.104C58.1387 54.008 58.208 53.96 58.272 53.96C58.3467 53.96 58.5013 54.04 58.736 54.2C58.9813 54.3493 59.184 54.472 59.344 54.568C59.504 54.664 59.584 54.7493 59.584 54.824C59.584 54.888 59.4027 55.0053 59.04 55.176V58.264C59.04 58.392 59.0453 58.5093 59.056 58.616L59.088 58.872C59.088 58.9253 59.0507 58.968 58.976 59C58.9013 59.032 58.72 59.0747 58.432 59.128C58.1547 59.1813 57.9733 59.208 57.888 59.208C57.8133 59.208 57.776 59.176 57.776 59.112V57.992H55.888V59C55.888 59.0427 55.8773 59.0747 55.856 59.096C55.8453 59.128 55.7653 59.1653 55.616 59.208C55.4667 59.2613 55.28 59.3093 55.056 59.352C54.8427 59.3947 54.72 59.416 54.688 59.416C54.656 59.416 54.64 59.384 54.64 59.32L54.656 58.968C54.6667 58.8613 54.672 58.7493 54.672 58.632V55.016C54.1067 55.2613 53.312 55.5387 52.288 55.848L52.208 55.528C54.608 54.4187 56.3573 53.16 57.456 51.752H53.84C53.616 51.752 53.3867 51.784 53.152 51.848L52.88 51.24C53.104 51.2933 53.3707 51.32 53.68 51.32H57.776C58.192 50.744 58.5493 50.1253 58.848 49.464C58.6453 49.528 58.416 49.576 58.16 49.608C57.904 49.6293 57.7707 49.64 57.76 49.64C57.696 49.64 57.664 49.6027 57.664 49.528V48.984H55.584V49.448C55.584 49.5013 55.5733 49.5387 55.552 49.56C55.5413 49.5707 55.4667 49.6027 55.328 49.656C55.2 49.6987 55.0293 49.7467 54.816 49.8C54.6133 49.8427 54.4907 49.864 54.448 49.864C54.4053 49.864 54.384 49.832 54.384 49.768L54.4 49.416C54.4107 49.3093 54.416 49.1973 54.416 49.08V46.232C54.416 45.9547 54.4 45.6667 54.368 45.368C54.8587 45.528 55.3653 45.7307 55.888 45.976ZM57.664 48.52V46.424H55.584V48.52H57.664ZM57.776 57.528V54.952H55.888V57.528H57.776ZM63.728 57.608V55.016H61.776V57.608H63.728ZM62.224 46.04H64.096L64.384 45.608C64.448 45.5227 64.5067 45.48 64.56 45.48C64.6453 45.48 64.9067 45.6187 65.344 45.896C65.7813 46.1733 66 46.36 66 46.456C66 46.5413 65.7973 46.6853 65.392 46.888V48.824C65.392 48.952 65.3973 49.0693 65.408 49.176L65.44 49.432C65.44 49.4853 65.4027 49.528 65.328 49.56C65.2533 49.592 65.072 49.6347 64.784 49.688C64.5067 49.7413 64.3253 49.768 64.24 49.768C64.1653 49.768 64.128 49.736 64.128 49.672V49.032H61.92C61.92 49.128 61.904 49.208 61.872 49.272C61.84 49.3253 61.664 49.3893 61.344 49.464C61.024 49.5387 60.8373 49.576 60.784 49.576C60.7413 49.576 60.72 49.544 60.72 49.48L60.736 49.128C60.7467 49.0213 60.752 48.9093 60.752 48.792V46.328C60.752 46.0507 60.736 45.7627 60.704 45.464C61.1413 45.6133 61.648 45.8053 62.224 46.04ZM64.128 48.6V46.504H61.92V48.6H64.128ZM76.608 54.648H77.312L77.776 54.008C77.904 53.8267 78.016 53.736 78.112 53.736C78.2187 53.736 78.4533 53.9227 78.816 54.296C79.1787 54.6693 79.36 54.8987 79.36 54.984C79.36 55.0693 79.2373 55.112 78.992 55.112H76.608V57.752C76.608 58.1147 76.5493 58.392 76.432 58.584C76.3147 58.776 76.0427 58.968 75.616 59.16C75.2 59.352 74.9173 59.448 74.768 59.448C74.6827 59.448 74.6187 59.368 74.576 59.208C74.48 58.8347 74.3093 58.5467 74.064 58.344C73.8293 58.152 73.4027 57.9707 72.784 57.8V57.48C73.68 57.64 74.272 57.72 74.56 57.72C74.848 57.72 75.024 57.6827 75.088 57.608C75.1627 57.544 75.2 57.432 75.2 57.272V55.112H72.944C72.656 55.112 72.432 55.1493 72.272 55.224L71.984 54.568C72.208 54.6213 72.4747 54.648 72.784 54.648H75.2V53H73.92C73.632 53 73.408 53.0373 73.248 53.112L72.96 52.472C73.184 52.5253 73.4507 52.552 73.76 52.552H75.2V50.76H74.24C73.952 50.76 73.728 50.7973 73.568 50.872L73.28 50.232C73.504 50.2853 73.7707 50.312 74.08 50.312H75.2V49.24C75.2 48.7707 75.184 48.328 75.152 47.912C75.6107 48.04 76.0267 48.184 76.4 48.344C77.3387 47.512 78.0053 46.872 78.4 46.424H71.744C71.456 46.424 71.232 46.4613 71.072 46.536L70.784 45.88C71.008 45.9333 71.2747 45.96 71.584 45.96H78.592L79.28 45.4C79.3867 45.304 79.4933 45.256 79.6 45.256C79.7067 45.256 80.0107 45.4533 80.512 45.848C81.024 46.2427 81.28 46.504 81.28 46.632C81.28 46.7493 81.1467 46.7973 80.88 46.776C80.7733 46.7653 80.688 46.76 80.624 46.76C80.3573 46.76 79.9733 46.8773 79.472 47.112C78.9813 47.3467 78.0267 47.8747 76.608 48.696V50.312H76.864L77.184 49.88C77.3013 49.72 77.4027 49.64 77.488 49.64C77.5733 49.64 77.728 49.7893 77.952 50.088C78.1867 50.3867 78.304 50.5733 78.304 50.648C78.304 50.7227 78.208 50.76 78.016 50.76H76.608V52.552H77.12L77.456 52.12C77.552 51.992 77.6427 51.928 77.728 51.928C77.8133 51.928 77.984 52.0773 78.24 52.376C78.496 52.6747 78.624 52.856 78.624 52.92C78.624 52.9733 78.528 53 78.336 53H76.608V54.648ZM79.408 51.272C80.1013 50.6853 80.7893 49.9707 81.472 49.128C81.8453 49.448 82.1653 49.752 82.432 50.04C82.7093 50.328 82.848 50.4933 82.848 50.536C82.848 50.5787 82.8053 50.6 82.72 50.6L82.416 50.568C82.224 50.568 81.9627 50.648 81.632 50.808C81.312 50.968 80.608 51.2507 79.52 51.656C80.2667 54.0773 81.6373 55.8107 83.632 56.856L83.6 57.128C83.024 57.1813 82.64 57.2453 82.448 57.32C82.2667 57.3947 82.1173 57.512 82 57.672C81.8933 57.832 81.7973 57.912 81.712 57.912C81.6267 57.912 81.552 57.8907 81.488 57.848C81.4347 57.816 81.1733 57.464 80.704 56.792C80.2347 56.1093 79.8453 55.384 79.536 54.616C79.2267 53.848 78.992 52.9947 78.832 52.056C78.672 51.1067 78.5547 49.9493 78.48 48.584L78.864 48.552C78.9813 49.48 79.1627 50.3867 79.408 51.272ZM71.568 49.704L71.968 49.16C72.1067 48.9787 72.224 48.888 72.32 48.888C72.416 48.888 72.6507 49.048 73.024 49.368C73.3973 49.6773 73.584 49.8693 73.584 49.944C73.584 50.008 73.488 50.0667 73.296 50.12C73.2 50.1413 73.1253 50.2053 73.072 50.312C73.0293 50.408 72.976 50.632 72.912 50.984C72.5387 52.936 72.032 54.4613 71.392 55.56C70.752 56.648 69.8187 57.7093 68.592 58.744L68.304 58.568C70.288 56.52 71.4347 53.7307 71.744 50.2H69.68C69.4133 50.2 69.2107 50.232 69.072 50.296L68.8 49.624C69.0347 49.6773 69.3173 49.704 69.648 49.704H71.568ZM95.456 55.608C95.776 56.2373 96.1813 56.728 96.672 57.08C97.1627 57.4427 97.4667 57.624 97.584 57.624C97.7013 57.624 97.7813 57.5653 97.824 57.448C97.8667 57.3307 97.9947 56.4507 98.208 54.808L98.576 54.824C98.544 55.272 98.528 55.72 98.528 56.168C98.528 56.6053 98.5653 57.0427 98.64 57.48C98.7147 57.9173 98.8587 58.4293 99.072 59.016C99.136 59.208 99.168 59.3627 99.168 59.48C99.168 59.608 99.0667 59.672 98.864 59.672C98.672 59.672 98.32 59.592 97.808 59.432C97.296 59.272 96.7307 58.9573 96.112 58.488C95.4933 58.0187 94.9227 57.384 94.4 56.584C93.4187 57.3627 92.112 58.1093 90.48 58.824L90.368 58.52C91.744 57.7413 92.944 56.7973 93.968 55.688C93.5733 54.5467 93.3173 52.5893 93.2 49.816H88.24C89.168 50.296 89.632 50.5947 89.632 50.712C89.632 50.7547 89.568 50.7867 89.44 50.808C89.3227 50.8293 89.2213 50.8827 89.136 50.968C89.0507 51.0533 88.944 51.2187 88.816 51.464H90.816L91.376 50.728C91.4507 50.632 91.5147 50.584 91.568 50.584C91.6747 50.584 91.904 50.76 92.256 51.112C92.6187 51.4533 92.8 51.6773 92.8 51.784C92.8 51.88 92.704 51.928 92.512 51.928H88.592L87.504 54.024H88.8C88.8 53.0533 88.7893 52.4987 88.768 52.36C89.4613 52.488 89.92 52.584 90.144 52.648C90.3787 52.712 90.496 52.7813 90.496 52.856C90.496 52.92 90.352 53.016 90.064 53.144V54.024H91.04L91.664 53.24C91.696 53.1867 91.7493 53.16 91.824 53.16C91.9093 53.16 92.0693 53.2827 92.304 53.528C92.5493 53.7733 92.7307 53.96 92.848 54.088C92.9653 54.216 93.024 54.328 93.024 54.424C93.024 54.5093 92.9493 54.552 92.8 54.552H90.064V55.8L92.944 55.48L92.96 55.752L90.064 56.472V59.144C90.064 59.272 90.0107 59.3627 89.904 59.416C89.808 59.4693 89.6267 59.5387 89.36 59.624C89.104 59.7093 88.928 59.752 88.832 59.752C88.7893 59.752 88.768 59.7093 88.768 59.624L88.784 58.36C88.7947 57.8907 88.8 57.3627 88.8 56.776C87.1467 57.1173 86.1227 57.3947 85.728 57.608C85.664 57.64 85.616 57.656 85.584 57.656C85.4987 57.656 85.344 57.4747 85.12 57.112C84.9067 56.76 84.7573 56.4613 84.672 56.216C86.08 56.1733 87.456 56.0773 88.8 55.928V54.552H87.376L87.04 54.968C86.9547 55.064 86.8853 55.112 86.832 55.112C86.7787 55.112 86.6293 55.0267 86.384 54.856C86.1493 54.6853 85.904 54.4667 85.648 54.2C85.9147 54.072 86.1173 53.912 86.256 53.72C86.4053 53.528 86.752 52.9307 87.296 51.928H86C85.7227 51.928 85.5093 51.9547 85.36 52.008L85.136 51.4C85.328 51.4427 85.5413 51.464 85.776 51.464H87.536C87.9093 50.7173 88.1013 50.168 88.112 49.816H85.36C85.0827 49.816 84.8693 49.8427 84.72 49.896L84.496 49.288C84.688 49.3307 84.9013 49.352 85.136 49.352H88.592V48.184H86.464C86.1867 48.184 85.9733 48.2107 85.824 48.264L85.6 47.576C85.792 47.6187 86.0053 47.64 86.24 47.64H88.592V46.2C88.592 45.3787 88.5813 44.8773 88.56 44.696C88.9867 44.8027 89.3653 44.92 89.696 45.048C90.0267 45.176 90.224 45.2613 90.288 45.304C90.3627 45.3467 90.4 45.3893 90.4 45.432C90.4 45.5067 90.24 45.6453 89.92 45.848V47.64H90.848L91.472 46.872C91.5467 46.7653 91.6267 46.712 91.712 46.712C91.808 46.712 92.0213 46.904 92.352 47.288C92.6933 47.6613 92.864 47.9067 92.864 48.024C92.864 48.1307 92.7627 48.184 92.56 48.184H89.92V49.352H93.184L93.136 47.496C93.1147 46.1733 93.0827 45.2667 93.04 44.776C94.3733 45.032 95.04 45.2453 95.04 45.416C95.04 45.512 94.864 45.6133 94.512 45.72C94.48 46.936 94.4747 48.1467 94.496 49.352H96.72L97.344 48.632C97.472 48.4827 97.584 48.408 97.68 48.408C97.7867 48.408 98.0587 48.6107 98.496 49.016C98.944 49.4107 99.168 49.6453 99.168 49.72C99.168 49.784 99.056 49.816 98.832 49.816H94.496C94.5387 51.7787 94.7093 53.304 95.008 54.392C95.8187 53.2187 96.352 52.0133 96.608 50.776C96.928 50.936 97.248 51.1067 97.568 51.288C97.888 51.4693 98.0693 51.5867 98.112 51.64C98.1547 51.6933 98.176 51.7573 98.176 51.832C98.176 51.9067 98.08 51.976 97.888 52.04C97.8027 52.072 97.7227 52.1413 97.648 52.248C97.584 52.344 97.456 52.5787 97.264 52.952C96.7413 53.9973 96.1387 54.8827 95.456 55.608ZM95.184 45.96C95.9093 46.0667 96.48 46.216 96.896 46.408C97.3227 46.6 97.536 46.9147 97.536 47.352C97.536 47.5973 97.4507 47.832 97.28 48.056C97.1093 48.2693 96.9333 48.376 96.752 48.376C96.6667 48.376 96.5973 48.344 96.544 48.28C96.4907 48.216 96.432 48.0827 96.368 47.88C96.1547 47.2293 95.7387 46.6587 95.12 46.168L95.184 45.96ZM103.776 48.76H107.136V46.12C107.136 45.5653 107.125 45.0907 107.104 44.696C107.904 44.9627 108.464 45.16 108.784 45.288C109.115 45.4053 109.28 45.5173 109.28 45.624C109.28 45.72 109.061 45.8533 108.624 46.024V48.76H112.208L112.624 47.976C112.688 47.8587 112.757 47.8 112.832 47.8C112.939 47.8 113.264 47.96 113.808 48.28C114.352 48.5893 114.624 48.8027 114.624 48.92C114.624 49.0373 114.357 49.2187 113.824 49.464V53.24C113.824 53.4 113.829 53.5493 113.84 53.688L113.872 54.024C113.872 54.0987 113.819 54.168 113.712 54.232C113.605 54.296 113.403 54.3707 113.104 54.456C112.805 54.5307 112.587 54.568 112.448 54.568C112.384 54.568 112.352 54.5147 112.352 54.408V53.56H108.624V57.16C108.624 57.512 108.635 57.8853 108.656 58.28L108.672 58.824C108.672 58.9093 108.635 58.9787 108.56 59.032C108.485 59.0853 108.251 59.1707 107.856 59.288C107.472 59.416 107.248 59.48 107.184 59.48C107.12 59.48 107.088 59.3947 107.088 59.224L107.12 58.6C107.131 58.1733 107.136 57.6933 107.136 57.16V53.56H103.456V54.248C103.456 54.3227 103.413 54.392 103.328 54.456C103.243 54.52 103.019 54.6107 102.656 54.728C102.304 54.8453 102.085 54.904 102 54.904C101.925 54.904 101.893 54.8507 101.904 54.744C101.957 54.3813 101.984 53.9813 101.984 53.544V49.192C101.984 48.744 101.968 48.2907 101.936 47.832C102.704 48.1307 103.317 48.44 103.776 48.76ZM107.136 49.224H103.456V53.096H107.136V49.224ZM112.352 53.096V49.224H108.624V53.096H112.352ZM128.816 57.832H119.552V58.632C119.552 58.7813 119.515 58.8827 119.44 58.936C119.365 58.9893 119.163 59.0693 118.832 59.176C118.512 59.2933 118.304 59.352 118.208 59.352C118.123 59.352 118.085 59.288 118.096 59.16C118.139 58.68 118.16 57.9707 118.16 57.032V46.6C118.16 46.0667 118.149 45.592 118.128 45.176C118.757 45.336 119.291 45.5653 119.728 45.864H128.656L129.104 45.224C129.179 45.1067 129.248 45.048 129.312 45.048C129.419 45.048 129.723 45.2347 130.224 45.608C130.725 45.9707 130.976 46.2053 130.976 46.312C130.976 46.4187 130.731 46.6 130.24 46.856V56.776C130.24 57.3307 130.245 57.704 130.256 57.896L130.272 58.456C130.272 58.5413 130.224 58.6107 130.128 58.664C130.032 58.7173 129.824 58.7973 129.504 58.904C129.195 59.0213 128.997 59.08 128.912 59.08C128.848 59.08 128.816 59.0107 128.816 58.872V57.832ZM119.552 57.352H128.816V46.344H119.552V57.352ZM123.296 48.792H120.928C120.64 48.792 120.416 48.824 120.256 48.888L119.968 48.264C120.192 48.3173 120.459 48.344 120.768 48.344H126.24L126.8 47.592C126.896 47.464 126.976 47.4 127.04 47.4C127.147 47.4 127.403 47.5813 127.808 47.944C128.224 48.3067 128.432 48.5413 128.432 48.648C128.432 48.744 128.293 48.792 128.016 48.792H124.656V51.144H125.808L126.304 50.392C126.389 50.264 126.469 50.2 126.544 50.2C126.619 50.2 126.869 50.392 127.296 50.776C127.723 51.1493 127.936 51.3787 127.936 51.464C127.936 51.5493 127.824 51.592 127.6 51.592H124.656V55.032H126.608L127.232 54.216C127.328 54.0773 127.419 54.008 127.504 54.008C127.6 54.008 127.829 54.2107 128.192 54.616C128.555 55.0107 128.736 55.256 128.736 55.352C128.736 55.4373 128.629 55.48 128.416 55.48H120.768C120.523 55.48 120.299 55.5173 120.096 55.592L119.808 54.952C120.032 55.0053 120.299 55.032 120.608 55.032H123.296V51.592H121.312C121.141 51.592 120.971 51.6293 120.8 51.704L120.512 51.064C120.736 51.1173 121.003 51.144 121.312 51.144H123.296V48.792ZM125.12 51.928C126.069 52.2693 126.656 52.52 126.88 52.68C127.115 52.84 127.232 53.0427 127.232 53.288C127.232 53.5227 127.157 53.7467 127.008 53.96C126.869 54.1627 126.736 54.264 126.608 54.264C126.491 54.264 126.395 54.2267 126.32 54.152C126.245 54.0773 126.171 53.944 126.096 53.752C125.904 53.2933 125.509 52.7707 124.912 52.184L125.12 51.928ZM138.512 44.6C139.643 45.112 140.384 45.5013 140.736 45.768C141.099 46.024 141.28 46.296 141.28 46.584C141.28 46.9467 141.168 47.272 140.944 47.56C140.72 47.848 140.48 47.992 140.224 47.992C140.053 47.992 139.92 47.8053 139.824 47.432C139.579 46.3973 139.077 45.5333 138.32 44.84L138.512 44.6ZM136.608 48.696H133.904C133.637 48.696 133.435 48.728 133.296 48.792L133.024 48.12C133.237 48.1733 133.483 48.2 133.76 48.2H144.432L145.088 47.256C145.205 47.096 145.328 47.016 145.456 47.016C145.584 47.016 145.899 47.2507 146.4 47.72C146.901 48.1787 147.152 48.456 147.152 48.552C147.152 48.648 147.029 48.696 146.784 48.696H142.864C143.323 48.7707 143.669 48.8613 143.904 48.968C144.149 49.064 144.272 49.1333 144.272 49.176C144.272 49.24 144.181 49.3093 144 49.384C143.829 49.448 143.717 49.5227 143.664 49.608C143.611 49.6827 143.547 49.848 143.472 50.104C142.821 52.408 141.957 54.1733 140.88 55.4C142.779 56.7653 144.965 57.5867 147.44 57.864V58.216C146.885 58.2373 146.432 58.328 146.08 58.488C145.728 58.648 145.477 58.9093 145.328 59.272C145.285 59.3573 145.232 59.4 145.168 59.4C144.997 59.4 144.283 59.0587 143.024 58.376C141.776 57.704 140.747 57.0213 139.936 56.328C138.005 57.9173 135.568 59.0267 132.624 59.656L132.544 59.352C135.445 58.168 137.605 56.8347 139.024 55.352C138.395 54.4667 137.904 53.544 137.552 52.584C137.2 51.624 136.885 50.328 136.608 48.696ZM142.208 48.696H137.04C137.765 51.256 138.693 53.1707 139.824 54.44C140.965 52.968 141.76 51.0533 142.208 48.696ZM151.808 50.888C150.869 52.1573 149.797 53.2667 148.592 54.216L148.384 53.976C149.525 52.6427 150.464 51.2507 151.2 49.8C151.947 48.3493 152.555 46.6747 153.024 44.776C153.728 45.096 154.235 45.3627 154.544 45.576C154.853 45.7893 155.008 45.9387 155.008 46.024C155.008 46.1307 154.864 46.2053 154.576 46.248C154.448 46.2693 154.336 46.3493 154.24 46.488C154.144 46.6267 153.973 46.984 153.728 47.56C153.483 48.1253 153.184 48.712 152.832 49.32C153.269 49.4693 153.488 49.5867 153.488 49.672C153.488 49.7573 153.387 49.8693 153.184 50.008V58.904C153.184 59 153.131 59.0853 153.024 59.16C152.928 59.2347 152.725 59.3307 152.416 59.448C152.107 59.5653 151.915 59.624 151.84 59.624C151.765 59.624 151.728 59.5707 151.728 59.464L151.76 58.328C151.792 57.56 151.808 56.6853 151.808 55.704V50.888ZM158.256 52.952V56.904C158.256 57.1707 158.32 57.3413 158.448 57.416C158.587 57.5013 159.056 57.544 159.856 57.544C160.667 57.544 161.184 57.48 161.408 57.352C161.643 57.224 161.808 56.9413 161.904 56.504C162 56.056 162.117 55.1653 162.256 53.832H162.592C162.581 54.2373 162.576 54.5947 162.576 54.904C162.576 55.704 162.619 56.2533 162.704 56.552C162.789 56.84 162.933 57.0373 163.136 57.144C163.339 57.2507 163.44 57.3413 163.44 57.416C163.44 57.4907 163.365 57.6507 163.216 57.896C163.077 58.152 162.928 58.3493 162.768 58.488C162.608 58.6373 162.437 58.7333 162.256 58.776C162.085 58.8187 161.691 58.856 161.072 58.888C160.453 58.9307 159.808 58.952 159.136 58.952C158.464 58.952 157.963 58.8933 157.632 58.776C157.312 58.6693 157.088 58.4667 156.96 58.168C156.832 57.88 156.768 57.4587 156.768 56.904V53.896C155.851 54.4187 154.725 54.9467 153.392 55.48L153.312 55.128C154.603 54.4027 155.755 53.6613 156.768 52.904V46.984C156.768 46.12 156.752 45.4213 156.72 44.888C158.213 45.3467 158.96 45.6667 158.96 45.848C158.96 45.9333 158.725 46.0827 158.256 46.296V51.624C159.365 50.568 160.475 49.1387 161.584 47.336C161.968 47.72 162.293 48.104 162.56 48.488C162.827 48.8613 162.96 49.096 162.96 49.192C162.96 49.2773 162.923 49.32 162.848 49.32C162.773 49.32 162.704 49.3147 162.64 49.304C162.576 49.2827 162.507 49.272 162.432 49.272C162.357 49.272 162.245 49.3413 162.096 49.48C161.947 49.608 161.712 49.8373 161.392 50.168C160.283 51.32 159.237 52.248 158.256 52.952ZM166.448 59.144C167.056 58.6427 167.44 58.216 167.6 57.864C167.76 57.512 167.84 57.2773 167.84 57.16C167.84 57.0427 167.781 56.9733 167.664 56.952C167.365 56.8987 167.115 56.7493 166.912 56.504C166.72 56.2587 166.624 55.9653 166.624 55.624C166.624 55.2827 166.752 54.984 167.008 54.728C167.275 54.4613 167.6 54.328 167.984 54.328C168.379 54.328 168.715 54.504 168.992 54.856C169.269 55.208 169.408 55.672 169.408 56.248C169.408 56.8133 169.195 57.416 168.768 58.056C168.341 58.7067 167.739 59.2453 166.96 59.672L166.448 59.144ZM186.768 47.4H186.944L187.504 46.744C187.611 46.616 187.712 46.552 187.808 46.552C187.904 46.552 188.133 46.7227 188.496 47.064C188.869 47.3947 189.056 47.6133 189.056 47.72C189.056 47.816 188.933 47.864 188.688 47.864H186.768V49.88H186.976L187.536 49.224C187.632 49.1067 187.728 49.048 187.824 49.048C187.92 49.048 188.149 49.2133 188.512 49.544C188.885 49.864 189.072 50.0773 189.072 50.184C189.072 50.2907 188.992 50.344 188.832 50.344H181.728C181.44 50.344 181.216 50.3813 181.056 50.456L180.736 49.8C180.96 49.8533 181.227 49.88 181.536 49.88H182.752V47.864H181.84C181.552 47.864 181.328 47.9013 181.168 47.976L180.88 47.32C181.104 47.3733 181.371 47.4 181.68 47.4H182.752V46.344C182.752 45.5227 182.741 45.0213 182.72 44.84C183.104 44.904 183.451 44.984 183.76 45.08C184.08 45.1653 184.267 45.224 184.32 45.256C184.384 45.288 184.416 45.3253 184.416 45.368C184.416 45.432 184.277 45.5653 184 45.768V47.4H185.568V46.424C185.568 45.8907 185.557 45.3893 185.536 44.92C186.709 45.144 187.296 45.352 187.296 45.544C187.296 45.6613 187.12 45.7787 186.768 45.896V47.4ZM185.568 47.864H184V49.88H185.568V47.864ZM190.96 49.016H192.944L193.6 48.104C193.696 47.976 193.771 47.912 193.824 47.912C193.92 47.912 194.197 48.136 194.656 48.584C195.115 49.0213 195.344 49.2933 195.344 49.4C195.344 49.4533 195.243 49.48 195.04 49.48H192.688C192.965 49.5653 193.232 49.656 193.488 49.752C193.744 49.848 193.888 49.912 193.92 49.944C193.952 49.9653 193.968 50.0027 193.968 50.056C193.968 50.1093 193.915 50.1573 193.808 50.2C193.701 50.232 193.632 50.2853 193.6 50.36C193.568 50.4347 193.531 50.6053 193.488 50.872C193.339 51.8747 193.125 52.888 192.848 53.912C192.571 54.936 192.293 55.6667 192.016 56.104C192.912 57.1067 194.101 57.8107 195.584 58.216L195.52 58.552C195.029 58.5413 194.635 58.584 194.336 58.68C194.037 58.7867 193.824 58.9733 193.696 59.24C193.653 59.3253 193.605 59.368 193.552 59.368C193.424 59.368 193.051 59.0853 192.432 58.52C191.824 57.9653 191.392 57.5067 191.136 57.144C190.123 58.1467 188.709 59.0373 186.896 59.816L186.768 59.512C188.379 58.552 189.632 57.432 190.528 56.152C190.037 55.192 189.717 53.7307 189.568 51.768C189.163 52.376 188.693 52.9947 188.16 53.624L187.888 53.448C188.688 51.8267 189.285 50.3707 189.68 49.08C190.075 47.7893 190.347 46.4187 190.496 44.968C190.923 45.064 191.307 45.176 191.648 45.304C191.989 45.432 192.197 45.5173 192.272 45.56C192.357 45.6027 192.4 45.656 192.4 45.72C192.4 45.7733 192.331 45.8213 192.192 45.864C192.064 45.896 191.968 45.9653 191.904 46.072C191.851 46.168 191.749 46.4987 191.6 47.064C191.451 47.6293 191.237 48.28 190.96 49.016ZM192.192 49.48H190.768C190.512 50.0667 190.235 50.6213 189.936 51.144C190.256 52.744 190.688 54.0293 191.232 55C191.456 54.4347 191.664 53.6187 191.856 52.552C192.048 51.4747 192.16 50.4507 192.192 49.48ZM183.664 51.544H186.096L186.368 51.112C186.432 51.016 186.501 50.968 186.576 50.968C186.651 50.968 186.885 51.1013 187.28 51.368C187.675 51.624 187.872 51.8 187.872 51.896C187.872 51.9813 187.744 52.0613 187.488 52.136V57.608C187.488 58.056 187.451 58.3653 187.376 58.536C187.301 58.7067 187.083 58.8987 186.72 59.112C186.368 59.3253 186.144 59.432 186.048 59.432C185.963 59.432 185.904 59.384 185.872 59.288C185.765 58.9147 185.643 58.6693 185.504 58.552C185.365 58.4347 185.019 58.2853 184.464 58.104L184.528 57.768C185.211 57.896 185.637 57.96 185.808 57.96C185.979 57.96 186.08 57.9333 186.112 57.88C186.155 57.8267 186.176 57.7253 186.176 57.576V55.608H183.392V58.76C183.392 58.9093 183.365 59.0107 183.312 59.064C183.259 59.1173 183.093 59.1973 182.816 59.304C182.539 59.4213 182.32 59.48 182.16 59.48C182.075 59.48 182.032 59.416 182.032 59.288L182.112 57.624C182.144 56.9093 182.16 56.2907 182.16 55.768V52.312C182.16 51.5333 182.149 51.0587 182.128 50.888C182.565 50.9947 183.077 51.2133 183.664 51.544ZM183.392 53.224H186.176V52.024H183.392V53.224ZM186.176 53.72H183.392V55.112H186.176V53.72ZM203.376 51.656H206.848L207.2 51.176C207.275 51.08 207.349 51.032 207.424 51.032C207.509 51.032 207.808 51.1813 208.32 51.48C208.832 51.768 209.088 51.96 209.088 52.056C209.088 52.152 208.981 52.232 208.768 52.296C208.565 52.36 208.432 52.4293 208.368 52.504C208.304 52.5787 208.24 52.7067 208.176 52.888C207.685 54.2853 206.976 55.432 206.048 56.328C207.392 57.192 209.264 57.752 211.664 58.008L211.648 58.296C211.04 58.3387 210.613 58.4133 210.368 58.52C210.123 58.6267 209.856 58.8453 209.568 59.176C209.461 59.2933 209.365 59.352 209.28 59.352C209.12 59.352 208.565 59.1067 207.616 58.616C206.667 58.136 205.883 57.608 205.264 57.032C203.856 58.1307 201.931 58.936 199.488 59.448L199.376 59.192C201.819 58.2427 203.547 57.272 204.56 56.28C203.845 55.4053 203.312 54.2373 202.96 52.776C202.437 54.024 201.744 55.112 200.88 56.04C200.027 56.968 198.747 57.9813 197.04 59.08L196.752 58.856C198.384 57.6293 199.621 56.36 200.464 55.048C201.307 53.7253 201.963 51.9813 202.432 49.816H199.936L199.456 50.504C199.403 50.568 199.344 50.6 199.28 50.6C199.216 50.6 199.024 50.5253 198.704 50.376C198.395 50.2267 198.107 50.0613 197.84 49.88C198.096 49.7093 198.277 49.5227 198.384 49.32C198.501 49.1173 198.656 48.68 198.848 48.008C199.051 47.336 199.237 46.5307 199.408 45.592C200.507 46.0613 201.093 46.3227 201.168 46.376C201.243 46.4293 201.28 46.488 201.28 46.552C201.28 46.616 201.195 46.68 201.024 46.744C200.864 46.808 200.752 46.872 200.688 46.936C200.624 47 200.571 47.1067 200.528 47.256C200.347 47.896 200.123 48.584 199.856 49.32H202.544C202.843 47.9973 203.045 46.504 203.152 44.84C204.603 45.1067 205.328 45.336 205.328 45.528C205.328 45.592 205.248 45.6613 205.088 45.736C204.928 45.8 204.811 45.8693 204.736 45.944C204.672 46.0187 204.597 46.3387 204.512 46.904C204.427 47.4587 204.272 48.264 204.048 49.32H208.448L209.152 48.248C209.227 48.1413 209.296 48.088 209.36 48.088C209.467 48.088 209.787 48.3067 210.32 48.744C210.853 49.1813 211.12 49.4693 211.12 49.608C211.12 49.7467 211.003 49.816 210.768 49.816H203.936C203.787 50.4027 203.6 51.016 203.376 51.656ZM205.168 55.624C205.893 54.7387 206.464 53.5653 206.88 52.104H203.2C203.776 53.704 204.432 54.8773 205.168 55.624ZM205.664 45.848C207.083 46.232 207.925 46.5413 208.192 46.776C208.459 47.0107 208.592 47.2773 208.592 47.576C208.592 47.864 208.491 48.1307 208.288 48.376C208.085 48.6213 207.915 48.744 207.776 48.744C207.637 48.744 207.509 48.632 207.392 48.408C207.083 47.8107 206.795 47.3573 206.528 47.048C206.261 46.7387 205.931 46.4453 205.536 46.168L205.664 45.848ZM223.008 57.304L225.312 57.08C224.971 56.2373 224.544 55.448 224.032 54.712L224.272 54.568C226.203 56.0293 227.168 57.1547 227.168 57.944C227.168 58.232 227.077 58.52 226.896 58.808C226.725 59.1067 226.517 59.256 226.272 59.256C226.144 59.256 226.053 59.224 226 59.16C225.947 59.096 225.883 58.8987 225.808 58.568C225.733 58.2373 225.621 57.8853 225.472 57.512L221.888 58.312C220.512 58.6213 219.493 58.9253 218.832 59.224C218.757 59.256 218.699 59.272 218.656 59.272C218.613 59.272 218.576 59.2453 218.544 59.192C218.512 59.1493 218.453 58.984 218.368 58.696C218.283 58.408 218.197 58.0613 218.112 57.656C219.424 57.624 220.603 57.5547 221.648 57.448V53.448H220.144V54.344C220.144 54.44 220.107 54.52 220.032 54.584C219.957 54.6373 219.787 54.7013 219.52 54.776C219.264 54.8507 219.083 54.888 218.976 54.888C218.88 54.888 218.837 54.8347 218.848 54.728C218.901 54.2587 218.928 53.7573 218.928 53.224V49.368C218.928 48.9413 218.912 48.504 218.88 48.056C219.552 48.2907 220.032 48.4987 220.32 48.68H221.648V46.424C221.648 45.5707 221.637 45.064 221.616 44.904C222.437 45.0853 222.971 45.224 223.216 45.32C223.461 45.4053 223.584 45.4907 223.584 45.576C223.584 45.6507 223.392 45.7627 223.008 45.912V48.68H224.416L224.736 48.136C224.821 47.9867 224.917 47.912 225.024 47.912C225.141 47.912 225.429 48.0347 225.888 48.28C226.347 48.5253 226.576 48.7067 226.576 48.824C226.576 48.9307 226.411 49.0693 226.08 49.24V53.128C226.08 53.32 226.085 53.4853 226.096 53.624C226.117 53.752 226.128 53.8427 226.128 53.896C226.128 53.9387 226.112 53.976 226.08 54.008C226.059 54.0293 225.957 54.0827 225.776 54.168C225.605 54.2427 225.424 54.3013 225.232 54.344C225.051 54.376 224.917 54.392 224.832 54.392C224.747 54.392 224.704 54.3227 224.704 54.184V53.448H223.008V57.304ZM221.648 49.144H220.144V53H221.648V49.144ZM224.704 53V49.144H223.008V53H224.704ZM215.968 49.544C215.2 50.1307 214.117 50.7973 212.72 51.544L212.56 51.208C213.776 50.4293 214.816 49.5813 215.68 48.664C215.2 47.7893 214.373 46.9573 213.2 46.168L213.344 45.928C214.88 46.504 215.893 47.1493 216.384 47.864C216.949 47.1813 217.568 46.3227 218.24 45.288C218.635 45.5973 218.971 45.896 219.248 46.184C219.525 46.4613 219.664 46.6427 219.664 46.728C219.664 46.8027 219.632 46.84 219.568 46.84C219.504 46.84 219.44 46.8347 219.376 46.824C219.323 46.8027 219.28 46.792 219.248 46.792C219.099 46.792 218.88 46.9307 218.592 47.208C217.963 47.8373 217.403 48.36 216.912 48.776C217.104 49.2347 217.253 49.752 217.36 50.328C217.477 50.904 217.552 51.3573 217.584 51.688C217.616 52.0187 217.632 52.584 217.632 53.384C217.632 54.1733 217.595 55.0907 217.52 56.136C217.445 57.1813 217.28 57.8907 217.024 58.264C216.768 58.648 216.448 58.936 216.064 59.128C215.691 59.3307 215.461 59.432 215.376 59.432C215.291 59.432 215.216 59.3307 215.152 59.128C215.056 58.808 214.885 58.5627 214.64 58.392C214.395 58.2213 213.963 58.056 213.344 57.896V57.544C214.016 57.6293 214.555 57.672 214.96 57.672C215.376 57.672 215.664 57.56 215.824 57.336C215.995 57.112 216.117 56.6373 216.192 55.912C216.277 55.1867 216.309 54.248 216.288 53.096C215.179 54.3013 213.963 55.2773 212.64 56.024L212.416 55.816C213.835 54.6213 215.099 53.1387 216.208 51.368C216.155 50.7067 216.075 50.0987 215.968 49.544ZM237.184 50.712V48.072H235.168C234.912 48.072 234.688 48.1147 234.496 48.2L234.176 47.528C234.4 47.5813 234.667 47.608 234.976 47.608H237.184V46.36C237.184 45.72 237.168 45.2187 237.136 44.856C237.808 44.9733 238.299 45.0907 238.608 45.208C238.928 45.3253 239.088 45.416 239.088 45.48C239.088 45.5653 238.912 45.6933 238.56 45.864V47.608H239.808L240.384 46.776C240.491 46.616 240.592 46.536 240.688 46.536C240.795 46.536 240.944 46.6053 241.136 46.744C241.328 46.8827 241.547 47.0533 241.792 47.256C242.037 47.448 242.203 47.5867 242.288 47.672C242.373 47.7573 242.416 47.8267 242.416 47.88C242.416 48.008 242.267 48.072 241.968 48.072H238.56V50.712H241.104L241.712 49.864C241.819 49.7147 241.925 49.64 242.032 49.64C242.149 49.64 242.432 49.8533 242.88 50.28C243.328 50.7067 243.552 50.9627 243.552 51.048C243.552 51.144 243.381 51.192 243.04 51.192H234.528C234.24 51.192 234.016 51.2293 233.856 51.304L233.568 50.632C233.792 50.6853 234.059 50.712 234.368 50.712H237.184ZM231.712 49.944H230.304C229.867 51.1707 229.328 52.2213 228.688 53.096L228.4 53.016C229.093 51.3413 229.52 49.2987 229.68 46.888C229.851 46.92 230.149 47 230.576 47.128C231.003 47.2453 231.253 47.3253 231.328 47.368C231.403 47.4107 231.44 47.464 231.44 47.528C231.44 47.592 231.387 47.6453 231.28 47.688C231.184 47.7307 231.088 47.8213 230.992 47.96C230.907 48.088 230.832 48.2587 230.768 48.472C230.715 48.6853 230.613 49.0213 230.464 49.48H231.712V46.312C231.712 45.8533 231.696 45.4053 231.664 44.968C232.965 45.288 233.616 45.528 233.616 45.688C233.616 45.8053 233.413 45.944 233.008 46.104V49.48H233.456L233.904 48.76C233.989 48.6213 234.08 48.552 234.176 48.552C234.283 48.552 234.539 48.7227 234.944 49.064C235.349 49.3947 235.552 49.6187 235.552 49.736C235.552 49.8747 235.413 49.944 235.136 49.944H233.008V52.568L235.104 51.72L235.232 52.04L233.008 53.368V58.936C233.008 59.0427 232.949 59.1333 232.832 59.208C232.725 59.2933 232.533 59.3947 232.256 59.512C231.979 59.6293 231.808 59.688 231.744 59.688C231.68 59.688 231.648 59.64 231.648 59.544L231.68 58.792C231.701 58.2693 231.712 57.8 231.712 57.384V54.152C230.72 54.76 230.149 55.1387 230 55.288C229.851 55.4373 229.744 55.512 229.68 55.512C229.616 55.512 229.536 55.4533 229.44 55.336C229.344 55.2187 229.056 54.7867 228.576 54.04C229.568 53.7947 230.613 53.48 231.712 53.096V49.944ZM240.544 53.224H241.152L241.632 52.536C241.717 52.408 241.819 52.344 241.936 52.344C242.053 52.344 242.325 52.5413 242.752 52.936C243.179 53.32 243.392 53.56 243.392 53.656C243.392 53.7093 243.296 53.736 243.104 53.736H240.544V57.992C240.544 58.3227 240.485 58.584 240.368 58.776C240.261 58.9787 240 59.1813 239.584 59.384C239.179 59.5973 238.901 59.704 238.752 59.704C238.656 59.704 238.597 59.624 238.576 59.464C238.533 59.0587 238.395 58.7653 238.16 58.584C237.936 58.4133 237.429 58.216 236.64 57.992L236.72 57.688C237.648 57.8053 238.251 57.864 238.528 57.864C238.805 57.864 238.976 57.832 239.04 57.768C239.104 57.704 239.136 57.592 239.136 57.432V53.736H234.992C234.725 53.736 234.496 53.7627 234.304 53.816L234.032 53.144C234.256 53.1973 234.523 53.224 234.832 53.224H239.136C239.136 52.1253 239.125 51.4853 239.104 51.304C240.299 51.464 240.896 51.608 240.896 51.736C240.896 51.8107 240.779 51.9173 240.544 52.056V53.224ZM235.264 54.104C235.925 54.4667 236.416 54.7973 236.736 55.096C237.067 55.384 237.232 55.6827 237.232 55.992C237.232 56.3013 237.109 56.568 236.864 56.792C236.629 57.0053 236.432 57.112 236.272 57.112C236.123 57.112 236.027 57.08 235.984 57.016C235.952 56.952 235.925 56.728 235.904 56.344C235.883 55.96 235.808 55.608 235.68 55.288C235.563 54.968 235.376 54.6373 235.12 54.296L235.264 54.104ZM254.256 49.016C253.797 49.944 252.987 51.176 251.824 52.712L251.552 52.536C252.213 51.096 252.704 49.8747 253.024 48.872C253.355 47.8587 253.675 46.552 253.984 44.952C254.475 45.1227 254.907 45.288 255.28 45.448C255.653 45.608 255.877 45.72 255.952 45.784C256.037 45.8373 256.08 45.9013 256.08 45.976C256.08 46.0507 255.989 46.1093 255.808 46.152C255.637 46.1947 255.52 46.2587 255.456 46.344C255.403 46.4293 255.28 46.7067 255.088 47.176C254.896 47.6347 254.704 48.0667 254.512 48.472H256.688L257.12 47.816C257.216 47.6773 257.312 47.608 257.408 47.608C257.515 47.608 257.803 47.7787 258.272 48.12C258.752 48.4507 258.992 48.6853 258.992 48.824C258.992 48.9627 258.768 49.128 258.32 49.32C258.245 52.3387 258.187 54.3707 258.144 55.416C258.101 56.4613 258.043 57.1707 257.968 57.544C257.904 57.928 257.765 58.2693 257.552 58.568C257.339 58.8667 257.013 59.1173 256.576 59.32C256.139 59.5333 255.829 59.64 255.648 59.64C255.563 59.64 255.499 59.56 255.456 59.4C255.371 59.1013 255.264 58.8667 255.136 58.696C255.008 58.5253 254.789 58.3653 254.48 58.216C254.171 58.0667 253.701 57.9067 253.072 57.736L253.152 57.4C254.421 57.5813 255.221 57.672 255.552 57.672C255.883 57.672 256.107 57.6347 256.224 57.56C256.352 57.496 256.437 57.384 256.48 57.224C256.523 57.064 256.565 56.696 256.608 56.12C256.651 55.5333 256.693 54.5893 256.736 53.288C256.779 51.976 256.805 50.552 256.816 49.016H254.256ZM248.24 48.712H249.792L250.224 48.072C250.299 47.9547 250.379 47.896 250.464 47.896C250.549 47.896 250.821 48.04 251.28 48.328C251.739 48.616 251.968 48.8347 251.968 48.984C251.968 49.1227 251.765 49.272 251.36 49.432V56.04C251.36 56.5093 251.365 56.84 251.376 57.032L251.392 57.576C251.392 57.6293 251.376 57.672 251.344 57.704C251.323 57.7467 251.227 57.8053 251.056 57.88C250.896 57.9653 250.693 58.0453 250.448 58.12C250.213 58.2053 250.064 58.248 250 58.248C249.947 58.248 249.92 58.1893 249.92 58.072V57.064H247.312V58.008C247.312 58.1253 247.264 58.216 247.168 58.28C247.072 58.344 246.859 58.4347 246.528 58.552C246.208 58.68 246 58.744 245.904 58.744C245.819 58.744 245.781 58.68 245.792 58.552C245.845 58.0613 245.872 57.5333 245.872 56.968V49.288C245.872 48.84 245.856 48.3867 245.824 47.928C246.411 48.1307 246.949 48.376 247.44 48.664C247.76 47.2133 247.925 46.0347 247.936 45.128C248.405 45.224 248.848 45.352 249.264 45.512C249.68 45.672 249.92 45.7787 249.984 45.832C250.048 45.8853 250.08 45.944 250.08 46.008C250.08 46.1147 249.995 46.1893 249.824 46.232C249.696 46.264 249.552 46.4027 249.392 46.648C249.243 46.8827 248.859 47.5707 248.24 48.712ZM249.92 52.504V49.224H247.312V52.504H249.92ZM249.92 56.552V53.032H247.312V56.552H249.92ZM253.152 51.432C253.92 51.9867 254.453 52.4027 254.752 52.68C255.051 52.9573 255.248 53.16 255.344 53.288C255.44 53.416 255.488 53.5867 255.488 53.8C255.488 54.184 255.365 54.5253 255.12 54.824C254.875 55.1227 254.672 55.272 254.512 55.272C254.363 55.272 254.256 55.0533 254.192 54.616C254.128 54.168 253.984 53.672 253.76 53.128C253.547 52.5733 253.285 52.0827 252.976 51.656L253.152 51.432ZM264.912 46.44H272.72L273.392 45.464C273.499 45.3147 273.611 45.24 273.728 45.24C273.856 45.24 274.171 45.464 274.672 45.912C275.184 46.36 275.44 46.6533 275.44 46.792C275.44 46.888 275.301 46.936 275.024 46.936H264.512C264.448 49.944 264.315 52.152 264.112 53.56C263.909 54.968 263.568 56.1467 263.088 57.096C262.608 58.056 261.904 58.968 260.976 59.832L260.72 59.624C261.765 58.2053 262.405 56.5573 262.64 54.68C262.875 52.792 262.992 50.6907 262.992 48.376C262.992 47.6507 262.981 46.7067 262.96 45.544C263.483 45.7147 264.133 46.0133 264.912 46.44ZM268.064 51.24H266.032C265.723 51.24 265.499 51.272 265.36 51.336L265.072 50.632C265.296 50.6853 265.563 50.712 265.872 50.712H268.096C268.16 49.9333 268.192 49.3147 268.192 48.856C268.192 48.3867 268.181 47.912 268.16 47.432C269.547 47.7413 270.24 47.9867 270.24 48.168C270.24 48.2427 270.149 48.3227 269.968 48.408C269.797 48.472 269.707 48.6373 269.696 48.904C269.685 49.1707 269.627 49.7733 269.52 50.712H272.064L272.608 49.992C272.693 49.8747 272.768 49.816 272.832 49.816C272.896 49.816 273.168 49.9973 273.648 50.36C274.139 50.7227 274.384 50.9733 274.384 51.112C274.384 51.2613 274.176 51.432 273.76 51.624C273.653 53.8213 273.563 55.3253 273.488 56.136C273.413 56.936 273.323 57.4747 273.216 57.752C273.12 58.0293 272.96 58.2907 272.736 58.536C272.512 58.792 272.192 59.0053 271.776 59.176C271.371 59.3573 271.088 59.448 270.928 59.448C270.843 59.448 270.789 59.3627 270.768 59.192C270.715 58.7653 270.501 58.4347 270.128 58.2C269.755 57.976 269.275 57.7893 268.688 57.64L268.736 57.288C269.792 57.4907 270.517 57.592 270.912 57.592C271.317 57.592 271.589 57.496 271.728 57.304C271.877 57.112 272.005 56.5733 272.112 55.688C272.229 54.8027 272.288 53.32 272.288 51.24H269.456C269.275 52.7653 269.019 53.9867 268.688 54.904C268.368 55.8213 267.771 56.6747 266.896 57.464C266.032 58.2533 264.965 58.9733 263.696 59.624L263.552 59.352C265.216 58.1787 266.341 57.0213 266.928 55.88C267.525 54.7387 267.904 53.192 268.064 51.24ZM280.544 48.008H283.28L283.136 44.648C283.627 44.7227 284.08 44.824 284.496 44.952C284.912 45.0693 285.163 45.16 285.248 45.224C285.344 45.2773 285.392 45.3307 285.392 45.384C285.392 45.4373 285.317 45.5067 285.168 45.592C285.019 45.6667 284.912 45.7573 284.848 45.864C284.795 45.96 284.768 46.1147 284.768 46.328V48.008H287.568L288.032 47.336C288.096 47.24 288.16 47.192 288.224 47.192C288.299 47.192 288.507 47.304 288.848 47.528C289.189 47.752 289.435 47.9227 289.584 48.04C289.744 48.1467 289.824 48.248 289.824 48.344C289.824 48.4293 289.616 48.5947 289.2 48.84V51.64L289.248 52.68C289.248 52.7653 289.227 52.8293 289.184 52.872C289.152 52.9147 289.051 52.9893 288.88 53.096C288.709 53.192 288.523 53.2773 288.32 53.352C288.117 53.4267 287.979 53.464 287.904 53.464C287.829 53.464 287.792 53.352 287.792 53.128V52.408H284.64C284.597 53.9973 284.309 55.288 283.776 56.28C284.736 56.8027 285.829 57.176 287.056 57.4C288.293 57.6347 289.803 57.7573 291.584 57.768L291.568 58.152C290.843 58.2693 290.336 58.4027 290.048 58.552C289.771 58.7013 289.536 58.936 289.344 59.256C289.269 59.3733 289.184 59.432 289.088 59.432C288.917 59.432 288.075 59.192 286.56 58.712C285.056 58.232 283.904 57.704 283.104 57.128C281.941 58.3013 279.797 59.2027 276.672 59.832L276.592 59.528C279.109 58.7493 280.949 57.6667 282.112 56.28C281.365 55.5013 280.741 54.5947 280.24 53.56L280.56 53.352C281.2 54.28 281.888 55.016 282.624 55.56C282.955 55.0053 283.163 53.9547 283.248 52.408H280.272V52.744C280.272 52.8293 280.256 52.8933 280.224 52.936C280.203 52.968 280.101 53.0373 279.92 53.144C279.739 53.24 279.547 53.3253 279.344 53.4C279.141 53.4747 278.997 53.512 278.912 53.512C278.827 53.512 278.789 53.4427 278.8 53.304C278.843 52.8773 278.864 52.424 278.864 51.944V48.6C278.864 48.152 278.848 47.6987 278.816 47.24C279.445 47.464 280.021 47.72 280.544 48.008ZM283.296 48.552H280.272V51.832H283.28C283.301 51.2133 283.312 50.632 283.312 50.088C283.312 49.544 283.307 49.032 283.296 48.552ZM287.792 51.832V48.552H284.752C284.752 49.7573 284.725 50.8507 284.672 51.832H287.792ZM295.792 44.728C296.677 44.9947 297.253 45.224 297.52 45.416C297.797 45.608 297.936 45.8427 297.936 46.12C297.936 46.3867 297.835 46.6373 297.632 46.872C297.44 47.096 297.259 47.208 297.088 47.208C296.928 47.208 296.816 47.1813 296.752 47.128C296.699 47.064 296.613 46.8507 296.496 46.488C296.389 46.1147 296.272 45.8267 296.144 45.624C296.027 45.4107 295.856 45.176 295.632 44.92L295.792 44.728ZM300.464 50.648C301.285 49.208 301.904 47.2453 302.32 44.76C303.611 45.176 304.256 45.4587 304.256 45.608C304.256 45.6827 304.171 45.7413 304 45.784C303.829 45.8267 303.707 45.8907 303.632 45.976C303.568 46.0613 303.456 46.2907 303.296 46.664C303.147 47.0267 302.981 47.3947 302.8 47.768H305.136L305.536 47.192C305.6 47.096 305.664 47.048 305.728 47.048C305.792 47.048 306.064 47.2027 306.544 47.512C307.024 47.8107 307.264 48.0133 307.264 48.12C307.264 48.2267 307.072 48.36 306.688 48.52C306.645 50.8667 306.576 52.808 306.48 54.344C306.395 55.8693 306.304 56.9093 306.208 57.464C306.112 58.0187 305.979 58.4027 305.808 58.616C305.637 58.84 305.307 59.0427 304.816 59.224C304.336 59.416 304.037 59.512 303.92 59.512C303.824 59.512 303.749 59.4213 303.696 59.24C303.589 58.888 303.408 58.616 303.152 58.424C302.896 58.232 302.384 58.008 301.616 57.752L301.696 57.432C302.827 57.656 303.573 57.768 303.936 57.768C304.309 57.768 304.56 57.6827 304.688 57.512C304.816 57.352 304.912 57.048 304.976 56.6C305.051 56.1413 305.125 55.08 305.2 53.416L303.232 54.632C302.059 55.3573 301.387 55.7947 301.216 55.944C301.056 56.0827 300.955 56.152 300.912 56.152C300.869 56.152 300.827 56.1307 300.784 56.088C300.752 56.0453 300.656 55.8907 300.496 55.624C300.336 55.3573 300.176 55.0693 300.016 54.76C301.275 54.3547 302.171 54.056 302.704 53.864L305.216 52.968L305.328 48.232H302.56C302.165 48.968 301.531 49.8427 300.656 50.856C300.667 50.8773 300.715 50.9413 300.8 51.048C300.885 51.144 300.928 51.2187 300.928 51.272C300.928 51.3147 300.848 51.336 300.688 51.336H293.584C293.296 51.336 293.072 51.3733 292.912 51.448L292.624 50.792C292.848 50.8453 293.115 50.872 293.424 50.872H297.184C297.536 50.072 297.851 49.0907 298.128 47.928C298.811 48.216 299.243 48.4133 299.424 48.52C299.605 48.6267 299.696 48.7173 299.696 48.792C299.696 48.856 299.616 48.9147 299.456 48.968C299.296 49.0107 299.131 49.1333 298.96 49.336C298.789 49.528 298.395 50.04 297.776 50.872H298.896L299.44 50.152C299.536 50.0347 299.616 49.976 299.68 49.976C299.797 49.976 300.059 50.2 300.464 50.648ZM298.768 47.336L299.344 46.552C299.419 46.4667 299.483 46.424 299.536 46.424C299.621 46.424 299.856 46.6213 300.24 47.016C300.624 47.4107 300.816 47.6453 300.816 47.72C300.816 47.784 300.736 47.816 300.576 47.816H294.224C293.936 47.816 293.712 47.8533 293.552 47.928L293.264 47.256C293.488 47.3093 293.755 47.336 294.064 47.336H298.768ZM294.416 48.088C294.992 48.3333 295.413 48.536 295.68 48.696C295.957 48.856 296.139 49.0053 296.224 49.144C296.309 49.2827 296.352 49.4587 296.352 49.672C296.352 49.8747 296.251 50.0987 296.048 50.344C295.856 50.5787 295.659 50.696 295.456 50.696C295.381 50.696 295.323 50.6533 295.28 50.568C295.248 50.4827 295.205 50.3013 295.152 50.024C295.109 49.736 295.029 49.4693 294.912 49.224C294.795 48.9787 294.581 48.68 294.272 48.328L294.416 48.088ZM301.584 49.816C302.224 50.2853 302.709 50.7013 303.04 51.064C303.371 51.416 303.536 51.7307 303.536 52.008C303.536 52.2853 303.413 52.552 303.168 52.808C302.923 53.064 302.688 53.192 302.464 53.192C302.347 53.192 302.267 53.1493 302.224 53.064C302.181 52.9787 302.149 52.728 302.128 52.312C302.117 51.8853 302.059 51.496 301.952 51.144C301.845 50.792 301.653 50.424 301.376 50.04L301.584 49.816ZM295.552 52.584H298.048L298.48 52.008C298.533 51.944 298.592 51.912 298.656 51.912C298.731 51.912 298.976 52.0507 299.392 52.328C299.808 52.6053 300.016 52.7867 300.016 52.872C300.016 52.9573 299.84 53.064 299.488 53.192V57.064L299.52 58.504C299.52 58.632 299.509 58.7067 299.488 58.728C299.467 58.76 299.381 58.8187 299.232 58.904C299.083 58.9893 298.896 59.0693 298.672 59.144C298.448 59.2187 298.309 59.256 298.256 59.256C298.213 59.256 298.192 59.192 298.192 59.064V57.848H295.52V58.84C295.52 58.936 295.509 59 295.488 59.032C295.477 59.064 295.397 59.1173 295.248 59.192C295.099 59.2773 294.896 59.3627 294.64 59.448C294.384 59.5333 294.229 59.576 294.176 59.576C294.133 59.576 294.117 59.528 294.128 59.432C294.181 58.9093 294.208 58.376 294.208 57.832V53.336C294.208 52.888 294.192 52.4347 294.16 51.976C294.725 52.1787 295.189 52.3813 295.552 52.584ZM295.52 54.936H298.192V53.016H295.52V54.936ZM298.192 55.368H295.52V57.416H298.192V55.368ZM318.144 51.128H320.72L321.344 50.264C321.429 50.1573 321.509 50.104 321.584 50.104C321.669 50.104 321.792 50.1733 321.952 50.312C322.123 50.44 322.309 50.6 322.512 50.792C322.725 50.984 322.88 51.1387 322.976 51.256C323.083 51.3627 323.136 51.4533 323.136 51.528C323.136 51.592 323.008 51.624 322.752 51.624H318.832C319.248 52.9253 319.797 53.976 320.48 54.776C321.173 55.576 322.192 56.328 323.536 57.032L323.504 57.288C323.312 57.2773 323.141 57.272 322.992 57.272C322.309 57.272 321.845 57.4373 321.6 57.768C321.547 57.8533 321.483 57.896 321.408 57.896C321.344 57.896 321.28 57.8693 321.216 57.816C321.152 57.7627 320.923 57.496 320.528 57.016C320.133 56.536 319.792 56.04 319.504 55.528C319.227 55.016 318.997 54.456 318.816 53.848C318.645 53.2293 318.496 52.488 318.368 51.624H318.144V57.208L318.176 59.048C318.176 59.1547 318.128 59.24 318.032 59.304C317.947 59.368 317.739 59.4587 317.408 59.576C317.088 59.6933 316.885 59.752 316.8 59.752C316.725 59.752 316.688 59.704 316.688 59.608L316.72 58.856C316.741 58.344 316.752 57.8747 316.752 57.448V53.368C315.493 55.3947 313.739 57.016 311.488 58.232L311.312 57.976C312.507 56.952 313.435 56.008 314.096 55.144C314.757 54.2693 315.44 53.096 316.144 51.624H314.368C314.091 51.624 313.861 51.6507 313.68 51.704L313.408 51.048C313.632 51.1013 313.899 51.128 314.208 51.128H316.752V48.504H314.832C314.555 48.504 314.325 48.5307 314.144 48.584L313.872 47.928C314.096 47.9813 314.363 48.008 314.672 48.008H316.752V46.392C316.752 45.688 316.736 45.08 316.704 44.568C317.152 44.664 317.573 44.7707 317.968 44.888C318.363 45.0053 318.603 45.0907 318.688 45.144C318.784 45.1867 318.832 45.2293 318.832 45.272C318.832 45.3893 318.603 45.5493 318.144 45.752V48.008H319.808L320.432 47.128C320.507 47.0213 320.581 46.968 320.656 46.968C320.795 46.968 321.083 47.1813 321.52 47.608C321.957 48.024 322.176 48.28 322.176 48.376C322.176 48.4613 322.069 48.504 321.856 48.504H318.144V51.128ZM310.688 46.968H311.872L312.272 46.312C312.347 46.184 312.427 46.12 312.512 46.12C312.597 46.12 312.853 46.2853 313.28 46.616C313.717 46.9467 313.936 47.1547 313.936 47.24C313.936 47.3253 313.733 47.4587 313.328 47.64V52.792C313.328 53.2613 313.333 53.592 313.344 53.784L313.36 54.312C313.36 54.408 313.317 54.488 313.232 54.552C313.147 54.616 312.955 54.7013 312.656 54.808C312.368 54.904 312.187 54.952 312.112 54.952C312.048 54.952 312.016 54.8987 312.016 54.792V53.768H310.544V55.32C310.544 55.4587 310.507 55.5547 310.432 55.608C310.357 55.6613 310.165 55.7467 309.856 55.864C309.547 55.9707 309.339 56.024 309.232 56.024C309.189 56.024 309.173 55.9813 309.184 55.896C309.237 55.3627 309.264 54.824 309.264 54.28V47.496C309.264 47.048 309.248 46.5947 309.216 46.136C309.76 46.3707 310.251 46.648 310.688 46.968ZM312.016 53.32V47.432H310.544V53.32H312.016Z" fill="#9A764E"/>
</g>
<defs>
<filter id="filter0_d_1354_155" x="4.743" y="0.456001" width="78.41" height="37.696" filterUnits="userSpaceOnUse" color-interpolation-filters="sRGB">
<feFlood flood-opacity="0" result="BackgroundImageFix"/>
<feColorMatrix in="SourceAlpha" type="matrix" values="0 0 0 0 0 0 0 0 0 0 0 0 0 0 0 0 0 0 127 0" result="hardAlpha"/>
<feOffset dy="4"/>
<feGaussianBlur stdDeviation="2"/>
<feComposite in2="hardAlpha" operator="out"/>
<feColorMatrix type="matrix" values="0 0 0 0 0 0 0 0 0 0 0 0 0 0 0 0 0 0 0.25 0"/>
<feBlend mode="normal" in2="BackgroundImageFix" result="effect1_dropShadow_1354_155"/>
<feBlend mode="normal" in="SourceGraphic" in2="effect1_dropShadow_1354_155" result="shape"/>
</filter>
<filter id="filter1_d_1354_155" x="0" y="44.568" width="327.536" height="23.264" filterUnits="userSpaceOnUse" color-interpolation-filters="sRGB">
<feFlood flood-opacity="0" result="BackgroundImageFix"/>
<feColorMatrix in="SourceAlpha" type="matrix" values="0 0 0 0 0 0 0 0 0 0 0 0 0 0 0 0 0 0 127 0" result="hardAlpha"/>
<feOffset dy="4"/>
<feGaussianBlur stdDeviation="2"/>
<feComposite in2="hardAlpha" operator="out"/>
<feColorMatrix type="matrix" values="0 0 0 0 0 0 0 0 0 0 0 0 0 0 0 0 0 0 0.25 0"/>
<feBlend mode="normal" in2="BackgroundImageFix" result="effect1_dropShadow_1354_155"/>
<feBlend mode="normal" in="SourceGraphic" in2="effect1_dropShadow_1354_155" result="shape"/>
</filter>
</defs>
</svg>
