<svg width="98" height="52" viewBox="0 0 98 52" fill="none" xmlns="http://www.w3.org/2000/svg">
<g clip-path="url(#clip0_25_127)">
<path d="M44.23 45.21C43.6233 45.41 43.0166 45.59 42.41 45.75V47.94C42.41 48.56 42.1033 48.87 41.49 48.87H40.38L40.23 48.18C40.6166 48.2133 40.9566 48.23 41.25 48.23C41.53 48.23 41.67 48.0733 41.67 47.76V45.92C40.95 46.08 40.2933 46.2067 39.7 46.3L39.6 45.57C40.46 45.43 41.15 45.3033 41.67 45.19V43.22H39.61V42.53H41.67V41.19C41.19 41.29 40.64 41.3833 40.02 41.47L39.87 40.78C41.3033 40.62 42.5633 40.3267 43.65 39.9L43.89 40.58C43.45 40.7333 42.9566 40.8833 42.41 41.03V42.53H44.81C44.75 41.7167 44.72 40.8233 44.72 39.85H45.44C45.4533 40.9033 45.4866 41.7967 45.54 42.53H48.63V43.22H45.6C45.6733 43.96 45.7666 44.5633 45.88 45.03C45.9266 45.23 45.9933 45.4667 46.08 45.74C46.5733 45.14 46.9966 44.48 47.35 43.76L47.97 44.09C47.51 45.03 46.9666 45.8333 46.34 46.5C46.4933 46.8733 46.64 47.16 46.78 47.36C47.1066 47.8467 47.3633 48.09 47.55 48.09C47.7433 48.0833 47.92 47.52 48.08 46.4L48.71 46.73C48.47 48.15 48.12 48.86 47.66 48.86C47.2533 48.86 46.82 48.56 46.36 47.96C46.1466 47.6733 45.9633 47.3567 45.81 47.01C45.09 47.65 44.2733 48.15 43.36 48.51L42.97 47.89C43.9366 47.5367 44.79 47.01 45.53 46.31C45.41 45.9767 45.3 45.61 45.2 45.21C45.06 44.6367 44.95 43.9733 44.87 43.22H42.41V45.02C43.0766 44.8467 43.6833 44.6667 44.23 44.48V45.21ZM46.54 39.96C47.28 40.4533 47.89 40.93 48.37 41.39L47.85 41.91C47.39 41.4233 46.7933 40.9267 46.06 40.42L46.54 39.96ZM53.16 41.56V48.38H52.46V47.81H50.64V48.67H49.94V41.56H50.87C51.0633 41.0133 51.2066 40.4333 51.3 39.82L52.02 39.92C51.8933 40.5533 51.7366 41.1 51.55 41.56H53.16ZM50.64 47.14H52.46V44.95H50.64V47.14ZM50.64 44.3H52.46V42.24H50.64V44.3ZM54.9 43.88C55.5933 44.6733 56.14 45.4 56.54 46.06L55.97 46.46C55.5633 45.8 55.0133 45.06 54.32 44.24L54.9 43.88ZM58.33 41.57C58.33 44.8967 58.28 46.95 58.18 47.73C58.08 48.4967 57.6133 48.88 56.78 48.88L55.76 48.84L55.59 48.18C56.01 48.2 56.3733 48.21 56.68 48.21C57.1466 48.21 57.42 47.9533 57.5 47.44C57.56 46.88 57.6 45.1567 57.62 42.27H54.87C54.5833 42.91 54.25 43.48 53.87 43.98L53.44 43.41C54.1333 42.4433 54.61 41.2433 54.87 39.81L55.58 39.9C55.4466 40.5467 55.3 41.1033 55.14 41.57H58.33Z" fill="#625858"/>
<path d="M55.3 22.975H42.2625C39.4625 22.975 37.1875 25.25 37.1875 28.05V28.75C37.1875 31.1125 39.1125 33.125 41.5625 33.125H56C58.3625 33.125 60.375 31.2 60.375 28.75V28.05C60.375 25.25 58.1 22.975 55.3 22.975ZM48.7375 7.04999C44.7125 7.04999 41.475 10.2875 41.475 14.3125C41.475 18.3375 44.7125 21.575 48.7375 21.575C52.7625 21.575 56 18.3375 56 14.3125V7.04999H48.7375ZM48.7375 15.8C47.5125 15.8 46.55 14.8375 46.55 13.6125C46.55 12.3875 47.5125 11.425 48.7375 11.425C49.9625 11.425 50.925 12.3875 50.925 13.6125C51.0125 14.8375 49.9625 15.8 48.7375 15.8Z" fill="#9A764E"/>
</g>
<defs>
<clipPath id="clip0_25_127">
<rect width="97.76" height="51.3614" fill="white" transform="translate(0.23999)"/>
</clipPath>
</defs>
</svg>
