<svg width="99" height="52" viewBox="0 0 99 52" fill="none" xmlns="http://www.w3.org/2000/svg">
<g id="&#229;&#136;&#182;&#231;&#147;&#183;" clip-path="url(#clip0_25_114)">
<path id="&#230;&#160;&#135;&#231;&#173;&#190;2" d="M41.2 41.77C41.02 42.17 40.81 42.5 40.57 42.76L39.99 42.34C40.49 41.8 40.81 41.06 40.95 40.11L41.63 40.22C41.58 40.54 41.52 40.83 41.44 41.1H42.6V39.86H43.32V41.1H45.19V41.77H43.32V43.06H45.48V43.73H43.32V44.78H45.27V47.42C45.27 48.01 44.97 48.31 44.37 48.31H43.84L43.66 47.63L44.15 47.66C44.43 47.66 44.58 47.53 44.58 47.27V45.45H43.32V49.01H42.6V45.45H41.33V48.38H40.63V44.78H42.6V43.73H40.18V43.06H42.6V41.77H41.2ZM46.07 40.76H46.77V46.94H46.07V40.76ZM47.9 48.91H46.43L46.27 48.22C46.75 48.25 47.21 48.27 47.65 48.27C47.95 48.27 48.11 48.11 48.11 47.79V39.86H48.82V47.97C48.82 48.59 48.51 48.91 47.9 48.91ZM51.04 40.21H54.09V42.64H51.04V40.21ZM53.43 42.03V40.83H51.69V42.03H53.43ZM55.2 40.21H58.31V42.64H55.2V40.21ZM57.66 42.03V40.83H55.86V42.03H57.66ZM50.23 43.64H53.6C53.79 43.38 53.94 43.11 54.06 42.83L54.75 42.9C54.65 43.16 54.52 43.4 54.38 43.64H56.96C56.82 43.39 56.67 43.16 56.51 42.96L57.12 42.76C57.33 43.04 57.51 43.33 57.67 43.64H59.05V44.28H56.35C57 44.88 57.97 45.36 59.26 45.71L58.97 46.32C58.72 46.24 58.49 46.15 58.27 46.07V49.01H57.63V48.58H55.76V49.01H55.12V45.86H57.79C56.83 45.42 56.09 44.89 55.59 44.28H53.9C53.34 44.92 52.59 45.44 51.65 45.86H54.16V49.01H53.52V48.58H51.81V49.01H51.18V46.06C50.91 46.16 50.64 46.25 50.36 46.34L50.03 45.75C51.31 45.37 52.29 44.88 52.99 44.28H50.23V43.64ZM51.81 47.96H53.52V46.46H51.81V47.96ZM55.76 47.96H57.63V46.46H55.76V47.96Z" fill="#9A764E"/>
<g id="Frame" clip-path="url(#clip1_25_114)">
<path id="Vector" d="M45.8991 6H52.8796C52.9185 6.22763 52.9185 6.3735 52.8796 6.43747C52.5921 6.91036 52.2103 7.14723 52.1078 7.42189C52.0415 7.59982 51.9109 8.06935 51.9783 8.38418C52.0248 8.59991 52.2683 8.71806 52.2747 8.7196C53.9435 9.12166 55.1281 9.62114 56.1884 10.7262C57.2917 11.876 57.8749 13.2518 57.8749 14.7048C57.8749 15.7243 57.5897 16.7009 57.0274 17.6076C56.5835 18.3233 56.2019 19.0465 55.8925 19.757L55.7561 20.0705C54.5522 22.8367 54.1899 25.8697 54.7082 28.8416L55.1248 31.2296C55.1427 31.2986 55.155 31.369 55.1615 31.44L55.2365 31.8705C55.2565 31.985 54.3921 33.0062 53.3403 33.4074C52.3422 33.7885 51.0341 33.9982 49.657 33.9982C49.5673 33.9982 49.4783 33.9972 49.3894 33.9954C49.3005 33.9972 49.2113 33.9982 49.1217 33.9982C47.7446 33.9982 46.4365 33.7885 45.4384 33.4074C44.3866 33.0062 43.5222 31.985 43.5422 31.8705L43.6173 31.44C43.6236 31.369 43.6359 31.2986 43.6539 31.2296L44.0704 28.8416C44.5886 25.8697 44.2264 22.8366 43.0226 20.0705L42.8862 19.757C42.577 19.0465 42.1951 18.3233 41.7513 17.6076C41.189 16.7009 40.9038 15.7243 40.9038 14.7049C40.9038 13.2518 41.487 11.876 42.5901 10.7264C43.6506 9.62128 44.835 9.1218 46.504 8.71974C46.5103 8.7182 46.7539 8.60005 46.8002 8.38432C46.8678 8.06935 46.7372 7.59996 46.6709 7.42203C46.5685 7.14751 46.1868 6.9105 45.8991 6.43761C45.8602 6.3735 45.8602 6.22763 45.8991 6ZM48.5407 7.74989C48.5848 8.08642 48.5837 8.41442 48.5112 8.75166C48.3975 9.28055 48.1187 9.67294 47.7628 9.97196C47.522 10.1742 47.2433 10.3415 46.9138 10.4209C45.3778 10.7909 44.5745 11.1858 43.8527 11.9379C43.0545 12.7697 42.6537 13.7156 42.6537 14.7049C42.6537 15.3945 42.8458 16.0525 43.2383 16.6854C43.7256 17.4713 44.147 18.2691 44.4907 19.0589L44.627 19.3723C45.9676 22.4526 46.3713 25.8328 45.7942 29.1423L45.407 31.3619C45.6296 31.5485 45.8645 31.6971 46.0622 31.7726C46.8467 32.072 47.9459 32.2483 49.1217 32.2483C49.1997 32.2483 49.2772 32.2475 49.3546 32.2459H49.4238C49.5012 32.2475 49.5789 32.2483 49.6569 32.2483C50.8325 32.2483 51.9317 32.0719 52.7162 31.7726C52.9138 31.6971 53.1487 31.5485 53.3713 31.3619L52.9842 29.1423C52.4071 25.8328 52.8109 22.4526 54.1513 19.3723L54.2878 19.0589C54.6315 18.2691 55.0528 17.4713 55.5401 16.6855C55.9327 16.0525 56.1249 15.3945 56.1249 14.7051C56.1249 13.7157 55.7239 12.7698 54.9257 11.938C54.2042 11.1858 53.4007 10.791 51.865 10.4211C51.5354 10.3417 51.2564 10.1744 51.0158 9.9721C50.6601 9.67308 50.3812 9.28083 50.2675 8.7518C50.195 8.41456 50.1939 8.08656 50.238 7.75003H48.5407V7.74989Z" fill="#9A764E"/>
<path id="Vector_2" d="M33.1409 23.4428C34.9114 24.1221 36.6739 23.4428 38.0992 22.1643C40.1238 20.4447 42.1857 23.047 43.6649 24.376C46.4623 26.8821 50.3001 27.1362 53.2927 23.154C53.9829 22.2098 54.4775 21.036 55.1569 20.2522C55.4056 19.1181 55.1569 18.2276 54.5711 17.6419C53.8408 17.0055 52.5035 16.9119 51.8673 17.4466C50.9847 18.1903 51.137 19.8136 52.3083 19.9072C52.905 19.9581 53.1991 19.3215 52.905 19.0247C52.75 18.8696 52.4529 18.8294 52.6565 18.4819C52.8005 18.2866 53.2927 18.6262 53.4399 18.8296C53.8386 19.3217 53.6886 20.4556 52.7098 20.5999C52.3624 20.6427 52.0733 20.5999 51.7764 20.4958C51.8699 20.9878 51.8699 21.4798 51.7764 21.9211C51.3779 23.796 49.5138 24.823 47.7943 24.823C45.2349 24.7722 43.2155 22.6112 42.3865 21.9211C41.1509 20.937 39.1905 20.402 37.5645 21.8276C36.631 22.6112 35.064 23.598 34.1679 23.1997C35.3526 23.1567 36.2859 22.5631 37.0697 21.8784C37.9524 21.0946 38.9847 20.303 40.0623 20.4528C41.6376 20.5971 42.7663 21.6241 44.0447 22.5603C45.4247 23.6008 47.8318 25.1198 50.0514 23.4938C51.1719 22.71 51.5706 20.8407 50.8351 19.7066C50.3428 19.0702 49.1076 18.8241 48.4282 19.2146C47.3878 19.851 47.337 21.2819 48.4709 21.5814C49.0672 21.7257 49.4552 21.1294 49.2147 20.7871C49.07 20.6426 48.816 20.549 49.07 20.2522C49.2147 20.0569 49.656 20.4902 49.7496 20.6934C50.097 21.2363 49.7496 22.3194 48.7734 22.3194C47.6392 22.3701 46.952 21.3861 47.0458 20.4554V20.2494C46.5109 20.1052 46.0187 20.1987 45.7672 20.3003C45.0372 20.6372 44.1519 20.8351 43.4111 20.3003C42.1782 19.5059 40.2579 19.1181 38.5811 19.9016C37.9017 20.2492 37.4096 20.6318 37.062 21.0358C36.4255 21.7257 35.3851 22.4078 34.7486 22.6109C36.332 21.5841 36.332 21.3325 37.0112 20.5435C38.5864 18.773 41.1967 18.5698 43.018 19.5032C43.6037 19.8508 44.537 20.2975 45.3741 19.8508C45.8662 19.6128 46.3075 19.3588 47.2381 19.6128C47.5856 18.9228 48.2785 18.3771 49.3563 18.3771C49.8911 18.4281 50.3403 18.5724 50.6776 18.7757C50.6776 17.5908 51.2739 16.6147 52.6514 16.4194C54.5153 16.2241 56.2884 17.901 55.9008 19.5645C56.096 19.4202 56.342 19.3266 56.5909 19.2676C58.4042 18.92 60.0812 20.1503 60.1237 21.5811C60.1745 22.9532 59.2999 24.3784 57.8182 24.1833C57.3263 24.6755 56.6335 25.1167 55.8446 25.1167C55.1143 25.1675 55.2589 24.8786 54.363 25.8069C53.3357 26.5369 53.2852 27.0343 49.2495 26.9916C52.6432 26.6465 53.0846 26.1035 53.9725 25.368C55.05 24.4775 54.7562 24.384 55.4542 24.5846C56.3368 24.5846 56.9221 24.3892 57.1737 24.0416C57.1737 24.0416 57.1229 24.0416 57.1229 23.9908C55.6412 23.4051 56.1897 21.6853 57.2675 21.4821C57.4628 21.4313 57.8529 21.4821 57.8529 21.7306C57.9038 21.9687 57.5563 22.1212 57.369 22.1212C56.8768 22.1212 56.7726 22.9049 57.0212 23.1616C58.5407 24.7771 60.4046 22.1775 59.0889 20.6449C57.9547 19.2729 56.0401 19.8613 55.3447 21.0435C54.6652 22.1212 54.1731 23.1616 53.2265 24.2929C50.921 27.1411 46.15 28.1174 42.066 23.7501C41.039 22.6159 39.6162 21.2415 37.6933 23.06C36.9096 23.5522 36.0163 23.9932 34.8958 23.9932C34.1679 23.9776 33.633 23.7903 33.1409 23.4428Z" fill="#9A764E"/>
</g>
</g>
<defs>
<clipPath id="clip0_25_114">
<rect width="97.76" height="51.3614" fill="white"/>
</clipPath>
</defs>
</svg>
