<svg width="98" height="52" viewBox="0 0 98 52" fill="none" xmlns="http://www.w3.org/2000/svg">
<g clip-path="url(#clip0_25_108)">
<path d="M47.33 42.74V49.06H46.29V48.71H41.47V49.06H40.43V42.74H43.14C43.1867 42.4933 43.2267 42.2467 43.26 42H39.41V41H41.76C41.62 40.6867 41.4667 40.39 41.3 40.11L42.32 39.72C42.5067 40.06 42.69 40.4867 42.87 41H44.85C45.0567 40.58 45.2367 40.1467 45.39 39.7L46.42 40.07C46.3 40.3833 46.1633 40.6933 46.01 41H48.35V42H44.37C44.33 42.26 44.28 42.5067 44.22 42.74H47.33ZM41.47 47.77H46.29V46.99H41.47V47.77ZM41.47 46.09H46.29V45.33H41.47V46.09ZM41.47 44.43H46.29V43.68H41.47V44.43ZM57.12 41.88V46.78H56.07V42.9H51.65V46.78H50.6V41.88H53.14C53.2 41.6067 53.25 41.34 53.29 41.08H49.44V40.1H58.32V41.08H54.42C54.3733 41.34 54.3133 41.6067 54.24 41.88H57.12ZM54.64 46.62C55.94 47.0267 57.1033 47.5133 58.13 48.08L57.48 49.07C56.3933 48.4033 55.2533 47.8767 54.06 47.49L54.64 46.62ZM53.35 43.33H54.41V44.92C54.35 46.04 53.9833 46.9367 53.31 47.61C52.6833 48.2167 51.63 48.6933 50.15 49.04L49.55 48.11C51.01 47.79 51.9967 47.3933 52.51 46.92C53.01 46.4133 53.29 45.7467 53.35 44.92V43.33Z" fill="#9A764E"/>
<path d="M56.2797 14.9718C56.5285 14.9661 56.7664 14.8572 56.9387 14.6709C57.1109 14.4846 57.2066 14.2323 57.2012 13.9715V8.97294C57.2012 8.41977 56.7883 7.96979 56.2797 7.96979H52.5992C52.0934 7.96979 51.6777 8.41691 51.6777 8.97294V13.9772C51.6723 14.2381 51.768 14.4874 51.9402 14.6766C52.1125 14.8657 52.3476 14.9747 52.5992 14.9775L56.2797 14.9718ZM53.518 12.9741V9.97036H55.3582V12.9741H53.518ZM43.398 14.9775C43.6469 14.9718 43.8848 14.8629 44.057 14.6766C44.2293 14.4903 44.325 14.2352 44.3195 13.9772V8.97007C44.3195 8.41691 43.9094 7.96979 43.398 7.96979H39.7203C39.2117 7.96979 38.7988 8.41691 38.7988 8.97007V13.9744C38.7934 14.2352 38.8891 14.4846 39.0613 14.6737C39.2345 14.8612 39.4714 14.9694 39.7203 14.9747L43.398 14.9775ZM40.6363 12.9741V9.97036H42.4766V12.9741H40.6363Z" fill="#9A764E"/>
<path d="M55.3582 33.3725C55.3582 33.5903 55.1504 33.7651 54.8934 33.7651H52.1426C51.8855 33.7651 51.6777 33.5874 51.6777 33.3725V28.9786H55.3582V33.3725ZM44.3195 33.3725C44.3195 33.5903 44.1117 33.7651 43.8547 33.7651H41.1066C40.8496 33.7651 40.6418 33.5874 40.6391 33.3725V28.9786H44.3195V33.3725ZM39.7203 12.9741C38.1973 12.9741 36.9613 14.3154 36.9613 15.9749V24.9804C36.9613 26.6341 38.1973 27.9812 39.7203 27.9812H56.2797C57.8027 27.9812 59.0387 26.6399 59.0387 24.9804V15.9692C59.0387 14.3154 57.8027 12.9683 56.2797 12.9683L39.7203 12.9741ZM56.0473 17.2188V22.7218H50.4609V19.9675H51.8418V21.2171H54.6691V18.7178H48.6863V20.9706H47.3082V18.7178H41.3281V21.22H44.1555V19.9703H45.5336V22.7218H39.9473V17.2188H56.0473ZM48.6891 23.9743H47.3109V21.9738H48.6891V23.9743Z" fill="#9A764E"/>
</g>
<defs>
<clipPath id="clip0_25_108">
<rect width="97.76" height="51.3614" fill="white"/>
</clipPath>
</defs>
</svg>
