<svg width="99" height="52" viewBox="0 0 99 52" fill="none" xmlns="http://www.w3.org/2000/svg">
<g id="&#232;&#175;&#134;&#229;&#136;&#171;" clip-path="url(#clip0_25_120)">
<path id="&#230;&#160;&#135;&#231;&#173;&#190;3" d="M43.72 40.43H48.32V45.1H43.72V40.43ZM47.6 44.4V41.12H44.44V44.4H47.6ZM41 39.93C41.66 40.43 42.21 40.94 42.67 41.45L42.18 41.95C41.77 41.47 41.21 40.96 40.5 40.42L41 39.93ZM39.8 42.89H41.94V47.3C42.26 47.02 42.6 46.69 42.97 46.32L43.16 47.08C42.58 47.66 41.97 48.17 41.32 48.62L41.04 47.98C41.18 47.86 41.25 47.72 41.25 47.56V43.58H39.8V42.89ZM44.79 45.7L45.43 46.01C44.93 47.18 44.34 48.19 43.66 49.05L43.03 48.59C43.72 47.79 44.31 46.82 44.79 45.7ZM47.19 45.67C47.98 46.78 48.59 47.75 49.01 48.58L48.39 49.01C47.95 48.11 47.36 47.12 46.61 46.04L47.19 45.67ZM51.92 43.41H50.33V40.23H54.58V43.41H52.62C52.6 43.85 52.57 44.25 52.53 44.63H54.68C54.68 46.37 54.63 47.44 54.53 47.86C54.43 48.52 53.95 48.86 53.08 48.86C52.94 48.86 52.72 48.85 52.4 48.83L52.23 48.19C52.52 48.21 52.77 48.23 52.98 48.23C53.48 48.23 53.78 48.01 53.86 47.58C53.92 47.33 53.95 46.57 53.97 45.3H52.44C52.33 45.92 52.2 46.42 52.04 46.8C51.67 47.64 51.06 48.37 50.21 48.98L49.75 48.41C50.52 47.88 51.07 47.25 51.39 46.51C51.53 46.19 51.64 45.78 51.73 45.3H49.95V44.63H51.82C51.86 44.25 51.9 43.85 51.92 43.41ZM55.71 40.71H56.41V46.94H55.71V40.71ZM57.57 48.91H56.15L55.99 48.22C56.46 48.25 56.9 48.27 57.32 48.27C57.63 48.27 57.79 48.09 57.79 47.73V39.86H58.51V47.91C58.51 48.57 58.19 48.91 57.57 48.91ZM53.89 42.75V40.88H51.02V42.75H53.89Z" fill="#9A764E"/>
<g id="Frame" clip-path="url(#clip1_25_120)">
<path id="Vector" d="M60.2563 31.9995H37.7334C37.0084 31.9995 36.3132 31.7115 35.8006 31.1989C35.288 30.6863 35 29.9911 35 29.2661V14.0139C35 13.289 35.288 12.5937 35.8006 12.0811C36.3132 11.5685 37.0084 11.2806 37.7334 11.2806H38.5534L39.9201 8.57451C40.0118 8.39254 40.1525 8.23981 40.3263 8.13356C40.5002 8.0273 40.7003 7.97175 40.9041 7.97317H47.3275C47.5313 7.97175 47.7314 8.0273 47.9052 8.13356C48.0791 8.23981 48.2198 8.39254 48.3115 8.57451L49.6509 11.2532H60.2563C60.6153 11.2532 60.9707 11.3239 61.3024 11.4613C61.634 11.5986 61.9353 11.8 62.1891 12.0538C62.443 12.3076 62.6443 12.6089 62.7817 12.9406C62.919 13.2722 62.9897 13.6276 62.9897 13.9866V29.2661C62.9897 29.9911 62.7017 30.6863 62.1891 31.1989C61.6765 31.7115 60.9813 31.9995 60.2563 31.9995ZM37.7334 13.4672C37.5884 13.4672 37.4493 13.5248 37.3468 13.6274C37.2443 13.7299 37.1867 13.8689 37.1867 14.0139V29.2661C37.1867 29.4111 37.2443 29.5502 37.3468 29.6527C37.4493 29.7552 37.5884 29.8128 37.7334 29.8128H60.2563C60.4013 29.8128 60.5404 29.7552 60.6429 29.6527C60.7454 29.5502 60.803 29.4111 60.803 29.2661V14.0139C60.803 13.8689 60.7454 13.7299 60.6429 13.6274C60.5404 13.5248 60.4013 13.4672 60.2563 13.4672H48.9402C48.7364 13.4687 48.5363 13.4131 48.3625 13.3069C48.1886 13.2006 48.0479 13.0479 47.9562 12.8659L46.6168 10.1872H41.5874L40.2207 12.8932C40.129 13.0752 39.9883 13.2279 39.8145 13.3342C39.6406 13.4404 39.4405 13.496 39.2367 13.4946L37.7334 13.4672Z" fill="#9A764E"/>
<path id="Vector_2" d="M58.343 11.0345H53.6689C53.379 11.0345 53.1009 10.9193 52.8958 10.7143C52.6908 10.5093 52.5756 10.2312 52.5756 9.94119C52.5756 9.65121 52.6908 9.37312 52.8958 9.16807C53.1009 8.96303 53.379 8.84784 53.6689 8.84784H58.343C58.633 8.84784 58.9111 8.96303 59.1161 9.16807C59.3212 9.37312 59.4364 9.65121 59.4364 9.94119C59.4364 10.2312 59.3212 10.5093 59.1161 10.7143C58.9111 10.9193 58.633 11.0345 58.343 11.0345ZM45.2502 28.9928C43.5741 28.9976 41.9482 28.4211 40.6496 27.3614C39.3511 26.3018 38.4602 24.8245 38.1288 23.1816C37.7974 21.5386 38.046 19.8315 38.8323 18.3513C39.6186 16.8711 40.8938 15.7094 42.4407 15.0642C43.9876 14.419 45.7104 14.3302 47.3154 14.8129C48.9205 15.2956 50.3085 16.32 51.2428 17.7115C52.1771 19.103 52.5999 20.7755 52.4393 22.4438C52.2786 24.1122 51.5443 25.6732 50.3616 26.8608C49.6929 27.5364 48.8968 28.0728 48.0194 28.4388C47.142 28.8047 46.2008 28.993 45.2502 28.9928ZM45.2502 16.6926C42.4621 16.6926 40.1934 18.9613 40.1934 21.7494C40.1934 24.5374 42.4621 26.8061 45.2502 26.8061C48.0382 26.8061 50.3069 24.5374 50.3069 21.7494C50.3069 18.9613 48.0382 16.6926 45.2502 16.6926Z" fill="#9A764E"/>
<path id="Vector_3" d="M45.2501 26.3414C42.7081 26.3414 40.6581 24.2914 40.6581 21.7494C40.6581 19.2073 42.7081 17.1573 45.2501 17.1573C47.7922 17.1573 49.8422 19.2073 49.8422 21.7494C49.8422 24.2914 47.7922 26.3414 45.2501 26.3414ZM45.2501 19.344C44.7744 19.344 44.3094 19.4851 43.9138 19.7494C43.5182 20.0137 43.2099 20.3894 43.0279 20.8289C42.8458 21.2684 42.7982 21.7521 42.891 22.2186C42.9838 22.6852 43.2129 23.1138 43.5493 23.4502C43.8857 23.7866 44.3143 24.0157 44.7809 24.1085C45.2475 24.2013 45.7311 24.1537 46.1706 23.9717C46.6102 23.7896 46.9858 23.4813 47.2501 23.0857C47.5144 22.6902 47.6555 22.2251 47.6555 21.7494C47.6555 21.4335 47.5933 21.1207 47.4724 20.8289C47.3515 20.5371 47.1744 20.2719 46.951 20.0485C46.7276 19.8252 46.4625 19.648 46.1706 19.5271C45.8788 19.4062 45.566 19.344 45.2501 19.344ZM45.5781 12.7839H42.6261C42.3361 12.7839 42.058 12.6687 41.853 12.4637C41.648 12.2586 41.5328 11.9806 41.5328 11.6906C41.5328 11.4006 41.648 11.1225 41.853 10.9175C42.058 10.7124 42.3361 10.5972 42.6261 10.5972H45.5781C45.8681 10.5972 46.1462 10.7124 46.3513 10.9175C46.5563 11.1225 46.6715 11.4006 46.6715 11.6906C46.6715 11.9806 46.5563 12.2586 46.3513 12.4637C46.1462 12.6687 45.8681 12.7839 45.5781 12.7839ZM57.277 18.9887C56.8445 18.9887 56.4217 18.8604 56.0621 18.6202C55.7025 18.3799 55.4222 18.0384 55.2567 17.6388C55.0912 17.2392 55.0479 16.7996 55.1323 16.3754C55.2167 15.9512 55.4249 15.5616 55.7308 15.2558C56.0366 14.9499 56.4262 14.7417 56.8504 14.6573C57.2746 14.5729 57.7142 14.6162 58.1138 14.7817C58.5134 14.9472 58.8549 15.2275 59.0951 15.5871C59.3354 15.9467 59.4637 16.3695 59.4637 16.802C59.4637 17.3819 59.2333 17.9381 58.8232 18.3482C58.4131 18.7583 57.8569 18.9887 57.277 18.9887ZM57.277 23.0887C57.0175 23.0887 56.7638 23.0118 56.5481 22.8676C56.3323 22.7235 56.1641 22.5185 56.0648 22.2788C55.9655 22.0391 55.9395 21.7753 55.9902 21.5208C56.0408 21.2662 56.1658 21.0325 56.3492 20.849C56.5327 20.6655 56.7665 20.5405 57.021 20.4899C57.2755 20.4393 57.5393 20.4653 57.7791 20.5646C58.0188 20.6639 58.2237 20.832 58.3679 21.0478C58.512 21.2636 58.589 21.5172 58.589 21.7767C58.589 22.1247 58.4508 22.4584 58.2047 22.7045C57.9587 22.9505 57.6249 23.0887 57.277 23.0887Z" fill="#9A764E"/>
</g>
</g>
<defs>
<clipPath id="clip0_25_120">
<rect width="97.76" height="51.3614" fill="white" transform="translate(0.47998)"/>
</clipPath>
</defs>
</svg>
