<svg width="31" height="15" viewBox="0 0 31 15" fill="none" xmlns="http://www.w3.org/2000/svg">
<path d="M1.664 2.368H14.4V3.616H1.664V2.368ZM0.816 12.864H15.2V14.064H0.816V12.864ZM7.28 2.992H8.624V13.36H7.28V2.992ZM18.448 6.08H27.632V7.2H18.448V6.08ZM27.44 6.08H27.632L27.888 6.032L28.736 6.656C28.688 6.704 28.576 6.784 28.464 6.832C20.48 11.52 19.92 12.384 19.92 12.976C19.92 13.472 20.528 13.696 21.488 13.696H28.512C29.392 13.696 29.664 13.376 29.744 11.312C30.064 11.504 30.512 11.632 30.88 11.712C30.688 14.368 30.128 14.864 28.416 14.864H21.6C19.616 14.864 18.704 14.176 18.704 13.072C18.704 12.08 19.04 11.024 27.44 6.08ZM16.896 2.288H30.896V3.456H16.896V2.288ZM20.592 0.559999H21.824V4.912H20.592V0.559999ZM26.128 0.559999H27.344V4.912H26.128V0.559999Z" fill="#9A764E"/>
</svg>
