<svg width="398" height="852" viewBox="0 0 398 852" fill="none" xmlns="http://www.w3.org/2000/svg">
<g clip-path="url(#clip0_1109_532)" filter="url(#filter0_d_1109_532)">
<rect width="390" height="844" transform="translate(4)" fill="#F4F2E5"/>
<path d="M58.6904 28.0627C57.8327 28.0627 57.0662 28.2454 56.3911 28.6106C55.7215 28.9703 55.1958 29.4683 54.814 30.1047C54.4377 30.7356 54.2495 31.4578 54.2495 32.2712V32.2878C54.2495 33.0404 54.4155 33.7156 54.7476 34.3132C55.0851 34.9109 55.5472 35.3813 56.1338 35.7244C56.7204 36.0675 57.3955 36.239 58.1592 36.239C58.7126 36.239 59.194 36.156 59.6035 35.99C60.0186 35.824 60.3672 35.6054 60.6494 35.3342C60.9316 35.0631 61.1447 34.7698 61.2886 34.4543H61.5791V32.2463H61.0811V32.2629C61.0811 32.7112 60.9759 33.1124 60.7656 33.4666C60.5553 33.8207 60.2703 34.0974 59.9106 34.2966C59.5509 34.4958 59.1442 34.5955 58.6904 34.5955C58.2367 34.5955 57.8327 34.4931 57.4785 34.2883C57.1243 34.0836 56.8449 33.8041 56.6401 33.45C56.4354 33.0903 56.333 32.678 56.333 32.2131V32.1965C56.333 31.7483 56.4409 31.3443 56.6567 30.9846C56.8726 30.6194 57.1603 30.3316 57.52 30.1213C57.8797 29.9111 58.2754 29.8059 58.707 29.8059C59.1553 29.8059 59.5565 29.9138 59.9106 30.1296C60.2703 30.3455 60.5553 30.6388 60.7656 31.0095C60.9759 31.3803 61.0811 31.7926 61.0811 32.2463L61.4546 34.2468C61.4546 34.3243 61.4546 34.4045 61.4546 34.4875C61.4546 34.565 61.4518 34.6453 61.4463 34.7283C61.4186 35.4919 61.3024 36.1892 61.0977 36.8201C60.8984 37.4454 60.5968 37.9462 60.1929 38.3225C59.7944 38.6933 59.2798 38.8787 58.6489 38.8787C58.3003 38.8787 57.9849 38.8233 57.7026 38.7126C57.4259 38.5964 57.188 38.4332 56.9888 38.2229C56.7951 38.0126 56.6457 37.7691 56.5405 37.4924L56.5073 37.4094H54.4072L54.4238 37.5007C54.5566 38.1095 54.814 38.6518 55.1958 39.1277C55.5832 39.5981 56.0701 39.9688 56.6567 40.24C57.2489 40.5056 57.9129 40.6384 58.6489 40.6384C59.6506 40.6384 60.5111 40.3839 61.2305 39.8748C61.9554 39.3601 62.5116 38.6241 62.8989 37.6667C63.2863 36.7094 63.48 35.5583 63.48 34.2136V34.197C63.48 33.1124 63.3527 32.1855 63.0981 31.4163C62.8436 30.6415 62.4922 30.0079 62.0439 29.5154C61.6012 29.0173 61.0921 28.6521 60.5166 28.4197C59.9411 28.1817 59.3324 28.0627 58.6904 28.0627ZM67.2485 38.7292C67.6304 38.7292 67.9458 38.6047 68.1948 38.3557C68.4438 38.1012 68.5684 37.7913 68.5684 37.426C68.5684 37.0553 68.4438 36.7454 68.1948 36.4963C67.9458 36.2418 67.6304 36.1145 67.2485 36.1145C66.8722 36.1145 66.5568 36.2418 66.3022 36.4963C66.0532 36.7454 65.9287 37.0553 65.9287 37.426C65.9287 37.7913 66.0532 38.1012 66.3022 38.3557C66.5568 38.6047 66.8722 38.7292 67.2485 38.7292ZM67.2485 32.5701C67.6304 32.5701 67.9458 32.4456 68.1948 32.1965C68.4438 31.942 68.5684 31.6321 68.5684 31.2668C68.5684 30.8961 68.4438 30.5862 68.1948 30.3372C67.9458 30.0826 67.6304 29.9553 67.2485 29.9553C66.8722 29.9553 66.5568 30.0826 66.3022 30.3372C66.0532 30.5862 65.9287 30.8961 65.9287 31.2668C65.9287 31.6321 66.0532 31.942 66.3022 32.1965C66.5568 32.4456 66.8722 32.5701 67.2485 32.5701ZM76.8276 40.3396H78.8696V38.0403H80.4883V36.2722H78.8696V28.3616H75.8564C75.5244 28.8541 75.1924 29.3604 74.8604 29.8806C74.5339 30.3953 74.2046 30.9182 73.8726 31.4495C73.5461 31.9752 73.2168 32.5092 72.8848 33.0515C72.5583 33.5883 72.2345 34.1278 71.9136 34.6702C71.5981 35.2125 71.2827 35.752 70.9673 36.2888V38.0403H76.8276V40.3396ZM72.9595 36.322V36.1975C73.1919 35.788 73.4326 35.3757 73.6816 34.9607C73.9307 34.5401 74.1825 34.1223 74.437 33.7073C74.6916 33.2867 74.9489 32.8689 75.209 32.4539C75.4691 32.0388 75.7264 31.6321 75.981 31.2336C76.241 30.8352 76.4928 30.4478 76.7363 30.0715H76.8608V36.322H72.9595ZM85.4438 40.3396H87.5771V28.3616H85.4438L82.3145 30.5613V32.5701L85.2944 30.47H85.4438V40.3396Z" fill="black"/>
<rect opacity="0.35" x="335" y="28.5" width="24" height="12" rx="3.8" stroke="black"/>
<path opacity="0.4" d="M360.5 32.7811V36.8566C361.305 36.5114 361.828 35.7085 361.828 34.8189C361.828 33.9293 361.305 33.1263 360.5 32.7811Z" fill="black"/>
<rect x="336.5" y="30" width="21" height="9" rx="2.5" fill="black"/>
<path fill-rule="evenodd" clip-rule="evenodd" d="M318.771 31.104C321.258 31.1041 323.65 32.0262 325.452 33.6797C325.588 33.8074 325.805 33.8058 325.939 33.6761L327.236 32.4126C327.304 32.3469 327.341 32.2578 327.341 32.1651C327.34 32.0724 327.302 31.9838 327.233 31.9188C322.502 27.5441 315.038 27.5441 310.307 31.9188C310.239 31.9837 310.2 32.0724 310.199 32.165C310.199 32.2577 310.236 32.3468 310.304 32.4126L311.602 33.6761C311.735 33.8059 311.952 33.8076 312.088 33.6797C313.891 32.0261 316.283 31.104 318.771 31.104ZM318.767 35.3243C320.124 35.3242 321.433 35.836 322.439 36.7601C322.576 36.8913 322.79 36.8884 322.923 36.7537L324.21 35.4344C324.278 35.3652 324.315 35.2713 324.314 35.1738C324.313 35.0762 324.274 34.9831 324.205 34.9153C321.141 32.0245 316.396 32.0245 313.332 34.9153C313.263 34.9831 313.224 35.0762 313.223 35.1738C313.222 35.2714 313.26 35.3653 313.327 35.4344L314.614 36.7537C314.747 36.8884 314.961 36.8913 315.097 36.7601C316.103 35.8366 317.411 35.3249 318.767 35.3243ZM321.292 38.1179C321.294 38.2232 321.256 38.3248 321.189 38.3986L319.012 40.8533C318.949 40.9255 318.862 40.9661 318.771 40.9661C318.68 40.9661 318.593 40.9255 318.529 40.8533L316.352 38.3986C316.285 38.3247 316.248 38.2231 316.25 38.1178C316.252 38.0124 316.293 37.9127 316.363 37.842C317.753 36.5282 319.789 36.5282 321.179 37.842C321.249 37.9127 321.29 38.0125 321.292 38.1179Z" fill="black"/>
<path fill-rule="evenodd" clip-rule="evenodd" d="M302.7 29.6821C302.7 29.049 302.222 28.5358 301.633 28.5358H300.567C299.978 28.5358 299.5 29.049 299.5 29.6821V39.616C299.5 40.2491 299.978 40.7622 300.567 40.7622H301.633C302.222 40.7622 302.7 40.2491 302.7 39.616V29.6821ZM295.266 30.9811H296.333C296.922 30.9811 297.399 31.5066 297.399 32.1548V39.5885C297.399 40.2367 296.922 40.7622 296.333 40.7622H295.266C294.677 40.7622 294.199 40.2367 294.199 39.5885V32.1548C294.199 31.5066 294.677 30.9811 295.266 30.9811ZM290.934 33.6302H289.867C289.278 33.6302 288.801 34.1623 288.801 34.8188V39.5736C288.801 40.23 289.278 40.7622 289.867 40.7622H290.934C291.523 40.7622 292.001 40.23 292.001 39.5736V34.8188C292.001 34.1623 291.523 33.6302 290.934 33.6302ZM285.633 36.0755H284.567C283.978 36.0755 283.5 36.6 283.5 37.2471V39.5905C283.5 40.2377 283.978 40.7622 284.567 40.7622H285.633C286.222 40.7622 286.7 40.2377 286.7 39.5905V37.2471C286.7 36.6 286.222 36.0755 285.633 36.0755Z" fill="black"/>
<path d="M168.72 77.5H165.84V80.16L168.44 79.22L168.64 79.62L165.84 81.16V86.62C165.84 87.1133 165.767 87.4867 165.62 87.74C165.487 87.9933 165.16 88.2533 164.64 88.52C164.133 88.7867 163.793 88.92 163.62 88.92C163.46 88.92 163.353 88.82 163.3 88.62C163.153 88.1133 162.907 87.7333 162.56 87.48C162.227 87.24 161.54 86.96 160.5 86.64L160.58 86.18C162.073 86.38 163 86.48 163.36 86.48C163.733 86.48 163.96 86.44 164.04 86.36C164.12 86.2933 164.16 86.1667 164.16 85.98V82.08C163.013 82.6933 162.233 83.1267 161.82 83.38C161.407 83.6333 161.167 83.82 161.1 83.94C161.033 84.06 160.94 84.12 160.82 84.12C160.713 84.12 160.62 84.0933 160.54 84.04C160.473 83.9867 160.313 83.76 160.06 83.36C159.807 82.96 159.567 82.5467 159.34 82.12C160.727 81.8133 162.333 81.36 164.16 80.76V77.5H160.42C160.06 77.5 159.78 77.5467 159.58 77.64L159.22 76.74C159.5 76.8067 159.833 76.84 160.22 76.84H164.16V74.6C162.547 74.92 161.047 75.1067 159.66 75.16L159.6 74.72C161.307 74.2533 162.653 73.82 163.64 73.42C164.64 73.0067 165.68 72.4867 166.76 71.86C167.773 72.98 168.28 73.6333 168.28 73.82C168.28 73.8867 168.24 73.92 168.16 73.92C168.093 73.92 168.02 73.9133 167.94 73.9C167.86 73.8733 167.767 73.86 167.66 73.86C167.393 73.86 166.787 73.9733 165.84 74.2V76.84H168.68L168.22 70.78C168.66 70.82 169.153 70.8867 169.7 70.98C170.26 71.06 170.6 71.1267 170.72 71.18C170.853 71.22 170.92 71.2933 170.92 71.4C170.92 71.5067 170.687 71.7267 170.22 72.06C170.22 73.9933 170.267 75.5867 170.36 76.84H173.78L174.6 75.6C174.693 75.4533 174.807 75.38 174.94 75.38C175.087 75.38 175.473 75.6667 176.1 76.24C176.727 76.8 177.04 77.1533 177.04 77.3C177.04 77.4333 176.873 77.5 176.54 77.5H170.4C170.56 79.3 170.8 80.72 171.12 81.76C171.84 80.6933 172.42 79.5867 172.86 78.44C173.993 78.88 174.627 79.14 174.76 79.22C174.907 79.3 174.98 79.3933 174.98 79.5C174.98 79.5933 174.873 79.6667 174.66 79.72C174.46 79.76 174.207 80.0133 173.9 80.48C173.113 81.64 172.38 82.5867 171.7 83.32C171.993 83.9333 172.36 84.5267 172.8 85.1C173.253 85.6733 173.567 86.0267 173.74 86.16C173.913 86.2933 174.08 86.36 174.24 86.36C174.4 86.36 174.547 86.2867 174.68 86.14C174.827 86.0067 175.02 85.5533 175.26 84.78C175.513 84.0067 175.733 83.2467 175.92 82.5L176.38 82.66C176.153 83.7267 176.04 84.6533 176.04 85.44C176.04 86.2267 176.24 87.0867 176.64 88.02C176.72 88.22 176.76 88.38 176.76 88.5C176.76 88.74 176.547 88.86 176.12 88.86C173.853 88.86 171.98 87.4067 170.5 84.5C169.34 85.5133 167.873 86.4133 166.1 87.2L165.9 86.84C167.473 85.7467 168.82 84.5533 169.94 83.26C169.34 81.78 168.933 79.86 168.72 77.5ZM171.22 72.44C172.193 72.68 172.907 72.9 173.36 73.1C173.813 73.3 174.107 73.5 174.24 73.7C174.373 73.9 174.44 74.1533 174.44 74.46C174.44 74.7667 174.327 75.0667 174.1 75.36C173.873 75.6533 173.62 75.8 173.34 75.8C173.26 75.8 173.193 75.78 173.14 75.74C173.1 75.7 173.047 75.6 172.98 75.44C172.473 74.3867 171.82 73.5067 171.02 72.8L171.22 72.44ZM191.82 76.02C191.247 77.18 190.233 78.72 188.78 80.64L188.44 80.42C189.267 78.62 189.88 77.0933 190.28 75.84C190.693 74.5733 191.093 72.94 191.48 70.94C192.093 71.1533 192.633 71.36 193.1 71.56C193.567 71.76 193.847 71.9 193.94 71.98C194.047 72.0467 194.1 72.1267 194.1 72.22C194.1 72.3133 193.987 72.3867 193.76 72.44C193.547 72.4933 193.4 72.5733 193.32 72.68C193.253 72.7867 193.1 73.1333 192.86 73.72C192.62 74.2933 192.38 74.8333 192.14 75.34H194.86L195.4 74.52C195.52 74.3467 195.64 74.26 195.76 74.26C195.893 74.26 196.253 74.4733 196.84 74.9C197.44 75.3133 197.74 75.6067 197.74 75.78C197.74 75.9533 197.46 76.16 196.9 76.4C196.807 80.1733 196.733 82.7133 196.68 84.02C196.627 85.3267 196.553 86.2133 196.46 86.68C196.38 87.16 196.207 87.5867 195.94 87.96C195.673 88.3333 195.267 88.6467 194.72 88.9C194.173 89.1667 193.787 89.3 193.56 89.3C193.453 89.3 193.373 89.2 193.32 89C193.213 88.6267 193.08 88.3333 192.92 88.12C192.76 87.9067 192.487 87.7067 192.1 87.52C191.713 87.3333 191.127 87.1333 190.34 86.92L190.44 86.5C192.027 86.7267 193.027 86.84 193.44 86.84C193.853 86.84 194.133 86.7933 194.28 86.7C194.44 86.62 194.547 86.48 194.6 86.28C194.653 86.08 194.707 85.62 194.76 84.9C194.813 84.1667 194.867 82.9867 194.92 81.36C194.973 79.72 195.007 77.94 195.02 76.02H191.82ZM184.3 75.64H186.24L186.78 74.84C186.873 74.6933 186.973 74.62 187.08 74.62C187.187 74.62 187.527 74.8 188.1 75.16C188.673 75.52 188.96 75.7933 188.96 75.98C188.96 76.1533 188.707 76.34 188.2 76.54V84.8C188.2 85.3867 188.207 85.8 188.22 86.04L188.24 86.72C188.24 86.7867 188.22 86.84 188.18 86.88C188.153 86.9333 188.033 87.0067 187.82 87.1C187.62 87.2067 187.367 87.3067 187.06 87.4C186.767 87.5067 186.58 87.56 186.5 87.56C186.433 87.56 186.4 87.4867 186.4 87.34V86.08H183.14V87.26C183.14 87.4067 183.08 87.52 182.96 87.6C182.84 87.68 182.573 87.7933 182.16 87.94C181.76 88.1 181.5 88.18 181.38 88.18C181.273 88.18 181.227 88.1 181.24 87.94C181.307 87.3267 181.34 86.6667 181.34 85.96V76.36C181.34 75.8 181.32 75.2333 181.28 74.66C182.013 74.9133 182.687 75.22 183.3 75.58C183.7 73.7667 183.907 72.2933 183.92 71.16C184.507 71.28 185.06 71.44 185.58 71.64C186.1 71.84 186.4 71.9733 186.48 72.04C186.56 72.1067 186.6 72.18 186.6 72.26C186.6 72.3933 186.493 72.4867 186.28 72.54C186.12 72.58 185.94 72.7533 185.74 73.06C185.553 73.3533 185.073 74.2133 184.3 75.64ZM186.4 80.38V76.28H183.14V80.38H186.4ZM186.4 85.44V81.04H183.14V85.44H186.4ZM190.44 79.04C191.4 79.7333 192.067 80.2533 192.44 80.6C192.813 80.9467 193.06 81.2 193.18 81.36C193.3 81.52 193.36 81.7333 193.36 82C193.36 82.48 193.207 82.9067 192.9 83.28C192.593 83.6533 192.34 83.84 192.14 83.84C191.953 83.84 191.82 83.5667 191.74 83.02C191.66 82.46 191.48 81.84 191.2 81.16C190.933 80.4667 190.607 79.8533 190.22 79.32L190.44 79.04ZM210.16 75.96C211.147 74.1733 211.913 72.3933 212.46 70.62C213.007 70.86 213.48 71.0933 213.88 71.32C214.293 71.5467 214.54 71.6933 214.62 71.76C214.713 71.8267 214.76 71.8933 214.76 71.96C214.76 72.0133 214.62 72.0867 214.34 72.18C214.073 72.26 213.833 72.4533 213.62 72.76C212.993 73.6533 212.127 74.72 211.02 75.96H213.9L214.76 74.6C214.867 74.4267 214.953 74.34 215.02 74.34C215.153 74.34 215.473 74.5533 215.98 74.98C216.5 75.3933 216.867 75.7 217.08 75.9C217.293 76.0867 217.4 76.2467 217.4 76.38C217.4 76.5133 217.233 76.58 216.9 76.58H210.4C210.36 77.9267 210.28 79.12 210.16 80.16H215.3L216.22 78.84C216.34 78.6667 216.447 78.58 216.54 78.58C216.74 78.58 217.133 78.8533 217.72 79.4C218.307 79.9467 218.6 80.3133 218.6 80.5C218.6 80.6733 218.44 80.76 218.12 80.76H210.9C211.54 82.5867 212.493 84.0067 213.76 85.02C215.027 86.02 216.76 86.7267 218.96 87.14V87.58C218.173 87.5533 217.6 87.62 217.24 87.78C216.88 87.94 216.56 88.22 216.28 88.62C216.213 88.7133 216.14 88.76 216.06 88.76C215.887 88.76 215.353 88.4333 214.46 87.78C213.58 87.1267 212.813 86.28 212.16 85.24C211.52 84.2 210.907 82.7067 210.32 80.76H210.08C209.773 82.9067 209.027 84.5667 207.84 85.74C206.653 86.9133 204.52 88.0467 201.44 89.14L201.24 88.74C203.547 87.6067 205.227 86.4467 206.28 85.26C207.333 84.0733 207.987 82.5733 208.24 80.76H202.62C202.26 80.76 201.98 80.8067 201.78 80.9L201.42 80.06C201.7 80.1267 202.033 80.16 202.42 80.16H208.3C208.38 79.4667 208.42 78.8067 208.42 78.18C208.42 77.54 208.413 77.0067 208.4 76.58H203.34C202.98 76.58 202.7 76.6267 202.5 76.72L202.14 75.86C202.42 75.9267 202.753 75.96 203.14 75.96H210.16ZM204.64 71.12C205.68 71.64 206.447 72.0667 206.94 72.4C207.447 72.7333 207.78 73.0267 207.94 73.28C208.1 73.52 208.18 73.84 208.18 74.24C208.18 74.64 208.067 74.9933 207.84 75.3C207.613 75.5933 207.413 75.74 207.24 75.74C207.067 75.74 206.953 75.7067 206.9 75.64C206.847 75.56 206.72 75.24 206.52 74.68C206.333 74.1067 206.087 73.6 205.78 73.16C205.473 72.7067 205.013 72.1333 204.4 71.44L204.64 71.12ZM231.5 70.6C232.447 71.0667 233.187 71.5 233.72 71.9C234.267 72.3 234.54 72.6733 234.54 73.02C234.54 73.3533 234.413 73.7067 234.16 74.08C233.907 74.4533 233.587 74.64 233.2 74.64C233.107 74.64 233.033 74.6133 232.98 74.56C232.927 74.4933 232.827 74.1867 232.68 73.64C232.547 73.0933 232.373 72.62 232.16 72.22C231.947 71.82 231.653 71.38 231.28 70.9L231.5 70.6ZM224.3 70.92C225.607 71.4667 226.493 71.9133 226.96 72.26C227.44 72.6067 227.68 72.94 227.68 73.26C227.68 73.5667 227.573 73.9467 227.36 74.4C227.147 74.84 226.9 75.06 226.62 75.06C226.5 75.06 226.407 75.02 226.34 74.94C226.287 74.86 226.2 74.6667 226.08 74.36C225.587 73.08 224.947 72.04 224.16 71.24L224.3 70.92ZM232.4 75.8H229.5C229.167 75.8 228.913 75.84 228.74 75.92L228.42 75.1C228.673 75.1667 228.973 75.2 229.32 75.2H236.7L237.58 74C237.687 73.84 237.787 73.76 237.88 73.76C238.013 73.76 238.413 74.04 239.08 74.6C239.76 75.1467 240.1 75.4867 240.1 75.62C240.1 75.74 239.953 75.8 239.66 75.8H234.3V80.44H236.48L237.28 79.4C237.4 79.24 237.52 79.16 237.64 79.16C237.773 79.16 238.1 79.4333 238.62 79.98C239.153 80.5267 239.42 80.86 239.42 80.98C239.42 81.1 239.293 81.16 239.04 81.16H234.3V86.88H237.26L238.08 85.66C238.2 85.4733 238.32 85.38 238.44 85.38C238.573 85.38 238.927 85.6667 239.5 86.24C240.073 86.8133 240.36 87.1733 240.36 87.32C240.36 87.4667 240.233 87.54 239.98 87.54H227.76C227.427 87.54 227.173 87.58 227 87.66L226.68 86.78C226.933 86.8467 227.233 86.88 227.58 86.88H232.4V81.16H229.4C229.067 81.16 228.813 81.2 228.64 81.28L228.32 80.34C228.573 80.4067 228.873 80.44 229.22 80.44H232.4V75.8ZM228.62 74.24L226.7 80.14C226.087 81.9933 225.78 83.6 225.78 84.96C225.78 85.56 225.82 86.14 225.9 86.7C225.98 87.26 226.02 87.6667 226.02 87.92C226.02 88.7467 225.773 89.16 225.28 89.16C224.8 89.16 224.413 89.02 224.12 88.74C223.827 88.46 223.68 88.1267 223.68 87.74C223.68 87.66 223.687 87.5867 223.7 87.52C223.967 86.0133 224.1 84.9867 224.1 84.44C224.1 84.1067 223.96 83.8467 223.68 83.66C223.413 83.4733 222.8 83.2533 221.84 83L221.88 82.54C222.613 82.6333 223.153 82.68 223.5 82.68C223.86 82.68 224.133 82.5933 224.32 82.42C224.507 82.2467 224.72 81.8933 224.96 81.36L228.26 74.08L228.62 74.24ZM222.32 75.12C223.413 75.5333 224.253 75.94 224.84 76.34C225.44 76.7267 225.74 77.1333 225.74 77.56C225.74 77.8267 225.627 78.1467 225.4 78.52C225.187 78.8933 224.927 79.08 224.62 79.08C224.5 79.08 224.407 79.04 224.34 78.96C224.273 78.88 224.18 78.6867 224.06 78.38C223.66 77.2867 223.02 76.32 222.14 75.48L222.32 75.12Z" fill="#9A764E"/>
</g>
<defs>
<filter id="filter0_d_1109_532" x="0" y="0" width="398" height="852" filterUnits="userSpaceOnUse" color-interpolation-filters="sRGB">
<feFlood flood-opacity="0" result="BackgroundImageFix"/>
<feColorMatrix in="SourceAlpha" type="matrix" values="0 0 0 0 0 0 0 0 0 0 0 0 0 0 0 0 0 0 127 0" result="hardAlpha"/>
<feOffset dy="4"/>
<feGaussianBlur stdDeviation="2"/>
<feComposite in2="hardAlpha" operator="out"/>
<feColorMatrix type="matrix" values="0 0 0 0 0 0 0 0 0 0 0 0 0 0 0 0 0 0 0.25 0"/>
<feBlend mode="normal" in2="BackgroundImageFix" result="effect1_dropShadow_1109_532"/>
<feBlend mode="normal" in="SourceGraphic" in2="effect1_dropShadow_1109_532" result="shape"/>
</filter>
<clipPath id="clip0_1109_532">
<rect width="390" height="844" fill="white" transform="translate(4)"/>
</clipPath>
</defs>
</svg>
