<svg width="398" height="852" viewBox="0 0 398 852" fill="none" xmlns="http://www.w3.org/2000/svg">
<g clip-path="url(#clip0_1104_287)" filter="url(#filter0_d_1104_287)">
<rect width="390" height="844" transform="translate(4)" fill="#F4F2E5"/>
<path d="M57.6335 28.0628C58.2755 28.0628 58.8842 28.1818 59.4597 28.4197C60.0352 28.6521 60.5444 29.0174 60.9871 29.5154C61.4353 30.0079 61.7867 30.6416 62.0413 31.4163C62.2958 32.1855 62.4231 33.1124 62.4231 34.1971V34.2137C62.4231 35.5584 62.2294 36.7094 61.842 37.6668C61.4547 38.6241 60.8985 39.3601 60.1736 39.8748C59.4542 40.3839 58.5937 40.6385 57.592 40.6385C56.856 40.6385 56.192 40.5056 55.5999 40.24C55.0133 39.9689 54.5263 39.5981 54.1389 39.1277C53.7571 38.6518 53.4998 38.1095 53.3669 37.5008L53.3503 37.4095H55.4504L55.4836 37.4925C55.5888 37.7692 55.7382 38.0126 55.9319 38.2229C56.1311 38.4332 56.3691 38.5965 56.6458 38.7127C56.928 38.8234 57.2434 38.8787 57.592 38.8787C58.2229 38.8787 58.7375 38.6933 59.136 38.3225C59.54 37.9462 59.8416 37.4454 60.0408 36.8201C60.2455 36.1892 60.3617 35.492 60.3894 34.7283C60.3949 34.6453 60.3977 34.5651 60.3977 34.4876C60.3977 34.4046 60.3977 34.3243 60.3977 34.2469L60.0242 32.2464C60.0242 31.7926 59.919 31.3803 59.7087 31.0096C59.4985 30.6388 59.2135 30.3455 58.8538 30.1297C58.4996 29.9138 58.0984 29.8059 57.6501 29.8059C57.2185 29.8059 56.8228 29.9111 56.4631 30.1214C56.1034 30.3317 55.8157 30.6194 55.5999 30.9846C55.384 31.3444 55.2761 31.7483 55.2761 32.1966V32.2132C55.2761 32.678 55.3785 33.0903 55.5833 33.45C55.788 33.8041 56.0675 34.0836 56.4216 34.2884C56.7758 34.4931 57.1798 34.5955 57.6335 34.5955C58.0873 34.5955 58.4941 34.4959 58.8538 34.2967C59.2135 34.0974 59.4985 33.8207 59.7087 33.4666C59.919 33.1124 60.0242 32.7112 60.0242 32.263V32.2464H60.5222V34.4544H60.2317C60.0878 34.7698 59.8748 35.0631 59.5925 35.3343C59.3103 35.6054 58.9617 35.824 58.5466 35.99C58.1371 36.156 57.6557 36.239 57.1023 36.239C56.3386 36.239 55.6635 36.0675 55.0769 35.7244C54.4903 35.3813 54.0282 34.9109 53.6907 34.3133C53.3586 33.7156 53.1926 33.0405 53.1926 32.2879V32.2713C53.1926 31.4578 53.3808 30.7356 53.7571 30.1048C54.1389 29.4684 54.6646 28.9703 55.3342 28.6106C56.0094 28.2454 56.7758 28.0628 57.6335 28.0628ZM66.1917 38.7293C65.8153 38.7293 65.4999 38.6048 65.2454 38.3557C64.9963 38.1012 64.8718 37.7913 64.8718 37.4261C64.8718 37.0553 64.9963 36.7454 65.2454 36.4964C65.4999 36.2418 65.8153 36.1145 66.1917 36.1145C66.5735 36.1145 66.8889 36.2418 67.1379 36.4964C67.387 36.7454 67.5115 37.0553 67.5115 37.4261C67.5115 37.7913 67.387 38.1012 67.1379 38.3557C66.8889 38.6048 66.5735 38.7293 66.1917 38.7293ZM66.1917 32.5701C65.8153 32.5701 65.4999 32.4456 65.2454 32.1966C64.9963 31.942 64.8718 31.6321 64.8718 31.2669C64.8718 30.8961 64.9963 30.5862 65.2454 30.3372C65.4999 30.0826 65.8153 29.9554 66.1917 29.9554C66.5735 29.9554 66.8889 30.0826 67.1379 30.3372C67.387 30.5862 67.5115 30.8961 67.5115 31.2669C67.5115 31.6321 67.387 31.942 67.1379 32.1966C66.8889 32.4456 66.5735 32.5701 66.1917 32.5701ZM75.7708 40.3396V38.0403H69.9104V36.2888C70.2258 35.7521 70.5413 35.2125 70.8567 34.6702C71.1777 34.1279 71.5014 33.5883 71.8279 33.0515C72.1599 32.5092 72.4892 31.9752 72.8157 31.4495C73.1477 30.9182 73.477 30.3953 73.8035 29.8806C74.1355 29.3605 74.4675 28.8541 74.7996 28.3616H77.8127V36.2722H79.4314V38.0403H77.8127V40.3396H75.7708ZM71.9026 36.3221H75.804V30.0716H75.6794C75.436 30.4479 75.1842 30.8352 74.9241 31.2337C74.6695 31.6321 74.4122 32.0388 74.1521 32.4539C73.892 32.8689 73.6347 33.2867 73.3801 33.7073C73.1256 34.1223 72.8738 34.5402 72.6248 34.9607C72.3757 35.3758 72.135 35.788 71.9026 36.1975V36.3221ZM84.387 40.3396V30.47H84.2375L81.2576 32.5701V30.5613L84.387 28.3616H86.5203V40.3396H84.387Z" fill="black"/>
<rect opacity="0.35" x="335" y="28.5" width="24" height="12" rx="3.8" stroke="black"/>
<path opacity="0.4" d="M360.5 32.7811V36.8566C361.305 36.5114 361.828 35.7085 361.828 34.8189C361.828 33.9293 361.305 33.1263 360.5 32.7811Z" fill="black"/>
<rect x="336.5" y="30" width="21" height="9" rx="2.5" fill="black"/>
<path fill-rule="evenodd" clip-rule="evenodd" d="M318.771 31.104C321.258 31.1041 323.65 32.0262 325.452 33.6797C325.588 33.8074 325.805 33.8058 325.939 33.6761L327.236 32.4126C327.304 32.3469 327.341 32.2578 327.341 32.1651C327.34 32.0724 327.302 31.9838 327.233 31.9188C322.502 27.5441 315.038 27.5441 310.307 31.9188C310.239 31.9837 310.2 32.0724 310.199 32.165C310.199 32.2577 310.236 32.3468 310.304 32.4126L311.602 33.6761C311.735 33.8059 311.952 33.8076 312.088 33.6797C313.891 32.0261 316.283 31.104 318.771 31.104ZM318.767 35.3243C320.124 35.3242 321.433 35.836 322.439 36.7601C322.576 36.8913 322.79 36.8884 322.923 36.7537L324.21 35.4344C324.278 35.3652 324.315 35.2713 324.314 35.1738C324.313 35.0762 324.274 34.9831 324.205 34.9153C321.141 32.0245 316.396 32.0245 313.332 34.9153C313.263 34.9831 313.224 35.0762 313.223 35.1738C313.222 35.2714 313.26 35.3653 313.327 35.4344L314.614 36.7537C314.747 36.8884 314.961 36.8913 315.097 36.7601C316.103 35.8366 317.411 35.3249 318.767 35.3243ZM321.292 38.1179C321.294 38.2232 321.256 38.3248 321.189 38.3986L319.012 40.8533C318.949 40.9255 318.862 40.9661 318.771 40.9661C318.68 40.9661 318.593 40.9255 318.529 40.8533L316.352 38.3986C316.285 38.3247 316.248 38.2231 316.25 38.1178C316.252 38.0124 316.293 37.9127 316.363 37.842C317.753 36.5282 319.789 36.5282 321.179 37.842C321.249 37.9127 321.29 38.0125 321.292 38.1179Z" fill="black"/>
<path fill-rule="evenodd" clip-rule="evenodd" d="M302.7 29.6821C302.7 29.049 302.222 28.5358 301.633 28.5358H300.567C299.978 28.5358 299.5 29.049 299.5 29.6821V39.616C299.5 40.2491 299.978 40.7622 300.567 40.7622H301.633C302.222 40.7622 302.7 40.2491 302.7 39.616V29.6821ZM295.266 30.9811H296.333C296.922 30.9811 297.399 31.5066 297.399 32.1548V39.5885C297.399 40.2367 296.922 40.7622 296.333 40.7622H295.266C294.677 40.7622 294.199 40.2367 294.199 39.5885V32.1548C294.199 31.5066 294.677 30.9811 295.266 30.9811ZM290.934 33.6302H289.867C289.278 33.6302 288.801 34.1623 288.801 34.8188V39.5736C288.801 40.23 289.278 40.7622 289.867 40.7622H290.934C291.523 40.7622 292.001 40.23 292.001 39.5736V34.8188C292.001 34.1623 291.523 33.6302 290.934 33.6302ZM285.633 36.0755H284.567C283.978 36.0755 283.5 36.6 283.5 37.2471V39.5905C283.5 40.2377 283.978 40.7622 284.567 40.7622H285.633C286.222 40.7622 286.7 40.2377 286.7 39.5905V37.2471C286.7 36.6 286.222 36.0755 285.633 36.0755Z" fill="black"/>
<path d="M166.72 77.5H163.84V80.16L166.44 79.22L166.64 79.62L163.84 81.16V86.62C163.84 87.1133 163.767 87.4867 163.62 87.74C163.487 87.9933 163.16 88.2533 162.64 88.52C162.133 88.7867 161.793 88.92 161.62 88.92C161.46 88.92 161.353 88.82 161.3 88.62C161.153 88.1133 160.907 87.7333 160.56 87.48C160.227 87.24 159.54 86.96 158.5 86.64L158.58 86.18C160.073 86.38 161 86.48 161.36 86.48C161.733 86.48 161.96 86.44 162.04 86.36C162.12 86.2933 162.16 86.1667 162.16 85.98V82.08C161.013 82.6933 160.233 83.1267 159.82 83.38C159.407 83.6333 159.167 83.82 159.1 83.94C159.033 84.06 158.94 84.12 158.82 84.12C158.713 84.12 158.62 84.0933 158.54 84.04C158.473 83.9867 158.313 83.76 158.06 83.36C157.807 82.96 157.567 82.5467 157.34 82.12C158.727 81.8133 160.333 81.36 162.16 80.76V77.5H158.42C158.06 77.5 157.78 77.5467 157.58 77.64L157.22 76.74C157.5 76.8067 157.833 76.84 158.22 76.84H162.16V74.6C160.547 74.92 159.047 75.1067 157.66 75.16L157.6 74.72C159.307 74.2533 160.653 73.82 161.64 73.42C162.64 73.0067 163.68 72.4867 164.76 71.86C165.773 72.98 166.28 73.6333 166.28 73.82C166.28 73.8867 166.24 73.92 166.16 73.92C166.093 73.92 166.02 73.9133 165.94 73.9C165.86 73.8733 165.767 73.86 165.66 73.86C165.393 73.86 164.787 73.9733 163.84 74.2V76.84H166.68L166.22 70.78C166.66 70.82 167.153 70.8867 167.7 70.98C168.26 71.06 168.6 71.1267 168.72 71.18C168.853 71.22 168.92 71.2933 168.92 71.4C168.92 71.5067 168.687 71.7267 168.22 72.06C168.22 73.9933 168.267 75.5867 168.36 76.84H171.78L172.6 75.6C172.693 75.4533 172.807 75.38 172.94 75.38C173.087 75.38 173.473 75.6667 174.1 76.24C174.727 76.8 175.04 77.1533 175.04 77.3C175.04 77.4333 174.873 77.5 174.54 77.5H168.4C168.56 79.3 168.8 80.72 169.12 81.76C169.84 80.6933 170.42 79.5867 170.86 78.44C171.993 78.88 172.627 79.14 172.76 79.22C172.907 79.3 172.98 79.3933 172.98 79.5C172.98 79.5933 172.873 79.6667 172.66 79.72C172.46 79.76 172.207 80.0133 171.9 80.48C171.113 81.64 170.38 82.5867 169.7 83.32C169.993 83.9333 170.36 84.5267 170.8 85.1C171.253 85.6733 171.567 86.0267 171.74 86.16C171.913 86.2933 172.08 86.36 172.24 86.36C172.4 86.36 172.547 86.2867 172.68 86.14C172.827 86.0067 173.02 85.5533 173.26 84.78C173.513 84.0067 173.733 83.2467 173.92 82.5L174.38 82.66C174.153 83.7267 174.04 84.6533 174.04 85.44C174.04 86.2267 174.24 87.0867 174.64 88.02C174.72 88.22 174.76 88.38 174.76 88.5C174.76 88.74 174.547 88.86 174.12 88.86C171.853 88.86 169.98 87.4067 168.5 84.5C167.34 85.5133 165.873 86.4133 164.1 87.2L163.9 86.84C165.473 85.7467 166.82 84.5533 167.94 83.26C167.34 81.78 166.933 79.86 166.72 77.5ZM169.22 72.44C170.193 72.68 170.907 72.9 171.36 73.1C171.813 73.3 172.107 73.5 172.24 73.7C172.373 73.9 172.44 74.1533 172.44 74.46C172.44 74.7667 172.327 75.0667 172.1 75.36C171.873 75.6533 171.62 75.8 171.34 75.8C171.26 75.8 171.193 75.78 171.14 75.74C171.1 75.7 171.047 75.6 170.98 75.44C170.473 74.3867 169.82 73.5067 169.02 72.8L169.22 72.44ZM189.82 76.02C189.247 77.18 188.233 78.72 186.78 80.64L186.44 80.42C187.267 78.62 187.88 77.0933 188.28 75.84C188.693 74.5733 189.093 72.94 189.48 70.94C190.093 71.1533 190.633 71.36 191.1 71.56C191.567 71.76 191.847 71.9 191.94 71.98C192.047 72.0467 192.1 72.1267 192.1 72.22C192.1 72.3133 191.987 72.3867 191.76 72.44C191.547 72.4933 191.4 72.5733 191.32 72.68C191.253 72.7867 191.1 73.1333 190.86 73.72C190.62 74.2933 190.38 74.8333 190.14 75.34H192.86L193.4 74.52C193.52 74.3467 193.64 74.26 193.76 74.26C193.893 74.26 194.253 74.4733 194.84 74.9C195.44 75.3133 195.74 75.6067 195.74 75.78C195.74 75.9533 195.46 76.16 194.9 76.4C194.807 80.1733 194.733 82.7133 194.68 84.02C194.627 85.3267 194.553 86.2133 194.46 86.68C194.38 87.16 194.207 87.5867 193.94 87.96C193.673 88.3333 193.267 88.6467 192.72 88.9C192.173 89.1667 191.787 89.3 191.56 89.3C191.453 89.3 191.373 89.2 191.32 89C191.213 88.6267 191.08 88.3333 190.92 88.12C190.76 87.9067 190.487 87.7067 190.1 87.52C189.713 87.3333 189.127 87.1333 188.34 86.92L188.44 86.5C190.027 86.7267 191.027 86.84 191.44 86.84C191.853 86.84 192.133 86.7933 192.28 86.7C192.44 86.62 192.547 86.48 192.6 86.28C192.653 86.08 192.707 85.62 192.76 84.9C192.813 84.1667 192.867 82.9867 192.92 81.36C192.973 79.72 193.007 77.94 193.02 76.02H189.82ZM182.3 75.64H184.24L184.78 74.84C184.873 74.6933 184.973 74.62 185.08 74.62C185.187 74.62 185.527 74.8 186.1 75.16C186.673 75.52 186.96 75.7933 186.96 75.98C186.96 76.1533 186.707 76.34 186.2 76.54V84.8C186.2 85.3867 186.207 85.8 186.22 86.04L186.24 86.72C186.24 86.7867 186.22 86.84 186.18 86.88C186.153 86.9333 186.033 87.0067 185.82 87.1C185.62 87.2067 185.367 87.3067 185.06 87.4C184.767 87.5067 184.58 87.56 184.5 87.56C184.433 87.56 184.4 87.4867 184.4 87.34V86.08H181.14V87.26C181.14 87.4067 181.08 87.52 180.96 87.6C180.84 87.68 180.573 87.7933 180.16 87.94C179.76 88.1 179.5 88.18 179.38 88.18C179.273 88.18 179.227 88.1 179.24 87.94C179.307 87.3267 179.34 86.6667 179.34 85.96V76.36C179.34 75.8 179.32 75.2333 179.28 74.66C180.013 74.9133 180.687 75.22 181.3 75.58C181.7 73.7667 181.907 72.2933 181.92 71.16C182.507 71.28 183.06 71.44 183.58 71.64C184.1 71.84 184.4 71.9733 184.48 72.04C184.56 72.1067 184.6 72.18 184.6 72.26C184.6 72.3933 184.493 72.4867 184.28 72.54C184.12 72.58 183.94 72.7533 183.74 73.06C183.553 73.3533 183.073 74.2133 182.3 75.64ZM184.4 80.38V76.28H181.14V80.38H184.4ZM184.4 85.44V81.04H181.14V85.44H184.4ZM188.44 79.04C189.4 79.7333 190.067 80.2533 190.44 80.6C190.813 80.9467 191.06 81.2 191.18 81.36C191.3 81.52 191.36 81.7333 191.36 82C191.36 82.48 191.207 82.9067 190.9 83.28C190.593 83.6533 190.34 83.84 190.14 83.84C189.953 83.84 189.82 83.5667 189.74 83.02C189.66 82.46 189.48 81.84 189.2 81.16C188.933 80.4667 188.607 79.8533 188.22 79.32L188.44 79.04ZM209.14 75.84H213.44L214.26 74.52C214.367 74.36 214.473 74.28 214.58 74.28C214.7 74.28 215.073 74.5933 215.7 75.22C216.327 75.8333 216.64 76.1867 216.64 76.28C216.64 76.3733 216.507 76.42 216.24 76.42H212.58C214.007 76.8467 214.72 77.1467 214.72 77.32C214.72 77.3867 214.633 77.4533 214.46 77.52C214.3 77.5867 214.187 77.6733 214.12 77.78C214.067 77.8733 214.013 78.0867 213.96 78.42C213.547 80.8067 212.787 82.8 211.68 84.4C212.987 85.8133 214.86 86.9 217.3 87.66L217.24 87.98C216.547 87.98 216.053 88.04 215.76 88.16C215.467 88.28 215.213 88.4467 215 88.66C214.8 88.8867 214.673 89 214.62 89C214.567 89 214.513 88.9867 214.46 88.96C214.42 88.9333 214.133 88.7067 213.6 88.28C213.08 87.8533 212.567 87.4067 212.06 86.94C211.567 86.4733 211.127 86.0067 210.74 85.54C209.247 87.0733 207.32 88.3533 204.96 89.38L204.72 89.1C207.2 87.34 208.94 85.78 209.94 84.42C208.927 82.86 208.3 80.6933 208.06 77.92C207.327 79.1733 206.42 80.4133 205.34 81.64L205.12 81.36C206.133 79.5067 206.88 77.9133 207.36 76.58C207.853 75.2467 208.367 73.3133 208.9 70.78C209.793 71.0733 210.427 71.3 210.8 71.46C211.173 71.62 211.36 71.7467 211.36 71.84C211.36 71.92 211.253 71.9933 211.04 72.06C210.827 72.1133 210.687 72.2 210.62 72.32C210.553 72.4267 210.407 72.7733 210.18 73.36C209.967 73.9333 209.62 74.76 209.14 75.84ZM212.38 76.42H208.86L208.42 77.26C208.873 79.7533 209.633 81.7467 210.7 83.24C211.62 81.44 212.18 79.1667 212.38 76.42ZM203.32 82.42C202.32 83.3533 201.673 83.9667 201.38 84.26C201.087 84.5533 200.873 84.7933 200.74 84.98C200.607 85.1667 200.507 85.26 200.44 85.26C200.387 85.26 200.293 85.1933 200.16 85.06L199.06 83.82C199.38 83.5133 199.593 83.2867 199.7 83.14C199.807 82.98 199.86 82.8333 199.86 82.7V75.62C199.86 74.94 199.84 74.3133 199.8 73.74C200.8 73.9667 201.427 74.1267 201.68 74.22C201.947 74.3133 202.08 74.4 202.08 74.48C202.08 74.56 201.847 74.74 201.38 75.02V82.78L203.32 81.72V72.8C203.32 72.1333 203.307 71.54 203.28 71.02C204.88 71.3133 205.68 71.5667 205.68 71.78C205.68 71.8867 205.46 72.0533 205.02 72.28V87.98C205.02 88.1133 204.993 88.2133 204.94 88.28C204.9 88.3467 204.753 88.4533 204.5 88.6C204.247 88.7467 204.007 88.86 203.78 88.94C203.567 89.0333 203.427 89.08 203.36 89.08C203.307 89.08 203.28 89.0133 203.28 88.88L203.3 87.52C203.313 87.1067 203.32 86.5867 203.32 85.96V82.42ZM225.08 76.46H230.74C230.7 76.0467 230.653 75.6267 230.6 75.2L230.12 75.28C230.027 75.28 229.98 75.2 229.98 75.04V73.8H227.14V75.2C227.14 75.2933 227.12 75.3667 227.08 75.42C227.04 75.46 226.887 75.5267 226.62 75.62C226.353 75.7 226.053 75.7667 225.72 75.82C225.627 75.86 225.58 75.7933 225.58 75.62L225.62 74.98C225.633 74.54 225.64 74.1467 225.64 73.8H221.04C220.68 73.8 220.4 73.84 220.2 73.92L219.72 73.06C220 73.1267 220.333 73.16 220.72 73.16H225.64V71.82C225.64 71.4467 225.62 71.02 225.58 70.54C226.967 70.86 227.66 71.0933 227.66 71.24C227.66 71.3067 227.487 71.44 227.14 71.64V73.16H229.98V71.84C229.98 71.4667 229.96 71.04 229.92 70.56C231.387 70.8933 232.12 71.1467 232.12 71.32C232.12 71.4 231.913 71.56 231.5 71.8V73.16H235.08L235.94 71.94C236.007 71.8333 236.067 71.78 236.12 71.78C236.213 71.78 236.547 72.06 237.12 72.62C237.707 73.1667 238 73.5 238 73.62C238 73.74 237.867 73.8 237.6 73.8H231.5L231.54 74.7C231.54 74.7933 231.52 74.8533 231.48 74.88C231.44 74.8933 231.373 74.9267 231.28 74.98C231.2 75.02 231.053 75.0667 230.84 75.12C231.667 75.2933 232.147 75.4067 232.28 75.46C232.413 75.5133 232.48 75.58 232.48 75.66C232.48 75.74 232.38 75.8667 232.18 76.04L232.2 76.46H235.06L235.76 75.46C235.827 75.3667 235.887 75.32 235.94 75.32C236.033 75.32 236.327 75.56 236.82 76.04C237.327 76.5067 237.58 76.7933 237.58 76.9C237.58 76.9933 237.407 77.04 237.06 77.04H232.24C232.4 79.7867 232.78 81.86 233.38 83.26C233.753 82.1533 234.087 80.4467 234.38 78.14C234.86 78.3133 235.28 78.4867 235.64 78.66C236.013 78.82 236.22 78.9267 236.26 78.98C236.313 79.02 236.34 79.06 236.34 79.1C236.34 79.22 236.253 79.2933 236.08 79.32C235.907 79.3333 235.793 79.3933 235.74 79.5C235.687 79.6067 235.613 79.8533 235.52 80.24C235.08 82.2933 234.62 83.78 234.14 84.7C234.38 85.0867 234.747 85.5333 235.24 86.04C235.733 86.5467 236.047 86.8 236.18 86.8C236.313 86.8 236.407 86.6933 236.46 86.48L237.26 83.42L237.68 83.52C237.507 84.52 237.42 85.3467 237.42 86C237.42 86.64 237.6 87.3267 237.96 88.06C238.067 88.26 238.12 88.44 238.12 88.6C238.12 88.88 237.96 89.02 237.64 89.02C237.333 89.02 236.733 88.7933 235.84 88.34C234.96 87.8867 234.1 87.1067 233.26 86C232.38 87.0933 230.793 88.1733 228.5 89.24L228.32 88.86C230.44 87.4867 231.86 86.2 232.58 85C231.82 83.7067 231.227 81.0533 230.8 77.04H225.02C225.033 78.6933 225.007 80.2533 224.94 81.72C224.873 83.1733 224.8 84.1533 224.72 84.66C224.64 85.1533 224.473 85.6267 224.22 86.08C223.98 86.5333 223.6 87.0133 223.08 87.52C222.573 88.0267 221.847 88.6533 220.9 89.4L220.66 89.12C221.527 88.2267 222.147 87.4867 222.52 86.9C222.907 86.3267 223.16 85.7 223.28 85.02C223.413 84.34 223.507 83.2933 223.56 81.88H222.7C222.66 83.4667 222.46 84.6267 222.1 85.36C221.74 86.0933 221 86.9133 219.88 87.82L219.68 87.6C220.427 86.6133 220.893 85.78 221.08 85.1C221.28 84.42 221.387 83.3467 221.4 81.88H220.68C220.373 81.88 220.127 81.9267 219.94 82.02L219.64 81.24C219.893 81.2933 220.187 81.32 220.52 81.32H223.58C223.593 80.9867 223.6 80.4333 223.6 79.66H222.56L222.22 80.1C222.113 80.22 222.027 80.28 221.96 80.28C221.787 80.28 221.367 79.9867 220.7 79.4C220.927 79.2533 221.067 79.1467 221.12 79.08C221.173 79 221.2 78.88 221.2 78.72V76.56C221.2 75.9333 221.18 75.4867 221.14 75.22C222.327 75.46 222.92 75.66 222.92 75.82C222.92 75.9133 222.767 76.0333 222.46 76.18V79.1H223.6C223.573 77.66 223.54 76.5533 223.5 75.78C224.007 75.9667 224.533 76.1933 225.08 76.46ZM232.56 74.16C233.613 74.2267 234.293 74.3267 234.6 74.46C234.907 74.5933 235.06 74.82 235.06 75.14C235.06 75.4467 234.993 75.7067 234.86 75.92C234.727 76.1333 234.573 76.24 234.4 76.24C234.28 76.24 234.087 76.04 233.82 75.64C233.567 75.2267 233.093 74.82 232.4 74.42L232.56 74.16ZM229.02 80.64H229.5L229.78 80.18C229.833 80.0867 229.893 80.04 229.96 80.04C230.027 80.04 230.24 80.1533 230.6 80.38C230.96 80.5933 231.14 80.74 231.14 80.82C231.14 80.8867 231.093 80.96 231 81.04V82.36L231.02 83.34C231.02 83.4733 230.987 83.5733 230.92 83.64C230.867 83.6933 230.713 83.76 230.46 83.84C230.22 83.9067 230.04 83.94 229.92 83.94C229.8 83.94 229.74 83.8733 229.74 83.74V83.46H229.16V85.9H229.6L230.14 85.1C230.207 85.0067 230.267 84.96 230.32 84.96C230.387 84.96 230.58 85.14 230.9 85.5C231.233 85.86 231.4 86.0933 231.4 86.2C231.4 86.3067 231.327 86.36 231.18 86.36H227.02L226.82 86.62C226.727 86.74 226.647 86.8 226.58 86.8C226.447 86.8 226.007 86.54 225.26 86.02C225.487 85.86 225.627 85.74 225.68 85.66C225.747 85.58 225.78 85.48 225.78 85.36V79.08C225.78 78.8133 225.767 78.3933 225.74 77.82C226.167 77.9933 226.547 78.16 226.88 78.32H229.22L229.58 77.76C229.62 77.6933 229.68 77.66 229.76 77.66C229.84 77.66 230.047 77.8267 230.38 78.16C230.727 78.4933 230.9 78.7 230.9 78.78C230.9 78.86 230.813 78.9 230.64 78.9H229.02V80.64ZM226.98 80.64H227.9V78.9H226.98V80.64ZM229.74 82.88V81.22H226.98V82.88H229.74ZM228.04 83.46H226.98V85.9H228.04V83.46Z" fill="#9A764E"/>
<path d="M329.595 83.04L327.675 83.97C326.745 84.42 326.23 84.685 326.13 84.765C326.04 84.855 325.97 84.9 325.92 84.9C325.87 84.9 325.82 84.865 325.77 84.795C325.73 84.725 325.55 84.31 325.23 83.55C326.52 83.31 328.035 82.97 329.775 82.53C330.035 81.73 330.21 80.705 330.3 79.455C330.39 78.195 330.435 77.125 330.435 76.245C330.435 75.365 330.415 74.555 330.375 73.815C330.955 74.035 331.405 74.26 331.725 74.49H333.33C333.26 74.41 333.215 74.32 333.195 74.22C333.125 73.88 333.02 73.62 332.88 73.44C332.75 73.25 332.55 73.035 332.28 72.795L332.4 72.525C333.12 72.725 333.655 72.945 334.005 73.185C334.355 73.415 334.53 73.645 334.53 73.875C334.53 74.095 334.415 74.3 334.185 74.49H335.745L336.105 73.98C336.165 73.89 336.235 73.845 336.315 73.845C336.405 73.845 336.59 73.925 336.87 74.085C337.15 74.245 337.365 74.375 337.515 74.475C337.675 74.565 337.755 74.66 337.755 74.76C337.755 74.85 337.565 74.985 337.185 75.165V77.04L337.215 77.775C337.215 77.855 337.18 77.92 337.11 77.97C337.05 78.01 336.88 78.075 336.6 78.165C336.32 78.245 336.125 78.285 336.015 78.285C335.955 78.285 335.925 78.235 335.925 78.135V77.49H331.545C331.505 78.04 331.47 78.47 331.44 78.78C331.66 78.89 331.88 79.035 332.1 79.215H336.225L336.495 78.795C336.565 78.685 336.655 78.63 336.765 78.63C336.885 78.63 337.15 78.76 337.56 79.02C337.98 79.27 338.19 79.44 338.19 79.53C338.19 79.63 337.995 79.775 337.605 79.965V84.795C337.605 85.335 337.55 85.695 337.44 85.875C337.33 86.055 337.1 86.23 336.75 86.4C336.41 86.57 336.185 86.655 336.075 86.655C335.975 86.655 335.91 86.56 335.88 86.37C335.83 86.09 335.71 85.87 335.52 85.71C335.34 85.55 334.985 85.385 334.455 85.215V84.9C335.175 85 335.655 85.05 335.895 85.05C336.145 85.05 336.295 85.02 336.345 84.96C336.405 84.91 336.435 84.82 336.435 84.69V82.185H335.64V82.845L335.655 84.075C335.655 84.175 335.63 84.25 335.58 84.3C335.54 84.36 335.415 84.425 335.205 84.495C334.995 84.575 334.855 84.615 334.785 84.615C334.715 84.615 334.68 84.55 334.68 84.42L334.695 82.875V82.185H333.855V83.445L333.885 84.645C333.885 84.785 333.865 84.875 333.825 84.915C333.795 84.955 333.66 85.025 333.42 85.125C333.18 85.225 333.035 85.275 332.985 85.275C332.935 85.275 332.91 85.205 332.91 85.065L332.925 83.445V82.185H332.07V85.56C332.07 85.69 332.035 85.785 331.965 85.845C331.895 85.905 331.755 85.97 331.545 86.04C331.345 86.12 331.205 86.16 331.125 86.16C331.045 86.16 331.005 86.1 331.005 85.98L331.02 85.35C331.04 84.91 331.05 84.495 331.05 84.105V81.42C330.87 82.31 330.6 83.05 330.24 83.64C329.89 84.23 329.26 85.05 328.35 86.1L328.155 85.875C328.845 84.765 329.325 83.82 329.595 83.04ZM335.925 77.025V74.955H331.65C331.6 76.325 331.575 77.015 331.575 77.025H335.925ZM334.695 79.71H333.855V81.66H334.695V79.71ZM336.435 81.66V79.71H335.64V81.66H336.435ZM332.07 79.71V81.66H332.925V79.71H332.07ZM327.72 78.195C326.97 78.375 326.215 78.65 325.455 79.02C325.405 79.04 325.355 79.05 325.305 79.05C325.265 79.05 325.225 79.02 325.185 78.96C325.145 78.89 325.075 78.745 324.975 78.525C324.875 78.295 324.795 78.085 324.735 77.895C325.095 77.805 325.345 77.66 325.485 77.46C325.625 77.26 325.88 76.755 326.25 75.945C326.62 75.125 327.005 74.105 327.405 72.885C327.735 73.015 328.105 73.19 328.515 73.41C328.925 73.63 329.13 73.785 329.13 73.875C329.13 73.965 329.055 74.02 328.905 74.04C328.765 74.05 328.635 74.105 328.515 74.205C328.395 74.295 328.3 74.4 328.23 74.52C328.01 74.89 327.66 75.445 327.18 76.185C326.7 76.915 326.325 77.46 326.055 77.82L328.02 77.655L328.905 75.945C329.785 76.415 330.225 76.73 330.225 76.89C330.225 76.96 330.15 77.005 330 77.025C329.86 77.045 329.635 77.275 329.325 77.715L327.03 80.625L329.745 80.58L329.775 80.91C328.315 81.26 327.41 81.48 327.06 81.57C326.72 81.66 326.465 81.75 326.295 81.84C326.135 81.92 326.035 81.96 325.995 81.96C325.955 81.96 325.925 81.945 325.905 81.915C325.885 81.885 325.83 81.755 325.74 81.525L325.455 80.79C325.965 80.67 326.345 80.435 326.595 80.085C326.845 79.725 327.22 79.095 327.72 78.195ZM342.265 75.915H341.62C341.28 75.915 341.03 75.945 340.87 76.005L340.6 75.39C340.81 75.44 341.06 75.465 341.35 75.465H342.4C342.77 74.195 342.995 73.265 343.075 72.675C343.495 72.785 343.895 72.92 344.275 73.08C344.655 73.23 344.845 73.35 344.845 73.44C344.845 73.49 344.745 73.545 344.545 73.605C344.355 73.665 344.205 73.86 344.095 74.19C343.995 74.52 343.85 74.945 343.66 75.465H344.83L345.385 74.805C345.455 74.725 345.535 74.685 345.625 74.685C345.715 74.685 345.925 74.865 346.255 75.225C346.595 75.575 346.765 75.78 346.765 75.84C346.765 75.89 346.66 75.915 346.45 75.915H343.51L342.235 79.29H343.6V78.06C343.6 77.6 343.585 77.165 343.555 76.755C344.095 76.855 344.485 76.95 344.725 77.04C344.965 77.12 345.085 77.18 345.085 77.22C345.085 77.28 344.965 77.39 344.725 77.55V79.29H345.085L345.52 78.78C345.59 78.7 345.665 78.66 345.745 78.66C345.835 78.66 346.005 78.79 346.255 79.05C346.505 79.31 346.63 79.485 346.63 79.575C346.63 79.665 346.525 79.71 346.315 79.71H344.725V81.36L346.96 80.955L347.02 81.24L344.725 81.99V85.665C344.725 85.815 344.7 85.915 344.65 85.965C344.6 86.015 344.435 86.095 344.155 86.205C343.875 86.315 343.705 86.37 343.645 86.37C343.585 86.37 343.555 86.33 343.555 86.25C343.555 86.18 343.56 85.955 343.57 85.575C343.59 85.205 343.6 84.75 343.6 84.21V82.35C342.27 82.79 341.505 83.085 341.305 83.235C341.235 83.285 341.185 83.31 341.155 83.31C341.115 83.31 341.04 83.23 340.93 83.07C340.82 82.9 340.65 82.56 340.42 82.05C341.4 81.94 342.46 81.775 343.6 81.555V79.71H342.31L342.07 80.13C342.01 80.2 341.94 80.235 341.86 80.235C341.78 80.235 341.615 80.18 341.365 80.07C341.115 79.95 340.88 79.8 340.66 79.62C340.87 79.48 341.02 79.335 341.11 79.185C341.21 79.035 341.37 78.645 341.59 78.015C341.82 77.375 342.045 76.675 342.265 75.915ZM348.625 73.635H351.25L351.655 73.02C351.715 72.93 351.77 72.885 351.82 72.885C351.88 72.885 352.025 72.965 352.255 73.125C352.485 73.285 352.685 73.44 352.855 73.59C353.035 73.73 353.125 73.815 353.125 73.845C353.125 73.915 352.9 74.08 352.45 74.34V75.765L352.48 76.65C352.48 76.73 352.455 76.795 352.405 76.845C352.355 76.885 352.185 76.955 351.895 77.055C351.615 77.145 351.435 77.19 351.355 77.19C351.285 77.19 351.25 77.12 351.25 76.98V76.41H348.43V76.68C348.43 76.8 348.385 76.895 348.295 76.965C348.205 77.035 348.04 77.11 347.8 77.19C347.56 77.26 347.38 77.295 347.26 77.295C347.21 77.295 347.185 77.26 347.185 77.19L347.2 76.725C347.21 76.555 347.215 76.315 347.215 76.005V74.265C347.215 73.865 347.2 73.45 347.17 73.02C347.73 73.2 348.215 73.405 348.625 73.635ZM351.25 75.975V74.07H348.43V75.975H351.25ZM347.215 78.15H346.18C345.96 78.15 345.785 78.175 345.655 78.225L345.34 77.655C345.5 77.705 345.7 77.73 345.94 77.73H352.765L353.26 77.1C353.34 76.99 353.41 76.935 353.47 76.935C353.53 76.935 353.755 77.11 354.145 77.46C354.545 77.81 354.745 78.015 354.745 78.075C354.745 78.125 354.66 78.15 354.49 78.15H352.51V83.13L352.915 83.115L353.35 82.425C353.41 82.325 353.465 82.275 353.515 82.275C353.585 82.275 353.805 82.45 354.175 82.8C354.545 83.15 354.73 83.35 354.73 83.4C354.73 83.45 354.71 83.48 354.67 83.49C354.64 83.49 354.55 83.495 354.4 83.505L352.51 83.595V83.97C352.51 84.5 352.52 84.91 352.54 85.2C352.56 85.5 352.57 85.685 352.57 85.755C352.57 85.835 352.54 85.905 352.48 85.965C352.43 86.025 352.245 86.115 351.925 86.235C351.615 86.365 351.415 86.43 351.325 86.43C351.245 86.43 351.205 86.35 351.205 86.19V83.655L345.985 83.895C345.755 83.895 345.56 83.95 345.4 84.06L345.04 83.43C345.16 83.46 345.33 83.47 345.55 83.46L347.215 83.385V78.15ZM351.205 78.15H348.415V79.575H351.205V78.15ZM348.415 79.98V81.27H351.205V79.98H348.415ZM348.415 81.675V83.325L351.205 83.19V81.675H348.415Z" fill="#9A764E"/>
</g>
<defs>
<filter id="filter0_d_1104_287" x="0" y="0" width="398" height="852" filterUnits="userSpaceOnUse" color-interpolation-filters="sRGB">
<feFlood flood-opacity="0" result="BackgroundImageFix"/>
<feColorMatrix in="SourceAlpha" type="matrix" values="0 0 0 0 0 0 0 0 0 0 0 0 0 0 0 0 0 0 127 0" result="hardAlpha"/>
<feOffset dy="4"/>
<feGaussianBlur stdDeviation="2"/>
<feComposite in2="hardAlpha" operator="out"/>
<feColorMatrix type="matrix" values="0 0 0 0 0 0 0 0 0 0 0 0 0 0 0 0 0 0 0.25 0"/>
<feBlend mode="normal" in2="BackgroundImageFix" result="effect1_dropShadow_1104_287"/>
<feBlend mode="normal" in="SourceGraphic" in2="effect1_dropShadow_1104_287" result="shape"/>
</filter>
<clipPath id="clip0_1104_287">
<rect width="390" height="844" fill="white" transform="translate(4)"/>
</clipPath>
</defs>
</svg>
