<svg width="398" height="852" viewBox="0 0 398 852" fill="none" xmlns="http://www.w3.org/2000/svg">
<g clip-path="url(#clip0_1104_83)" filter="url(#filter0_d_1104_83)">
<rect width="390" height="844" transform="translate(4)" fill="#F4F2E5"/>
<path d="M58.6904 28.0628C57.8327 28.0628 57.0662 28.2454 56.3911 28.6106C55.7215 28.9703 55.1958 29.4684 54.814 30.1048C54.4377 30.7356 54.2495 31.4578 54.2495 32.2713V32.2879C54.2495 33.0405 54.4155 33.7156 54.7476 34.3133C55.0851 34.9109 55.5472 35.3813 56.1338 35.7244C56.7204 36.0675 57.3955 36.239 58.1592 36.239C58.7126 36.239 59.194 36.156 59.6035 35.99C60.0186 35.824 60.3672 35.6054 60.6494 35.3343C60.9316 35.0631 61.1447 34.7698 61.2886 34.4544H61.5791V32.2464H61.0811V32.263C61.0811 32.7112 60.9759 33.1124 60.7656 33.4666C60.5553 33.8207 60.2703 34.0974 59.9106 34.2967C59.5509 34.4959 59.1442 34.5955 58.6904 34.5955C58.2367 34.5955 57.8327 34.4931 57.4785 34.2884C57.1243 34.0836 56.8449 33.8041 56.6401 33.45C56.4354 33.0903 56.333 32.678 56.333 32.2132V32.1966C56.333 31.7483 56.4409 31.3443 56.6567 30.9846C56.8726 30.6194 57.1603 30.3316 57.52 30.1214C57.8797 29.9111 58.2754 29.8059 58.707 29.8059C59.1553 29.8059 59.5565 29.9138 59.9106 30.1297C60.2703 30.3455 60.5553 30.6388 60.7656 31.0095C60.9759 31.3803 61.0811 31.7926 61.0811 32.2464L61.4546 34.2468C61.4546 34.3243 61.4546 34.4046 61.4546 34.4876C61.4546 34.565 61.4518 34.6453 61.4463 34.7283C61.4186 35.492 61.3024 36.1892 61.0977 36.8201C60.8984 37.4454 60.5968 37.9462 60.1929 38.3225C59.7944 38.6933 59.2798 38.8787 58.6489 38.8787C58.3003 38.8787 57.9849 38.8233 57.7026 38.7127C57.4259 38.5965 57.188 38.4332 56.9888 38.2229C56.7951 38.0126 56.6457 37.7691 56.5405 37.4925L56.5073 37.4094H54.4072L54.4238 37.5008C54.5566 38.1095 54.814 38.6518 55.1958 39.1277C55.5832 39.5981 56.0701 39.9689 56.6567 40.24C57.2489 40.5056 57.9129 40.6385 58.6489 40.6385C59.6506 40.6385 60.5111 40.3839 61.2305 39.8748C61.9554 39.3601 62.5116 38.6241 62.8989 37.6668C63.2863 36.7094 63.48 35.5584 63.48 34.2136V34.197C63.48 33.1124 63.3527 32.1855 63.0981 31.4163C62.8436 30.6415 62.4922 30.0079 62.0439 29.5154C61.6012 29.0174 61.0921 28.6521 60.5166 28.4197C59.9411 28.1817 59.3324 28.0628 58.6904 28.0628ZM67.2485 38.7293C67.6304 38.7293 67.9458 38.6048 68.1948 38.3557C68.4438 38.1012 68.5684 37.7913 68.5684 37.426C68.5684 37.0553 68.4438 36.7454 68.1948 36.4964C67.9458 36.2418 67.6304 36.1145 67.2485 36.1145C66.8722 36.1145 66.5568 36.2418 66.3022 36.4964C66.0532 36.7454 65.9287 37.0553 65.9287 37.426C65.9287 37.7913 66.0532 38.1012 66.3022 38.3557C66.5568 38.6048 66.8722 38.7293 67.2485 38.7293ZM67.2485 32.5701C67.6304 32.5701 67.9458 32.4456 68.1948 32.1966C68.4438 31.942 68.5684 31.6321 68.5684 31.2669C68.5684 30.8961 68.4438 30.5862 68.1948 30.3372C67.9458 30.0826 67.6304 29.9553 67.2485 29.9553C66.8722 29.9553 66.5568 30.0826 66.3022 30.3372C66.0532 30.5862 65.9287 30.8961 65.9287 31.2669C65.9287 31.6321 66.0532 31.942 66.3022 32.1966C66.5568 32.4456 66.8722 32.5701 67.2485 32.5701ZM76.8276 40.3396H78.8696V38.0403H80.4883V36.2722H78.8696V28.3616H75.8564C75.5244 28.8541 75.1924 29.3605 74.8604 29.8806C74.5339 30.3953 74.2046 30.9182 73.8726 31.4495C73.5461 31.9752 73.2168 32.5092 72.8848 33.0515C72.5583 33.5883 72.2345 34.1279 71.9136 34.6702C71.5981 35.2125 71.2827 35.7521 70.9673 36.2888V38.0403H76.8276V40.3396ZM72.9595 36.322V36.1975C73.1919 35.788 73.4326 35.3758 73.6816 34.9607C73.9307 34.5401 74.1825 34.1223 74.437 33.7073C74.6916 33.2867 74.9489 32.8689 75.209 32.4539C75.4691 32.0388 75.7264 31.6321 75.981 31.2337C76.241 30.8352 76.4928 30.4479 76.7363 30.0716H76.8608V36.322H72.9595ZM85.4438 40.3396H87.5771V28.3616H85.4438L82.3145 30.5613V32.5701L85.2944 30.47H85.4438V40.3396Z" fill="black"/>
<rect opacity="0.35" x="335" y="28.5" width="24" height="12" rx="3.8" stroke="black"/>
<path opacity="0.4" d="M360.5 32.7811V36.8566C361.305 36.5114 361.828 35.7085 361.828 34.8189C361.828 33.9293 361.305 33.1263 360.5 32.7811Z" fill="black"/>
<rect x="336.5" y="30" width="21" height="9" rx="2.5" fill="black"/>
<path fill-rule="evenodd" clip-rule="evenodd" d="M318.771 31.104C321.258 31.1041 323.65 32.0262 325.452 33.6797C325.588 33.8074 325.805 33.8058 325.939 33.6761L327.236 32.4126C327.304 32.3469 327.341 32.2578 327.341 32.1651C327.34 32.0724 327.302 31.9838 327.233 31.9188C322.502 27.5441 315.038 27.5441 310.307 31.9188C310.239 31.9837 310.2 32.0724 310.199 32.165C310.199 32.2577 310.236 32.3468 310.304 32.4126L311.602 33.6761C311.735 33.8059 311.952 33.8076 312.088 33.6797C313.891 32.0261 316.283 31.104 318.771 31.104ZM318.767 35.3243C320.124 35.3242 321.433 35.836 322.439 36.7601C322.576 36.8913 322.79 36.8884 322.923 36.7537L324.21 35.4344C324.278 35.3652 324.315 35.2713 324.314 35.1738C324.313 35.0762 324.274 34.9831 324.205 34.9153C321.141 32.0245 316.396 32.0245 313.332 34.9153C313.263 34.9831 313.224 35.0762 313.223 35.1738C313.222 35.2714 313.26 35.3653 313.327 35.4344L314.614 36.7537C314.747 36.8884 314.961 36.8913 315.097 36.7601C316.103 35.8366 317.411 35.3249 318.767 35.3243ZM321.292 38.1179C321.294 38.2232 321.256 38.3248 321.189 38.3986L319.012 40.8533C318.949 40.9255 318.862 40.9661 318.771 40.9661C318.68 40.9661 318.593 40.9255 318.529 40.8533L316.352 38.3986C316.285 38.3247 316.248 38.2231 316.25 38.1178C316.252 38.0124 316.293 37.9127 316.363 37.842C317.753 36.5282 319.789 36.5282 321.179 37.842C321.249 37.9127 321.29 38.0125 321.292 38.1179Z" fill="black"/>
<path fill-rule="evenodd" clip-rule="evenodd" d="M302.7 29.6821C302.7 29.049 302.222 28.5358 301.633 28.5358H300.567C299.978 28.5358 299.5 29.049 299.5 29.6821V39.616C299.5 40.2491 299.978 40.7622 300.567 40.7622H301.633C302.222 40.7622 302.7 40.2491 302.7 39.616V29.6821ZM295.266 30.9811H296.333C296.922 30.9811 297.399 31.5066 297.399 32.1548V39.5885C297.399 40.2367 296.922 40.7622 296.333 40.7622H295.266C294.677 40.7622 294.199 40.2367 294.199 39.5885V32.1548C294.199 31.5066 294.677 30.9811 295.266 30.9811ZM290.934 33.6302H289.867C289.278 33.6302 288.801 34.1623 288.801 34.8188V39.5736C288.801 40.23 289.278 40.7622 289.867 40.7622H290.934C291.523 40.7622 292.001 40.23 292.001 39.5736V34.8188C292.001 34.1623 291.523 33.6302 290.934 33.6302ZM285.633 36.0755H284.567C283.978 36.0755 283.5 36.6 283.5 37.2471V39.5905C283.5 40.2377 283.978 40.7622 284.567 40.7622H285.633C286.222 40.7622 286.7 40.2377 286.7 39.5905V37.2471C286.7 36.6 286.222 36.0755 285.633 36.0755Z" fill="black"/>
<path d="M157.56 73.06C155.507 76.5 152.3 79.1733 147.94 81.08L147.76 80.72C151.853 78.2267 154.74 74.8867 156.42 70.7C158.033 71.38 158.84 71.8267 158.84 72.04C158.84 72.1333 158.713 72.1933 158.46 72.22C158.207 72.2467 158.027 72.34 157.92 72.5C158.627 73.9267 159.76 75.18 161.32 76.26C162.893 77.3267 164.68 78.08 166.68 78.52L166.64 79C165.813 78.9867 165.247 79.0467 164.94 79.18C164.633 79.3 164.333 79.56 164.04 79.96C163.973 80.0533 163.887 80.1 163.78 80.1C163.527 80.1 162.607 79.4467 161.02 78.14C159.447 76.8333 158.293 75.14 157.56 73.06ZM156.1 76.36C156.9 76.4533 157.5 76.5733 157.9 76.72C158.3 76.8533 158.5 76.96 158.5 77.04C158.5 77.1333 158.32 77.2667 157.96 77.44V86.52C157.96 86.96 157.973 87.4267 158 87.92L158.02 88.6C158.02 88.7067 157.953 88.8067 157.82 88.9C157.7 88.9933 157.453 89.1 157.08 89.22C156.707 89.34 156.42 89.4 156.22 89.4C156.127 89.4 156.08 89.3 156.08 89.1L156.12 88.32C156.133 87.7867 156.14 87.1867 156.14 86.52V78.14C156.14 77.4733 156.127 76.88 156.1 76.36ZM173.44 75.48C174.493 75.72 175.187 75.9333 175.52 76.12C175.853 76.2933 176.02 76.5467 176.02 76.88C176.02 77.2 175.947 77.5133 175.8 77.82C175.653 78.1133 175.46 78.26 175.22 78.26C174.993 78.26 174.8 78.0667 174.64 77.68C174.32 76.88 173.92 76.3267 173.44 76.02V88.32C173.44 88.4533 173.38 88.56 173.26 88.64C173.14 88.72 172.88 88.8267 172.48 88.96C172.093 89.1067 171.86 89.18 171.78 89.18C171.7 89.18 171.66 89.14 171.66 89.06C171.66 88.98 171.667 88.74 171.68 88.34C171.707 87.9533 171.72 87.2733 171.72 86.3V72.66C171.72 71.9933 171.707 71.4 171.68 70.88C172.24 71.0133 172.753 71.1533 173.22 71.3C173.7 71.4467 173.973 71.54 174.04 71.58C174.12 71.62 174.16 71.66 174.16 71.7C174.16 71.8067 173.92 71.9867 173.44 72.24V75.48ZM180.28 82.28H176.98C176.62 82.28 176.34 82.3267 176.14 82.42L175.76 81.6C176.04 81.6667 176.373 81.7 176.76 81.7H180.28V77.32H177.62C176.927 79.2133 176.033 80.96 174.94 82.56L174.54 82.36C175.767 79.5867 176.553 76.3867 176.9 72.76C177.687 73.0267 178.267 73.26 178.64 73.46C179.013 73.6467 179.2 73.7733 179.2 73.84C179.2 73.9067 179.12 73.96 178.96 74C178.813 74.04 178.7 74.1067 178.62 74.2C178.54 74.28 178.42 74.6133 178.26 75.2C178.113 75.7867 177.967 76.3067 177.82 76.76H180.28V72.78C180.28 71.7533 180.267 71.1267 180.24 70.9C180.813 70.98 181.313 71.08 181.74 71.2C182.167 71.32 182.427 71.4067 182.52 71.46C182.613 71.5133 182.66 71.5667 182.66 71.62C182.66 71.7267 182.46 71.88 182.06 72.08V76.76H183.7L184.46 75.58C184.607 75.34 184.733 75.22 184.84 75.22C184.96 75.22 185.193 75.38 185.54 75.7L186.48 76.6C186.76 76.8667 186.9 77.0533 186.9 77.16C186.9 77.2667 186.787 77.32 186.56 77.32H182.06V81.7H183.56L184.38 80.54C184.527 80.34 184.66 80.24 184.78 80.24C184.9 80.24 185.227 80.5067 185.76 81.04C186.293 81.5733 186.56 81.9133 186.56 82.06C186.56 82.2067 186.433 82.28 186.18 82.28H182.06V87.22H184.46L185.38 86.08C185.54 85.88 185.667 85.78 185.76 85.78C185.853 85.78 185.973 85.8467 186.12 85.98C186.267 86.1133 186.507 86.34 186.84 86.66C187.173 86.9933 187.393 87.2267 187.5 87.36C187.62 87.5067 187.68 87.62 187.68 87.7C187.68 87.7933 187.553 87.84 187.3 87.84H175.76C175.4 87.84 175.12 87.8867 174.92 87.98L174.58 87.12C174.86 87.1867 175.193 87.22 175.58 87.22H180.28V82.28ZM170.46 75.4C170.727 76.5733 170.86 77.5867 170.86 78.44C170.86 79.28 170.693 79.8733 170.36 80.22C170.027 80.5533 169.673 80.72 169.3 80.72C169.087 80.72 168.9 80.6467 168.74 80.5C168.593 80.34 168.52 80.1933 168.52 80.06C168.52 79.9133 168.693 79.62 169.04 79.18C169.387 78.74 169.627 78.22 169.76 77.62C169.893 77.02 169.94 76.2867 169.9 75.42L170.46 75.4ZM193.76 78.36C192.587 79.9467 191.247 81.3333 189.74 82.52L189.48 82.22C190.907 80.5533 192.08 78.8133 193 77C193.933 75.1867 194.693 73.0933 195.28 70.72C196.16 71.12 196.793 71.4533 197.18 71.72C197.567 71.9867 197.76 72.1733 197.76 72.28C197.76 72.4133 197.58 72.5067 197.22 72.56C197.06 72.5867 196.92 72.6867 196.8 72.86C196.68 73.0333 196.467 73.48 196.16 74.2C195.853 74.9067 195.48 75.64 195.04 76.4C195.587 76.5867 195.86 76.7333 195.86 76.84C195.86 76.9467 195.733 77.0867 195.48 77.26V88.38C195.48 88.5 195.413 88.6067 195.28 88.7C195.16 88.7933 194.907 88.9133 194.52 89.06C194.133 89.2067 193.893 89.28 193.8 89.28C193.707 89.28 193.66 89.2133 193.66 89.08L193.7 87.66C193.74 86.7 193.76 85.6067 193.76 84.38V78.36ZM201.82 80.94V85.88C201.82 86.2133 201.9 86.4267 202.06 86.52C202.233 86.6267 202.82 86.68 203.82 86.68C204.833 86.68 205.48 86.6 205.76 86.44C206.053 86.28 206.26 85.9267 206.38 85.38C206.5 84.82 206.647 83.7067 206.82 82.04H207.24C207.227 82.5467 207.22 82.9933 207.22 83.38C207.22 84.38 207.273 85.0667 207.38 85.44C207.487 85.8 207.667 86.0467 207.92 86.18C208.173 86.3133 208.3 86.4267 208.3 86.52C208.3 86.6133 208.207 86.8133 208.02 87.12C207.847 87.44 207.66 87.6867 207.46 87.86C207.26 88.0467 207.047 88.1667 206.82 88.22C206.607 88.2733 206.113 88.32 205.34 88.36C204.567 88.4133 203.76 88.44 202.92 88.44C202.08 88.44 201.453 88.3667 201.04 88.22C200.64 88.0867 200.36 87.8333 200.2 87.46C200.04 87.1 199.96 86.5733 199.96 85.88V82.12C198.813 82.7733 197.407 83.4333 195.74 84.1L195.64 83.66C197.253 82.7533 198.693 81.8267 199.96 80.88V73.48C199.96 72.4 199.94 71.5267 199.9 70.86C201.767 71.4333 202.7 71.8333 202.7 72.06C202.7 72.1667 202.407 72.3533 201.82 72.62V79.28C203.207 77.96 204.593 76.1733 205.98 73.92C206.46 74.4 206.867 74.88 207.2 75.36C207.533 75.8267 207.7 76.12 207.7 76.24C207.7 76.3467 207.653 76.4 207.56 76.4C207.467 76.4 207.38 76.3933 207.3 76.38C207.22 76.3533 207.133 76.34 207.04 76.34C206.947 76.34 206.807 76.4267 206.62 76.6C206.433 76.76 206.14 77.0467 205.74 77.46C204.353 78.9 203.047 80.06 201.82 80.94ZM213.66 75.9H211.88C211.547 75.9 211.26 75.9333 211.02 76L210.68 75.22C210.96 75.2867 211.293 75.32 211.68 75.32H213.66V73.2C213.66 72.4267 213.647 71.7067 213.62 71.04C214.633 71.24 215.267 71.3933 215.52 71.5C215.787 71.6067 215.92 71.7067 215.92 71.8C215.92 71.9333 215.707 72.1 215.28 72.3V75.32H215.78L216.6 74.28C216.733 74.1067 216.847 74.02 216.94 74.02C217.047 74.02 217.313 74.2733 217.74 74.78C218.167 75.2733 218.38 75.6 218.38 75.76C219.54 74.0667 220.44 72.4067 221.08 70.78C221.64 70.9933 222.14 71.22 222.58 71.46C223.033 71.7 223.26 71.86 223.26 71.94C223.26 72.02 223.153 72.0667 222.94 72.08C222.74 72.0933 222.533 72.2533 222.32 72.56C222.12 72.8667 221.807 73.3 221.38 73.86H223.66L224.26 73.2C224.34 73.1067 224.413 73.06 224.48 73.06C224.56 73.06 224.913 73.2467 225.54 73.62C226.18 73.98 226.5 74.2267 226.5 74.36C226.5 74.4933 226.36 74.58 226.08 74.62C225.8 74.66 225.527 74.7733 225.26 74.96C224.993 75.1333 224.62 75.4333 224.14 75.86C223.673 76.2867 223.24 76.7267 222.84 77.18H225.12L225.64 76.42C225.72 76.3133 225.8 76.26 225.88 76.26C225.973 76.26 226.193 76.3867 226.54 76.64L227.42 77.24C227.647 77.3867 227.76 77.5267 227.76 77.66C227.76 77.7933 227.467 77.9867 226.88 78.24V82.28H227.04L227.7 81.42C227.807 81.2867 227.9 81.22 227.98 81.22C228.06 81.22 228.287 81.4267 228.66 81.84C229.047 82.2533 229.24 82.5333 229.24 82.68C229.24 82.7733 229.113 82.82 228.86 82.82H223.6C224.48 85.1267 226.327 86.7 229.14 87.54V87.92C228.313 87.92 227.593 88.2067 226.98 88.78C226.887 88.8733 226.813 88.92 226.76 88.92C226.6 88.92 226.033 88.3867 225.06 87.32C224.1 86.2667 223.427 84.7667 223.04 82.82H222.62C222.22 84.42 221.453 85.7 220.32 86.66C219.187 87.62 217.393 88.4867 214.94 89.26L214.86 88.9C216.633 88.1 218.007 87.22 218.98 86.26C219.953 85.3 220.64 84.1533 221.04 82.82H216.78C216.5 82.82 216.293 82.86 216.16 82.94L215.94 82.18C216.127 82.2467 216.367 82.28 216.66 82.28H218.14V77.3C217.687 77.74 217.193 78.1733 216.66 78.6L216.36 78.34C217.2 77.4067 217.853 76.5933 218.32 75.9H215.28V79.26L217.8 78.4L217.96 78.74L215.28 80.14V87.2C215.28 87.68 215.007 88.1 214.46 88.46C213.913 88.8333 213.5 89.02 213.22 89.02C213.073 89.02 212.96 88.9067 212.88 88.68C212.773 88.3467 212.527 88.08 212.14 87.88C211.753 87.6933 211.273 87.52 210.7 87.36L210.72 86.98C211.587 87.0733 212.207 87.12 212.58 87.12C212.967 87.12 213.24 87.08 213.4 87C213.573 86.9333 213.66 86.7533 213.66 86.46V80.98C212.713 81.5267 212.027 81.9867 211.6 82.36C211.507 82.44 211.42 82.48 211.34 82.48C211.273 82.48 211.18 82.4 211.06 82.24C210.953 82.0667 210.68 81.5867 210.24 80.8C211.2 80.56 212.34 80.2267 213.66 79.8V75.9ZM220.96 74.38C220.44 75.0467 219.713 75.82 218.78 76.7C219.233 76.86 219.593 77.02 219.86 77.18H222.06C222.673 76.1 223.153 75.1667 223.5 74.38H220.96ZM221.58 77.72H219.64V82.28H221.18C221.473 81.04 221.607 79.52 221.58 77.72ZM225.24 82.28V77.72H223.18C223.14 79.64 222.993 81.16 222.74 82.28H225.24ZM244.96 75.76C244.893 77.0533 244.82 78.26 244.74 79.38H247.16L248.02 78.2C248.087 78.1067 248.167 78.06 248.26 78.06C248.353 78.06 248.507 78.1467 248.72 78.32C248.947 78.48 249.187 78.6867 249.44 78.94C249.707 79.18 249.9 79.3667 250.02 79.5C250.14 79.6333 250.2 79.7533 250.2 79.86C250.2 79.9533 250.107 80 249.92 80H245.3C245.7 81.9733 246.327 83.5267 247.18 84.66C248.033 85.78 249.173 86.5867 250.6 87.08L250.56 87.56C250.267 87.52 249.967 87.5 249.66 87.5C249.367 87.5 249.1 87.56 248.86 87.68C248.633 87.8133 248.42 88.04 248.22 88.36C248.153 88.4667 248.073 88.52 247.98 88.52C247.74 88.52 247.193 87.8067 246.34 86.38C245.487 84.9667 244.987 82.84 244.84 80H244.7C244.5 82.16 243.947 83.94 243.04 85.34C242.147 86.7267 240.727 88 238.78 89.16L238.56 88.82C239.96 87.7533 241.013 86.56 241.72 85.24C242.44 83.9067 242.9 82.16 243.1 80H240.36C240.093 80 239.88 80.0467 239.72 80.14L239.44 79.28C239.653 79.3467 239.913 79.38 240.22 79.38H243.14C243.247 78.0333 243.307 76.8267 243.32 75.76H240.86C240.58 75.76 240.36 75.8067 240.2 75.9L239.92 75.04C240.147 75.1067 240.407 75.14 240.7 75.14H243.32C243.333 74.0733 243.307 72.66 243.24 70.9C243.907 71.0733 244.467 71.24 244.92 71.4C245.387 71.56 245.66 71.6667 245.74 71.72C245.82 71.7733 245.86 71.8333 245.86 71.9C245.86 71.9533 245.767 72.0133 245.58 72.08C245.26 72.1867 245.093 72.4067 245.08 72.74L245 75.14H246.52L247.18 74.06C247.26 73.9133 247.34 73.84 247.42 73.84C247.54 73.84 247.873 74.1067 248.42 74.64C248.98 75.16 249.26 75.48 249.26 75.6C249.26 75.7067 249.167 75.76 248.98 75.76H244.96ZM235.56 72.52H237.56L238.02 71.76C238.087 71.64 238.153 71.58 238.22 71.58C238.287 71.58 238.54 71.7333 238.98 72.04C239.433 72.3467 239.747 72.5667 239.92 72.7C240.093 72.8333 240.18 72.9333 240.18 73C240.18 73.12 239.873 73.32 239.26 73.6V85.88C239.26 86.5867 239.213 87.0733 239.12 87.34C239.027 87.62 238.753 87.9 238.3 88.18C237.847 88.46 237.547 88.6 237.4 88.6C237.32 88.6 237.253 88.4933 237.2 88.28C237.107 87.8667 236.927 87.5467 236.66 87.32C236.407 87.0933 235.9 86.8533 235.14 86.6L235.22 86.24C236.1 86.3867 236.673 86.46 236.94 86.46C237.207 86.46 237.4 86.4267 237.52 86.36C237.64 86.2933 237.7 86.12 237.7 85.84V81.3H235.34C235.247 83.1 234.953 84.58 234.46 85.74C233.98 86.8867 233.16 88.08 232 89.32L231.7 89.06C232.793 87.4333 233.433 85.66 233.62 83.74C233.807 81.82 233.9 79.3467 233.9 76.32C233.9 74.84 233.873 73.2667 233.82 71.6C234.5 71.92 235.08 72.2267 235.56 72.52ZM235.48 76.5H237.7V73.12H235.5C235.5 74.6533 235.493 75.78 235.48 76.5ZM237.7 77.22H235.46L235.36 80.7H237.7V77.22Z" fill="#9A764E"/>
</g>
<defs>
<filter id="filter0_d_1104_83" x="0" y="0" width="398" height="852" filterUnits="userSpaceOnUse" color-interpolation-filters="sRGB">
<feFlood flood-opacity="0" result="BackgroundImageFix"/>
<feColorMatrix in="SourceAlpha" type="matrix" values="0 0 0 0 0 0 0 0 0 0 0 0 0 0 0 0 0 0 127 0" result="hardAlpha"/>
<feOffset dy="4"/>
<feGaussianBlur stdDeviation="2"/>
<feComposite in2="hardAlpha" operator="out"/>
<feColorMatrix type="matrix" values="0 0 0 0 0 0 0 0 0 0 0 0 0 0 0 0 0 0 0.25 0"/>
<feBlend mode="normal" in2="BackgroundImageFix" result="effect1_dropShadow_1104_83"/>
<feBlend mode="normal" in="SourceGraphic" in2="effect1_dropShadow_1104_83" result="shape"/>
</filter>
<clipPath id="clip0_1104_83">
<rect width="390" height="844" fill="white" transform="translate(4)"/>
</clipPath>
</defs>
</svg>
