<svg width="32" height="32" viewBox="0 0 32 32" fill="none" xmlns="http://www.w3.org/2000/svg">
<path d="M19.1288 24.2162C19.2797 24.2163 19.4272 24.1721 19.5527 24.0893C19.6782 24.0066 19.776 23.8889 19.8338 23.7512C19.8915 23.6135 19.9066 23.462 19.8772 23.3159C19.8477 23.1697 19.775 23.0355 19.6683 22.9301L13.0848 16.4273L19.6683 9.92758C19.8082 9.78569 19.886 9.59507 19.8846 9.397C19.8833 9.19894 19.8031 9.00935 19.6612 8.86929C19.5194 8.72923 19.3274 8.64997 19.1269 8.64867C18.9263 8.64736 18.7333 8.72412 18.5896 8.86232L11.4666 15.8962C11.3235 16.0375 11.2432 16.2291 11.2432 16.4288C11.2432 16.6286 11.3235 16.8202 11.4666 16.9615L18.5896 23.9947C18.6602 24.0649 18.7443 24.1206 18.8368 24.1586C18.9293 24.1966 19.0285 24.2162 19.1288 24.2162Z" fill="#9A764E"/>
</svg>
