<svg width="89" height="14" viewBox="0 0 89 14" fill="none" xmlns="http://www.w3.org/2000/svg">
<path d="M6.3 1.984C6.56133 1.76933 6.87867 1.44733 7.252 1.018C7.80267 1.45667 8.078 1.74133 8.078 1.872C8.078 1.93733 8.05 1.97 7.994 1.97C7.94733 1.97 7.90067 1.96533 7.854 1.956C7.80733 1.93733 7.72333 1.928 7.602 1.928C7.49 1.928 7.364 1.97 7.224 2.054C7.09333 2.12867 6.89733 2.21267 6.636 2.306V4H6.944L7.252 3.608C7.27067 3.58933 7.28933 3.58 7.308 3.58C7.364 3.58 7.50867 3.68267 7.742 3.888C7.97533 4.09333 8.092 4.238 8.092 4.322C8.092 4.39667 8.036 4.434 7.924 4.434H6.636V6.03H8.274V1.326C8.274 0.999333 8.26467 0.584 8.246 0.0799996C8.862 0.248 9.268 0.374 9.464 0.458C9.66933 0.532666 9.772 0.593333 9.772 0.64C9.772 0.705333 9.63667 0.826666 9.366 1.004V6.03H11.242V4.434H10.178C9.99133 4.434 9.842 4.46667 9.73 4.532L9.534 3.986C9.69267 4.03267 9.87 4.056 10.066 4.056H11.242V2.292H10.178C9.982 2.292 9.83267 2.32467 9.73 2.39L9.534 1.844C9.69267 1.89067 9.87 1.914 10.066 1.914H10.934L11.298 1.368C11.3633 1.27467 11.4287 1.228 11.494 1.228C11.55 1.228 11.774 1.34467 12.166 1.578C12.558 1.81133 12.754 1.97 12.754 2.054C12.754 2.138 12.6187 2.28733 12.348 2.502V6.044L12.376 6.73C12.376 6.79533 12.334 6.86067 12.25 6.926C12.1753 6.982 12.0213 7.05667 11.788 7.15C11.564 7.234 11.4147 7.276 11.34 7.276C11.2747 7.276 11.242 7.22933 11.242 7.136V6.436H9.366V7.962H10.36L10.822 7.57C10.906 7.50467 10.9713 7.472 11.018 7.472C11.1113 7.472 11.3307 7.63067 11.676 7.948C12.0307 8.256 12.208 8.45667 12.208 8.55C12.208 8.64333 12.1147 8.69 11.928 8.69C11.7507 8.69 11.6247 8.704 11.55 8.732C11.4847 8.76 11.41 8.83467 11.326 8.956C10.8313 9.63733 10.2293 10.2627 9.52 10.832C10.668 11.4853 12.0447 11.84 13.65 11.896V12.134C13.0807 12.2273 12.7073 12.3207 12.53 12.414C12.3527 12.5073 12.166 12.7127 11.97 13.03C11.9327 13.0953 11.886 13.128 11.83 13.128C11.6993 13.128 11.2887 12.9647 10.598 12.638C9.90733 12.3113 9.268 11.9053 8.68 11.42C7.28933 12.316 5.54867 12.974 3.458 13.394L3.416 13.156C5.28267 12.5213 6.82267 11.7467 8.036 10.832C7.41067 10.1973 6.82267 9.376 6.272 8.368H5.32C5.13333 8.368 4.984 8.40067 4.872 8.466L4.676 7.892C4.83467 7.93867 5.012 7.962 5.208 7.962H8.274V6.436H6.636V6.982C6.636 7.04733 6.62667 7.094 6.608 7.122C6.58933 7.14067 6.51467 7.18267 6.384 7.248C6.26267 7.31333 6.118 7.374 5.95 7.43C5.782 7.486 5.67933 7.514 5.642 7.514C5.60467 7.514 5.586 7.46733 5.586 7.374L5.614 6.268V2.866C5.614 2.474 5.6 2.07733 5.572 1.676C5.94533 1.816 6.188 1.91867 6.3 1.984ZM8.68 10.314C9.42667 9.66067 10.0053 9.012 10.416 8.368H6.734C7.294 9.13333 7.94267 9.782 8.68 10.314ZM2.73 4.112H1.358C1.12467 4.112 0.924 4.13533 0.756 4.182L0.518 3.65C0.714 3.69667 0.947333 3.72 1.218 3.72H2.73V1.956C2.73 1.41467 2.72067 0.910666 2.702 0.444C3.49533 0.677333 3.962 0.821999 4.102 0.877999C4.25133 0.924666 4.326 0.975999 4.326 1.032C4.326 1.07867 4.172 1.19533 3.864 1.382V3.72H3.934L4.396 3.16C4.47067 3.076 4.55467 3.034 4.648 3.034C4.75067 3.034 4.91867 3.18333 5.152 3.482C5.38533 3.77133 5.502 3.94867 5.502 4.014C5.502 4.07933 5.418 4.112 5.25 4.112H3.864V6.17L5.25 5.596L5.348 5.82L3.864 6.898V11.756C3.864 12.1853 3.66333 12.5353 3.262 12.806C2.86067 13.086 2.59933 13.226 2.478 13.226C2.40333 13.226 2.34733 13.156 2.31 13.016C2.21667 12.6987 2.08133 12.47 1.904 12.33C1.72667 12.19 1.36733 12.0267 0.826 11.84L0.854 11.616C1.51667 11.7187 1.96467 11.77 2.198 11.77C2.43133 11.77 2.576 11.7327 2.632 11.658C2.69733 11.5927 2.73 11.4713 2.73 11.294V7.71C2.17 8.12067 1.81067 8.396 1.652 8.536C1.49333 8.676 1.386 8.746 1.33 8.746C1.274 8.746 1.22733 8.718 1.19 8.662C1.022 8.37267 0.760667 7.98067 0.406 7.486C0.77 7.39267 1.54467 7.108 2.73 6.632V4.112ZM22.28 6.576C20.2827 6.81867 19.0227 6.98667 18.5 7.08C18.444 7.08933 18.3927 7.094 18.346 7.094C18.3087 7.094 18.276 7.08 18.248 7.052C18.2293 7.01467 18.1873 6.90267 18.122 6.716C18.0567 6.52933 17.996 6.31467 17.94 6.072C18.472 5.97867 18.8453 5.89467 19.06 5.82C19.284 5.736 19.62 5.54467 20.068 5.246C20.516 4.938 20.9033 4.62067 21.23 4.294H17.814C17.7393 4.95667 17.5527 5.43267 17.254 5.722C16.9647 6.002 16.6427 6.142 16.288 6.142C16.0547 6.142 15.868 6.09067 15.728 5.988C15.5973 5.88533 15.532 5.75933 15.532 5.61C15.532 5.45133 15.7 5.274 16.036 5.078C16.4933 4.81667 16.8293 4.52267 17.044 4.196C17.268 3.86 17.422 3.44933 17.506 2.964L17.828 2.978C17.8467 3.398 17.8513 3.68733 17.842 3.846H21.328V2.474H17.8C17.548 2.474 17.352 2.50667 17.212 2.572L16.96 1.998C17.156 2.04467 17.3893 2.068 17.66 2.068H21.328C21.328 1.19067 21.3187 0.560666 21.3 0.177999C22.504 0.420666 23.106 0.616666 23.106 0.766C23.106 0.849999 22.9473 1.004 22.63 1.228V2.068H25.556L26.088 1.382C26.172 1.27 26.2467 1.214 26.312 1.214C26.424 1.214 26.6947 1.39133 27.124 1.746C27.5627 2.09133 27.782 2.30133 27.782 2.376C27.782 2.44133 27.6793 2.474 27.474 2.474H22.63V3.846H26.396L26.718 3.412C26.8113 3.29067 26.8907 3.23 26.956 3.23C27.0307 3.23 27.222 3.34667 27.53 3.58C27.8473 3.81333 28.0807 3.99533 28.23 4.126C28.3793 4.24733 28.454 4.364 28.454 4.476C28.454 4.588 28.328 4.65333 28.076 4.672C27.824 4.68133 27.5627 4.76533 27.292 4.924C27.0307 5.08267 26.592 5.44667 25.976 6.016L25.682 5.862C26.018 5.218 26.2607 4.69533 26.41 4.294H21.65C22.2287 4.66733 22.518 4.90067 22.518 4.994C22.518 5.05933 22.4293 5.10133 22.252 5.12C22.1493 5.13867 21.958 5.21333 21.678 5.344C21.398 5.46533 20.7027 5.74533 19.592 6.184L22.854 6.198C23.3767 5.834 23.89 5.43733 24.394 5.008C25.178 5.63333 25.57 6.00667 25.57 6.128C25.57 6.20267 25.4673 6.24933 25.262 6.268C25.066 6.27733 24.912 6.30533 24.8 6.352L23.54 6.828C22.8213 7.09867 21.5987 7.60267 19.872 8.34H24.506C24.1607 8.04133 23.778 7.77067 23.358 7.528L23.47 7.262C24.394 7.514 25.0753 7.738 25.514 7.934C25.962 8.13 26.256 8.33533 26.396 8.55C26.5453 8.75533 26.62 8.998 26.62 9.278C26.62 9.54867 26.5733 9.74933 26.48 9.88C26.396 10.0013 26.312 10.062 26.228 10.062C26.144 10.062 26.074 10.0433 26.018 10.006C25.962 9.96867 25.836 9.824 25.64 9.572C25.4533 9.31067 25.206 9.026 24.898 8.718L22.56 8.9V11.756C22.56 12.0173 22.532 12.2227 22.476 12.372C22.4293 12.5307 22.3313 12.6707 22.182 12.792C22.042 12.9133 21.8087 13.03 21.482 13.142C21.1647 13.2633 20.964 13.324 20.88 13.324C20.796 13.324 20.7447 13.2493 20.726 13.1C20.6793 12.7733 20.572 12.5353 20.404 12.386C20.2453 12.2367 19.872 12.05 19.284 11.826L19.312 11.518C20.208 11.714 20.74 11.812 20.908 11.812C21.076 11.812 21.174 11.7887 21.202 11.742C21.2393 11.7047 21.258 11.6393 21.258 11.546V9.012C19.942 9.124 19.0787 9.208 18.668 9.264C18.2573 9.32 17.9867 9.376 17.856 9.432C17.7347 9.47867 17.646 9.502 17.59 9.502C17.534 9.502 17.4967 9.45533 17.478 9.362L17.254 8.34C18.1873 8.312 19.018 8.15333 19.746 7.864C20.4833 7.57467 21.328 7.14533 22.28 6.576ZM19.102 9.46C20.026 9.908 20.488 10.202 20.488 10.342C20.488 10.4167 20.404 10.454 20.236 10.454C20.068 10.454 19.858 10.538 19.606 10.706C18.7287 11.294 17.3847 11.9893 15.574 12.792L15.434 12.54C17.0487 11.4947 18.2713 10.468 19.102 9.46ZM23.078 9.67C24.114 9.99667 24.8793 10.272 25.374 10.496C25.8687 10.7107 26.2 10.9207 26.368 11.126C26.5453 11.3407 26.634 11.6067 26.634 11.924C26.634 12.2413 26.5827 12.484 26.48 12.652C26.3867 12.82 26.27 12.904 26.13 12.904C25.99 12.904 25.836 12.7733 25.668 12.512C24.996 11.4667 24.0953 10.608 22.966 9.936L23.078 9.67ZM37.504 5.05H35.488V6.912L37.308 6.254L37.448 6.534L35.488 7.612V11.434C35.488 11.7793 35.4367 12.0407 35.334 12.218C35.2407 12.3953 35.012 12.5773 34.648 12.764C34.2933 12.9507 34.0553 13.044 33.934 13.044C33.822 13.044 33.7473 12.974 33.71 12.834C33.6073 12.4793 33.4347 12.2133 33.192 12.036C32.9587 11.868 32.478 11.672 31.75 11.448L31.806 11.126C32.8513 11.266 33.5 11.336 33.752 11.336C34.0133 11.336 34.172 11.308 34.228 11.252C34.284 11.2053 34.312 11.1167 34.312 10.986V8.256C33.5093 8.68533 32.9633 8.98867 32.674 9.166C32.3847 9.34333 32.2167 9.474 32.17 9.558C32.1233 9.642 32.058 9.684 31.974 9.684C31.8993 9.684 31.834 9.66533 31.778 9.628C31.7313 9.59067 31.6193 9.432 31.442 9.152C31.2647 8.872 31.0967 8.58267 30.938 8.284C31.9087 8.06933 33.0333 7.752 34.312 7.332V5.05H31.694C31.442 5.05 31.246 5.08267 31.106 5.148L30.854 4.518C31.05 4.56467 31.2833 4.588 31.554 4.588H34.312V3.02C33.1827 3.244 32.1327 3.37467 31.162 3.412L31.12 3.104C32.3147 2.77733 33.2573 2.474 33.948 2.194C34.648 1.90467 35.376 1.54067 36.132 1.102C36.8413 1.886 37.196 2.34333 37.196 2.474C37.196 2.52067 37.168 2.544 37.112 2.544C37.0653 2.544 37.014 2.53933 36.958 2.53C36.902 2.51133 36.8367 2.502 36.762 2.502C36.5753 2.502 36.1507 2.58133 35.488 2.74V4.588H37.476L37.154 0.345999C37.462 0.374 37.8073 0.420666 38.19 0.485999C38.582 0.541999 38.82 0.588666 38.904 0.625999C38.9973 0.653999 39.044 0.705333 39.044 0.78C39.044 0.854666 38.8807 1.00867 38.554 1.242C38.554 2.59533 38.5867 3.71067 38.652 4.588H41.046L41.62 3.72C41.6853 3.61733 41.7647 3.566 41.858 3.566C41.9607 3.566 42.2313 3.76667 42.67 4.168C43.1087 4.56 43.328 4.80733 43.328 4.91C43.328 5.00333 43.2113 5.05 42.978 5.05H38.68C38.792 6.31 38.96 7.304 39.184 8.032C39.688 7.28533 40.094 6.51067 40.402 5.708C41.1953 6.016 41.6387 6.198 41.732 6.254C41.8347 6.31 41.886 6.37533 41.886 6.45C41.886 6.51533 41.8113 6.56667 41.662 6.604C41.522 6.632 41.3447 6.80933 41.13 7.136C40.5793 7.948 40.066 8.61067 39.59 9.124C39.7953 9.55333 40.052 9.96867 40.36 10.37C40.6773 10.7713 40.8967 11.0187 41.018 11.112C41.1393 11.2053 41.256 11.252 41.368 11.252C41.48 11.252 41.5827 11.2007 41.676 11.098C41.7787 11.0047 41.914 10.6873 42.082 10.146C42.2593 9.60467 42.4133 9.07267 42.544 8.55L42.866 8.662C42.7073 9.40867 42.628 10.0573 42.628 10.608C42.628 11.1587 42.768 11.7607 43.048 12.414C43.104 12.554 43.132 12.666 43.132 12.75C43.132 12.918 42.9827 13.002 42.684 13.002C41.0973 13.002 39.786 11.9847 38.75 9.95C37.938 10.6593 36.9113 11.2893 35.67 11.84L35.53 11.588C36.6313 10.8227 37.574 9.98733 38.358 9.082C37.938 8.046 37.6533 6.702 37.504 5.05ZM39.254 1.508C39.9353 1.676 40.4347 1.83 40.752 1.97C41.0693 2.11 41.2747 2.25 41.368 2.39C41.4613 2.53 41.508 2.70733 41.508 2.922C41.508 3.13667 41.4287 3.34667 41.27 3.552C41.1113 3.75733 40.934 3.86 40.738 3.86C40.682 3.86 40.6353 3.846 40.598 3.818C40.57 3.79 40.5327 3.72 40.486 3.608C40.1313 2.87067 39.674 2.25467 39.114 1.76L39.254 1.508ZM53.974 4.014C53.5727 4.826 52.8633 5.904 51.846 7.248L51.608 7.094C52.1867 5.834 52.616 4.76533 52.896 3.888C53.1853 3.00133 53.4653 1.858 53.736 0.458C54.1653 0.607333 54.5433 0.751999 54.87 0.891999C55.1967 1.032 55.3927 1.13 55.458 1.186C55.5327 1.23267 55.57 1.28867 55.57 1.354C55.57 1.41933 55.4907 1.47067 55.332 1.508C55.1827 1.54533 55.08 1.60133 55.024 1.676C54.9773 1.75067 54.87 1.99333 54.702 2.404C54.534 2.80533 54.366 3.18333 54.198 3.538H56.102L56.48 2.964C56.564 2.84267 56.648 2.782 56.732 2.782C56.8253 2.782 57.0773 2.93133 57.488 3.23C57.908 3.51933 58.118 3.72467 58.118 3.846C58.118 3.96733 57.922 4.112 57.53 4.28C57.4647 6.92133 57.4133 8.69933 57.376 9.614C57.3387 10.5287 57.2873 11.1493 57.222 11.476C57.166 11.812 57.0447 12.1107 56.858 12.372C56.6713 12.6333 56.3867 12.8527 56.004 13.03C55.6213 13.2167 55.3507 13.31 55.192 13.31C55.1173 13.31 55.0613 13.24 55.024 13.1C54.9493 12.8387 54.856 12.6333 54.744 12.484C54.632 12.3347 54.4407 12.1947 54.17 12.064C53.8993 11.9333 53.4887 11.7933 52.938 11.644L53.008 11.35C54.1187 11.5087 54.8187 11.588 55.108 11.588C55.3973 11.588 55.5933 11.5553 55.696 11.49C55.808 11.434 55.8827 11.336 55.92 11.196C55.9573 11.056 55.9947 10.734 56.032 10.23C56.0693 9.71667 56.1067 8.89067 56.144 7.752C56.1813 6.604 56.2047 5.358 56.214 4.014H53.974ZM48.71 3.748H50.068L50.446 3.188C50.5113 3.08533 50.5813 3.034 50.656 3.034C50.7307 3.034 50.9687 3.16 51.37 3.412C51.7713 3.664 51.972 3.85533 51.972 3.986C51.972 4.10733 51.7947 4.238 51.44 4.378V10.16C51.44 10.5707 51.4447 10.86 51.454 11.028L51.468 11.504C51.468 11.5507 51.454 11.588 51.426 11.616C51.4073 11.6533 51.3233 11.7047 51.174 11.77C51.034 11.8447 50.8567 11.9147 50.642 11.98C50.4367 12.0547 50.306 12.092 50.25 12.092C50.2033 12.092 50.18 12.0407 50.18 11.938V11.056H47.898V11.882C47.898 11.9847 47.856 12.064 47.772 12.12C47.688 12.176 47.5013 12.2553 47.212 12.358C46.932 12.47 46.75 12.526 46.666 12.526C46.5913 12.526 46.5587 12.47 46.568 12.358C46.6147 11.9287 46.638 11.4667 46.638 10.972V4.252C46.638 3.86 46.624 3.46333 46.596 3.062C47.1093 3.23933 47.5807 3.454 48.01 3.706C48.29 2.43667 48.4347 1.40533 48.444 0.611999C48.8547 0.695999 49.242 0.807999 49.606 0.947999C49.97 1.088 50.18 1.18133 50.236 1.228C50.292 1.27467 50.32 1.326 50.32 1.382C50.32 1.47533 50.2453 1.54067 50.096 1.578C49.984 1.606 49.858 1.72733 49.718 1.942C49.5873 2.14733 49.2513 2.74933 48.71 3.748ZM50.18 7.066V4.196H47.898V7.066H50.18ZM50.18 10.608V7.528H47.898V10.608H50.18ZM53.008 6.128C53.68 6.61333 54.1467 6.97733 54.408 7.22C54.6693 7.46267 54.842 7.64 54.926 7.752C55.01 7.864 55.052 8.01333 55.052 8.2C55.052 8.536 54.9447 8.83467 54.73 9.096C54.5153 9.35733 54.338 9.488 54.198 9.488C54.0673 9.488 53.974 9.29667 53.918 8.914C53.862 8.522 53.736 8.088 53.54 7.612C53.3533 7.12667 53.1247 6.69733 52.854 6.324L53.008 6.128ZM67.112 3.972C67.8027 2.72133 68.3393 1.47533 68.722 0.233999C69.1047 0.401999 69.436 0.565333 69.716 0.724C70.0053 0.882666 70.178 0.985333 70.234 1.032C70.2993 1.07867 70.332 1.12533 70.332 1.172C70.332 1.20933 70.234 1.26067 70.038 1.326C69.8513 1.382 69.6833 1.51733 69.534 1.732C69.0953 2.35733 68.4887 3.104 67.714 3.972H69.73L70.332 3.02C70.4067 2.89867 70.4673 2.838 70.514 2.838C70.6073 2.838 70.8313 2.98733 71.186 3.286C71.55 3.57533 71.8067 3.79 71.956 3.93C72.1053 4.06067 72.18 4.17267 72.18 4.266C72.18 4.35933 72.0633 4.406 71.83 4.406H67.28C67.252 5.34867 67.196 6.184 67.112 6.912H70.71L71.354 5.988C71.438 5.86667 71.5127 5.806 71.578 5.806C71.718 5.806 71.9933 5.99733 72.404 6.38C72.8147 6.76267 73.02 7.01933 73.02 7.15C73.02 7.27133 72.908 7.332 72.684 7.332H67.63C68.078 8.61067 68.7453 9.60467 69.632 10.314C70.5187 11.014 71.732 11.5087 73.272 11.798V12.106C72.7213 12.0873 72.32 12.134 72.068 12.246C71.816 12.358 71.592 12.554 71.396 12.834C71.3493 12.8993 71.298 12.932 71.242 12.932C71.1207 12.932 70.7473 12.7033 70.122 12.246C69.506 11.7887 68.9693 11.196 68.512 10.468C68.064 9.74 67.6347 8.69467 67.224 7.332H67.056C66.8413 8.83467 66.3187 9.99667 65.488 10.818C64.6573 11.6393 63.164 12.4327 61.008 13.198L60.868 12.918C62.4827 12.1247 63.6587 11.3127 64.396 10.482C65.1333 9.65133 65.5907 8.60133 65.768 7.332H61.834C61.582 7.332 61.386 7.36467 61.246 7.43L60.994 6.842C61.19 6.88867 61.4233 6.912 61.694 6.912H65.81C65.866 6.42667 65.894 5.96467 65.894 5.526C65.894 5.078 65.8893 4.70467 65.88 4.406H62.338C62.086 4.406 61.89 4.43867 61.75 4.504L61.498 3.902C61.694 3.94867 61.9273 3.972 62.198 3.972H67.112ZM63.248 0.584C63.976 0.948 64.5127 1.24667 64.858 1.48C65.2127 1.71333 65.446 1.91867 65.558 2.096C65.67 2.264 65.726 2.488 65.726 2.768C65.726 3.048 65.6467 3.29533 65.488 3.51C65.3293 3.71533 65.1893 3.818 65.068 3.818C64.9467 3.818 64.8673 3.79467 64.83 3.748C64.7927 3.692 64.704 3.468 64.564 3.076C64.4333 2.67467 64.2607 2.32 64.046 2.012C63.8313 1.69467 63.5093 1.29333 63.08 0.807999L63.248 0.584ZM82.35 0.219999C83.0127 0.546666 83.5307 0.85 83.904 1.13C84.2867 1.41 84.478 1.67133 84.478 1.914C84.478 2.14733 84.3893 2.39467 84.212 2.656C84.0347 2.91733 83.8107 3.048 83.54 3.048C83.4747 3.048 83.4233 3.02933 83.386 2.992C83.3487 2.94533 83.2787 2.73067 83.176 2.348C83.0827 1.96533 82.9613 1.634 82.812 1.354C82.6627 1.074 82.4573 0.765999 82.196 0.429999L82.35 0.219999ZM77.31 0.444C78.2247 0.826666 78.8453 1.13933 79.172 1.382C79.508 1.62467 79.676 1.858 79.676 2.082C79.676 2.29667 79.6013 2.56267 79.452 2.88C79.3027 3.188 79.13 3.342 78.934 3.342C78.85 3.342 78.7847 3.314 78.738 3.258C78.7007 3.202 78.64 3.06667 78.556 2.852C78.2107 1.956 77.7627 1.228 77.212 0.668L77.31 0.444ZM82.98 3.86H80.95C80.7167 3.86 80.5393 3.888 80.418 3.944L80.194 3.37C80.3713 3.41667 80.5813 3.44 80.824 3.44H85.99L86.606 2.6C86.6807 2.488 86.7507 2.432 86.816 2.432C86.9093 2.432 87.1893 2.628 87.656 3.02C88.132 3.40267 88.37 3.64067 88.37 3.734C88.37 3.818 88.2673 3.86 88.062 3.86H84.31V7.108H85.836L86.396 6.38C86.48 6.268 86.564 6.212 86.648 6.212C86.7413 6.212 86.97 6.40333 87.334 6.786C87.7073 7.16867 87.894 7.402 87.894 7.486C87.894 7.57 87.8053 7.612 87.628 7.612H84.31V11.616H86.382L86.956 10.762C87.04 10.6313 87.124 10.566 87.208 10.566C87.3013 10.566 87.5487 10.7667 87.95 11.168C88.3513 11.5693 88.552 11.8213 88.552 11.924C88.552 12.0267 88.4633 12.078 88.286 12.078H79.732C79.4987 12.078 79.3213 12.106 79.2 12.162L78.976 11.546C79.1533 11.5927 79.3633 11.616 79.606 11.616H82.98V7.612H80.88C80.6467 7.612 80.4693 7.64 80.348 7.696L80.124 7.038C80.3013 7.08467 80.5113 7.108 80.754 7.108H82.98V3.86ZM80.334 2.768L78.99 6.898C78.5607 8.19533 78.346 9.32 78.346 10.272C78.346 10.692 78.374 11.098 78.43 11.49C78.486 11.882 78.514 12.1667 78.514 12.344C78.514 12.9227 78.3413 13.212 77.996 13.212C77.66 13.212 77.3893 13.114 77.184 12.918C76.9787 12.722 76.876 12.4887 76.876 12.218C76.876 12.162 76.8807 12.1107 76.89 12.064C77.0767 11.0093 77.17 10.2907 77.17 9.908C77.17 9.67467 77.072 9.49267 76.876 9.362C76.6893 9.23133 76.26 9.07733 75.588 8.9L75.616 8.578C76.1293 8.64333 76.5073 8.676 76.75 8.676C77.002 8.676 77.1933 8.61533 77.324 8.494C77.4547 8.37267 77.604 8.12533 77.772 7.752L80.082 2.656L80.334 2.768ZM75.924 3.384C76.6893 3.67333 77.2773 3.958 77.688 4.238C78.108 4.50867 78.318 4.79333 78.318 5.092C78.318 5.27867 78.2387 5.50267 78.08 5.764C77.9307 6.02533 77.7487 6.156 77.534 6.156C77.45 6.156 77.3847 6.128 77.338 6.072C77.2913 6.016 77.226 5.88067 77.142 5.666C76.862 4.90067 76.414 4.224 75.798 3.636L75.924 3.384Z" fill="#9A764E" fill-opacity="0.5"/>
</svg>
