<svg width="48" height="15" viewBox="0 0 48 15" fill="none" xmlns="http://www.w3.org/2000/svg">
<path d="M10.07 2.23C10.25 2.23 10.4 2.185 10.535 2.065L11.15 1.555C11.33 1.42 11.51 1.42 11.675 1.57L12.845 2.575C13.025 2.74 13.1 2.95 12.905 3.085C12.83 3.13 12.755 3.16 12.635 3.16C12.44 3.19 12.305 3.265 12.185 3.43C11.54 4.345 10.79 5.2 9.95 5.92C9.725 6.115 9.755 6.325 10.025 6.43C11.495 7.06 13.22 7.48 14.96 7.735C15.2 7.765 15.32 7.84 15.305 7.975C15.29 8.11 15.17 8.185 14.975 8.245C14.465 8.41 14.12 8.74 13.925 9.19C13.835 9.415 13.7 9.505 13.475 9.445C11.63 8.965 9.995 8.29 8.6 7.285C8.42 7.15 8.255 7.15 8.075 7.255C6.17 8.41 3.935 9.25 1.325 9.745C1.1 9.79 0.95 9.73 0.905 9.595C0.86 9.46 0.965 9.355 1.205 9.28C3.395 8.56 5.39 7.57 6.98 6.355C7.175 6.205 7.175 6.025 7.025 5.83C6.59 5.335 6.185 4.75 5.84 4.09C5.72 3.85 5.525 3.82 5.33 4.015C4.31 4.975 3.17 5.815 1.985 6.385C1.775 6.49 1.64 6.475 1.58 6.385C1.52 6.295 1.58 6.175 1.775 6.025C3.5 4.675 5.06 2.455 5.825 0.445C5.915 0.219999 6.065 0.129999 6.29 0.19L7.97 0.579999C8.225 0.639999 8.42 0.909999 8.195 1.045C8.15 1.075 8.105 1.09 8.045 1.09C7.835 1.12 7.7 1.165 7.58 1.345C7.475 1.495 7.385 1.63 7.28 1.78C7.1 2.035 7.22 2.23 7.52 2.23H10.07ZM4.265 11.695C4.04 11.635 3.935 11.545 3.95 11.395C3.965 11.245 4.1 11.185 4.37 11.185C12.65 11.29 12.38 14.5 10.73 14.35C10.565 14.335 10.475 14.29 10.415 14.245C9.35 13.48 6.98 12.4 4.265 11.695ZM6.23 9.025C6.02 8.92 5.915 8.8 5.96 8.68C6.005 8.56 6.14 8.485 6.38 8.485C11.195 8.53 10.82 11.05 9.5 10.975C9.32 10.96 9.245 10.915 9.185 10.855C8.72 10.375 7.61 9.625 6.23 9.025ZM6.035 3.31C5.99 3.355 6.02 3.475 6.155 3.655C6.605 4.24 7.16 4.75 7.82 5.215C8.015 5.35 8.195 5.335 8.345 5.185C8.975 4.585 9.485 3.955 9.905 3.31C10.07 3.055 9.95 2.86 9.65 2.86H6.725C6.53 2.86 6.395 2.92 6.29 3.055L6.275 3.07C6.23 3.115 6.095 3.25 6.035 3.31ZM29.28 1.51C29.49 1.705 29.49 1.975 29.22 2.005C29.1 2.02 28.965 1.99 28.785 1.945C28.605 1.885 28.47 1.87 28.29 1.9C28.14 1.915 28.005 1.945 27.855 1.96C27.615 1.99 27.495 2.125 27.525 2.365C27.795 6.325 28.665 9.835 30.975 12.19C31.125 12.325 31.17 12.445 31.155 12.55C31.14 12.655 31.02 12.73 30.825 12.79C30.285 12.985 29.91 13.345 29.7 13.87C29.595 14.125 29.46 14.155 29.325 13.915C27.765 11.26 27.375 6.595 27.255 2.44C27.24 2.185 27.21 2.065 27.135 2.065C27.105 2.065 27.075 2.065 27.045 2.065C26.985 2.08 26.91 2.095 26.85 2.095C26.67 2.11 26.52 2.125 26.355 2.155C25.935 2.2 25.485 2.245 25.035 2.29C24.795 2.305 24.675 2.455 24.675 2.68V10.99C24.675 11.26 24.84 11.395 25.095 11.305L25.635 11.125C25.86 11.05 25.965 10.9 25.89 10.66C25.755 10.24 25.605 9.835 25.44 9.43C25.35 9.205 25.35 9.055 25.425 9.025C25.515 8.995 25.62 9.04 25.785 9.175C29.04 11.65 27.945 14.38 26.67 13.675C26.505 13.57 26.445 13.435 26.43 13.24C26.415 12.85 26.355 12.445 26.265 12.01C26.19 11.725 25.98 11.65 25.755 11.83C25.125 12.37 24.315 13.015 23.46 13.6C23.46 13.615 23.445 13.615 23.445 13.63C23.34 13.75 23.07 13.75 22.935 13.54L22.32 12.625C22.185 12.415 22.245 12.22 22.5 12.1C22.965 11.86 23.01 11.77 23.01 11.545V2.845C23.01 2.605 22.875 2.47 22.62 2.485C22.05 2.515 21.48 2.545 20.895 2.575C20.655 2.59 20.535 2.71 20.535 2.95V5.515C20.535 8.065 20.325 11.695 17.43 14.125C17.25 14.275 17.1 14.305 17.04 14.23C16.98 14.155 16.995 14.02 17.115 13.825C18.69 11.245 18.855 8.215 18.855 5.47V1.975C18.855 1.705 19.02 1.585 19.275 1.66L20.235 1.93C20.4 1.975 20.535 1.975 20.715 1.945C23.175 1.54 25.95 0.865 27.585 0.31C27.78 0.25 27.93 0.279999 28.095 0.429999L29.28 1.51ZM45.88 4.78C46.105 4.93 46.15 5.17 45.94 5.29C45.925 5.305 45.895 5.305 45.88 5.32C45.67 5.41 45.55 5.5 45.535 5.725C45.52 6.55 45.49 7.285 45.475 7.945L45.43 9.34C45.37 11.05 45.34 12.04 45.355 12.475C45.355 12.655 45.355 12.655 45.52 12.655H45.835C46 12.655 46.045 12.625 46.075 12.535C46.21 12.19 46.345 11.575 46.465 10.96C46.525 10.735 46.585 10.615 46.63 10.615C46.675 10.63 46.705 10.735 46.705 10.975L46.675 12.175C46.675 12.4 46.78 12.505 46.975 12.61C47.17 12.73 47.23 12.85 47.23 13.09C47.23 13.69 46.81 14.035 45.85 14.035H45.31C44.305 14.035 43.915 13.63 43.915 12.565C43.915 12.235 43.93 11.8 43.945 11.215C43.945 10.855 43.96 10.435 43.975 9.94C44.02 8.89 44.065 7.48 44.11 5.635C44.125 5.38 43.99 5.245 43.75 5.245H42.43C42.205 5.245 42.055 5.365 42.04 5.605C41.905 7.69 41.74 10.015 41.605 11.53C41.575 11.815 41.755 11.935 42.025 11.845C42.415 11.695 42.805 11.53 43.21 11.365C43.435 11.275 43.585 11.275 43.63 11.395C43.675 11.5 43.615 11.62 43.45 11.77C42.85 12.28 41.935 13.06 40.87 13.825C40.735 13.93 40.69 13.975 40.69 13.975C40.66 14.05 40.33 14.185 40.18 13.945L39.595 13.06C39.475 12.865 39.535 12.73 39.7 12.565C39.91 12.355 40.105 12.025 40.165 11.62C40.315 10.69 40.63 5.2 40.765 2.575C40.78 2.335 40.63 2.2 40.39 2.2H40.105C39.895 2.2 39.745 2.11 39.685 1.885C39.625 1.69 39.76 1.555 40.03 1.555H44.245C44.44 1.555 44.59 1.495 44.71 1.345L45.16 0.805C45.31 0.624999 45.505 0.595 45.685 0.73C46.045 1 46.465 1.3 46.81 1.6C46.96 1.735 47.065 1.915 46.93 2.08C46.84 2.17 46.735 2.2 46.615 2.2H42.625C42.4 2.2 42.25 2.335 42.235 2.56L42.13 4.21C42.115 4.45 42.25 4.6 42.49 4.6H43.735C43.93 4.6 44.065 4.525 44.185 4.39L44.38 4.18C44.53 4 44.695 3.97 44.89 4.105L45.88 4.78ZM32.92 14.26C32.845 14.17 32.875 14.05 33.01 13.87C34.195 12.295 34.45 10.495 34.51 8.665C34.525 8.425 34.39 8.29 34.15 8.29H33.355C33.145 8.29 32.995 8.2 32.935 7.975C32.875 7.78 33.01 7.645 33.28 7.645H34.15C34.39 7.645 34.525 7.51 34.525 7.27V4.615C34.525 4.375 34.39 4.24 34.15 4.24H33.61C33.4 4.24 33.25 4.15 33.19 3.925C33.13 3.73 33.265 3.595 33.535 3.595H36.475C36.685 3.595 36.82 3.505 36.895 3.295C37.15 2.515 37.39 1.54 37.6 0.595C37.645 0.339999 37.81 0.25 38.05 0.325L39.475 0.774999C39.715 0.849999 39.865 1.06 39.685 1.24C39.64 1.285 39.58 1.33 39.505 1.345C39.31 1.405 39.175 1.45 39.055 1.615C38.665 2.155 38.245 2.695 37.84 3.145C37.615 3.385 37.555 3.595 37.735 3.595H37.795C37.99 3.595 38.14 3.52 38.26 3.37L38.59 2.965C38.74 2.785 38.92 2.755 39.115 2.905C39.4 3.13 39.715 3.385 39.985 3.625C40.15 3.775 40.24 3.94 40.105 4.12C40.03 4.21 39.925 4.24 39.805 4.24H38.89C38.65 4.24 38.515 4.375 38.515 4.615V6.79C38.515 7.135 38.71 7.285 38.89 7.06C39.04 6.88 39.22 6.85 39.415 7C39.67 7.21 39.97 7.45 40.21 7.675C40.375 7.825 40.465 7.99 40.33 8.17C40.255 8.26 40.15 8.29 40.03 8.29H38.89C38.65 8.29 38.515 8.425 38.515 8.665V13.915C38.515 14.14 38.095 14.395 37.345 14.395C37.195 14.395 37.105 14.26 37.105 14.02V8.665C37.105 8.425 36.97 8.29 36.73 8.29H36.28C36.04 8.29 35.92 8.41 35.905 8.65C35.8 10.57 35.32 12.67 33.325 14.17C33.13 14.32 32.995 14.335 32.92 14.26ZM33.79 0.774999C33.67 0.564999 33.64 0.429999 33.715 0.385C33.79 0.325 33.91 0.339999 34.105 0.414999C37.3 1.72 36.115 3.985 34.855 3.415C34.675 3.325 34.615 3.19 34.6 2.995C34.51 2.245 34.165 1.42 33.79 0.774999ZM35.935 7.27C35.935 7.51 36.07 7.645 36.31 7.645H36.73C36.97 7.645 37.105 7.51 37.105 7.27V4.615C37.105 4.375 36.97 4.24 36.73 4.24H36.31C36.07 4.24 35.935 4.375 35.935 4.615V7.27ZM42.13 6.94C42.04 6.7 42.04 6.565 42.115 6.535C42.205 6.505 42.31 6.55 42.475 6.685C44.59 8.35 43.675 10.06 42.805 9.61C42.64 9.52 42.595 9.37 42.595 9.19C42.565 8.47 42.355 7.615 42.13 6.94Z" fill="#7A6855"/>
</svg>
