<svg width="175" height="54" viewBox="0 0 175 54" fill="none" xmlns="http://www.w3.org/2000/svg">
<path d="M73.972 7.824L74.62 7.23C74.818 7.032 75.034 7.032 75.25 7.212L76.294 8.076C76.546 8.292 76.618 8.58 76.33 8.652C76.222 8.688 76.078 8.706 75.88 8.706C75.178 9.408 74.224 10.344 73.324 10.992H77.248L77.788 10.452C77.986 10.254 78.202 10.236 78.418 10.398L79.57 11.208C79.822 11.388 79.894 11.658 79.642 11.82C79.498 11.892 79.318 11.964 79.12 12V16.77C79.084 17.022 78.292 17.31 77.698 17.31C77.518 17.31 77.41 17.148 77.41 16.86V16.104H68.608V19.776C68.608 20.388 69.166 20.55 70.372 20.55H77.068C78.22 20.55 78.76 20.478 79.048 20.064C79.336 19.668 79.678 18.678 79.948 17.832C80.038 17.58 80.128 17.454 80.182 17.454C80.236 17.454 80.272 17.598 80.272 17.904L80.29 20.154C81.046 20.352 81.334 20.442 81.334 20.856C81.334 21.666 80.542 22.116 77.212 22.116H70.462C68.086 22.116 66.916 21.594 66.916 19.74V11.946C66.286 12.504 65.638 12.99 65.008 13.404C64.774 13.548 64.594 13.548 64.522 13.458C64.45 13.368 64.522 13.224 64.738 13.026C66.61 11.28 68.41 8.472 69.346 6.042C69.436 5.772 69.634 5.664 69.904 5.736L71.452 6.114C71.776 6.186 71.992 6.51 71.722 6.618C71.614 6.672 71.47 6.672 71.236 6.654C71.002 7.068 70.75 7.464 70.498 7.824H73.972ZM68.158 10.758L68.842 10.992H72.658C73.144 10.29 73.612 9.264 73.918 8.508H70.03C69.454 9.3 68.824 10.074 68.158 10.758ZM68.608 15.402H72.118V11.712H68.608V15.402ZM73.774 15.402H77.41V11.712H73.774V15.402ZM90.604 13.566C90.784 13.35 91 13.314 91.234 13.494C91.576 13.764 91.972 14.07 92.314 14.358C92.494 14.52 92.638 14.736 92.44 14.916C92.368 15.006 92.242 15.024 92.098 15.024H88.516V16.014C93.178 16.86 92.458 19.794 90.964 19.398C90.748 19.326 90.658 19.182 90.568 18.966C90.208 18.084 89.344 17.112 88.516 16.464V22.008C88.516 22.296 87.814 22.566 87.184 22.566C86.986 22.566 86.86 22.404 86.86 22.116V17.364C85.87 18.822 84.574 20.046 83.062 21.036C82.828 21.198 82.666 21.234 82.576 21.108C82.486 20.982 82.54 20.838 82.738 20.64C84.322 19.074 85.474 17.058 86.158 15.024H83.404C83.152 15.024 82.99 14.898 82.918 14.682C82.846 14.484 83.026 14.34 83.35 14.34H86.86V12.54C86.86 12.252 87.04 12.09 87.328 12.126L88.912 12.27C89.416 11.406 89.974 10.074 90.37 8.796C90.46 8.508 90.658 8.4 90.928 8.508L92.188 8.994C92.476 9.102 92.656 9.408 92.386 9.57C92.26 9.642 92.098 9.642 91.9 9.624C91.18 10.632 90.316 11.622 89.488 12.27C89.29 12.432 89.182 12.486 89.164 12.486L89.128 12.468C89.074 12.738 88.876 12.882 88.516 12.954V14.34H89.992L90.604 13.566ZM82.954 8.382C82.918 8.22 83.062 8.13 83.35 8.076C85.798 7.608 88.606 6.78 90.244 6.024C90.46 5.916 90.658 5.916 90.856 6.096L91.99 7.086C92.26 7.32 92.26 7.662 91.918 7.662C91.756 7.662 91.558 7.608 91.288 7.518C89.272 8.022 86.212 8.472 83.422 8.598C83.134 8.616 82.972 8.544 82.954 8.382ZM83.332 9.516C83.17 9.264 83.134 9.102 83.224 9.048C83.314 8.994 83.458 9.012 83.692 9.12C86.662 10.542 85.546 12.756 84.394 12.252C84.178 12.162 84.124 11.982 84.106 11.748C84.07 10.992 83.728 10.164 83.332 9.516ZM86.158 9.03C86.014 8.76 85.978 8.598 86.05 8.562C86.14 8.508 86.284 8.526 86.518 8.652C89.416 10.074 88.3 12.288 87.166 11.784C86.95 11.694 86.896 11.514 86.878 11.28C86.842 10.524 86.536 9.696 86.158 9.03ZM90.622 22.35C90.568 22.224 90.658 22.062 90.91 21.936C93.52 20.532 95.608 18.66 97.138 15.852C97.282 15.582 97.498 15.51 97.75 15.636L99.19 16.32C99.478 16.464 99.64 16.788 99.37 16.878C99.244 16.914 99.1 16.896 98.884 16.878C96.814 19.632 94.276 21.324 91.108 22.404C90.838 22.494 90.676 22.476 90.622 22.35ZM91.918 15.942C91.864 15.816 91.936 15.672 92.17 15.51C94.024 14.322 95.626 12.72 96.868 10.812C97.03 10.578 97.228 10.524 97.48 10.65L98.848 11.352C99.136 11.496 99.28 11.838 99.01 11.91C98.902 11.946 98.758 11.928 98.542 11.91C96.832 13.674 94.69 15.06 92.422 15.996C92.152 16.104 91.972 16.086 91.918 15.942ZM91.972 11.1C91.9 10.974 91.972 10.848 92.224 10.668C93.916 9.516 95.482 8.004 96.706 6.33C96.868 6.114 97.102 6.06 97.336 6.204L98.614 6.942C98.884 7.104 99.028 7.446 98.758 7.518C98.65 7.536 98.524 7.518 98.308 7.482C96.634 8.976 94.564 10.254 92.476 11.136C92.206 11.244 92.044 11.226 91.972 11.1Z" fill="#7A6855"/>
<path d="M45.672 35.444C45.792 35.3 45.936 35.276 46.092 35.396C46.368 35.612 46.692 35.864 46.968 36.104C47.088 36.212 47.172 36.356 47.064 36.488C46.992 36.56 46.896 36.584 46.8 36.584H44.472C44.28 36.584 44.172 36.692 44.172 36.884V38.108C44.172 38.3 44.28 38.408 44.472 38.408H45.288C45.444 38.408 45.564 38.36 45.66 38.24L46.032 37.784C46.152 37.628 46.308 37.616 46.452 37.724C46.74 37.94 47.076 38.204 47.352 38.432C47.472 38.552 47.556 38.684 47.436 38.828C47.376 38.9 47.292 38.924 47.196 38.924H45.348C45.156 38.924 45.048 39.032 45.048 39.224V41.66C45.048 41.756 45.048 41.756 45.288 41.756H45.768C45.876 41.756 45.972 41.756 46.056 41.744H46.188C46.32 41.744 46.356 41.72 46.392 41.66C46.488 41.492 46.596 41.084 46.74 40.58C46.764 40.496 46.776 40.436 46.8 40.376C46.8 40.376 46.884 40.124 46.92 40.124C46.956 40.124 46.992 40.22 46.992 40.424L47.016 41.42C47.016 41.576 47.1 41.672 47.22 41.792C47.34 41.9 47.376 42.032 47.376 42.212C47.376 42.728 46.968 42.968 45.636 42.968H44.904C43.968 42.968 43.824 42.692 43.824 41.936V39.224C43.824 39.032 43.716 38.924 43.524 38.924H43.296C43.116 38.924 42.996 39.02 42.972 39.212C42.744 40.904 42.012 42.092 40.44 42.848C40.2 42.956 40.188 43.136 40.428 43.208C41.28 43.484 42.384 43.568 43.896 43.568C45.108 43.568 46.152 43.556 47.364 43.496C47.568 43.496 47.676 43.544 47.676 43.64C47.676 43.748 47.592 43.808 47.412 43.88C47.088 44.012 46.908 44.24 46.824 44.504C46.776 44.684 46.68 44.78 46.5 44.78H43.452C41.124 44.78 40.068 44.348 39.06 43.1C38.976 42.992 38.928 42.908 38.796 42.86C38.676 42.824 38.58 42.872 38.52 42.968C38.412 43.148 38.28 43.376 38.136 43.592C38.064 43.712 38.004 43.796 37.944 43.892C37.788 44.156 37.608 44.432 37.488 44.636C37.488 44.636 37.272 44.792 37.128 44.612L36.588 43.904C36.468 43.736 36.492 43.604 36.66 43.496C36.972 43.304 37.296 43.088 37.584 42.896C37.692 42.824 37.752 42.776 37.836 42.728C37.836 42.728 37.944 42.584 37.944 42.428V38.84C37.944 38.648 37.836 38.54 37.644 38.54H36.78C36.6 38.54 36.492 38.456 36.468 38.276C36.444 38.12 36.552 38.024 36.756 38.024H37.536C37.692 38.024 37.812 37.976 37.908 37.856L38.196 37.508C38.316 37.364 38.472 37.328 38.628 37.448L39.552 38.144C39.708 38.264 39.768 38.432 39.6 38.552C39.552 38.588 39.492 38.612 39.42 38.636C39.252 38.696 39.156 38.792 39.156 38.972V42.296C39.156 42.452 39.192 42.56 39.324 42.656C39.36 42.68 39.396 42.716 39.432 42.74C39.576 42.836 39.648 42.86 39.648 42.86C41.112 41.888 41.532 40.772 41.64 39.236C41.652 39.032 41.532 38.924 41.34 38.924H40.476C40.308 38.924 40.188 38.852 40.14 38.672C40.092 38.516 40.2 38.408 40.416 38.408H42.576C42.768 38.408 42.876 38.3 42.876 38.108V36.884C42.876 36.692 42.768 36.584 42.576 36.584H41.748C41.592 36.584 41.472 36.644 41.388 36.788C41.076 37.304 40.728 37.748 40.368 38.096C40.248 38.228 40.14 38.24 40.08 38.204C40.008 38.168 40.02 38.06 40.092 37.88C40.488 36.98 40.8 35.78 40.944 34.556C40.968 34.352 41.1 34.256 41.292 34.304L42.384 34.544C42.576 34.592 42.708 34.748 42.576 34.916C42.54 34.952 42.492 34.988 42.444 35C42.288 35.072 42.18 35.12 42.12 35.276C42.06 35.432 42 35.576 41.928 35.72C41.844 35.924 41.928 36.068 42.156 36.068H42.576C42.768 36.068 42.876 35.96 42.876 35.768V34.22C42.876 34.028 42.996 33.92 43.188 33.932L44.304 34.028C44.496 34.04 44.652 34.172 44.544 34.352C44.52 34.4 44.472 34.436 44.424 34.472C44.268 34.556 44.172 34.64 44.172 34.808V35.768C44.172 35.96 44.28 36.068 44.472 36.068H44.952C45.108 36.068 45.228 36.02 45.324 35.888L45.672 35.444ZM36.996 34.376C36.888 34.208 36.864 34.1 36.912 34.064C36.972 34.028 37.068 34.04 37.224 34.088C40.332 35.204 39.504 37.34 38.328 36.872C38.184 36.812 38.124 36.728 38.1 36.596C37.92 35.888 37.464 35.036 36.996 34.376ZM57.46 38.96C57.664 38.984 57.808 39.116 57.688 39.296C57.664 39.332 57.64 39.356 57.604 39.38C57.46 39.476 57.364 39.548 57.364 39.716V40.076C57.364 40.268 57.472 40.376 57.664 40.376H58C58.156 40.376 58.264 40.316 58.36 40.208L58.684 39.848C58.804 39.704 58.96 39.692 59.104 39.8C59.356 39.98 59.668 40.196 59.92 40.412C60.052 40.52 60.136 40.664 60.016 40.796C59.956 40.868 59.872 40.892 59.776 40.892H57.664C57.472 40.892 57.364 41 57.364 41.192V41.888C57.364 42.08 57.472 42.188 57.664 42.188H58.384C58.54 42.188 58.648 42.128 58.744 42.02L59.14 41.576C59.26 41.432 59.416 41.42 59.56 41.528C59.86 41.732 60.208 41.984 60.496 42.224C60.628 42.332 60.712 42.476 60.592 42.608C60.532 42.68 60.448 42.704 60.352 42.704H57.664C57.472 42.704 57.364 42.812 57.364 43.004V44.708C57.364 44.924 56.8 45.092 56.272 45.092C56.092 45.092 55.996 44.984 55.996 44.792V43.004C55.996 42.812 55.888 42.704 55.696 42.704H53.284C53.116 42.704 52.996 42.632 52.948 42.452C52.9 42.296 53.008 42.188 53.224 42.188H55.696C55.888 42.188 55.996 42.08 55.996 41.888V41.192C55.996 41 55.888 40.892 55.696 40.892H53.932C53.764 40.892 53.644 40.82 53.596 40.64C53.548 40.484 53.656 40.376 53.872 40.376H55.696C55.888 40.376 55.996 40.268 55.996 40.076V39.14C55.996 38.948 56.116 38.84 56.308 38.852L57.46 38.96ZM49.3 40.136C49.216 39.944 49.276 39.812 49.468 39.752C49.768 39.656 50.176 39.512 50.62 39.344C50.788 39.284 50.86 39.176 50.86 39.008V37.388C50.86 37.196 50.752 37.088 50.56 37.088H49.756C49.588 37.088 49.468 37.016 49.42 36.836C49.372 36.68 49.48 36.572 49.696 36.572H50.56C50.752 36.572 50.86 36.464 50.86 36.272V34.088C50.86 33.896 50.968 33.776 51.172 33.8L52.324 33.908C52.528 33.932 52.672 34.052 52.576 34.232C52.54 34.28 52.504 34.328 52.444 34.364C52.288 34.448 52.192 34.532 52.192 34.7V36.272C52.192 36.464 52.24 36.572 52.312 36.572C52.396 36.572 52.48 36.512 52.576 36.392L52.864 36.008C52.984 35.852 53.14 35.828 53.296 35.96C53.524 36.152 53.788 36.38 54.016 36.596C54.136 36.716 54.196 36.848 54.1 36.992C54.04 37.064 53.956 37.088 53.848 37.088H52.492C52.3 37.088 52.192 37.196 52.192 37.388V38.396C52.192 38.612 52.336 38.72 52.54 38.636L53.716 38.18C53.896 38.108 54.016 38.108 54.052 38.204C54.088 38.3 54.076 38.348 54.016 38.396C53.98 38.42 53.956 38.432 53.932 38.456L53.776 38.564C53.368 38.852 52.9 39.188 52.384 39.56C52.252 39.656 52.192 39.764 52.192 39.92V43.472C52.192 44.336 52.024 44.888 50.836 45.08C50.632 45.104 50.512 45.008 50.488 44.804C50.464 44.528 50.404 44.336 50.272 44.156C50.176 44.012 49.984 43.892 49.636 43.808C49.456 43.76 49.36 43.676 49.36 43.568C49.36 43.46 49.42 43.412 49.54 43.412C49.6 43.412 49.66 43.424 49.72 43.424C50.116 43.46 50.5 43.484 50.632 43.484C50.848 43.484 50.86 43.46 50.86 43.352V40.976C50.86 40.736 50.704 40.64 50.5 40.772L50.296 40.904C50.176 40.988 50.104 41.024 50.092 41.072C49.996 41.276 49.792 41.216 49.696 41.012L49.3 40.136ZM52.792 39.668C52.756 39.56 52.828 39.464 53.008 39.392C54.1 38.984 55.06 38.444 55.864 37.832C56.02 37.712 56.02 37.568 55.888 37.412C55.42 36.872 55.012 36.212 54.712 35.384C54.652 35.216 54.544 35.144 54.376 35.144H53.788C53.62 35.144 53.5 35.072 53.452 34.892C53.404 34.724 53.512 34.628 53.728 34.628H57.94C58.084 34.628 58.204 34.592 58.312 34.496L58.672 34.196C58.804 34.076 58.96 34.076 59.104 34.184L59.896 34.832C60.04 34.952 60.1 35.144 59.932 35.252C59.884 35.276 59.836 35.288 59.776 35.3C59.608 35.324 59.5 35.384 59.416 35.528C59.056 36.152 58.6 36.704 58.12 37.196C57.952 37.352 57.976 37.52 58.204 37.592C58.9 37.832 59.668 38.012 60.484 38.132C60.676 38.156 60.772 38.204 60.772 38.312C60.76 38.408 60.676 38.48 60.52 38.54C60.172 38.672 59.932 38.9 59.8 39.224C59.728 39.404 59.62 39.476 59.428 39.428C58.516 39.164 57.736 38.84 57.028 38.384C56.884 38.288 56.764 38.276 56.608 38.372C55.612 38.984 54.46 39.464 53.128 39.776C52.948 39.812 52.828 39.776 52.792 39.668ZM55.36 35.144C55.12 35.144 55.012 35.312 55.156 35.504C55.516 36.02 55.984 36.464 56.572 36.836C56.716 36.932 56.86 36.92 56.98 36.776C57.352 36.368 57.652 35.936 57.904 35.504C58.024 35.3 57.916 35.144 57.688 35.144H55.36ZM69.032 39.956C69.164 40.004 69.272 40.016 69.404 40.016H71.18C71.324 40.016 71.444 39.968 71.552 39.86L71.864 39.548C71.996 39.416 72.14 39.416 72.284 39.512L73.124 40.088C73.292 40.196 73.352 40.388 73.184 40.508C73.172 40.52 73.148 40.532 73.124 40.544C72.968 40.616 72.872 40.712 72.872 40.88V44.576C72.872 44.756 72.416 44.948 71.684 44.948C71.528 44.948 71.432 44.84 71.432 44.648V44.3C71.432 44.108 71.324 44 71.132 44H69.38C69.188 44 69.08 44.108 69.08 44.3V44.696C69.08 44.876 68.684 45.08 67.952 45.08C67.796 45.08 67.712 44.972 67.712 44.78V39.86C67.712 39.644 67.856 39.548 68.06 39.62L69.032 39.956ZM62.3 45.044C62.228 44.996 62.24 44.9 62.312 44.732C63.104 42.824 63.104 40.496 63.104 38.3V34.388C63.104 34.172 63.248 34.076 63.452 34.148L64.388 34.46C64.52 34.508 64.628 34.52 64.76 34.52H65.072C65.216 34.52 65.336 34.484 65.444 34.364L65.672 34.124C65.792 33.992 65.948 33.98 66.092 34.088L66.92 34.676C67.076 34.784 67.136 34.976 66.968 35.084C66.956 35.096 66.944 35.096 66.92 35.108C66.764 35.18 66.68 35.288 66.68 35.456V43.592C66.68 44.384 66.512 44.9 65.408 45.068C65.204 45.104 65.084 44.996 65.06 44.804C65.036 44.564 64.988 44.396 64.88 44.252C64.796 44.144 64.64 44.036 64.328 43.952C64.148 43.916 64.052 43.832 64.052 43.724C64.052 43.616 64.16 43.568 64.364 43.58C64.712 43.604 65.048 43.628 65.156 43.628C65.372 43.628 65.396 43.592 65.396 43.472V40.868C65.396 40.676 65.288 40.568 65.096 40.568H64.58C64.4 40.568 64.28 40.664 64.256 40.844C64.076 42.284 63.644 43.748 62.588 44.912C62.456 45.044 62.36 45.08 62.3 45.044ZM64.34 39.74C64.328 39.944 64.436 40.052 64.628 40.052H65.096C65.288 40.052 65.396 39.944 65.396 39.752V38.048C65.396 37.856 65.288 37.748 65.096 37.748H64.664C64.472 37.748 64.364 37.856 64.364 38.048V38.3C64.364 38.744 64.364 39.248 64.34 39.74ZM64.364 36.932C64.364 37.124 64.472 37.232 64.664 37.232H65.096C65.288 37.232 65.396 37.124 65.396 36.932V35.336C65.396 35.144 65.288 35.036 65.096 35.036H64.664C64.472 35.036 64.364 35.144 64.364 35.336V36.932ZM66.968 38.156C66.896 37.976 66.932 37.856 67.076 37.808C67.088 37.808 67.112 37.796 67.124 37.796C67.256 37.76 67.328 37.688 67.412 37.592C68.072 36.8 68.876 35.132 69.188 34.052C69.236 33.872 69.368 33.788 69.548 33.848L70.904 34.256C71.096 34.316 71.216 34.484 71.072 34.628C71.048 34.652 71.012 34.676 70.976 34.688C70.832 34.76 70.712 34.784 70.616 34.916C70.04 35.744 69.224 36.704 68.444 37.472C68.24 37.664 68.312 37.832 68.588 37.808C69.416 37.76 70.448 37.7 71.504 37.628C71.744 37.604 71.828 37.448 71.708 37.256C71.492 36.896 71.228 36.548 70.964 36.236C70.832 36.092 70.784 35.984 70.844 35.936C70.904 35.888 71.012 35.888 71.18 35.948C74.6 37.22 73.796 39.656 72.584 39.128C72.44 39.068 72.38 38.96 72.356 38.804C72.32 38.624 72.272 38.456 72.188 38.264C72.128 38.084 71.984 38.024 71.816 38.084C70.868 38.372 69.548 38.744 67.976 39.104C67.832 39.14 67.76 39.164 67.76 39.164C67.76 39.176 67.76 39.176 67.748 39.176C67.616 39.344 67.436 39.26 67.352 39.068L66.968 38.156ZM69.08 43.184C69.08 43.376 69.188 43.484 69.38 43.484H71.132C71.324 43.484 71.432 43.376 71.432 43.184V40.832C71.432 40.64 71.324 40.532 71.132 40.532H69.38C69.188 40.532 69.08 40.64 69.08 40.832V43.184ZM84.372 38.864C84.528 38.864 84.648 38.816 84.744 38.696L85.116 38.264C85.236 38.12 85.392 38.096 85.536 38.204C85.824 38.408 86.172 38.66 86.46 38.9C86.592 39.008 86.676 39.152 86.556 39.284C86.496 39.356 86.4 39.38 86.292 39.38H83.364C83.064 39.38 82.992 39.632 83.268 39.752C84.096 40.112 85.152 40.364 86.46 40.496C86.652 40.508 86.76 40.556 86.76 40.664C86.748 40.784 86.676 40.832 86.556 40.94C86.4 41.096 86.292 41.324 86.232 41.624C86.196 41.828 86.124 41.924 86.028 41.9L85.968 41.876C85.848 41.84 85.788 41.828 85.764 41.828C85.752 41.816 85.752 41.816 85.74 41.816C85.704 41.804 85.68 41.804 85.632 41.792C85.476 41.84 85.404 41.96 85.404 42.128V44.552C85.38 44.768 84.732 44.936 84.348 44.936C84.216 44.936 84.132 44.828 84.132 44.636V44.564C84.132 44.372 84.024 44.264 83.832 44.264H82.968C82.776 44.264 82.668 44.372 82.668 44.564V44.648C82.668 44.888 82.092 45.08 81.6 45.08C81.492 45.08 81.432 44.972 81.432 44.78V41.06C81.432 40.844 81.576 40.736 81.78 40.808L82.536 41.084C82.656 41.132 82.776 41.156 82.908 41.156H83.808C83.952 41.156 84.036 41.144 84.036 41.144L84.048 41.132C83.256 40.7 82.668 40.196 82.164 39.56C82.056 39.428 81.948 39.38 81.792 39.38H80.568C80.424 39.38 80.304 39.428 80.196 39.536C79.68 40.028 79.056 40.484 78.312 40.892C78.084 41.012 77.916 41.12 77.94 41.132C77.988 41.156 78.06 41.156 78.192 41.156H78.996C79.14 41.156 79.26 41.12 79.368 41.012L79.608 40.784C79.74 40.664 79.884 40.64 80.028 40.748L80.82 41.312C80.964 41.42 81.036 41.588 80.88 41.708C80.856 41.72 80.832 41.744 80.808 41.756C80.652 41.84 80.568 41.924 80.568 42.092V44.456C80.544 44.696 79.908 44.876 79.536 44.876C79.404 44.876 79.32 44.768 79.32 44.576V44.564C79.32 44.372 79.212 44.264 79.02 44.264H78.252C78.06 44.264 77.952 44.372 77.952 44.564V44.732C77.952 44.948 77.436 45.152 76.908 45.152C76.8 45.152 76.728 45.044 76.728 44.852V41.96C76.728 41.744 76.596 41.648 76.392 41.708C76.152 41.792 75.924 41.864 75.684 41.924C75.504 41.96 75.396 41.948 75.348 41.852C75.3 41.768 75.384 41.684 75.576 41.6C76.812 41.072 77.736 40.424 78.432 39.752C78.624 39.56 78.528 39.38 78.264 39.38H75.78C75.612 39.38 75.492 39.308 75.444 39.128C75.396 38.972 75.504 38.864 75.72 38.864H78.96C79.116 38.864 79.236 38.816 79.32 38.684C79.452 38.516 79.548 38.348 79.644 38.192C79.776 37.964 79.776 37.796 79.668 37.808C79.596 37.82 79.524 37.832 79.464 37.832C79.332 37.832 79.26 37.748 79.26 37.616C79.26 37.484 79.152 37.412 78.96 37.412H78.12C77.928 37.412 77.82 37.52 77.82 37.712V37.904C77.82 38.144 77.256 38.324 76.776 38.324C76.668 38.324 76.596 38.216 76.596 38.024V34.508C76.596 34.292 76.728 34.184 76.944 34.268L77.688 34.544C77.808 34.592 77.928 34.604 78.06 34.604H78.936C79.08 34.604 79.2 34.556 79.308 34.448L79.524 34.232C79.644 34.1 79.8 34.076 79.944 34.184L80.748 34.748C80.904 34.856 80.964 35.048 80.796 35.156C80.784 35.168 80.76 35.18 80.736 35.192C80.58 35.276 80.496 35.372 80.496 35.54V37.424C80.496 37.46 80.484 37.496 80.472 37.52L81.228 37.76C81.432 37.832 81.564 37.724 81.564 37.508V34.508C81.564 34.292 81.708 34.184 81.912 34.256L82.668 34.532C82.788 34.58 82.908 34.604 83.04 34.604H84C84.144 34.604 84.264 34.556 84.372 34.448L84.612 34.208C84.732 34.076 84.888 34.052 85.032 34.16L85.884 34.76C86.04 34.868 86.1 35.06 85.932 35.168C85.908 35.192 85.872 35.204 85.848 35.228C85.692 35.3 85.596 35.396 85.596 35.564V37.448C85.596 37.58 85.596 37.7 85.476 37.772C85.272 37.916 84.828 38.012 84.54 38.012C84.408 38.012 84.324 37.904 84.324 37.712C84.324 37.52 84.216 37.412 84.024 37.412H83.1C82.908 37.412 82.8 37.424 82.8 37.448V37.496C83.784 37.7 83.988 38.24 83.844 38.6C83.76 38.792 83.772 38.864 83.976 38.864H84.372ZM77.82 36.596C77.82 36.788 77.928 36.896 78.12 36.896H78.96C79.152 36.896 79.26 36.788 79.26 36.596V35.408C79.26 35.216 79.152 35.108 78.96 35.108H78.12C77.928 35.108 77.82 35.216 77.82 35.408V36.596ZM77.952 43.448C77.952 43.64 78.06 43.748 78.252 43.748H79.02C79.212 43.748 79.32 43.64 79.32 43.448V41.972C79.32 41.78 79.212 41.672 79.02 41.672H78.252C78.06 41.672 77.952 41.78 77.952 41.972V43.448ZM80.988 38.564C80.88 38.732 80.988 38.864 81.228 38.864H82.524C82.74 38.864 82.872 38.72 82.764 38.516C82.692 38.36 82.572 38.192 82.44 38.036C82.332 37.916 82.212 37.88 82.056 37.916C81.948 37.928 81.84 37.94 81.732 37.94C81.72 37.94 81.72 38.036 81.6 38.156C81.552 38.204 81.504 38.24 81.432 38.252C81.264 38.288 81.156 38.312 81.06 38.456C81.036 38.492 81.012 38.528 80.988 38.564ZM82.668 43.448C82.668 43.64 82.776 43.748 82.968 43.748H83.832C84.024 43.748 84.132 43.64 84.132 43.448V41.972C84.132 41.78 84.024 41.672 83.832 41.672H82.968C82.776 41.672 82.668 41.78 82.668 41.972V43.448ZM82.8 36.596C82.8 36.788 82.908 36.896 83.1 36.896H84.024C84.216 36.896 84.324 36.788 84.324 36.596V35.408C84.324 35.216 84.216 35.108 84.024 35.108H83.1C82.908 35.108 82.8 35.216 82.8 35.408V36.596ZM98.104 35.492C98.224 35.348 98.38 35.336 98.524 35.444C98.86 35.696 99.256 35.984 99.568 36.248C99.7 36.356 99.784 36.488 99.688 36.632C99.628 36.716 99.52 36.74 99.412 36.74H98.62C98.44 36.74 98.332 36.836 98.308 37.016C98.044 38.792 97.54 40.34 96.652 41.624C96.544 41.78 96.556 41.912 96.7 42.044C97.48 42.68 98.404 43.196 99.484 43.508C99.664 43.556 99.748 43.616 99.736 43.724C99.724 43.832 99.64 43.892 99.484 43.964C99.112 44.12 98.788 44.396 98.608 44.768C98.524 44.948 98.416 45.02 98.236 44.936C97.252 44.48 96.46 43.868 95.776 43.076C95.644 42.92 95.5 42.908 95.356 43.04C94.396 43.868 93.232 44.516 91.732 45.02C91.564 45.08 91.444 45.056 91.408 44.972C91.36 44.888 91.432 44.792 91.612 44.708C93.04 43.976 94.108 43.136 94.876 42.164C94.972 42.032 94.984 41.912 94.9 41.756C94.252 40.52 93.832 38.948 93.58 37.028C93.556 36.836 93.448 36.74 93.268 36.74C93.124 36.74 92.944 36.764 92.98 36.788C93.16 36.884 93.256 37.076 93.076 37.172C93.052 37.184 93.016 37.196 92.992 37.208C92.824 37.244 92.716 37.268 92.608 37.4C92.008 38.216 91.096 39.188 90.208 39.98C89.992 40.172 90.064 40.328 90.34 40.304C91.048 40.22 91.876 40.112 92.704 40.004C92.896 39.968 93.016 40.016 93.028 40.112C93.04 40.22 92.968 40.316 92.812 40.376C92.056 40.7 90.892 41.18 89.548 41.66C89.404 41.708 89.344 41.732 89.344 41.732L89.332 41.744C89.224 41.888 89.032 41.84 88.948 41.648L88.54 40.736C88.456 40.544 88.504 40.436 88.66 40.388C88.756 40.364 88.852 40.34 88.888 40.316C89.344 39.932 89.848 39.296 90.304 38.612C90.472 38.36 90.304 38.168 90.028 38.276C89.788 38.372 89.536 38.468 89.284 38.552C89.284 38.552 88.996 38.624 88.912 38.42L88.516 37.544C88.432 37.364 88.468 37.232 88.6 37.196C88.612 37.196 88.624 37.184 88.636 37.184C88.768 37.136 88.84 37.088 88.924 36.98C89.488 36.332 90.148 35.012 90.436 34.136C90.496 33.956 90.628 33.884 90.808 33.956L91.948 34.364C92.128 34.424 92.248 34.604 92.104 34.748C92.08 34.772 92.044 34.796 91.996 34.808C91.84 34.856 91.732 34.892 91.636 35.012C91.18 35.636 90.532 36.332 89.92 36.908C89.716 37.088 89.548 37.268 89.572 37.268H89.632C89.716 37.268 89.812 37.256 89.896 37.256L90.556 37.22C90.676 37.22 90.796 37.22 90.916 37.208C91.084 37.196 91.192 37.136 91.264 36.98C91.372 36.764 91.468 36.572 91.54 36.392C91.624 36.212 91.756 36.152 91.936 36.248L92.236 36.404C92.464 36.524 92.656 36.608 92.656 36.584L92.644 36.56C92.584 36.344 92.68 36.224 92.896 36.224H95.44C95.428 36.224 95.416 36.212 95.404 36.212C95.272 36.164 95.212 36.032 95.188 35.876C95.104 35.3 94.804 34.676 94.444 34.172C94.324 34.016 94.3 33.908 94.348 33.872C94.408 33.836 94.504 33.824 94.66 33.872C96.628 34.4 96.808 35.504 96.364 36.02C96.22 36.176 96.232 36.224 96.448 36.224H97.264C97.42 36.224 97.54 36.176 97.636 36.056L98.104 35.492ZM88.564 43.244C88.48 43.052 88.54 42.908 88.744 42.86C89.656 42.668 91.324 42.26 92.968 41.816C93.148 41.756 93.268 41.768 93.292 41.864C93.316 41.96 93.256 42.044 93.112 42.14C92.308 42.668 91.156 43.34 89.62 44.108C89.476 44.18 89.416 44.228 89.392 44.276C89.284 44.456 89.092 44.384 89.008 44.192L88.564 43.244ZM94.096 36.74C93.892 36.74 93.784 36.86 93.832 37.076C94.156 38.444 94.684 39.632 95.428 40.652C95.56 40.844 95.752 40.82 95.848 40.616C96.376 39.524 96.664 38.36 96.808 37.052C96.832 36.86 96.724 36.74 96.532 36.74H94.096ZM104.588 33.896C104.792 33.92 104.936 34.052 104.84 34.232C104.816 34.28 104.768 34.316 104.72 34.352C104.564 34.436 104.468 34.52 104.468 34.688V36.344C104.468 36.536 104.48 36.644 104.492 36.644H104.516L104.936 36.092C105.056 35.936 105.212 35.912 105.368 36.044C105.452 36.116 105.548 36.2 105.644 36.284C105.872 36.488 106.184 36.752 106.184 36.752L106.172 36.74C106.112 36.524 106.208 36.404 106.424 36.404H109.004C109.172 36.404 109.28 36.332 109.34 36.164C109.568 35.492 109.784 34.7 109.928 34.064C109.976 33.872 110.108 33.8 110.3 33.86L111.572 34.28C111.764 34.34 111.884 34.508 111.728 34.652C111.692 34.688 111.644 34.712 111.584 34.724C111.428 34.76 111.308 34.772 111.2 34.892C110.888 35.24 110.504 35.648 110.108 36.032C109.904 36.224 109.916 36.404 110.108 36.404H110.264C110.42 36.404 110.54 36.356 110.636 36.236L110.984 35.816C111.104 35.66 111.248 35.648 111.404 35.756C111.68 35.96 111.992 36.2 112.268 36.44C112.388 36.548 112.472 36.692 112.364 36.824C112.292 36.896 112.196 36.92 112.1 36.92H109.832C109.64 36.92 109.532 37.028 109.532 37.22V38.408C109.532 38.6 109.64 38.708 109.832 38.708H109.928C110.084 38.708 110.204 38.648 110.3 38.528L110.636 38.108C110.756 37.964 110.9 37.94 111.056 38.06C111.32 38.264 111.632 38.516 111.896 38.744C112.016 38.852 112.1 38.996 111.992 39.128C111.92 39.2 111.824 39.224 111.728 39.224H109.832C109.64 39.224 109.532 39.332 109.532 39.524V41.024C109.532 41.216 109.64 41.324 109.832 41.324H110.528C110.684 41.324 110.804 41.264 110.9 41.144L111.26 40.7C111.38 40.544 111.536 40.532 111.68 40.652C111.968 40.868 112.292 41.12 112.556 41.348C112.688 41.456 112.772 41.588 112.676 41.732C112.616 41.816 112.52 41.84 112.412 41.84H109.832C109.64 41.84 109.532 41.948 109.532 42.14V44.732C109.532 44.912 109.136 45.14 108.452 45.14C108.296 45.14 108.212 45.032 108.212 44.84V42.14C108.212 41.948 108.104 41.84 107.912 41.84H105.86C105.692 41.84 105.572 41.768 105.524 41.588C105.476 41.432 105.584 41.324 105.8 41.324H107.912C108.104 41.324 108.212 41.216 108.212 41.024V39.524C108.212 39.332 108.104 39.224 107.912 39.224H106.724C106.556 39.224 106.436 39.152 106.388 38.972C106.34 38.816 106.448 38.708 106.664 38.708H107.912C108.104 38.708 108.212 38.6 108.212 38.408V37.22C108.212 37.028 108.104 36.92 107.912 36.92H106.46C106.304 36.92 106.256 37.004 106.136 37.1C106.076 37.148 106.004 37.16 105.932 37.16H104.768C104.576 37.16 104.468 37.268 104.468 37.46V37.724C104.468 37.892 104.552 38 104.72 38.084C106.928 39.056 106.124 40.652 105.272 40.28C105.128 40.22 105.08 40.112 105.068 39.956C105.032 39.704 104.948 39.428 104.84 39.164C104.732 38.888 104.468 38.948 104.468 39.248V44.636C104.468 44.888 103.892 45.092 103.448 45.092C103.292 45.092 103.196 44.984 103.196 44.792V40.772C103.196 40.484 103.004 40.424 102.848 40.664C102.464 41.228 102.032 41.72 101.576 42.176C101.444 42.32 101.336 42.356 101.276 42.284C101.216 42.224 101.228 42.116 101.324 41.96C102.128 40.688 102.632 39.08 102.944 37.484C102.98 37.28 102.872 37.16 102.668 37.16H101.864C101.696 37.16 101.576 37.088 101.528 36.908C101.48 36.752 101.588 36.644 101.804 36.644H102.896C103.088 36.644 103.196 36.536 103.196 36.344V34.076C103.196 33.884 103.316 33.764 103.508 33.788L104.588 33.896ZM106.472 34.208C106.376 34.04 106.352 33.932 106.4 33.896C106.448 33.86 106.544 33.872 106.7 33.932C109.4 34.904 108.44 36.788 107.372 36.296C107.228 36.236 107.18 36.128 107.156 35.984C107.072 35.396 106.784 34.736 106.472 34.208ZM123.24 37.856C123.432 37.904 123.576 38.072 123.432 38.228C123.408 38.252 123.384 38.276 123.348 38.288C123.18 38.372 123.084 38.42 123.072 38.6C123.048 39.668 123.024 40.604 122.88 41.396C122.832 41.672 122.736 42.02 122.748 42.008L122.76 41.996C126.3 42.968 125.844 45.212 124.728 44.912C124.584 44.876 124.524 44.78 124.464 44.636C124.176 43.952 123.54 43.148 122.928 42.524C122.772 42.356 122.604 42.404 122.52 42.608C122.052 43.676 121.128 44.432 119.376 44.96C119.196 45.008 119.088 44.984 119.028 44.864C118.968 44.756 119.04 44.648 119.232 44.564C122.028 43.328 122.04 41.648 122.052 37.952C122.052 37.736 122.172 37.628 122.376 37.676L123.24 37.856ZM114.3 45.056C114.24 45.008 114.24 44.912 114.312 44.744C114.996 43.172 115.02 41.324 115.02 39.728V37.772C115.02 37.556 115.164 37.46 115.368 37.532L116.136 37.808C116.268 37.856 116.376 37.868 116.508 37.868H117.42C117.588 37.868 117.708 37.784 117.756 37.616C117.876 37.196 117.996 36.68 118.104 36.188C118.152 35.984 118.044 35.864 117.84 35.864H116.436C116.16 35.864 116.16 35.984 116.424 36.128C117.828 36.968 117.072 38.12 116.328 37.808C116.184 37.736 116.148 37.616 116.124 37.46C116.076 37.04 115.872 36.56 115.656 36.176C115.56 36.008 115.524 35.9 115.548 35.888C115.56 35.876 115.248 35.864 115.032 35.864C114.864 35.864 114.744 35.792 114.696 35.612C114.648 35.456 114.756 35.348 114.972 35.348H116.352C116.64 35.348 117.012 35.348 117 35.336L116.976 35.324C116.976 34.916 116.736 34.4 116.436 34.04C116.304 33.896 116.256 33.788 116.316 33.74C116.376 33.68 116.484 33.668 116.652 33.692C118.044 33.944 118.296 34.652 118.056 35.096C117.96 35.276 117.96 35.348 118.176 35.348H118.32C118.476 35.348 118.596 35.3 118.692 35.18L118.992 34.82C119.112 34.676 119.268 34.664 119.412 34.772C119.664 34.952 119.952 35.168 120.204 35.384C120.324 35.492 120.408 35.636 120.288 35.768C120.228 35.84 120.144 35.864 120.036 35.864H119.976C119.724 35.864 119.244 35.996 119.364 36.032C119.556 36.092 119.676 36.26 119.532 36.404C119.496 36.44 119.448 36.464 119.4 36.488C119.244 36.548 119.136 36.572 119.04 36.704C118.848 36.98 118.644 37.256 118.44 37.508C118.272 37.712 118.236 37.868 118.344 37.868C118.488 37.868 118.596 37.82 118.692 37.7L118.932 37.424C119.052 37.28 119.208 37.268 119.352 37.376L120.012 37.892C120.132 38.012 120.216 38.156 120.096 38.288C120.036 38.36 119.952 38.384 119.856 38.384H119.04C118.74 38.384 118.692 38.612 118.956 38.744L119.064 38.792C119.244 38.888 119.352 39.092 119.184 39.164C119.16 39.176 119.136 39.176 119.112 39.188C118.956 39.2 118.836 39.224 118.728 39.332C118.164 39.884 117.432 40.34 116.7 40.652C116.532 40.724 116.424 40.7 116.364 40.592C116.304 40.496 116.352 40.388 116.508 40.268C117.024 39.86 117.456 39.32 117.78 38.744C117.9 38.54 117.792 38.384 117.564 38.384H116.436C116.244 38.384 116.136 38.492 116.136 38.684V39.728C116.136 41.168 116.028 43.4 114.588 44.924C114.456 45.068 114.36 45.104 114.3 45.056ZM115.236 44.792C115.188 44.672 115.26 44.588 115.428 44.492C116.772 43.832 117.84 42.956 118.656 41.72C118.764 41.564 118.896 41.516 119.064 41.6L119.916 42.008C120.132 42.116 120.264 42.008 120.264 41.78V36.752C120.264 36.536 120.408 36.428 120.612 36.512L121.272 36.764C121.392 36.812 121.512 36.836 121.644 36.836C121.776 36.836 121.848 36.74 121.86 36.548C121.884 36.236 121.884 35.888 121.896 35.552C121.908 35.36 121.8 35.252 121.608 35.252H120.396C120.228 35.252 120.108 35.18 120.06 35C120.012 34.844 120.12 34.736 120.336 34.736H123.408C123.564 34.736 123.684 34.688 123.78 34.568L124.164 34.112C124.284 33.968 124.44 33.956 124.584 34.064C124.872 34.28 125.22 34.532 125.496 34.772C125.616 34.88 125.7 35.012 125.58 35.156C125.52 35.228 125.436 35.252 125.34 35.252H123.552C123.384 35.252 123.276 35.312 123.192 35.468C123 35.816 122.796 36.164 122.592 36.476C122.448 36.68 122.532 36.836 122.772 36.836H123.432C123.576 36.836 123.696 36.8 123.804 36.692L123.984 36.512C124.116 36.392 124.26 36.368 124.404 36.476L125.088 36.968C125.244 37.088 125.304 37.256 125.148 37.364C125.136 37.376 125.124 37.376 125.112 37.388C124.968 37.484 124.872 37.556 124.872 37.724V41.828C124.848 42.056 124.272 42.212 123.936 42.212C123.816 42.212 123.744 42.104 123.744 41.912V37.652C123.744 37.46 123.636 37.352 123.444 37.352H121.692C121.5 37.352 121.392 37.46 121.392 37.652V41.924C121.392 42.128 120.948 42.332 120.432 42.332C120.324 42.332 120.264 42.296 120.264 42.26C120.264 42.224 120.24 42.368 120.06 42.428C120.036 42.44 120.012 42.44 119.976 42.44C119.82 42.464 119.7 42.476 119.592 42.596C118.44 43.736 117.132 44.444 115.584 44.888C115.404 44.936 115.284 44.9 115.236 44.792ZM116.124 42.5C116.076 42.404 116.124 42.296 116.292 42.188C117.168 41.636 117.864 40.916 118.38 40.04C118.476 39.872 118.62 39.824 118.788 39.908L119.616 40.304C119.808 40.388 119.904 40.604 119.724 40.688C119.7 40.7 119.676 40.712 119.64 40.712C119.484 40.724 119.364 40.748 119.256 40.868C118.488 41.636 117.516 42.2 116.472 42.572C116.292 42.632 116.184 42.608 116.124 42.5ZM133.3 35.168C133.444 35.168 133.564 35.132 133.672 35.024L134.044 34.688C134.188 34.556 134.32 34.58 134.464 34.688L135.34 35.384C135.496 35.516 135.544 35.732 135.352 35.792C135.316 35.804 135.28 35.816 135.232 35.816C135.088 35.84 134.98 35.876 134.872 35.972C134.548 36.272 134.152 36.608 133.768 36.908C133.54 37.088 133.588 37.268 133.876 37.268H135.472C135.616 37.268 135.736 37.22 135.844 37.112L136.132 36.824C136.264 36.692 136.408 36.692 136.552 36.788L137.5 37.436C137.668 37.544 137.704 37.724 137.548 37.856C137.512 37.88 137.476 37.904 137.428 37.928C137.272 38 137.176 38.096 137.176 38.264V41.096C137.152 41.312 136.468 41.516 136.036 41.516C135.88 41.516 135.796 41.408 135.796 41.216V41.024C135.796 40.832 135.688 40.724 135.496 40.724H130.528C130.336 40.724 130.228 40.832 130.228 41.024V43.052C130.228 43.436 130.564 43.544 131.392 43.544H135.616C136.348 43.544 136.72 43.496 136.924 43.244C137.14 42.968 137.404 42.344 137.608 41.756C137.668 41.588 137.716 41.516 137.752 41.516C137.788 41.516 137.812 41.612 137.812 41.816L137.824 43.016C137.824 43.184 137.908 43.304 138.088 43.352C138.46 43.46 138.616 43.556 138.616 43.832C138.616 44.48 138.076 44.816 135.736 44.816H131.44C129.7 44.816 128.884 44.432 128.884 43.028V38.504C128.884 38.252 128.716 38.168 128.512 38.324C128.212 38.552 127.912 38.768 127.612 38.948C127.456 39.044 127.348 39.056 127.3 38.984C127.252 38.924 127.288 38.828 127.432 38.684C128.656 37.496 129.844 35.612 130.42 33.968C130.492 33.8 130.6 33.716 130.792 33.764L132.124 34.076C132.328 34.124 132.484 34.328 132.292 34.436C132.268 34.448 132.232 34.46 132.184 34.472C132.016 34.496 131.908 34.532 131.812 34.676C131.788 34.724 131.764 34.76 131.728 34.808C131.608 35.012 131.692 35.168 131.932 35.168H133.3ZM130.168 36.824C130 36.992 130 37.136 130.144 37.184L130.216 37.208C130.348 37.256 130.456 37.268 130.588 37.268H132.508C132.664 37.268 132.784 37.208 132.868 37.064C133.048 36.74 133.204 36.368 133.348 36.032C133.432 35.828 133.336 35.684 133.12 35.684H131.344C131.188 35.684 131.08 35.732 130.972 35.864C130.72 36.2 130.444 36.524 130.168 36.824ZM130.228 39.908C130.228 40.1 130.336 40.208 130.528 40.208H132.016C132.208 40.208 132.316 40.1 132.316 39.908V38.072C132.316 37.88 132.208 37.772 132.016 37.772H130.528C130.336 37.772 130.228 37.88 130.228 38.072V39.908ZM133.636 39.908C133.636 40.1 133.744 40.208 133.936 40.208H135.496C135.688 40.208 135.796 40.1 135.796 39.908V38.072C135.796 37.88 135.688 37.772 135.496 37.772H133.936C133.744 37.772 133.636 37.88 133.636 38.072V39.908Z" fill="#AA967F"/>
</svg>
