<svg width="47" height="15" viewBox="0 0 47 15" fill="none" xmlns="http://www.w3.org/2000/svg">
<path d="M11.2601 1.27C11.4401 1.27 11.5901 1.225 11.7251 1.075L12.0401 0.745C12.1901 0.579999 12.3851 0.549999 12.5651 0.684999L13.6901 1.465C13.9001 1.615 13.9451 1.84 13.7351 1.99C13.7051 2.02 13.6601 2.035 13.6151 2.065C13.4201 2.155 13.3001 2.275 13.3001 2.485V12.43C13.3001 13.45 13.0751 14.11 11.3951 14.335C11.1551 14.365 11.0051 14.26 10.9601 14.02C10.9001 13.735 10.8101 13.51 10.5701 13.33C10.3601 13.135 10.0151 13 9.38512 12.88C9.14512 12.835 9.02512 12.73 9.02512 12.595C9.02512 12.46 9.16012 12.4 9.41512 12.415C10.2401 12.46 11.0651 12.505 11.3051 12.505C11.6351 12.505 11.6651 12.46 11.6651 12.265V9.175C11.6651 8.935 11.5301 8.8 11.2901 8.8H8.92012C8.69512 8.8 8.56012 8.905 8.50012 9.13C8.06512 11.11 6.98512 12.94 4.34512 14.23C4.13512 14.32 4.01512 14.335 3.92512 14.245C3.85012 14.17 3.91012 14.02 4.12012 13.87C6.76012 11.755 7.15012 9.205 7.15012 6.175V1.105C7.15012 0.834999 7.31512 0.699999 7.57012 0.79L8.78512 1.195C8.95012 1.255 9.08512 1.27 9.25012 1.27H11.2601ZM0.745122 11.695C0.655122 11.695 0.595122 11.56 0.595122 11.32V1.375C0.595122 1.105 0.775122 0.984999 1.03012 1.075L2.15512 1.465C2.32012 1.525 2.45512 1.54 2.62012 1.54H3.74512C3.92512 1.54 4.07512 1.48 4.21012 1.345L4.54012 1.015C4.70512 0.849999 4.88512 0.834999 5.06512 0.969999L6.11512 1.735C6.31012 1.885 6.38512 2.095 6.19012 2.245C6.14512 2.275 6.10012 2.305 6.05512 2.32C5.86012 2.425 5.75512 2.545 5.75512 2.755V10.42C5.72512 10.72 4.91512 11.005 4.40512 11.005C4.24012 11.005 4.15012 10.87 4.15012 10.63V10.12C4.15012 9.88 4.01512 9.745 3.77512 9.745H2.56012C2.32012 9.745 2.18512 9.88 2.18512 10.12V11.125C2.18512 11.395 1.64512 11.695 0.880122 11.695H0.745122ZM2.18512 8.725C2.18512 8.965 2.32012 9.1 2.56012 9.1H3.77512C4.01512 9.1 4.15012 8.965 4.15012 8.725V6.295C4.15012 6.055 4.01512 5.92 3.77512 5.92H2.56012C2.32012 5.92 2.18512 6.055 2.18512 6.295V8.725ZM2.18512 4.915C2.18512 5.155 2.32012 5.29 2.56012 5.29H3.77512C4.01512 5.29 4.15012 5.155 4.15012 4.915V2.56C4.15012 2.32 4.01512 2.185 3.77512 2.185H2.56012C2.32012 2.185 2.18512 2.32 2.18512 2.56V4.915ZM8.71012 7.78C8.68012 8.035 8.81512 8.17 9.05512 8.17H11.2901C11.5301 8.17 11.6651 8.035 11.6651 7.795V5.71C11.6651 5.47 11.5301 5.335 11.2901 5.335H9.14512C8.90512 5.335 8.77012 5.47 8.77012 5.71V6.16C8.77012 6.685 8.75512 7.24 8.71012 7.78ZM8.77012 4.315C8.77012 4.555 8.90512 4.69 9.14512 4.69H11.2901C11.5301 4.69 11.6651 4.555 11.6651 4.315V2.29C11.6651 2.05 11.5301 1.915 11.2901 1.915H9.14512C8.90512 1.915 8.77012 2.05 8.77012 2.29V4.315ZM28.2051 5.785C28.3551 5.59 28.5351 5.56 28.7301 5.725C29.0901 6.01 29.4951 6.355 29.8401 6.655C29.9901 6.805 30.0951 6.97 29.9601 7.15C29.8701 7.24 29.7501 7.27 29.6301 7.27H26.9901C26.7051 7.27 26.5701 7.45 26.7051 7.72C27.4401 9.115 28.7001 10.24 29.9451 11.02C30.1251 11.125 30.2151 11.215 30.2001 11.365C30.1851 11.5 30.0801 11.605 29.9001 11.695C29.3751 11.965 29.0151 12.28 28.8501 12.64C28.7451 12.88 28.6401 12.925 28.4751 12.73C27.6051 11.74 26.9451 10.36 26.4951 8.845C26.3901 8.515 26.1651 8.545 26.1651 8.89V13.705C26.1651 14.05 25.3701 14.365 24.7401 14.365C24.5301 14.365 24.4101 14.23 24.4101 13.99V10.15C24.4101 9.805 24.1851 9.715 23.9601 9.985C22.8351 11.26 21.4251 12.34 19.7151 13.15C19.5051 13.255 19.3551 13.24 19.2951 13.135C19.2351 13.03 19.2951 12.895 19.4901 12.76C21.2601 11.41 22.5951 9.58 23.3751 7.705C23.4951 7.45 23.3601 7.27 23.0901 7.27H21.2001C20.9901 7.27 20.8401 7.18 20.7801 6.955C20.7201 6.76 20.8551 6.625 21.1251 6.625H24.0351C24.2751 6.625 24.4101 6.49 24.4101 6.25V4.345C24.4101 4.105 24.2751 3.97 24.0351 3.97H23.1351C22.9401 3.97 22.7901 4.045 22.6851 4.225C22.3551 4.765 22.0101 5.23 21.6201 5.605C21.4851 5.74 21.5001 5.845 21.5001 5.995C21.5151 6.07 21.5001 6.145 21.4401 6.22C21.3651 6.31 21.2601 6.34 21.1401 6.34H19.7151C19.4751 6.34 19.3401 6.475 19.3401 6.715V9.43C19.3401 9.7 19.5051 9.835 19.7601 9.745C20.0301 9.67 20.2851 9.58 20.5551 9.49L20.8101 9.415C20.9601 9.37 21.0351 9.355 21.0651 9.34C21.0801 9.34 21.0951 9.34 21.1101 9.325C21.3351 9.25 21.4851 9.28 21.5151 9.385C21.5601 9.505 21.4851 9.61 21.3051 9.73C20.3301 10.39 18.9651 11.245 17.1801 12.265C17.0151 12.355 16.9401 12.4 16.9401 12.415C16.9401 12.43 16.9401 12.43 16.9251 12.445C16.8051 12.7 16.5501 12.595 16.4451 12.355L15.9501 11.275C15.8451 11.05 15.9351 10.87 16.1901 10.795C16.5051 10.72 16.9101 10.615 17.3751 10.465C17.5851 10.405 17.6901 10.255 17.6901 10.045V6.715C17.6901 6.475 17.5551 6.34 17.3151 6.34H16.5501C16.3401 6.34 16.1901 6.25 16.1301 6.025C16.0701 5.83 16.2051 5.695 16.4751 5.695H17.3151C17.5551 5.695 17.6901 5.56 17.6901 5.32V2.605C17.6901 2.365 17.5551 2.23 17.3151 2.23H16.4601C16.2501 2.23 16.1001 2.14 16.0401 1.915C15.9801 1.72 16.1151 1.585 16.3851 1.585H19.0251C19.2201 1.585 19.3701 1.51 19.4901 1.36L19.9401 0.805C20.0901 0.624999 20.2701 0.579999 20.4651 0.73C20.8101 1.015 21.2151 1.33 21.5451 1.615C21.6951 1.75 21.8001 1.915 21.6801 2.095C21.6051 2.2 21.4851 2.23 21.3501 2.23H19.7151C19.4751 2.23 19.3401 2.365 19.3401 2.605V5.32C19.3401 5.56 19.3851 5.695 19.4451 5.695C19.5201 5.695 19.5951 5.62 19.7151 5.455L20.0301 5.02C20.1651 4.81 20.3601 4.78 20.5551 4.96C20.6301 5.02 20.6901 5.095 20.7651 5.17C20.9751 5.365 21.1851 5.32 21.2751 5.065C21.6651 4.015 21.9351 2.695 22.0701 1.39C22.0851 1.12 22.2651 1.015 22.5051 1.09L23.9301 1.51C24.1701 1.585 24.3201 1.81 24.1251 1.99C24.0801 2.02 24.0351 2.05 23.9901 2.08C23.7801 2.155 23.6451 2.2 23.5701 2.395C23.4951 2.575 23.4351 2.725 23.3601 2.89C23.2551 3.145 23.3601 3.325 23.6451 3.325H24.0351C24.2751 3.325 24.4101 3.19 24.4101 2.95V0.624999C24.4101 0.385 24.5601 0.25 24.8001 0.264999L26.3301 0.414999C26.5851 0.445 26.7651 0.609999 26.6451 0.834999C26.6001 0.894999 26.5551 0.94 26.4801 0.984999C26.2851 1.09 26.1651 1.195 26.1651 1.405V2.95C26.1651 3.19 26.3001 3.325 26.5401 3.325H26.8251C27.0201 3.325 27.1701 3.265 27.2901 3.1L27.7401 2.515C27.8901 2.32 28.0701 2.29 28.2651 2.455C28.6251 2.74 29.0301 3.07 29.3601 3.355C29.5251 3.505 29.6151 3.67 29.4801 3.85C29.3901 3.94 29.2701 3.97 29.1501 3.97H26.5401C26.3001 3.97 26.1651 4.105 26.1651 4.345V6.25C26.1651 6.49 26.3001 6.625 26.5401 6.625H27.2601C27.4551 6.625 27.6051 6.565 27.7251 6.4L28.2051 5.785ZM44.8801 4.78C45.1051 4.93 45.1501 5.17 44.9401 5.29C44.9251 5.305 44.8951 5.305 44.8801 5.32C44.6701 5.41 44.5501 5.5 44.5351 5.725C44.5201 6.55 44.4901 7.285 44.4751 7.945L44.4301 9.34C44.3701 11.05 44.3401 12.04 44.3551 12.475C44.3551 12.655 44.3551 12.655 44.5201 12.655H44.8351C45.0001 12.655 45.0451 12.625 45.0751 12.535C45.2101 12.19 45.3451 11.575 45.4651 10.96C45.5251 10.735 45.5851 10.615 45.6301 10.615C45.6751 10.63 45.7051 10.735 45.7051 10.975L45.6751 12.175C45.6751 12.4 45.7801 12.505 45.9751 12.61C46.1701 12.73 46.2301 12.85 46.2301 13.09C46.2301 13.69 45.8101 14.035 44.8501 14.035H44.3101C43.3051 14.035 42.9151 13.63 42.9151 12.565C42.9151 12.235 42.9301 11.8 42.9451 11.215C42.9451 10.855 42.9601 10.435 42.9751 9.94C43.0201 8.89 43.0651 7.48 43.1101 5.635C43.1251 5.38 42.9901 5.245 42.7501 5.245H41.4301C41.2051 5.245 41.0551 5.365 41.0401 5.605C40.9051 7.69 40.7401 10.015 40.6051 11.53C40.5751 11.815 40.7551 11.935 41.0251 11.845C41.4151 11.695 41.8051 11.53 42.2101 11.365C42.4351 11.275 42.5851 11.275 42.6301 11.395C42.6751 11.5 42.6151 11.62 42.4501 11.77C41.8501 12.28 40.9351 13.06 39.8701 13.825C39.7351 13.93 39.6901 13.975 39.6901 13.975C39.6601 14.05 39.3301 14.185 39.1801 13.945L38.5951 13.06C38.4751 12.865 38.5351 12.73 38.7001 12.565C38.9101 12.355 39.1051 12.025 39.1651 11.62C39.3151 10.69 39.6301 5.2 39.7651 2.575C39.7801 2.335 39.6301 2.2 39.3901 2.2H39.1051C38.8951 2.2 38.7451 2.11 38.6851 1.885C38.6251 1.69 38.7601 1.555 39.0301 1.555H43.2451C43.4401 1.555 43.5901 1.495 43.7101 1.345L44.1601 0.805C44.3101 0.624999 44.5051 0.595 44.6851 0.73C45.0451 1 45.4651 1.3 45.8101 1.6C45.9601 1.735 46.0651 1.915 45.9301 2.08C45.8401 2.17 45.7351 2.2 45.6151 2.2H41.6251C41.4001 2.2 41.2501 2.335 41.2351 2.56L41.1301 4.21C41.1151 4.45 41.2501 4.6 41.4901 4.6H42.7351C42.9301 4.6 43.0651 4.525 43.1851 4.39L43.3801 4.18C43.5301 4 43.6951 3.97 43.8901 4.105L44.8801 4.78ZM31.9201 14.26C31.8451 14.17 31.8751 14.05 32.0101 13.87C33.1951 12.295 33.4501 10.495 33.5101 8.665C33.5251 8.425 33.3901 8.29 33.1501 8.29H32.3551C32.1451 8.29 31.9951 8.2 31.9351 7.975C31.8751 7.78 32.0101 7.645 32.2801 7.645H33.1501C33.3901 7.645 33.5251 7.51 33.5251 7.27V4.615C33.5251 4.375 33.3901 4.24 33.1501 4.24H32.6101C32.4001 4.24 32.2501 4.15 32.1901 3.925C32.1301 3.73 32.2651 3.595 32.5351 3.595H35.4751C35.6851 3.595 35.8201 3.505 35.8951 3.295C36.1501 2.515 36.3901 1.54 36.6001 0.595C36.6451 0.339999 36.8101 0.25 37.0501 0.325L38.4751 0.774999C38.7151 0.849999 38.8651 1.06 38.6851 1.24C38.6401 1.285 38.5801 1.33 38.5051 1.345C38.3101 1.405 38.1751 1.45 38.0551 1.615C37.6651 2.155 37.2451 2.695 36.8401 3.145C36.6151 3.385 36.5551 3.595 36.7351 3.595H36.7951C36.9901 3.595 37.1401 3.52 37.2601 3.37L37.5901 2.965C37.7401 2.785 37.9201 2.755 38.1151 2.905C38.4001 3.13 38.7151 3.385 38.9851 3.625C39.1501 3.775 39.2401 3.94 39.1051 4.12C39.0301 4.21 38.9251 4.24 38.8051 4.24H37.8901C37.6501 4.24 37.5151 4.375 37.5151 4.615V6.79C37.5151 7.135 37.7101 7.285 37.8901 7.06C38.0401 6.88 38.2201 6.85 38.4151 7C38.6701 7.21 38.9701 7.45 39.2101 7.675C39.3751 7.825 39.4651 7.99 39.3301 8.17C39.2551 8.26 39.1501 8.29 39.0301 8.29H37.8901C37.6501 8.29 37.5151 8.425 37.5151 8.665V13.915C37.5151 14.14 37.0951 14.395 36.3451 14.395C36.1951 14.395 36.1051 14.26 36.1051 14.02V8.665C36.1051 8.425 35.9701 8.29 35.7301 8.29H35.2801C35.0401 8.29 34.9201 8.41 34.9051 8.65C34.8001 10.57 34.3201 12.67 32.3251 14.17C32.1301 14.32 31.9951 14.335 31.9201 14.26ZM32.7901 0.774999C32.6701 0.564999 32.6401 0.429999 32.7151 0.385C32.7901 0.325 32.9101 0.339999 33.1051 0.414999C36.3001 1.72 35.1151 3.985 33.8551 3.415C33.6751 3.325 33.6151 3.19 33.6001 2.995C33.5101 2.245 33.1651 1.42 32.7901 0.774999ZM34.9351 7.27C34.9351 7.51 35.0701 7.645 35.3101 7.645H35.7301C35.9701 7.645 36.1051 7.51 36.1051 7.27V4.615C36.1051 4.375 35.9701 4.24 35.7301 4.24H35.3101C35.0701 4.24 34.9351 4.375 34.9351 4.615V7.27ZM41.1301 6.94C41.0401 6.7 41.0401 6.565 41.1151 6.535C41.2051 6.505 41.3101 6.55 41.4751 6.685C43.5901 8.35 42.6751 10.06 41.8051 9.61C41.6401 9.52 41.5951 9.37 41.5951 9.19C41.5651 8.47 41.3551 7.615 41.1301 6.94Z" fill="#7A6855"/>
</svg>
