<svg width="62" height="15" viewBox="0 0 62 15" fill="none" xmlns="http://www.w3.org/2000/svg">
    <path d="M7.62 4.47C8.36 3.13 8.935 1.795 9.345 0.464999C9.755 0.644999 10.11 0.819999 10.41 0.99C10.72 1.16 10.905 1.27 10.965 1.32C11.035 1.37 11.07 1.42 11.07 1.47C11.07 1.51 10.965 1.565 10.755 1.635C10.555 1.695 10.375 1.84 10.215 2.07C9.745 2.74 9.095 3.54 8.265 4.47H10.425L11.07 3.45C11.15 3.32 11.215 3.255 11.265 3.255C11.365 3.255 11.605 3.415 11.985 3.735C12.375 4.045 12.65 4.275 12.81 4.425C12.97 4.565 13.05 4.685 13.05 4.785C13.05 4.885 12.925 4.935 12.675 4.935H7.8C7.77 5.945 7.71 6.84 7.62 7.62H11.475L12.165 6.63C12.255 6.5 12.335 6.435 12.405 6.435C12.555 6.435 12.85 6.64 13.29 7.05C13.73 7.46 13.95 7.735 13.95 7.875C13.95 8.005 13.83 8.07 13.59 8.07H8.175C8.655 9.44 9.37 10.505 10.32 11.265C11.27 12.015 12.57 12.545 14.22 12.855V13.185C13.63 13.165 13.2 13.215 12.93 13.335C12.66 13.455 12.42 13.665 12.21 13.965C12.16 14.035 12.105 14.07 12.045 14.07C11.915 14.07 11.515 13.825 10.845 13.335C10.185 12.845 9.61 12.21 9.12 11.43C8.64 10.65 8.18 9.53 7.74 8.07H7.56C7.33 9.68 6.77 10.925 5.88 11.805C4.99 12.685 3.39 13.535 1.08 14.355L0.93 14.055C2.66 13.205 3.92 12.335 4.71 11.445C5.5 10.555 5.99 9.43 6.18 8.07H1.965C1.695 8.07 1.485 8.105 1.335 8.175L1.065 7.545C1.275 7.595 1.525 7.62 1.815 7.62H6.225C6.285 7.1 6.315 6.605 6.315 6.135C6.315 5.655 6.31 5.255 6.3 4.935H2.505C2.235 4.935 2.025 4.97 1.875 5.04L1.605 4.395C1.815 4.445 2.065 4.47 2.355 4.47H7.62ZM3.48 0.84C4.26 1.23 4.835 1.55 5.205 1.8C5.585 2.05 5.835 2.27 5.955 2.46C6.075 2.64 6.135 2.88 6.135 3.18C6.135 3.48 6.05 3.745 5.88 3.975C5.71 4.195 5.56 4.305 5.43 4.305C5.3 4.305 5.215 4.28 5.175 4.23C5.135 4.17 5.04 3.93 4.89 3.51C4.75 3.08 4.565 2.7 4.335 2.37C4.105 2.03 3.76 1.6 3.3 1.08L3.48 0.84ZM22.66 2.46H18.595C18.325 2.46 18.115 2.495 17.965 2.565L17.695 1.905C17.905 1.955 18.155 1.98 18.445 1.98H26.635L27.4 1.005C27.49 0.895 27.56 0.84 27.61 0.84C27.67 0.84 27.82 0.94 28.06 1.14C28.3 1.34 28.55 1.575 28.81 1.845C29.07 2.105 29.2 2.27 29.2 2.34C29.2 2.42 29.095 2.46 28.885 2.46H24.055V6.66H28.06L28.585 5.73C28.695 5.53 28.82 5.43 28.96 5.43C29.11 5.43 29.41 5.665 29.86 6.135C30.32 6.595 30.55 6.885 30.55 7.005C30.55 7.115 30.455 7.17 30.265 7.17H24.055V12.255C24.055 12.785 24.01 13.15 23.92 13.35C23.83 13.56 23.56 13.775 23.11 13.995C22.67 14.225 22.38 14.34 22.24 14.34C22.16 14.34 22.1 14.265 22.06 14.115C21.99 13.835 21.91 13.63 21.82 13.5C21.74 13.37 21.585 13.245 21.355 13.125C21.135 13.005 20.745 12.845 20.185 12.645L20.2 12.36C21.13 12.54 21.735 12.63 22.015 12.63C22.305 12.63 22.485 12.585 22.555 12.495C22.625 12.415 22.66 12.27 22.66 12.06V7.17H17.125C16.855 7.17 16.645 7.205 16.495 7.275L16.225 6.585C16.435 6.635 16.685 6.66 16.975 6.66H22.66V2.46ZM40.04 5.625H37.88V7.62L39.83 6.915L39.98 7.215L37.88 8.37V12.465C37.88 12.835 37.825 13.115 37.715 13.305C37.615 13.495 37.37 13.69 36.98 13.89C36.6 14.09 36.345 14.19 36.215 14.19C36.095 14.19 36.015 14.115 35.975 13.965C35.865 13.585 35.68 13.3 35.42 13.11C35.17 12.93 34.655 12.72 33.875 12.48L33.935 12.135C35.055 12.285 35.75 12.36 36.02 12.36C36.3 12.36 36.47 12.33 36.53 12.27C36.59 12.22 36.62 12.125 36.62 11.985V9.06C35.76 9.52 35.175 9.845 34.865 10.035C34.555 10.225 34.375 10.365 34.325 10.455C34.275 10.545 34.205 10.59 34.115 10.59C34.035 10.59 33.965 10.57 33.905 10.53C33.855 10.49 33.735 10.32 33.545 10.02C33.355 9.72 33.175 9.41 33.005 9.09C34.045 8.86 35.25 8.52 36.62 8.07V5.625H33.815C33.545 5.625 33.335 5.66 33.185 5.73L32.915 5.055C33.125 5.105 33.375 5.13 33.665 5.13H36.62V3.45C35.41 3.69 34.285 3.83 33.245 3.87L33.2 3.54C34.48 3.19 35.49 2.865 36.23 2.565C36.98 2.255 37.76 1.865 38.57 1.395C39.33 2.235 39.71 2.725 39.71 2.865C39.71 2.915 39.68 2.94 39.62 2.94C39.57 2.94 39.515 2.935 39.455 2.925C39.395 2.905 39.325 2.895 39.245 2.895C39.045 2.895 38.59 2.98 37.88 3.15V5.13H40.01L39.665 0.584999C39.995 0.615 40.365 0.665 40.775 0.734999C41.195 0.794999 41.45 0.844999 41.54 0.884999C41.64 0.914999 41.69 0.97 41.69 1.05C41.69 1.13 41.515 1.295 41.165 1.545C41.165 2.995 41.2 4.19 41.27 5.13H43.835L44.45 4.2C44.52 4.09 44.605 4.035 44.705 4.035C44.815 4.035 45.105 4.25 45.575 4.68C46.045 5.1 46.28 5.365 46.28 5.475C46.28 5.575 46.155 5.625 45.905 5.625H41.3C41.42 6.975 41.6 8.04 41.84 8.82C42.38 8.02 42.815 7.19 43.145 6.33C43.995 6.66 44.47 6.855 44.57 6.915C44.68 6.975 44.735 7.045 44.735 7.125C44.735 7.195 44.655 7.25 44.495 7.29C44.345 7.32 44.155 7.51 43.925 7.86C43.335 8.73 42.785 9.44 42.275 9.99C42.495 10.45 42.77 10.895 43.1 11.325C43.44 11.755 43.675 12.02 43.805 12.12C43.935 12.22 44.06 12.27 44.18 12.27C44.3 12.27 44.41 12.215 44.51 12.105C44.62 12.005 44.765 11.665 44.945 11.085C45.135 10.505 45.3 9.935 45.44 9.375L45.785 9.495C45.615 10.295 45.53 10.99 45.53 11.58C45.53 12.17 45.68 12.815 45.98 13.515C46.04 13.665 46.07 13.785 46.07 13.875C46.07 14.055 45.91 14.145 45.59 14.145C43.89 14.145 42.485 13.055 41.375 10.875C40.505 11.635 39.405 12.31 38.075 12.9L37.925 12.63C39.105 11.81 40.115 10.915 40.955 9.945C40.505 8.835 40.2 7.395 40.04 5.625ZM41.915 1.83C42.645 2.01 43.18 2.175 43.52 2.325C43.86 2.475 44.08 2.625 44.18 2.775C44.28 2.925 44.33 3.115 44.33 3.345C44.33 3.575 44.245 3.8 44.075 4.02C43.905 4.24 43.715 4.35 43.505 4.35C43.445 4.35 43.395 4.335 43.355 4.305C43.325 4.275 43.285 4.2 43.235 4.08C42.855 3.29 42.365 2.63 41.765 2.1L41.915 1.83ZM50.91 5.685C50.27 6.675 49.51 7.6 48.63 8.46L48.405 8.25C50.025 5.98 51.18 3.35 51.87 0.36C52.33 0.59 52.715 0.789999 53.025 0.959999C53.335 1.12 53.51 1.225 53.55 1.275C53.59 1.315 53.61 1.36 53.61 1.41C53.61 1.52 53.515 1.595 53.325 1.635C53.235 1.655 53.15 1.725 53.07 1.845C53 1.955 52.79 2.35 52.44 3.03C52.09 3.7 51.835 4.165 51.675 4.425C51.825 4.495 51.99 4.585 52.17 4.695C52.36 4.805 52.455 4.89 52.455 4.95C52.455 5.04 52.32 5.145 52.05 5.265V13.905C52.05 13.985 52.04 14.04 52.02 14.07C52 14.1 51.91 14.16 51.75 14.25C51.59 14.35 51.42 14.43 51.24 14.49C51.07 14.56 50.96 14.595 50.91 14.595C50.87 14.595 50.85 14.54 50.85 14.43L50.895 13.02C50.905 12.58 50.91 12.165 50.91 11.775V5.685ZM54.84 1.065C55.55 1.515 56.095 1.925 56.475 2.295C56.855 2.655 57.045 2.98 57.045 3.27C57.045 3.56 56.96 3.82 56.79 4.05C56.63 4.27 56.43 4.38 56.19 4.38C56.09 4.38 55.99 4.325 55.89 4.215C55.79 4.105 55.735 3.955 55.725 3.765C55.655 2.885 55.285 2.07 54.615 1.32L54.84 1.065ZM59.7 2.49L60.24 1.8C60.32 1.69 60.39 1.635 60.45 1.635C60.5 1.635 60.66 1.745 60.93 1.965C61.21 2.175 61.415 2.345 61.545 2.475C61.685 2.595 61.755 2.705 61.755 2.805C61.755 2.905 61.555 3.035 61.155 3.195V12.3C61.155 12.87 61.065 13.275 60.885 13.515C60.705 13.755 60.425 13.95 60.045 14.1C59.675 14.25 59.43 14.325 59.31 14.325C59.2 14.325 59.13 14.3 59.1 14.25C59.08 14.2 59.07 14.065 59.07 13.845C59.07 13.635 58.97 13.465 58.77 13.335C58.58 13.205 58.125 13.02 57.405 12.78L57.495 12.435C58.275 12.555 58.81 12.615 59.1 12.615C59.4 12.615 59.61 12.585 59.73 12.525C59.85 12.465 59.91 12.325 59.91 12.105V2.955H58.05C57.86 2.955 57.68 2.99 57.51 3.06L57.12 2.43C57.37 2.47 57.62 2.49 57.87 2.49H59.7ZM53.94 4.14C54.22 4.22 54.51 4.315 54.81 4.425C55.11 4.525 55.28 4.595 55.32 4.635C55.37 4.675 55.395 4.73 55.395 4.8C55.395 4.87 55.285 4.975 55.065 5.115V13.785C55.065 13.875 55.05 13.935 55.02 13.965C54.99 13.995 54.915 14.04 54.795 14.1C54.675 14.17 54.51 14.225 54.3 14.265C54.1 14.315 53.98 14.34 53.94 14.34C53.91 14.34 53.895 14.315 53.895 14.265L53.94 13.395C53.96 13.045 53.97 12.635 53.97 12.165V5.475C53.97 5.035 53.96 4.59 53.94 4.14Z"
          fill="#9A764E"/>
</svg>
