<svg width="63" height="15" viewBox="0 0 63 15" fill="none" xmlns="http://www.w3.org/2000/svg">
    <path d="M8.04 5.625H5.88V7.62L7.83 6.915L7.98 7.215L5.88 8.37V12.465C5.88 12.835 5.825 13.115 5.715 13.305C5.615 13.495 5.37 13.69 4.98 13.89C4.6 14.09 4.345 14.19 4.215 14.19C4.095 14.19 4.015 14.115 3.975 13.965C3.865 13.585 3.68 13.3 3.42 13.11C3.17 12.93 2.655 12.72 1.875 12.48L1.935 12.135C3.055 12.285 3.75 12.36 4.02 12.36C4.3 12.36 4.47 12.33 4.53 12.27C4.59 12.22 4.62 12.125 4.62 11.985V9.06C3.76 9.52 3.175 9.845 2.865 10.035C2.555 10.225 2.375 10.365 2.325 10.455C2.275 10.545 2.205 10.59 2.115 10.59C2.035 10.59 1.965 10.57 1.905 10.53C1.855 10.49 1.735 10.32 1.545 10.02C1.355 9.72 1.175 9.41 1.005 9.09C2.045 8.86 3.25 8.52 4.62 8.07V5.625H1.815C1.545 5.625 1.335 5.66 1.185 5.73L0.915 5.055C1.125 5.105 1.375 5.13 1.665 5.13H4.62V3.45C3.41 3.69 2.285 3.83 1.245 3.87L1.2 3.54C2.48 3.19 3.49 2.865 4.23 2.565C4.98 2.255 5.76 1.865 6.57 1.395C7.33 2.235 7.71 2.725 7.71 2.865C7.71 2.915 7.68 2.94 7.62 2.94C7.57 2.94 7.515 2.935 7.455 2.925C7.395 2.905 7.325 2.895 7.245 2.895C7.045 2.895 6.59 2.98 5.88 3.15V5.13H8.01L7.665 0.584999C7.995 0.615 8.365 0.665 8.775 0.734999C9.195 0.794999 9.45 0.844999 9.54 0.884999C9.64 0.914999 9.69 0.97 9.69 1.05C9.69 1.13 9.515 1.295 9.165 1.545C9.165 2.995 9.2 4.19 9.27 5.13H11.835L12.45 4.2C12.52 4.09 12.605 4.035 12.705 4.035C12.815 4.035 13.105 4.25 13.575 4.68C14.045 5.1 14.28 5.365 14.28 5.475C14.28 5.575 14.155 5.625 13.905 5.625H9.3C9.42 6.975 9.6 8.04 9.84 8.82C10.38 8.02 10.815 7.19 11.145 6.33C11.995 6.66 12.47 6.855 12.57 6.915C12.68 6.975 12.735 7.045 12.735 7.125C12.735 7.195 12.655 7.25 12.495 7.29C12.345 7.32 12.155 7.51 11.925 7.86C11.335 8.73 10.785 9.44 10.275 9.99C10.495 10.45 10.77 10.895 11.1 11.325C11.44 11.755 11.675 12.02 11.805 12.12C11.935 12.22 12.06 12.27 12.18 12.27C12.3 12.27 12.41 12.215 12.51 12.105C12.62 12.005 12.765 11.665 12.945 11.085C13.135 10.505 13.3 9.935 13.44 9.375L13.785 9.495C13.615 10.295 13.53 10.99 13.53 11.58C13.53 12.17 13.68 12.815 13.98 13.515C14.04 13.665 14.07 13.785 14.07 13.875C14.07 14.055 13.91 14.145 13.59 14.145C11.89 14.145 10.485 13.055 9.375 10.875C8.505 11.635 7.405 12.31 6.075 12.9L5.925 12.63C7.105 11.81 8.115 10.915 8.955 9.945C8.505 8.835 8.2 7.395 8.04 5.625ZM9.915 1.83C10.645 2.01 11.18 2.175 11.52 2.325C11.86 2.475 12.08 2.625 12.18 2.775C12.28 2.925 12.33 3.115 12.33 3.345C12.33 3.575 12.245 3.8 12.075 4.02C11.905 4.24 11.715 4.35 11.505 4.35C11.445 4.35 11.395 4.335 11.355 4.305C11.325 4.275 11.285 4.2 11.235 4.08C10.855 3.29 10.365 2.63 9.765 2.1L9.915 1.83ZM25.615 4.515C25.185 5.385 24.425 6.54 23.335 7.98L23.08 7.815C23.7 6.465 24.16 5.32 24.46 4.38C24.77 3.43 25.07 2.205 25.36 0.705C25.82 0.864999 26.225 1.02 26.575 1.17C26.925 1.32 27.135 1.425 27.205 1.485C27.285 1.535 27.325 1.595 27.325 1.665C27.325 1.735 27.24 1.79 27.07 1.83C26.91 1.87 26.8 1.93 26.74 2.01C26.69 2.09 26.575 2.35 26.395 2.79C26.215 3.22 26.035 3.625 25.855 4.005H27.895L28.3 3.39C28.39 3.26 28.48 3.195 28.57 3.195C28.67 3.195 28.94 3.355 29.38 3.675C29.83 3.985 30.055 4.205 30.055 4.335C30.055 4.465 29.845 4.62 29.425 4.8C29.355 7.63 29.3 9.535 29.26 10.515C29.22 11.495 29.165 12.16 29.095 12.51C29.035 12.87 28.905 13.19 28.705 13.47C28.505 13.75 28.2 13.985 27.79 14.175C27.38 14.375 27.09 14.475 26.92 14.475C26.84 14.475 26.78 14.4 26.74 14.25C26.66 13.97 26.56 13.75 26.44 13.59C26.32 13.43 26.115 13.28 25.825 13.14C25.535 13 25.095 12.85 24.505 12.69L24.58 12.375C25.77 12.545 26.52 12.63 26.83 12.63C27.14 12.63 27.35 12.595 27.46 12.525C27.58 12.465 27.66 12.36 27.7 12.21C27.74 12.06 27.78 11.715 27.82 11.175C27.86 10.625 27.9 9.74 27.94 8.52C27.98 7.29 28.005 5.955 28.015 4.515H25.615ZM19.975 4.23H21.43L21.835 3.63C21.905 3.52 21.98 3.465 22.06 3.465C22.14 3.465 22.395 3.6 22.825 3.87C23.255 4.14 23.47 4.345 23.47 4.485C23.47 4.615 23.28 4.755 22.9 4.905V11.1C22.9 11.54 22.905 11.85 22.915 12.03L22.93 12.54C22.93 12.59 22.915 12.63 22.885 12.66C22.865 12.7 22.775 12.755 22.615 12.825C22.465 12.905 22.275 12.98 22.045 13.05C21.825 13.13 21.685 13.17 21.625 13.17C21.575 13.17 21.55 13.115 21.55 13.005V12.06H19.105V12.945C19.105 13.055 19.06 13.14 18.97 13.2C18.88 13.26 18.68 13.345 18.37 13.455C18.07 13.575 17.875 13.635 17.785 13.635C17.705 13.635 17.67 13.575 17.68 13.455C17.73 12.995 17.755 12.5 17.755 11.97V4.77C17.755 4.35 17.74 3.925 17.71 3.495C18.26 3.685 18.765 3.915 19.225 4.185C19.525 2.825 19.68 1.72 19.69 0.869999C20.13 0.959999 20.545 1.08 20.935 1.23C21.325 1.38 21.55 1.48 21.61 1.53C21.67 1.58 21.7 1.635 21.7 1.695C21.7 1.795 21.62 1.865 21.46 1.905C21.34 1.935 21.205 2.065 21.055 2.295C20.915 2.515 20.555 3.16 19.975 4.23ZM21.55 7.785V4.71H19.105V7.785H21.55ZM21.55 11.58V8.28H19.105V11.58H21.55ZM24.58 6.78C25.3 7.3 25.8 7.69 26.08 7.95C26.36 8.21 26.545 8.4 26.635 8.52C26.725 8.64 26.77 8.8 26.77 9C26.77 9.36 26.655 9.68 26.425 9.96C26.195 10.24 26.005 10.38 25.855 10.38C25.715 10.38 25.615 10.175 25.555 9.765C25.495 9.345 25.36 8.88 25.15 8.37C24.95 7.85 24.705 7.39 24.415 6.99L24.58 6.78ZM39.62 4.47C40.36 3.13 40.935 1.795 41.345 0.464999C41.755 0.644999 42.11 0.819999 42.41 0.99C42.72 1.16 42.905 1.27 42.965 1.32C43.035 1.37 43.07 1.42 43.07 1.47C43.07 1.51 42.965 1.565 42.755 1.635C42.555 1.695 42.375 1.84 42.215 2.07C41.745 2.74 41.095 3.54 40.265 4.47H42.425L43.07 3.45C43.15 3.32 43.215 3.255 43.265 3.255C43.365 3.255 43.605 3.415 43.985 3.735C44.375 4.045 44.65 4.275 44.81 4.425C44.97 4.565 45.05 4.685 45.05 4.785C45.05 4.885 44.925 4.935 44.675 4.935H39.8C39.77 5.945 39.71 6.84 39.62 7.62H43.475L44.165 6.63C44.255 6.5 44.335 6.435 44.405 6.435C44.555 6.435 44.85 6.64 45.29 7.05C45.73 7.46 45.95 7.735 45.95 7.875C45.95 8.005 45.83 8.07 45.59 8.07H40.175C40.655 9.44 41.37 10.505 42.32 11.265C43.27 12.015 44.57 12.545 46.22 12.855V13.185C45.63 13.165 45.2 13.215 44.93 13.335C44.66 13.455 44.42 13.665 44.21 13.965C44.16 14.035 44.105 14.07 44.045 14.07C43.915 14.07 43.515 13.825 42.845 13.335C42.185 12.845 41.61 12.21 41.12 11.43C40.64 10.65 40.18 9.53 39.74 8.07H39.56C39.33 9.68 38.77 10.925 37.88 11.805C36.99 12.685 35.39 13.535 33.08 14.355L32.93 14.055C34.66 13.205 35.92 12.335 36.71 11.445C37.5 10.555 37.99 9.43 38.18 8.07H33.965C33.695 8.07 33.485 8.105 33.335 8.175L33.065 7.545C33.275 7.595 33.525 7.62 33.815 7.62H38.225C38.285 7.1 38.315 6.605 38.315 6.135C38.315 5.655 38.31 5.255 38.3 4.935H34.505C34.235 4.935 34.025 4.97 33.875 5.04L33.605 4.395C33.815 4.445 34.065 4.47 34.355 4.47H39.62ZM35.48 0.84C36.26 1.23 36.835 1.55 37.205 1.8C37.585 2.05 37.835 2.27 37.955 2.46C38.075 2.64 38.135 2.88 38.135 3.18C38.135 3.48 38.05 3.745 37.88 3.975C37.71 4.195 37.56 4.305 37.43 4.305C37.3 4.305 37.215 4.28 37.175 4.23C37.135 4.17 37.04 3.93 36.89 3.51C36.75 3.08 36.565 2.7 36.335 2.37C36.105 2.03 35.76 1.6 35.3 1.08L35.48 0.84ZM55.875 0.449999C56.585 0.8 57.14 1.125 57.54 1.425C57.95 1.725 58.155 2.005 58.155 2.265C58.155 2.515 58.06 2.78 57.87 3.06C57.68 3.34 57.44 3.48 57.15 3.48C57.08 3.48 57.025 3.46 56.985 3.42C56.945 3.37 56.87 3.14 56.76 2.73C56.66 2.32 56.53 1.965 56.37 1.665C56.21 1.365 55.99 1.035 55.71 0.674999L55.875 0.449999ZM50.475 0.69C51.455 1.1 52.12 1.435 52.47 1.695C52.83 1.955 53.01 2.205 53.01 2.445C53.01 2.675 52.93 2.96 52.77 3.3C52.61 3.63 52.425 3.795 52.215 3.795C52.125 3.795 52.055 3.765 52.005 3.705C51.965 3.645 51.9 3.5 51.81 3.27C51.44 2.31 50.96 1.53 50.37 0.929999L50.475 0.69ZM56.55 4.35H54.375C54.125 4.35 53.935 4.38 53.805 4.44L53.565 3.825C53.755 3.875 53.98 3.9 54.24 3.9H59.775L60.435 3C60.515 2.88 60.59 2.82 60.66 2.82C60.76 2.82 61.06 3.03 61.56 3.45C62.07 3.86 62.325 4.115 62.325 4.215C62.325 4.305 62.215 4.35 61.995 4.35H57.975V7.83H59.61L60.21 7.05C60.3 6.93 60.39 6.87 60.48 6.87C60.58 6.87 60.825 7.075 61.215 7.485C61.615 7.895 61.815 8.145 61.815 8.235C61.815 8.325 61.72 8.37 61.53 8.37H57.975V12.66H60.195L60.81 11.745C60.9 11.605 60.99 11.535 61.08 11.535C61.18 11.535 61.445 11.75 61.875 12.18C62.305 12.61 62.52 12.88 62.52 12.99C62.52 13.1 62.425 13.155 62.235 13.155H53.07C52.82 13.155 52.63 13.185 52.5 13.245L52.26 12.585C52.45 12.635 52.675 12.66 52.935 12.66H56.55V8.37H54.3C54.05 8.37 53.86 8.4 53.73 8.46L53.49 7.755C53.68 7.805 53.905 7.83 54.165 7.83H56.55V4.35ZM53.715 3.18L52.275 7.605C51.815 8.995 51.585 10.2 51.585 11.22C51.585 11.67 51.615 12.105 51.675 12.525C51.735 12.945 51.765 13.25 51.765 13.44C51.765 14.06 51.58 14.37 51.21 14.37C50.85 14.37 50.56 14.265 50.34 14.055C50.12 13.845 50.01 13.595 50.01 13.305C50.01 13.245 50.015 13.19 50.025 13.14C50.225 12.01 50.325 11.24 50.325 10.83C50.325 10.58 50.22 10.385 50.01 10.245C49.81 10.105 49.35 9.94 48.63 9.75L48.66 9.405C49.21 9.475 49.615 9.51 49.875 9.51C50.145 9.51 50.35 9.445 50.49 9.315C50.63 9.185 50.79 8.92 50.97 8.52L53.445 3.06L53.715 3.18ZM48.99 3.84C49.81 4.15 50.44 4.455 50.88 4.755C51.33 5.045 51.555 5.35 51.555 5.67C51.555 5.87 51.47 6.11 51.3 6.39C51.14 6.67 50.945 6.81 50.715 6.81C50.625 6.81 50.555 6.78 50.505 6.72C50.455 6.66 50.385 6.515 50.295 6.285C49.995 5.465 49.515 4.74 48.855 4.11L48.99 3.84Z"
          fill="#9A764E"/>
</svg>
