<svg width="63" height="15" viewBox="0 0 63 15" fill="none" xmlns="http://www.w3.org/2000/svg">
    <path d="M7.62 4.47C8.36 3.13 8.935 1.795 9.345 0.464999C9.755 0.644999 10.11 0.819999 10.41 0.99C10.72 1.16 10.905 1.27 10.965 1.32C11.035 1.37 11.07 1.42 11.07 1.47C11.07 1.51 10.965 1.565 10.755 1.635C10.555 1.695 10.375 1.84 10.215 2.07C9.745 2.74 9.095 3.54 8.265 4.47H10.425L11.07 3.45C11.15 3.32 11.215 3.255 11.265 3.255C11.365 3.255 11.605 3.415 11.985 3.735C12.375 4.045 12.65 4.275 12.81 4.425C12.97 4.565 13.05 4.685 13.05 4.785C13.05 4.885 12.925 4.935 12.675 4.935H7.8C7.77 5.945 7.71 6.84 7.62 7.62H11.475L12.165 6.63C12.255 6.5 12.335 6.435 12.405 6.435C12.555 6.435 12.85 6.64 13.29 7.05C13.73 7.46 13.95 7.735 13.95 7.875C13.95 8.005 13.83 8.07 13.59 8.07H8.175C8.655 9.44 9.37 10.505 10.32 11.265C11.27 12.015 12.57 12.545 14.22 12.855V13.185C13.63 13.165 13.2 13.215 12.93 13.335C12.66 13.455 12.42 13.665 12.21 13.965C12.16 14.035 12.105 14.07 12.045 14.07C11.915 14.07 11.515 13.825 10.845 13.335C10.185 12.845 9.61 12.21 9.12 11.43C8.64 10.65 8.18 9.53 7.74 8.07H7.56C7.33 9.68 6.77 10.925 5.88 11.805C4.99 12.685 3.39 13.535 1.08 14.355L0.93 14.055C2.66 13.205 3.92 12.335 4.71 11.445C5.5 10.555 5.99 9.43 6.18 8.07H1.965C1.695 8.07 1.485 8.105 1.335 8.175L1.065 7.545C1.275 7.595 1.525 7.62 1.815 7.62H6.225C6.285 7.1 6.315 6.605 6.315 6.135C6.315 5.655 6.31 5.255 6.3 4.935H2.505C2.235 4.935 2.025 4.97 1.875 5.04L1.605 4.395C1.815 4.445 2.065 4.47 2.355 4.47H7.62ZM3.48 0.84C4.26 1.23 4.835 1.55 5.205 1.8C5.585 2.05 5.835 2.27 5.955 2.46C6.075 2.64 6.135 2.88 6.135 3.18C6.135 3.48 6.05 3.745 5.88 3.975C5.71 4.195 5.56 4.305 5.43 4.305C5.3 4.305 5.215 4.28 5.175 4.23C5.135 4.17 5.04 3.93 4.89 3.51C4.75 3.08 4.565 2.7 4.335 2.37C4.105 2.03 3.76 1.6 3.3 1.08L3.48 0.84ZM22.66 2.46H18.595C18.325 2.46 18.115 2.495 17.965 2.565L17.695 1.905C17.905 1.955 18.155 1.98 18.445 1.98H26.635L27.4 1.005C27.49 0.895 27.56 0.84 27.61 0.84C27.67 0.84 27.82 0.94 28.06 1.14C28.3 1.34 28.55 1.575 28.81 1.845C29.07 2.105 29.2 2.27 29.2 2.34C29.2 2.42 29.095 2.46 28.885 2.46H24.055V6.66H28.06L28.585 5.73C28.695 5.53 28.82 5.43 28.96 5.43C29.11 5.43 29.41 5.665 29.86 6.135C30.32 6.595 30.55 6.885 30.55 7.005C30.55 7.115 30.455 7.17 30.265 7.17H24.055V12.255C24.055 12.785 24.01 13.15 23.92 13.35C23.83 13.56 23.56 13.775 23.11 13.995C22.67 14.225 22.38 14.34 22.24 14.34C22.16 14.34 22.1 14.265 22.06 14.115C21.99 13.835 21.91 13.63 21.82 13.5C21.74 13.37 21.585 13.245 21.355 13.125C21.135 13.005 20.745 12.845 20.185 12.645L20.2 12.36C21.13 12.54 21.735 12.63 22.015 12.63C22.305 12.63 22.485 12.585 22.555 12.495C22.625 12.415 22.66 12.27 22.66 12.06V7.17H17.125C16.855 7.17 16.645 7.205 16.495 7.275L16.225 6.585C16.435 6.635 16.685 6.66 16.975 6.66H22.66V2.46ZM41.24 5.475C42.36 4.405 43.325 3.17 44.135 1.77C44.605 2.06 44.965 2.31 45.215 2.52C45.465 2.73 45.59 2.86 45.59 2.91C45.59 2.96 45.52 2.995 45.38 3.015C45.25 3.035 45.135 3.075 45.035 3.135C44.945 3.185 44.815 3.285 44.645 3.435C43.765 4.175 42.63 5.025 41.24 5.985V6.69H44.03L44.48 6.015C44.58 5.875 44.675 5.805 44.765 5.805C44.865 5.805 45.115 5.97 45.515 6.3C45.925 6.63 46.13 6.855 46.13 6.975C46.13 7.095 45.995 7.155 45.725 7.155H42.38C42.99 9.875 44.395 11.665 46.595 12.525V12.84C46.105 12.82 45.755 12.855 45.545 12.945C45.335 13.035 45.135 13.205 44.945 13.455C44.895 13.525 44.845 13.56 44.795 13.56C44.665 13.56 44.385 13.295 43.955 12.765C43.525 12.235 43.13 11.52 42.77 10.62C42.41 9.71 42.12 8.555 41.9 7.155H41.24V12.135L42.83 11.235L43.04 11.505C42.37 12.085 41.89 12.545 41.6 12.885C41.31 13.225 41.035 13.63 40.775 14.1C40.705 14.22 40.64 14.28 40.58 14.28C40.53 14.28 40.4 14.18 40.19 13.98C39.99 13.79 39.755 13.52 39.485 13.17C39.695 13.03 39.84 12.87 39.92 12.69C40 12.52 40.04 12.2 40.04 11.73V7.155H38.585V8.505L38.615 9.66C38.615 9.77 38.46 9.89 38.15 10.02C37.84 10.15 37.65 10.215 37.58 10.215C37.52 10.215 37.49 10.15 37.49 10.02V2.205H34.535V9.87C34.535 9.98 34.52 10.055 34.49 10.095C34.47 10.125 34.395 10.175 34.265 10.245C34.135 10.315 33.965 10.39 33.755 10.47C33.545 10.54 33.42 10.575 33.38 10.575C33.34 10.575 33.32 10.525 33.32 10.425L33.365 9.45C33.375 9.15 33.38 8.815 33.38 8.445V2.55C33.38 2.11 33.365 1.68 33.335 1.26C33.815 1.42 34.235 1.59 34.595 1.77H37.37L37.67 1.29C37.76 1.14 37.85 1.065 37.94 1.065C38.03 1.065 38.26 1.185 38.63 1.425C39.01 1.665 39.2 1.84 39.2 1.95C39.2 2.05 38.995 2.215 38.585 2.445V6.69H40.04V1.935C40.04 1.425 40.025 0.954999 39.995 0.524999C41.255 0.865 41.885 1.13 41.885 1.32C41.885 1.43 41.67 1.56 41.24 1.71V5.475ZM36.185 10.47C36.045 11.17 35.735 11.795 35.255 12.345C34.785 12.895 34.01 13.575 32.93 14.385L32.72 14.16C33.62 13.25 34.24 12.435 34.58 11.715C34.92 10.985 35.15 10.06 35.27 8.94C35.39 7.82 35.435 5.98 35.405 3.42C36.485 3.69 37.025 3.895 37.025 4.035C37.025 4.075 36.975 4.13 36.875 4.2C36.775 4.26 36.71 4.335 36.68 4.425C36.65 4.505 36.63 4.685 36.62 4.965C36.55 7.505 36.43 9.235 36.26 10.155C38.11 11.035 39.035 11.81 39.035 12.48C39.035 12.72 38.955 12.945 38.795 13.155C38.635 13.375 38.47 13.485 38.3 13.485C38.21 13.485 38.14 13.455 38.09 13.395C38.04 13.345 37.96 13.2 37.85 12.96C37.34 11.84 36.785 11.01 36.185 10.47ZM57.825 5.175H52.83V5.595C52.83 5.705 52.79 5.79 52.71 5.85C52.63 5.9 52.435 5.985 52.125 6.105C51.825 6.215 51.635 6.27 51.555 6.27C51.475 6.27 51.435 6.24 51.435 6.18L51.48 5.34C51.51 4.94 51.525 4.54 51.525 4.14V2.1C51.525 1.68 51.51 1.255 51.48 0.824999C52.17 1.015 52.675 1.21 52.995 1.41H57.525L58.095 0.674999C58.155 0.604999 58.22 0.57 58.29 0.57C58.37 0.57 58.54 0.654999 58.8 0.824999L59.475 1.26C59.655 1.38 59.745 1.48 59.745 1.56C59.745 1.64 59.575 1.75 59.235 1.89V3.72C59.235 4.07 59.24 4.41 59.25 4.74C59.27 5.07 59.28 5.26 59.28 5.31C59.28 5.36 59.23 5.415 59.13 5.475C59.03 5.535 58.83 5.615 58.53 5.715C58.23 5.805 58.035 5.85 57.945 5.85C57.865 5.85 57.825 5.775 57.825 5.625V5.175ZM52.83 4.71H57.825V1.845H52.83V4.71ZM54.75 7.2L53.91 9.03H58.14L58.635 8.355C58.705 8.265 58.77 8.22 58.83 8.22C58.9 8.22 59.15 8.365 59.58 8.655C60.02 8.935 60.24 9.13 60.24 9.24C60.24 9.36 60.055 9.47 59.685 9.57C59.575 10.11 59.395 10.77 59.145 11.55C58.895 12.32 58.695 12.825 58.545 13.065C58.395 13.305 58.19 13.52 57.93 13.71C57.67 13.9 57.335 14.055 56.925 14.175C56.515 14.295 56.19 14.355 55.95 14.355C55.71 14.355 55.56 14.33 55.5 14.28C55.44 14.24 55.405 14.17 55.395 14.07C55.395 13.98 55.395 13.89 55.395 13.8C55.395 13.57 55.195 13.345 54.795 13.125C54.405 12.905 53.875 12.67 53.205 12.42L53.31 12.165C54.61 12.485 55.575 12.645 56.205 12.645C56.495 12.645 56.73 12.61 56.91 12.54C57.1 12.47 57.24 12.365 57.33 12.225C57.43 12.085 57.57 11.745 57.75 11.205C57.94 10.665 58.11 10.095 58.26 9.495H53.91L53.385 10.125C53.255 10.285 53.135 10.365 53.025 10.365C52.935 10.365 52.77 10.27 52.53 10.08C52.29 9.89 51.98 9.63 51.6 9.3C52.24 9.09 52.615 8.845 52.725 8.565L53.28 7.2H49.47C49.2 7.2 48.99 7.235 48.84 7.305L48.57 6.69C48.78 6.74 49.03 6.765 49.32 6.765H59.88L60.585 5.88C60.675 5.76 60.775 5.7 60.885 5.7C60.995 5.7 61.13 5.77 61.29 5.91L61.995 6.525C62.325 6.795 62.49 6.975 62.49 7.065C62.49 7.155 62.38 7.2 62.16 7.2H54.75Z"
          fill="#9A764E"/>
</svg>
