<svg width="110" height="10" viewBox="0 0 110 10" fill="none" xmlns="http://www.w3.org/2000/svg">
<path d="M8.46 0.809999C8.54 0.719999 8.63 0.7 8.74 0.77C8.98 0.96 9.28 1.18 9.52 1.38C9.61 1.46 9.66 1.55 9.58 1.64C9.53 1.71 9.46 1.73 9.36 1.73H8.08V8.68C8.08 9.25 7.93 9.7 6.89 9.83C6.75 9.85 6.69 9.78 6.65 9.66C6.62 9.5 6.53 9.38 6.37 9.28C6.2 9.17 5.92 9.09 5.39 9.02C5.27 9 5.2 8.94 5.2 8.86C5.2 8.79 5.27 8.75 5.41 8.75C6.07 8.8 6.77 8.84 6.96 8.84C7.19 8.84 7.24 8.79 7.24 8.64V1.73H0.64C0.53 1.73 0.45 1.67 0.42 1.56C0.38 1.43 0.45 1.33 0.59 1.33H8.01L8.46 0.809999ZM1.61 7.87C1.57 7.87 1.55 7.8 1.55 7.67V3.26C1.55 3.11 1.64 3.05 1.78 3.1L2.39 3.35H4.45L4.73 3.06C4.81 2.97 4.91 2.96 5.01 3.04L5.63 3.49C5.74 3.57 5.77 3.69 5.65 3.77C5.57 3.82 5.48 3.85 5.35 3.88V7.08C5.35 7.17 5.35 7.24 5.28 7.29C5.15 7.39 4.87 7.47 4.67 7.47C4.59 7.47 4.54 7.4 4.54 7.27V6.69H2.34V7.57C2.34 7.71 2 7.87 1.67 7.87H1.61ZM2.34 6.31H4.54V3.74H2.34V6.31ZM13.11 4.78C13.2 4.81 13.27 4.93 13.17 5.02C13.12 5.07 13.04 5.09 12.94 5.11V9.55C12.92 9.69 12.59 9.85 12.26 9.85C12.17 9.85 12.11 9.78 12.11 9.65V5.64C11.64 6.08 11.13 6.47 10.58 6.79C10.47 6.85 10.4 6.84 10.35 6.79C10.3 6.74 10.33 6.66 10.44 6.58C11.69 5.59 12.6 4.25 13.23 2.89H10.87C10.76 2.89 10.67 2.84 10.64 2.72C10.6 2.59 10.67 2.5 10.81 2.5H13.4C13.66 1.89 13.86 1.3 14 0.73C14.03 0.61 14.12 0.56 14.24 0.59L15.14 0.82C15.27 0.849999 15.36 0.98 15.25 1.08C15.19 1.13 15.09 1.15 14.93 1.15C14.77 1.6 14.58 2.06 14.37 2.5H17.88L18.31 1.99C18.39 1.9 18.49 1.88 18.59 1.95C18.84 2.13 19.12 2.35 19.35 2.55C19.43 2.62 19.49 2.71 19.42 2.8C19.37 2.87 19.29 2.89 19.19 2.89H14.17C13.83 3.53 13.43 4.16 12.96 4.73L13.11 4.78ZM13.23 9.1C13.2 8.98 13.26 8.9 13.4 8.9H15.71V5.95H13.94C13.83 5.95 13.74 5.9 13.71 5.78C13.67 5.65 13.74 5.56 13.88 5.56H15.71V3.46C15.71 3.33 15.79 3.26 15.92 3.27L16.66 3.34C16.79 3.35 16.89 3.45 16.82 3.57C16.77 3.64 16.68 3.69 16.55 3.71V5.56H17.49L17.87 5.11C17.95 5.02 18.04 5 18.15 5.07C18.36 5.23 18.62 5.43 18.83 5.6C18.91 5.68 18.96 5.77 18.88 5.86C18.83 5.93 18.76 5.95 18.67 5.95H16.55V8.9H18.08L18.49 8.41C18.57 8.31 18.66 8.3 18.77 8.38C19 8.55 19.27 8.76 19.49 8.94C19.58 9.02 19.63 9.11 19.56 9.21C19.51 9.27 19.44 9.29 19.34 9.29H13.46C13.34 9.29 13.26 9.23 13.23 9.12V9.1ZM28.44 3.37C28.01 3.37 27.7 3.02 27.7 2.41C27.7 1.78 28.01 0.93 28.9 0.47C29.01 0.41 29.1 0.429999 29.17 0.54C29.24 0.65 29.22 0.75 29.1 0.82C28.54 1.14 28.3 1.54 28.25 1.84C28.72 1.97 29.13 2.19 29.13 2.71C29.13 3.1 28.84 3.37 28.44 3.37ZM25.58 2.41C25.58 1.78 25.89 0.93 26.78 0.47C26.89 0.41 26.98 0.429999 27.05 0.54C27.12 0.65 27.1 0.75 26.98 0.82C26.42 1.14 26.18 1.54 26.13 1.84C26.6 1.97 27 2.19 27 2.71C27 3.1 26.72 3.37 26.33 3.37C25.88 3.37 25.58 3.01 25.58 2.41ZM38.53 3.32C38.61 3.23 38.71 3.21 38.81 3.28C39.04 3.45 39.31 3.65 39.53 3.83C39.62 3.91 39.67 4 39.6 4.1C39.55 4.16 39.47 4.18 39.38 4.18H36.56C36.65 4.97 36.81 5.7 37.06 6.37C37.44 5.81 37.73 5.24 37.94 4.7C37.99 4.58 38.08 4.54 38.2 4.59L38.94 4.89C39.07 4.94 39.14 5.07 39.02 5.15C38.95 5.19 38.86 5.2 38.7 5.17C38.36 5.83 37.93 6.49 37.39 7.1C37.68 7.65 38.08 8.11 38.62 8.47C38.77 8.6 38.86 8.59 38.93 8.43C39.05 8.19 39.23 7.79 39.36 7.43C39.4 7.31 39.44 7.25 39.48 7.26C39.52 7.27 39.53 7.34 39.52 7.46L39.35 8.81C39.68 9.2 39.7 9.43 39.6 9.55C39.29 9.93 38.67 9.63 38.19 9.28C37.62 8.89 37.17 8.36 36.79 7.71C36.03 8.42 35.11 9.04 34.04 9.47C33.93 9.52 33.85 9.51 33.81 9.44C33.77 9.37 33.81 9.3 33.93 9.24C34.95 8.67 35.82 7.93 36.49 7.12C36.12 6.27 35.9 5.28 35.76 4.18H33.59V5.65C34.15 5.52 34.72 5.39 35.31 5.25C35.43 5.22 35.51 5.25 35.53 5.32C35.55 5.4 35.5 5.46 35.39 5.51C34.87 5.72 34.27 5.96 33.59 6.21V8.71C33.59 9.26 33.46 9.7 32.58 9.83C32.44 9.85 32.37 9.78 32.35 9.65C32.32 9.5 32.26 9.38 32.15 9.29C32.02 9.18 31.82 9.1 31.43 9.04C31.3 9.02 31.24 8.96 31.24 8.88C31.24 8.81 31.32 8.77 31.45 8.78C31.92 8.81 32.39 8.84 32.53 8.84C32.73 8.84 32.77 8.8 32.77 8.68V6.51C32.23 6.7 31.67 6.89 31.04 7.1C31.03 7.14 31.01 7.18 30.99 7.21C30.91 7.32 30.79 7.26 30.73 7.14L30.46 6.53C30.4 6.4 30.45 6.31 30.59 6.29C31.09 6.21 31.87 6.04 32.77 5.83V4.18H30.64C30.53 4.18 30.45 4.12 30.42 4.01C30.38 3.87 30.45 3.79 30.59 3.79H32.77V2.14C32.09 2.29 31.38 2.42 30.71 2.51C30.58 2.52 30.51 2.49 30.49 2.4C30.47 2.33 30.53 2.26 30.65 2.23C31.94 1.88 33.44 1.29 34.27 0.82C34.37 0.759999 34.45 0.759999 34.54 0.83L35.21 1.36C35.33 1.46 35.34 1.6 35.19 1.62C35.09 1.64 34.97 1.62 34.81 1.57C34.45 1.69 34.04 1.82 33.59 1.94V3.79H35.71C35.62 2.87 35.58 1.89 35.57 0.86C35.57 0.73 35.65 0.659999 35.78 0.669999L36.55 0.75C36.68 0.759999 36.78 0.849999 36.71 0.98C36.66 1.07 36.57 1.13 36.41 1.15C36.4 2.05 36.43 2.95 36.51 3.79H38.13L38.53 3.32ZM37.1 1.42C37 1.33 36.97 1.25 37.01 1.21C37.06 1.17 37.13 1.16 37.24 1.2C39.3 1.82 38.85 3.19 38.17 2.94C38.07 2.91 38.04 2.85 38.01 2.76C37.88 2.31 37.49 1.79 37.1 1.42ZM41.62 9.22C41.62 9.37 41.34 9.53 40.98 9.53C40.89 9.53 40.84 9.46 40.84 9.33V2.25C40.84 2.1 40.93 2.04 41.07 2.1L41.66 2.35H41.92C42.01 1.89 42.13 1.26 42.21 0.759999C42.23 0.63 42.31 0.569999 42.44 0.6L43.27 0.78C43.4 0.809999 43.49 0.91 43.41 1.03C43.34 1.12 43.23 1.15 43.07 1.15C42.86 1.52 42.57 1.99 42.33 2.35H43.43L43.71 2.06C43.79 1.97 43.89 1.95 43.99 2.03L44.6 2.49C44.7 2.57 44.73 2.68 44.63 2.76C44.54 2.82 44.43 2.85 44.31 2.88V8.93C44.29 9.08 43.91 9.23 43.64 9.23C43.57 9.23 43.52 9.16 43.52 9.03V8.47H41.62V9.22ZM41.62 8.07H43.52V5.53H41.62V8.07ZM41.62 5.14H43.52V2.75H41.62V5.14ZM44.5 4.77C44.45 4.74 44.45 4.66 44.51 4.55C45.07 3.58 45.63 2.18 45.93 0.759999C45.96 0.63 46.05 0.59 46.17 0.619999L46.98 0.84C47.11 0.88 47.18 0.989999 47.09 1.09C47.02 1.16 46.92 1.2 46.78 1.19C46.63 1.6 46.47 1.98 46.3 2.34H48.26L48.6 2C48.69 1.91 48.79 1.91 48.88 1.99L49.48 2.48C49.58 2.57 49.6 2.69 49.48 2.76C49.41 2.8 49.32 2.83 49.18 2.84C49.11 6.57 48.95 8.75 48.45 9.32C48.16 9.65 47.83 9.79 47.4 9.82C47.27 9.83 47.21 9.76 47.19 9.63C47.18 9.48 47.13 9.36 46.99 9.25C46.87 9.15 46.54 9.04 46.17 8.97C46.04 8.94 45.99 8.88 45.99 8.8C45.99 8.72 46.07 8.68 46.2 8.69C46.64 8.73 47.19 8.77 47.4 8.77C47.61 8.77 47.7 8.75 47.79 8.65C48.17 8.27 48.29 6.12 48.35 2.73H46.11C45.7 3.51 45.22 4.19 44.71 4.7C44.63 4.79 44.55 4.81 44.5 4.77ZM45.4 4.67C45.31 4.57 45.3 4.49 45.34 4.46C45.39 4.42 45.46 4.43 45.57 4.48C47.85 5.47 47.28 7.07 46.51 6.7C46.42 6.66 46.39 6.59 46.37 6.5C46.27 5.91 45.83 5.18 45.4 4.67ZM58.66 2.35C58.74 2.25 58.83 2.24 58.94 2.32C59.16 2.49 59.41 2.69 59.62 2.87C59.7 2.95 59.76 3.04 59.69 3.13C59.64 3.2 59.56 3.22 59.46 3.22H58.69C58.46 4.8 58.01 6.19 57.21 7.31C57.82 7.98 58.6 8.55 59.62 8.96C59.74 9.01 59.8 9.07 59.78 9.13C59.76 9.2 59.7 9.23 59.59 9.26C59.35 9.33 59.17 9.46 59.07 9.64C59 9.76 58.92 9.8 58.81 9.73C57.95 9.26 57.27 8.64 56.74 7.89C56.05 8.65 55.18 9.29 54.06 9.78C53.94 9.83 53.86 9.82 53.82 9.76C53.78 9.7 53.82 9.62 53.93 9.55C55.01 8.91 55.79 8.14 56.37 7.31C55.87 6.42 55.54 5.35 55.31 4.17C54.99 4.8 54.64 5.36 54.25 5.82C54.17 5.91 54.1 5.93 54.05 5.9C54 5.88 53.99 5.8 54.05 5.68C54.7 4.39 55.22 2.58 55.45 0.759999C55.46 0.619999 55.54 0.56 55.67 0.59L56.57 0.78C56.7 0.809999 56.79 0.91 56.7 1.02C56.64 1.1 56.54 1.13 56.39 1.14C56.25 1.73 56.08 2.3 55.89 2.82H58.27L58.66 2.35ZM50.58 7.14C50.52 7.03 50.56 6.93 50.68 6.86C50.85 6.77 50.87 6.71 50.87 6.58V1.8C50.87 1.67 50.95 1.6 51.08 1.61L51.8 1.69C51.93 1.7 52.03 1.8 51.96 1.92C51.9 2 51.81 2.06 51.66 2.08V6.65C52.05 6.55 52.5 6.42 52.95 6.28V0.78C52.95 0.65 53.03 0.579999 53.16 0.59L53.91 0.669999C54.04 0.68 54.13 0.77 54.06 0.899999C54.01 0.989999 53.92 1.04 53.76 1.06V9.48C53.76 9.67 53.39 9.84 53.11 9.84C53.01 9.84 52.95 9.77 52.95 9.64V6.68C52.46 6.97 51.83 7.31 51.18 7.65C51.16 7.69 51.13 7.72 51.11 7.74C51.02 7.85 50.9 7.81 50.84 7.68L50.58 7.14ZM55.48 3.83C55.74 4.91 56.13 5.88 56.73 6.72C57.31 5.68 57.62 4.52 57.76 3.22H55.74C55.65 3.43 55.56 3.65 55.48 3.83ZM68.53 1.13C68.61 1.02 68.71 1.01 68.81 1.1C69.01 1.26 69.24 1.44 69.43 1.61C69.51 1.69 69.56 1.78 69.49 1.87C69.43 1.94 69.36 1.96 69.27 1.96H66.72V2.33L67.22 2.38C67.35 2.39 67.45 2.49 67.38 2.61C67.33 2.69 67.25 2.75 67.1 2.77V3.11H68.44L68.73 2.75C68.81 2.65 68.91 2.63 69.01 2.72C69.18 2.85 69.36 3.01 69.52 3.15C69.6 3.23 69.65 3.32 69.58 3.41C69.53 3.48 69.47 3.5 69.37 3.5H67.1C67.13 4.58 67.23 5.63 67.49 6.53C67.8 5.86 68.03 5.11 68.18 4.27C68.21 4.14 68.29 4.08 68.42 4.12L69.09 4.32C69.22 4.36 69.3 4.47 69.21 4.57C69.14 4.64 69.04 4.68 68.89 4.67C68.62 5.73 68.24 6.63 67.79 7.36C68.02 7.86 68.33 8.29 68.76 8.63C68.88 8.75 68.96 8.75 69.03 8.6C69.13 8.41 69.26 8.05 69.37 7.74C69.41 7.62 69.46 7.56 69.49 7.57C69.52 7.58 69.53 7.65 69.52 7.77L69.4 8.95C69.65 9.3 69.7 9.51 69.59 9.64C69.32 9.99 68.77 9.7 68.39 9.38C67.96 9.03 67.59 8.58 67.3 8.04C66.67 8.81 65.93 9.39 65.08 9.8C64.97 9.85 64.89 9.83 64.84 9.77C64.79 9.71 64.82 9.63 64.94 9.55C65.38 9.27 65.78 8.93 66.13 8.56H64.03L63.9 8.74C63.83 8.85 63.73 8.86 63.63 8.79L63.23 8.52C63.12 8.44 63.09 8.33 63.19 8.25C63.25 8.21 63.31 8.17 63.37 8.14V4.12C63.37 3.97 63.47 3.91 63.61 3.98L64.09 4.22H65.4L65.62 3.94C65.7 3.84 65.81 3.83 65.9 3.91C66.06 4.04 66.24 4.2 66.39 4.34C66.37 4.06 66.35 3.79 66.34 3.5H62.99V5.41C62.99 6.75 62.91 8.51 61.67 9.72C61.58 9.81 61.51 9.84 61.45 9.79C61.39 9.75 61.4 9.67 61.46 9.56C62.03 8.63 62.19 7.57 62.24 6.49H61.7C61.63 7.48 61.43 8.58 60.62 9.41C60.53 9.51 60.45 9.52 60.39 9.46C60.33 9.4 60.34 9.32 60.4 9.22C60.94 8.34 61.01 7.37 61.03 6.49H60.68C60.57 6.49 60.49 6.43 60.46 6.32C60.42 6.18 60.49 6.1 60.63 6.1H62.25C62.26 5.87 62.26 5.63 62.26 5.41V5.23H61.62L61.48 5.43C61.41 5.54 61.31 5.55 61.21 5.48L60.78 5.2C60.67 5.12 60.64 5.01 60.74 4.92C60.8 4.88 60.86 4.84 60.92 4.81V3.12C60.92 2.99 61 2.92 61.13 2.93L61.76 3C61.9 3.02 62 3.11 61.91 3.22C61.85 3.29 61.74 3.33 61.55 3.36V4.83H62.26V3.02C62.26 2.87 62.35 2.81 62.49 2.86L63.12 3.11H66.33C66.32 3.03 66.32 2.95 66.32 2.87C66.32 2.79 66.32 2.71 66.31 2.63C66.23 2.64 66.16 2.65 66.08 2.65C65.99 2.65 65.94 2.58 65.94 2.45V1.96H63.99V2.62C63.99 2.76 63.68 2.88 63.36 2.88C63.27 2.88 63.22 2.81 63.22 2.68V1.96H60.69C60.58 1.96 60.5 1.9 60.47 1.79C60.43 1.65 60.5 1.57 60.64 1.57H63.22V0.75C63.22 0.619999 63.3 0.55 63.43 0.56L64.15 0.63C64.28 0.64 64.38 0.74 64.31 0.86C64.25 0.939999 64.15 0.989999 63.99 1.01V1.57H65.94V0.79C65.94 0.659999 66.02 0.59 66.15 0.6L66.87 0.659999C67 0.669999 67.1 0.77 67.03 0.89C66.97 0.97 66.88 1.02 66.72 1.04V1.57H68.19L68.53 1.13ZM63.97 8.17H64.65V7.17H63.97V8.17ZM63.97 6.78H65.57V5.85H63.97V6.78ZM63.97 5.45H64.65V4.61H63.97V5.45ZM65.2 8.17H65.43L65.66 7.89C65.74 7.79 65.84 7.77 65.94 7.86C66.09 7.98 66.26 8.12 66.4 8.26C66.64 7.99 66.84 7.7 67.02 7.41C66.68 6.58 66.5 5.57 66.4 4.48C66.34 4.59 66.28 4.61 66.17 4.61H65.2V5.45H65.5L65.68 5.27C65.76 5.19 65.86 5.17 65.96 5.25L66.37 5.55C66.49 5.64 66.5 5.76 66.38 5.83C66.32 5.87 66.24 5.89 66.16 5.91V7.13C66.14 7.27 65.86 7.38 65.67 7.38C65.61 7.38 65.57 7.33 65.57 7.27V7.17H65.2V8.17ZM67.44 2.28C67.34 2.18 67.31 2.1 67.36 2.06C67.42 2.01 67.49 2 67.59 2.02C68.87 2.27 68.51 3.18 68.01 3.06C67.9 3.03 67.87 2.97 67.84 2.89C67.78 2.69 67.62 2.46 67.44 2.28ZM72.94 3.19C72.87 3.09 72.9 3 73.02 2.93C73.58 2.61 73.82 2.21 73.87 1.91C73.4 1.78 73 1.56 73 1.04C73 0.65 73.28 0.38 73.67 0.38C74.12 0.38 74.42 0.74 74.42 1.35C74.42 1.97 74.11 2.82 73.22 3.28C73.11 3.34 73.02 3.31 72.95 3.2L72.94 3.19ZM70.82 3.19C70.75 3.09 70.78 3 70.9 2.93C71.46 2.61 71.7 2.21 71.75 1.91C71.28 1.78 70.87 1.56 70.87 1.04C70.87 0.65 71.16 0.38 71.56 0.38C71.99 0.38 72.3 0.73 72.3 1.35C72.3 1.97 71.99 2.82 71.1 3.28C70.99 3.34 70.9 3.31 70.83 3.2L70.82 3.19ZM89.24 2.81C89.34 2.89 89.38 3 89.28 3.08C89.19 3.14 89.08 3.18 88.96 3.2V6.44C88.96 6.53 88.96 6.6 88.89 6.65C88.75 6.75 88.46 6.84 88.24 6.84C88.15 6.84 88.09 6.77 88.09 6.64V6H85.41V9.5C85.41 9.68 85.02 9.85 84.71 9.85C84.6 9.85 84.54 9.78 84.54 9.65V6H81.86V6.65C81.86 6.79 81.52 6.96 81.14 6.96C81.06 6.96 81.01 6.89 81.01 6.76V2.55C81.01 2.4 81.1 2.34 81.24 2.39L81.94 2.67H84.54V0.759999C84.54 0.63 84.62 0.56 84.75 0.569999L85.56 0.65C85.69 0.659999 85.79 0.759999 85.72 0.88C85.67 0.97 85.58 1.03 85.41 1.05V2.67H88L88.31 2.35C88.39 2.26 88.49 2.25 88.59 2.33L89.24 2.81ZM81.86 5.61H84.54V3.06H81.86V5.61ZM85.41 5.61H88.09V3.06H85.41V5.61ZM93.11 8.52C93.11 8.66 92.78 8.81 92.42 8.81C92.34 8.81 92.29 8.74 92.29 8.61V5.03C92.29 4.88 92.38 4.82 92.52 4.88L93.17 5.14H96.79L97.07 4.86C97.15 4.78 97.25 4.77 97.35 4.84L97.94 5.27C98.05 5.35 98.08 5.48 97.96 5.55C97.89 5.59 97.81 5.61 97.7 5.64V8.4C97.68 8.55 97.3 8.72 97.01 8.72C96.92 8.72 96.87 8.65 96.87 8.52V8.18H93.11V8.52ZM90.41 5.38C90.37 5.3 90.41 5.24 90.52 5.18C91.87 4.48 93.04 3.49 93.79 2.49H90.81C90.7 2.49 90.61 2.44 90.58 2.32V2.31C90.54 2.18 90.61 2.09 90.75 2.09H94.56V0.799999C94.56 0.669999 94.64 0.6 94.77 0.61L95.55 0.69C95.68 0.7 95.78 0.799999 95.71 0.92C95.65 1 95.56 1.05 95.39 1.07V2.09H98L98.4 1.61C98.48 1.52 98.58 1.5 98.68 1.58C98.9 1.75 99.17 1.96 99.39 2.14C99.48 2.22 99.53 2.31 99.45 2.4C99.4 2.47 99.33 2.49 99.23 2.49H95.85C96.68 3.38 98.16 4.12 99.46 4.52C99.58 4.55 99.63 4.6 99.62 4.67C99.61 4.74 99.55 4.78 99.44 4.82C99.24 4.9 99.1 5.03 99.01 5.2C98.94 5.32 98.87 5.36 98.75 5.31C97.47 4.7 96.22 3.73 95.51 2.49H95.39V4.63C95.39 4.79 95.04 4.91 94.71 4.91C94.62 4.91 94.56 4.84 94.56 4.71V2.93C93.59 4 92.21 4.86 90.65 5.44C90.53 5.48 90.45 5.46 90.41 5.38ZM90.41 9.25C90.37 9.12 90.45 9.05 90.59 9.05H98.12L98.52 8.58C98.6 8.48 98.7 8.48 98.8 8.55C99.03 8.72 99.3 8.92 99.52 9.1C99.61 9.18 99.66 9.27 99.59 9.37C99.54 9.43 99.47 9.45 99.37 9.45H90.64C90.53 9.45 90.45 9.39 90.42 9.28L90.41 9.25ZM93.11 7.79H96.87V6.84H93.11V7.79ZM93.11 6.44H96.87V5.53H93.11V6.44ZM108.5 3.48C108.58 3.39 108.67 3.37 108.78 3.44C109 3.61 109.26 3.81 109.48 3.98C109.57 4.06 109.62 4.15 109.55 4.25C109.5 4.31 109.42 4.33 109.33 4.33H103.98C103.81 4.58 103.66 4.8 103.5 5L103.74 5.09H107.34L107.61 4.81C107.69 4.72 107.79 4.71 107.89 4.79L108.48 5.22C108.59 5.3 108.61 5.42 108.5 5.5C108.43 5.54 108.35 5.57 108.25 5.59V9.55C108.23 9.69 107.83 9.84 107.55 9.84C107.46 9.84 107.41 9.77 107.41 9.64V9.18H103.61V9.55C103.61 9.67 103.37 9.84 102.94 9.84C102.85 9.84 102.8 9.77 102.8 9.64V5.81C102.17 6.43 101.45 6.97 100.64 7.42C100.53 7.47 100.45 7.47 100.4 7.41C100.35 7.36 100.38 7.28 100.49 7.19C101.6 6.41 102.47 5.43 103.1 4.33H100.73C100.62 4.33 100.53 4.28 100.5 4.16C100.46 4.03 100.53 3.95 100.67 3.95H103.3C103.46 3.65 103.59 3.36 103.7 3.08H101.48C101.37 3.08 101.28 3.03 101.25 2.91C101.21 2.78 101.28 2.7 101.42 2.7H103.85C103.95 2.41 104.03 2.13 104.1 1.84C103.13 1.92 102.12 1.96 101.15 1.95C101.03 1.95 100.97 1.9 100.95 1.8C100.93 1.71 101 1.65 101.14 1.64C103.45 1.49 106.24 1.05 107.78 0.6C107.88 0.569999 107.97 0.59 108.05 0.669999L108.61 1.19C108.71 1.29 108.73 1.44 108.58 1.46C108.48 1.47 108.35 1.44 108.18 1.37C107.3 1.52 106.23 1.66 105.07 1.76C104.98 2.1 104.88 2.4 104.77 2.7H107.4L107.79 2.23C107.87 2.14 107.97 2.12 108.07 2.2C108.29 2.36 108.55 2.56 108.77 2.73C108.86 2.81 108.91 2.9 108.84 3C108.79 3.06 108.71 3.08 108.62 3.08H104.62C104.49 3.39 104.34 3.68 104.19 3.95H108.1L108.5 3.48ZM103.61 8.78H107.41V7.92H103.61V8.78ZM103.61 7.53H107.41V6.68H103.61V7.53ZM103.61 6.3H107.41V5.48H103.61V6.3Z" fill="#917E78"/>
</svg>
