<svg width="175" height="54" viewBox="0 0 175 54" fill="none" xmlns="http://www.w3.org/2000/svg">
<path d="M80.686 11.928C80.956 12.072 81.082 12.324 80.848 12.504C80.722 12.612 80.578 12.666 80.434 12.702V16.914C80.434 17.742 80.2 18.408 79.048 18.624C78.742 18.678 78.58 18.498 78.544 18.192C78.526 17.922 78.472 17.778 78.4 17.67C78.364 17.616 78.22 17.526 77.986 17.436C77.734 17.346 77.59 17.274 77.59 17.148C77.59 17.04 77.752 16.986 78.058 17.004C78.292 17.004 78.508 17.022 78.67 17.022C78.94 17.022 78.958 17.004 78.958 16.86V12.864L77.32 13.53V18.858C77.32 19.128 76.744 19.362 76.15 19.362C75.988 19.362 75.88 19.2 75.88 18.912V14.106L74.422 14.7V20.352C74.422 20.676 74.548 20.784 75.376 20.784H77.554C78.454 20.784 79.192 20.766 79.498 20.748C79.75 20.73 79.912 20.694 80.002 20.604C80.164 20.388 80.344 19.956 80.524 19.38C80.614 19.128 80.704 19.002 80.758 19.002C80.812 19.002 80.848 19.146 80.866 19.434L80.92 20.604C81.406 20.748 81.586 20.928 81.586 21.27C81.586 22.044 80.83 22.26 77.446 22.26L75.16 22.242C73.414 22.242 72.928 21.954 72.928 20.676V15.312L72.28 15.564C72.046 15.654 71.848 15.636 71.686 15.438C71.542 15.276 71.65 15.096 71.956 14.97L72.928 14.556V11.928C72.928 11.64 73.108 11.478 73.396 11.514L74.53 11.622C74.836 11.658 75.088 11.892 74.854 12.126C74.764 12.216 74.62 12.288 74.422 12.306V13.944L75.88 13.35V10.416C75.88 10.128 76.06 9.948 76.348 9.984L77.482 10.092C77.788 10.128 78.022 10.38 77.806 10.614C77.698 10.704 77.554 10.776 77.32 10.812V12.756L78.832 12.162L79.156 11.64C79.3 11.406 79.516 11.334 79.768 11.46L80.686 11.928ZM64.54 22.494C64.468 22.44 64.468 22.278 64.594 22.026C66.304 18.444 66.664 14.142 66.592 9.858H65.188C64.936 9.858 64.774 9.75 64.702 9.498C64.63 9.3 64.81 9.156 65.134 9.156H69.85L70.462 8.382C70.642 8.166 70.876 8.112 71.11 8.292C71.452 8.562 71.83 8.886 72.136 9.174C72.334 9.354 72.46 9.57 72.262 9.75C72.19 9.84 72.064 9.858 71.92 9.858H68.284C68.248 10.74 68.212 11.604 68.14 12.468H69.652L70.174 11.982C70.372 11.784 70.588 11.766 70.804 11.946L71.704 12.648C71.956 12.846 72.028 13.134 71.758 13.26C71.632 13.314 71.488 13.35 71.308 13.368C71.164 18.876 70.822 21.018 70.048 21.792C69.652 22.188 69.184 22.368 68.662 22.422C68.374 22.476 68.23 22.296 68.194 21.99C68.176 21.792 68.122 21.63 67.978 21.486C67.87 21.36 67.636 21.252 67.312 21.162C67.06 21.072 66.934 20.964 66.934 20.802C66.934 20.658 67.096 20.586 67.402 20.622C67.78 20.658 68.158 20.676 68.374 20.676C68.662 20.676 68.824 20.64 68.932 20.514C69.436 20.01 69.67 17.994 69.796 13.188H68.086C67.744 16.554 66.934 19.722 64.936 22.242C64.756 22.476 64.63 22.548 64.54 22.494ZM66.754 6.348C66.574 6.096 66.502 5.952 66.574 5.898C66.664 5.844 66.808 5.844 67.042 5.916C70.408 7.086 69.364 9.462 68.104 9.012C67.888 8.922 67.816 8.76 67.78 8.544C67.672 7.788 67.24 6.96 66.754 6.348ZM71.56 12.396C71.47 12.342 71.488 12.18 71.632 11.928C72.496 10.452 73.234 8.4 73.648 6.258C73.702 5.952 73.9 5.844 74.188 5.916L75.61 6.294C75.916 6.384 76.114 6.654 75.862 6.834C75.736 6.906 75.592 6.942 75.376 6.942C75.142 7.554 74.89 8.148 74.62 8.67H78.616L79.336 7.806C79.516 7.59 79.75 7.554 79.966 7.734C80.362 8.04 80.812 8.382 81.19 8.688C81.388 8.868 81.496 9.084 81.316 9.264C81.226 9.354 81.118 9.372 80.974 9.372H74.26C73.594 10.524 72.82 11.496 72.01 12.234C71.812 12.432 71.65 12.468 71.56 12.396ZM95.356 6.024C95.662 6.06 95.914 6.312 95.698 6.546C95.59 6.654 95.428 6.726 95.194 6.762V9.732H97.048L97.534 9.246C97.732 9.048 97.948 9.048 98.164 9.21L99.136 9.93C99.37 10.11 99.46 10.38 99.208 10.524C99.064 10.596 98.92 10.65 98.758 10.686V21.702C98.722 21.972 98.002 22.278 97.426 22.278C97.282 22.278 97.192 22.116 97.192 21.828V21.216H91.72V21.9C91.72 22.17 91.162 22.494 90.478 22.494C90.316 22.494 90.226 22.332 90.226 22.044V13.116C90.118 13.35 90.01 13.386 89.776 13.386H87.094V13.926L87.13 13.908C90.91 15.276 89.884 17.796 88.624 17.292C88.408 17.202 88.336 17.04 88.3 16.806C88.138 16.014 87.634 15.096 87.094 14.394V22.044C87.094 22.26 86.644 22.548 85.924 22.548C85.762 22.548 85.672 22.386 85.672 22.098V16.032C85.006 17.472 84.106 18.768 83.044 19.884C82.846 20.1 82.684 20.154 82.594 20.046C82.486 19.938 82.522 19.794 82.684 19.56C83.818 17.796 84.592 15.582 85.042 13.386H83.152C82.9 13.386 82.738 13.26 82.666 13.044C82.594 12.846 82.774 12.702 83.098 12.702H85.672V8.094C84.826 8.238 83.962 8.346 83.134 8.418C82.864 8.436 82.702 8.364 82.666 8.202C82.63 8.04 82.774 7.932 83.044 7.86C84.898 7.392 87.04 6.636 88.3 6.006C88.516 5.898 88.714 5.916 88.912 6.078L89.884 6.888C90.136 7.104 90.172 7.464 89.848 7.464C89.686 7.464 89.506 7.41 89.272 7.32C88.642 7.5 87.886 7.68 87.094 7.842V12.702H87.958L88.48 12.054C88.66 11.838 88.894 11.802 89.11 11.982C89.488 12.27 89.902 12.63 90.226 12.936V9.642C90.226 9.318 90.442 9.174 90.748 9.3L91.81 9.732H93.628V6.33C93.628 6.042 93.808 5.862 94.096 5.898L95.356 6.024ZM83.368 9.3C83.26 9.012 83.242 8.832 83.332 8.814C83.44 8.778 83.566 8.832 83.764 8.976C86.176 10.794 85.114 12.738 84.124 12.252C83.926 12.144 83.89 11.964 83.872 11.73C83.872 10.956 83.638 10.02 83.368 9.3ZM87.598 12.198C87.526 12.18 87.526 12.018 87.598 11.748C87.85 10.776 88.102 9.534 88.246 8.706C88.3 8.4 88.48 8.274 88.786 8.382L89.794 8.706C90.064 8.796 90.262 9.048 90.028 9.246C89.938 9.318 89.794 9.372 89.596 9.354C89.2 10.02 88.57 11.082 87.94 11.928C87.778 12.144 87.67 12.216 87.598 12.198ZM91.72 20.514H93.628V15.6H91.72V20.514ZM91.72 14.898H93.628V10.452H91.72V14.898ZM95.194 20.514H97.192V15.6H95.194V20.514ZM95.194 14.898H97.192V10.452H95.194V14.898Z" fill="#7A6855"/>
<path d="M43.616 36.428C43.664 36.428 43.724 36.512 43.784 36.68C44.24 37.928 44.264 39.044 43.688 39.536C43.028 40.088 42.188 39.308 43.028 38.564C43.304 38.3 43.544 37.616 43.544 36.728C43.544 36.536 43.556 36.44 43.616 36.428ZM42.776 44.96C42.716 44.876 42.74 44.768 42.86 44.624C44.768 42.44 44.504 39.308 44.492 34.148C44.492 33.944 44.612 33.824 44.804 33.848L45.848 33.944C46.04 33.968 46.196 34.112 46.076 34.28C46.052 34.328 46.016 34.352 45.968 34.388C45.824 34.484 45.728 34.556 45.728 34.736C45.728 35.132 45.728 35.54 45.716 35.912C45.716 36.296 45.716 36.668 45.716 37.016C45.716 37.316 45.932 37.412 46.028 37.16C46.148 36.848 46.256 36.572 46.34 36.332C46.4 36.14 46.544 36.08 46.724 36.176L47.528 36.608C47.696 36.704 47.792 36.896 47.624 36.992C47.6 37.004 47.564 37.016 47.528 37.028C47.372 37.064 47.252 37.076 47.156 37.196C47.156 37.196 47.24 37.364 47.492 37.364H47.72C47.888 37.364 47.984 37.34 48.008 37.28C48.02 37.256 48.02 37.232 48.032 37.196C48.128 36.932 48.224 36.656 48.308 36.404C48.32 36.356 48.344 36.308 48.356 36.26C48.404 36.128 48.416 36.08 48.428 36.056C48.428 36.044 48.44 36.032 48.44 36.02H47C46.832 36.02 46.712 35.948 46.664 35.768C46.616 35.612 46.724 35.504 46.94 35.504H48.332C48.5 35.504 48.62 35.42 48.68 35.252C48.824 34.784 48.944 34.364 49.028 34.028C49.076 33.848 49.208 33.776 49.388 33.824L50.468 34.112C50.672 34.172 50.792 34.34 50.636 34.484C50.6 34.52 50.552 34.544 50.504 34.568C50.336 34.616 50.216 34.652 50.168 34.82L50.06 35.168C50 35.372 50.096 35.504 50.312 35.504H51.992C52.148 35.504 52.256 35.444 52.352 35.336L52.688 34.964C52.808 34.82 52.964 34.796 53.108 34.904C53.372 35.096 53.696 35.324 53.972 35.54C54.104 35.648 54.188 35.792 54.068 35.924C54.008 35.996 53.912 36.02 53.816 36.02H50.036C49.868 36.02 49.76 36.104 49.7 36.26L49.424 37.016C49.352 37.232 49.436 37.364 49.616 37.364H49.7C49.856 37.364 49.964 37.328 50.072 37.208L50.3 36.956C50.42 36.824 50.576 36.8 50.72 36.908L51.596 37.52C51.752 37.628 51.812 37.82 51.644 37.928C51.62 37.952 51.596 37.964 51.56 37.988C51.404 38.06 51.308 38.156 51.308 38.324V39.212C51.308 39.404 51.404 39.512 51.572 39.512H51.608C51.764 39.512 51.884 39.464 51.98 39.344L52.328 38.948C52.448 38.804 52.604 38.78 52.748 38.9C53.012 39.092 53.324 39.32 53.588 39.536C53.708 39.656 53.792 39.8 53.672 39.932C53.612 40.004 53.528 40.028 53.432 40.028H51.608C51.416 40.028 51.308 40.136 51.308 40.328V43.604C51.308 44.384 51.152 44.888 49.976 45.056C49.772 45.092 49.664 44.984 49.64 44.78C49.616 44.576 49.568 44.396 49.424 44.24C49.316 44.12 49.124 44.024 48.764 43.94C48.584 43.892 48.488 43.82 48.488 43.712C48.488 43.604 48.596 43.556 48.8 43.568C49.232 43.592 49.652 43.616 49.784 43.616C50 43.616 50.024 43.58 50.024 43.472V40.328C50.024 40.136 49.916 40.028 49.724 40.028H48.62C48.464 40.028 48.368 40.064 48.26 40.184L48.224 40.22C48.104 40.352 47.972 40.364 47.816 40.28L47.036 39.824C46.844 39.704 46.808 39.536 46.964 39.44C47 39.416 47.024 39.404 47.048 39.38C47.18 39.308 47.264 39.236 47.324 39.092C47.444 38.816 47.552 38.528 47.672 38.216C47.756 38 47.648 37.868 47.432 37.868H47.324C47.156 37.868 47.048 37.784 47 37.652C46.964 37.532 46.82 37.568 46.652 37.748C46.388 38.024 46.112 38.312 45.836 38.588C45.728 38.696 45.68 38.792 45.668 38.948C45.632 39.488 45.584 40.004 45.524 40.472C45.5 40.64 45.572 40.76 45.728 40.856C47.708 42.032 46.904 43.616 46.064 43.22C45.932 43.148 45.884 43.04 45.872 42.872C45.848 42.584 45.764 42.26 45.644 41.948C45.548 41.672 45.296 41.696 45.212 41.984C44.828 43.172 44.192 44.144 43.112 44.912C42.956 45.032 42.836 45.044 42.776 44.96ZM46.352 44.492C46.292 44.432 46.316 44.324 46.436 44.168C47.072 43.364 47.66 42.224 48.02 41C48.08 40.808 48.212 40.736 48.392 40.796L49.46 41.156C49.652 41.216 49.76 41.396 49.604 41.54C49.568 41.576 49.52 41.6 49.46 41.624C49.304 41.66 49.184 41.684 49.1 41.84C48.416 42.968 47.576 43.868 46.664 44.444C46.52 44.54 46.412 44.552 46.352 44.492ZM48.644 39.236C48.584 39.404 48.692 39.512 48.908 39.512H49.724C49.916 39.512 50.024 39.404 50.024 39.212V38.168C50.024 37.976 49.916 37.868 49.724 37.868H49.388C49.22 37.868 49.112 37.916 49.076 38.024C49.052 38.084 49.04 38.132 49.016 38.192C48.98 38.276 48.956 38.36 48.932 38.42C48.86 38.624 48.8 38.78 48.74 38.96L48.644 39.236ZM51.8 41.264C51.692 41.096 51.668 40.988 51.728 40.952C51.788 40.916 51.884 40.928 52.04 41C55.076 42.44 54.188 44.672 53.072 44.144C52.928 44.084 52.88 43.976 52.856 43.832C52.736 42.992 52.268 42.02 51.8 41.264ZM60.792 33.944C60.984 33.968 61.14 34.112 61.02 34.28C60.984 34.328 60.948 34.364 60.9 34.4C60.744 34.484 60.636 34.544 60.612 34.712C60.588 34.928 60.552 35.132 60.516 35.336C60.492 35.54 60.588 35.66 60.792 35.66H64.632C64.788 35.66 64.896 35.6 64.992 35.492L65.46 34.976C65.58 34.832 65.736 34.808 65.88 34.916C66.216 35.156 66.612 35.444 66.936 35.696C67.068 35.792 67.164 35.924 67.056 36.068C66.996 36.152 66.9 36.176 66.78 36.176H60.66C60.48 36.176 60.372 36.26 60.336 36.452C59.64 39.824 58.392 42.32 56.364 44.024C56.22 44.144 56.112 44.18 56.052 44.12C55.992 44.06 56.016 43.964 56.124 43.808C57.48 41.876 58.44 39.392 58.884 36.5C58.92 36.296 58.812 36.176 58.608 36.176H56.268C56.1 36.176 55.98 36.104 55.932 35.924C55.884 35.768 55.992 35.66 56.208 35.66H58.716C58.896 35.66 59.016 35.564 59.028 35.372C59.064 34.94 59.1 34.508 59.124 34.064C59.136 33.86 59.256 33.764 59.448 33.788L60.792 33.944ZM57.492 44.912C57.444 44.816 57.516 44.72 57.708 44.636C61.968 42.8 61.884 40.364 61.884 36.812C61.884 36.608 62.004 36.512 62.196 36.524L63.372 36.632C63.576 36.656 63.732 36.788 63.6 36.968C63.576 37.004 63.552 37.028 63.516 37.052C63.372 37.16 63.276 37.232 63.288 37.412C63.36 38.384 63.468 39.224 63.648 39.956C63.72 40.22 63.936 40.244 64.068 40.004C64.452 39.308 64.812 38.564 65.028 38.012C65.1 37.82 65.244 37.772 65.424 37.868L66.576 38.504C66.744 38.6 66.852 38.792 66.684 38.9C66.648 38.912 66.612 38.924 66.564 38.924C66.408 38.936 66.288 38.96 66.18 39.068C65.628 39.608 64.92 40.232 64.188 40.772C64.044 40.88 64.008 41.012 64.08 41.18C64.596 42.284 65.472 43.064 66.9 43.616C67.068 43.688 67.152 43.748 67.152 43.856C67.14 43.952 67.056 44.024 66.888 44.072C66.504 44.204 66.24 44.408 66.12 44.732C66.048 44.936 65.94 45.008 65.76 44.9C64.152 43.94 63.504 42.212 63.24 39.764C63.204 39.488 63.156 39.476 63.12 39.752C62.82 42.056 61.776 43.82 57.84 44.984C57.66 45.032 57.552 45.008 57.492 44.912ZM59.28 41.096C59.064 40.688 59.352 40.292 59.676 40.088C60.132 39.752 60.588 39.032 60.636 38.192C60.648 37.988 60.672 37.88 60.708 37.88C60.744 37.892 60.792 37.964 60.852 38.12C61.392 39.632 61.02 40.76 60.492 41.192C60.084 41.516 59.544 41.552 59.28 41.096ZM77.848 34.664C77.992 34.664 78.112 34.628 78.22 34.508L78.472 34.244C78.592 34.112 78.748 34.088 78.892 34.196L79.78 34.832C79.936 34.952 79.996 35.12 79.828 35.24C79.78 35.276 79.732 35.3 79.684 35.336C79.516 35.408 79.432 35.504 79.432 35.672V39.164C79.408 39.38 78.784 39.536 78.388 39.536C78.256 39.536 78.184 39.428 78.184 39.236V38.732C78.184 38.54 78.076 38.432 77.884 38.432H76.9C76.708 38.432 76.6 38.54 76.6 38.732V43.268C76.6 43.424 76.648 43.472 77.032 43.472H77.992C78.388 43.472 78.7 43.46 78.856 43.448C79.024 43.436 79.096 43.4 79.132 43.328C79.252 43.1 79.408 42.488 79.576 41.816C79.624 41.636 79.684 41.552 79.72 41.552C79.756 41.552 79.78 41.648 79.78 41.852L79.816 43.112C79.816 43.28 79.9 43.364 80.032 43.472C80.188 43.58 80.248 43.724 80.248 43.904C80.248 44.468 79.708 44.696 77.884 44.696H76.744C75.616 44.696 75.352 44.468 75.352 43.556V37.784C75.352 37.568 75.496 37.472 75.7 37.544L76.576 37.856C76.708 37.904 76.816 37.916 76.948 37.916H77.884C78.076 37.916 78.184 37.808 78.184 37.616V35.468C78.184 35.276 78.076 35.168 77.884 35.168H75.676C75.508 35.168 75.388 35.084 75.34 34.916C75.292 34.772 75.4 34.664 75.616 34.664H77.848ZM68.92 34.928C68.872 34.772 68.98 34.676 69.196 34.676H73.012C73.168 34.676 73.288 34.628 73.384 34.508L73.72 34.1C73.84 33.944 73.984 33.932 74.128 34.052C74.392 34.244 74.704 34.484 74.956 34.7C75.088 34.808 75.172 34.952 75.052 35.084C74.992 35.156 74.92 35.18 74.812 35.18H73.3C73.108 35.18 73 35.288 73 35.48V36.44C73 36.632 73.048 36.74 73.132 36.74C73.216 36.74 73.312 36.692 73.42 36.584L73.636 36.368C73.768 36.236 73.912 36.236 74.056 36.344L74.8 36.896C74.956 37.016 75.016 37.184 74.848 37.304C74.836 37.316 74.812 37.328 74.788 37.34C74.632 37.424 74.548 37.52 74.548 37.688V44.432C74.524 44.672 73.924 44.852 73.564 44.852C73.444 44.852 73.372 44.744 73.372 44.552V44.252C73.372 44.06 73.264 43.952 73.072 43.952H70.636C70.444 43.952 70.336 44.06 70.336 44.252V44.612C70.336 44.84 69.856 45.056 69.4 45.056C69.292 45.056 69.22 44.948 69.22 44.756V36.644C69.22 36.428 69.364 36.332 69.568 36.416L70.216 36.668C70.336 36.716 70.432 36.74 70.528 36.74C70.612 36.74 70.66 36.632 70.66 36.44V35.48C70.66 35.288 70.552 35.18 70.36 35.18H69.256C69.088 35.18 68.968 35.096 68.92 34.928ZM70.336 43.148C70.336 43.34 70.444 43.448 70.636 43.448H73.072C73.264 43.448 73.372 43.34 73.372 43.148V42.248C73.372 42.056 73.264 41.948 73.072 41.948H70.636C70.444 41.948 70.336 42.056 70.336 42.248V43.148ZM70.336 41.144C70.336 41.336 70.444 41.444 70.636 41.444H73.072C73.264 41.444 73.372 41.336 73.372 41.144V40.532C73.372 40.34 73.3 40.232 73.18 40.232C73.108 40.244 73.048 40.244 72.976 40.244H72.676C72.124 40.244 72.064 39.992 72.064 39.524V37.556C72.064 37.364 71.98 37.256 71.824 37.256C71.668 37.256 71.584 37.364 71.584 37.556V37.664C71.584 38.444 71.512 39.68 70.66 40.544C70.528 40.688 70.408 40.724 70.384 40.688C70.36 40.652 70.336 40.892 70.336 41.144ZM70.336 39.404C70.336 39.692 70.624 39.764 70.696 39.476C70.852 38.84 70.852 38.204 70.852 37.652V37.556C70.852 37.364 70.768 37.256 70.6 37.256C70.432 37.256 70.336 37.364 70.336 37.556V39.404ZM71.584 36.44C71.584 36.632 71.668 36.74 71.824 36.74C71.98 36.74 72.064 36.632 72.064 36.44V35.48C72.064 35.288 71.98 35.18 71.824 35.18C71.668 35.18 71.584 35.288 71.584 35.48V36.44ZM72.808 39.26C72.808 39.332 72.808 39.332 72.904 39.332H73.072C73.264 39.332 73.372 39.224 73.372 39.032V37.556C73.372 37.364 73.276 37.256 73.096 37.256C72.916 37.256 72.808 37.364 72.808 37.556V39.26ZM90.548 33.98C90.74 33.992 90.896 34.124 90.8 34.304C90.776 34.364 90.728 34.412 90.68 34.448C90.524 34.532 90.428 34.616 90.428 34.784V36.128C90.428 36.32 90.536 36.428 90.728 36.428H91.184C91.328 36.428 91.448 36.38 91.556 36.272L91.784 36.044C91.916 35.924 92.072 35.912 92.216 36.02L92.996 36.596C93.152 36.716 93.212 36.884 93.044 37.004C93.02 37.016 93.008 37.028 92.984 37.04C92.828 37.124 92.744 37.208 92.744 37.376V44.48C92.72 44.72 92.108 44.912 91.7 44.912C91.568 44.912 91.496 44.804 91.496 44.612V44.48C91.496 44.288 91.388 44.18 91.196 44.18H88.436C88.244 44.18 88.136 44.288 88.136 44.48V44.6C88.136 44.852 87.656 45.068 87.152 45.068C87.032 45.068 86.96 44.96 86.96 44.768V39.248C86.96 39.032 86.924 38.924 86.84 38.948C86.804 38.96 86.768 38.972 86.72 38.972H85.256C85.064 38.972 84.956 39.032 84.956 39.14C84.956 39.2 84.968 39.308 84.968 39.296V39.26C87.644 40.22 86.744 42.02 85.82 41.624C85.676 41.552 85.628 41.432 85.616 41.276C85.58 40.964 85.472 40.628 85.328 40.304C85.208 40.028 84.956 40.1 84.956 40.4V44.708C84.956 44.912 84.572 45.104 84.044 45.104C83.924 45.104 83.852 44.996 83.852 44.804V41.684C83.852 41.396 83.66 41.336 83.504 41.6C83.108 42.236 82.64 42.8 82.136 43.292C81.992 43.436 81.896 43.472 81.824 43.4C81.752 43.328 81.776 43.232 81.872 43.076C82.568 41.972 83.048 40.64 83.336 39.296C83.384 39.092 83.276 38.972 83.072 38.972H82.208C82.04 38.972 81.92 38.9 81.872 38.72C81.824 38.564 81.932 38.456 82.148 38.456H83.552C83.744 38.456 83.852 38.348 83.852 38.156V35.78C83.852 35.576 83.732 35.468 83.54 35.492C83.084 35.552 82.616 35.6 82.172 35.636C81.992 35.648 81.896 35.6 81.86 35.48C81.836 35.372 81.92 35.288 82.112 35.24C83.348 34.904 84.764 34.364 85.592 33.932C85.736 33.848 85.868 33.872 86 33.98L86.828 34.664C86.996 34.796 87.02 35.036 86.804 35.06C86.72 35.072 86.636 35.06 86.516 35.036C86.372 35 86.264 34.988 86.132 35.024C85.844 35.084 85.544 35.156 85.22 35.216C85.04 35.264 84.956 35.372 84.956 35.552V38.156C84.956 38.348 85.052 38.456 85.196 38.456C85.352 38.456 85.472 38.408 85.568 38.288L85.808 37.988C85.928 37.844 86.084 37.82 86.228 37.94C86.348 38.036 86.468 38.132 86.6 38.24C86.792 38.408 86.96 38.324 86.96 38.072V36.548C86.96 36.332 86.912 36.248 86.804 36.284C86.804 36.284 86.588 36.356 86.504 36.488C86.228 36.932 85.832 37.508 85.448 38C85.34 38.144 85.268 38.192 85.22 38.168C85.172 38.156 85.16 38.048 85.208 37.856C85.364 37.208 85.52 36.368 85.592 35.804C85.616 35.6 85.748 35.516 85.94 35.576L86.792 35.816C86.96 35.864 87.044 35.9 87.044 35.936C87.044 35.972 87.128 36.02 87.284 36.08L88.016 36.356C88.136 36.404 88.256 36.428 88.388 36.428H88.88C89.072 36.428 89.18 36.32 89.18 36.128V34.16C89.18 33.968 89.3 33.86 89.492 33.884L90.548 33.98ZM82.304 36.152C82.244 35.96 82.244 35.852 82.304 35.828C82.376 35.804 82.46 35.84 82.592 35.936C84.416 37.16 83.528 38.6 82.772 38.168C82.64 38.096 82.616 37.976 82.616 37.832C82.616 37.304 82.484 36.656 82.304 36.152ZM88.136 43.364C88.136 43.556 88.244 43.664 88.436 43.664H88.88C89.072 43.664 89.18 43.556 89.18 43.364V40.7C89.18 40.508 89.072 40.4 88.88 40.4H88.436C88.244 40.4 88.136 40.508 88.136 40.7V43.364ZM88.136 39.596C88.136 39.788 88.244 39.896 88.436 39.896H88.88C89.072 39.896 89.18 39.788 89.18 39.596V37.244C89.18 37.052 89.072 36.944 88.88 36.944H88.436C88.244 36.944 88.136 37.052 88.136 37.244V39.596ZM90.428 43.364C90.428 43.556 90.536 43.664 90.728 43.664H91.196C91.388 43.664 91.496 43.556 91.496 43.364V40.7C91.496 40.508 91.388 40.4 91.196 40.4H90.728C90.536 40.4 90.428 40.508 90.428 40.7V43.364ZM90.428 39.596C90.428 39.788 90.536 39.896 90.728 39.896H91.196C91.388 39.896 91.496 39.788 91.496 39.596V37.244C91.496 37.052 91.388 36.944 91.196 36.944H90.728C90.536 36.944 90.428 37.052 90.428 37.244V39.596ZM101.256 43.4C101.256 44.24 101.028 44.888 99.564 45.068C99.36 45.092 99.252 44.984 99.228 44.792C99.192 44.54 99.108 44.348 98.904 44.192C98.724 44.024 98.448 43.892 97.86 43.796C97.668 43.772 97.572 43.7 97.572 43.592C97.572 43.484 97.692 43.436 97.884 43.448L98.112 43.46C98.748 43.496 99.336 43.532 99.528 43.532C99.768 43.532 99.816 43.484 99.816 43.352V39.308C99.816 39.116 99.708 39.008 99.516 39.008H95.268C95.1 39.008 94.98 38.936 94.932 38.756C94.884 38.6 94.992 38.492 95.208 38.492H99.516C99.708 38.492 99.816 38.384 99.816 38.192V35.744C99.816 35.552 99.708 35.444 99.516 35.444H96.228C96.06 35.444 95.94 35.372 95.892 35.192C95.844 35.036 95.952 34.928 96.168 34.928H102.744C102.9 34.928 103.008 34.868 103.104 34.76L103.584 34.22C103.704 34.076 103.86 34.052 104.004 34.16C104.34 34.4 104.76 34.7 105.096 34.964C105.216 35.06 105.312 35.192 105.204 35.336C105.144 35.42 105.048 35.444 104.94 35.444H101.556C101.364 35.444 101.256 35.552 101.256 35.744V38.192C101.256 38.384 101.364 38.492 101.556 38.492H103.536C103.692 38.492 103.8 38.432 103.896 38.324L104.388 37.772C104.508 37.628 104.664 37.604 104.808 37.712C105.168 37.952 105.6 38.252 105.936 38.528C106.056 38.624 106.152 38.756 106.056 38.9C105.996 38.984 105.888 39.008 105.78 39.008H101.556C101.364 39.008 101.256 39.116 101.256 39.308V43.4ZM114.532 39.956C114.664 40.004 114.772 40.016 114.904 40.016H116.68C116.824 40.016 116.944 39.968 117.052 39.86L117.364 39.548C117.496 39.416 117.64 39.416 117.784 39.512L118.624 40.088C118.792 40.196 118.852 40.388 118.684 40.508C118.672 40.52 118.648 40.532 118.624 40.544C118.468 40.616 118.372 40.712 118.372 40.88V44.576C118.372 44.756 117.916 44.948 117.184 44.948C117.028 44.948 116.932 44.84 116.932 44.648V44.3C116.932 44.108 116.824 44 116.632 44H114.88C114.688 44 114.58 44.108 114.58 44.3V44.696C114.58 44.876 114.184 45.08 113.452 45.08C113.296 45.08 113.212 44.972 113.212 44.78V39.86C113.212 39.644 113.356 39.548 113.56 39.62L114.532 39.956ZM107.8 45.044C107.728 44.996 107.74 44.9 107.812 44.732C108.604 42.824 108.604 40.496 108.604 38.3V34.388C108.604 34.172 108.748 34.076 108.952 34.148L109.888 34.46C110.02 34.508 110.128 34.52 110.26 34.52H110.572C110.716 34.52 110.836 34.484 110.944 34.364L111.172 34.124C111.292 33.992 111.448 33.98 111.592 34.088L112.42 34.676C112.576 34.784 112.636 34.976 112.468 35.084C112.456 35.096 112.444 35.096 112.42 35.108C112.264 35.18 112.18 35.288 112.18 35.456V43.592C112.18 44.384 112.012 44.9 110.908 45.068C110.704 45.104 110.584 44.996 110.56 44.804C110.536 44.564 110.488 44.396 110.38 44.252C110.296 44.144 110.14 44.036 109.828 43.952C109.648 43.916 109.552 43.832 109.552 43.724C109.552 43.616 109.66 43.568 109.864 43.58C110.212 43.604 110.548 43.628 110.656 43.628C110.872 43.628 110.896 43.592 110.896 43.472V40.868C110.896 40.676 110.788 40.568 110.596 40.568H110.08C109.9 40.568 109.78 40.664 109.756 40.844C109.576 42.284 109.144 43.748 108.088 44.912C107.956 45.044 107.86 45.08 107.8 45.044ZM109.84 39.74C109.828 39.944 109.936 40.052 110.128 40.052H110.596C110.788 40.052 110.896 39.944 110.896 39.752V38.048C110.896 37.856 110.788 37.748 110.596 37.748H110.164C109.972 37.748 109.864 37.856 109.864 38.048V38.3C109.864 38.744 109.864 39.248 109.84 39.74ZM109.864 36.932C109.864 37.124 109.972 37.232 110.164 37.232H110.596C110.788 37.232 110.896 37.124 110.896 36.932V35.336C110.896 35.144 110.788 35.036 110.596 35.036H110.164C109.972 35.036 109.864 35.144 109.864 35.336V36.932ZM112.468 38.156C112.396 37.976 112.432 37.856 112.576 37.808C112.588 37.808 112.612 37.796 112.624 37.796C112.756 37.76 112.828 37.688 112.912 37.592C113.572 36.8 114.376 35.132 114.688 34.052C114.736 33.872 114.868 33.788 115.048 33.848L116.404 34.256C116.596 34.316 116.716 34.484 116.572 34.628C116.548 34.652 116.512 34.676 116.476 34.688C116.332 34.76 116.212 34.784 116.116 34.916C115.54 35.744 114.724 36.704 113.944 37.472C113.74 37.664 113.812 37.832 114.088 37.808C114.916 37.76 115.948 37.7 117.004 37.628C117.244 37.604 117.328 37.448 117.208 37.256C116.992 36.896 116.728 36.548 116.464 36.236C116.332 36.092 116.284 35.984 116.344 35.936C116.404 35.888 116.512 35.888 116.68 35.948C120.1 37.22 119.296 39.656 118.084 39.128C117.94 39.068 117.88 38.96 117.856 38.804C117.82 38.624 117.772 38.456 117.688 38.264C117.628 38.084 117.484 38.024 117.316 38.084C116.368 38.372 115.048 38.744 113.476 39.104C113.332 39.14 113.26 39.164 113.26 39.164C113.26 39.176 113.26 39.176 113.248 39.176C113.116 39.344 112.936 39.26 112.852 39.068L112.468 38.156ZM114.58 43.184C114.58 43.376 114.688 43.484 114.88 43.484H116.632C116.824 43.484 116.932 43.376 116.932 43.184V40.832C116.932 40.64 116.824 40.532 116.632 40.532H114.88C114.688 40.532 114.58 40.64 114.58 40.832V43.184ZM129.872 38.864C130.028 38.864 130.148 38.816 130.244 38.696L130.616 38.264C130.736 38.12 130.892 38.096 131.036 38.204C131.324 38.408 131.672 38.66 131.96 38.9C132.092 39.008 132.176 39.152 132.056 39.284C131.996 39.356 131.9 39.38 131.792 39.38H128.864C128.564 39.38 128.492 39.632 128.768 39.752C129.596 40.112 130.652 40.364 131.96 40.496C132.152 40.508 132.26 40.556 132.26 40.664C132.248 40.784 132.176 40.832 132.056 40.94C131.9 41.096 131.792 41.324 131.732 41.624C131.696 41.828 131.624 41.924 131.528 41.9L131.468 41.876C131.348 41.84 131.288 41.828 131.264 41.828C131.252 41.816 131.252 41.816 131.24 41.816C131.204 41.804 131.18 41.804 131.132 41.792C130.976 41.84 130.904 41.96 130.904 42.128V44.552C130.88 44.768 130.232 44.936 129.848 44.936C129.716 44.936 129.632 44.828 129.632 44.636V44.564C129.632 44.372 129.524 44.264 129.332 44.264H128.468C128.276 44.264 128.168 44.372 128.168 44.564V44.648C128.168 44.888 127.592 45.08 127.1 45.08C126.992 45.08 126.932 44.972 126.932 44.78V41.06C126.932 40.844 127.076 40.736 127.28 40.808L128.036 41.084C128.156 41.132 128.276 41.156 128.408 41.156H129.308C129.452 41.156 129.536 41.144 129.536 41.144L129.548 41.132C128.756 40.7 128.168 40.196 127.664 39.56C127.556 39.428 127.448 39.38 127.292 39.38H126.068C125.924 39.38 125.804 39.428 125.696 39.536C125.18 40.028 124.556 40.484 123.812 40.892C123.584 41.012 123.416 41.12 123.44 41.132C123.488 41.156 123.56 41.156 123.692 41.156H124.496C124.64 41.156 124.76 41.12 124.868 41.012L125.108 40.784C125.24 40.664 125.384 40.64 125.528 40.748L126.32 41.312C126.464 41.42 126.536 41.588 126.38 41.708C126.356 41.72 126.332 41.744 126.308 41.756C126.152 41.84 126.068 41.924 126.068 42.092V44.456C126.044 44.696 125.408 44.876 125.036 44.876C124.904 44.876 124.82 44.768 124.82 44.576V44.564C124.82 44.372 124.712 44.264 124.52 44.264H123.752C123.56 44.264 123.452 44.372 123.452 44.564V44.732C123.452 44.948 122.936 45.152 122.408 45.152C122.3 45.152 122.228 45.044 122.228 44.852V41.96C122.228 41.744 122.096 41.648 121.892 41.708C121.652 41.792 121.424 41.864 121.184 41.924C121.004 41.96 120.896 41.948 120.848 41.852C120.8 41.768 120.884 41.684 121.076 41.6C122.312 41.072 123.236 40.424 123.932 39.752C124.124 39.56 124.028 39.38 123.764 39.38H121.28C121.112 39.38 120.992 39.308 120.944 39.128C120.896 38.972 121.004 38.864 121.22 38.864H124.46C124.616 38.864 124.736 38.816 124.82 38.684C124.952 38.516 125.048 38.348 125.144 38.192C125.276 37.964 125.276 37.796 125.168 37.808C125.096 37.82 125.024 37.832 124.964 37.832C124.832 37.832 124.76 37.748 124.76 37.616C124.76 37.484 124.652 37.412 124.46 37.412H123.62C123.428 37.412 123.32 37.52 123.32 37.712V37.904C123.32 38.144 122.756 38.324 122.276 38.324C122.168 38.324 122.096 38.216 122.096 38.024V34.508C122.096 34.292 122.228 34.184 122.444 34.268L123.188 34.544C123.308 34.592 123.428 34.604 123.56 34.604H124.436C124.58 34.604 124.7 34.556 124.808 34.448L125.024 34.232C125.144 34.1 125.3 34.076 125.444 34.184L126.248 34.748C126.404 34.856 126.464 35.048 126.296 35.156C126.284 35.168 126.26 35.18 126.236 35.192C126.08 35.276 125.996 35.372 125.996 35.54V37.424C125.996 37.46 125.984 37.496 125.972 37.52L126.728 37.76C126.932 37.832 127.064 37.724 127.064 37.508V34.508C127.064 34.292 127.208 34.184 127.412 34.256L128.168 34.532C128.288 34.58 128.408 34.604 128.54 34.604H129.5C129.644 34.604 129.764 34.556 129.872 34.448L130.112 34.208C130.232 34.076 130.388 34.052 130.532 34.16L131.384 34.76C131.54 34.868 131.6 35.06 131.432 35.168C131.408 35.192 131.372 35.204 131.348 35.228C131.192 35.3 131.096 35.396 131.096 35.564V37.448C131.096 37.58 131.096 37.7 130.976 37.772C130.772 37.916 130.328 38.012 130.04 38.012C129.908 38.012 129.824 37.904 129.824 37.712C129.824 37.52 129.716 37.412 129.524 37.412H128.6C128.408 37.412 128.3 37.424 128.3 37.448V37.496C129.284 37.7 129.488 38.24 129.344 38.6C129.26 38.792 129.272 38.864 129.476 38.864H129.872ZM123.32 36.596C123.32 36.788 123.428 36.896 123.62 36.896H124.46C124.652 36.896 124.76 36.788 124.76 36.596V35.408C124.76 35.216 124.652 35.108 124.46 35.108H123.62C123.428 35.108 123.32 35.216 123.32 35.408V36.596ZM123.452 43.448C123.452 43.64 123.56 43.748 123.752 43.748H124.52C124.712 43.748 124.82 43.64 124.82 43.448V41.972C124.82 41.78 124.712 41.672 124.52 41.672H123.752C123.56 41.672 123.452 41.78 123.452 41.972V43.448ZM126.488 38.564C126.38 38.732 126.488 38.864 126.728 38.864H128.024C128.24 38.864 128.372 38.72 128.264 38.516C128.192 38.36 128.072 38.192 127.94 38.036C127.832 37.916 127.712 37.88 127.556 37.916C127.448 37.928 127.34 37.94 127.232 37.94C127.22 37.94 127.22 38.036 127.1 38.156C127.052 38.204 127.004 38.24 126.932 38.252C126.764 38.288 126.656 38.312 126.56 38.456C126.536 38.492 126.512 38.528 126.488 38.564ZM128.168 43.448C128.168 43.64 128.276 43.748 128.468 43.748H129.332C129.524 43.748 129.632 43.64 129.632 43.448V41.972C129.632 41.78 129.524 41.672 129.332 41.672H128.468C128.276 41.672 128.168 41.78 128.168 41.972V43.448ZM128.3 36.596C128.3 36.788 128.408 36.896 128.6 36.896H129.524C129.716 36.896 129.824 36.788 129.824 36.596V35.408C129.824 35.216 129.716 35.108 129.524 35.108H128.6C128.408 35.108 128.3 35.216 128.3 35.408V36.596Z" fill="#AA967F"/>
</svg>
