<svg width="63" height="15" viewBox="0 0 63 15" fill="none" xmlns="http://www.w3.org/2000/svg">
<path d="M7.92 2.6386C6.38 5.2186 3.975 7.2236 0.705 8.6536L0.57 8.3836C3.64 6.5136 5.805 4.0086 7.065 0.868597C8.275 1.3786 8.88 1.7136 8.88 1.8736C8.88 1.9436 8.785 1.9886 8.595 2.0086C8.405 2.0286 8.27 2.0986 8.19 2.2186C8.72 3.2886 9.57 4.2286 10.74 5.0386C11.92 5.8386 13.26 6.4036 14.76 6.7336L14.73 7.0936C14.11 7.0836 13.685 7.1286 13.455 7.2286C13.225 7.3186 13 7.5136 12.78 7.8136C12.73 7.8836 12.665 7.9186 12.585 7.9186C12.395 7.9186 11.705 7.4286 10.515 6.4486C9.335 5.4686 8.47 4.1986 7.92 2.6386ZM6.825 5.1136C7.425 5.1836 7.875 5.2736 8.175 5.3836C8.475 5.4836 8.625 5.5636 8.625 5.6236C8.625 5.6936 8.49 5.7936 8.22 5.9236V12.7336C8.22 13.0636 8.23 13.4136 8.25 13.7836L8.265 14.2936C8.265 14.3736 8.215 14.4486 8.115 14.5186C8.025 14.5886 7.84 14.6686 7.56 14.7586C7.28 14.8486 7.065 14.8936 6.915 14.8936C6.845 14.8936 6.81 14.8186 6.81 14.6686L6.84 14.0836C6.85 13.6836 6.855 13.2336 6.855 12.7336V6.4486C6.855 5.9486 6.845 5.5036 6.825 5.1136ZM20.08 4.4536C20.87 4.6336 21.39 4.7936 21.64 4.9336C21.89 5.0636 22.015 5.2536 22.015 5.5036C22.015 5.7436 21.96 5.9786 21.85 6.2086C21.74 6.4286 21.595 6.5386 21.415 6.5386C21.245 6.5386 21.1 6.3936 20.98 6.1036C20.74 5.5036 20.44 5.0886 20.08 4.8586V14.0836C20.08 14.1836 20.035 14.2636 19.945 14.3236C19.855 14.3836 19.66 14.4636 19.36 14.5636C19.07 14.6736 18.895 14.7286 18.835 14.7286C18.775 14.7286 18.745 14.6986 18.745 14.6386C18.745 14.5786 18.75 14.3986 18.76 14.0986C18.78 13.8086 18.79 13.2986 18.79 12.5686V2.3386C18.79 1.8386 18.78 1.3936 18.76 1.0036C19.18 1.1036 19.565 1.2086 19.915 1.3186C20.275 1.4286 20.48 1.4986 20.53 1.5286C20.59 1.5586 20.62 1.5886 20.62 1.6186C20.62 1.6986 20.44 1.8336 20.08 2.0236V4.4536ZM25.21 9.5536H22.735C22.465 9.5536 22.255 9.5886 22.105 9.6586L21.82 9.0436C22.03 9.0936 22.28 9.1186 22.57 9.1186H25.21V5.8336H23.215C22.695 7.2536 22.025 8.5636 21.205 9.7636L20.905 9.6136C21.825 7.5336 22.415 5.1336 22.675 2.4136C23.265 2.6136 23.7 2.7886 23.98 2.9386C24.26 3.0786 24.4 3.1736 24.4 3.2236C24.4 3.2736 24.34 3.3136 24.22 3.3436C24.11 3.3736 24.025 3.4236 23.965 3.4936C23.905 3.5536 23.815 3.8036 23.695 4.2436C23.585 4.6836 23.475 5.0736 23.365 5.4136H25.21V2.4286C25.21 1.6586 25.2 1.1886 25.18 1.0186C25.61 1.0786 25.985 1.1536 26.305 1.2436C26.625 1.3336 26.82 1.3986 26.89 1.4386C26.96 1.4786 26.995 1.5186 26.995 1.5586C26.995 1.6386 26.845 1.7536 26.545 1.9036V5.4136H27.775L28.345 4.5286C28.455 4.3486 28.55 4.2586 28.63 4.2586C28.72 4.2586 28.895 4.3786 29.155 4.6186L29.86 5.2936C30.07 5.4936 30.175 5.6336 30.175 5.7136C30.175 5.7936 30.09 5.8336 29.92 5.8336H26.545V9.1186H27.67L28.285 8.2486C28.395 8.0986 28.495 8.0236 28.585 8.0236C28.675 8.0236 28.92 8.2236 29.32 8.6236C29.72 9.0236 29.92 9.2786 29.92 9.3886C29.92 9.4986 29.825 9.5536 29.635 9.5536H26.545V13.2586H28.345L29.035 12.4036C29.155 12.2536 29.25 12.1786 29.32 12.1786C29.39 12.1786 29.48 12.2286 29.59 12.3286C29.7 12.4286 29.88 12.5986 30.13 12.8386C30.38 13.0886 30.545 13.2636 30.625 13.3636C30.715 13.4736 30.76 13.5586 30.76 13.6186C30.76 13.6886 30.665 13.7236 30.475 13.7236H21.82C21.55 13.7236 21.34 13.7586 21.19 13.8286L20.935 13.1836C21.145 13.2336 21.395 13.2586 21.685 13.2586H25.21V9.5536ZM17.845 4.3936C18.045 5.2736 18.145 6.0336 18.145 6.6736C18.145 7.3036 18.02 7.7486 17.77 8.0086C17.52 8.2586 17.255 8.3836 16.975 8.3836C16.815 8.3836 16.675 8.3286 16.555 8.2186C16.445 8.0986 16.39 7.9886 16.39 7.8886C16.39 7.7786 16.52 7.5586 16.78 7.2286C17.04 6.8986 17.22 6.5086 17.32 6.0586C17.42 5.6086 17.455 5.0586 17.425 4.4086L17.845 4.3936ZM34.745 4.7686H33.41C33.16 4.7686 32.945 4.7936 32.765 4.8436L32.51 4.2586C32.72 4.3086 32.97 4.3336 33.26 4.3336H34.745V2.7436C34.745 2.1636 34.735 1.6236 34.715 1.1236C35.475 1.2736 35.95 1.3886 36.14 1.4686C36.34 1.5486 36.44 1.6236 36.44 1.6936C36.44 1.7936 36.28 1.9186 35.96 2.0686V4.3336H36.335L36.95 3.5536C37.05 3.4236 37.135 3.3586 37.205 3.3586C37.285 3.3586 37.485 3.5486 37.805 3.9286C38.125 4.2986 38.285 4.5436 38.285 4.6636C39.155 3.3936 39.83 2.1486 40.31 0.928597C40.73 1.0886 41.105 1.2586 41.435 1.4386C41.775 1.6186 41.945 1.7386 41.945 1.7986C41.945 1.8586 41.865 1.8936 41.705 1.9036C41.555 1.9136 41.4 2.0336 41.24 2.2636C41.09 2.4936 40.855 2.8186 40.535 3.2386H42.245L42.695 2.7436C42.755 2.6736 42.81 2.6386 42.86 2.6386C42.92 2.6386 43.185 2.7786 43.655 3.0586C44.135 3.3286 44.375 3.5136 44.375 3.6136C44.375 3.7136 44.27 3.7786 44.06 3.8086C43.85 3.8386 43.645 3.9236 43.445 4.0636C43.245 4.1936 42.965 4.4186 42.605 4.7386C42.255 5.0586 41.93 5.3886 41.63 5.7286H43.34L43.73 5.1586C43.79 5.0786 43.85 5.0386 43.91 5.0386C43.98 5.0386 44.145 5.1336 44.405 5.3236L45.065 5.7736C45.235 5.8836 45.32 5.9886 45.32 6.0886C45.32 6.1886 45.1 6.3336 44.66 6.5236V9.5536H44.78L45.275 8.9086C45.355 8.8086 45.425 8.7586 45.485 8.7586C45.545 8.7586 45.715 8.9136 45.995 9.2236C46.285 9.5336 46.43 9.7436 46.43 9.8536C46.43 9.9236 46.335 9.9586 46.145 9.9586H42.2C42.86 11.6886 44.245 12.8686 46.355 13.4986V13.7836C45.735 13.7836 45.195 13.9986 44.735 14.4286C44.665 14.4986 44.61 14.5336 44.57 14.5336C44.45 14.5336 44.025 14.1336 43.295 13.3336C42.575 12.5436 42.07 11.4186 41.78 9.9586H41.465C41.165 11.1586 40.59 12.1186 39.74 12.8386C38.89 13.5586 37.545 14.2086 35.705 14.7886L35.645 14.5186C36.975 13.9186 38.005 13.2586 38.735 12.5386C39.465 11.8186 39.98 10.9586 40.28 9.9586H37.085C36.875 9.9586 36.72 9.9886 36.62 10.0486L36.455 9.4786C36.595 9.5286 36.775 9.5536 36.995 9.5536H38.105V5.8186C37.765 6.1486 37.395 6.4736 36.995 6.7936L36.77 6.5986C37.4 5.8986 37.89 5.2886 38.24 4.7686H35.96V7.2886L37.85 6.6436L37.97 6.8986L35.96 7.9486V13.2436C35.96 13.6036 35.755 13.9186 35.345 14.1886C34.935 14.4686 34.625 14.6086 34.415 14.6086C34.305 14.6086 34.22 14.5236 34.16 14.3536C34.08 14.1036 33.895 13.9036 33.605 13.7536C33.315 13.6136 32.955 13.4836 32.525 13.3636L32.54 13.0786C33.19 13.1486 33.655 13.1836 33.935 13.1836C34.225 13.1836 34.43 13.1536 34.55 13.0936C34.68 13.0436 34.745 12.9086 34.745 12.6886V8.5786C34.035 8.9886 33.52 9.3336 33.2 9.6136C33.13 9.6736 33.065 9.7036 33.005 9.7036C32.955 9.7036 32.885 9.6436 32.795 9.5236C32.715 9.3936 32.51 9.0336 32.18 8.4436C32.9 8.2636 33.755 8.0136 34.745 7.6936V4.7686ZM40.22 3.6286C39.83 4.1286 39.285 4.7086 38.585 5.3686C38.925 5.4886 39.195 5.6086 39.395 5.7286H41.045C41.505 4.9186 41.865 4.2186 42.125 3.6286H40.22ZM40.685 6.1336H39.23V9.5536H40.385C40.605 8.6236 40.705 7.4836 40.685 6.1336ZM43.43 9.5536V6.1336H41.885C41.855 7.5736 41.745 8.7136 41.555 9.5536H43.43ZM58.47 4.6636C58.42 5.6336 58.365 6.5386 58.305 7.3786H60.12L60.765 6.4936C60.815 6.4236 60.875 6.3886 60.945 6.3886C61.015 6.3886 61.13 6.4536 61.29 6.5836C61.46 6.7036 61.64 6.8586 61.83 7.0486C62.03 7.2286 62.175 7.3686 62.265 7.4686C62.355 7.5686 62.4 7.6586 62.4 7.7386C62.4 7.8086 62.33 7.8436 62.19 7.8436H58.725C59.025 9.3236 59.495 10.4886 60.135 11.3386C60.775 12.1786 61.63 12.7836 62.7 13.1536L62.67 13.5136C62.45 13.4836 62.225 13.4686 61.995 13.4686C61.775 13.4686 61.575 13.5136 61.395 13.6036C61.225 13.7036 61.065 13.8736 60.915 14.1136C60.865 14.1936 60.805 14.2336 60.735 14.2336C60.555 14.2336 60.145 13.6986 59.505 12.6286C58.865 11.5686 58.49 9.9736 58.38 7.8436H58.275C58.125 9.4636 57.71 10.7986 57.03 11.8486C56.36 12.8886 55.295 13.8436 53.835 14.7136L53.67 14.4586C54.72 13.6586 55.51 12.7636 56.04 11.7736C56.58 10.7736 56.925 9.4636 57.075 7.8436H55.02C54.82 7.8436 54.66 7.8786 54.54 7.9486L54.33 7.3036C54.49 7.3536 54.685 7.3786 54.915 7.3786H57.105C57.185 6.3686 57.23 5.4636 57.24 4.6636H55.395C55.185 4.6636 55.02 4.6986 54.9 4.7686L54.69 4.1236C54.86 4.1736 55.055 4.1986 55.275 4.1986H57.24C57.25 3.3986 57.23 2.3386 57.18 1.0186C57.68 1.1486 58.1 1.2736 58.44 1.3936C58.79 1.5136 58.995 1.5936 59.055 1.6336C59.115 1.6736 59.145 1.7186 59.145 1.7686C59.145 1.8086 59.075 1.8536 58.935 1.9036C58.695 1.9836 58.57 2.1486 58.56 2.3986L58.5 4.1986H59.64L60.135 3.3886C60.195 3.2786 60.255 3.2236 60.315 3.2236C60.405 3.2236 60.655 3.4236 61.065 3.8236C61.485 4.2136 61.695 4.4536 61.695 4.5436C61.695 4.6236 61.625 4.6636 61.485 4.6636H58.47ZM51.42 2.2336H52.92L53.265 1.6636C53.315 1.5736 53.365 1.5286 53.415 1.5286C53.465 1.5286 53.655 1.6436 53.985 1.8736C54.325 2.1036 54.56 2.2686 54.69 2.3686C54.82 2.4686 54.885 2.5436 54.885 2.5936C54.885 2.6836 54.655 2.8336 54.195 3.0436V12.2536C54.195 12.7836 54.16 13.1486 54.09 13.3486C54.02 13.5586 53.815 13.7686 53.475 13.9786C53.135 14.1886 52.91 14.2936 52.8 14.2936C52.74 14.2936 52.69 14.2136 52.65 14.0536C52.58 13.7436 52.445 13.5036 52.245 13.3336C52.055 13.1636 51.675 12.9836 51.105 12.7936L51.165 12.5236C51.825 12.6336 52.255 12.6886 52.455 12.6886C52.655 12.6886 52.8 12.6636 52.89 12.6136C52.98 12.5636 53.025 12.4336 53.025 12.2236V8.8186H51.255C51.185 10.1686 50.965 11.2786 50.595 12.1486C50.235 13.0086 49.62 13.9036 48.75 14.8336L48.525 14.6386C49.345 13.4186 49.825 12.0886 49.965 10.6486C50.105 9.2086 50.175 7.3536 50.175 5.0836C50.175 3.9736 50.155 2.7936 50.115 1.5436C50.625 1.7836 51.06 2.0136 51.42 2.2336ZM51.36 5.2186H53.025V2.6836H51.375C51.375 3.8336 51.37 4.6786 51.36 5.2186ZM53.025 5.7586H51.345L51.27 8.3686H53.025V5.7586Z" fill="#9A764E"/>
</svg>
