<svg width="63" height="15" viewBox="0 0 63 15" fill="none" xmlns="http://www.w3.org/2000/svg">
    <path d="M8.04 5.625H5.88V7.62L7.83 6.915L7.98 7.215L5.88 8.37V12.465C5.88 12.835 5.825 13.115 5.715 13.305C5.615 13.495 5.37 13.69 4.98 13.89C4.6 14.09 4.345 14.19 4.215 14.19C4.095 14.19 4.015 14.115 3.975 13.965C3.865 13.585 3.68 13.3 3.42 13.11C3.17 12.93 2.655 12.72 1.875 12.48L1.935 12.135C3.055 12.285 3.75 12.36 4.02 12.36C4.3 12.36 4.47 12.33 4.53 12.27C4.59 12.22 4.62 12.125 4.62 11.985V9.06C3.76 9.52 3.175 9.845 2.865 10.035C2.555 10.225 2.375 10.365 2.325 10.455C2.275 10.545 2.205 10.59 2.115 10.59C2.035 10.59 1.965 10.57 1.905 10.53C1.855 10.49 1.735 10.32 1.545 10.02C1.355 9.72 1.175 9.41 1.005 9.09C2.045 8.86 3.25 8.52 4.62 8.07V5.625H1.815C1.545 5.625 1.335 5.66 1.185 5.73L0.915 5.055C1.125 5.105 1.375 5.13 1.665 5.13H4.62V3.45C3.41 3.69 2.285 3.83 1.245 3.87L1.2 3.54C2.48 3.19 3.49 2.865 4.23 2.565C4.98 2.255 5.76 1.865 6.57 1.395C7.33 2.235 7.71 2.725 7.71 2.865C7.71 2.915 7.68 2.94 7.62 2.94C7.57 2.94 7.515 2.935 7.455 2.925C7.395 2.905 7.325 2.895 7.245 2.895C7.045 2.895 6.59 2.98 5.88 3.15V5.13H8.01L7.665 0.584999C7.995 0.615 8.365 0.665 8.775 0.734999C9.195 0.794999 9.45 0.844999 9.54 0.884999C9.64 0.914999 9.69 0.97 9.69 1.05C9.69 1.13 9.515 1.295 9.165 1.545C9.165 2.995 9.2 4.19 9.27 5.13H11.835L12.45 4.2C12.52 4.09 12.605 4.035 12.705 4.035C12.815 4.035 13.105 4.25 13.575 4.68C14.045 5.1 14.28 5.365 14.28 5.475C14.28 5.575 14.155 5.625 13.905 5.625H9.3C9.42 6.975 9.6 8.04 9.84 8.82C10.38 8.02 10.815 7.19 11.145 6.33C11.995 6.66 12.47 6.855 12.57 6.915C12.68 6.975 12.735 7.045 12.735 7.125C12.735 7.195 12.655 7.25 12.495 7.29C12.345 7.32 12.155 7.51 11.925 7.86C11.335 8.73 10.785 9.44 10.275 9.99C10.495 10.45 10.77 10.895 11.1 11.325C11.44 11.755 11.675 12.02 11.805 12.12C11.935 12.22 12.06 12.27 12.18 12.27C12.3 12.27 12.41 12.215 12.51 12.105C12.62 12.005 12.765 11.665 12.945 11.085C13.135 10.505 13.3 9.935 13.44 9.375L13.785 9.495C13.615 10.295 13.53 10.99 13.53 11.58C13.53 12.17 13.68 12.815 13.98 13.515C14.04 13.665 14.07 13.785 14.07 13.875C14.07 14.055 13.91 14.145 13.59 14.145C11.89 14.145 10.485 13.055 9.375 10.875C8.505 11.635 7.405 12.31 6.075 12.9L5.925 12.63C7.105 11.81 8.115 10.915 8.955 9.945C8.505 8.835 8.2 7.395 8.04 5.625ZM9.915 1.83C10.645 2.01 11.18 2.175 11.52 2.325C11.86 2.475 12.08 2.625 12.18 2.775C12.28 2.925 12.33 3.115 12.33 3.345C12.33 3.575 12.245 3.8 12.075 4.02C11.905 4.24 11.715 4.35 11.505 4.35C11.445 4.35 11.395 4.335 11.355 4.305C11.325 4.275 11.285 4.2 11.235 4.08C10.855 3.29 10.365 2.63 9.765 2.1L9.915 1.83ZM25.615 4.515C25.185 5.385 24.425 6.54 23.335 7.98L23.08 7.815C23.7 6.465 24.16 5.32 24.46 4.38C24.77 3.43 25.07 2.205 25.36 0.705C25.82 0.864999 26.225 1.02 26.575 1.17C26.925 1.32 27.135 1.425 27.205 1.485C27.285 1.535 27.325 1.595 27.325 1.665C27.325 1.735 27.24 1.79 27.07 1.83C26.91 1.87 26.8 1.93 26.74 2.01C26.69 2.09 26.575 2.35 26.395 2.79C26.215 3.22 26.035 3.625 25.855 4.005H27.895L28.3 3.39C28.39 3.26 28.48 3.195 28.57 3.195C28.67 3.195 28.94 3.355 29.38 3.675C29.83 3.985 30.055 4.205 30.055 4.335C30.055 4.465 29.845 4.62 29.425 4.8C29.355 7.63 29.3 9.535 29.26 10.515C29.22 11.495 29.165 12.16 29.095 12.51C29.035 12.87 28.905 13.19 28.705 13.47C28.505 13.75 28.2 13.985 27.79 14.175C27.38 14.375 27.09 14.475 26.92 14.475C26.84 14.475 26.78 14.4 26.74 14.25C26.66 13.97 26.56 13.75 26.44 13.59C26.32 13.43 26.115 13.28 25.825 13.14C25.535 13 25.095 12.85 24.505 12.69L24.58 12.375C25.77 12.545 26.52 12.63 26.83 12.63C27.14 12.63 27.35 12.595 27.46 12.525C27.58 12.465 27.66 12.36 27.7 12.21C27.74 12.06 27.78 11.715 27.82 11.175C27.86 10.625 27.9 9.74 27.94 8.52C27.98 7.29 28.005 5.955 28.015 4.515H25.615ZM19.975 4.23H21.43L21.835 3.63C21.905 3.52 21.98 3.465 22.06 3.465C22.14 3.465 22.395 3.6 22.825 3.87C23.255 4.14 23.47 4.345 23.47 4.485C23.47 4.615 23.28 4.755 22.9 4.905V11.1C22.9 11.54 22.905 11.85 22.915 12.03L22.93 12.54C22.93 12.59 22.915 12.63 22.885 12.66C22.865 12.7 22.775 12.755 22.615 12.825C22.465 12.905 22.275 12.98 22.045 13.05C21.825 13.13 21.685 13.17 21.625 13.17C21.575 13.17 21.55 13.115 21.55 13.005V12.06H19.105V12.945C19.105 13.055 19.06 13.14 18.97 13.2C18.88 13.26 18.68 13.345 18.37 13.455C18.07 13.575 17.875 13.635 17.785 13.635C17.705 13.635 17.67 13.575 17.68 13.455C17.73 12.995 17.755 12.5 17.755 11.97V4.77C17.755 4.35 17.74 3.925 17.71 3.495C18.26 3.685 18.765 3.915 19.225 4.185C19.525 2.825 19.68 1.72 19.69 0.869999C20.13 0.959999 20.545 1.08 20.935 1.23C21.325 1.38 21.55 1.48 21.61 1.53C21.67 1.58 21.7 1.635 21.7 1.695C21.7 1.795 21.62 1.865 21.46 1.905C21.34 1.935 21.205 2.065 21.055 2.295C20.915 2.515 20.555 3.16 19.975 4.23ZM21.55 7.785V4.71H19.105V7.785H21.55ZM21.55 11.58V8.28H19.105V11.58H21.55ZM24.58 6.78C25.3 7.3 25.8 7.69 26.08 7.95C26.36 8.21 26.545 8.4 26.635 8.52C26.725 8.64 26.77 8.8 26.77 9C26.77 9.36 26.655 9.68 26.425 9.96C26.195 10.24 26.005 10.38 25.855 10.38C25.715 10.38 25.615 10.175 25.555 9.765C25.495 9.345 25.36 8.88 25.15 8.37C24.95 7.85 24.705 7.39 24.415 6.99L24.58 6.78ZM40.355 4.38H43.58L44.195 3.39C44.275 3.27 44.355 3.21 44.435 3.21C44.525 3.21 44.805 3.445 45.275 3.915C45.745 4.375 45.98 4.64 45.98 4.71C45.98 4.78 45.88 4.815 45.68 4.815H42.935C44.005 5.135 44.54 5.36 44.54 5.49C44.54 5.54 44.475 5.59 44.345 5.64C44.225 5.69 44.14 5.755 44.09 5.835C44.05 5.905 44.01 6.065 43.97 6.315C43.66 8.105 43.09 9.6 42.26 10.8C43.24 11.86 44.645 12.675 46.475 13.245L46.43 13.485C45.91 13.485 45.54 13.53 45.32 13.62C45.1 13.71 44.91 13.835 44.75 13.995C44.6 14.165 44.505 14.25 44.465 14.25C44.425 14.25 44.385 14.24 44.345 14.22C44.315 14.2 44.1 14.03 43.7 13.71C43.31 13.39 42.925 13.055 42.545 12.705C42.175 12.355 41.845 12.005 41.555 11.655C40.435 12.805 38.99 13.765 37.22 14.535L37.04 14.325C38.9 13.005 40.205 11.835 40.955 10.815C40.195 9.645 39.725 8.02 39.545 5.94C38.995 6.88 38.315 7.81 37.505 8.73L37.34 8.52C38.1 7.13 38.66 5.935 39.02 4.935C39.39 3.935 39.775 2.485 40.175 0.584999C40.845 0.805 41.32 0.974999 41.6 1.095C41.88 1.215 42.02 1.31 42.02 1.38C42.02 1.44 41.94 1.495 41.78 1.545C41.62 1.585 41.515 1.65 41.465 1.74C41.415 1.82 41.305 2.08 41.135 2.52C40.975 2.95 40.715 3.57 40.355 4.38ZM42.785 4.815H40.145L39.815 5.445C40.155 7.315 40.725 8.81 41.525 9.93C42.215 8.58 42.635 6.875 42.785 4.815ZM35.99 9.315C35.24 10.015 34.755 10.475 34.535 10.695C34.315 10.915 34.155 11.095 34.055 11.235C33.955 11.375 33.88 11.445 33.83 11.445C33.79 11.445 33.72 11.395 33.62 11.295L32.795 10.365C33.035 10.135 33.195 9.965 33.275 9.855C33.355 9.735 33.395 9.625 33.395 9.525V4.215C33.395 3.705 33.38 3.235 33.35 2.805C34.1 2.975 34.57 3.095 34.76 3.165C34.96 3.235 35.06 3.3 35.06 3.36C35.06 3.42 34.885 3.555 34.535 3.765V9.585L35.99 8.79V2.1C35.99 1.6 35.98 1.155 35.96 0.765C37.16 0.984999 37.76 1.175 37.76 1.335C37.76 1.415 37.595 1.54 37.265 1.71V13.485C37.265 13.585 37.245 13.66 37.205 13.71C37.175 13.76 37.065 13.84 36.875 13.95C36.685 14.06 36.505 14.145 36.335 14.205C36.175 14.275 36.07 14.31 36.02 14.31C35.98 14.31 35.96 14.26 35.96 14.16L35.975 13.14C35.985 12.83 35.99 12.44 35.99 11.97V9.315ZM52.56 4.845H56.805C56.775 4.535 56.74 4.22 56.7 3.9L56.34 3.96C56.27 3.96 56.235 3.9 56.235 3.78V2.85H54.105V3.9C54.105 3.97 54.09 4.025 54.06 4.065C54.03 4.095 53.915 4.145 53.715 4.215C53.515 4.275 53.29 4.325 53.04 4.365C52.97 4.395 52.935 4.345 52.935 4.215L52.965 3.735C52.975 3.405 52.98 3.11 52.98 2.85H49.53C49.26 2.85 49.05 2.88 48.9 2.94L48.54 2.295C48.75 2.345 49 2.37 49.29 2.37H52.98V1.365C52.98 1.085 52.965 0.764999 52.935 0.404999C53.975 0.645 54.495 0.82 54.495 0.929999C54.495 0.979999 54.365 1.08 54.105 1.23V2.37H56.235V1.38C56.235 1.1 56.22 0.779999 56.19 0.42C57.29 0.67 57.84 0.859999 57.84 0.99C57.84 1.05 57.685 1.17 57.375 1.35V2.37H60.06L60.705 1.455C60.755 1.375 60.8 1.335 60.84 1.335C60.91 1.335 61.16 1.545 61.59 1.965C62.03 2.375 62.25 2.625 62.25 2.715C62.25 2.805 62.15 2.85 61.95 2.85H57.375L57.405 3.525C57.405 3.595 57.39 3.64 57.36 3.66C57.33 3.67 57.28 3.695 57.21 3.735C57.15 3.765 57.04 3.8 56.88 3.84C57.5 3.97 57.86 4.055 57.96 4.095C58.06 4.135 58.11 4.185 58.11 4.245C58.11 4.305 58.035 4.4 57.885 4.53L57.9 4.845H60.045L60.57 4.095C60.62 4.025 60.665 3.99 60.705 3.99C60.775 3.99 60.995 4.17 61.365 4.53C61.745 4.88 61.935 5.095 61.935 5.175C61.935 5.245 61.805 5.28 61.545 5.28H57.93C58.05 7.34 58.335 8.895 58.785 9.945C59.065 9.115 59.315 7.835 59.535 6.105C59.895 6.235 60.21 6.365 60.48 6.495C60.76 6.615 60.915 6.695 60.945 6.735C60.985 6.765 61.005 6.795 61.005 6.825C61.005 6.915 60.94 6.97 60.81 6.99C60.68 7 60.595 7.045 60.555 7.125C60.515 7.205 60.46 7.39 60.39 7.68C60.06 9.22 59.715 10.335 59.355 11.025C59.535 11.315 59.81 11.65 60.18 12.03C60.55 12.41 60.785 12.6 60.885 12.6C60.985 12.6 61.055 12.52 61.095 12.36L61.695 10.065L62.01 10.14C61.88 10.89 61.815 11.51 61.815 12C61.815 12.48 61.95 12.995 62.22 13.545C62.3 13.695 62.34 13.83 62.34 13.95C62.34 14.16 62.22 14.265 61.98 14.265C61.75 14.265 61.3 14.095 60.63 13.755C59.97 13.415 59.325 12.83 58.695 12C58.035 12.82 56.845 13.63 55.125 14.43L54.99 14.145C56.58 13.115 57.645 12.15 58.185 11.25C57.615 10.28 57.17 8.29 56.85 5.28H52.515C52.525 6.52 52.505 7.69 52.455 8.79C52.405 9.88 52.35 10.615 52.29 10.995C52.23 11.365 52.105 11.72 51.915 12.06C51.735 12.4 51.45 12.76 51.06 13.14C50.68 13.52 50.135 13.99 49.425 14.55L49.245 14.34C49.895 13.67 50.36 13.115 50.64 12.675C50.93 12.245 51.12 11.775 51.21 11.265C51.31 10.755 51.38 9.97 51.42 8.91H50.775C50.745 10.1 50.595 10.97 50.325 11.52C50.055 12.07 49.5 12.685 48.66 13.365L48.51 13.2C49.07 12.46 49.42 11.835 49.56 11.325C49.71 10.815 49.79 10.01 49.8 8.91H49.26C49.03 8.91 48.845 8.945 48.705 9.015L48.48 8.43C48.67 8.47 48.89 8.49 49.14 8.49H51.435C51.445 8.24 51.45 7.825 51.45 7.245H50.67L50.415 7.575C50.335 7.665 50.27 7.71 50.22 7.71C50.09 7.71 49.775 7.49 49.275 7.05C49.445 6.94 49.55 6.86 49.59 6.81C49.63 6.75 49.65 6.66 49.65 6.54V4.92C49.65 4.45 49.635 4.115 49.605 3.915C50.495 4.095 50.94 4.245 50.94 4.365C50.94 4.435 50.825 4.525 50.595 4.635V6.825H51.45C51.43 5.745 51.405 4.915 51.375 4.335C51.755 4.475 52.15 4.645 52.56 4.845ZM58.17 3.12C58.96 3.17 59.47 3.245 59.7 3.345C59.93 3.445 60.045 3.615 60.045 3.855C60.045 4.085 59.995 4.28 59.895 4.44C59.795 4.6 59.68 4.68 59.55 4.68C59.46 4.68 59.315 4.53 59.115 4.23C58.925 3.92 58.57 3.615 58.05 3.315L58.17 3.12ZM55.515 7.98H55.875L56.085 7.635C56.125 7.565 56.17 7.53 56.22 7.53C56.27 7.53 56.43 7.615 56.7 7.785C56.97 7.945 57.105 8.055 57.105 8.115C57.105 8.165 57.07 8.22 57 8.28V9.27L57.015 10.005C57.015 10.105 56.99 10.18 56.94 10.23C56.9 10.27 56.785 10.32 56.595 10.38C56.415 10.43 56.28 10.455 56.19 10.455C56.1 10.455 56.055 10.405 56.055 10.305V10.095H55.62V11.925H55.95L56.355 11.325C56.405 11.255 56.45 11.22 56.49 11.22C56.54 11.22 56.685 11.355 56.925 11.625C57.175 11.895 57.3 12.07 57.3 12.15C57.3 12.23 57.245 12.27 57.135 12.27H54.015L53.865 12.465C53.795 12.555 53.735 12.6 53.685 12.6C53.585 12.6 53.255 12.405 52.695 12.015C52.865 11.895 52.97 11.805 53.01 11.745C53.06 11.685 53.085 11.61 53.085 11.52V6.81C53.085 6.61 53.075 6.295 53.055 5.865C53.375 5.995 53.66 6.12 53.91 6.24H55.665L55.935 5.82C55.965 5.77 56.01 5.745 56.07 5.745C56.13 5.745 56.285 5.87 56.535 6.12C56.795 6.37 56.925 6.525 56.925 6.585C56.925 6.645 56.86 6.675 56.73 6.675H55.515V7.98ZM53.985 7.98H54.675V6.675H53.985V7.98ZM56.055 9.66V8.415H53.985V9.66H56.055ZM54.78 10.095H53.985V11.925H54.78V10.095Z"
          fill="#9A764E"/>
</svg>
