<svg width="64" height="16" viewBox="0 0 64 16" fill="none" xmlns="http://www.w3.org/2000/svg">
<path d="M8.864 2.288L9.44 1.76C9.616 1.584 9.808 1.584 10 1.744L10.928 2.512C11.152 2.704 11.216 2.96 10.96 3.024C10.864 3.056 10.736 3.072 10.56 3.072C9.936 3.696 9.088 4.528 8.288 5.104H11.776L12.256 4.624C12.432 4.448 12.624 4.432 12.816 4.576L13.84 5.296C14.064 5.456 14.128 5.696 13.904 5.84C13.776 5.904 13.616 5.968 13.44 6V10.24C13.408 10.464 12.704 10.72 12.176 10.72C12.016 10.72 11.92 10.576 11.92 10.32V9.648H4.096V12.912C4.096 13.456 4.592 13.6 5.664 13.6H11.616C12.64 13.6 13.12 13.536 13.376 13.168C13.632 12.816 13.936 11.936 14.176 11.184C14.256 10.96 14.336 10.848 14.384 10.848C14.432 10.848 14.464 10.976 14.464 11.248L14.48 13.248C15.152 13.424 15.408 13.504 15.408 13.872C15.408 14.592 14.704 14.992 11.744 14.992H5.744C3.632 14.992 2.592 14.528 2.592 12.88V5.952C2.032 6.448 1.456 6.88 0.896 7.248C0.688 7.376 0.528 7.376 0.464 7.296C0.4 7.216 0.464 7.088 0.656 6.912C2.32 5.36 3.92 2.864 4.752 0.704C4.832 0.464 5.008 0.367999 5.248 0.431999L6.624 0.768C6.912 0.832 7.104 1.12 6.864 1.216C6.768 1.264 6.64 1.264 6.432 1.248C6.224 1.616 6 1.968 5.776 2.288H8.864ZM3.696 4.896L4.304 5.104H7.696C8.128 4.48 8.544 3.568 8.816 2.896H5.36C4.848 3.6 4.288 4.288 3.696 4.896ZM4.096 9.024H7.216V5.744H4.096V9.024ZM8.688 9.024H11.92V5.744H8.688V9.024ZM23.648 7.392C23.808 7.2 24 7.168 24.208 7.328C24.512 7.568 24.864 7.84 25.168 8.096C25.328 8.24 25.456 8.432 25.28 8.592C25.216 8.672 25.104 8.688 24.976 8.688H21.792V9.568C25.936 10.32 25.296 12.928 23.968 12.576C23.776 12.512 23.696 12.384 23.616 12.192C23.296 11.408 22.528 10.544 21.792 9.968V14.896C21.792 15.152 21.168 15.392 20.608 15.392C20.432 15.392 20.32 15.248 20.32 14.992V10.768C19.44 12.064 18.288 13.152 16.944 14.032C16.736 14.176 16.592 14.208 16.512 14.096C16.432 13.984 16.48 13.856 16.656 13.68C18.064 12.288 19.088 10.496 19.696 8.688H17.248C17.024 8.688 16.88 8.576 16.816 8.384C16.752 8.208 16.912 8.08 17.2 8.08H20.32V6.48C20.32 6.224 20.48 6.08 20.736 6.112L22.144 6.24C22.592 5.472 23.088 4.288 23.44 3.152C23.52 2.896 23.696 2.8 23.936 2.896L25.056 3.328C25.312 3.424 25.472 3.696 25.232 3.84C25.12 3.904 24.976 3.904 24.8 3.888C24.16 4.784 23.392 5.664 22.656 6.24C22.48 6.384 22.384 6.432 22.368 6.432L22.336 6.416C22.288 6.656 22.112 6.784 21.792 6.848V8.08H23.104L23.648 7.392ZM16.848 2.784C16.816 2.64 16.944 2.56 17.2 2.512C19.376 2.096 21.872 1.36 23.328 0.688C23.52 0.591999 23.696 0.591999 23.872 0.751999L24.88 1.632C25.12 1.84 25.12 2.144 24.816 2.144C24.672 2.144 24.496 2.096 24.256 2.016C22.464 2.464 19.744 2.864 17.264 2.976C17.008 2.992 16.864 2.928 16.848 2.784ZM17.184 3.792C17.04 3.568 17.008 3.424 17.088 3.376C17.168 3.328 17.296 3.344 17.504 3.44C20.144 4.704 19.152 6.672 18.128 6.224C17.936 6.144 17.888 5.984 17.872 5.776C17.84 5.104 17.536 4.368 17.184 3.792ZM19.696 3.36C19.568 3.12 19.536 2.976 19.6 2.944C19.68 2.896 19.808 2.912 20.016 3.024C22.592 4.288 21.6 6.256 20.592 5.808C20.4 5.728 20.352 5.568 20.336 5.36C20.304 4.688 20.032 3.952 19.696 3.36ZM23.664 15.2C23.616 15.088 23.696 14.944 23.92 14.832C26.24 13.584 28.096 11.92 29.456 9.424C29.584 9.184 29.776 9.12 30 9.232L31.28 9.84C31.536 9.968 31.68 10.256 31.44 10.336C31.328 10.368 31.2 10.352 31.008 10.336C29.168 12.784 26.912 14.288 24.096 15.248C23.856 15.328 23.712 15.312 23.664 15.2ZM24.816 9.504C24.768 9.392 24.832 9.264 25.04 9.12C26.688 8.064 28.112 6.64 29.216 4.944C29.36 4.736 29.536 4.688 29.76 4.8L30.976 5.424C31.232 5.552 31.36 5.856 31.12 5.92C31.024 5.952 30.896 5.936 30.704 5.92C29.184 7.488 27.28 8.72 25.264 9.552C25.024 9.648 24.864 9.632 24.816 9.504ZM24.864 5.2C24.8 5.088 24.864 4.976 25.088 4.816C26.592 3.792 27.984 2.448 29.072 0.959999C29.216 0.768 29.424 0.719999 29.632 0.848L30.768 1.504C31.008 1.648 31.136 1.952 30.896 2.016C30.8 2.032 30.688 2.016 30.496 1.984C29.008 3.312 27.168 4.448 25.312 5.232C25.072 5.328 24.928 5.312 24.864 5.2ZM47.168 3.36C47.376 3.552 47.424 3.824 47.184 3.872C47.088 3.904 46.976 3.92 46.8 3.92C46.32 4.432 45.552 5.072 44.928 5.504C44.736 5.632 44.624 5.664 44.56 5.616C44.496 5.584 44.496 5.44 44.576 5.2C44.752 4.72 44.944 4.144 45.072 3.664H35.024C35.088 4.752 34.656 5.504 34.16 5.808C33.664 6.144 32.928 6.096 32.688 5.52C32.496 4.992 32.864 4.544 33.296 4.336C33.84 4.032 34.4 3.344 34.48 2.56C34.512 2.304 34.528 2.16 34.592 2.16C34.656 2.16 34.736 2.256 34.816 2.48C34.864 2.672 34.912 2.864 34.944 3.04H40.224C40.16 3.024 40.112 3.008 40.048 2.992C39.856 2.912 39.776 2.752 39.744 2.544C39.632 1.984 39.296 1.376 38.864 0.927999C38.672 0.735999 38.608 0.608 38.672 0.544C38.752 0.464 38.88 0.464 39.104 0.495999C42.016 0.992 41.648 2.816 40.624 3.04H45.056L45.632 2.512C45.808 2.352 46.016 2.336 46.208 2.512L47.168 3.36ZM32.592 15.232C32.528 15.12 32.64 14.992 32.896 14.88C36.48 13.264 37.008 11.248 37.2 8.96H33.744C33.52 8.96 33.36 8.864 33.296 8.64C33.232 8.464 33.392 8.336 33.68 8.336H44.496L45.12 7.616C45.28 7.424 45.488 7.392 45.68 7.536C46.032 7.792 46.448 8.096 46.784 8.368C46.96 8.512 47.088 8.704 46.912 8.88C46.832 8.944 46.736 8.96 46.608 8.96H42.304V13.328C42.304 13.504 42.368 13.568 42.928 13.568H44.432C45.024 13.568 45.536 13.552 45.76 13.536C45.984 13.52 46.064 13.472 46.128 13.344C46.256 13.12 46.4 12.608 46.592 11.904L46.688 11.536C46.752 11.296 46.816 11.2 46.864 11.2C46.912 11.2 46.96 11.328 46.96 11.6L46.992 13.392C47.424 13.536 47.536 13.744 47.536 14.048C47.536 14.72 46.928 14.944 44.304 14.944H42.608C41.136 14.944 40.8 14.688 40.8 13.616V8.96H38.848C38.544 11.744 37.808 13.952 33.056 15.312C32.816 15.376 32.672 15.344 32.592 15.232ZM35.552 5.968C35.504 5.776 35.632 5.664 35.92 5.664H42.064L42.656 4.992C42.816 4.8 43.024 4.768 43.216 4.928C43.552 5.152 43.92 5.44 44.256 5.696C44.448 5.84 44.56 6.032 44.384 6.192C44.304 6.272 44.208 6.288 44.08 6.288H35.984C35.744 6.288 35.6 6.176 35.552 5.968ZM53.92 6.768L54.4 6.32C54.592 6.144 54.768 6.16 54.96 6.304L55.792 6.928C56.016 7.088 56.08 7.344 55.856 7.456C55.76 7.504 55.632 7.536 55.472 7.552C55.376 10.784 55.136 12.24 54.512 12.752C54.16 13.04 53.776 13.184 53.328 13.232C53.072 13.248 52.944 13.104 52.912 12.848C52.896 12.656 52.832 12.496 52.704 12.336C52.592 12.224 52.352 12.128 52.048 12.048C51.808 11.984 51.696 11.888 51.696 11.76C51.696 11.632 51.84 11.568 52.112 11.6C52.48 11.632 52.88 11.648 53.072 11.648C53.328 11.648 53.456 11.616 53.536 11.536C53.84 11.216 53.984 10.016 54.048 7.392H51.632C51.632 9.792 51.376 13.008 48.88 15.2C48.688 15.36 48.56 15.424 48.48 15.344C48.416 15.28 48.432 15.136 48.56 14.928C49.984 12.608 50.128 9.824 50.128 7.216V3.552C50.128 3.264 50.32 3.136 50.592 3.232L51.888 3.696H56.416C56.368 2.784 56.336 1.856 56.32 0.895999C56.32 0.624 56.48 0.48 56.736 0.511999L57.984 0.624C58.24 0.655999 58.448 0.848 58.288 1.072C58.192 1.184 58.048 1.264 57.84 1.296C57.824 2.112 57.84 2.896 57.888 3.696H60.816L61.456 2.928C61.616 2.736 61.824 2.704 62.016 2.848C62.384 3.12 62.816 3.44 63.152 3.728C63.328 3.872 63.456 4.064 63.28 4.224C63.2 4.304 63.088 4.32 62.96 4.32H57.904C58.064 6.224 58.352 8.032 58.976 9.584C59.616 8.384 60.08 7.2 60.384 6C60.448 5.744 60.64 5.632 60.88 5.712L62.192 6.096C62.464 6.176 62.64 6.448 62.384 6.592C62.288 6.64 62.144 6.656 61.936 6.656C61.424 8.144 60.672 9.632 59.664 10.96C60.144 11.776 60.8 12.496 61.664 13.056C61.92 13.264 62.08 13.264 62.224 12.992C62.416 12.64 62.736 12 62.976 11.424C63.056 11.2 63.152 11.088 63.2 11.104C63.248 11.12 63.264 11.264 63.232 11.504L62.944 13.648C63.472 14.32 63.568 14.752 63.344 14.976C62.72 15.568 61.6 15.04 60.832 14.448C59.984 13.824 59.248 13.04 58.656 12.112C57.456 13.344 55.968 14.4 54.144 15.136C53.92 15.232 53.776 15.216 53.712 15.12C53.648 15.024 53.744 14.896 53.984 14.768C55.696 13.76 57.056 12.48 58.064 11.04C57.136 9.184 56.688 6.864 56.464 4.32H51.632V6.768H53.92ZM59.04 1.328C58.816 1.168 58.72 1.056 58.784 0.959999C58.848 0.879999 58.976 0.832 59.216 0.848C62.32 1.104 61.952 3.136 60.848 3.008C60.656 2.992 60.56 2.88 60.48 2.752C60.208 2.256 59.616 1.712 59.04 1.328Z" fill="#FFFEF9"/>
</svg>
