<svg width="32" height="11" viewBox="0 0 32 15" fill="none" xmlns="http://www.w3.org/2000/svg">
<path d="M14.15 4.51C14.345 4.66 14.405 4.915 14.18 5.035C14.15 5.05 14.12 5.065 14.09 5.065C13.88 5.155 13.76 5.26 13.76 5.485C13.745 5.875 13.73 6.25 13.715 6.595C13.7 6.97 13.805 7.3 13.88 7.18C14.015 6.97 14.225 6.925 14.405 7.105C14.63 7.33 14.885 7.57 15.08 7.81C15.215 7.96 15.29 8.11 15.185 8.29C15.11 8.395 15.005 8.425 14.885 8.425H14C13.76 8.425 13.64 8.56 13.625 8.8C13.595 9.28 13.565 9.73 13.535 10.15C13.49 10.525 13.61 10.81 13.73 10.63C13.865 10.42 14.06 10.39 14.255 10.57C14.465 10.78 14.72 11.005 14.93 11.23C15.065 11.395 15.125 11.56 15.005 11.725C14.93 11.815 14.825 11.845 14.705 11.845H13.67C13.445 11.845 13.31 11.965 13.265 12.19C13.1 13 12.86 13.495 12.62 13.735C12.185 14.185 11.705 14.35 11.135 14.395C10.895 14.41 10.775 14.275 10.76 14.02C10.745 13.825 10.7 13.675 10.55 13.51C10.415 13.375 10.145 13.27 9.785 13.18C9.56 13.12 9.455 13.03 9.455 12.88C9.455 12.745 9.59 12.67 9.845 12.685C10.265 12.73 10.715 12.76 10.925 12.76C11.18 12.76 11.345 12.715 11.45 12.61C11.54 12.52 11.615 12.415 11.66 12.28C11.765 12.01 11.615 11.845 11.345 11.845H8.495C8.3 11.845 8.18 11.92 8.045 12.055L7.895 12.205C7.745 12.385 7.565 12.4 7.37 12.295L6.455 11.755C6.215 11.605 6.155 11.41 6.365 11.275C6.395 11.26 6.425 11.23 6.47 11.215C6.635 11.11 6.725 11.005 6.755 10.81C6.845 10.225 6.95 9.55 7.055 8.83C7.085 8.575 6.965 8.425 6.71 8.425C6.485 8.425 6.365 8.305 6.305 8.11C6.245 7.93 6.14 7.945 5.9 8.02C5.75 8.065 5.6 8.05 5.45 7.99C5.27 7.93 5.21 7.78 5.18 7.585C5.165 7.45 5.135 7.315 5.105 7.18C5.015 6.835 4.64 6.91 4.64 7.27V13.81C4.64 14.14 3.905 14.395 3.38 14.395C3.185 14.395 3.065 14.26 3.065 14.02V9.04C3.065 8.68 2.825 8.605 2.63 8.92C2.195 9.535 1.73 10.12 1.22 10.645C1.055 10.825 0.92 10.87 0.845 10.795C0.77 10.72 0.785 10.585 0.905 10.39C1.85 8.8 2.435 6.805 2.78 4.855C2.81 4.6 2.69 4.45 2.435 4.45H1.43C1.22 4.45 1.07 4.36 1.01 4.135C0.95 3.94 1.085 3.82 1.355 3.82H2.69C2.93 3.82 3.065 3.685 3.065 3.445V0.564999C3.065 0.325 3.215 0.19 3.455 0.204999L4.79 0.325C5.045 0.354999 5.225 0.535 5.105 0.759999C5.075 0.819999 5.015 0.865 4.955 0.909999C4.76 1.015 4.64 1.12 4.64 1.33V3.445C4.64 3.685 4.685 3.82 4.745 3.82C4.805 3.82 4.88 3.745 5 3.595L5.3 3.205C5.45 3.01 5.63 2.98 5.825 3.145C6.08 3.355 6.35 3.61 6.59 3.835C6.74 3.985 6.815 4.15 6.695 4.33C6.62 4.42 6.515 4.45 6.395 4.45H5.015C4.775 4.45 4.64 4.585 4.64 4.825V5.05C4.64 5.26 4.73 5.395 4.94 5.5C6.185 6.085 6.515 6.865 6.41 7.405C6.365 7.66 6.41 7.78 6.665 7.78H6.83C7.055 7.78 7.205 7.66 7.235 7.42C7.31 6.7 7.385 5.98 7.43 5.335C7.46 4.99 7.235 4.885 6.98 5.14C6.785 5.335 6.575 5.515 6.38 5.665C6.2 5.815 6.065 5.845 6.005 5.785C5.945 5.725 5.975 5.605 6.11 5.41C6.965 4.15 7.655 2.215 7.985 0.564999C8.045 0.339999 8.195 0.235 8.435 0.279999L9.98 0.564999C10.235 0.609999 10.43 0.849999 10.22 1.015C10.19 1.03 10.145 1.045 10.1 1.06C9.89 1.09 9.74 1.15 9.65 1.345C9.56 1.51 9.485 1.675 9.395 1.825C9.26 2.095 9.38 2.275 9.665 2.275H12.335C12.53 2.275 12.68 2.215 12.8 2.065L13.235 1.525C13.385 1.33 13.58 1.315 13.76 1.465C14.12 1.72 14.51 2.02 14.825 2.32C14.975 2.455 15.08 2.62 14.96 2.785C14.885 2.89 14.765 2.92 14.63 2.92H9.08C8.885 2.92 8.75 2.995 8.63 3.16C8.57 3.265 8.495 3.355 8.435 3.445C8.27 3.67 8.33 3.85 8.57 3.955L9.17 4.21C9.32 4.27 9.47 4.3 9.635 4.3H11.855C12.035 4.3 12.185 4.255 12.32 4.12L12.695 3.775C12.86 3.61 13.04 3.61 13.22 3.76L14.15 4.51ZM8.285 10.81C8.24 11.05 8.375 11.2 8.63 11.2H11.555C11.78 11.2 11.93 11.08 11.96 10.855C12.02 10.3 12.095 9.625 12.14 8.815C12.155 8.56 12.005 8.425 11.765 8.425H8.96C8.735 8.425 8.585 8.56 8.555 8.83C8.45 9.535 8.36 10.225 8.285 10.81ZM8.735 7.375C8.705 7.63 8.84 7.78 9.095 7.78H11.81C12.05 7.78 12.17 7.66 12.185 7.42C12.23 6.775 12.245 6.085 12.26 5.335C12.275 5.08 12.14 4.945 11.9 4.945H9.365C9.14 4.945 8.99 5.05 8.975 5.245C8.915 5.875 8.825 6.625 8.735 7.375ZM9.335 8.995C9.185 8.785 9.14 8.65 9.215 8.605C9.29 8.56 9.425 8.545 9.62 8.62C12.215 9.55 11.225 11.29 10.205 10.915C10.025 10.84 9.98 10.705 9.95 10.525C9.89 10.015 9.635 9.445 9.335 8.995ZM9.56 5.665C9.425 5.47 9.38 5.32 9.455 5.275C9.53 5.23 9.65 5.215 9.845 5.29C12.32 6.07 11.465 7.735 10.505 7.435C10.31 7.375 10.25 7.24 10.22 7.075C10.115 6.61 9.845 6.085 9.56 5.665ZM29.88 4.78C30.105 4.93 30.15 5.17 29.94 5.29C29.925 5.305 29.895 5.305 29.88 5.32C29.67 5.41 29.55 5.5 29.535 5.725C29.52 6.55 29.49 7.285 29.475 7.945L29.43 9.34C29.37 11.05 29.34 12.04 29.355 12.475C29.355 12.655 29.355 12.655 29.52 12.655H29.835C30 12.655 30.045 12.625 30.075 12.535C30.21 12.19 30.345 11.575 30.465 10.96C30.525 10.735 30.585 10.615 30.63 10.615C30.675 10.63 30.705 10.735 30.705 10.975L30.675 12.175C30.675 12.4 30.78 12.505 30.975 12.61C31.17 12.73 31.23 12.85 31.23 13.09C31.23 13.69 30.81 14.035 29.85 14.035H29.31C28.305 14.035 27.915 13.63 27.915 12.565C27.915 12.235 27.93 11.8 27.945 11.215C27.945 10.855 27.96 10.435 27.975 9.94C28.02 8.89 28.065 7.48 28.11 5.635C28.125 5.38 27.99 5.245 27.75 5.245H26.43C26.205 5.245 26.055 5.365 26.04 5.605C25.905 7.69 25.74 10.015 25.605 11.53C25.575 11.815 25.755 11.935 26.025 11.845C26.415 11.695 26.805 11.53 27.21 11.365C27.435 11.275 27.585 11.275 27.63 11.395C27.675 11.5 27.615 11.62 27.45 11.77C26.85 12.28 25.935 13.06 24.87 13.825C24.735 13.93 24.69 13.975 24.69 13.975C24.66 14.05 24.33 14.185 24.18 13.945L23.595 13.06C23.475 12.865 23.535 12.73 23.7 12.565C23.91 12.355 24.105 12.025 24.165 11.62C24.315 10.69 24.63 5.2 24.765 2.575C24.78 2.335 24.63 2.2 24.39 2.2H24.105C23.895 2.2 23.745 2.11 23.685 1.885C23.625 1.69 23.76 1.555 24.03 1.555H28.245C28.44 1.555 28.59 1.495 28.71 1.345L29.16 0.805C29.31 0.624999 29.505 0.595 29.685 0.73C30.045 1 30.465 1.3 30.81 1.6C30.96 1.735 31.065 1.915 30.93 2.08C30.84 2.17 30.735 2.2 30.615 2.2H26.625C26.4 2.2 26.25 2.335 26.235 2.56L26.13 4.21C26.115 4.45 26.25 4.6 26.49 4.6H27.735C27.93 4.6 28.065 4.525 28.185 4.39L28.38 4.18C28.53 4 28.695 3.97 28.89 4.105L29.88 4.78ZM16.92 14.26C16.845 14.17 16.875 14.05 17.01 13.87C18.195 12.295 18.45 10.495 18.51 8.665C18.525 8.425 18.39 8.29 18.15 8.29H17.355C17.145 8.29 16.995 8.2 16.935 7.975C16.875 7.78 17.01 7.645 17.28 7.645H18.15C18.39 7.645 18.525 7.51 18.525 7.27V4.615C18.525 4.375 18.39 4.24 18.15 4.24H17.61C17.4 4.24 17.25 4.15 17.19 3.925C17.13 3.73 17.265 3.595 17.535 3.595H20.475C20.685 3.595 20.82 3.505 20.895 3.295C21.15 2.515 21.39 1.54 21.6 0.595C21.645 0.339999 21.81 0.25 22.05 0.325L23.475 0.774999C23.715 0.849999 23.865 1.06 23.685 1.24C23.64 1.285 23.58 1.33 23.505 1.345C23.31 1.405 23.175 1.45 23.055 1.615C22.665 2.155 22.245 2.695 21.84 3.145C21.615 3.385 21.555 3.595 21.735 3.595H21.795C21.99 3.595 22.14 3.52 22.26 3.37L22.59 2.965C22.74 2.785 22.92 2.755 23.115 2.905C23.4 3.13 23.715 3.385 23.985 3.625C24.15 3.775 24.24 3.94 24.105 4.12C24.03 4.21 23.925 4.24 23.805 4.24H22.89C22.65 4.24 22.515 4.375 22.515 4.615V6.79C22.515 7.135 22.71 7.285 22.89 7.06C23.04 6.88 23.22 6.85 23.415 7C23.67 7.21 23.97 7.45 24.21 7.675C24.375 7.825 24.465 7.99 24.33 8.17C24.255 8.26 24.15 8.29 24.03 8.29H22.89C22.65 8.29 22.515 8.425 22.515 8.665V13.915C22.515 14.14 22.095 14.395 21.345 14.395C21.195 14.395 21.105 14.26 21.105 14.02V8.665C21.105 8.425 20.97 8.29 20.73 8.29H20.28C20.04 8.29 19.92 8.41 19.905 8.65C19.8 10.57 19.32 12.67 17.325 14.17C17.13 14.32 16.995 14.335 16.92 14.26ZM17.79 0.774999C17.67 0.564999 17.64 0.429999 17.715 0.385C17.79 0.325 17.91 0.339999 18.105 0.414999C21.3 1.72 20.115 3.985 18.855 3.415C18.675 3.325 18.615 3.19 18.6 2.995C18.51 2.245 18.165 1.42 17.79 0.774999ZM19.935 7.27C19.935 7.51 20.07 7.645 20.31 7.645H20.73C20.97 7.645 21.105 7.51 21.105 7.27V4.615C21.105 4.375 20.97 4.24 20.73 4.24H20.31C20.07 4.24 19.935 4.375 19.935 4.615V7.27ZM26.13 6.94C26.04 6.7 26.04 6.565 26.115 6.535C26.205 6.505 26.31 6.55 26.475 6.685C28.59 8.35 27.675 10.06 26.805 9.61C26.64 9.52 26.595 9.37 26.595 9.19C26.565 8.47 26.355 7.615 26.13 6.94Z" fill="#7A6855"/>
</svg>
