<svg width="48" height="15" viewBox="0 0 48 15" fill="none" xmlns="http://www.w3.org/2000/svg">
<path d="M12.425 8.545C12.515 8.5 12.605 8.545 12.785 8.68C15.935 10.915 14.72 13.495 13.475 12.775C13.31 12.67 13.25 12.535 13.25 12.325C13.22 11.23 12.875 9.955 12.455 8.935C12.365 8.71 12.35 8.59 12.425 8.545ZM1.01 2.305C0.965 2.095 1.1 1.99 1.355 1.99L4.205 1.99C4.445 1.99 4.58 1.855 4.58 1.615L4.58 0.579999C4.58 0.339999 4.73 0.204999 4.97 0.219999L6.395 0.339999C6.635 0.354999 6.83 0.535 6.695 0.745C6.665 0.805 6.62 0.849999 6.56 0.88C6.365 1 6.245 1.105 6.245 1.315L6.245 1.615C6.245 1.855 6.38 1.99 6.62 1.99L9.305 1.99C9.545 1.99 9.68 1.855 9.68 1.615L9.68 0.579999C9.68 0.339999 9.83 0.204999 10.07 0.219999L11.51 0.339999C11.75 0.354999 11.945 0.52 11.81 0.745C11.78 0.805 11.735 0.849999 11.69 0.88C11.495 1 11.375 1.105 11.375 1.315L11.375 1.615C11.375 1.855 11.51 1.99 11.75 1.99L12.32 1.99C12.515 1.99 12.665 1.915 12.785 1.765L13.235 1.21C13.385 1.015 13.58 1 13.76 1.15C14.12 1.42 14.54 1.735 14.885 2.035C15.035 2.17 15.14 2.35 15.005 2.515C14.915 2.605 14.795 2.635 14.675 2.635L11.75 2.635C11.51 2.635 11.375 2.77 11.375 3.01L11.375 3.67C11.375 3.97 10.7 4.12 9.95 4.135C9.785 4.135 9.68 4 9.68 3.76L9.68 3.01C9.68 2.77 9.545 2.635 9.305 2.635L6.62 2.635C6.38 2.635 6.245 2.77 6.245 3.01L6.245 3.745C6.245 3.775 6.23 3.82 6.215 3.85L6.23 3.835C6.605 4.09 7.13 4.465 7.535 4.81C7.7 4.93 7.805 5.095 7.685 5.275C7.61 5.38 7.49 5.41 7.355 5.41L2.51 5.41C2.3 5.41 2.15 5.32 2.09 5.095C2.03 4.9 2.165 4.765 2.435 4.765L5.135 4.765C5.33 4.765 5.48 4.705 5.6 4.555L5.645 4.51C5.87 4.24 5.81 4.105 5.51 4.15C5.3 4.165 5.075 4.18 4.85 4.18C4.685 4.18 4.58 4.045 4.58 3.805L4.58 3.01C4.58 2.77 4.445 2.635 4.205 2.635L1.415 2.635C1.19 2.635 1.055 2.515 1.01 2.305ZM1.19 13.135C1.1 13.09 1.115 12.94 1.205 12.73C1.67 11.635 2.03 10.18 2.18 8.74C2.21 8.485 2.375 8.365 2.615 8.425L3.65 8.65C3.905 8.71 4.055 8.575 4.055 8.32L4.055 8.125C4.055 7.885 3.92 7.75 3.68 7.75L1.925 7.75C1.715 7.75 1.565 7.66 1.505 7.435C1.445 7.24 1.58 7.105 1.85 7.105L5.555 7.105C5.75 7.105 5.885 7.03 6.005 6.895L6.41 6.445C6.56 6.265 6.755 6.235 6.935 6.37C7.055 6.46 7.19 6.55 7.325 6.655C7.625 6.88 8 7.15 8 7.135L7.985 7.105L12.26 7.105C12.455 7.105 12.59 7.045 12.71 6.895L13.16 6.385C13.31 6.205 13.505 6.19 13.685 6.325C14.03 6.565 14.45 6.865 14.795 7.15C14.96 7.285 15.065 7.465 14.915 7.63C14.84 7.72 14.735 7.75 14.6 7.75L12.455 7.75C12.215 7.75 12.08 7.885 12.08 8.125L12.08 12.52C12.08 13.45 11.87 14.11 10.55 14.32C10.295 14.365 10.145 14.23 10.115 13.975C10.1 13.735 10.055 13.555 9.95 13.39C9.875 13.27 9.71 13.15 9.35 13.06C9.125 13 9.005 12.91 9.005 12.775C9.005 12.64 9.095 12.58 9.245 12.58C9.32 12.58 9.41 12.595 9.485 12.595C9.8 12.625 10.07 12.64 10.19 12.64C10.43 12.64 10.445 12.61 10.445 12.49L10.445 8.125C10.445 7.885 10.31 7.75 10.07 7.75L8.495 7.75C8.285 7.75 8.165 7.705 8.15 7.66C8.135 7.6 8.09 7.66 7.97 7.72C7.91 7.735 7.85 7.75 7.775 7.75L6.035 7.75C5.795 7.75 5.66 7.885 5.66 8.125L5.66 12.52C5.66 13.45 5.45 14.11 4.145 14.32C3.89 14.365 3.74 14.23 3.725 13.975C3.71 13.825 3.695 13.69 3.65 13.585C3.575 13.42 3.515 13.33 3.38 13.225C3.275 13.165 3.14 13.105 2.945 13.06C2.72 13 2.6 12.91 2.6 12.775C2.6 12.64 2.69 12.58 2.84 12.58C2.915 12.58 3.005 12.595 3.08 12.595C3.395 12.625 3.665 12.64 3.785 12.64C4.025 12.64 4.055 12.595 4.055 12.49L4.055 9.595C4.055 9.325 3.98 9.235 3.845 9.265C3.845 9.265 3.575 9.385 3.5 9.595C3.02 10.945 2.345 12.145 1.55 12.985C1.4 13.135 1.28 13.18 1.19 13.135ZM5.945 8.845C5.84 8.62 5.825 8.485 5.9 8.455C5.975 8.41 6.095 8.425 6.29 8.53C8.99 9.85 7.745 11.83 6.68 11.26C6.5 11.155 6.47 11.02 6.455 10.825C6.425 10.15 6.215 9.43 5.945 8.845ZM7.115 13.315C7.025 13.255 7.04 13.12 7.16 12.91C7.775 11.785 8.21 10.315 8.375 8.755C8.39 8.5 8.555 8.38 8.795 8.425L10.04 8.68C10.28 8.725 10.46 8.935 10.28 9.145C10.235 9.19 10.19 9.22 10.13 9.25C9.935 9.325 9.8 9.4 9.74 9.61C9.23 11.14 8.465 12.385 7.505 13.21C7.34 13.345 7.205 13.375 7.115 13.315ZM8.45 5.08C8.39 4.87 8.525 4.765 8.795 4.765L11.435 4.765C11.63 4.765 11.78 4.705 11.9 4.555L12.335 4.06C12.485 3.88 12.68 3.85 12.86 3.985C13.205 4.225 13.61 4.525 13.955 4.81C14.12 4.945 14.225 5.125 14.075 5.29C14 5.38 13.895 5.41 13.775 5.41L8.87 5.41C8.66 5.41 8.51 5.32 8.45 5.095L8.45 5.08ZM18.165 4.54C18.24 4.45 18.375 4.42 18.585 4.435C23.445 5.035 23.055 8.02 21.45 7.735C21.255 7.705 21.165 7.615 21.06 7.45C20.475 6.595 19.395 5.56 18.39 4.9C18.18 4.75 18.09 4.63 18.165 4.54ZM17.22 14.05C17.175 13.915 17.265 13.78 17.505 13.705C20.82 12.565 22.47 11.155 23.28 9.31C23.4 9.055 23.265 8.875 22.995 8.875L17.685 8.875C17.475 8.875 17.325 8.785 17.265 8.56C17.205 8.365 17.34 8.23 17.61 8.23L23.325 8.23C23.55 8.23 23.685 8.125 23.73 7.915C24.12 6.25 24.105 4.315 24.075 1.93L24.075 0.624999C24.075 0.385 24.225 0.25 24.465 0.264999L26.16 0.414999C26.415 0.429999 26.595 0.61 26.46 0.834999C26.415 0.894999 26.37 0.94 26.31 0.984999C26.13 1.105 26.01 1.195 26.01 1.42C25.98 3.94 26.025 6.07 25.635 7.825C25.59 8.08 25.71 8.23 25.965 8.23L27.855 8.23C28.05 8.23 28.2 8.17 28.32 8.02L28.935 7.315C29.085 7.135 29.28 7.12 29.46 7.255C29.895 7.57 30.405 7.945 30.825 8.275C30.99 8.41 31.095 8.59 30.945 8.755C30.87 8.845 30.75 8.875 30.615 8.875L25.665 8.875C25.455 8.875 25.32 8.965 25.23 9.175C25.2 9.235 25.17 9.295 25.14 9.355C25.035 9.61 25.14 9.775 25.425 9.835C32.25 11.32 31.32 14.65 29.625 14.185C29.46 14.14 29.37 14.035 29.265 13.885C28.575 12.955 27.06 11.56 25.005 10.405C24.795 10.285 24.63 10.33 24.495 10.525C23.325 12.175 21.285 13.33 17.655 14.2C17.415 14.245 17.265 14.2 17.22 14.05ZM19.2 1.735C18.99 1.6 18.915 1.465 18.99 1.375C19.065 1.27 19.2 1.255 19.41 1.285C24.285 2.005 23.85 4.93 22.215 4.6C22.035 4.555 21.945 4.48 21.87 4.345C21.3 3.505 20.19 2.455 19.2 1.735ZM45.88 4.78C46.105 4.93 46.15 5.17 45.94 5.29C45.925 5.305 45.895 5.305 45.88 5.32C45.67 5.41 45.55 5.5 45.535 5.725C45.52 6.55 45.49 7.285 45.475 7.945L45.43 9.34C45.37 11.05 45.34 12.04 45.355 12.475C45.355 12.655 45.355 12.655 45.52 12.655L45.835 12.655C46 12.655 46.045 12.625 46.075 12.535C46.21 12.19 46.345 11.575 46.465 10.96C46.525 10.735 46.585 10.615 46.63 10.615C46.675 10.63 46.705 10.735 46.705 10.975L46.675 12.175C46.675 12.4 46.78 12.505 46.975 12.61C47.17 12.73 47.23 12.85 47.23 13.09C47.23 13.69 46.81 14.035 45.85 14.035L45.31 14.035C44.305 14.035 43.915 13.63 43.915 12.565C43.915 12.235 43.93 11.8 43.945 11.215C43.945 10.855 43.96 10.435 43.975 9.94C44.02 8.89 44.065 7.48 44.11 5.635C44.125 5.38 43.99 5.245 43.75 5.245L42.43 5.245C42.205 5.245 42.055 5.365 42.04 5.605C41.905 7.69 41.74 10.015 41.605 11.53C41.575 11.815 41.755 11.935 42.025 11.845C42.415 11.695 42.805 11.53 43.21 11.365C43.435 11.275 43.585 11.275 43.63 11.395C43.675 11.5 43.615 11.62 43.45 11.77C42.85 12.28 41.935 13.06 40.87 13.825C40.735 13.93 40.69 13.975 40.69 13.975C40.66 14.05 40.33 14.185 40.18 13.945L39.595 13.06C39.475 12.865 39.535 12.73 39.7 12.565C39.91 12.355 40.105 12.025 40.165 11.62C40.315 10.69 40.63 5.2 40.765 2.575C40.78 2.335 40.63 2.2 40.39 2.2L40.105 2.2C39.895 2.2 39.745 2.11 39.685 1.885C39.625 1.69 39.76 1.555 40.03 1.555L44.245 1.555C44.44 1.555 44.59 1.495 44.71 1.345L45.16 0.805C45.31 0.624999 45.505 0.595 45.685 0.73C46.045 1 46.465 1.3 46.81 1.6C46.96 1.735 47.065 1.915 46.93 2.08C46.84 2.17 46.735 2.2 46.615 2.2L42.625 2.2C42.4 2.2 42.25 2.335 42.235 2.56L42.13 4.21C42.115 4.45 42.25 4.6 42.49 4.6L43.735 4.6C43.93 4.6 44.065 4.525 44.185 4.39L44.38 4.18C44.53 4 44.695 3.97 44.89 4.105L45.88 4.78ZM32.92 14.26C32.845 14.17 32.875 14.05 33.01 13.87C34.195 12.295 34.45 10.495 34.51 8.665C34.525 8.425 34.39 8.29 34.15 8.29L33.355 8.29C33.145 8.29 32.995 8.2 32.935 7.975C32.875 7.78 33.01 7.645 33.28 7.645L34.15 7.645C34.39 7.645 34.525 7.51 34.525 7.27L34.525 4.615C34.525 4.375 34.39 4.24 34.15 4.24L33.61 4.24C33.4 4.24 33.25 4.15 33.19 3.925C33.13 3.73 33.265 3.595 33.535 3.595L36.475 3.595C36.685 3.595 36.82 3.505 36.895 3.295C37.15 2.515 37.39 1.54 37.6 0.595C37.645 0.339999 37.81 0.25 38.05 0.325L39.475 0.774999C39.715 0.849999 39.865 1.06 39.685 1.24C39.64 1.285 39.58 1.33 39.505 1.345C39.31 1.405 39.175 1.45 39.055 1.615C38.665 2.155 38.245 2.695 37.84 3.145C37.615 3.385 37.555 3.595 37.735 3.595L37.795 3.595C37.99 3.595 38.14 3.52 38.26 3.37L38.59 2.965C38.74 2.785 38.92 2.755 39.115 2.905C39.4 3.13 39.715 3.385 39.985 3.625C40.15 3.775 40.24 3.94 40.105 4.12C40.03 4.21 39.925 4.24 39.805 4.24L38.89 4.24C38.65 4.24 38.515 4.375 38.515 4.615L38.515 6.79C38.515 7.135 38.71 7.285 38.89 7.06C39.04 6.88 39.22 6.85 39.415 7C39.67 7.21 39.97 7.45 40.21 7.675C40.375 7.825 40.465 7.99 40.33 8.17C40.255 8.26 40.15 8.29 40.03 8.29L38.89 8.29C38.65 8.29 38.515 8.425 38.515 8.665L38.515 13.915C38.515 14.14 38.095 14.395 37.345 14.395C37.195 14.395 37.105 14.26 37.105 14.02L37.105 8.665C37.105 8.425 36.97 8.29 36.73 8.29L36.28 8.29C36.04 8.29 35.92 8.41 35.905 8.65C35.8 10.57 35.32 12.67 33.325 14.17C33.13 14.32 32.995 14.335 32.92 14.26ZM33.79 0.774999C33.67 0.564999 33.64 0.429999 33.715 0.385C33.79 0.325 33.91 0.339999 34.105 0.414999C37.3 1.72 36.115 3.985 34.855 3.415C34.675 3.325 34.615 3.19 34.6 2.995C34.51 2.245 34.165 1.42 33.79 0.774999ZM35.935 7.27C35.935 7.51 36.07 7.645 36.31 7.645L36.73 7.645C36.97 7.645 37.105 7.51 37.105 7.27L37.105 4.615C37.105 4.375 36.97 4.24 36.73 4.24L36.31 4.24C36.07 4.24 35.935 4.375 35.935 4.615L35.935 7.27ZM42.13 6.94C42.04 6.7 42.04 6.565 42.115 6.535C42.205 6.505 42.31 6.55 42.475 6.685C44.59 8.35 43.675 10.06 42.805 9.61C42.64 9.52 42.595 9.37 42.595 9.19C42.565 8.47 42.355 7.615 42.13 6.94Z" fill="#7A6855"/>
</svg>
