<svg width="36" height="16" viewBox="0 0 36 16" fill="none" xmlns="http://www.w3.org/2000/svg">
<path d="M14.6881 5.38727C14.8961 5.56327 14.9601 5.81927 14.7041 5.93127C14.5921 5.97927 14.4641 6.01127 14.2881 6.02727C14.2721 7.03527 14.2401 7.93127 14.2081 8.74727L14.5121 8.29927C14.6561 8.07527 14.8801 8.02727 15.0721 8.21927C15.2961 8.44327 15.5521 8.68327 15.7601 8.90727C15.9041 9.06727 16.0001 9.27527 15.8241 9.41927C15.7601 9.49927 15.6641 9.51527 15.5361 9.51527L14.1761 9.51527C14.1121 10.7153 14.0321 11.6913 13.9361 12.4753L14.2881 11.9953C14.4481 11.7873 14.6401 11.7553 14.8481 11.9313C15.0721 12.1233 15.3121 12.3633 15.5041 12.5713C15.6641 12.7313 15.7601 12.9233 15.6001 13.0833C15.5361 13.1633 15.4401 13.1793 15.3121 13.1793L13.8401 13.1793C13.6801 14.2033 13.4561 14.8593 13.1521 15.1633C12.7361 15.6113 12.2561 15.8033 11.7121 15.8513C11.4561 15.8673 11.3281 15.7233 11.2961 15.4673C11.2801 15.3073 11.2161 15.1793 11.0721 15.0353C10.9281 14.9073 10.6081 14.7793 10.2241 14.6833C9.98411 14.6193 9.87211 14.5233 9.87211 14.3953C9.87211 14.2673 10.0321 14.2033 10.2881 14.2193L10.5761 14.2353C10.9601 14.2673 11.3281 14.2993 11.5201 14.2993C11.8241 14.2993 11.9681 14.2673 12.0961 14.1393C12.2881 13.9633 12.3841 13.6753 12.4801 13.1793L8.28811 13.1793L7.96811 13.5153C7.80811 13.6913 7.63211 13.7233 7.42411 13.5953L6.64011 13.1153C6.38411 12.9553 6.33611 12.7313 6.52811 12.6033C6.65611 12.5393 6.78411 12.4753 6.89611 12.4273C7.02411 11.6273 7.18411 10.6033 7.31211 9.51527L6.78411 9.51527C6.56011 9.51527 6.41611 9.41927 6.35211 9.19527C6.28811 9.01927 6.44811 8.89127 6.73611 8.89127L7.39211 8.89127C7.53611 7.64327 7.66411 6.37927 7.72811 5.35527C7.34411 5.81927 6.92811 6.23527 6.51211 6.60327C6.32011 6.76327 6.19211 6.79527 6.11211 6.71527C6.03211 6.65127 6.08011 6.50727 6.22411 6.29927C7.15211 4.98727 7.93611 2.98727 8.30411 1.27527C8.35211 1.01927 8.52811 0.907268 8.78411 0.971267L10.0481 1.25927C10.3361 1.32327 10.5601 1.59527 10.3361 1.69127C10.2561 1.73927 10.1281 1.73927 9.92011 1.70727C9.71211 2.17127 9.50411 2.65127 9.26411 3.08327L13.3121 3.08327L13.8881 2.36327C14.0481 2.17127 14.2561 2.13927 14.4481 2.29927C14.7681 2.55527 15.1361 2.85927 15.4561 3.13127C15.6161 3.27527 15.7441 3.46727 15.5681 3.62727C15.4881 3.70727 15.3921 3.72327 15.2481 3.72327L8.89611 3.72327C8.67211 4.07527 8.46411 4.41127 8.24011 4.69927L9.45611 5.22727L12.8001 5.22727L13.2801 4.74727C13.4561 4.57127 13.6481 4.57127 13.8401 4.73127L14.6881 5.38727ZM0.688109 12.0753C0.592109 11.9793 0.608109 11.8513 0.736109 11.6433C1.84011 9.83527 2.49611 7.56327 2.86411 5.30727L1.31211 5.30727C1.08811 5.30727 0.944109 5.19527 0.880109 4.98727C0.816109 4.77927 0.960109 4.66727 1.24811 4.66727L3.12011 4.66727L3.12011 1.25927C3.12011 1.00327 3.26411 0.843267 3.53611 0.875267L4.68811 0.987267C4.96011 1.01927 5.16811 1.21127 4.99211 1.43527C4.91211 1.54727 4.76811 1.61127 4.52811 1.64327L4.52811 4.66727L4.86411 4.66727L5.32811 4.07527C5.48811 3.86727 5.69611 3.83527 5.88811 4.01127C6.14411 4.21927 6.43211 4.47527 6.65611 4.69927C6.83211 4.85927 6.92811 5.05127 6.76811 5.21127C6.68811 5.29127 6.59211 5.30727 6.46411 5.30727L4.52811 5.30727L4.52811 6.34727C7.24811 7.48327 6.49611 9.30727 5.55211 9.00327C5.36011 8.92327 5.29611 8.77927 5.24811 8.57127C5.13611 8.05927 4.86411 7.45127 4.52811 6.93927L4.52811 15.3073C4.52811 15.5953 3.90411 15.8513 3.40811 15.8513C3.23211 15.8513 3.12011 15.7073 3.12011 15.4513L3.12011 8.92327C2.57611 10.0113 1.88811 11.0353 1.08811 11.8993C0.912109 12.1073 0.768108 12.1553 0.688109 12.0753ZM8.25611 12.5553L12.5761 12.5553C12.6721 11.7873 12.7681 10.7953 12.8321 9.51527L8.65611 9.51527C8.52811 10.6193 8.38411 11.6913 8.25611 12.5553ZM8.75211 8.89127L12.8481 8.89127C12.8961 7.97927 12.9281 6.98727 12.9441 5.85127L9.08811 5.85127C9.00811 6.71527 8.88011 7.78727 8.75211 8.89127ZM9.66411 10.1873C9.50411 9.96327 9.45611 9.81927 9.52011 9.77127C9.60011 9.72327 9.72811 9.73927 9.93611 9.81927C12.4641 10.7953 11.6801 12.4913 10.7521 12.1873C10.5601 12.1233 10.4961 11.9793 10.4641 11.8033C10.3361 11.2753 10.0161 10.6673 9.66411 10.1873ZM9.90411 6.63527C9.74411 6.41127 9.69611 6.26727 9.76011 6.21927C9.84011 6.17127 9.96811 6.17127 10.1761 6.25127C12.6081 7.14727 11.9201 8.73127 11.0401 8.50727C10.8481 8.44327 10.7841 8.31527 10.7201 8.13927C10.5761 7.65927 10.2401 7.08327 9.90411 6.63527ZM34.3841 5.72327C34.6081 5.88327 34.6881 6.13927 34.4641 6.23527C34.3521 6.28327 34.2241 6.31527 34.0801 6.33127C34.0321 7.35527 34.0001 8.25127 33.9681 9.06727C33.8561 11.8673 33.7921 13.4193 33.8241 13.9953C33.8241 14.2033 33.8401 14.2193 34.0321 14.2193L34.4801 14.2193C34.6561 14.2193 34.7041 14.2033 34.7521 14.0913C34.8961 13.7073 35.0401 13.0673 35.1681 12.4273C35.2161 12.1713 35.2801 12.0593 35.3281 12.0593C35.3761 12.0593 35.4081 12.1873 35.4081 12.4593L35.3761 14.0593C35.8081 14.2193 35.9041 14.2993 35.9041 14.6033C35.9041 15.1313 35.5041 15.4673 34.5281 15.4673L33.8561 15.4673C32.8801 15.4673 32.5121 15.0993 32.5121 14.0753C32.5121 13.5153 32.5441 12.6833 32.5921 11.3233C32.6401 10.0913 32.7041 8.44327 32.7681 6.18727L30.2881 6.18727C30.1121 8.82727 29.8881 11.9793 29.7281 13.6113C30.3361 13.3713 30.9921 13.0833 31.6641 12.7953C31.9041 12.6993 32.0641 12.6993 32.1121 12.7953C32.1601 12.9233 32.0801 13.0353 31.8881 13.1793C31.7121 13.3073 31.5201 13.4513 31.2961 13.6273C30.6561 14.1233 29.7921 14.7793 28.9281 15.3873C28.9281 15.3873 28.5281 15.5953 28.3841 15.3553L27.9201 14.6033C27.7921 14.3793 27.8721 14.2513 28.0481 14.0913C28.2401 13.8993 28.4161 13.5953 28.4641 13.1953C28.6401 12.1393 29.0241 5.43527 29.1681 2.90727L28.3841 2.90727C28.1601 2.90727 28.0161 2.81127 27.9521 2.58727C27.8881 2.41127 28.0481 2.28327 28.3361 2.28327L33.2481 2.28327L33.8401 1.56327C34.0001 1.35527 34.2081 1.33927 34.4001 1.49927C34.7361 1.75527 35.1201 2.04327 35.4401 2.29927C35.6161 2.45927 35.7281 2.65127 35.5521 2.81127C35.4721 2.89127 35.3601 2.90727 35.2481 2.90727L30.4961 2.90727L30.3201 5.56327L32.6561 5.56327L32.9761 5.17927C33.1361 4.97127 33.3281 4.93927 33.5361 5.09927L34.3841 5.72327ZM20.7681 15.7233C20.6881 15.6433 20.7361 15.5153 20.8961 15.3073C22.2401 13.5473 22.5121 11.4513 22.5601 9.40327L21.2001 9.40327C20.9761 9.40327 20.8321 9.30727 20.7681 9.08327C20.7041 8.90727 20.8641 8.77927 21.1521 8.77927L22.5601 8.77927L22.5601 5.05127L21.5041 5.05127C21.2801 5.05127 21.1361 4.95527 21.0721 4.73127C21.0081 4.55527 21.1681 4.42727 21.4561 4.42727L24.8801 4.42727C25.2321 3.59527 25.6001 2.42727 25.8721 1.29127C25.9361 1.03527 26.1121 0.939267 26.3681 1.01927L27.6001 1.41927C27.8561 1.49927 28.0161 1.75527 27.7921 1.91527C27.6801 1.97927 27.5361 1.99527 27.3601 1.99527C26.7841 2.89127 26.0961 3.78727 25.4401 4.42727L26.2881 4.42727L26.7681 3.83527C26.9281 3.62727 27.1361 3.61127 27.3281 3.78727C27.5841 3.99527 27.8881 4.21927 28.1441 4.44327C28.3201 4.60327 28.4321 4.79527 28.2721 4.95527C28.1921 5.03527 28.0961 5.05127 27.9681 5.05127L26.5601 5.05127L26.5601 8.77927L26.6081 8.77927L27.0721 8.20327C27.2321 7.99527 27.4401 7.97927 27.6321 8.15527C27.8881 8.36327 28.1761 8.58727 28.4161 8.79527C28.5761 8.95527 28.6881 9.14727 28.5281 9.30727C28.4481 9.38727 28.3521 9.40327 28.2241 9.40327L26.5601 9.40327L26.5601 15.4033C26.5601 15.5793 26.1761 15.8513 25.5041 15.8513C25.3601 15.8513 25.2801 15.7073 25.2801 15.4513L25.2801 9.40327L23.8241 9.40327C23.7441 11.5313 23.3281 13.9473 21.1841 15.6113C20.9921 15.7713 20.8481 15.8033 20.7681 15.7233ZM21.7281 1.48327C21.5841 1.25927 21.5521 1.11527 21.6161 1.06727C21.6961 1.01927 21.8241 1.03527 22.0321 1.13127C25.0881 2.53927 24.0961 4.68327 22.9601 4.18727C22.7681 4.10727 22.7041 3.96327 22.6721 3.77127C22.5601 3.03527 22.1601 2.15527 21.7281 1.48327ZM23.8401 8.77927L25.2801 8.77927L25.2801 5.05127L23.8401 5.05127L23.8401 8.77927ZM30.4961 8.04327C30.3841 7.80327 30.3681 7.62727 30.4481 7.61127C30.5441 7.57927 30.6561 7.62727 30.8321 7.77127C32.9921 9.51527 32.2081 11.2273 31.3921 10.8593C31.2001 10.7793 31.1521 10.6193 31.1361 10.4273C31.0721 9.67527 30.7841 8.76327 30.4961 8.04327Z" fill="white"/>
</svg>
