<svg width="31" height="11" viewBox="0 0 31 15" fill="none" xmlns="http://www.w3.org/2000/svg">
<path d="M10.2101 4.66674C10.4201 4.81674 10.4651 5.05674 10.2551 5.19174C10.2401 5.20674 10.2101 5.22174 10.1951 5.22174C9.98512 5.32674 9.88012 5.44674 9.88012 5.65674V10.0817C9.85012 10.3517 9.07012 10.5917 8.59012 10.5917C8.42512 10.5917 8.33512 10.4567 8.33512 10.2167V9.90174C8.33512 9.66174 8.20012 9.52674 7.96012 9.52674H6.20512C5.96512 9.52674 5.83012 9.66174 5.83012 9.90174V10.2767C5.83012 10.5767 5.14012 10.8317 4.55512 10.8317C4.40512 10.8317 4.31512 10.6967 4.31512 10.4567V4.35174C4.31512 4.08174 4.48012 3.94674 4.75012 4.05174L5.68012 4.39674C5.83012 4.45674 5.98012 4.47174 6.14512 4.47174H7.93012C8.11012 4.47174 8.26012 4.41174 8.39512 4.27674L8.68012 4.00674C8.84512 3.85674 9.02512 3.82674 9.20512 3.96174L10.2101 4.66674ZM1.12012 14.3867C1.03012 14.3867 0.970116 14.2517 0.970116 14.0117V1.38174C0.970116 1.11174 1.13512 0.976738 1.40512 1.08174L2.56012 1.51674C2.71012 1.57674 2.86012 1.59174 3.02512 1.59174H10.9001C11.0801 1.59174 11.2301 1.53174 11.3651 1.39674L11.7401 1.02174C11.9051 0.856737 12.0851 0.841738 12.2651 0.976738L13.3751 1.80174C13.5701 1.95174 13.6451 2.16174 13.4351 2.31174C13.4051 2.32674 13.3601 2.35674 13.3151 2.37174C13.1201 2.46174 13.0151 2.59674 13.0151 2.80674V13.6817C12.9851 13.9967 12.1601 14.2667 11.5751 14.2667C11.4101 14.2667 11.3051 14.1317 11.3051 13.8917V13.3217C11.3051 13.0817 11.1701 12.9467 10.9301 12.9467H3.02512C2.78512 12.9467 2.65012 13.0817 2.65012 13.3217V13.7417C2.65012 14.0717 1.93012 14.3867 1.25512 14.3867H1.12012ZM2.65012 11.9267C2.65012 12.1667 2.78512 12.3017 3.02512 12.3017H10.9301C11.1701 12.3017 11.3051 12.1667 11.3051 11.9267V2.61174C11.3051 2.37174 11.1701 2.23674 10.9301 2.23674H3.02512C2.78512 2.23674 2.65012 2.37174 2.65012 2.61174V11.9267ZM5.83012 8.50674C5.83012 8.74674 5.96512 8.88174 6.20512 8.88174H7.96012C8.20012 8.88174 8.33512 8.74674 8.33512 8.50674V5.49174C8.33512 5.25174 8.20012 5.11674 7.96012 5.11674H6.20512C5.96512 5.11674 5.83012 5.25174 5.83012 5.49174V8.50674ZM28.1301 2.52174C28.2801 2.34174 28.4751 2.32674 28.6551 2.46174C29.0751 2.77674 29.5701 3.13674 29.9601 3.46674C30.1251 3.60174 30.2301 3.76674 30.1101 3.94674C30.0351 4.05174 29.9001 4.08174 29.7651 4.08174H28.7751C28.5501 4.08174 28.4151 4.20174 28.3851 4.42674C28.0551 6.64674 27.4251 8.58174 26.3151 10.1867C26.1801 10.3817 26.1951 10.5467 26.3751 10.7117C27.3501 11.5067 28.5051 12.1517 29.8551 12.5417C30.0801 12.6017 30.1851 12.6767 30.1701 12.8117C30.1551 12.9467 30.0501 13.0217 29.8551 13.1117C29.3901 13.3067 28.9851 13.6517 28.7601 14.1167C28.6551 14.3417 28.5201 14.4317 28.2951 14.3267C27.0651 13.7567 26.0751 12.9917 25.2201 12.0017C25.0551 11.8067 24.8751 11.7917 24.6951 11.9567C23.4951 12.9917 22.0401 13.8017 20.1651 14.4317C19.9551 14.5067 19.8051 14.4767 19.7601 14.3717C19.7001 14.2667 19.7901 14.1467 20.0151 14.0417C21.8001 13.1267 23.1351 12.0767 24.0951 10.8617C24.2151 10.6967 24.2301 10.5467 24.1251 10.3517C23.3151 8.80674 22.7901 6.84174 22.4751 4.44174C22.4451 4.20174 22.3101 4.08174 22.0851 4.08174C21.9051 4.08174 21.6801 4.11174 21.7251 4.14174C21.9501 4.26174 22.0701 4.50174 21.8451 4.62174C21.8151 4.63674 21.7701 4.65174 21.7401 4.66674C21.5301 4.71174 21.3951 4.74174 21.2601 4.90674C20.5101 5.92674 19.3701 7.14174 18.2601 8.13174C17.9901 8.37174 18.0801 8.56674 18.4251 8.53674C19.3101 8.43174 20.3451 8.29674 21.3801 8.16174C21.6201 8.11674 21.7701 8.17674 21.7851 8.29674C21.8001 8.43174 21.7101 8.55174 21.5151 8.62674C20.5701 9.03174 19.1151 9.63174 17.4351 10.2317C17.2551 10.2917 17.1801 10.3217 17.1801 10.3217L17.1651 10.3367C17.0301 10.5167 16.7901 10.4567 16.6851 10.2167L16.1751 9.07674C16.0701 8.83674 16.1301 8.70174 16.3251 8.64174C16.4451 8.61174 16.5651 8.58174 16.6101 8.55174C17.1801 8.07174 17.8101 7.27674 18.3801 6.42174C18.5901 6.10674 18.3801 5.86674 18.0351 6.00174C17.7351 6.12174 17.4201 6.24174 17.1051 6.34674C17.1051 6.34674 16.7451 6.43674 16.6401 6.18174L16.1451 5.08674C16.0401 4.86174 16.0851 4.69674 16.2501 4.65174C16.2651 4.65174 16.2801 4.63674 16.2951 4.63674C16.4601 4.57674 16.5501 4.51674 16.6551 4.38174C17.3601 3.57174 18.1851 1.92174 18.5451 0.826738C18.6201 0.601738 18.7851 0.511737 19.0101 0.601738L20.4351 1.11174C20.6601 1.18674 20.8101 1.41174 20.6301 1.59174C20.6001 1.62174 20.5551 1.65174 20.4951 1.66674C20.3001 1.72674 20.1651 1.77174 20.0451 1.92174C19.4751 2.70174 18.6651 3.57174 17.9001 4.29174C17.6451 4.51674 17.4351 4.74174 17.4651 4.74174H17.5401C17.6451 4.74174 17.7651 4.72674 17.8701 4.72674L18.6951 4.68174C18.8451 4.68174 18.9951 4.68174 19.1451 4.66674C19.3551 4.65174 19.4901 4.57674 19.5801 4.38174C19.7151 4.11174 19.8351 3.87174 19.9251 3.64674C20.0301 3.42174 20.1951 3.34674 20.4201 3.46674L20.7951 3.66174C21.0801 3.81174 21.3201 3.91674 21.3201 3.88674L21.3051 3.85674C21.2301 3.58674 21.3501 3.43674 21.6201 3.43674H24.8001C24.7851 3.43674 24.7701 3.42174 24.7551 3.42174C24.5901 3.36174 24.5151 3.19674 24.4851 3.00174C24.3801 2.28174 24.0051 1.50174 23.5551 0.871737C23.4051 0.676738 23.3751 0.541738 23.4351 0.496738C23.5101 0.451737 23.6301 0.436738 23.8251 0.496738C26.2851 1.15674 26.5101 2.53674 25.9551 3.18174C25.7751 3.37674 25.7901 3.43674 26.0601 3.43674H27.0801C27.2751 3.43674 27.4251 3.37674 27.5451 3.22674L28.1301 2.52174ZM16.2051 12.2117C16.1001 11.9717 16.1751 11.7917 16.4301 11.7317C17.5701 11.4917 19.6551 10.9817 21.7101 10.4267C21.9351 10.3517 22.0851 10.3667 22.1151 10.4867C22.1451 10.6067 22.0701 10.7117 21.8901 10.8317C20.8851 11.4917 19.4451 12.3317 17.5251 13.2917C17.3451 13.3817 17.2701 13.4417 17.2401 13.5017C17.1051 13.7267 16.8651 13.6367 16.7601 13.3967L16.2051 12.2117ZM23.1201 4.08174C22.8651 4.08174 22.7301 4.23174 22.7901 4.50174C23.1951 6.21174 23.8551 7.69674 24.7851 8.97174C24.9501 9.21174 25.1901 9.18174 25.3101 8.92674C25.9701 7.56174 26.3301 6.10674 26.5101 4.47174C26.5401 4.23174 26.4051 4.08174 26.1651 4.08174H23.1201Z" fill="#7A6855"/>
</svg>
