<svg width="175" height="54" viewBox="0 0 175 54" fill="none" xmlns="http://www.w3.org/2000/svg">
<path d="M72.55 18.12H73.918V14.466H71.2C70.948 14.466 70.786 14.358 70.714 14.106C70.642 13.908 70.822 13.764 71.146 13.764H73.918V11.91H72.946C72.496 12.432 72.028 12.9 71.578 13.26C71.362 13.422 71.2 13.44 71.11 13.368C71.02 13.296 71.056 13.134 71.2 12.9C71.686 12.09 72.118 11.046 72.442 9.966C72.532 9.678 72.73 9.57 73 9.66L74.08 10.02C74.368 10.11 74.548 10.398 74.296 10.578C74.188 10.65 74.026 10.668 73.828 10.65L73.468 11.208H76.024L76.492 10.614C76.672 10.398 76.906 10.362 77.122 10.542C77.392 10.758 77.68 11.01 77.95 11.244C78.13 11.406 78.274 11.622 78.076 11.802C78.004 11.892 77.896 11.91 77.752 11.91H75.286V13.764H76.636L77.122 13.134C77.302 12.9 77.518 12.864 77.752 13.044C78.022 13.26 78.328 13.53 78.58 13.782C78.778 13.962 78.886 14.178 78.688 14.358C78.616 14.448 78.508 14.466 78.364 14.466H75.286V18.12H76.672V15.708C76.672 15.42 76.852 15.258 77.14 15.294L77.896 15.366C78.22 15.402 78.436 15.6 78.274 15.798C78.202 15.888 78.076 15.96 77.914 15.978V19.2C77.914 19.452 77.41 19.668 76.906 19.668C76.762 19.668 76.672 19.506 76.672 19.236V18.822H72.64L72.496 18.984C72.316 19.2 72.1 19.218 71.866 19.092L71.326 18.804C71.038 18.66 70.93 18.444 71.074 18.3C71.164 18.228 71.254 18.156 71.344 18.102V15.726C71.344 15.438 71.524 15.276 71.812 15.312L72.55 15.384C72.856 15.42 73.09 15.618 72.928 15.834C72.838 15.942 72.73 15.996 72.55 16.032V18.12ZM65.476 22.548C65.404 22.548 65.332 22.386 65.332 22.098V6.798C65.332 6.474 65.548 6.312 65.854 6.438L67.096 6.906H68.644L69.202 6.402C69.418 6.204 69.652 6.222 69.85 6.402L70.876 7.338C71.11 7.554 71.146 7.86 70.858 7.914C70.732 7.95 70.57 7.95 70.372 7.95C69.814 9.084 68.842 11.028 68.122 12.108C69.724 13.44 70.408 15.042 70.408 16.482C70.426 18.084 69.958 18.948 68.554 19.164C68.248 19.2 68.104 19.038 68.068 18.732C68.05 18.48 67.996 18.246 67.87 18.102C67.816 18.03 67.672 17.976 67.492 17.904C67.222 17.814 67.096 17.724 67.096 17.58C67.096 17.454 67.258 17.364 67.546 17.364H68.14C68.32 17.364 68.464 17.346 68.536 17.274C68.842 17.076 68.914 16.788 68.914 16.158C68.914 14.952 68.626 13.728 67.798 12.504C67.672 12.288 67.636 12.126 67.69 11.892C68.032 10.74 68.464 8.904 68.716 7.608H66.88V21.972C66.88 22.206 66.394 22.548 65.602 22.548H65.476ZM69.508 12.108C69.436 12.036 69.472 11.874 69.634 11.64C70.75 10.02 71.65 7.842 72.1 6.204C72.19 5.916 72.388 5.808 72.658 5.898L74.08 6.348C74.368 6.438 74.584 6.762 74.314 6.906C74.224 6.96 74.08 6.96 73.846 6.96C73.63 7.374 73.378 7.824 73.126 8.238H78.994L79.57 7.662C79.768 7.464 79.984 7.446 80.2 7.626L81.19 8.436C81.424 8.616 81.496 8.922 81.208 9.048C81.082 9.102 80.938 9.138 80.74 9.156C80.668 16.68 80.524 20.622 79.66 21.666C79.174 22.242 78.58 22.53 77.86 22.62C77.572 22.638 77.428 22.476 77.392 22.188C77.374 21.918 77.284 21.72 77.068 21.54C76.87 21.36 76.348 21.18 75.754 21.054C75.484 21 75.34 20.892 75.34 20.73C75.34 20.586 75.502 20.514 75.808 20.532C76.528 20.604 77.356 20.676 77.698 20.676C78.058 20.676 78.22 20.604 78.364 20.46C79.012 19.758 79.12 15.708 79.174 8.958H72.658C71.902 10.038 70.984 11.136 69.958 11.964C69.742 12.144 69.598 12.198 69.508 12.108ZM91.972 7.824L92.62 7.23C92.818 7.032 93.034 7.032 93.25 7.212L94.294 8.076C94.546 8.292 94.618 8.58 94.33 8.652C94.222 8.688 94.078 8.706 93.88 8.706C93.178 9.408 92.224 10.344 91.324 10.992H95.248L95.788 10.452C95.986 10.254 96.202 10.236 96.418 10.398L97.57 11.208C97.822 11.388 97.894 11.658 97.642 11.82C97.498 11.892 97.318 11.964 97.12 12V16.77C97.084 17.022 96.292 17.31 95.698 17.31C95.518 17.31 95.41 17.148 95.41 16.86V16.104H86.608V19.776C86.608 20.388 87.166 20.55 88.372 20.55H95.068C96.22 20.55 96.76 20.478 97.048 20.064C97.336 19.668 97.678 18.678 97.948 17.832C98.038 17.58 98.128 17.454 98.182 17.454C98.236 17.454 98.272 17.598 98.272 17.904L98.29 20.154C99.046 20.352 99.334 20.442 99.334 20.856C99.334 21.666 98.542 22.116 95.212 22.116H88.462C86.086 22.116 84.916 21.594 84.916 19.74V11.946C84.286 12.504 83.638 12.99 83.008 13.404C82.774 13.548 82.594 13.548 82.522 13.458C82.45 13.368 82.522 13.224 82.738 13.026C84.61 11.28 86.41 8.472 87.346 6.042C87.436 5.772 87.634 5.664 87.904 5.736L89.452 6.114C89.776 6.186 89.992 6.51 89.722 6.618C89.614 6.672 89.47 6.672 89.236 6.654C89.002 7.068 88.75 7.464 88.498 7.824H91.972ZM86.158 10.758L86.842 10.992H90.658C91.144 10.29 91.612 9.264 91.918 8.508H88.03C87.454 9.3 86.824 10.074 86.158 10.758ZM86.608 15.402H90.118V11.712H86.608V15.402ZM91.774 15.402H95.41V11.712H91.774V15.402Z" fill="#7A6855"/>
<path d="M58.672 35.444C58.792 35.3 58.936 35.276 59.092 35.396C59.368 35.612 59.692 35.864 59.968 36.104C60.088 36.212 60.172 36.356 60.064 36.488C59.992 36.56 59.896 36.584 59.8 36.584H57.472C57.28 36.584 57.172 36.692 57.172 36.884V38.108C57.172 38.3 57.28 38.408 57.472 38.408H58.288C58.444 38.408 58.564 38.36 58.66 38.24L59.032 37.784C59.152 37.628 59.308 37.616 59.452 37.724C59.74 37.94 60.076 38.204 60.352 38.432C60.472 38.552 60.556 38.684 60.436 38.828C60.376 38.9 60.292 38.924 60.196 38.924H58.348C58.156 38.924 58.048 39.032 58.048 39.224V41.66C58.048 41.756 58.048 41.756 58.288 41.756H58.768C58.876 41.756 58.972 41.756 59.056 41.744H59.188C59.32 41.744 59.356 41.72 59.392 41.66C59.488 41.492 59.596 41.084 59.74 40.58C59.764 40.496 59.776 40.436 59.8 40.376C59.8 40.376 59.884 40.124 59.92 40.124C59.956 40.124 59.992 40.22 59.992 40.424L60.016 41.42C60.016 41.576 60.1 41.672 60.22 41.792C60.34 41.9 60.376 42.032 60.376 42.212C60.376 42.728 59.968 42.968 58.636 42.968H57.904C56.968 42.968 56.824 42.692 56.824 41.936V39.224C56.824 39.032 56.716 38.924 56.524 38.924H56.296C56.116 38.924 55.996 39.02 55.972 39.212C55.744 40.904 55.012 42.092 53.44 42.848C53.2 42.956 53.188 43.136 53.428 43.208C54.28 43.484 55.384 43.568 56.896 43.568C58.108 43.568 59.152 43.556 60.364 43.496C60.568 43.496 60.676 43.544 60.676 43.64C60.676 43.748 60.592 43.808 60.412 43.88C60.088 44.012 59.908 44.24 59.824 44.504C59.776 44.684 59.68 44.78 59.5 44.78H56.452C54.124 44.78 53.068 44.348 52.06 43.1C51.976 42.992 51.928 42.908 51.796 42.86C51.676 42.824 51.58 42.872 51.52 42.968C51.412 43.148 51.28 43.376 51.136 43.592C51.064 43.712 51.004 43.796 50.944 43.892C50.788 44.156 50.608 44.432 50.488 44.636C50.488 44.636 50.272 44.792 50.128 44.612L49.588 43.904C49.468 43.736 49.492 43.604 49.66 43.496C49.972 43.304 50.296 43.088 50.584 42.896C50.692 42.824 50.752 42.776 50.836 42.728C50.836 42.728 50.944 42.584 50.944 42.428V38.84C50.944 38.648 50.836 38.54 50.644 38.54H49.78C49.6 38.54 49.492 38.456 49.468 38.276C49.444 38.12 49.552 38.024 49.756 38.024H50.536C50.692 38.024 50.812 37.976 50.908 37.856L51.196 37.508C51.316 37.364 51.472 37.328 51.628 37.448L52.552 38.144C52.708 38.264 52.768 38.432 52.6 38.552C52.552 38.588 52.492 38.612 52.42 38.636C52.252 38.696 52.156 38.792 52.156 38.972V42.296C52.156 42.452 52.192 42.56 52.324 42.656C52.36 42.68 52.396 42.716 52.432 42.74C52.576 42.836 52.648 42.86 52.648 42.86C54.112 41.888 54.532 40.772 54.64 39.236C54.652 39.032 54.532 38.924 54.34 38.924H53.476C53.308 38.924 53.188 38.852 53.14 38.672C53.092 38.516 53.2 38.408 53.416 38.408H55.576C55.768 38.408 55.876 38.3 55.876 38.108V36.884C55.876 36.692 55.768 36.584 55.576 36.584H54.748C54.592 36.584 54.472 36.644 54.388 36.788C54.076 37.304 53.728 37.748 53.368 38.096C53.248 38.228 53.14 38.24 53.08 38.204C53.008 38.168 53.02 38.06 53.092 37.88C53.488 36.98 53.8 35.78 53.944 34.556C53.968 34.352 54.1 34.256 54.292 34.304L55.384 34.544C55.576 34.592 55.708 34.748 55.576 34.916C55.54 34.952 55.492 34.988 55.444 35C55.288 35.072 55.18 35.12 55.12 35.276C55.06 35.432 55 35.576 54.928 35.72C54.844 35.924 54.928 36.068 55.156 36.068H55.576C55.768 36.068 55.876 35.96 55.876 35.768V34.22C55.876 34.028 55.996 33.92 56.188 33.932L57.304 34.028C57.496 34.04 57.652 34.172 57.544 34.352C57.52 34.4 57.472 34.436 57.424 34.472C57.268 34.556 57.172 34.64 57.172 34.808V35.768C57.172 35.96 57.28 36.068 57.472 36.068H57.952C58.108 36.068 58.228 36.02 58.324 35.888L58.672 35.444ZM49.996 34.376C49.888 34.208 49.864 34.1 49.912 34.064C49.972 34.028 50.068 34.04 50.224 34.088C53.332 35.204 52.504 37.34 51.328 36.872C51.184 36.812 51.124 36.728 51.1 36.596C50.92 35.888 50.464 35.036 49.996 34.376ZM70.46 38.96C70.664 38.984 70.808 39.116 70.688 39.296C70.664 39.332 70.64 39.356 70.604 39.38C70.46 39.476 70.364 39.548 70.364 39.716V40.076C70.364 40.268 70.472 40.376 70.664 40.376H71C71.156 40.376 71.264 40.316 71.36 40.208L71.684 39.848C71.804 39.704 71.96 39.692 72.104 39.8C72.356 39.98 72.668 40.196 72.92 40.412C73.052 40.52 73.136 40.664 73.016 40.796C72.956 40.868 72.872 40.892 72.776 40.892H70.664C70.472 40.892 70.364 41 70.364 41.192V41.888C70.364 42.08 70.472 42.188 70.664 42.188H71.384C71.54 42.188 71.648 42.128 71.744 42.02L72.14 41.576C72.26 41.432 72.416 41.42 72.56 41.528C72.86 41.732 73.208 41.984 73.496 42.224C73.628 42.332 73.712 42.476 73.592 42.608C73.532 42.68 73.448 42.704 73.352 42.704H70.664C70.472 42.704 70.364 42.812 70.364 43.004V44.708C70.364 44.924 69.8 45.092 69.272 45.092C69.092 45.092 68.996 44.984 68.996 44.792V43.004C68.996 42.812 68.888 42.704 68.696 42.704H66.284C66.116 42.704 65.996 42.632 65.948 42.452C65.9 42.296 66.008 42.188 66.224 42.188H68.696C68.888 42.188 68.996 42.08 68.996 41.888V41.192C68.996 41 68.888 40.892 68.696 40.892H66.932C66.764 40.892 66.644 40.82 66.596 40.64C66.548 40.484 66.656 40.376 66.872 40.376H68.696C68.888 40.376 68.996 40.268 68.996 40.076V39.14C68.996 38.948 69.116 38.84 69.308 38.852L70.46 38.96ZM62.3 40.136C62.216 39.944 62.276 39.812 62.468 39.752C62.768 39.656 63.176 39.512 63.62 39.344C63.788 39.284 63.86 39.176 63.86 39.008V37.388C63.86 37.196 63.752 37.088 63.56 37.088H62.756C62.588 37.088 62.468 37.016 62.42 36.836C62.372 36.68 62.48 36.572 62.696 36.572H63.56C63.752 36.572 63.86 36.464 63.86 36.272V34.088C63.86 33.896 63.968 33.776 64.172 33.8L65.324 33.908C65.528 33.932 65.672 34.052 65.576 34.232C65.54 34.28 65.504 34.328 65.444 34.364C65.288 34.448 65.192 34.532 65.192 34.7V36.272C65.192 36.464 65.24 36.572 65.312 36.572C65.396 36.572 65.48 36.512 65.576 36.392L65.864 36.008C65.984 35.852 66.14 35.828 66.296 35.96C66.524 36.152 66.788 36.38 67.016 36.596C67.136 36.716 67.196 36.848 67.1 36.992C67.04 37.064 66.956 37.088 66.848 37.088H65.492C65.3 37.088 65.192 37.196 65.192 37.388V38.396C65.192 38.612 65.336 38.72 65.54 38.636L66.716 38.18C66.896 38.108 67.016 38.108 67.052 38.204C67.088 38.3 67.076 38.348 67.016 38.396C66.98 38.42 66.956 38.432 66.932 38.456L66.776 38.564C66.368 38.852 65.9 39.188 65.384 39.56C65.252 39.656 65.192 39.764 65.192 39.92V43.472C65.192 44.336 65.024 44.888 63.836 45.08C63.632 45.104 63.512 45.008 63.488 44.804C63.464 44.528 63.404 44.336 63.272 44.156C63.176 44.012 62.984 43.892 62.636 43.808C62.456 43.76 62.36 43.676 62.36 43.568C62.36 43.46 62.42 43.412 62.54 43.412C62.6 43.412 62.66 43.424 62.72 43.424C63.116 43.46 63.5 43.484 63.632 43.484C63.848 43.484 63.86 43.46 63.86 43.352V40.976C63.86 40.736 63.704 40.64 63.5 40.772L63.296 40.904C63.176 40.988 63.104 41.024 63.092 41.072C62.996 41.276 62.792 41.216 62.696 41.012L62.3 40.136ZM65.792 39.668C65.756 39.56 65.828 39.464 66.008 39.392C67.1 38.984 68.06 38.444 68.864 37.832C69.02 37.712 69.02 37.568 68.888 37.412C68.42 36.872 68.012 36.212 67.712 35.384C67.652 35.216 67.544 35.144 67.376 35.144H66.788C66.62 35.144 66.5 35.072 66.452 34.892C66.404 34.724 66.512 34.628 66.728 34.628H70.94C71.084 34.628 71.204 34.592 71.312 34.496L71.672 34.196C71.804 34.076 71.96 34.076 72.104 34.184L72.896 34.832C73.04 34.952 73.1 35.144 72.932 35.252C72.884 35.276 72.836 35.288 72.776 35.3C72.608 35.324 72.5 35.384 72.416 35.528C72.056 36.152 71.6 36.704 71.12 37.196C70.952 37.352 70.976 37.52 71.204 37.592C71.9 37.832 72.668 38.012 73.484 38.132C73.676 38.156 73.772 38.204 73.772 38.312C73.76 38.408 73.676 38.48 73.52 38.54C73.172 38.672 72.932 38.9 72.8 39.224C72.728 39.404 72.62 39.476 72.428 39.428C71.516 39.164 70.736 38.84 70.028 38.384C69.884 38.288 69.764 38.276 69.608 38.372C68.612 38.984 67.46 39.464 66.128 39.776C65.948 39.812 65.828 39.776 65.792 39.668ZM68.36 35.144C68.12 35.144 68.012 35.312 68.156 35.504C68.516 36.02 68.984 36.464 69.572 36.836C69.716 36.932 69.86 36.92 69.98 36.776C70.352 36.368 70.652 35.936 70.904 35.504C71.024 35.3 70.916 35.144 70.688 35.144H68.36ZM80.772 41.72C80.772 41.912 80.88 42.02 81.072 42.02H81.228C81.42 42.02 81.528 41.912 81.528 41.72V39.896C81.528 39.704 81.42 39.596 81.228 39.596H79.764C79.596 39.596 79.476 39.524 79.428 39.344C79.38 39.188 79.488 39.08 79.704 39.08H81.228C81.42 39.08 81.528 38.972 81.528 38.78V38.216C81.528 38.024 81.444 37.916 81.288 37.916H81.264C81.108 37.916 81.012 37.964 80.892 38.072C80.616 38.36 80.34 38.6 80.064 38.792C79.932 38.888 79.824 38.9 79.764 38.852C79.692 38.804 79.716 38.696 79.812 38.528C80.016 38.18 80.196 37.748 80.364 37.292C80.448 37.016 80.196 36.884 79.992 37.1C79.692 37.424 79.38 37.724 79.044 38C78.9 38.12 78.792 38.144 78.744 38.084C78.696 38.036 78.708 37.928 78.816 37.772C79.512 36.668 80.076 35.168 80.352 34.064C80.4 33.872 80.532 33.8 80.724 33.86L81.9 34.232C82.092 34.292 82.224 34.472 82.056 34.604C82.02 34.628 81.996 34.64 81.948 34.652C81.792 34.7 81.672 34.736 81.588 34.88C81.552 34.964 81.504 35.036 81.468 35.108C81.348 35.324 81.432 35.468 81.672 35.468H84.648C84.792 35.468 84.912 35.432 85.02 35.324L85.344 35.012C85.476 34.88 85.62 34.88 85.764 35L86.556 35.636C86.712 35.756 86.748 35.96 86.568 36.056C86.544 36.068 86.508 36.08 86.472 36.092C86.304 36.152 86.208 36.248 86.208 36.44C86.172 41.42 86.076 43.796 85.476 44.492C85.116 44.912 84.708 45.116 84.168 45.164C83.976 45.176 83.88 45.068 83.868 44.864C83.844 44.648 83.796 44.48 83.64 44.336C83.496 44.192 83.172 44.072 82.764 43.976C82.584 43.928 82.5 43.856 82.5 43.736C82.5 43.628 82.608 43.568 82.812 43.58C83.268 43.628 83.784 43.664 84.012 43.664C84.252 43.664 84.384 43.628 84.456 43.544C84.876 43.088 84.948 40.652 84.984 36.296C84.984 36.092 84.876 35.984 84.684 35.984H81.144C80.988 35.984 80.88 36.02 80.808 36.128C80.808 36.128 80.844 36.308 81.048 36.38L81.852 36.644C82.044 36.704 82.152 36.872 82.008 37.016C81.972 37.052 81.924 37.076 81.864 37.1C81.708 37.148 81.6 37.148 81.528 37.256C81.528 37.256 81.624 37.4 81.864 37.4H82.752C82.908 37.4 83.028 37.352 83.124 37.232L83.316 37.004C83.436 36.86 83.592 36.836 83.736 36.956C83.928 37.1 84.132 37.28 84.324 37.436C84.444 37.544 84.528 37.676 84.432 37.808C84.372 37.892 84.288 37.916 84.192 37.916H82.872C82.68 37.916 82.572 38.024 82.572 38.216V38.78C82.572 38.972 82.68 39.08 82.872 39.08H83.124C83.28 39.08 83.4 39.032 83.496 38.9L83.7 38.636C83.82 38.48 83.964 38.456 84.12 38.576C84.312 38.732 84.54 38.924 84.732 39.104C84.852 39.224 84.912 39.356 84.816 39.5C84.756 39.572 84.672 39.596 84.576 39.596H82.872C82.68 39.596 82.572 39.704 82.572 39.896V41.72C82.572 41.912 82.68 42.02 82.872 42.02H83.04C83.232 42.02 83.34 41.912 83.34 41.72V40.376C83.34 40.184 83.46 40.076 83.652 40.1L84.264 40.16C84.468 40.172 84.624 40.304 84.528 40.46C84.516 40.472 84.516 40.484 84.504 40.496C84.396 40.628 84.288 40.676 84.288 40.844V42.74C84.288 42.944 83.868 43.076 83.52 43.076C83.412 43.076 83.34 42.968 83.34 42.8C83.34 42.632 83.232 42.536 83.04 42.536H81.036C80.88 42.536 80.796 42.572 80.724 42.644C80.604 42.776 80.46 42.812 80.304 42.728L79.836 42.5C79.644 42.404 79.56 42.284 79.644 42.188C79.644 42.176 79.656 42.176 79.656 42.164C79.716 42.104 79.8 42.044 79.824 42.02C79.848 41.996 79.86 41.912 79.86 41.768V40.388C79.86 40.196 79.98 40.088 80.172 40.112L80.772 40.172C80.964 40.196 81.12 40.328 81.012 40.484C81 40.496 81 40.508 80.988 40.52C80.868 40.64 80.772 40.7 80.772 40.868V41.72ZM75.924 45.104C75.864 45.104 75.816 44.996 75.816 44.804V34.46C75.816 34.244 75.96 34.148 76.164 34.22L77.016 34.52C77.148 34.568 77.256 34.58 77.388 34.58H77.772C77.916 34.58 78.024 34.544 78.144 34.436L78.408 34.208C78.552 34.076 78.696 34.076 78.84 34.208L79.656 34.928C79.8 35.06 79.86 35.264 79.668 35.336C79.632 35.348 79.584 35.36 79.536 35.36C79.368 35.384 79.26 35.432 79.188 35.588C78.852 36.248 78.348 37.184 77.916 37.844C77.82 38.012 77.844 38.144 77.976 38.264C78.9 39.092 79.32 40.124 79.32 41.024C79.332 42.128 78.984 42.752 78.024 42.884C77.82 42.908 77.712 42.8 77.7 42.596C77.688 42.38 77.64 42.164 77.556 42.044C77.532 41.996 77.448 41.948 77.328 41.912C77.16 41.852 77.064 41.78 77.064 41.672C77.064 41.564 77.172 41.504 77.364 41.504H77.7C77.82 41.504 77.916 41.492 77.964 41.456C78.156 41.312 78.192 41.12 78.192 40.76C78.192 39.968 78.024 39.164 77.52 38.372C77.436 38.228 77.424 38.12 77.46 37.964C77.64 37.28 77.856 36.248 78 35.42C78.036 35.216 77.94 35.096 77.736 35.096H77.34C77.148 35.096 77.04 35.204 77.04 35.396V44.66C77.04 44.852 76.656 45.104 76.032 45.104H75.924ZM94.804 33.92C95.008 33.932 95.152 34.076 95.044 34.256C95.008 34.304 94.972 34.352 94.924 34.376C94.768 34.472 94.672 34.556 94.672 34.724V37.76C94.672 37.952 94.78 38.06 94.972 38.06H96.412C96.568 38.06 96.688 38.012 96.784 37.892L97.264 37.34C97.384 37.196 97.54 37.172 97.684 37.28C98.032 37.52 98.44 37.82 98.776 38.096C98.896 38.192 98.992 38.324 98.896 38.468C98.836 38.552 98.728 38.576 98.62 38.576H94.972C94.78 38.576 94.672 38.684 94.672 38.876V43.676C94.672 43.868 94.78 43.976 94.972 43.976H97.024C97.18 43.976 97.288 43.916 97.384 43.808L97.9 43.232C98.02 43.088 98.176 43.064 98.32 43.172C98.68 43.424 99.112 43.736 99.46 44.012C99.592 44.12 99.676 44.264 99.556 44.396C99.496 44.468 99.4 44.492 99.292 44.492H88.744C88.576 44.492 88.456 44.42 88.408 44.24C88.36 44.084 88.468 43.976 88.684 43.976H92.92C93.112 43.976 93.22 43.868 93.22 43.676V38.876C93.22 38.684 93.112 38.576 92.92 38.576H89.5C89.332 38.576 89.212 38.504 89.164 38.324C89.116 38.168 89.224 38.06 89.44 38.06H92.92C93.112 38.06 93.22 37.952 93.22 37.76V34.1C93.22 33.908 93.34 33.8 93.532 33.812L94.804 33.92ZM110.24 37.856C110.432 37.904 110.576 38.072 110.432 38.228C110.408 38.252 110.384 38.276 110.348 38.288C110.18 38.372 110.084 38.42 110.072 38.6C110.048 39.668 110.024 40.604 109.88 41.396C109.832 41.672 109.736 42.02 109.748 42.008L109.76 41.996C113.3 42.968 112.844 45.212 111.728 44.912C111.584 44.876 111.524 44.78 111.464 44.636C111.176 43.952 110.54 43.148 109.928 42.524C109.772 42.356 109.604 42.404 109.52 42.608C109.052 43.676 108.128 44.432 106.376 44.96C106.196 45.008 106.088 44.984 106.028 44.864C105.968 44.756 106.04 44.648 106.232 44.564C109.028 43.328 109.04 41.648 109.052 37.952C109.052 37.736 109.172 37.628 109.376 37.676L110.24 37.856ZM101.3 45.056C101.24 45.008 101.24 44.912 101.312 44.744C101.996 43.172 102.02 41.324 102.02 39.728V37.772C102.02 37.556 102.164 37.46 102.368 37.532L103.136 37.808C103.268 37.856 103.376 37.868 103.508 37.868H104.42C104.588 37.868 104.708 37.784 104.756 37.616C104.876 37.196 104.996 36.68 105.104 36.188C105.152 35.984 105.044 35.864 104.84 35.864H103.436C103.16 35.864 103.16 35.984 103.424 36.128C104.828 36.968 104.072 38.12 103.328 37.808C103.184 37.736 103.148 37.616 103.124 37.46C103.076 37.04 102.872 36.56 102.656 36.176C102.56 36.008 102.524 35.9 102.548 35.888C102.56 35.876 102.248 35.864 102.032 35.864C101.864 35.864 101.744 35.792 101.696 35.612C101.648 35.456 101.756 35.348 101.972 35.348H103.352C103.64 35.348 104.012 35.348 104 35.336L103.976 35.324C103.976 34.916 103.736 34.4 103.436 34.04C103.304 33.896 103.256 33.788 103.316 33.74C103.376 33.68 103.484 33.668 103.652 33.692C105.044 33.944 105.296 34.652 105.056 35.096C104.96 35.276 104.96 35.348 105.176 35.348H105.32C105.476 35.348 105.596 35.3 105.692 35.18L105.992 34.82C106.112 34.676 106.268 34.664 106.412 34.772C106.664 34.952 106.952 35.168 107.204 35.384C107.324 35.492 107.408 35.636 107.288 35.768C107.228 35.84 107.144 35.864 107.036 35.864H106.976C106.724 35.864 106.244 35.996 106.364 36.032C106.556 36.092 106.676 36.26 106.532 36.404C106.496 36.44 106.448 36.464 106.4 36.488C106.244 36.548 106.136 36.572 106.04 36.704C105.848 36.98 105.644 37.256 105.44 37.508C105.272 37.712 105.236 37.868 105.344 37.868C105.488 37.868 105.596 37.82 105.692 37.7L105.932 37.424C106.052 37.28 106.208 37.268 106.352 37.376L107.012 37.892C107.132 38.012 107.216 38.156 107.096 38.288C107.036 38.36 106.952 38.384 106.856 38.384H106.04C105.74 38.384 105.692 38.612 105.956 38.744L106.064 38.792C106.244 38.888 106.352 39.092 106.184 39.164C106.16 39.176 106.136 39.176 106.112 39.188C105.956 39.2 105.836 39.224 105.728 39.332C105.164 39.884 104.432 40.34 103.7 40.652C103.532 40.724 103.424 40.7 103.364 40.592C103.304 40.496 103.352 40.388 103.508 40.268C104.024 39.86 104.456 39.32 104.78 38.744C104.9 38.54 104.792 38.384 104.564 38.384H103.436C103.244 38.384 103.136 38.492 103.136 38.684V39.728C103.136 41.168 103.028 43.4 101.588 44.924C101.456 45.068 101.36 45.104 101.3 45.056ZM102.236 44.792C102.188 44.672 102.26 44.588 102.428 44.492C103.772 43.832 104.84 42.956 105.656 41.72C105.764 41.564 105.896 41.516 106.064 41.6L106.916 42.008C107.132 42.116 107.264 42.008 107.264 41.78V36.752C107.264 36.536 107.408 36.428 107.612 36.512L108.272 36.764C108.392 36.812 108.512 36.836 108.644 36.836C108.776 36.836 108.848 36.74 108.86 36.548C108.884 36.236 108.884 35.888 108.896 35.552C108.908 35.36 108.8 35.252 108.608 35.252H107.396C107.228 35.252 107.108 35.18 107.06 35C107.012 34.844 107.12 34.736 107.336 34.736H110.408C110.564 34.736 110.684 34.688 110.78 34.568L111.164 34.112C111.284 33.968 111.44 33.956 111.584 34.064C111.872 34.28 112.22 34.532 112.496 34.772C112.616 34.88 112.7 35.012 112.58 35.156C112.52 35.228 112.436 35.252 112.34 35.252H110.552C110.384 35.252 110.276 35.312 110.192 35.468C110 35.816 109.796 36.164 109.592 36.476C109.448 36.68 109.532 36.836 109.772 36.836H110.432C110.576 36.836 110.696 36.8 110.804 36.692L110.984 36.512C111.116 36.392 111.26 36.368 111.404 36.476L112.088 36.968C112.244 37.088 112.304 37.256 112.148 37.364C112.136 37.376 112.124 37.376 112.112 37.388C111.968 37.484 111.872 37.556 111.872 37.724V41.828C111.848 42.056 111.272 42.212 110.936 42.212C110.816 42.212 110.744 42.104 110.744 41.912V37.652C110.744 37.46 110.636 37.352 110.444 37.352H108.692C108.5 37.352 108.392 37.46 108.392 37.652V41.924C108.392 42.128 107.948 42.332 107.432 42.332C107.324 42.332 107.264 42.296 107.264 42.26C107.264 42.224 107.24 42.368 107.06 42.428C107.036 42.44 107.012 42.44 106.976 42.44C106.82 42.464 106.7 42.476 106.592 42.596C105.44 43.736 104.132 44.444 102.584 44.888C102.404 44.936 102.284 44.9 102.236 44.792ZM103.124 42.5C103.076 42.404 103.124 42.296 103.292 42.188C104.168 41.636 104.864 40.916 105.38 40.04C105.476 39.872 105.62 39.824 105.788 39.908L106.616 40.304C106.808 40.388 106.904 40.604 106.724 40.688C106.7 40.7 106.676 40.712 106.64 40.712C106.484 40.724 106.364 40.748 106.256 40.868C105.488 41.636 104.516 42.2 103.472 42.572C103.292 42.632 103.184 42.608 103.124 42.5ZM120.3 35.168C120.444 35.168 120.564 35.132 120.672 35.024L121.044 34.688C121.188 34.556 121.32 34.58 121.464 34.688L122.34 35.384C122.496 35.516 122.544 35.732 122.352 35.792C122.316 35.804 122.28 35.816 122.232 35.816C122.088 35.84 121.98 35.876 121.872 35.972C121.548 36.272 121.152 36.608 120.768 36.908C120.54 37.088 120.588 37.268 120.876 37.268H122.472C122.616 37.268 122.736 37.22 122.844 37.112L123.132 36.824C123.264 36.692 123.408 36.692 123.552 36.788L124.5 37.436C124.668 37.544 124.704 37.724 124.548 37.856C124.512 37.88 124.476 37.904 124.428 37.928C124.272 38 124.176 38.096 124.176 38.264V41.096C124.152 41.312 123.468 41.516 123.036 41.516C122.88 41.516 122.796 41.408 122.796 41.216V41.024C122.796 40.832 122.688 40.724 122.496 40.724H117.528C117.336 40.724 117.228 40.832 117.228 41.024V43.052C117.228 43.436 117.564 43.544 118.392 43.544H122.616C123.348 43.544 123.72 43.496 123.924 43.244C124.14 42.968 124.404 42.344 124.608 41.756C124.668 41.588 124.716 41.516 124.752 41.516C124.788 41.516 124.812 41.612 124.812 41.816L124.824 43.016C124.824 43.184 124.908 43.304 125.088 43.352C125.46 43.46 125.616 43.556 125.616 43.832C125.616 44.48 125.076 44.816 122.736 44.816H118.44C116.7 44.816 115.884 44.432 115.884 43.028V38.504C115.884 38.252 115.716 38.168 115.512 38.324C115.212 38.552 114.912 38.768 114.612 38.948C114.456 39.044 114.348 39.056 114.3 38.984C114.252 38.924 114.288 38.828 114.432 38.684C115.656 37.496 116.844 35.612 117.42 33.968C117.492 33.8 117.6 33.716 117.792 33.764L119.124 34.076C119.328 34.124 119.484 34.328 119.292 34.436C119.268 34.448 119.232 34.46 119.184 34.472C119.016 34.496 118.908 34.532 118.812 34.676C118.788 34.724 118.764 34.76 118.728 34.808C118.608 35.012 118.692 35.168 118.932 35.168H120.3ZM117.168 36.824C117 36.992 117 37.136 117.144 37.184L117.216 37.208C117.348 37.256 117.456 37.268 117.588 37.268H119.508C119.664 37.268 119.784 37.208 119.868 37.064C120.048 36.74 120.204 36.368 120.348 36.032C120.432 35.828 120.336 35.684 120.12 35.684H118.344C118.188 35.684 118.08 35.732 117.972 35.864C117.72 36.2 117.444 36.524 117.168 36.824ZM117.228 39.908C117.228 40.1 117.336 40.208 117.528 40.208H119.016C119.208 40.208 119.316 40.1 119.316 39.908V38.072C119.316 37.88 119.208 37.772 119.016 37.772H117.528C117.336 37.772 117.228 37.88 117.228 38.072V39.908ZM120.636 39.908C120.636 40.1 120.744 40.208 120.936 40.208H122.496C122.688 40.208 122.796 40.1 122.796 39.908V38.072C122.796 37.88 122.688 37.772 122.496 37.772H120.936C120.744 37.772 120.636 37.88 120.636 38.072V39.908Z" fill="#AA967F"/>
</svg>
