<svg width="63" height="15" viewBox="0 0 79 15" fill="none" xmlns="http://www.w3.org/2000/svg">
<path d="M7.92 2.295C6.38 4.875 3.975 6.88 0.705 8.31L0.57 8.04C3.64 6.17 5.805 3.665 7.065 0.524999C8.275 1.035 8.88 1.37 8.88 1.53C8.88 1.6 8.785 1.645 8.595 1.665C8.405 1.685 8.27 1.755 8.19 1.875C8.72 2.945 9.57 3.885 10.74 4.695C11.92 5.495 13.26 6.06 14.76 6.39L14.73 6.75C14.11 6.74 13.685 6.785 13.455 6.885C13.225 6.975 13 7.17 12.78 7.47C12.73 7.54 12.665 7.575 12.585 7.575C12.395 7.575 11.705 7.085 10.515 6.105C9.335 5.125 8.47 3.855 7.92 2.295ZM6.825 4.77C7.425 4.84 7.875 4.93 8.175 5.04C8.475 5.14 8.625 5.22 8.625 5.28C8.625 5.35 8.49 5.45 8.22 5.58V12.39C8.22 12.72 8.23 13.07 8.25 13.44L8.265 13.95C8.265 14.03 8.215 14.105 8.115 14.175C8.025 14.245 7.84 14.325 7.56 14.415C7.28 14.505 7.065 14.55 6.915 14.55C6.845 14.55 6.81 14.475 6.81 14.325L6.84 13.74C6.85 13.34 6.855 12.89 6.855 12.39V6.105C6.855 5.605 6.845 5.16 6.825 4.77ZM20.08 4.11C20.87 4.29 21.39 4.45 21.64 4.59C21.89 4.72 22.015 4.91 22.015 5.16C22.015 5.4 21.96 5.635 21.85 5.865C21.74 6.085 21.595 6.195 21.415 6.195C21.245 6.195 21.1 6.05 20.98 5.76C20.74 5.16 20.44 4.745 20.08 4.515V13.74C20.08 13.84 20.035 13.92 19.945 13.98C19.855 14.04 19.66 14.12 19.36 14.22C19.07 14.33 18.895 14.385 18.835 14.385C18.775 14.385 18.745 14.355 18.745 14.295C18.745 14.235 18.75 14.055 18.76 13.755C18.78 13.465 18.79 12.955 18.79 12.225V1.995C18.79 1.495 18.78 1.05 18.76 0.659999C19.18 0.759999 19.565 0.864999 19.915 0.975C20.275 1.085 20.48 1.155 20.53 1.185C20.59 1.215 20.62 1.245 20.62 1.275C20.62 1.355 20.44 1.49 20.08 1.68V4.11ZM25.21 9.21H22.735C22.465 9.21 22.255 9.245 22.105 9.315L21.82 8.7C22.03 8.75 22.28 8.775 22.57 8.775H25.21V5.49H23.215C22.695 6.91 22.025 8.22 21.205 9.42L20.905 9.27C21.825 7.19 22.415 4.79 22.675 2.07C23.265 2.27 23.7 2.445 23.98 2.595C24.26 2.735 24.4 2.83 24.4 2.88C24.4 2.93 24.34 2.97 24.22 3C24.11 3.03 24.025 3.08 23.965 3.15C23.905 3.21 23.815 3.46 23.695 3.9C23.585 4.34 23.475 4.73 23.365 5.07H25.21V2.085C25.21 1.315 25.2 0.844999 25.18 0.674999C25.61 0.735 25.985 0.81 26.305 0.9C26.625 0.99 26.82 1.055 26.89 1.095C26.96 1.135 26.995 1.175 26.995 1.215C26.995 1.295 26.845 1.41 26.545 1.56V5.07H27.775L28.345 4.185C28.455 4.005 28.55 3.915 28.63 3.915C28.72 3.915 28.895 4.035 29.155 4.275L29.86 4.95C30.07 5.15 30.175 5.29 30.175 5.37C30.175 5.45 30.09 5.49 29.92 5.49H26.545V8.775H27.67L28.285 7.905C28.395 7.755 28.495 7.68 28.585 7.68C28.675 7.68 28.92 7.88 29.32 8.28C29.72 8.68 29.92 8.935 29.92 9.045C29.92 9.155 29.825 9.21 29.635 9.21H26.545V12.915H28.345L29.035 12.06C29.155 11.91 29.25 11.835 29.32 11.835C29.39 11.835 29.48 11.885 29.59 11.985C29.7 12.085 29.88 12.255 30.13 12.495C30.38 12.745 30.545 12.92 30.625 13.02C30.715 13.13 30.76 13.215 30.76 13.275C30.76 13.345 30.665 13.38 30.475 13.38H21.82C21.55 13.38 21.34 13.415 21.19 13.485L20.935 12.84C21.145 12.89 21.395 12.915 21.685 12.915H25.21V9.21ZM17.845 4.05C18.045 4.93 18.145 5.69 18.145 6.33C18.145 6.96 18.02 7.405 17.77 7.665C17.52 7.915 17.255 8.04 16.975 8.04C16.815 8.04 16.675 7.985 16.555 7.875C16.445 7.755 16.39 7.645 16.39 7.545C16.39 7.435 16.52 7.215 16.78 6.885C17.04 6.555 17.22 6.165 17.32 5.715C17.42 5.265 17.455 4.715 17.425 4.065L17.845 4.05ZM35.57 6.27C34.69 7.46 33.685 8.5 32.555 9.39L32.36 9.165C33.43 7.915 34.31 6.61 35 5.25C35.7 3.89 36.27 2.32 36.71 0.539999C37.37 0.839999 37.845 1.09 38.135 1.29C38.425 1.49 38.57 1.63 38.57 1.71C38.57 1.81 38.435 1.88 38.165 1.92C38.045 1.94 37.94 2.015 37.85 2.145C37.76 2.275 37.6 2.61 37.37 3.15C37.14 3.68 36.86 4.23 36.53 4.8C36.94 4.94 37.145 5.05 37.145 5.13C37.145 5.21 37.05 5.315 36.86 5.445V13.785C36.86 13.875 36.81 13.955 36.71 14.025C36.62 14.095 36.43 14.185 36.14 14.295C35.85 14.405 35.67 14.46 35.6 14.46C35.53 14.46 35.495 14.41 35.495 14.31L35.525 13.245C35.555 12.525 35.57 11.705 35.57 10.785V6.27ZM41.615 8.205V11.91C41.615 12.16 41.675 12.32 41.795 12.39C41.925 12.47 42.365 12.51 43.115 12.51C43.875 12.51 44.36 12.45 44.57 12.33C44.79 12.21 44.945 11.945 45.035 11.535C45.125 11.115 45.235 10.28 45.365 9.03H45.68C45.67 9.41 45.665 9.745 45.665 10.035C45.665 10.785 45.705 11.3 45.785 11.58C45.865 11.85 46 12.035 46.19 12.135C46.38 12.235 46.475 12.32 46.475 12.39C46.475 12.46 46.405 12.61 46.265 12.84C46.135 13.08 45.995 13.265 45.845 13.395C45.695 13.535 45.535 13.625 45.365 13.665C45.205 13.705 44.835 13.74 44.255 13.77C43.675 13.81 43.07 13.83 42.44 13.83C41.81 13.83 41.34 13.775 41.03 13.665C40.73 13.565 40.52 13.375 40.4 13.095C40.28 12.825 40.22 12.43 40.22 11.91V9.09C39.36 9.58 38.305 10.075 37.055 10.575L36.98 10.245C38.19 9.565 39.27 8.87 40.22 8.16V2.61C40.22 1.8 40.205 1.145 40.175 0.645C41.575 1.075 42.275 1.375 42.275 1.545C42.275 1.625 42.055 1.765 41.615 1.965V6.96C42.655 5.97 43.695 4.63 44.735 2.94C45.095 3.3 45.4 3.66 45.65 4.02C45.9 4.37 46.025 4.59 46.025 4.68C46.025 4.76 45.99 4.8 45.92 4.8C45.85 4.8 45.785 4.795 45.725 4.785C45.665 4.765 45.6 4.755 45.53 4.755C45.46 4.755 45.355 4.82 45.215 4.95C45.075 5.07 44.855 5.285 44.555 5.595C43.515 6.675 42.535 7.545 41.615 8.205ZM50.745 4.425H49.41C49.16 4.425 48.945 4.45 48.765 4.5L48.51 3.915C48.72 3.965 48.97 3.99 49.26 3.99H50.745V2.4C50.745 1.82 50.735 1.28 50.715 0.78C51.475 0.929999 51.95 1.045 52.14 1.125C52.34 1.205 52.44 1.28 52.44 1.35C52.44 1.45 52.28 1.575 51.96 1.725V3.99H52.335L52.95 3.21C53.05 3.08 53.135 3.015 53.205 3.015C53.285 3.015 53.485 3.205 53.805 3.585C54.125 3.955 54.285 4.2 54.285 4.32C55.155 3.05 55.83 1.805 56.31 0.584999C56.73 0.744999 57.105 0.914999 57.435 1.095C57.775 1.275 57.945 1.395 57.945 1.455C57.945 1.515 57.865 1.55 57.705 1.56C57.555 1.57 57.4 1.69 57.24 1.92C57.09 2.15 56.855 2.475 56.535 2.895H58.245L58.695 2.4C58.755 2.33 58.81 2.295 58.86 2.295C58.92 2.295 59.185 2.435 59.655 2.715C60.135 2.985 60.375 3.17 60.375 3.27C60.375 3.37 60.27 3.435 60.06 3.465C59.85 3.495 59.645 3.58 59.445 3.72C59.245 3.85 58.965 4.075 58.605 4.395C58.255 4.715 57.93 5.045 57.63 5.385H59.34L59.73 4.815C59.79 4.735 59.85 4.695 59.91 4.695C59.98 4.695 60.145 4.79 60.405 4.98L61.065 5.43C61.235 5.54 61.32 5.645 61.32 5.745C61.32 5.845 61.1 5.99 60.66 6.18V9.21H60.78L61.275 8.565C61.355 8.465 61.425 8.415 61.485 8.415C61.545 8.415 61.715 8.57 61.995 8.88C62.285 9.19 62.43 9.4 62.43 9.51C62.43 9.58 62.335 9.615 62.145 9.615H58.2C58.86 11.345 60.245 12.525 62.355 13.155V13.44C61.735 13.44 61.195 13.655 60.735 14.085C60.665 14.155 60.61 14.19 60.57 14.19C60.45 14.19 60.025 13.79 59.295 12.99C58.575 12.2 58.07 11.075 57.78 9.615H57.465C57.165 10.815 56.59 11.775 55.74 12.495C54.89 13.215 53.545 13.865 51.705 14.445L51.645 14.175C52.975 13.575 54.005 12.915 54.735 12.195C55.465 11.475 55.98 10.615 56.28 9.615H53.085C52.875 9.615 52.72 9.645 52.62 9.705L52.455 9.135C52.595 9.185 52.775 9.21 52.995 9.21H54.105V5.475C53.765 5.805 53.395 6.13 52.995 6.45L52.77 6.255C53.4 5.555 53.89 4.945 54.24 4.425H51.96V6.945L53.85 6.3L53.97 6.555L51.96 7.605V12.9C51.96 13.26 51.755 13.575 51.345 13.845C50.935 14.125 50.625 14.265 50.415 14.265C50.305 14.265 50.22 14.18 50.16 14.01C50.08 13.76 49.895 13.56 49.605 13.41C49.315 13.27 48.955 13.14 48.525 13.02L48.54 12.735C49.19 12.805 49.655 12.84 49.935 12.84C50.225 12.84 50.43 12.81 50.55 12.75C50.68 12.7 50.745 12.565 50.745 12.345V8.235C50.035 8.645 49.52 8.99 49.2 9.27C49.13 9.33 49.065 9.36 49.005 9.36C48.955 9.36 48.885 9.3 48.795 9.18C48.715 9.05 48.51 8.69 48.18 8.1C48.9 7.92 49.755 7.67 50.745 7.35V4.425ZM56.22 3.285C55.83 3.785 55.285 4.365 54.585 5.025C54.925 5.145 55.195 5.265 55.395 5.385H57.045C57.505 4.575 57.865 3.875 58.125 3.285H56.22ZM56.685 5.79H55.23V9.21H56.385C56.605 8.28 56.705 7.14 56.685 5.79ZM59.43 9.21V5.79H57.885C57.855 7.23 57.745 8.37 57.555 9.21H59.43ZM74.47 4.32C74.42 5.29 74.365 6.195 74.305 7.035H76.12L76.765 6.15C76.815 6.08 76.875 6.045 76.945 6.045C77.015 6.045 77.13 6.11 77.29 6.24C77.46 6.36 77.64 6.515 77.83 6.705C78.03 6.885 78.175 7.025 78.265 7.125C78.355 7.225 78.4 7.315 78.4 7.395C78.4 7.465 78.33 7.5 78.19 7.5H74.725C75.025 8.98 75.495 10.145 76.135 10.995C76.775 11.835 77.63 12.44 78.7 12.81L78.67 13.17C78.45 13.14 78.225 13.125 77.995 13.125C77.775 13.125 77.575 13.17 77.395 13.26C77.225 13.36 77.065 13.53 76.915 13.77C76.865 13.85 76.805 13.89 76.735 13.89C76.555 13.89 76.145 13.355 75.505 12.285C74.865 11.225 74.49 9.63 74.38 7.5H74.275C74.125 9.12 73.71 10.455 73.03 11.505C72.36 12.545 71.295 13.5 69.835 14.37L69.67 14.115C70.72 13.315 71.51 12.42 72.04 11.43C72.58 10.43 72.925 9.12 73.075 7.5H71.02C70.82 7.5 70.66 7.535 70.54 7.605L70.33 6.96C70.49 7.01 70.685 7.035 70.915 7.035H73.105C73.185 6.025 73.23 5.12 73.24 4.32H71.395C71.185 4.32 71.02 4.355 70.9 4.425L70.69 3.78C70.86 3.83 71.055 3.855 71.275 3.855H73.24C73.25 3.055 73.23 1.995 73.18 0.674999C73.68 0.804999 74.1 0.929999 74.44 1.05C74.79 1.17 74.995 1.25 75.055 1.29C75.115 1.33 75.145 1.375 75.145 1.425C75.145 1.465 75.075 1.51 74.935 1.56C74.695 1.64 74.57 1.805 74.56 2.055L74.5 3.855H75.64L76.135 3.045C76.195 2.935 76.255 2.88 76.315 2.88C76.405 2.88 76.655 3.08 77.065 3.48C77.485 3.87 77.695 4.11 77.695 4.2C77.695 4.28 77.625 4.32 77.485 4.32H74.47ZM67.42 1.89H68.92L69.265 1.32C69.315 1.23 69.365 1.185 69.415 1.185C69.465 1.185 69.655 1.3 69.985 1.53C70.325 1.76 70.56 1.925 70.69 2.025C70.82 2.125 70.885 2.2 70.885 2.25C70.885 2.34 70.655 2.49 70.195 2.7V11.91C70.195 12.44 70.16 12.805 70.09 13.005C70.02 13.215 69.815 13.425 69.475 13.635C69.135 13.845 68.91 13.95 68.8 13.95C68.74 13.95 68.69 13.87 68.65 13.71C68.58 13.4 68.445 13.16 68.245 12.99C68.055 12.82 67.675 12.64 67.105 12.45L67.165 12.18C67.825 12.29 68.255 12.345 68.455 12.345C68.655 12.345 68.8 12.32 68.89 12.27C68.98 12.22 69.025 12.09 69.025 11.88V8.475H67.255C67.185 9.825 66.965 10.935 66.595 11.805C66.235 12.665 65.62 13.56 64.75 14.49L64.525 14.295C65.345 13.075 65.825 11.745 65.965 10.305C66.105 8.865 66.175 7.01 66.175 4.74C66.175 3.63 66.155 2.45 66.115 1.2C66.625 1.44 67.06 1.67 67.42 1.89ZM67.36 4.875H69.025V2.34H67.375C67.375 3.49 67.37 4.335 67.36 4.875ZM69.025 5.415H67.345L67.27 8.025H69.025V5.415Z" fill="#9A764E"/>
</svg>
