<svg width="77" height="13" viewBox="0 0 77 13" fill="none" xmlns="http://www.w3.org/2000/svg">
<path d="M9.588 2.012C9.708 1.856 9.864 1.844 10.008 1.964C10.308 2.192 10.668 2.468 10.956 2.708C11.088 2.828 11.16 2.96 11.04 3.104C10.98 3.176 10.896 3.2 10.8 3.2H6.924C6.732 3.2 6.624 3.308 6.624 3.5V4.484C6.624 4.676 6.732 4.784 6.924 4.784H8.208C8.352 4.784 8.472 4.736 8.58 4.628L8.868 4.352C9 4.232 9.132 4.208 9.288 4.316L10.236 4.952C10.404 5.072 10.452 5.24 10.284 5.372C10.26 5.396 10.224 5.408 10.2 5.42C10.044 5.504 9.948 5.6 9.948 5.768V8.396C9.924 8.612 9.228 8.816 8.772 8.816C8.616 8.816 8.532 8.708 8.532 8.516V8.432C8.532 8.24 8.424 8.132 8.232 8.132H3.84C3.648 8.132 3.54 8.24 3.54 8.432V8.468C3.54 8.708 2.88 8.924 2.352 8.924C2.376 8.924 2.436 9.008 2.472 9.188C2.88 10.7 2.256 11.648 1.62 11.96C1.152 12.2 0.636 12.164 0.444 11.696C0.288 11.252 0.612 10.904 0.948 10.748C1.548 10.52 2.148 9.92 2.22 9.116C2.232 8.972 2.184 8.9 2.16 8.792C2.148 8.744 2.148 8.684 2.148 8.624V4.616C2.148 4.4 2.292 4.304 2.496 4.376L3.444 4.724C3.564 4.772 3.684 4.784 3.816 4.784H4.896C5.088 4.784 5.196 4.676 5.196 4.484V1.064C5.196 0.872 5.316 0.763999 5.508 0.775999L6.828 0.872C7.02 0.883999 7.176 1.016 7.08 1.196C7.044 1.268 6.972 1.328 6.888 1.376C6.72 1.46 6.624 1.544 6.624 1.712V2.384C6.624 2.576 6.732 2.684 6.924 2.684H8.808C8.964 2.684 9.084 2.636 9.18 2.516L9.588 2.012ZM3.54 7.316C3.54 7.508 3.648 7.616 3.84 7.616H8.232C8.424 7.616 8.532 7.508 8.532 7.316V5.6C8.532 5.408 8.424 5.3 8.232 5.3H3.84C3.648 5.3 3.54 5.408 3.54 5.6V7.316ZM4.044 9.344C3.996 9.164 4.008 9.056 4.056 9.032C4.116 9.008 4.2 9.044 4.332 9.14C6.528 10.676 5.208 12.476 4.272 11.792C4.14 11.696 4.116 11.564 4.14 11.396C4.236 10.7 4.176 9.956 4.044 9.344ZM6.24 9.332C6.132 9.164 6.108 9.056 6.156 9.02C6.216 8.984 6.312 8.996 6.468 9.056C9.384 10.232 8.448 12.344 7.344 11.828C7.2 11.756 7.152 11.648 7.14 11.504C7.056 10.796 6.672 9.98 6.24 9.332ZM8.724 9.296C8.592 9.152 8.544 9.056 8.604 8.996C8.664 8.936 8.772 8.936 8.94 8.984C12.456 10.052 11.76 12.452 10.536 12.02C10.392 11.96 10.332 11.864 10.296 11.744C10.056 10.916 9.396 9.98 8.724 9.296ZM15.964 10.448C15.964 10.64 16.072 10.748 16.264 10.748H18.052C18.244 10.748 18.352 10.64 18.352 10.448V6.608C18.352 6.416 18.244 6.308 18.052 6.308H13.756C13.588 6.308 13.468 6.236 13.42 6.056C13.372 5.9 13.48 5.792 13.696 5.792H18.052C18.244 5.792 18.352 5.684 18.352 5.492V3.752C18.352 3.56 18.244 3.452 18.052 3.452H14.716C14.548 3.452 14.428 3.38 14.38 3.2C14.332 3.044 14.44 2.936 14.656 2.936H18.052C18.244 2.936 18.352 2.828 18.352 2.636V1.124C18.352 0.931999 18.472 0.823999 18.664 0.835999L19.876 0.956C20.068 0.98 20.224 1.1 20.128 1.28C20.092 1.328 20.056 1.376 19.996 1.412C19.84 1.496 19.744 1.58 19.744 1.748V2.636C19.744 2.828 19.852 2.936 20.044 2.936H21.316C21.472 2.936 21.58 2.876 21.676 2.768L22.168 2.216C22.288 2.072 22.444 2.048 22.588 2.156C22.936 2.396 23.344 2.696 23.68 2.972C23.8 3.068 23.896 3.2 23.8 3.344C23.74 3.428 23.632 3.452 23.524 3.452H20.044C19.852 3.452 19.744 3.56 19.744 3.752V5.492C19.744 5.684 19.852 5.792 20.044 5.792H22.192C22.348 5.792 22.456 5.732 22.552 5.624L23.032 5.084C23.152 4.94 23.308 4.916 23.452 5.024C23.8 5.264 24.22 5.564 24.556 5.828C24.676 5.924 24.772 6.056 24.676 6.2C24.616 6.284 24.508 6.308 24.4 6.308H20.044C19.852 6.308 19.744 6.416 19.744 6.608V10.448C19.744 10.64 19.852 10.748 20.044 10.748H21.808C22 10.748 22.108 10.64 22.108 10.448V7.304C22.108 7.112 22.228 6.992 22.42 7.016L23.608 7.136C23.8 7.16 23.956 7.28 23.848 7.46C23.824 7.508 23.788 7.544 23.74 7.568C23.584 7.664 23.488 7.748 23.488 7.916V11.696C23.488 11.9 22.912 12.08 22.348 12.08C22.192 12.08 22.108 11.972 22.108 11.78V11.552C22.108 11.36 22 11.252 21.808 11.252H16.24C16.084 11.252 15.976 11.312 15.88 11.432L15.76 11.588C15.652 11.732 15.508 11.756 15.352 11.684L14.428 11.228C14.236 11.132 14.188 10.976 14.344 10.832C14.368 10.808 14.404 10.784 14.428 10.76C14.56 10.664 14.62 10.556 14.62 10.4V7.292C14.62 7.1 14.74 6.98 14.932 7.004L16.096 7.112C16.288 7.136 16.444 7.268 16.348 7.448C16.312 7.496 16.276 7.544 16.216 7.58C16.06 7.664 15.964 7.748 15.964 7.916V10.448ZM29.972 10.364C29.972 10.604 29.348 10.82 28.82 10.82C28.7 10.82 28.628 10.712 28.628 10.52V6.32C28.628 6.092 28.484 5.996 28.28 6.092C27.788 6.332 27.272 6.536 26.744 6.716C26.564 6.776 26.444 6.74 26.408 6.644C26.36 6.56 26.432 6.452 26.6 6.356C27.992 5.612 29.18 4.58 30.008 3.524C30.164 3.332 30.08 3.164 29.828 3.164H26.924C26.756 3.164 26.636 3.08 26.588 2.912C26.54 2.768 26.648 2.66 26.864 2.66H30.98C31.172 2.66 31.28 2.552 31.28 2.36V1.148C31.28 0.956 31.4 0.835999 31.592 0.86L32.78 0.968C32.972 0.991999 33.128 1.124 33.02 1.304C32.996 1.352 32.948 1.388 32.9 1.424C32.744 1.508 32.648 1.592 32.648 1.76V2.36C32.648 2.552 32.756 2.66 32.948 2.66H35.192C35.348 2.66 35.468 2.612 35.564 2.492L35.972 2.012C36.092 1.868 36.236 1.856 36.38 1.964C36.68 2.18 37.028 2.444 37.316 2.684C37.448 2.792 37.532 2.936 37.412 3.068C37.352 3.14 37.268 3.164 37.16 3.164H33.776C33.5 3.164 33.416 3.368 33.632 3.536C34.628 4.352 36.068 4.964 37.376 5.336C37.556 5.384 37.64 5.444 37.628 5.552C37.616 5.66 37.52 5.708 37.364 5.768C37.052 5.888 36.824 6.116 36.692 6.404C36.596 6.596 36.476 6.656 36.308 6.56C34.94 5.84 33.692 4.796 32.924 3.38C32.852 3.236 32.78 3.164 32.732 3.164C32.684 3.164 32.648 3.272 32.648 3.464V5.84C32.648 6.08 32.024 6.236 31.52 6.236C31.364 6.236 31.28 6.128 31.28 5.936V4.58C31.28 4.328 31.112 4.244 30.92 4.424C30.38 4.892 29.744 5.312 29.072 5.696C28.844 5.816 28.856 6.008 29.096 6.092L29.876 6.368C30.008 6.416 30.116 6.428 30.248 6.428H33.704C33.848 6.428 33.968 6.392 34.076 6.284L34.352 6.032C34.484 5.9 34.628 5.888 34.772 5.996L35.624 6.596C35.792 6.704 35.84 6.884 35.684 7.004C35.672 7.016 35.66 7.016 35.636 7.028C35.48 7.112 35.396 7.208 35.396 7.376V10.256C35.372 10.496 34.7 10.736 34.256 10.736C34.112 10.736 34.028 10.628 34.028 10.436V10.328C34.028 10.136 33.92 10.028 33.728 10.028H30.272C30.08 10.028 29.972 10.136 29.972 10.328V10.364ZM26.408 11.3C26.36 11.156 26.468 11.048 26.684 11.048H35.252C35.408 11.048 35.516 10.988 35.612 10.88L36.032 10.412C36.152 10.268 36.296 10.256 36.452 10.364C36.764 10.58 37.148 10.832 37.46 11.072C37.592 11.18 37.676 11.324 37.556 11.456C37.496 11.528 37.412 11.552 37.304 11.552H26.744C26.576 11.552 26.456 11.468 26.408 11.3ZM29.972 9.212C29.972 9.404 30.08 9.512 30.272 9.512H33.728C33.92 9.512 34.028 9.404 34.028 9.212V8.756C34.028 8.564 33.92 8.456 33.728 8.456H30.272C30.08 8.456 29.972 8.564 29.972 8.756V9.212ZM29.972 7.652C29.972 7.844 30.08 7.952 30.272 7.952H33.728C33.92 7.952 34.028 7.844 34.028 7.652V7.244C34.028 7.052 33.92 6.944 33.728 6.944H30.272C30.08 6.944 29.972 7.052 29.972 7.244V7.652ZM49.02 4.316C49.14 4.172 49.296 4.148 49.44 4.256C49.752 4.472 50.124 4.736 50.424 4.976C50.556 5.084 50.64 5.216 50.532 5.36C50.472 5.432 50.376 5.456 50.256 5.456H44.112C43.956 5.456 43.848 5.516 43.752 5.648C43.704 5.72 43.656 5.78 43.608 5.84C43.488 6.032 43.488 6.164 43.608 6.2H43.62C43.752 6.248 43.86 6.26 43.992 6.26H47.316C47.46 6.26 47.58 6.212 47.688 6.104L47.952 5.852C48.084 5.732 48.228 5.72 48.372 5.816L49.224 6.416C49.392 6.524 49.44 6.704 49.284 6.824C49.272 6.836 49.248 6.848 49.236 6.86C49.092 6.944 48.996 7.028 48.996 7.196V11.672C48.972 11.888 48.288 12.08 47.856 12.08C47.712 12.08 47.628 11.972 47.628 11.78V11.564C47.628 11.372 47.52 11.264 47.328 11.264H43.932C43.74 11.264 43.632 11.372 43.632 11.564V11.66C43.632 11.852 43.236 12.104 42.54 12.104C42.384 12.104 42.3 11.996 42.3 11.804V7.856C42.3 7.604 42.132 7.52 41.94 7.688C41.28 8.264 40.548 8.768 39.732 9.188C39.576 9.272 39.456 9.26 39.396 9.176C39.336 9.104 39.384 8.996 39.552 8.876C40.704 8.024 41.628 6.968 42.3 5.816C42.42 5.612 42.324 5.456 42.096 5.456H39.888C39.72 5.456 39.6 5.384 39.552 5.204C39.504 5.048 39.612 4.94 39.828 4.94H42.528C42.696 4.94 42.816 4.868 42.888 4.712C42.948 4.58 42.996 4.448 43.056 4.316C43.14 4.112 43.044 3.968 42.828 3.968H40.752C40.584 3.968 40.464 3.896 40.416 3.716C40.368 3.56 40.476 3.464 40.692 3.464H43.104C43.272 3.464 43.392 3.392 43.452 3.212C43.488 3.104 43.524 2.984 43.56 2.876C43.62 2.66 43.5 2.54 43.284 2.552C42.312 2.588 41.328 2.612 40.38 2.612C40.188 2.612 40.092 2.54 40.08 2.42C40.068 2.288 40.176 2.216 40.368 2.204C43.044 1.964 46.296 1.388 48.132 0.86C48.288 0.812 48.42 0.835999 48.54 0.943999L49.404 1.724C49.56 1.868 49.584 2.096 49.368 2.12C49.272 2.132 49.164 2.12 49.02 2.072C48.876 2.024 48.768 2.012 48.636 2.036C47.712 2.168 46.608 2.3 45.42 2.396C45.252 2.42 45.144 2.504 45.096 2.672C45.06 2.828 45.012 2.972 44.964 3.116C44.892 3.332 44.988 3.464 45.204 3.464H47.484C47.64 3.464 47.748 3.404 47.844 3.296L48.24 2.852C48.36 2.708 48.516 2.684 48.66 2.792C48.96 2.996 49.32 3.248 49.608 3.488C49.74 3.596 49.824 3.74 49.704 3.872C49.644 3.944 49.548 3.968 49.452 3.968H44.892C44.724 3.968 44.616 4.04 44.544 4.196C44.484 4.328 44.424 4.46 44.364 4.58C44.256 4.796 44.34 4.94 44.568 4.94H48.252C48.408 4.94 48.516 4.88 48.612 4.772L49.02 4.316ZM43.632 10.448C43.632 10.64 43.74 10.748 43.932 10.748H47.328C47.52 10.748 47.628 10.64 47.628 10.448V10.028C47.628 9.836 47.52 9.728 47.328 9.728H43.932C43.74 9.728 43.632 9.836 43.632 10.028V10.448ZM43.632 8.912C43.632 9.104 43.74 9.212 43.932 9.212H47.328C47.52 9.212 47.628 9.104 47.628 8.912V8.516C47.628 8.324 47.52 8.216 47.328 8.216H43.932C43.74 8.216 43.632 8.324 43.632 8.516V8.912ZM43.632 7.412C43.632 7.604 43.74 7.712 43.932 7.712H47.328C47.52 7.712 47.628 7.604 47.628 7.412V7.076C47.628 6.884 47.52 6.776 47.328 6.776H43.932C43.74 6.776 43.632 6.884 43.632 7.076V7.412ZM58.624 2.18C58.528 1.94 58.372 1.928 58.252 2.144C57.076 4.016 54.952 5.78 52.624 6.74C52.444 6.812 52.336 6.812 52.288 6.716C52.24 6.62 52.3 6.536 52.468 6.428C54.544 5.156 56.476 2.828 57.052 1.04C57.1 0.86 57.22 0.775999 57.412 0.823999L58.948 1.172C59.128 1.208 59.284 1.364 59.152 1.508C59.128 1.532 59.116 1.544 59.092 1.556C58.912 1.676 58.828 1.76 58.96 1.94C59.992 3.308 61.792 4.244 63.544 4.856C63.712 4.916 63.796 5 63.796 5.108C63.784 5.24 63.7 5.3 63.544 5.36C63.148 5.516 62.884 5.804 62.74 6.092C62.656 6.272 62.548 6.332 62.368 6.236C61.888 5.996 61.444 5.708 61.036 5.372C60.88 5.252 60.844 5.3 60.748 5.468C60.712 5.516 60.676 5.552 60.616 5.588C60.46 5.672 60.364 5.756 60.364 5.924V11.672C60.364 11.924 59.716 12.104 59.224 12.104C59.068 12.104 58.972 11.996 58.972 11.804V5.324C58.972 5.132 59.092 5.024 59.284 5.036L60.184 5.12C60.46 5.144 60.544 4.976 60.352 4.784C59.608 4.064 59.02 3.2 58.624 2.18ZM52.576 11.96C52.528 11.888 52.612 11.78 52.792 11.684C55.276 10.388 55.564 8.516 55.564 6.788V5.348C55.564 5.156 55.672 5.036 55.876 5.06L57.016 5.168C57.208 5.18 57.364 5.312 57.256 5.492C57.232 5.528 57.208 5.564 57.172 5.588C57.028 5.684 56.932 5.756 56.932 5.924V6.8C56.884 8.708 56.368 10.94 52.912 12.008C52.732 12.056 52.624 12.044 52.576 11.96ZM74.576 1.652C74.72 1.652 74.828 1.616 74.948 1.508L75.248 1.244C75.38 1.124 75.524 1.112 75.668 1.232L76.448 1.844C76.616 1.976 76.652 2.156 76.472 2.252C76.46 2.252 76.448 2.264 76.436 2.264C76.268 2.324 76.172 2.42 76.16 2.6C76.052 4.772 75.824 5.876 75.308 6.272C74.984 6.512 74.648 6.632 74.204 6.668C74.012 6.68 73.916 6.572 73.892 6.38C73.88 6.188 73.832 6.032 73.688 5.9C73.58 5.792 73.316 5.684 72.98 5.6C72.812 5.552 72.716 5.468 72.716 5.36C72.716 5.252 72.824 5.204 73.028 5.216C73.412 5.252 73.868 5.276 74.036 5.276C74.24 5.276 74.36 5.252 74.42 5.192C74.672 4.964 74.804 4.088 74.888 2.492C74.9 2.288 74.78 2.168 74.588 2.168H73.364C73.184 2.168 73.064 2.264 73.052 2.456C72.872 4.172 72.332 5.72 69.884 6.788C69.716 6.86 69.596 6.836 69.524 6.752C69.452 6.668 69.512 6.56 69.68 6.44C71.336 5.276 71.6 3.932 71.648 2.468C71.66 2.276 71.552 2.168 71.36 2.168H70.256C70.088 2.168 69.968 2.096 69.92 1.916C69.872 1.748 69.98 1.652 70.196 1.652H74.576ZM65.468 4.556C65.42 4.46 65.408 4.376 65.432 4.316C65.48 4.196 65.588 4.196 65.672 4.172C65.708 4.148 65.744 4.136 65.768 4.124C66.356 3.548 67.1 2.084 67.412 1.16C67.472 0.968 67.604 0.895999 67.784 0.968L68.948 1.4C69.128 1.472 69.248 1.64 69.104 1.784C69.08 1.808 69.044 1.832 69.008 1.844C68.852 1.904 68.744 1.916 68.648 2.048C68.168 2.66 67.52 3.344 66.896 3.92C66.692 4.1 66.752 4.268 67.028 4.268C67.34 4.256 67.7 4.244 68.072 4.22C68.228 4.208 68.336 4.148 68.42 4.016C68.636 3.656 68.816 3.32 68.948 3.032C69.032 2.852 69.164 2.792 69.344 2.888L70.436 3.452C70.616 3.548 70.7 3.74 70.52 3.836C70.496 3.848 70.46 3.86 70.436 3.872C70.268 3.908 70.16 3.932 70.052 4.052C69.38 4.916 68.312 5.972 67.292 6.836C67.076 7.016 67.136 7.184 67.412 7.16C68.012 7.112 68.696 7.052 69.368 6.98C69.572 6.968 69.692 7.004 69.692 7.112C69.692 7.22 69.62 7.304 69.464 7.364C68.816 7.652 67.796 8.084 66.62 8.492C66.488 8.54 66.416 8.576 66.392 8.612C66.26 8.768 66.08 8.696 65.996 8.504L65.576 7.568C65.492 7.376 65.54 7.268 65.708 7.22C65.816 7.196 65.912 7.16 65.948 7.136C66.368 6.8 66.848 6.272 67.292 5.684C67.472 5.444 67.304 5.228 67.028 5.336C66.776 5.432 66.512 5.528 66.248 5.612C66.248 5.612 65.972 5.672 65.888 5.48L65.468 4.556ZM65.612 10.244C65.516 10.052 65.576 9.908 65.792 9.86C66.608 9.668 68.06 9.296 69.488 8.864C69.68 8.816 69.8 8.828 69.824 8.912C69.836 8.996 69.788 9.092 69.656 9.188C68.972 9.704 68 10.364 66.704 11.096C66.572 11.18 66.512 11.228 66.488 11.288C66.38 11.468 66.188 11.396 66.092 11.216L65.612 10.244ZM70.472 12.116C70.4 12.116 70.352 12.008 70.352 11.816V6.944C70.352 6.728 70.496 6.632 70.7 6.704L71.576 7.028C71.696 7.076 71.816 7.088 71.948 7.088H74.288C74.432 7.088 74.552 7.052 74.66 6.932L74.924 6.656C75.044 6.524 75.2 6.5 75.344 6.608L76.124 7.16C76.28 7.268 76.34 7.448 76.172 7.58C76.16 7.592 76.148 7.604 76.124 7.604C75.968 7.688 75.872 7.772 75.872 7.94V11.648C75.872 11.828 75.44 12.008 74.768 12.008C74.624 12.008 74.54 11.9 74.54 11.708V11.48C74.54 11.288 74.432 11.18 74.24 11.18H71.924C71.732 11.18 71.624 11.288 71.624 11.48V11.744C71.624 11.924 71.252 12.116 70.58 12.116H70.472ZM71.624 10.364C71.624 10.556 71.732 10.664 71.924 10.664H74.24C74.432 10.664 74.54 10.556 74.54 10.364V7.892C74.54 7.7 74.432 7.592 74.24 7.592H71.924C71.732 7.592 71.624 7.7 71.624 7.892V10.364Z" fill="#AA967F"/>
</svg>
