<svg width="48" height="15" viewBox="0 0 48 15" fill="none" xmlns="http://www.w3.org/2000/svg">
<path d="M11.975 0.924999C12.125 0.745 12.32 0.714999 12.5 0.849999C12.92 1.15 13.415 1.51 13.82 1.825C13.985 1.945 14.105 2.11 13.97 2.29C13.895 2.395 13.76 2.425 13.625 2.425H9.095C8.855 2.425 8.72 2.56 8.705 2.8C8.69 3.835 8.66 4.81 8.57 5.74C8.555 5.995 8.69 6.13 8.93 6.13H11.81C12.005 6.13 12.155 6.07 12.275 5.92L12.875 5.23C13.025 5.05 13.205 5.02 13.385 5.155C13.82 5.47 14.33 5.845 14.75 6.175C14.915 6.31 15.02 6.49 14.87 6.655C14.795 6.745 14.675 6.775 14.54 6.775H9.095C8.825 6.775 8.705 6.94 8.78 7.195C9.455 9.22 11.195 11.215 14.81 12.55C15.02 12.64 15.125 12.745 15.125 12.865C15.11 12.985 15.005 13.075 14.78 13.12C14.225 13.27 13.865 13.525 13.685 13.975C13.595 14.215 13.445 14.305 13.22 14.17C10.28 12.535 9.065 9.97 8.54 7.63C8.465 7.3 8.375 7.315 8.3 7.63C7.685 10.51 5.99 12.715 1.415 14.275C1.205 14.35 1.04 14.305 0.98 14.185C0.92 14.065 0.995 13.93 1.235 13.825C4.925 11.995 6.14 9.82 6.56 7.18C6.605 6.925 6.47 6.775 6.215 6.775H1.82C1.61 6.775 1.46 6.685 1.4 6.46C1.34 6.265 1.475 6.13 1.745 6.13H6.32C6.545 6.13 6.695 6.01 6.71 5.77C6.77 4.84 6.785 3.865 6.785 2.8C6.785 2.56 6.65 2.425 6.41 2.425H2.705C2.495 2.425 2.345 2.335 2.285 2.11C2.225 1.9 2.36 1.78 2.63 1.78H10.94C11.135 1.78 11.27 1.705 11.39 1.57L11.975 0.924999ZM16.965 11.395C16.845 11.155 16.83 11.02 16.92 10.99C16.965 10.975 17.01 10.96 17.07 10.93C17.4 10.825 17.865 10.66 18.345 10.465C18.555 10.39 18.645 10.24 18.645 10.03V6.97C18.645 6.73 18.51 6.595 18.27 6.595H17.58C17.37 6.595 17.22 6.505 17.16 6.28C17.1 6.085 17.235 5.95 17.505 5.95H18.27C18.51 5.95 18.645 5.815 18.645 5.575V2.845C18.645 2.605 18.51 2.47 18.27 2.47H17.475C17.265 2.47 17.115 2.38 17.055 2.155C16.995 1.96 17.13 1.825 17.4 1.825H19.89C20.085 1.825 20.235 1.765 20.355 1.6L20.745 1.09C20.895 0.894999 21.075 0.865 21.27 1.03C21.585 1.285 21.93 1.6 22.23 1.87C22.365 2.005 22.47 2.17 22.35 2.335C22.275 2.44 22.155 2.47 22.035 2.47H20.625C20.385 2.47 20.25 2.605 20.25 2.845V5.575C20.25 5.815 20.295 5.95 20.34 5.95C20.385 5.95 20.46 5.875 20.58 5.71L20.88 5.305C21.03 5.095 21.21 5.065 21.405 5.245C21.645 5.47 21.915 5.74 22.155 5.98C22.29 6.13 22.38 6.28 22.26 6.46C22.185 6.565 22.08 6.595 21.945 6.595H20.625C20.385 6.595 20.25 6.73 20.25 6.97V9.25C20.25 9.52 20.43 9.64 20.685 9.535C21.075 9.37 21.465 9.205 21.855 9.025C22.08 8.92 22.245 8.92 22.275 9.025C22.305 9.13 22.245 9.25 22.095 9.385C21.165 10.195 19.89 11.185 18.24 12.265C18.075 12.37 18.015 12.43 18.015 12.43C18 12.445 18 12.445 18 12.46C17.88 12.715 17.625 12.655 17.505 12.415L16.965 11.395ZM20.715 11.41C20.55 11.2 20.595 11.02 20.835 10.9C21.705 10.495 23.205 9.73 24.75 8.845C24.945 8.74 25.02 8.59 25.02 8.395V4.345C25.02 4.105 24.885 3.97 24.645 3.97H21.795C21.585 3.97 21.435 3.88 21.375 3.655C21.315 3.46 21.45 3.34 21.72 3.34H24.645C24.885 3.34 25.02 3.205 25.02 2.965V0.67C25.02 0.429999 25.155 0.279999 25.41 0.31L26.82 0.445C27.06 0.46 27.255 0.624999 27.135 0.849999C27.09 0.909999 27.045 0.955 27 0.984999C26.805 1.105 26.685 1.21 26.685 1.42V2.965C26.685 3.205 26.82 3.34 27.06 3.34H28.26C28.455 3.34 28.605 3.28 28.725 3.13C28.725 3.13 28.8 2.875 28.695 2.74C28.635 2.68 28.59 2.605 28.56 2.515C28.395 2.095 28.02 1.615 27.63 1.255C27.435 1.09 27.36 0.969999 27.435 0.894999C27.51 0.819999 27.63 0.774999 27.84 0.79C29.52 0.955 30.045 1.72 29.925 2.29C29.88 2.515 29.88 2.65 30.06 2.785C30.27 2.965 30.525 3.175 30.78 3.37C30.945 3.505 31.05 3.685 30.915 3.85C30.825 3.94 30.72 3.97 30.6 3.97H27.15C26.895 3.97 26.76 4.12 26.805 4.375C26.955 5.215 27.15 5.95 27.39 6.625C27.495 6.94 27.765 6.955 27.915 6.655C28.245 6.055 28.575 5.455 28.845 4.9C28.95 4.66 29.13 4.615 29.34 4.75L30.525 5.47C30.765 5.62 30.855 5.86 30.645 5.95C30.615 5.965 30.585 5.98 30.555 5.98C30.345 5.995 30.21 5.995 30.06 6.13C29.49 6.58 28.785 7.12 28.155 7.57C27.96 7.705 27.915 7.87 28.035 8.08C28.8 9.475 29.835 10.375 30.975 11.08C31.17 11.2 31.26 11.305 31.215 11.41C31.17 11.515 31.05 11.59 30.87 11.65C30.42 11.815 30.09 12.145 29.865 12.535C29.745 12.775 29.58 12.835 29.4 12.64C27.885 11.035 27.075 8.995 26.685 5.17V12.49C26.685 13.51 26.46 14.125 24.885 14.32C24.63 14.365 24.495 14.23 24.465 13.99C24.435 13.735 24.36 13.555 24.165 13.375C24 13.21 23.745 13.075 23.22 12.97C22.98 12.925 22.86 12.82 22.86 12.685C22.86 12.55 22.995 12.49 23.25 12.505C23.88 12.55 24.51 12.595 24.69 12.595C24.975 12.595 25.02 12.55 25.02 12.415V10.12C25.02 9.79 24.795 9.685 24.555 9.94C23.91 10.6 23.16 11.365 22.26 12.16C22.125 12.295 22.065 12.355 22.065 12.37C22.05 12.385 22.05 12.4 22.05 12.415C21.96 12.67 21.705 12.655 21.54 12.445L20.715 11.41ZM22.11 5.2C22.005 4.975 21.99 4.84 22.05 4.81C22.125 4.765 22.245 4.78 22.44 4.87C25.65 6.385 24.315 8.68 23.04 8.02C22.875 7.93 22.815 7.795 22.815 7.6C22.755 6.805 22.455 5.905 22.11 5.2ZM45.88 4.78C46.105 4.93 46.15 5.17 45.94 5.29C45.925 5.305 45.895 5.305 45.88 5.32C45.67 5.41 45.55 5.5 45.535 5.725C45.52 6.55 45.49 7.285 45.475 7.945L45.43 9.34C45.37 11.05 45.34 12.04 45.355 12.475C45.355 12.655 45.355 12.655 45.52 12.655H45.835C46 12.655 46.045 12.625 46.075 12.535C46.21 12.19 46.345 11.575 46.465 10.96C46.525 10.735 46.585 10.615 46.63 10.615C46.675 10.63 46.705 10.735 46.705 10.975L46.675 12.175C46.675 12.4 46.78 12.505 46.975 12.61C47.17 12.73 47.23 12.85 47.23 13.09C47.23 13.69 46.81 14.035 45.85 14.035H45.31C44.305 14.035 43.915 13.63 43.915 12.565C43.915 12.235 43.93 11.8 43.945 11.215C43.945 10.855 43.96 10.435 43.975 9.94C44.02 8.89 44.065 7.48 44.11 5.635C44.125 5.38 43.99 5.245 43.75 5.245H42.43C42.205 5.245 42.055 5.365 42.04 5.605C41.905 7.69 41.74 10.015 41.605 11.53C41.575 11.815 41.755 11.935 42.025 11.845C42.415 11.695 42.805 11.53 43.21 11.365C43.435 11.275 43.585 11.275 43.63 11.395C43.675 11.5 43.615 11.62 43.45 11.77C42.85 12.28 41.935 13.06 40.87 13.825C40.735 13.93 40.69 13.975 40.69 13.975C40.66 14.05 40.33 14.185 40.18 13.945L39.595 13.06C39.475 12.865 39.535 12.73 39.7 12.565C39.91 12.355 40.105 12.025 40.165 11.62C40.315 10.69 40.63 5.2 40.765 2.575C40.78 2.335 40.63 2.2 40.39 2.2H40.105C39.895 2.2 39.745 2.11 39.685 1.885C39.625 1.69 39.76 1.555 40.03 1.555H44.245C44.44 1.555 44.59 1.495 44.71 1.345L45.16 0.805C45.31 0.624999 45.505 0.595 45.685 0.73C46.045 1 46.465 1.3 46.81 1.6C46.96 1.735 47.065 1.915 46.93 2.08C46.84 2.17 46.735 2.2 46.615 2.2H42.625C42.4 2.2 42.25 2.335 42.235 2.56L42.13 4.21C42.115 4.45 42.25 4.6 42.49 4.6H43.735C43.93 4.6 44.065 4.525 44.185 4.39L44.38 4.18C44.53 4 44.695 3.97 44.89 4.105L45.88 4.78ZM32.92 14.26C32.845 14.17 32.875 14.05 33.01 13.87C34.195 12.295 34.45 10.495 34.51 8.665C34.525 8.425 34.39 8.29 34.15 8.29H33.355C33.145 8.29 32.995 8.2 32.935 7.975C32.875 7.78 33.01 7.645 33.28 7.645H34.15C34.39 7.645 34.525 7.51 34.525 7.27V4.615C34.525 4.375 34.39 4.24 34.15 4.24H33.61C33.4 4.24 33.25 4.15 33.19 3.925C33.13 3.73 33.265 3.595 33.535 3.595H36.475C36.685 3.595 36.82 3.505 36.895 3.295C37.15 2.515 37.39 1.54 37.6 0.595C37.645 0.339999 37.81 0.25 38.05 0.325L39.475 0.774999C39.715 0.849999 39.865 1.06 39.685 1.24C39.64 1.285 39.58 1.33 39.505 1.345C39.31 1.405 39.175 1.45 39.055 1.615C38.665 2.155 38.245 2.695 37.84 3.145C37.615 3.385 37.555 3.595 37.735 3.595H37.795C37.99 3.595 38.14 3.52 38.26 3.37L38.59 2.965C38.74 2.785 38.92 2.755 39.115 2.905C39.4 3.13 39.715 3.385 39.985 3.625C40.15 3.775 40.24 3.94 40.105 4.12C40.03 4.21 39.925 4.24 39.805 4.24H38.89C38.65 4.24 38.515 4.375 38.515 4.615V6.79C38.515 7.135 38.71 7.285 38.89 7.06C39.04 6.88 39.22 6.85 39.415 7C39.67 7.21 39.97 7.45 40.21 7.675C40.375 7.825 40.465 7.99 40.33 8.17C40.255 8.26 40.15 8.29 40.03 8.29H38.89C38.65 8.29 38.515 8.425 38.515 8.665V13.915C38.515 14.14 38.095 14.395 37.345 14.395C37.195 14.395 37.105 14.26 37.105 14.02V8.665C37.105 8.425 36.97 8.29 36.73 8.29H36.28C36.04 8.29 35.92 8.41 35.905 8.65C35.8 10.57 35.32 12.67 33.325 14.17C33.13 14.32 32.995 14.335 32.92 14.26ZM33.79 0.774999C33.67 0.564999 33.64 0.429999 33.715 0.385C33.79 0.325 33.91 0.339999 34.105 0.414999C37.3 1.72 36.115 3.985 34.855 3.415C34.675 3.325 34.615 3.19 34.6 2.995C34.51 2.245 34.165 1.42 33.79 0.774999ZM35.935 7.27C35.935 7.51 36.07 7.645 36.31 7.645H36.73C36.97 7.645 37.105 7.51 37.105 7.27V4.615C37.105 4.375 36.97 4.24 36.73 4.24H36.31C36.07 4.24 35.935 4.375 35.935 4.615V7.27ZM42.13 6.94C42.04 6.7 42.04 6.565 42.115 6.535C42.205 6.505 42.31 6.55 42.475 6.685C44.59 8.35 43.675 10.06 42.805 9.61C42.64 9.52 42.595 9.37 42.595 9.19C42.565 8.47 42.355 7.615 42.13 6.94Z" fill="#7A6855"/>
</svg>
