<svg width="63" height="16" viewBox="0 0 63 16" fill="none" xmlns="http://www.w3.org/2000/svg">
<path d="M6.6 11.44H7.816V8.192H5.4C5.176 8.192 5.032 8.096 4.968 7.872C4.904 7.696 5.064 7.568 5.352 7.568H7.816V5.92H6.952C6.552 6.384 6.136 6.8 5.736 7.12C5.544 7.264 5.4 7.28 5.32 7.216C5.24 7.152 5.272 7.008 5.4 6.8C5.832 6.08 6.216 5.152 6.504 4.192C6.584 3.936 6.76 3.84 7 3.92L7.96 4.24C8.216 4.32 8.376 4.576 8.152 4.736C8.056 4.8 7.912 4.816 7.736 4.8L7.416 5.296H9.688L10.104 4.768C10.264 4.576 10.472 4.544 10.664 4.704C10.904 4.896 11.16 5.12 11.4 5.328C11.56 5.472 11.688 5.664 11.512 5.824C11.448 5.904 11.352 5.92 11.224 5.92H9.032V7.568H10.232L10.664 7.008C10.824 6.8 11.016 6.768 11.224 6.928C11.464 7.12 11.736 7.36 11.96 7.584C12.136 7.744 12.232 7.936 12.056 8.096C11.992 8.176 11.896 8.192 11.768 8.192H9.032V11.44H10.264V9.296C10.264 9.04 10.424 8.896 10.68 8.928L11.352 8.992C11.64 9.024 11.832 9.2 11.688 9.376C11.624 9.456 11.512 9.52 11.368 9.536V12.4C11.368 12.624 10.92 12.816 10.472 12.816C10.344 12.816 10.264 12.672 10.264 12.432V12.064H6.68L6.552 12.208C6.392 12.4 6.2 12.416 5.992 12.304L5.512 12.048C5.256 11.92 5.16 11.728 5.288 11.6C5.368 11.536 5.448 11.472 5.528 11.424V9.312C5.528 9.056 5.688 8.912 5.944 8.944L6.6 9.008C6.872 9.04 7.08 9.216 6.936 9.408C6.856 9.504 6.76 9.552 6.6 9.584V11.44ZM0.312 15.376C0.248 15.376 0.184 15.232 0.184 14.976V1.376C0.184 1.088 0.376 0.943999 0.648 1.056L1.752 1.472H3.128L3.624 1.024C3.816 0.848 4.024 0.863999 4.2 1.024L5.112 1.856C5.32 2.048 5.352 2.32 5.096 2.368C4.984 2.4 4.84 2.4 4.664 2.4C4.168 3.408 3.304 5.136 2.664 6.096C4.088 7.28 4.696 8.704 4.696 9.984C4.712 11.408 4.296 12.176 3.048 12.368C2.776 12.4 2.648 12.256 2.616 11.984C2.6 11.76 2.552 11.552 2.44 11.424C2.392 11.36 2.264 11.312 2.104 11.248C1.864 11.168 1.752 11.088 1.752 10.96C1.752 10.848 1.896 10.768 2.152 10.768H2.68C2.84 10.768 2.968 10.752 3.032 10.688C3.304 10.512 3.368 10.256 3.368 9.696C3.368 8.624 3.112 7.536 2.376 6.448C2.264 6.256 2.232 6.112 2.28 5.904C2.584 4.88 2.968 3.248 3.192 2.096H1.56V14.864C1.56 15.072 1.128 15.376 0.424 15.376H0.312ZM3.896 6.096C3.832 6.032 3.864 5.888 4.008 5.68C5 4.24 5.8 2.304 6.2 0.848C6.28 0.591999 6.456 0.495999 6.696 0.575999L7.96 0.976C8.216 1.056 8.408 1.344 8.168 1.472C8.088 1.52 7.96 1.52 7.752 1.52C7.56 1.888 7.336 2.288 7.112 2.656H12.328L12.84 2.144C13.016 1.968 13.208 1.952 13.4 2.112L14.28 2.832C14.488 2.992 14.552 3.264 14.296 3.376C14.184 3.424 14.056 3.456 13.88 3.472C13.816 10.16 13.688 13.664 12.92 14.592C12.488 15.104 11.96 15.36 11.32 15.44C11.064 15.456 10.936 15.312 10.904 15.056C10.888 14.816 10.808 14.64 10.616 14.48C10.44 14.32 9.976 14.16 9.448 14.048C9.208 14 9.08 13.904 9.08 13.76C9.08 13.632 9.224 13.568 9.496 13.584C10.136 13.648 10.872 13.712 11.176 13.712C11.496 13.712 11.64 13.648 11.768 13.52C12.344 12.896 12.44 9.296 12.488 3.296H6.696C6.024 4.256 5.208 5.232 4.296 5.968C4.104 6.128 3.976 6.176 3.896 6.096ZM23.864 2.288L24.44 1.76C24.616 1.584 24.808 1.584 25 1.744L25.928 2.512C26.152 2.704 26.216 2.96 25.96 3.024C25.864 3.056 25.736 3.072 25.56 3.072C24.936 3.696 24.088 4.528 23.288 5.104H26.776L27.256 4.624C27.432 4.448 27.624 4.432 27.816 4.576L28.84 5.296C29.064 5.456 29.128 5.696 28.904 5.84C28.776 5.904 28.616 5.968 28.44 6V10.24C28.408 10.464 27.704 10.72 27.176 10.72C27.016 10.72 26.92 10.576 26.92 10.32V9.648H19.096V12.912C19.096 13.456 19.592 13.6 20.664 13.6H26.616C27.64 13.6 28.12 13.536 28.376 13.168C28.632 12.816 28.936 11.936 29.176 11.184C29.256 10.96 29.336 10.848 29.384 10.848C29.432 10.848 29.464 10.976 29.464 11.248L29.48 13.248C30.152 13.424 30.408 13.504 30.408 13.872C30.408 14.592 29.704 14.992 26.744 14.992H20.744C18.632 14.992 17.592 14.528 17.592 12.88V5.952C17.032 6.448 16.456 6.88 15.896 7.248C15.688 7.376 15.528 7.376 15.464 7.296C15.4 7.216 15.464 7.088 15.656 6.912C17.32 5.36 18.92 2.864 19.752 0.704C19.832 0.464 20.008 0.367999 20.248 0.431999L21.624 0.768C21.912 0.832 22.104 1.12 21.864 1.216C21.768 1.264 21.64 1.264 21.432 1.248C21.224 1.616 21 1.968 20.776 2.288H23.864ZM18.696 4.896L19.304 5.104H22.696C23.128 4.48 23.544 3.568 23.816 2.896H20.36C19.848 3.6 19.288 4.288 18.696 4.896ZM19.096 9.024H22.216V5.744H19.096V9.024ZM23.688 9.024H26.92V5.744H23.688V9.024ZM46.168 3.36C46.376 3.552 46.424 3.824 46.184 3.872C46.088 3.904 45.976 3.92 45.8 3.92C45.32 4.432 44.552 5.072 43.928 5.504C43.736 5.632 43.624 5.664 43.56 5.616C43.496 5.584 43.496 5.44 43.576 5.2C43.752 4.72 43.944 4.144 44.072 3.664H34.024C34.088 4.752 33.656 5.504 33.16 5.808C32.664 6.144 31.928 6.096 31.688 5.52C31.496 4.992 31.864 4.544 32.296 4.336C32.84 4.032 33.4 3.344 33.48 2.56C33.512 2.304 33.528 2.16 33.592 2.16C33.656 2.16 33.736 2.256 33.816 2.48C33.864 2.672 33.912 2.864 33.944 3.04H39.224C39.16 3.024 39.112 3.008 39.048 2.992C38.856 2.912 38.776 2.752 38.744 2.544C38.632 1.984 38.296 1.376 37.864 0.927999C37.672 0.735999 37.608 0.608 37.672 0.544C37.752 0.464 37.88 0.464 38.104 0.495999C41.016 0.992 40.648 2.816 39.624 3.04H44.056L44.632 2.512C44.808 2.352 45.016 2.336 45.208 2.512L46.168 3.36ZM31.592 15.232C31.528 15.12 31.64 14.992 31.896 14.88C35.48 13.264 36.008 11.248 36.2 8.96H32.744C32.52 8.96 32.36 8.864 32.296 8.64C32.232 8.464 32.392 8.336 32.68 8.336H43.496L44.12 7.616C44.28 7.424 44.488 7.392 44.68 7.536C45.032 7.792 45.448 8.096 45.784 8.368C45.96 8.512 46.088 8.704 45.912 8.88C45.832 8.944 45.736 8.96 45.608 8.96H41.304V13.328C41.304 13.504 41.368 13.568 41.928 13.568H43.432C44.024 13.568 44.536 13.552 44.76 13.536C44.984 13.52 45.064 13.472 45.128 13.344C45.256 13.12 45.4 12.608 45.592 11.904L45.688 11.536C45.752 11.296 45.816 11.2 45.864 11.2C45.912 11.2 45.96 11.328 45.96 11.6L45.992 13.392C46.424 13.536 46.536 13.744 46.536 14.048C46.536 14.72 45.928 14.944 43.304 14.944H41.608C40.136 14.944 39.8 14.688 39.8 13.616V8.96H37.848C37.544 11.744 36.808 13.952 32.056 15.312C31.816 15.376 31.672 15.344 31.592 15.232ZM34.552 5.968C34.504 5.776 34.632 5.664 34.92 5.664H41.064L41.656 4.992C41.816 4.8 42.024 4.768 42.216 4.928C42.552 5.152 42.92 5.44 43.256 5.696C43.448 5.84 43.56 6.032 43.384 6.192C43.304 6.272 43.208 6.288 43.08 6.288H34.984C34.744 6.288 34.6 6.176 34.552 5.968ZM52.92 6.768L53.4 6.32C53.592 6.144 53.768 6.16 53.96 6.304L54.792 6.928C55.016 7.088 55.08 7.344 54.856 7.456C54.76 7.504 54.632 7.536 54.472 7.552C54.376 10.784 54.136 12.24 53.512 12.752C53.16 13.04 52.776 13.184 52.328 13.232C52.072 13.248 51.944 13.104 51.912 12.848C51.896 12.656 51.832 12.496 51.704 12.336C51.592 12.224 51.352 12.128 51.048 12.048C50.808 11.984 50.696 11.888 50.696 11.76C50.696 11.632 50.84 11.568 51.112 11.6C51.48 11.632 51.88 11.648 52.072 11.648C52.328 11.648 52.456 11.616 52.536 11.536C52.84 11.216 52.984 10.016 53.048 7.392H50.632C50.632 9.792 50.376 13.008 47.88 15.2C47.688 15.36 47.56 15.424 47.48 15.344C47.416 15.28 47.432 15.136 47.56 14.928C48.984 12.608 49.128 9.824 49.128 7.216V3.552C49.128 3.264 49.32 3.136 49.592 3.232L50.888 3.696H55.416C55.368 2.784 55.336 1.856 55.32 0.895999C55.32 0.624 55.48 0.48 55.736 0.511999L56.984 0.624C57.24 0.655999 57.448 0.848 57.288 1.072C57.192 1.184 57.048 1.264 56.84 1.296C56.824 2.112 56.84 2.896 56.888 3.696H59.816L60.456 2.928C60.616 2.736 60.824 2.704 61.016 2.848C61.384 3.12 61.816 3.44 62.152 3.728C62.328 3.872 62.456 4.064 62.28 4.224C62.2 4.304 62.088 4.32 61.96 4.32H56.904C57.064 6.224 57.352 8.032 57.976 9.584C58.616 8.384 59.08 7.2 59.384 6C59.448 5.744 59.64 5.632 59.88 5.712L61.192 6.096C61.464 6.176 61.64 6.448 61.384 6.592C61.288 6.64 61.144 6.656 60.936 6.656C60.424 8.144 59.672 9.632 58.664 10.96C59.144 11.776 59.8 12.496 60.664 13.056C60.92 13.264 61.08 13.264 61.224 12.992C61.416 12.64 61.736 12 61.976 11.424C62.056 11.2 62.152 11.088 62.2 11.104C62.248 11.12 62.264 11.264 62.232 11.504L61.944 13.648C62.472 14.32 62.568 14.752 62.344 14.976C61.72 15.568 60.6 15.04 59.832 14.448C58.984 13.824 58.248 13.04 57.656 12.112C56.456 13.344 54.968 14.4 53.144 15.136C52.92 15.232 52.776 15.216 52.712 15.12C52.648 15.024 52.744 14.896 52.984 14.768C54.696 13.76 56.056 12.48 57.064 11.04C56.136 9.184 55.688 6.864 55.464 4.32H50.632V6.768H52.92ZM58.04 1.328C57.816 1.168 57.72 1.056 57.784 0.959999C57.848 0.879999 57.976 0.832 58.216 0.848C61.32 1.104 60.952 3.136 59.848 3.008C59.656 2.992 59.56 2.88 59.48 2.752C59.208 2.256 58.616 1.712 58.04 1.328Z" fill="#FFFEF9"/>
</svg>
