<svg width="175" height="54" viewBox="0 0 175 54" fill="none" xmlns="http://www.w3.org/2000/svg">
<path d="M78.472 8.292C78.652 8.076 78.868 8.04 79.102 8.22C79.462 8.508 79.894 8.832 80.236 9.138C80.434 9.318 80.56 9.534 80.362 9.714C80.272 9.804 80.146 9.822 80.002 9.822H76.024V12.738H78.364L79.03 11.892C79.21 11.676 79.444 11.64 79.678 11.82C80.038 12.108 80.47 12.45 80.83 12.756C81.028 12.936 81.136 13.152 80.956 13.332C80.866 13.422 80.758 13.44 80.614 13.44H77.392V17.742C77.392 17.904 77.41 17.922 77.788 17.922H78.58C78.922 17.922 79.174 17.922 79.3 17.904C79.48 17.904 79.552 17.868 79.606 17.76C79.696 17.544 79.822 17.04 79.984 16.392L80.128 15.852C80.2 15.6 80.272 15.456 80.326 15.456C80.38 15.456 80.434 15.6 80.434 15.906L80.47 17.796C80.866 17.94 80.956 18.174 80.956 18.48C80.956 19.146 80.416 19.434 78.454 19.434H77.32C76.06 19.434 75.844 19.074 75.844 18.102V13.44H74.278C73.99 16.518 72.82 18.444 69.886 19.65C71.218 20.334 73.036 20.514 75.664 20.514C77.518 20.514 79.102 20.496 80.938 20.424C81.244 20.406 81.406 20.478 81.406 20.604C81.406 20.73 81.28 20.802 81.028 20.91C80.668 21.072 80.434 21.342 80.308 21.648C80.218 21.918 80.092 22.044 79.822 22.044H75.124C71.578 22.044 69.958 21.414 68.356 19.38C68.104 19.146 67.87 19.182 67.726 19.398L67.132 20.298C66.772 20.802 66.358 21.432 66.07 21.882C66.07 21.882 65.746 22.116 65.53 21.828L64.9 21.036C64.72 20.802 64.756 20.568 65.008 20.406C65.386 20.172 65.764 19.884 66.16 19.596C66.466 19.38 66.79 19.128 67.006 18.984V12.738H65.188C64.918 12.738 64.756 12.612 64.72 12.378C64.684 12.162 64.846 12.036 65.152 12.036H66.754L67.294 11.352C67.474 11.136 67.726 11.1 67.942 11.28L69.094 12.18C69.346 12.378 69.382 12.666 69.094 12.792C68.95 12.864 68.77 12.9 68.518 12.936V18.66L68.572 18.714C68.842 19.002 69.184 19.254 69.58 19.488C69.544 19.38 69.634 19.272 69.868 19.11C71.92 17.634 72.442 15.906 72.55 13.44H70.552C70.3 13.44 70.138 13.332 70.066 13.08C69.994 12.882 70.174 12.738 70.498 12.738H74.404V9.822H72.154C71.65 10.722 71.092 11.496 70.48 12.09C70.3 12.288 70.156 12.324 70.048 12.27C69.958 12.234 69.976 12.054 70.102 11.784C70.75 10.47 71.254 8.706 71.542 6.906C71.596 6.6 71.776 6.474 72.064 6.546L73.36 6.852C73.648 6.924 73.864 7.176 73.63 7.392C73.522 7.482 73.36 7.536 73.144 7.536C72.946 8.112 72.73 8.634 72.496 9.12H74.404V6.384C74.404 6.096 74.584 5.916 74.872 5.952L76.204 6.078C76.51 6.114 76.762 6.366 76.528 6.6C76.42 6.69 76.258 6.762 76.024 6.798V9.12H77.806L78.472 8.292ZM65.62 6.636C65.44 6.384 65.404 6.222 65.476 6.168C65.566 6.114 65.71 6.132 65.944 6.24C70.084 8.058 69.112 10.866 67.636 10.29C67.42 10.218 67.33 10.074 67.276 9.876C67.006 8.85 66.304 7.59 65.62 6.636ZM96.976 6.51C97.156 6.294 97.372 6.276 97.588 6.438C98.074 6.78 98.614 7.194 99.082 7.554C99.28 7.716 99.424 7.95 99.226 8.13C99.118 8.202 98.992 8.22 98.848 8.22H90.604C89.974 9.984 89.074 11.694 87.94 13.242L88.606 13.476H95.662L96.238 12.882C96.418 12.684 96.652 12.666 96.868 12.828L98.074 13.692C98.344 13.89 98.38 14.16 98.092 14.322C97.948 14.394 97.768 14.466 97.57 14.502V21.576C97.57 21.774 97.552 21.954 97.39 22.08C97.084 22.26 96.508 22.404 96.112 22.404C95.95 22.404 95.842 22.242 95.842 21.954V20.82H88.372V21.99C88.372 22.224 87.868 22.566 86.968 22.566C86.788 22.566 86.68 22.404 86.68 22.116V14.808C85.564 16.05 84.322 17.148 82.972 18.048C82.738 18.21 82.576 18.228 82.504 18.138C82.432 18.066 82.504 17.922 82.72 17.706C85.438 15.132 87.58 11.514 88.39 8.22H83.386C83.134 8.22 82.972 8.112 82.9 7.86C82.828 7.662 83.008 7.518 83.332 7.518H96.13L96.976 6.51ZM88.372 20.118H95.842V14.178H88.372V20.118Z" fill="#7A6855"/>
<path d="M13.748 43.28C13.868 43.136 14.012 43.124 14.156 43.232C14.444 43.436 14.768 43.676 15.044 43.916C15.164 44.024 15.248 44.168 15.14 44.3C15.068 44.372 14.972 44.396 14.876 44.396H8.012C7.844 44.396 7.724 44.324 7.676 44.144C7.628 43.988 7.736 43.88 7.952 43.88H10.364C10.556 43.88 10.664 43.772 10.664 43.58V41.132C10.664 40.94 10.556 40.832 10.364 40.832H8.864C8.696 40.832 8.576 40.76 8.528 40.58C8.48 40.424 8.588 40.316 8.804 40.316H12.284C12.44 40.316 12.56 40.268 12.656 40.148L12.992 39.74C13.112 39.584 13.268 39.572 13.412 39.68C13.676 39.884 14 40.124 14.264 40.352C14.396 40.46 14.48 40.604 14.36 40.736C14.3 40.808 14.216 40.832 14.12 40.832H12.356C12.164 40.832 12.056 40.94 12.056 41.132V43.58C12.056 43.772 12.164 43.88 12.356 43.88H13.016C13.172 43.88 13.292 43.832 13.388 43.712L13.748 43.28ZM3.884 43.232C3.8 43.028 3.884 42.908 4.088 42.872C5 42.728 6.68 42.38 8.312 41.996C8.504 41.948 8.624 41.984 8.648 42.068C8.66 42.176 8.612 42.248 8.468 42.344C7.664 42.836 6.512 43.484 4.952 44.216C4.808 44.276 4.76 44.312 4.748 44.336C4.736 44.348 4.736 44.348 4.724 44.36C4.604 44.552 4.412 44.468 4.328 44.276L3.884 43.232ZM3.884 37.532C3.8 37.352 3.836 37.232 3.992 37.196C4.088 37.16 4.172 37.136 4.208 37.112C4.856 36.56 5.696 35.108 6.032 34.172C6.104 33.992 6.224 33.92 6.416 34.004L7.64 34.508C7.832 34.592 7.94 34.76 7.772 34.892C7.748 34.916 7.724 34.928 7.688 34.94C7.532 34.988 7.424 35 7.316 35.12C6.8 35.708 6.104 36.392 5.42 36.944C5.204 37.124 5.264 37.292 5.54 37.28C5.828 37.28 6.152 37.268 6.488 37.256C6.644 37.244 6.752 37.184 6.836 37.052C7.028 36.752 7.172 36.476 7.292 36.236C7.376 36.056 7.52 36.008 7.688 36.092L8.852 36.692C9.032 36.788 9.128 36.992 8.948 37.076C8.924 37.088 8.888 37.1 8.864 37.1C8.696 37.136 8.576 37.148 8.48 37.28C7.784 38.108 6.704 39.104 5.66 39.908C5.432 40.088 5.504 40.256 5.78 40.232C6.452 40.172 7.232 40.1 8 40.016C8.204 39.992 8.324 40.028 8.324 40.136C8.324 40.244 8.252 40.328 8.096 40.388C7.4 40.688 6.296 41.12 4.988 41.552C4.844 41.6 4.772 41.636 4.736 41.684C4.604 41.84 4.424 41.78 4.34 41.576L3.908 40.592C3.824 40.4 3.872 40.292 4.04 40.244C4.064 40.232 4.088 40.232 4.112 40.22C4.244 40.184 4.316 40.136 4.424 40.052C4.808 39.74 5.228 39.284 5.636 38.78C5.816 38.54 5.84 38.288 5.684 38.336C5.564 38.372 5.432 38.408 5.3 38.456C5.108 38.528 4.892 38.588 4.712 38.648C4.712 38.648 4.412 38.72 4.328 38.528L3.884 37.532ZM7.652 39.86C7.604 39.788 7.664 39.692 7.82 39.584C9.38 38.588 10.868 37.172 11.744 35.78C11.876 35.576 11.78 35.42 11.54 35.42H8.708C8.54 35.42 8.42 35.348 8.372 35.168C8.324 35 8.432 34.904 8.648 34.904H11.864C12.008 34.904 12.128 34.868 12.236 34.772L12.716 34.376C12.848 34.268 12.992 34.256 13.136 34.376L14.084 35.132C14.228 35.252 14.3 35.432 14.144 35.54C14.096 35.564 14.048 35.576 13.976 35.588C13.82 35.6 13.712 35.66 13.616 35.78C13.268 36.272 12.872 36.728 12.44 37.148C12.26 37.316 12.32 37.472 12.584 37.52C15.608 38.036 15.596 39.896 14.468 39.896C14.324 39.908 14.228 39.848 14.12 39.74C13.556 39.2 12.632 38.528 11.78 38.024C11.636 37.94 11.504 37.952 11.36 38.06C10.352 38.804 9.212 39.44 7.988 39.896C7.808 39.968 7.7 39.944 7.652 39.86ZM21.852 34.94C22.056 35.012 22.164 35.18 22.008 35.324C21.972 35.36 21.924 35.384 21.876 35.396C21.72 35.456 21.612 35.492 21.528 35.636C21.132 36.272 20.7 36.932 20.304 37.448C20.196 37.592 20.112 37.64 20.04 37.604C19.98 37.58 19.968 37.472 20.016 37.292C20.16 36.692 20.34 35.888 20.496 35.132L20.568 34.844C20.604 34.652 20.724 34.556 20.928 34.628L21.852 34.94ZM16.716 43.268C16.656 43.208 16.668 43.112 16.752 42.944C17.364 41.816 17.796 40.376 18.084 39.008C18.12 38.804 18.012 38.684 17.808 38.684H17.244C17.076 38.684 16.956 38.612 16.908 38.432C16.86 38.276 16.968 38.168 17.184 38.168H18.228C18.42 38.168 18.528 38.06 18.528 37.868V34.088C18.528 33.896 18.648 33.788 18.84 33.812L19.92 33.908C20.124 33.932 20.28 34.076 20.172 34.256C20.148 34.304 20.112 34.34 20.052 34.364C19.896 34.448 19.8 34.532 19.8 34.7V37.868C19.8 38.06 19.86 38.168 19.932 38.168C20.016 38.168 20.1 38.108 20.196 37.988L20.46 37.664C20.58 37.52 20.724 37.484 20.88 37.604C21.06 37.76 21.276 37.928 21.456 38.096C21.624 38.24 21.78 38.216 21.876 38.012C22.32 37.004 22.668 35.816 22.848 34.556C22.884 34.352 23.016 34.268 23.208 34.316L24.312 34.58C24.504 34.628 24.636 34.784 24.504 34.94C24.468 34.988 24.432 35.012 24.372 35.036C24.216 35.108 24.108 35.156 24.048 35.324C23.628 36.56 23.064 37.616 22.38 38.456C22.224 38.66 22.296 38.816 22.548 38.816H25.38C25.524 38.816 25.644 38.78 25.752 38.672L26.016 38.42C26.148 38.288 26.28 38.276 26.436 38.396C26.556 38.48 26.472 38.228 26.34 37.964C25.836 36.98 25.512 35.72 25.32 34.136C25.308 33.968 25.32 33.872 25.368 33.848C25.416 33.824 25.5 33.848 25.644 33.908L26.028 34.088C26.208 34.172 26.268 34.328 26.148 34.496C26.1 34.544 26.052 34.604 26.004 34.652C25.884 34.784 25.848 34.904 25.908 35.072C26.376 36.248 27.216 37.352 28.152 38C28.284 38.096 28.344 38.168 28.344 38.276C28.332 38.384 28.26 38.432 28.104 38.504C27.864 38.624 27.648 38.816 27.492 39.02C27.42 39.128 27.396 39.188 27.396 39.212C27.384 39.236 27.384 39.26 27.384 39.248V39.236V39.296C27.372 39.296 27.36 39.308 27.348 39.308V39.26V39.308C27.348 39.32 27.336 39.332 27.336 39.332V39.344H27.324C27.264 39.368 27.216 39.392 27.156 39.416C26.988 39.476 26.892 39.572 26.88 39.764C26.808 42.872 26.628 44.168 26.112 44.624C25.788 44.912 25.452 45.044 25.056 45.08C24.864 45.104 24.768 44.984 24.744 44.792C24.732 44.6 24.696 44.456 24.576 44.324C24.48 44.228 24.288 44.144 24.024 44.072C23.844 44.024 23.748 43.94 23.748 43.832C23.748 43.724 23.856 43.676 24.06 43.688C24.36 43.7 24.708 43.724 24.864 43.724C25.056 43.724 25.176 43.7 25.224 43.652C25.512 43.34 25.62 42.152 25.692 39.656C25.704 39.44 25.596 39.332 25.404 39.332H24.648C24.468 39.332 24.348 39.428 24.336 39.62C24.156 41.48 23.604 43.508 21.156 44.996C21 45.092 20.88 45.104 20.82 45.02C20.748 44.924 20.796 44.828 20.94 44.684C22.68 43.052 22.968 41.276 23.04 39.632C23.052 39.44 22.932 39.332 22.74 39.332H22.416C22.248 39.332 22.128 39.26 22.08 39.104C22.044 38.972 21.936 38.96 21.828 39.068C21.756 39.128 21.696 39.176 21.624 39.236C21.492 39.368 21.396 39.392 21.324 39.332C21.252 39.284 21.276 39.176 21.372 39.008C21.372 39.008 21.54 38.672 21.504 38.684C21.48 38.684 21.456 38.684 21.432 38.684H20.1C19.908 38.684 19.8 38.756 19.8 38.876C19.8 39.008 19.872 39.104 20.04 39.188C22.32 40.352 21.48 42.044 20.568 41.624C20.436 41.552 20.388 41.444 20.364 41.288C20.34 41.012 20.268 40.724 20.172 40.436C20.076 40.16 19.8 40.22 19.8 40.508V44.672C19.8 44.924 19.236 45.104 18.792 45.104C18.624 45.104 18.528 44.996 18.528 44.804V41.78C18.528 41.492 18.336 41.432 18.18 41.684C17.82 42.224 17.424 42.704 17.016 43.148C16.884 43.28 16.776 43.328 16.716 43.268ZM16.944 35.048C16.884 34.856 16.884 34.748 16.944 34.724C17.016 34.7 17.1 34.736 17.232 34.856C19.056 36.404 18.216 38 17.436 37.532C17.304 37.46 17.28 37.34 17.28 37.184C17.28 36.512 17.136 35.696 16.944 35.048ZM36.436 33.752C36.496 33.716 36.592 33.704 36.748 33.74C38.332 34.112 38.464 34.94 38.092 35.372C37.96 35.528 37.972 35.576 38.176 35.576H38.644C38.8 35.576 38.92 35.528 39.016 35.408L39.376 34.976C39.496 34.832 39.652 34.82 39.796 34.928C40.072 35.144 40.408 35.384 40.684 35.612C40.816 35.72 40.9 35.864 40.78 35.996C40.72 36.068 40.624 36.092 40.528 36.092H39.736C39.448 36.092 39.412 36.332 39.676 36.428L39.94 36.524C40.12 36.584 40.252 36.764 40.108 36.908C40.072 36.932 40.036 36.956 40 36.968C39.832 37.016 39.712 37.052 39.64 37.208C39.592 37.304 39.544 37.4 39.496 37.496C39.4 37.688 39.46 37.82 39.664 37.904C41.572 38.66 40.828 40.148 39.964 39.824C39.82 39.764 39.772 39.644 39.748 39.488C39.688 39.152 39.532 38.792 39.328 38.456C39.208 38.264 39.028 38.264 38.896 38.456C38.608 38.84 38.296 39.224 37.948 39.548C37.756 39.728 37.804 39.896 38.068 39.92L38.284 39.932C38.488 39.944 38.644 40.088 38.524 40.268C38.5 40.304 38.464 40.34 38.416 40.364C38.26 40.448 38.164 40.532 38.164 40.7V40.856C38.164 41.048 38.272 41.156 38.464 41.156H38.836C38.992 41.156 39.112 41.108 39.208 40.988L39.604 40.52C39.724 40.376 39.88 40.364 40.024 40.472C40.324 40.688 40.672 40.952 40.96 41.192C41.092 41.288 41.176 41.42 41.08 41.564C41.02 41.648 40.924 41.672 40.816 41.672H38.464C38.272 41.672 38.164 41.78 38.164 41.972V44.708C38.164 44.948 37.564 45.104 37.072 45.104C36.916 45.104 36.832 44.996 36.832 44.804V41.972C36.832 41.78 36.724 41.672 36.532 41.672H34.648C34.48 41.672 34.36 41.6 34.312 41.42C34.264 41.264 34.372 41.156 34.588 41.156H36.532C36.724 41.156 36.832 41.048 36.832 40.856V40.124C36.832 39.932 36.928 39.824 37.096 39.836C37.264 39.848 37.312 39.812 37.36 39.704C37.372 39.668 37.396 39.608 37.432 39.56C38.008 38.624 38.356 37.388 38.524 36.416C38.56 36.212 38.452 36.092 38.248 36.092H36.796C36.52 36.092 36.472 36.344 36.736 36.428L36.952 36.5C37.156 36.572 37.276 36.752 37.12 36.884C37.096 36.908 37.06 36.92 37.024 36.932C36.856 36.98 36.748 37.028 36.676 37.184C36.616 37.316 36.568 37.436 36.508 37.568C36.424 37.748 36.496 37.88 36.688 37.964C38.104 38.6 37.372 39.764 36.628 39.488C36.484 39.428 36.448 39.308 36.424 39.152C36.4 39.032 36.376 38.912 36.328 38.78C36.244 38.54 36.028 38.54 35.896 38.768C35.572 39.308 35.188 39.824 34.756 40.232C34.612 40.376 34.504 40.4 34.456 40.34C34.408 40.292 34.42 40.184 34.504 40.028C35.08 38.96 35.428 37.496 35.572 36.404C35.596 36.2 35.488 36.092 35.284 36.092H34.744C34.576 36.092 34.456 36.02 34.408 35.84C34.36 35.684 34.468 35.576 34.684 35.576H36.736C36.964 35.576 37.084 35.516 37.024 35.42C36.988 35.36 36.952 35.288 36.952 35.228C36.916 34.832 36.748 34.4 36.532 34.052C36.424 33.884 36.376 33.788 36.436 33.752ZM29.824 41.432C29.764 41.396 29.764 41.288 29.836 41.12C30.556 39.596 31.048 37.652 31.324 35.828C31.36 35.624 31.252 35.504 31.048 35.504H30.256C30.088 35.504 29.968 35.432 29.92 35.252C29.872 35.096 29.98 34.988 30.196 34.988H32.908C33.064 34.988 33.184 34.94 33.28 34.82L33.628 34.412C33.748 34.268 33.904 34.256 34.048 34.364C34.312 34.568 34.636 34.796 34.9 35.024C35.032 35.132 35.116 35.276 34.996 35.408C34.936 35.48 34.852 35.504 34.756 35.504H33.004C32.824 35.504 32.716 35.588 32.68 35.78C32.524 36.56 32.296 37.292 32.032 37.988C31.96 38.168 31.948 38.276 32.008 38.3C32.068 38.324 32.164 38.336 32.296 38.336H32.644C32.788 38.336 32.908 38.288 33.016 38.18L33.232 37.964C33.364 37.832 33.508 37.832 33.652 37.94L34.42 38.492C34.576 38.612 34.636 38.792 34.468 38.9C34.444 38.912 34.42 38.924 34.396 38.936C34.24 39.02 34.156 39.116 34.156 39.284V43.544C34.132 43.76 33.544 43.916 33.172 43.916C33.04 43.916 32.968 43.808 32.968 43.616V43.304C32.968 43.112 32.86 43.004 32.668 43.004H32.248C32.056 43.004 31.948 43.112 31.948 43.304V44.072C31.948 44.264 31.576 44.48 31 44.48C30.868 44.48 30.796 44.372 30.796 44.18V40.976C30.796 40.7 30.628 40.616 30.46 40.832C30.34 40.988 30.22 41.132 30.1 41.276C29.98 41.432 29.884 41.48 29.824 41.432ZM31.948 42.188C31.948 42.38 32.056 42.488 32.248 42.488H32.668C32.86 42.488 32.968 42.38 32.968 42.188V39.152C32.968 38.96 32.86 38.852 32.668 38.852H32.248C32.056 38.852 31.948 38.96 31.948 39.152V42.188ZM45.416 45.032C45.092 45.032 44.876 44.876 44.66 44.456C44.348 43.796 44.036 43.052 43.076 42.272C42.932 42.152 42.884 42.044 42.932 41.948C42.992 41.852 43.1 41.816 43.28 41.864C44.696 42.2 45.464 42.74 45.92 43.388C46.124 43.676 46.172 43.976 46.172 44.24C46.172 44.732 45.848 45.032 45.416 45.032ZM60.492 41.972C60.492 42.164 60.6 42.272 60.792 42.272H61.08C61.272 42.272 61.38 42.164 61.38 41.972V40.244C61.38 40.052 61.272 39.944 61.08 39.944H59.136C58.968 39.944 58.848 39.872 58.8 39.692C58.752 39.536 58.86 39.428 59.076 39.428H59.16C59.352 39.428 59.376 39.38 59.4 39.26C59.412 39.212 59.436 39.152 59.472 39.08C59.688 38.708 59.892 38.264 60.072 37.784C60.168 37.508 59.988 37.34 59.796 37.532C59.592 37.76 59.376 37.964 59.16 38.144C59.016 38.276 58.908 38.3 58.86 38.24C58.812 38.192 58.824 38.084 58.92 37.928C59.628 36.788 60.18 35.216 60.444 34.064C60.48 33.872 60.612 33.788 60.804 33.848L61.92 34.184C62.112 34.244 62.244 34.424 62.088 34.556C62.064 34.58 62.028 34.604 61.98 34.616C61.824 34.664 61.716 34.712 61.632 34.856C61.548 35.036 61.44 35.216 61.344 35.396C61.224 35.6 61.32 35.756 61.548 35.756H65.028C65.172 35.756 65.292 35.72 65.4 35.612L65.736 35.288C65.868 35.156 66.012 35.156 66.156 35.276L66.96 35.924C67.116 36.044 67.152 36.236 66.972 36.344C66.948 36.356 66.924 36.368 66.888 36.38C66.72 36.452 66.624 36.536 66.624 36.728C66.564 41.24 66.432 43.748 65.832 44.432C65.46 44.852 65.028 45.044 64.428 45.092C64.236 45.104 64.14 44.996 64.116 44.804C64.092 44.588 64.032 44.42 63.84 44.264C63.672 44.108 63.264 43.976 62.772 43.868C62.592 43.832 62.496 43.748 62.496 43.64C62.496 43.532 62.604 43.484 62.808 43.496C63.396 43.544 64.08 43.592 64.344 43.592C64.584 43.592 64.716 43.556 64.812 43.448C65.232 43.028 65.316 40.532 65.376 36.572C65.376 36.368 65.268 36.26 65.076 36.26H61.044C60.888 36.26 60.804 36.284 60.78 36.308C60.756 36.344 60.888 36.404 61.092 36.464L61.764 36.68C61.956 36.74 62.076 36.92 61.92 37.052C61.884 37.088 61.836 37.112 61.788 37.124C61.632 37.172 61.512 37.208 61.428 37.352C61.416 37.376 61.404 37.388 61.392 37.412C61.26 37.616 61.344 37.772 61.584 37.772H62.772C62.928 37.772 63.048 37.724 63.144 37.592L63.432 37.22C63.552 37.064 63.708 37.04 63.852 37.172C64.092 37.376 64.356 37.604 64.584 37.808C64.704 37.916 64.788 38.048 64.692 38.18C64.632 38.264 64.536 38.288 64.428 38.288H62.832C62.64 38.288 62.532 38.396 62.532 38.588V39.128C62.532 39.32 62.64 39.428 62.832 39.428H63.216C63.372 39.428 63.492 39.38 63.588 39.248L63.888 38.864C64.008 38.708 64.152 38.684 64.308 38.816C64.548 39.008 64.824 39.236 65.064 39.452C65.196 39.572 65.268 39.704 65.148 39.848C65.088 39.92 65.004 39.944 64.908 39.944H62.832C62.64 39.944 62.532 40.052 62.532 40.244V41.972C62.532 42.164 62.64 42.272 62.832 42.272H63.108C63.3 42.272 63.408 42.164 63.408 41.972V40.628C63.408 40.436 63.528 40.316 63.72 40.34L64.512 40.412C64.704 40.436 64.872 40.568 64.752 40.748C64.74 40.76 64.728 40.784 64.716 40.796C64.584 40.916 64.488 40.964 64.488 41.132V43.016C64.488 43.232 64.02 43.376 63.612 43.376C63.48 43.376 63.408 43.268 63.408 43.076C63.408 42.896 63.3 42.788 63.108 42.788H60.78C60.624 42.788 60.504 42.848 60.408 42.968C60.3 43.112 60.156 43.148 60 43.064L59.352 42.74C59.16 42.644 59.1 42.5 59.208 42.38C59.22 42.368 59.22 42.368 59.232 42.356C59.352 42.248 59.412 42.14 59.412 41.984V40.58C59.412 40.388 59.532 40.268 59.724 40.292L60.516 40.364C60.708 40.388 60.864 40.532 60.756 40.7C60.744 40.724 60.732 40.736 60.708 40.748C60.588 40.868 60.492 40.928 60.492 41.096V41.972ZM55.956 36.92C55.812 36.776 55.764 36.68 55.824 36.62C55.884 36.56 55.992 36.548 56.16 36.572C58.716 37.04 57.9 38.84 56.904 38.492C56.748 38.444 56.7 38.336 56.676 38.204C56.58 37.772 56.292 37.28 55.956 36.92ZM56.22 41.84C56.028 41.804 55.932 41.732 55.932 41.588C55.932 41.456 56.04 41.372 56.232 41.372H56.472C56.628 41.372 56.712 41.372 56.808 41.168C57.048 40.724 57.048 40.712 59.136 35.624C59.22 35.432 59.292 35.336 59.364 35.36C59.424 35.384 59.448 35.492 59.388 35.684C58.884 37.364 58.056 40.208 57.9 40.82C57.792 41.24 57.72 41.636 57.72 41.936C57.732 42.14 57.792 42.356 57.9 42.62C58.02 42.992 58.176 43.436 58.152 44.096C58.128 44.708 57.756 45.092 57.252 45.092C57.048 45.092 56.82 44.936 56.712 44.576C56.676 44.432 56.688 44.336 56.712 44.192C56.892 43.004 56.832 42.152 56.556 41.96C56.472 41.9 56.352 41.864 56.22 41.84ZM56.772 34.244C56.652 34.088 56.604 33.98 56.664 33.932C56.724 33.884 56.832 33.872 56.988 33.896C59.7 34.424 58.908 36.296 57.864 35.948C57.708 35.9 57.648 35.792 57.612 35.672C57.48 35.192 57.132 34.652 56.772 34.244ZM60.024 39.068C59.82 39.26 59.88 39.428 60.156 39.428H61.08C61.272 39.428 61.38 39.32 61.38 39.128V38.588C61.38 38.396 61.272 38.288 61.08 38.288H60.996C60.84 38.288 60.72 38.348 60.6 38.48C60.408 38.696 60.216 38.888 60.024 39.068ZM69.724 34.052C69.784 33.98 69.88 33.956 70.048 33.98C72.844 34.268 72.232 36.236 71.14 35.972C70.996 35.936 70.924 35.84 70.864 35.696C70.672 35.24 70.276 34.712 69.868 34.352C69.724 34.208 69.664 34.112 69.724 34.052ZM68.92 36.836C68.776 36.692 68.728 36.596 68.788 36.536C68.848 36.476 68.944 36.464 69.112 36.488C71.788 36.92 70.948 38.792 69.916 38.432C69.76 38.384 69.712 38.276 69.688 38.144C69.592 37.7 69.292 37.22 68.92 36.836ZM69.292 41.888C69.1 41.852 69.004 41.78 69.004 41.648C69.004 41.516 69.112 41.444 69.304 41.444H69.556C69.736 41.444 69.82 41.432 69.916 41.24C70.168 40.796 70.168 40.784 72.28 36.032C72.364 35.84 72.46 35.756 72.532 35.78C72.592 35.804 72.604 35.912 72.544 36.104C72.052 37.664 71.236 40.304 71.08 40.88C70.984 41.312 70.9 41.696 70.912 41.984C70.924 42.2 70.996 42.404 71.104 42.668C71.224 43.016 71.392 43.436 71.368 44.072C71.344 44.696 70.948 45.092 70.384 45.092C70.168 45.092 69.928 44.936 69.796 44.588C69.748 44.444 69.76 44.348 69.784 44.204C69.964 43.064 69.928 42.2 69.628 42.02C69.544 41.96 69.436 41.912 69.292 41.888ZM71.38 44.936C71.344 44.84 71.392 44.756 71.548 44.648C73.276 43.376 73.696 41.84 73.78 39.8C73.792 39.596 73.684 39.488 73.492 39.488H72.268C72.1 39.488 71.98 39.416 71.932 39.236C71.884 39.08 71.992 38.972 72.208 38.972H75.004C75.196 38.972 75.304 38.864 75.304 38.672V37.088C75.304 36.896 75.196 36.788 75.004 36.788H74.152C73.984 36.788 73.876 36.86 73.804 37.004C73.468 37.628 73.072 38.168 72.652 38.588C72.52 38.72 72.436 38.756 72.364 38.708C72.292 38.672 72.304 38.564 72.376 38.384C72.82 37.304 73.144 35.864 73.252 34.412C73.276 34.208 73.396 34.112 73.588 34.148L74.8 34.364C74.992 34.4 75.136 34.544 75.016 34.712C74.98 34.76 74.944 34.796 74.884 34.82C74.728 34.904 74.62 34.952 74.572 35.12C74.488 35.408 74.392 35.684 74.284 35.936C74.2 36.152 74.308 36.284 74.524 36.284H75.004C75.196 36.284 75.304 36.176 75.304 35.984V34.124C75.304 33.932 75.424 33.824 75.616 33.836L76.78 33.92C76.972 33.932 77.128 34.064 77.032 34.244C77.008 34.304 76.96 34.352 76.9 34.388C76.744 34.472 76.648 34.556 76.648 34.724V35.984C76.648 36.176 76.756 36.284 76.948 36.284H77.584C77.74 36.284 77.86 36.224 77.956 36.104L78.34 35.636C78.46 35.48 78.616 35.468 78.76 35.588C79.048 35.804 79.396 36.068 79.672 36.308C79.792 36.416 79.876 36.56 79.768 36.692C79.696 36.764 79.6 36.788 79.504 36.788H76.948C76.756 36.788 76.648 36.896 76.648 37.088V38.672C76.648 38.864 76.756 38.972 76.948 38.972H77.836C77.992 38.972 78.112 38.924 78.208 38.804L78.616 38.312C78.736 38.168 78.892 38.144 79.036 38.264C79.336 38.504 79.672 38.768 79.948 39.008C80.08 39.104 80.164 39.236 80.068 39.38C80.008 39.464 79.9 39.488 79.804 39.488H77.776C77.584 39.488 77.476 39.596 77.476 39.788V43.412C77.476 43.544 77.488 43.556 77.776 43.556H78.424C78.676 43.556 78.88 43.556 79 43.544C79.132 43.532 79.18 43.508 79.216 43.436C79.3 43.28 79.384 43.004 79.492 42.608C79.516 42.524 79.54 42.428 79.564 42.368L79.672 41.912C79.72 41.744 79.768 41.66 79.804 41.66C79.84 41.66 79.876 41.768 79.876 41.96L79.912 43.22C79.912 43.376 79.996 43.472 80.116 43.58C80.248 43.7 80.296 43.856 80.296 44.036C80.296 44.576 79.864 44.804 78.292 44.804H77.416C76.384 44.804 76.18 44.528 76.18 43.712V39.788C76.18 39.596 76.072 39.488 75.88 39.488H75.544C75.364 39.488 75.244 39.584 75.232 39.776C75.004 42.188 74.164 43.904 71.716 44.948C71.536 45.032 71.416 45.02 71.38 44.936ZM84.344 41.648C84.416 41.576 84.512 41.576 84.68 41.612C87.644 42.248 86.852 44.348 85.724 43.964C85.568 43.916 85.52 43.796 85.484 43.64C85.352 43.064 84.944 42.416 84.476 41.948C84.332 41.804 84.284 41.708 84.344 41.648ZM81.896 37.376C81.836 37.304 81.872 37.208 81.992 37.064C82.628 36.308 83.216 35.24 83.564 34.076C83.624 33.884 83.756 33.812 83.936 33.872L85.04 34.244C85.22 34.304 85.34 34.472 85.196 34.616C85.16 34.652 85.112 34.676 85.064 34.688C84.908 34.736 84.788 34.748 84.692 34.904C84.692 34.904 84.704 35.192 84.944 35.192H85.64C85.796 35.192 85.916 35.144 86.012 35.024L86.288 34.688C86.408 34.544 86.564 34.52 86.708 34.64C86.936 34.82 87.2 35.036 87.428 35.24C87.536 35.336 87.584 35.396 87.584 35.408V35.432C87.776 35 87.932 34.532 88.064 34.052C88.112 33.86 88.256 33.788 88.436 33.848L89.588 34.232C89.78 34.292 89.9 34.46 89.744 34.604C89.708 34.64 89.66 34.664 89.612 34.688C89.456 34.736 89.336 34.76 89.24 34.904C89.24 34.904 89.24 35.192 89.48 35.192H90.956C91.112 35.192 91.232 35.144 91.328 35.024L91.664 34.628C91.784 34.484 91.94 34.472 92.084 34.58C92.36 34.772 92.672 35.012 92.936 35.228C93.056 35.336 93.14 35.468 93.032 35.612C92.984 35.684 92.888 35.708 92.78 35.708H90.812C90.56 35.708 90.548 35.816 90.716 36.008C91.364 36.74 90.692 37.568 89.984 37.28C89.828 37.22 89.78 37.1 89.756 36.944C89.708 36.596 89.564 36.236 89.372 35.912C89.3 35.768 89.168 35.708 89.012 35.708H88.844C88.688 35.708 88.58 35.756 88.472 35.876C88.328 36.02 88.184 36.164 88.04 36.296C87.848 36.476 87.896 36.644 88.148 36.668C88.352 36.692 88.508 36.824 88.4 36.992C88.388 37.016 88.376 37.028 88.352 37.052C88.232 37.172 88.124 37.22 88.124 37.388V37.4C88.124 37.592 88.232 37.7 88.424 37.7H90.128C90.284 37.7 90.404 37.652 90.5 37.532L90.848 37.136C90.968 36.992 91.124 36.968 91.268 37.088C91.532 37.28 91.856 37.508 92.12 37.736C92.24 37.844 92.324 37.988 92.216 38.12C92.144 38.192 92.048 38.216 91.952 38.216H88.424C88.232 38.216 88.124 38.324 88.124 38.516V39.044C88.124 39.236 88.232 39.344 88.424 39.344H90.992C91.148 39.344 91.268 39.296 91.364 39.176L91.688 38.78C91.808 38.636 91.964 38.624 92.108 38.732C92.372 38.924 92.66 39.152 92.9 39.356C93.032 39.464 93.116 39.596 93.02 39.74C92.96 39.824 92.864 39.848 92.756 39.848H90.032L90.44 39.884C90.644 39.896 90.8 40.04 90.68 40.22C90.656 40.256 90.632 40.28 90.596 40.304C90.452 40.4 90.356 40.472 90.356 40.64V40.748C90.356 40.94 90.464 41.048 90.656 41.048H90.776C90.932 41.048 91.052 41 91.148 40.88L91.484 40.472C91.604 40.328 91.76 40.316 91.904 40.424C92.168 40.628 92.48 40.856 92.744 41.084C92.864 41.192 92.948 41.336 92.84 41.468C92.768 41.54 92.672 41.564 92.576 41.564H90.656C90.464 41.564 90.356 41.672 90.356 41.864V43.556C90.356 44.396 90.164 44.912 88.796 45.08C88.604 45.116 88.484 45.02 88.448 44.828C88.4 44.612 88.34 44.444 88.148 44.288C87.98 44.132 87.716 44.024 87.2 43.928C87.008 43.892 86.912 43.82 86.912 43.712C86.912 43.604 87.032 43.556 87.224 43.568L87.416 43.58C88.016 43.616 88.58 43.652 88.748 43.652C88.964 43.652 89.012 43.604 89.012 43.496V41.864C89.012 41.672 88.904 41.564 88.712 41.564H82.64C82.472 41.564 82.352 41.492 82.304 41.312C82.256 41.156 82.364 41.048 82.58 41.048H88.712C88.904 41.048 89.012 40.94 89.012 40.748V40.148C89.012 39.956 88.904 39.848 88.712 39.848H82.316C82.148 39.848 82.028 39.764 81.98 39.596C81.932 39.452 82.04 39.344 82.256 39.344H86.504C86.696 39.344 86.804 39.236 86.804 39.044V38.516C86.804 38.324 86.696 38.216 86.504 38.216H83.444C83.276 38.216 83.156 38.144 83.108 37.964C83.06 37.796 83.168 37.7 83.384 37.7H86.504C86.696 37.7 86.804 37.592 86.804 37.4V37.196C86.804 37.064 86.78 36.992 86.768 36.944C86.756 36.92 86.756 36.896 86.768 36.884C86.792 36.848 86.792 36.788 86.816 36.68C86.828 36.608 86.852 36.56 86.888 36.56C86.936 36.572 87.02 36.512 87.104 36.368C87.152 36.284 87.2 36.188 87.26 36.104C87.38 35.864 87.44 35.684 87.38 35.696C87.356 35.708 87.308 35.708 87.272 35.708H85.772C85.52 35.708 85.496 35.816 85.676 36.02C86.36 36.764 85.628 37.592 84.968 37.28C84.824 37.208 84.788 37.076 84.776 36.92C84.752 36.596 84.656 36.236 84.512 35.924C84.44 35.768 84.368 35.708 84.272 35.708C84.176 35.708 84.092 35.756 83.984 35.876C83.444 36.512 82.832 37.004 82.22 37.352C82.064 37.436 81.956 37.436 81.896 37.376ZM103.68 34.88C103.8 34.736 103.956 34.724 104.1 34.832C104.448 35.084 104.88 35.396 105.216 35.66C105.348 35.756 105.444 35.888 105.336 36.032C105.276 36.116 105.18 36.14 105.06 36.14H101.52C101.328 36.14 101.22 36.248 101.22 36.44V43.304C101.22 43.496 101.328 43.604 101.52 43.604H103.536C103.692 43.604 103.812 43.556 103.908 43.436L104.412 42.848C104.532 42.704 104.688 42.692 104.832 42.8C105.192 43.064 105.624 43.376 105.96 43.64C106.092 43.748 106.176 43.892 106.068 44.024C105.996 44.096 105.912 44.12 105.804 44.12H95.268C95.1 44.12 94.98 44.048 94.932 43.868C94.884 43.712 94.992 43.604 95.208 43.604H99.432C99.624 43.604 99.732 43.496 99.732 43.304V36.44C99.732 36.248 99.624 36.14 99.432 36.14H96.06C95.892 36.14 95.772 36.068 95.724 35.888C95.676 35.732 95.784 35.624 96 35.624H102.816C102.972 35.624 103.092 35.576 103.188 35.456L103.68 34.88ZM112.624 33.824C112.684 33.764 112.78 33.752 112.948 33.776C114.7 34.04 115.144 34.904 114.964 35.456C114.904 35.66 114.928 35.756 115.144 35.756H116.884C117.04 35.756 117.16 35.696 117.256 35.576L117.64 35.108C117.76 34.952 117.916 34.94 118.06 35.06C118.348 35.288 118.696 35.552 118.984 35.792C119.104 35.9 119.188 36.032 119.08 36.176C119.008 36.248 118.924 36.272 118.828 36.272H110.512C110.32 36.272 110.212 36.38 110.212 36.572V38.804C110.212 40.7 110.092 43.232 108.088 44.948C107.956 45.068 107.86 45.092 107.8 45.056C107.74 45.008 107.752 44.9 107.836 44.744C108.784 42.956 108.844 40.808 108.844 38.804V35.6C108.844 35.384 108.976 35.276 109.18 35.348L110.248 35.696C110.38 35.732 110.488 35.756 110.62 35.756H113.344C113.56 35.756 113.68 35.624 113.596 35.42C113.404 34.964 113.092 34.496 112.744 34.124C112.612 33.98 112.564 33.884 112.624 33.824ZM110.512 40.04C110.464 39.872 110.572 39.788 110.788 39.788H113.752C114.004 39.788 114.112 39.608 113.932 39.416C113.536 39.008 112.984 38.6 112.492 38.324C112.312 38.228 112.24 38.12 112.288 38.048C112.336 37.964 112.432 37.928 112.6 37.94C113.452 37.976 114.028 38.132 114.448 38.372C114.604 38.468 114.736 38.456 114.868 38.336C115.048 38.18 115.216 38 115.36 37.844C115.552 37.652 115.468 37.472 115.204 37.472H111.412C111.244 37.472 111.124 37.4 111.076 37.22C111.028 37.052 111.136 36.956 111.352 36.956H115.744C115.888 36.956 116.02 36.92 116.128 36.824L116.512 36.5C116.656 36.38 116.8 36.38 116.932 36.5L117.796 37.256C117.952 37.4 117.988 37.604 117.796 37.664C117.76 37.676 117.724 37.688 117.688 37.688C117.544 37.712 117.436 37.724 117.316 37.808C116.752 38.132 115.996 38.492 115.288 38.792C115.12 38.876 115.096 38.996 115.144 39.188C115.168 39.296 115.156 39.392 115.132 39.488C115.084 39.692 115.096 39.788 115.312 39.788H116.932C117.076 39.788 117.184 39.752 117.304 39.644L117.628 39.356C117.772 39.224 117.916 39.224 118.06 39.356L118.876 40.076C119.032 40.22 119.068 40.424 118.876 40.484C118.84 40.496 118.804 40.496 118.768 40.508C118.612 40.532 118.504 40.568 118.396 40.664C117.94 41.096 117.316 41.6 116.788 41.936C116.644 42.032 116.56 42.056 116.5 42.008C116.44 41.96 116.464 41.864 116.536 41.696C116.692 41.384 116.848 41 116.992 40.652C117.088 40.448 116.98 40.304 116.764 40.304H115.288C115.096 40.304 114.988 40.412 114.988 40.604V43.604C114.988 44.396 114.772 44.936 113.464 45.104C113.26 45.128 113.152 45.02 113.128 44.828C113.092 44.624 113.032 44.48 112.864 44.336C112.72 44.204 112.492 44.084 112.012 44C111.82 43.964 111.724 43.892 111.724 43.784C111.724 43.688 111.844 43.64 112.036 43.652L112.288 43.664C112.768 43.688 113.2 43.712 113.344 43.712C113.584 43.712 113.608 43.676 113.608 43.58V40.604C113.608 40.412 113.5 40.304 113.308 40.304H110.848C110.68 40.304 110.56 40.232 110.512 40.052V40.04ZM125.036 33.98C125.228 33.992 125.384 34.124 125.288 34.304C125.264 34.352 125.216 34.4 125.168 34.424C125.012 34.52 124.916 34.604 124.916 34.772V35.564C124.916 35.756 125.024 35.864 125.216 35.864H125.576C125.732 35.864 125.852 35.804 125.948 35.684L126.272 35.288C126.392 35.132 126.536 35.12 126.692 35.24C126.956 35.432 127.256 35.672 127.508 35.888C127.64 36.008 127.712 36.14 127.604 36.284C127.532 36.356 127.436 36.38 127.34 36.38H125.216C125.024 36.38 124.916 36.488 124.916 36.68V37.484C124.916 37.676 125.024 37.784 125.216 37.784H125.816C125.972 37.784 126.092 37.736 126.188 37.616L126.524 37.208C126.644 37.064 126.8 37.052 126.944 37.16C127.208 37.364 127.52 37.592 127.784 37.82C127.916 37.928 128 38.072 127.88 38.204C127.82 38.276 127.736 38.3 127.64 38.3H125.216C125.024 38.3 124.916 38.408 124.916 38.6V39.236C124.916 39.428 125.024 39.536 125.216 39.536H125.672C125.816 39.536 125.936 39.5 126.044 39.38L126.26 39.152C126.38 39.02 126.536 39.02 126.68 39.116L127.544 39.704C127.712 39.824 127.76 39.992 127.592 40.112C127.568 40.136 127.532 40.148 127.496 40.172C127.34 40.256 127.256 40.34 127.256 40.508V42.764C127.256 43.484 127.112 43.952 126.188 44.108C125.984 44.156 125.864 44.036 125.852 43.832C125.852 43.628 125.816 43.484 125.744 43.352C125.708 43.28 125.636 43.196 125.48 43.136C125.312 43.064 125.216 42.992 125.216 42.884C125.216 42.776 125.324 42.728 125.528 42.74C125.648 42.752 125.768 42.764 125.828 42.764C125.984 42.764 125.996 42.752 125.996 42.656V40.352C125.996 40.16 125.888 40.052 125.696 40.052H125.216C125.024 40.052 124.916 40.16 124.916 40.352V44.6C124.916 44.864 124.328 45.092 123.884 45.092C123.728 45.092 123.644 44.984 123.644 44.792V40.352C123.644 40.16 123.536 40.052 123.344 40.052H122.876C122.684 40.052 122.576 40.16 122.576 40.352V43.784C122.576 44.024 122.012 44.216 121.532 44.216C121.424 44.216 121.352 44.108 121.352 43.916V39.44C121.352 39.224 121.496 39.116 121.7 39.188L122.468 39.476C122.588 39.524 122.708 39.536 122.84 39.536H123.344C123.536 39.536 123.644 39.428 123.644 39.236V38.6C123.644 38.408 123.536 38.3 123.344 38.3H121.184C121.004 38.3 120.896 38.216 120.86 38.036C120.824 37.88 120.932 37.784 121.136 37.784H123.344C123.536 37.784 123.644 37.676 123.644 37.484V36.68C123.644 36.488 123.536 36.38 123.344 36.38H122.552C122.396 36.38 122.288 36.428 122.192 36.56C121.916 36.932 121.64 37.268 121.364 37.532C121.244 37.664 121.136 37.676 121.076 37.64C121.004 37.604 121.004 37.496 121.076 37.316C121.388 36.548 121.664 35.492 121.844 34.472C121.88 34.268 122 34.184 122.192 34.232L123.272 34.508C123.464 34.556 123.596 34.724 123.464 34.88C123.428 34.916 123.38 34.94 123.332 34.964C123.176 35.024 123.056 35.072 122.984 35.216C122.936 35.324 122.888 35.42 122.84 35.516C122.744 35.72 122.828 35.864 123.056 35.864H123.344C123.536 35.864 123.644 35.756 123.644 35.564V34.16C123.644 33.968 123.764 33.848 123.956 33.872L125.036 33.98ZM128.324 42.524C128.252 42.524 128.204 42.416 128.204 42.224V35.036C128.204 34.844 128.324 34.736 128.516 34.76L129.476 34.856C129.668 34.88 129.824 35 129.716 35.18C129.692 35.216 129.668 35.252 129.62 35.276C129.476 35.384 129.38 35.444 129.38 35.612V42.104C129.38 42.356 128.84 42.524 128.432 42.524H128.324ZM128.984 43.964C128.792 43.928 128.696 43.844 128.696 43.736C128.696 43.628 128.816 43.58 129.008 43.592L129.164 43.604C129.596 43.628 129.992 43.652 130.124 43.652C130.34 43.652 130.376 43.616 130.376 43.508V34.292C130.376 34.1 130.496 33.98 130.688 34.004L131.744 34.1C131.948 34.124 132.104 34.268 131.984 34.448C131.948 34.496 131.912 34.532 131.876 34.556C131.72 34.652 131.624 34.736 131.624 34.904V43.592C131.624 44.384 131.456 44.888 130.28 45.068C130.076 45.092 129.968 44.996 129.944 44.792C129.92 44.576 129.86 44.432 129.704 44.276C129.584 44.144 129.38 44.048 128.984 43.964ZM137.64 38.504C137.784 38.504 137.892 38.468 138.012 38.36L138.3 38.108C138.432 37.988 138.576 37.976 138.72 38.096L139.488 38.684C139.644 38.804 139.704 38.996 139.524 39.092C139.512 39.104 139.5 39.104 139.488 39.116C139.32 39.188 139.224 39.272 139.212 39.452C139.14 41.72 138.96 42.692 138.48 43.076C138.18 43.292 137.88 43.412 137.496 43.448C137.304 43.46 137.208 43.352 137.184 43.148C137.172 42.956 137.136 42.8 137.028 42.668C136.944 42.584 136.788 42.488 136.548 42.416C136.368 42.368 136.284 42.284 136.284 42.176C136.284 42.068 136.392 42.02 136.596 42.044C136.848 42.068 137.124 42.08 137.256 42.08C137.436 42.08 137.544 42.056 137.592 42.008C137.796 41.78 137.892 41 137.94 39.332C137.952 39.116 137.844 39.008 137.652 39.008H136.68C136.488 39.008 136.38 39.116 136.38 39.308C136.356 41.108 136.056 43.4 134.112 44.972C133.956 45.092 133.848 45.128 133.8 45.068C133.752 45.008 133.764 44.9 133.86 44.744C134.94 42.98 135.012 40.832 135.012 38.888V36.068C135.012 35.852 135.144 35.744 135.348 35.816L136.416 36.164C136.548 36.2 136.656 36.224 136.788 36.224H139.44C139.632 36.224 139.752 36.116 139.74 35.912C139.704 35.324 139.692 34.724 139.68 34.112C139.68 33.908 139.8 33.812 139.992 33.824L141.168 33.932C141.372 33.956 141.516 34.076 141.408 34.256C141.384 34.304 141.348 34.34 141.3 34.376C141.144 34.472 141.048 34.544 141.048 34.724C141.036 35.132 141.048 35.528 141.06 35.936C141.072 36.128 141.168 36.224 141.36 36.224H142.728C142.884 36.224 142.992 36.164 143.088 36.056C143.208 35.924 143.268 35.816 143.208 35.804C143.184 35.804 143.148 35.792 143.112 35.792C142.956 35.768 142.896 35.672 142.824 35.54C142.62 35.168 142.224 34.76 141.828 34.472C141.672 34.364 141.6 34.256 141.66 34.184C141.72 34.112 141.828 34.076 141.996 34.076C143.424 34.112 143.928 34.712 143.892 35.192C143.868 35.36 143.832 35.432 143.832 35.432V35.444C143.88 35.468 143.928 35.516 143.976 35.552C144.216 35.72 144.588 35.984 144.912 36.248C145.044 36.356 145.128 36.5 145.008 36.632C144.948 36.704 144.852 36.728 144.756 36.728H141.408C141.216 36.728 141.108 36.836 141.12 37.04C141.204 38.024 141.348 38.972 141.612 39.836C141.696 40.112 141.924 40.124 142.032 39.86C142.32 39.2 142.536 38.552 142.692 37.904C142.74 37.712 142.884 37.64 143.064 37.688L144.312 38.06C144.504 38.12 144.636 38.276 144.492 38.432C144.456 38.468 144.408 38.492 144.348 38.504C144.18 38.54 144.072 38.588 144 38.756C143.628 39.692 143.16 40.616 142.56 41.456C142.452 41.6 142.44 41.732 142.536 41.876C142.836 42.32 143.232 42.728 143.724 43.076C143.892 43.232 144.036 43.232 144.144 43.04C144.312 42.776 144.588 42.272 144.78 41.84C144.852 41.66 144.924 41.576 144.96 41.588C144.996 41.6 145.008 41.708 144.984 41.876L144.768 43.376C144.744 43.52 144.768 43.64 144.864 43.772C145.176 44.264 145.2 44.6 145.02 44.768C144.444 45.272 143.508 44.816 142.932 44.336C142.464 43.952 142.032 43.496 141.648 42.968C141.528 42.8 141.384 42.788 141.228 42.932C140.364 43.736 139.332 44.42 138.072 44.9C137.892 44.96 137.784 44.96 137.736 44.864C137.688 44.768 137.76 44.684 137.928 44.588C139.14 43.868 140.1 42.968 140.82 41.972C140.916 41.84 140.916 41.72 140.856 41.564C140.268 40.256 139.956 38.708 139.8 37.016C139.788 36.824 139.668 36.728 139.488 36.728H136.68C136.488 36.728 136.38 36.836 136.38 37.028V38.204C136.38 38.396 136.488 38.504 136.68 38.504H137.64ZM155.788 34.616C155.932 34.616 156.052 34.58 156.16 34.46L156.4 34.208C156.52 34.076 156.676 34.076 156.82 34.172L157.696 34.772C157.864 34.892 157.912 35.06 157.756 35.18C157.72 35.204 157.684 35.228 157.648 35.24C157.492 35.324 157.408 35.42 157.408 35.588V37.652C157.408 37.784 157.408 37.904 157.288 37.976C157.084 38.108 156.64 38.204 156.328 38.204C156.196 38.204 156.112 38.096 156.112 37.904V37.856C156.112 37.664 156.004 37.556 155.812 37.556H152.572C152.38 37.556 152.272 37.664 152.272 37.856V38.264C152.272 40.4 152.14 43.1 149.992 44.924C149.848 45.056 149.74 45.08 149.68 45.02C149.62 44.96 149.644 44.864 149.74 44.696C150.916 42.812 151.012 40.52 151.012 38.276V34.484C151.012 34.268 151.156 34.172 151.36 34.244L152.296 34.556C152.428 34.604 152.536 34.616 152.668 34.616H155.788ZM146.968 37.028C146.824 36.896 146.764 36.8 146.824 36.74C146.884 36.68 146.98 36.644 147.148 36.668C149.908 36.956 149.26 38.888 148.192 38.612C148.048 38.564 147.976 38.48 147.94 38.348C147.772 37.892 147.376 37.4 146.968 37.028ZM147.412 41.816C147.22 41.78 147.124 41.708 147.124 41.576C147.124 41.444 147.232 41.372 147.424 41.372H147.676C147.856 41.372 147.928 41.372 148.048 41.168C148.312 40.736 148.312 40.736 150.46 36.152C150.544 35.972 150.628 35.876 150.7 35.9C150.76 35.924 150.772 36.032 150.712 36.224C150.22 37.736 149.392 40.28 149.236 40.844C149.128 41.252 149.032 41.636 149.044 41.924C149.056 42.14 149.128 42.344 149.236 42.608C149.368 42.944 149.536 43.364 149.512 44C149.488 44.636 149.08 45.008 148.516 45.008C148.3 45.008 148.048 44.852 147.916 44.516C147.868 44.372 147.88 44.276 147.904 44.132C148.084 42.968 148.036 42.14 147.748 41.948C147.664 41.888 147.544 41.852 147.412 41.816ZM147.892 34.352C147.748 34.22 147.7 34.112 147.748 34.064C147.808 34.004 147.904 33.98 148.072 34.004C150.94 34.316 150.34 36.332 149.224 36.044C149.08 36.008 149.008 35.924 148.96 35.804C148.768 35.324 148.336 34.772 147.892 34.352ZM152.272 36.752C152.272 36.944 152.38 37.052 152.572 37.052H155.812C156.004 37.052 156.112 36.944 156.112 36.752V35.42C156.112 35.228 156.004 35.12 155.812 35.12H152.572C152.38 35.12 152.272 35.228 152.272 35.42V36.752ZM152.884 43.58V38.504C152.884 38.312 153.004 38.204 153.196 38.228L154.192 38.324C154.384 38.348 154.552 38.468 154.444 38.648C154.42 38.684 154.396 38.708 154.36 38.732C154.228 38.84 154.132 38.912 154.132 39.08V40.436C154.132 40.676 154.3 40.772 154.492 40.628C155.164 40.136 155.848 39.572 156.412 38.996C156.544 38.852 156.688 38.852 156.832 38.972L157.624 39.692C157.78 39.836 157.816 40.076 157.612 40.088C157.576 40.088 157.54 40.088 157.504 40.076C157.348 40.04 157.228 40.04 157.096 40.124C156.196 40.652 155.224 41.084 154.372 41.372C154.216 41.432 154.132 41.552 154.132 41.72V43.28C154.132 43.448 154.18 43.496 154.624 43.496H155.776C156.244 43.496 156.628 43.484 156.796 43.472C156.964 43.46 157.072 43.424 157.108 43.352C157.228 43.124 157.384 42.548 157.564 41.876C157.612 41.696 157.66 41.612 157.696 41.612C157.732 41.612 157.768 41.708 157.768 41.912L157.792 43.124C157.792 43.292 157.876 43.376 158.008 43.472C158.188 43.592 158.248 43.736 158.248 43.928C158.248 44.516 157.72 44.732 155.68 44.732H154.372C153.172 44.732 152.884 44.504 152.884 43.58ZM169.748 33.932C169.952 33.956 170.096 34.088 169.976 34.268C169.952 34.316 169.916 34.352 169.868 34.376C169.712 34.472 169.616 34.556 169.616 34.724V40.616C169.616 40.82 169.64 40.928 169.664 40.928H169.7L170.06 40.244C170.156 40.076 170.3 40.028 170.468 40.136C170.708 40.292 170.972 40.46 171.2 40.616C171.332 40.712 171.428 40.82 171.356 40.976C171.32 41.072 171.224 41.144 171.14 41.156L169.88 41.408C169.712 41.444 169.616 41.564 169.616 41.744V44.588C169.616 44.852 169.016 45.092 168.548 45.092C168.392 45.092 168.296 44.984 168.296 44.792V42.068C168.296 41.864 168.188 41.756 167.972 41.804L165.416 42.32C165.248 42.356 165.116 42.296 165.044 42.152C164.984 42.02 165.068 41.9 165.272 41.852L168.032 41.276C168.2 41.24 168.296 41.12 168.296 40.94V34.112C168.296 33.92 168.416 33.812 168.608 33.824L169.748 33.932ZM159.86 43.148C159.8 43.088 159.824 42.98 159.932 42.836C160.664 41.804 161.168 40.532 161.48 39.26C161.54 39.044 161.432 38.924 161.228 38.924H160.196C160.028 38.924 159.908 38.852 159.86 38.672C159.812 38.516 159.92 38.42 160.136 38.42H161.696C161.888 38.42 161.996 38.312 161.996 38.12V34.112C161.996 33.92 162.116 33.8 162.308 33.824L163.364 33.92C163.568 33.944 163.712 34.088 163.616 34.268C163.592 34.316 163.544 34.352 163.496 34.388C163.34 34.472 163.244 34.556 163.244 34.724V38.12C163.244 38.312 163.328 38.42 163.46 38.42C163.604 38.42 163.724 38.372 163.82 38.252L164.132 37.868C164.252 37.724 164.408 37.712 164.552 37.82C164.804 38.012 165.104 38.24 165.356 38.456C165.476 38.564 165.56 38.708 165.452 38.84C165.38 38.912 165.296 38.924 165.188 38.924H163.544C163.352 38.924 163.244 39.02 163.244 39.188V39.2C163.244 39.38 163.34 39.476 163.52 39.536C166.244 40.268 165.476 42.164 164.468 41.816C164.324 41.768 164.276 41.66 164.24 41.504C164.132 41.096 163.892 40.652 163.616 40.268C163.46 40.028 163.244 40.124 163.244 40.4V44.612C163.244 44.888 162.668 45.104 162.236 45.104C162.08 45.104 161.996 44.996 161.996 44.804V41.708C161.996 41.432 161.816 41.36 161.636 41.588C161.204 42.152 160.712 42.644 160.184 43.076C160.028 43.196 159.92 43.22 159.86 43.148ZM160.004 35.18C159.932 34.988 159.92 34.868 159.98 34.856C160.052 34.832 160.136 34.868 160.28 34.952C162.476 36.332 161.528 38.048 160.652 37.568C160.508 37.484 160.484 37.376 160.472 37.22C160.46 36.56 160.256 35.792 160.004 35.18ZM163.616 37.712C163.556 37.676 163.544 37.592 163.58 37.412C163.712 36.776 163.868 35.9 164 35.096C164.024 34.904 164.168 34.808 164.36 34.868L165.332 35.156C165.524 35.216 165.644 35.372 165.5 35.528C165.464 35.564 165.416 35.588 165.368 35.612C165.212 35.672 165.104 35.708 165.02 35.852C164.66 36.44 164.24 37.064 163.868 37.544C163.76 37.688 163.676 37.748 163.616 37.712ZM165.464 38.108C165.32 37.976 165.26 37.88 165.32 37.82C165.38 37.76 165.476 37.736 165.656 37.76C168.488 38.24 167.852 40.22 166.82 39.92C166.664 39.872 166.604 39.788 166.568 39.656C166.4 39.128 165.944 38.528 165.464 38.108ZM165.668 35.264C165.536 35.12 165.488 35.012 165.548 34.952C165.608 34.892 165.716 34.88 165.884 34.916C168.632 35.552 167.9 37.46 166.88 37.136C166.724 37.088 166.676 36.98 166.64 36.848C166.484 36.308 166.1 35.72 165.668 35.264Z" fill="#AA967F"/>
</svg>
