<svg width="94" height="24" viewBox="0 0 94 24" fill="none" xmlns="http://www.w3.org/2000/svg">
<path d="M9.9 17.16H11.724V12.288H8.1C7.764 12.288 7.548 12.144 7.452 11.808C7.356 11.544 7.596 11.352 8.028 11.352H11.724V8.88H10.428C9.828 9.576 9.204 10.2 8.604 10.68C8.316 10.896 8.1 10.92 7.98 10.824C7.86 10.728 7.908 10.512 8.1 10.2C8.748 9.12 9.324 7.728 9.756 6.288C9.876 5.904 10.14 5.76 10.5 5.88L11.94 6.36C12.324 6.48 12.564 6.864 12.228 7.104C12.084 7.2 11.868 7.224 11.604 7.2L11.124 7.944H14.532L15.156 7.152C15.396 6.864 15.708 6.816 15.996 7.056C16.356 7.344 16.74 7.68 17.1 7.992C17.34 8.208 17.532 8.496 17.268 8.736C17.172 8.856 17.028 8.88 16.836 8.88H13.548V11.352H15.348L15.996 10.512C16.236 10.2 16.524 10.152 16.836 10.392C17.196 10.68 17.604 11.04 17.94 11.376C18.204 11.616 18.348 11.904 18.084 12.144C17.988 12.264 17.844 12.288 17.652 12.288H13.548V17.16H15.396V13.944C15.396 13.56 15.636 13.344 16.02 13.392L17.028 13.488C17.46 13.536 17.748 13.8 17.532 14.064C17.436 14.184 17.268 14.28 17.052 14.304V18.6C17.052 18.936 16.38 19.224 15.708 19.224C15.516 19.224 15.396 19.008 15.396 18.648V18.096H10.02L9.828 18.312C9.588 18.6 9.3 18.624 8.988 18.456L8.268 18.072C7.884 17.88 7.74 17.592 7.932 17.4C8.052 17.304 8.172 17.208 8.292 17.136V13.968C8.292 13.584 8.532 13.368 8.916 13.416L9.9 13.512C10.308 13.56 10.62 13.824 10.404 14.112C10.284 14.256 10.14 14.328 9.9 14.376V17.16ZM0.468 23.064C0.372 23.064 0.276 22.848 0.276 22.464V2.064C0.276 1.632 0.564 1.416 0.972 1.584L2.628 2.208H4.692L5.436 1.536C5.724 1.272 6.036 1.296 6.3 1.536L7.668 2.784C7.98 3.072 8.028 3.48 7.644 3.552C7.476 3.6 7.26 3.6 6.996 3.6C6.252 5.112 4.956 7.704 3.996 9.144C6.132 10.92 7.044 13.056 7.044 14.976C7.068 17.112 6.444 18.264 4.572 18.552C4.164 18.6 3.972 18.384 3.924 17.976C3.9 17.64 3.828 17.328 3.66 17.136C3.588 17.04 3.396 16.968 3.156 16.872C2.796 16.752 2.628 16.632 2.628 16.44C2.628 16.272 2.844 16.152 3.228 16.152H4.02C4.26 16.152 4.452 16.128 4.548 16.032C4.956 15.768 5.052 15.384 5.052 14.544C5.052 12.936 4.668 11.304 3.564 9.672C3.396 9.384 3.348 9.168 3.42 8.856C3.876 7.32 4.452 4.872 4.788 3.144H2.34V22.296C2.34 22.608 1.692 23.064 0.636 23.064H0.468ZM5.844 9.144C5.748 9.048 5.796 8.832 6.012 8.52C7.5 6.36 8.7 3.456 9.3 1.272C9.42 0.887999 9.684 0.743999 10.044 0.863999L11.94 1.464C12.324 1.584 12.612 2.016 12.252 2.208C12.132 2.28 11.94 2.28 11.628 2.28C11.34 2.832 11.004 3.432 10.668 3.984H18.492L19.26 3.216C19.524 2.952 19.812 2.928 20.1 3.168L21.42 4.248C21.732 4.488 21.828 4.896 21.444 5.064C21.276 5.136 21.084 5.184 20.82 5.208C20.724 15.24 20.532 20.496 19.38 21.888C18.732 22.656 17.94 23.04 16.98 23.16C16.596 23.184 16.404 22.968 16.356 22.584C16.332 22.224 16.212 21.96 15.924 21.72C15.66 21.48 14.964 21.24 14.172 21.072C13.812 21 13.62 20.856 13.62 20.64C13.62 20.448 13.836 20.352 14.244 20.376C15.204 20.472 16.308 20.568 16.764 20.568C17.244 20.568 17.46 20.472 17.652 20.28C18.516 19.344 18.66 13.944 18.732 4.944H10.044C9.036 6.384 7.812 7.848 6.444 8.952C6.156 9.192 5.964 9.264 5.844 9.144ZM35.052 8.592C35.436 8.712 35.7 9.12 35.34 9.312C35.172 9.408 34.956 9.408 34.692 9.384C34.38 9.888 34.068 10.344 33.732 10.776H38.58C38.388 10.152 37.74 9.24 37.092 8.616C36.708 8.712 36.372 8.784 35.988 8.784C35.82 8.784 35.7 8.568 35.7 8.184V2.16C35.7 1.728 35.988 1.512 36.396 1.68L37.884 2.232H41.172L41.844 1.56C42.108 1.296 42.396 1.272 42.684 1.488L44.076 2.496C44.436 2.76 44.484 3.096 44.148 3.312C43.956 3.408 43.764 3.48 43.524 3.528V7.944C43.524 8.208 43.5 8.448 43.26 8.592C42.9 8.784 42.252 8.952 41.748 8.952C41.532 8.952 41.388 8.736 41.388 8.352V7.776H37.788V8.016C40.548 8.592 40.572 10.248 39.756 10.776H41.94L42.852 9.672C43.092 9.384 43.404 9.36 43.692 9.576C44.22 9.96 44.796 10.416 45.3 10.8C45.588 11.04 45.756 11.352 45.492 11.568C45.372 11.688 45.204 11.712 45.012 11.712H37.452C39.252 12.96 41.844 13.848 45.372 14.256C45.78 14.304 45.972 14.424 45.972 14.568C45.948 14.736 45.804 14.856 45.564 15.072C45.3 15.312 45.132 15.648 45.036 16.104C44.94 16.488 44.724 16.68 44.34 16.56C44.148 16.512 43.956 16.44 43.764 16.392C43.548 16.488 43.332 16.584 43.092 16.632V21.696C43.092 21.96 43.068 22.176 42.852 22.32C42.492 22.536 41.82 22.704 41.316 22.704C41.1 22.704 40.956 22.488 40.956 22.104V21.432H37.524V22.368C37.524 22.728 36.612 23.064 35.748 23.064C35.556 23.064 35.436 22.848 35.436 22.464V15.24C35.436 14.808 35.724 14.592 36.132 14.76L37.644 15.36H40.74L40.86 15.24C38.988 14.328 37.692 13.152 36.54 11.712H32.916C31.644 13.032 30.036 14.256 27.948 15.264L28.236 15.36H31.14L31.788 14.712C32.052 14.448 32.34 14.424 32.628 14.64L33.948 15.576C34.284 15.816 34.38 16.2 34.044 16.392C33.852 16.488 33.66 16.536 33.444 16.584V21.888C33.396 22.224 32.436 22.584 31.716 22.584C31.5 22.584 31.356 22.368 31.356 22.008V21.432H28.14V22.488C28.14 22.848 27.228 23.208 26.388 23.208C26.196 23.208 26.076 22.992 26.076 22.608V16.08C25.38 16.344 24.636 16.584 23.892 16.824C23.532 16.92 23.316 16.872 23.244 16.704C23.148 16.536 23.316 16.368 23.7 16.224C26.604 15 28.74 13.392 30.252 11.712H24.18C23.844 11.712 23.604 11.568 23.508 11.232C23.412 10.968 23.652 10.776 24.084 10.776H31.02C31.644 9.96 32.124 9.192 32.484 8.448C32.172 8.544 31.86 8.592 31.62 8.592C31.404 8.592 31.26 8.448 31.26 8.184V7.776H27.852V8.88C27.852 9.24 26.916 9.576 26.1 9.576C25.932 9.576 25.812 9.36 25.812 8.976V2.136C25.812 1.704 26.1 1.488 26.508 1.656L27.972 2.232H31.044L31.692 1.608C31.956 1.368 32.244 1.32 32.532 1.536L33.852 2.472C34.188 2.712 34.284 3.096 33.948 3.288C33.756 3.384 33.564 3.432 33.348 3.48V7.896C33.348 7.944 33.348 7.968 33.324 8.016L35.052 8.592ZM27.852 6.84H31.26V3.192H27.852V6.84ZM28.14 20.496H31.356V16.296H28.14V20.496ZM37.524 20.496H40.956V16.296H37.524V20.496ZM37.788 6.84H41.388V3.192H37.788V6.84ZM55.428 1.008C55.836 1.056 56.148 1.368 55.884 1.704C55.764 1.872 55.548 1.968 55.212 2.016V4.8H57.372L58.212 3.768C58.452 3.48 58.74 3.408 59.052 3.648C59.532 4.032 60.036 4.44 60.492 4.848C60.756 5.064 60.924 5.352 60.66 5.592C60.54 5.712 60.372 5.736 60.18 5.736H55.212V8.688H57.972L58.812 7.632C59.052 7.344 59.364 7.296 59.652 7.536C60.132 7.896 60.66 8.328 61.14 8.712C61.404 8.952 61.548 9.24 61.308 9.48C61.188 9.6 61.044 9.624 60.852 9.624H55.212V12.24H57.636L58.212 11.592C58.452 11.328 58.764 11.28 59.052 11.496L60.492 12.504C60.828 12.744 60.924 13.104 60.564 13.296C60.396 13.416 60.18 13.488 59.964 13.512V18.768C59.964 20.016 59.724 20.856 58.164 21.192C57.756 21.288 57.516 21.048 57.492 20.64C57.468 20.472 57.444 20.328 57.396 20.184C57.3 19.944 57.204 19.776 56.988 19.632C56.892 19.584 56.772 19.512 56.628 19.464C56.292 19.368 56.1 19.224 56.1 19.032C56.1 18.864 56.316 18.744 56.724 18.768C57.06 18.792 57.348 18.816 57.492 18.816C57.828 18.816 57.852 18.768 57.852 18.552V13.176H55.212V22.224C55.212 22.656 54.252 23.064 53.508 23.064C53.244 23.064 53.1 22.848 53.1 22.464V13.176H50.508V20.688C50.508 21.048 49.548 21.408 48.756 21.408C48.564 21.408 48.444 21.192 48.444 20.808V12.144C48.444 11.712 48.732 11.496 49.14 11.664L50.628 12.24H53.1V9.624H47.94C47.604 9.624 47.388 9.48 47.292 9.144C47.196 8.88 47.436 8.688 47.868 8.688H53.1V5.736H50.172C49.596 6.624 48.972 7.392 48.348 7.992C48.084 8.256 47.916 8.328 47.772 8.232C47.628 8.16 47.652 7.944 47.82 7.584C48.516 6.096 49.164 4.08 49.524 2.064C49.62 1.656 49.836 1.488 50.244 1.608L51.972 2.088C52.38 2.208 52.62 2.568 52.284 2.808C52.14 2.904 51.948 2.952 51.66 2.952C51.372 3.624 51.036 4.248 50.724 4.8H53.1V1.416C53.1 1.032 53.34 0.791998 53.724 0.839999L55.428 1.008ZM62.364 18.048C62.244 18.048 62.172 17.832 62.172 17.448V3.288C62.172 2.904 62.412 2.664 62.796 2.712L64.356 2.856C64.764 2.904 65.076 3.24 64.788 3.552C64.668 3.672 64.452 3.768 64.164 3.816V17.328C64.164 17.688 63.348 18.048 62.556 18.048H62.364ZM63.756 21.12C63.372 21.048 63.18 20.904 63.18 20.712C63.18 20.52 63.396 20.424 63.804 20.448C64.788 20.52 65.724 20.592 65.988 20.592C66.396 20.592 66.492 20.496 66.492 20.208V1.728C66.492 1.344 66.732 1.128 67.116 1.176L68.82 1.32C69.228 1.368 69.54 1.68 69.252 2.016C69.108 2.16 68.892 2.256 68.58 2.304V20.376C68.58 21.768 68.316 22.68 66.3 23.016C65.916 23.088 65.676 22.896 65.604 22.512C65.508 22.176 65.412 21.912 65.148 21.648C64.884 21.432 64.476 21.24 63.756 21.12ZM90.084 9.552C90.324 9.24 90.636 9.216 90.924 9.456C91.428 9.816 92.004 10.272 92.484 10.656C92.748 10.896 92.892 11.184 92.652 11.424C92.532 11.544 92.388 11.568 92.196 11.568H86.484V15.792H89.412L90.396 14.64C90.636 14.352 90.924 14.304 91.212 14.52C91.788 14.928 92.436 15.408 92.964 15.84C93.228 16.08 93.396 16.392 93.132 16.608C92.988 16.728 92.82 16.752 92.652 16.752H86.484V22.368C86.484 22.68 85.788 23.064 84.54 23.064C84.276 23.064 84.132 22.848 84.132 22.464V6.528H82.908C81.54 8.592 80.052 10.392 78.444 11.736C78.156 11.976 77.964 12.024 77.844 11.904C77.724 11.808 77.772 11.592 77.988 11.28C79.764 8.76 81.612 5.04 82.74 1.296C82.86 0.935999 83.124 0.791998 83.484 0.912L85.5 1.56C85.884 1.68 86.148 2.064 85.788 2.304C85.644 2.4 85.428 2.424 85.14 2.424C84.612 3.576 84.036 4.632 83.484 5.616H89.916L90.924 4.392C91.164 4.104 91.476 4.08 91.764 4.296C92.34 4.704 92.964 5.184 93.492 5.616C93.756 5.856 93.924 6.144 93.66 6.384C93.54 6.504 93.372 6.528 93.18 6.528H86.484V10.632H89.196L90.084 9.552ZM71.244 13.248C71.124 13.128 71.172 12.96 71.388 12.648C73.404 9.792 75.492 5.568 76.74 1.272C76.86 0.887999 77.124 0.743999 77.484 0.863999L79.5 1.488C79.884 1.608 80.148 1.992 79.788 2.232C79.62 2.352 79.404 2.376 79.116 2.352C78.324 4.224 77.436 5.976 76.476 7.512L77.028 7.68C77.436 7.824 77.652 8.136 77.388 8.376C77.268 8.472 77.124 8.544 76.884 8.568V22.344C76.836 22.704 75.924 23.088 75.036 23.088C74.772 23.088 74.604 22.872 74.604 22.488V10.128C73.716 11.256 72.78 12.216 71.844 13.056C71.556 13.296 71.364 13.368 71.244 13.248Z" fill="#7A6753"/>
</svg>
