<svg width="48" height="15" viewBox="0 0 48 15" fill="none" xmlns="http://www.w3.org/2000/svg">
<path d="M12.74 6.25C12.89 6.07 13.085 6.055 13.265 6.19C13.655 6.475 14.12 6.805 14.48 7.105C14.645 7.225 14.75 7.39 14.63 7.57C14.555 7.675 14.435 7.705 14.3 7.705H1.91C1.7 7.705 1.55 7.615 1.49 7.39C1.43 7.195 1.565 7.06 1.835 7.06H6.605C6.845 7.06 6.98 6.925 6.98 6.685V5.86C6.98 5.62 6.845 5.485 6.605 5.485H3.32C3.095 5.485 2.96 5.38 2.915 5.155C2.87 4.96 3.005 4.84 3.26 4.84H6.605C6.845 4.84 6.98 4.705 6.98 4.465V3.73C6.98 3.49 6.845 3.355 6.605 3.355H2.45C2.24 3.355 2.09 3.265 2.03 3.04C1.97 2.845 2.105 2.71 2.375 2.71H4.49C4.85 2.71 5.315 2.71 5.3 2.695L5.27 2.68C5.225 2.05 4.85 1.3 4.4 0.759999C4.25 0.564999 4.19 0.445 4.265 0.385C4.34 0.31 4.46 0.31 4.67 0.339999C6.785 0.684999 7.13 1.75 6.77 2.38C6.62 2.62 6.65 2.71 6.92 2.71H8.705C8.915 2.71 9.065 2.62 9.14 2.425C9.38 1.81 9.635 1.105 9.785 0.52C9.845 0.294999 9.995 0.19 10.235 0.264999L11.735 0.684999C11.975 0.759999 12.14 0.969999 11.96 1.135C11.915 1.18 11.855 1.21 11.78 1.225C11.6 1.285 11.45 1.3 11.315 1.435C11.015 1.69 10.67 1.975 10.325 2.26C10.04 2.47 10.13 2.71 10.475 2.71H11.465C11.66 2.71 11.81 2.65 11.93 2.5L12.425 1.93C12.575 1.75 12.77 1.72 12.95 1.87C13.325 2.125 13.775 2.455 14.15 2.755C14.315 2.89 14.42 3.07 14.285 3.235C14.195 3.325 14.09 3.355 13.955 3.355H9.125C8.885 3.355 8.75 3.49 8.75 3.73V4.465C8.75 4.705 8.885 4.84 9.125 4.84H10.685C10.88 4.84 11.015 4.78 11.135 4.63L11.585 4.12C11.735 3.94 11.93 3.91 12.11 4.045C12.47 4.3 12.89 4.6 13.235 4.885C13.4 5.02 13.505 5.2 13.355 5.365C13.28 5.455 13.175 5.485 13.04 5.485H9.125C8.885 5.485 8.75 5.62 8.75 5.86V6.685C8.75 6.925 8.885 7.06 9.125 7.06H11.765C11.96 7.06 12.11 7 12.23 6.85L12.74 6.25ZM0.95 14.17C0.905 14.035 1.01 13.915 1.265 13.84C4.46 12.91 5.735 11.89 6.29 10.585C6.395 10.33 6.245 10.165 5.975 10.165H1.58C1.37 10.165 1.22 10.075 1.16 9.85C1.1 9.64 1.235 9.52 1.505 9.52H6.245C6.47 9.52 6.62 9.4 6.635 9.175C6.68 8.86 6.71 8.515 6.725 8.17C6.74 7.93 6.875 7.81 7.115 7.825L8.78 7.93C9.02 7.945 9.23 8.11 9.095 8.335C9.065 8.395 9.005 8.455 8.945 8.485C8.75 8.605 8.63 8.68 8.6 8.89C8.585 8.965 8.585 9.04 8.57 9.115C8.54 9.37 8.66 9.52 8.915 9.52H11.99C12.185 9.52 12.32 9.445 12.44 9.31L12.98 8.71C13.13 8.53 13.325 8.5 13.505 8.635C13.91 8.92 14.39 9.265 14.765 9.565C14.93 9.7 15.035 9.88 14.9 10.045C14.81 10.135 14.705 10.165 14.57 10.165H9.59C9.275 10.165 9.14 10.39 9.38 10.63C10.58 11.815 12.575 12.325 14.795 12.55C15.035 12.565 15.155 12.625 15.155 12.76C15.14 12.895 15.035 12.97 14.84 13.06C14.42 13.24 14.135 13.555 13.985 13.975C13.895 14.215 13.76 14.305 13.52 14.245C11.195 13.63 9.605 12.61 8.675 10.465C8.585 10.255 8.525 10.165 8.465 10.165C8.405 10.165 8.345 10.27 8.285 10.48C7.685 12.295 6.17 13.495 1.385 14.335C1.145 14.38 0.995 14.32 0.95 14.17ZM24.54 1.255C24.36 1.345 24.255 1.435 24.27 1.675C24.645 6.94 26.025 10.36 30.81 12.385C31.02 12.475 31.11 12.58 31.11 12.7C31.095 12.82 30.99 12.895 30.765 12.955C30.165 13.105 29.775 13.42 29.565 13.9C29.46 14.14 29.295 14.215 29.085 14.095C25.8 12.13 24.645 8.905 24.21 4.705C24.18 4.345 24.12 4.33 24.09 4.69C23.715 8.185 22.455 11.665 17.49 14.17C17.28 14.29 17.13 14.29 17.055 14.17C16.98 14.05 17.04 13.915 17.235 13.765C22.44 9.985 22.395 5.425 22.41 0.88C22.41 0.624999 22.56 0.504999 22.8 0.52L24.42 0.67C24.675 0.699999 24.855 0.834999 24.735 1.06C24.69 1.15 24.63 1.21 24.54 1.255ZM45.88 4.78C46.105 4.93 46.15 5.17 45.94 5.29C45.925 5.305 45.895 5.305 45.88 5.32C45.67 5.41 45.55 5.5 45.535 5.725C45.52 6.55 45.49 7.285 45.475 7.945L45.43 9.34C45.37 11.05 45.34 12.04 45.355 12.475C45.355 12.655 45.355 12.655 45.52 12.655H45.835C46 12.655 46.045 12.625 46.075 12.535C46.21 12.19 46.345 11.575 46.465 10.96C46.525 10.735 46.585 10.615 46.63 10.615C46.675 10.63 46.705 10.735 46.705 10.975L46.675 12.175C46.675 12.4 46.78 12.505 46.975 12.61C47.17 12.73 47.23 12.85 47.23 13.09C47.23 13.69 46.81 14.035 45.85 14.035H45.31C44.305 14.035 43.915 13.63 43.915 12.565C43.915 12.235 43.93 11.8 43.945 11.215C43.945 10.855 43.96 10.435 43.975 9.94C44.02 8.89 44.065 7.48 44.11 5.635C44.125 5.38 43.99 5.245 43.75 5.245H42.43C42.205 5.245 42.055 5.365 42.04 5.605C41.905 7.69 41.74 10.015 41.605 11.53C41.575 11.815 41.755 11.935 42.025 11.845C42.415 11.695 42.805 11.53 43.21 11.365C43.435 11.275 43.585 11.275 43.63 11.395C43.675 11.5 43.615 11.62 43.45 11.77C42.85 12.28 41.935 13.06 40.87 13.825C40.735 13.93 40.69 13.975 40.69 13.975C40.66 14.05 40.33 14.185 40.18 13.945L39.595 13.06C39.475 12.865 39.535 12.73 39.7 12.565C39.91 12.355 40.105 12.025 40.165 11.62C40.315 10.69 40.63 5.2 40.765 2.575C40.78 2.335 40.63 2.2 40.39 2.2H40.105C39.895 2.2 39.745 2.11 39.685 1.885C39.625 1.69 39.76 1.555 40.03 1.555H44.245C44.44 1.555 44.59 1.495 44.71 1.345L45.16 0.805C45.31 0.624999 45.505 0.595 45.685 0.73C46.045 1 46.465 1.3 46.81 1.6C46.96 1.735 47.065 1.915 46.93 2.08C46.84 2.17 46.735 2.2 46.615 2.2H42.625C42.4 2.2 42.25 2.335 42.235 2.56L42.13 4.21C42.115 4.45 42.25 4.6 42.49 4.6H43.735C43.93 4.6 44.065 4.525 44.185 4.39L44.38 4.18C44.53 4 44.695 3.97 44.89 4.105L45.88 4.78ZM32.92 14.26C32.845 14.17 32.875 14.05 33.01 13.87C34.195 12.295 34.45 10.495 34.51 8.665C34.525 8.425 34.39 8.29 34.15 8.29H33.355C33.145 8.29 32.995 8.2 32.935 7.975C32.875 7.78 33.01 7.645 33.28 7.645H34.15C34.39 7.645 34.525 7.51 34.525 7.27V4.615C34.525 4.375 34.39 4.24 34.15 4.24H33.61C33.4 4.24 33.25 4.15 33.19 3.925C33.13 3.73 33.265 3.595 33.535 3.595H36.475C36.685 3.595 36.82 3.505 36.895 3.295C37.15 2.515 37.39 1.54 37.6 0.595C37.645 0.339999 37.81 0.25 38.05 0.325L39.475 0.774999C39.715 0.849999 39.865 1.06 39.685 1.24C39.64 1.285 39.58 1.33 39.505 1.345C39.31 1.405 39.175 1.45 39.055 1.615C38.665 2.155 38.245 2.695 37.84 3.145C37.615 3.385 37.555 3.595 37.735 3.595H37.795C37.99 3.595 38.14 3.52 38.26 3.37L38.59 2.965C38.74 2.785 38.92 2.755 39.115 2.905C39.4 3.13 39.715 3.385 39.985 3.625C40.15 3.775 40.24 3.94 40.105 4.12C40.03 4.21 39.925 4.24 39.805 4.24H38.89C38.65 4.24 38.515 4.375 38.515 4.615V6.79C38.515 7.135 38.71 7.285 38.89 7.06C39.04 6.88 39.22 6.85 39.415 7C39.67 7.21 39.97 7.45 40.21 7.675C40.375 7.825 40.465 7.99 40.33 8.17C40.255 8.26 40.15 8.29 40.03 8.29H38.89C38.65 8.29 38.515 8.425 38.515 8.665V13.915C38.515 14.14 38.095 14.395 37.345 14.395C37.195 14.395 37.105 14.26 37.105 14.02V8.665C37.105 8.425 36.97 8.29 36.73 8.29H36.28C36.04 8.29 35.92 8.41 35.905 8.65C35.8 10.57 35.32 12.67 33.325 14.17C33.13 14.32 32.995 14.335 32.92 14.26ZM33.79 0.774999C33.67 0.564999 33.64 0.429999 33.715 0.385C33.79 0.325 33.91 0.339999 34.105 0.414999C37.3 1.72 36.115 3.985 34.855 3.415C34.675 3.325 34.615 3.19 34.6 2.995C34.51 2.245 34.165 1.42 33.79 0.774999ZM35.935 7.27C35.935 7.51 36.07 7.645 36.31 7.645H36.73C36.97 7.645 37.105 7.51 37.105 7.27V4.615C37.105 4.375 36.97 4.24 36.73 4.24H36.31C36.07 4.24 35.935 4.375 35.935 4.615V7.27ZM42.13 6.94C42.04 6.7 42.04 6.565 42.115 6.535C42.205 6.505 42.31 6.55 42.475 6.685C44.59 8.35 43.675 10.06 42.805 9.61C42.64 9.52 42.595 9.37 42.595 9.19C42.565 8.47 42.355 7.615 42.13 6.94Z" fill="#7A6855"/>
</svg>
