<svg width="47" height="15" viewBox="0 0 47 15" fill="none" xmlns="http://www.w3.org/2000/svg">
<path d="M11.8356 1.14797C11.9856 0.967968 12.1806 0.937968 12.3606 1.07297C12.8106 1.38797 13.3506 1.76297 13.7706 2.10797C13.9206 2.22797 14.0406 2.39297 13.9206 2.57297C13.8456 2.67797 13.7106 2.70797 13.5756 2.70797H1.92063C1.71063 2.70797 1.56063 2.61797 1.50063 2.39297C1.44063 2.19797 1.57563 2.06297 1.84563 2.06297H10.7556C10.9506 2.06297 11.1006 2.00297 11.2206 1.85297L11.8356 1.14797ZM0.705629 12.713C0.645629 12.503 0.780629 12.398 1.05063 12.398H11.4906C11.6856 12.398 11.8356 12.338 11.9556 12.188L12.6006 11.438C12.7506 11.258 12.9456 11.228 13.1256 11.378C13.5906 11.693 14.1456 12.098 14.5806 12.443C14.7456 12.578 14.8506 12.758 14.7006 12.923C14.6256 13.013 14.5056 13.043 14.3706 13.043H1.12563C0.915629 13.043 0.765629 12.953 0.705629 12.728V12.713ZM2.52063 7.29797C2.46063 7.08797 2.59563 6.98297 2.86563 6.98297H9.61563C9.81063 6.98297 9.94563 6.90797 10.0656 6.77297L10.6656 6.09797C10.8156 5.91797 11.0106 5.88797 11.1906 6.03797C11.6106 6.32297 12.1206 6.69797 12.5256 7.02797C12.6906 7.14797 12.8106 7.31297 12.6756 7.49297C12.6006 7.59797 12.4806 7.62797 12.3456 7.62797H2.94063C2.73063 7.62797 2.58063 7.53797 2.52063 7.31297V7.29797ZM23.0056 0.742968C23.2606 0.802968 23.4406 1.08797 23.2006 1.20797C23.1556 1.22297 23.1256 1.22297 23.0656 1.23797C22.8556 1.23797 22.7206 1.29797 22.5856 1.46297C22.5706 1.49297 22.5556 1.50797 22.5406 1.53797C22.3456 1.79297 22.4506 1.98797 22.7656 1.98797H24.6106C24.7906 1.98797 24.9256 1.94297 25.0756 1.80797L25.5256 1.41797C25.6906 1.26797 25.8706 1.26797 26.0506 1.40297L27.1306 2.27297C27.3256 2.43797 27.3856 2.69297 27.1606 2.78297C27.1156 2.79797 27.0706 2.79797 27.0256 2.81297C26.8456 2.84297 26.7106 2.87297 26.5606 2.97797C26.1406 3.26297 25.6606 3.59297 25.1656 3.89297C24.8506 4.10297 24.9256 4.34297 25.2856 4.34297H26.9056C27.0856 4.34297 27.2356 4.29797 27.3706 4.14797L27.6706 3.83297C27.8206 3.66797 28.0156 3.63797 28.1956 3.77297L29.3056 4.53797C29.5156 4.68797 29.5756 4.91297 29.3656 5.04797C29.3506 5.06297 29.3356 5.07797 29.3206 5.07797C29.1256 5.18297 29.0056 5.30297 29.0056 5.51297V12.473C29.0056 13.493 28.7806 14.138 27.2056 14.363C26.9506 14.393 26.8156 14.273 26.7706 14.033C26.7406 13.733 26.6806 13.508 26.4856 13.298C26.3356 13.148 26.0806 12.998 25.5856 12.893C25.3606 12.833 25.2406 12.743 25.2406 12.608C25.2406 12.473 25.3906 12.413 25.6306 12.428L25.8256 12.443C26.3506 12.473 26.8306 12.503 26.9806 12.503C27.2656 12.503 27.3106 12.443 27.3106 12.293V10.553C27.3106 10.313 27.1756 10.178 26.9356 10.178H25.1206C24.8806 10.178 24.7456 10.313 24.7456 10.553V13.433C24.7456 13.658 24.2506 13.943 23.4256 13.943C23.2456 13.943 23.1406 13.808 23.1406 13.568V10.553C23.1406 10.313 23.0056 10.178 22.7656 10.178H20.7706C20.5606 10.178 20.4106 10.283 20.3506 10.493C19.9156 11.903 19.0306 13.253 17.1556 14.243C16.9456 14.363 16.8106 14.378 16.7506 14.288C16.6906 14.198 16.7356 14.078 16.9156 13.898C18.7756 12.053 19.0156 9.87797 19.0156 7.62797V5.49797C19.0156 5.19797 18.8206 5.07797 18.5656 5.24297C18.0706 5.54297 17.5906 5.81297 17.1256 6.03797C16.9156 6.14297 16.7806 6.12797 16.7206 6.03797C16.6606 5.94797 16.7206 5.82797 16.9306 5.67797C18.5656 4.44797 20.0956 2.39297 20.8606 0.577968C20.9506 0.352969 21.1156 0.277969 21.3406 0.337968L23.0056 0.742968ZM20.5306 3.72797C20.3056 3.93797 20.3356 4.13297 20.5606 4.20797L20.7406 4.26797C20.9056 4.32797 21.0406 4.34297 21.2056 4.34297H23.3356C23.5306 4.34297 23.6806 4.28297 23.8006 4.11797C24.0556 3.80297 24.2956 3.42797 24.4906 3.08297C24.6406 2.82797 24.5056 2.63297 24.2206 2.63297H21.9256C21.7456 2.63297 21.5956 2.69297 21.4606 2.84297C21.1456 3.14297 20.8456 3.44297 20.5306 3.72797ZM20.6206 9.12797C20.5906 9.38297 20.7106 9.53297 20.9656 9.53297H22.7656C23.0056 9.53297 23.1406 9.39797 23.1406 9.15797V7.91297C23.1406 7.67297 23.0056 7.53797 22.7656 7.53797H21.0706C20.8306 7.53797 20.6956 7.55297 20.6956 7.58297V7.62797C20.6956 8.10797 20.6806 8.61797 20.6206 9.12797ZM20.6956 6.51797C20.6956 6.75797 20.8306 6.89297 21.0706 6.89297H22.7656C23.0056 6.89297 23.1406 6.75797 23.1406 6.51797V5.36297C23.1406 5.12297 23.0056 4.98797 22.7656 4.98797H21.0706C20.8306 4.98797 20.6956 5.12297 20.6956 5.36297V6.51797ZM24.7456 9.15797C24.7456 9.39797 24.8806 9.53297 25.1206 9.53297H26.9356C27.1756 9.53297 27.3106 9.39797 27.3106 9.15797V7.91297C27.3106 7.67297 27.1756 7.53797 26.9356 7.53797H25.1206C24.8806 7.53797 24.7456 7.67297 24.7456 7.91297V9.15797ZM24.7456 6.51797C24.7456 6.75797 24.8806 6.89297 25.1206 6.89297H26.9356C27.1756 6.89297 27.3106 6.75797 27.3106 6.51797V5.36297C27.3106 5.12297 27.1756 4.98797 26.9356 4.98797H25.1206C24.8806 4.98797 24.7456 5.12297 24.7456 5.36297V6.51797ZM44.7806 2.40797C44.9306 2.22797 45.1256 2.21297 45.3056 2.34797C45.7256 2.66297 46.2206 3.02297 46.6106 3.35297C46.7756 3.48797 46.8806 3.65297 46.7606 3.83297C46.6856 3.93797 46.5506 3.96797 46.4156 3.96797H45.4256C45.2006 3.96797 45.0656 4.08797 45.0356 4.31297C44.7056 6.53297 44.0756 8.46797 42.9656 10.073C42.8306 10.268 42.8456 10.433 43.0256 10.598C44.0006 11.393 45.1556 12.038 46.5056 12.428C46.7306 12.488 46.8356 12.563 46.8206 12.698C46.8056 12.833 46.7006 12.908 46.5056 12.998C46.0406 13.193 45.6356 13.538 45.4106 14.003C45.3056 14.228 45.1706 14.318 44.9456 14.213C43.7156 13.643 42.7256 12.878 41.8706 11.888C41.7056 11.693 41.5256 11.678 41.3456 11.843C40.1456 12.878 38.6906 13.688 36.8156 14.318C36.6056 14.393 36.4556 14.363 36.4106 14.258C36.3506 14.153 36.4406 14.033 36.6656 13.928C38.4506 13.013 39.7856 11.963 40.7456 10.748C40.8656 10.583 40.8806 10.433 40.7756 10.238C39.9656 8.69297 39.4406 6.72797 39.1256 4.32797C39.0956 4.08797 38.9606 3.96797 38.7356 3.96797C38.5556 3.96797 38.3306 3.99797 38.3756 4.02797C38.6006 4.14797 38.7206 4.38797 38.4956 4.50797C38.4656 4.52297 38.4206 4.53797 38.3906 4.55297C38.1806 4.59797 38.0456 4.62797 37.9106 4.79297C37.1606 5.81297 36.0206 7.02797 34.9106 8.01797C34.6406 8.25797 34.7306 8.45297 35.0756 8.42297C35.9606 8.31797 36.9956 8.18297 38.0306 8.04797C38.2706 8.00297 38.4206 8.06297 38.4356 8.18297C38.4506 8.31797 38.3606 8.43797 38.1656 8.51297C37.2206 8.91797 35.7656 9.51797 34.0856 10.118C33.9056 10.178 33.8306 10.208 33.8306 10.208L33.8156 10.223C33.6806 10.403 33.4406 10.343 33.3356 10.103L32.8256 8.96297C32.7206 8.72297 32.7806 8.58797 32.9756 8.52797C33.0956 8.49797 33.2156 8.46797 33.2606 8.43797C33.8306 7.95797 34.4606 7.16297 35.0306 6.30797C35.2406 5.99297 35.0306 5.75297 34.6856 5.88797C34.3856 6.00797 34.0706 6.12797 33.7556 6.23297C33.7556 6.23297 33.3956 6.32297 33.2906 6.06797L32.7956 4.97297C32.6906 4.74797 32.7356 4.58297 32.9006 4.53797C32.9156 4.53797 32.9306 4.52297 32.9456 4.52297C33.1106 4.46297 33.2006 4.40297 33.3056 4.26797C34.0106 3.45797 34.8356 1.80797 35.1956 0.712968C35.2706 0.487969 35.4356 0.397968 35.6606 0.487969L37.0856 0.997968C37.3106 1.07297 37.4606 1.29797 37.2806 1.47797C37.2506 1.50797 37.2056 1.53797 37.1456 1.55297C36.9506 1.61297 36.8156 1.65797 36.6956 1.80797C36.1256 2.58797 35.3156 3.45797 34.5506 4.17797C34.2956 4.40297 34.0856 4.62797 34.1156 4.62797H34.1906C34.2956 4.62797 34.4156 4.61297 34.5206 4.61297L35.3456 4.56797C35.4956 4.56797 35.6456 4.56797 35.7956 4.55297C36.0056 4.53797 36.1406 4.46297 36.2306 4.26797C36.3656 3.99797 36.4856 3.75797 36.5756 3.53297C36.6806 3.30797 36.8456 3.23297 37.0706 3.35297L37.4456 3.54797C37.7306 3.69797 37.9706 3.80297 37.9706 3.77297L37.9556 3.74297C37.8806 3.47297 38.0006 3.32297 38.2706 3.32297H41.4506C41.4356 3.32297 41.4206 3.30797 41.4056 3.30797C41.2406 3.24797 41.1656 3.08297 41.1356 2.88797C41.0306 2.16797 40.6556 1.38797 40.2056 0.757968C40.0556 0.562968 40.0256 0.427968 40.0856 0.382968C40.1606 0.337968 40.2806 0.322968 40.4756 0.382968C42.9356 1.04297 43.1606 2.42297 42.6056 3.06797C42.4256 3.26297 42.4406 3.32297 42.7106 3.32297H43.7306C43.9256 3.32297 44.0756 3.26297 44.1956 3.11297L44.7806 2.40797ZM32.8556 12.098C32.7506 11.858 32.8256 11.678 33.0806 11.618C34.2206 11.378 36.3056 10.868 38.3606 10.313C38.5856 10.238 38.7356 10.253 38.7656 10.373C38.7956 10.493 38.7206 10.598 38.5406 10.718C37.5356 11.378 36.0956 12.218 34.1756 13.178C33.9956 13.268 33.9206 13.328 33.8906 13.388C33.7556 13.613 33.5156 13.523 33.4106 13.283L32.8556 12.098ZM39.7706 3.96797C39.5156 3.96797 39.3806 4.11797 39.4406 4.38797C39.8456 6.09797 40.5056 7.58297 41.4356 8.85797C41.6006 9.09797 41.8406 9.06797 41.9606 8.81297C42.6206 7.44797 42.9806 5.99297 43.1606 4.35797C43.1906 4.11797 43.0556 3.96797 42.8156 3.96797H39.7706Z" fill="#7A6855"/>
</svg>
