<svg width="95" height="24" viewBox="0 0 95 24" fill="none" xmlns="http://www.w3.org/2000/svg">
<path d="M8.788 16.32C8.908 16.176 9.1 16.128 9.46 16.176C13.852 16.776 13.324 19.392 11.86 19.224C11.572 19.2 11.428 19.032 11.236 18.792C10.78 18.192 9.916 17.424 9.148 16.872C8.812 16.656 8.692 16.464 8.788 16.32ZM0.844 12.48C0.772 12.192 0.964 12 1.396 12H18.7L19.492 11.136C16.588 10.104 15.268 8.328 14.572 6.6C13.948 8.52 12.364 10.248 6.892 11.544C6.508 11.616 6.292 11.52 6.196 11.304C6.1 11.088 6.268 10.896 6.676 10.752C11.476 9.072 12.388 7.224 12.652 5.016C12.7 4.632 12.916 4.416 13.3 4.464L15.028 4.632C15.436 4.68 15.748 4.992 15.46 5.304C15.316 5.424 15.1 5.52 14.836 5.544L14.788 5.784C15.484 7.104 17.428 8.376 21.532 9.144C21.916 9.216 22.108 9.312 22.108 9.504C22.084 9.696 21.916 9.792 21.556 9.888C20.956 10.056 20.572 10.344 20.404 10.872C20.788 11.136 21.412 11.592 21.988 12.048C22.252 12.288 22.396 12.576 22.156 12.816C22.036 12.936 21.892 12.96 21.7 12.96H8.956L8.284 14.784H15.196L15.7 14.208C15.94 13.92 16.228 13.896 16.54 14.088L17.956 15.048C18.316 15.288 18.412 15.672 18.076 15.816C17.908 15.888 17.692 15.912 17.476 15.912C17.38 16.44 17.308 16.872 17.212 17.28C16.9 18.96 16.708 19.872 16.732 20.328C16.732 20.64 16.852 20.688 17.428 20.688H19.924C20.692 20.688 20.812 20.616 20.908 20.424C21.1 19.992 21.316 19.272 21.484 18.504C21.58 18.144 21.676 17.976 21.748 17.976C21.82 17.976 21.868 18.168 21.868 18.576L21.844 20.424C22.636 20.64 22.828 20.808 22.828 21.288C22.828 22.152 22.036 22.68 19.972 22.68H17.14C15.172 22.68 14.596 22.032 14.572 20.52C14.548 19.968 14.668 19.368 14.836 18.384C14.956 17.688 15.1 16.824 15.268 15.72H7.948C7.252 17.52 6.556 19.44 6.076 20.496C7.876 20.352 10.18 20.088 12.46 19.8C12.844 19.752 13.084 19.824 13.108 20.04C13.132 20.232 12.964 20.4 12.628 20.496C10.636 21.072 7.708 21.912 4.42 22.68C4.42 22.68 3.964 22.776 3.748 22.392L3.076 21.192C2.884 20.856 3.004 20.616 3.316 20.4C3.604 20.184 3.892 19.872 4.06 19.56C4.492 18.768 5.86 14.856 6.508 12.96H1.492C1.132 12.96 0.916 12.792 0.844 12.48ZM1.948 2.016C1.612 1.776 1.492 1.56 1.588 1.464C1.708 1.344 1.9 1.296 2.236 1.344C6.94 1.824 6.148 4.992 4.444 4.704C4.132 4.632 4.012 4.464 3.916 4.248C3.556 3.504 2.764 2.616 1.948 2.016ZM2.02 7.992C1.66 7.92 1.468 7.776 1.468 7.536C1.468 7.296 1.684 7.152 2.068 7.152H2.74C3.124 7.152 3.22 7.152 3.556 6.84C4.156 6.336 4.18 6.312 8.164 2.472C8.452 2.184 8.668 2.112 8.812 2.184C8.932 2.28 8.908 2.496 8.668 2.808C8.14 3.504 7.396 4.44 6.724 5.28C6.1 6.024 5.548 6.744 5.404 6.936C5.044 7.464 4.804 7.872 4.804 8.184C4.804 8.424 4.9 8.688 5.02 9C5.188 9.408 5.38 9.912 5.356 10.632C5.332 11.52 4.804 11.976 3.892 11.976C3.604 11.976 3.316 11.76 3.148 11.376C3.052 11.112 3.076 10.92 3.1 10.632C3.268 9.096 3.172 8.424 2.62 8.184C2.428 8.112 2.236 8.04 2.02 7.992ZM6.676 7.92C6.556 7.824 6.652 7.632 6.916 7.32C8.332 5.688 9.484 3.216 10.084 1.032C10.18 0.671999 10.444 0.527999 10.804 0.576L12.772 0.863999C13.204 0.935999 13.54 1.32 13.204 1.512C13.084 1.584 12.892 1.608 12.58 1.608C12.268 2.208 11.956 2.784 11.572 3.312H18.676L19.468 2.592C19.732 2.352 20.02 2.328 20.308 2.592L21.628 3.744C21.964 4.056 22.012 4.44 21.676 4.536C21.508 4.56 21.316 4.584 21.076 4.608C20.38 5.28 19.252 6.12 18.364 6.672C18.076 6.864 17.908 6.912 17.812 6.84C17.716 6.792 17.74 6.576 17.884 6.216C18.148 5.616 18.436 4.872 18.652 4.248H10.924C9.892 5.64 8.62 6.912 7.276 7.8C6.988 7.992 6.796 8.016 6.676 7.92ZM36.052 8.592C36.436 8.712 36.7 9.12 36.34 9.312C36.172 9.408 35.956 9.408 35.692 9.384C35.38 9.888 35.068 10.344 34.732 10.776H39.58C39.388 10.152 38.74 9.24 38.092 8.616C37.708 8.712 37.372 8.784 36.988 8.784C36.82 8.784 36.7 8.568 36.7 8.184V2.16C36.7 1.728 36.988 1.512 37.396 1.68L38.884 2.232H42.172L42.844 1.56C43.108 1.296 43.396 1.272 43.684 1.488L45.076 2.496C45.436 2.76 45.484 3.096 45.148 3.312C44.956 3.408 44.764 3.48 44.524 3.528V7.944C44.524 8.208 44.5 8.448 44.26 8.592C43.9 8.784 43.252 8.952 42.748 8.952C42.532 8.952 42.388 8.736 42.388 8.352V7.776H38.788V8.016C41.548 8.592 41.572 10.248 40.756 10.776H42.94L43.852 9.672C44.092 9.384 44.404 9.36 44.692 9.576C45.22 9.96 45.796 10.416 46.3 10.8C46.588 11.04 46.756 11.352 46.492 11.568C46.372 11.688 46.204 11.712 46.012 11.712H38.452C40.252 12.96 42.844 13.848 46.372 14.256C46.78 14.304 46.972 14.424 46.972 14.568C46.948 14.736 46.804 14.856 46.564 15.072C46.3 15.312 46.132 15.648 46.036 16.104C45.94 16.488 45.724 16.68 45.34 16.56C45.148 16.512 44.956 16.44 44.764 16.392C44.548 16.488 44.332 16.584 44.092 16.632V21.696C44.092 21.96 44.068 22.176 43.852 22.32C43.492 22.536 42.82 22.704 42.316 22.704C42.1 22.704 41.956 22.488 41.956 22.104V21.432H38.524V22.368C38.524 22.728 37.612 23.064 36.748 23.064C36.556 23.064 36.436 22.848 36.436 22.464V15.24C36.436 14.808 36.724 14.592 37.132 14.76L38.644 15.36H41.74L41.86 15.24C39.988 14.328 38.692 13.152 37.54 11.712H33.916C32.644 13.032 31.036 14.256 28.948 15.264L29.236 15.36H32.14L32.788 14.712C33.052 14.448 33.34 14.424 33.628 14.64L34.948 15.576C35.284 15.816 35.38 16.2 35.044 16.392C34.852 16.488 34.66 16.536 34.444 16.584V21.888C34.396 22.224 33.436 22.584 32.716 22.584C32.5 22.584 32.356 22.368 32.356 22.008V21.432H29.14V22.488C29.14 22.848 28.228 23.208 27.388 23.208C27.196 23.208 27.076 22.992 27.076 22.608V16.08C26.38 16.344 25.636 16.584 24.892 16.824C24.532 16.92 24.316 16.872 24.244 16.704C24.148 16.536 24.316 16.368 24.7 16.224C27.604 15 29.74 13.392 31.252 11.712H25.18C24.844 11.712 24.604 11.568 24.508 11.232C24.412 10.968 24.652 10.776 25.084 10.776H32.02C32.644 9.96 33.124 9.192 33.484 8.448C33.172 8.544 32.86 8.592 32.62 8.592C32.404 8.592 32.26 8.448 32.26 8.184V7.776H28.852V8.88C28.852 9.24 27.916 9.576 27.1 9.576C26.932 9.576 26.812 9.36 26.812 8.976V2.136C26.812 1.704 27.1 1.488 27.508 1.656L28.972 2.232H32.044L32.692 1.608C32.956 1.368 33.244 1.32 33.532 1.536L34.852 2.472C35.188 2.712 35.284 3.096 34.948 3.288C34.756 3.384 34.564 3.432 34.348 3.48V7.896C34.348 7.944 34.348 7.968 34.324 8.016L36.052 8.592ZM28.852 6.84H32.26V3.192H28.852V6.84ZM29.14 20.496H32.356V16.296H29.14V20.496ZM38.524 20.496H41.956V16.296H38.524V20.496ZM38.788 6.84H42.388V3.192H38.788V6.84ZM56.428 1.008C56.836 1.056 57.148 1.368 56.884 1.704C56.764 1.872 56.548 1.968 56.212 2.016V4.8H58.372L59.212 3.768C59.452 3.48 59.74 3.408 60.052 3.648C60.532 4.032 61.036 4.44 61.492 4.848C61.756 5.064 61.924 5.352 61.66 5.592C61.54 5.712 61.372 5.736 61.18 5.736H56.212V8.688H58.972L59.812 7.632C60.052 7.344 60.364 7.296 60.652 7.536C61.132 7.896 61.66 8.328 62.14 8.712C62.404 8.952 62.548 9.24 62.308 9.48C62.188 9.6 62.044 9.624 61.852 9.624H56.212V12.24H58.636L59.212 11.592C59.452 11.328 59.764 11.28 60.052 11.496L61.492 12.504C61.828 12.744 61.924 13.104 61.564 13.296C61.396 13.416 61.18 13.488 60.964 13.512V18.768C60.964 20.016 60.724 20.856 59.164 21.192C58.756 21.288 58.516 21.048 58.492 20.64C58.468 20.472 58.444 20.328 58.396 20.184C58.3 19.944 58.204 19.776 57.988 19.632C57.892 19.584 57.772 19.512 57.628 19.464C57.292 19.368 57.1 19.224 57.1 19.032C57.1 18.864 57.316 18.744 57.724 18.768C58.06 18.792 58.348 18.816 58.492 18.816C58.828 18.816 58.852 18.768 58.852 18.552V13.176H56.212V22.224C56.212 22.656 55.252 23.064 54.508 23.064C54.244 23.064 54.1 22.848 54.1 22.464V13.176H51.508V20.688C51.508 21.048 50.548 21.408 49.756 21.408C49.564 21.408 49.444 21.192 49.444 20.808V12.144C49.444 11.712 49.732 11.496 50.14 11.664L51.628 12.24H54.1V9.624H48.94C48.604 9.624 48.388 9.48 48.292 9.144C48.196 8.88 48.436 8.688 48.868 8.688H54.1V5.736H51.172C50.596 6.624 49.972 7.392 49.348 7.992C49.084 8.256 48.916 8.328 48.772 8.232C48.628 8.16 48.652 7.944 48.82 7.584C49.516 6.096 50.164 4.08 50.524 2.064C50.62 1.656 50.836 1.488 51.244 1.608L52.972 2.088C53.38 2.208 53.62 2.568 53.284 2.808C53.14 2.904 52.948 2.952 52.66 2.952C52.372 3.624 52.036 4.248 51.724 4.8H54.1V1.416C54.1 1.032 54.34 0.791998 54.724 0.839999L56.428 1.008ZM63.364 18.048C63.244 18.048 63.172 17.832 63.172 17.448V3.288C63.172 2.904 63.412 2.664 63.796 2.712L65.356 2.856C65.764 2.904 66.076 3.24 65.788 3.552C65.668 3.672 65.452 3.768 65.164 3.816V17.328C65.164 17.688 64.348 18.048 63.556 18.048H63.364ZM64.756 21.12C64.372 21.048 64.18 20.904 64.18 20.712C64.18 20.52 64.396 20.424 64.804 20.448C65.788 20.52 66.724 20.592 66.988 20.592C67.396 20.592 67.492 20.496 67.492 20.208V1.728C67.492 1.344 67.732 1.128 68.116 1.176L69.82 1.32C70.228 1.368 70.54 1.68 70.252 2.016C70.108 2.16 69.892 2.256 69.58 2.304V20.376C69.58 21.768 69.316 22.68 67.3 23.016C66.916 23.088 66.676 22.896 66.604 22.512C66.508 22.176 66.412 21.912 66.148 21.648C65.884 21.432 65.476 21.24 64.756 21.12ZM91.084 9.552C91.324 9.24 91.636 9.216 91.924 9.456C92.428 9.816 93.004 10.272 93.484 10.656C93.748 10.896 93.892 11.184 93.652 11.424C93.532 11.544 93.388 11.568 93.196 11.568H87.484V15.792H90.412L91.396 14.64C91.636 14.352 91.924 14.304 92.212 14.52C92.788 14.928 93.436 15.408 93.964 15.84C94.228 16.08 94.396 16.392 94.132 16.608C93.988 16.728 93.82 16.752 93.652 16.752H87.484V22.368C87.484 22.68 86.788 23.064 85.54 23.064C85.276 23.064 85.132 22.848 85.132 22.464V6.528H83.908C82.54 8.592 81.052 10.392 79.444 11.736C79.156 11.976 78.964 12.024 78.844 11.904C78.724 11.808 78.772 11.592 78.988 11.28C80.764 8.76 82.612 5.04 83.74 1.296C83.86 0.935999 84.124 0.791998 84.484 0.912L86.5 1.56C86.884 1.68 87.148 2.064 86.788 2.304C86.644 2.4 86.428 2.424 86.14 2.424C85.612 3.576 85.036 4.632 84.484 5.616H90.916L91.924 4.392C92.164 4.104 92.476 4.08 92.764 4.296C93.34 4.704 93.964 5.184 94.492 5.616C94.756 5.856 94.924 6.144 94.66 6.384C94.54 6.504 94.372 6.528 94.18 6.528H87.484V10.632H90.196L91.084 9.552ZM72.244 13.248C72.124 13.128 72.172 12.96 72.388 12.648C74.404 9.792 76.492 5.568 77.74 1.272C77.86 0.887999 78.124 0.743999 78.484 0.863999L80.5 1.488C80.884 1.608 81.148 1.992 80.788 2.232C80.62 2.352 80.404 2.376 80.116 2.352C79.324 4.224 78.436 5.976 77.476 7.512L78.028 7.68C78.436 7.824 78.652 8.136 78.388 8.376C78.268 8.472 78.124 8.544 77.884 8.568V22.344C77.836 22.704 76.924 23.088 76.036 23.088C75.772 23.088 75.604 22.872 75.604 22.488V10.128C74.716 11.256 73.78 12.216 72.844 13.056C72.556 13.296 72.364 13.368 72.244 13.248Z" fill="#7A6753"/>
</svg>
