<svg width="79" height="15" viewBox="0 0 79 15" fill="none" xmlns="http://www.w3.org/2000/svg">
<path d="M7.92 2.295C6.38 4.875 3.975 6.88 0.705 8.31L0.57 8.04C3.64 6.17 5.805 3.665 7.065 0.524999C8.275 1.035 8.88 1.37 8.88 1.53C8.88 1.6 8.785 1.645 8.595 1.665C8.405 1.685 8.27 1.755 8.19 1.875C8.72 2.945 9.57 3.885 10.74 4.695C11.92 5.495 13.26 6.06 14.76 6.39L14.73 6.75C14.11 6.74 13.685 6.785 13.455 6.885C13.225 6.975 13 7.17 12.78 7.47C12.73 7.54 12.665 7.575 12.585 7.575C12.395 7.575 11.705 7.085 10.515 6.105C9.335 5.125 8.47 3.855 7.92 2.295ZM6.825 4.77C7.425 4.84 7.875 4.93 8.175 5.04C8.475 5.14 8.625 5.22 8.625 5.28C8.625 5.35 8.49 5.45 8.22 5.58V12.39C8.22 12.72 8.23 13.07 8.25 13.44L8.265 13.95C8.265 14.03 8.215 14.105 8.115 14.175C8.025 14.245 7.84 14.325 7.56 14.415C7.28 14.505 7.065 14.55 6.915 14.55C6.845 14.55 6.81 14.475 6.81 14.325L6.84 13.74C6.85 13.34 6.855 12.89 6.855 12.39V6.105C6.855 5.605 6.845 5.16 6.825 4.77ZM23.575 3.09C23.305 6.44 22.75 8.88 21.91 10.41C21.07 11.94 19.325 13.34 16.675 14.61L16.54 14.355C18.73 12.985 20.21 11.36 20.98 9.48C21.76 7.6 22.22 4.69 22.36 0.749999C22.82 0.859999 23.245 0.985 23.635 1.125C24.025 1.255 24.25 1.345 24.31 1.395C24.38 1.435 24.415 1.485 24.415 1.545C24.415 1.605 24.325 1.67 24.145 1.74C23.975 1.8 23.855 1.875 23.785 1.965C24.215 5.025 24.985 7.46 26.095 9.27C27.215 11.08 28.725 12.34 30.625 13.05L30.58 13.335C30.3 13.315 30.03 13.305 29.77 13.305C29.51 13.305 29.285 13.35 29.095 13.44C28.905 13.53 28.68 13.705 28.42 13.965C28.35 14.035 28.295 14.07 28.255 14.07C28.135 14.07 27.63 13.565 26.74 12.555C25.85 11.555 25.16 10.39 24.67 9.06C24.18 7.72 23.815 5.73 23.575 3.09ZM40.13 3.24H43.58L44.225 2.25C44.295 2.13 44.365 2.07 44.435 2.07C44.505 2.07 44.63 2.14 44.81 2.28C45 2.42 45.245 2.62 45.545 2.88C45.845 3.13 46.035 3.3 46.115 3.39C46.205 3.47 46.25 3.54 46.25 3.6C46.25 3.7 46.145 3.75 45.935 3.75H41.45V6.675H43.28L43.85 5.82C43.92 5.72 43.995 5.67 44.075 5.67C44.155 5.67 44.295 5.745 44.495 5.895L45.245 6.48C45.555 6.71 45.71 6.88 45.71 6.99C45.71 7.09 45.62 7.14 45.44 7.14H41.45V9.885H43.475L44.12 8.955C44.19 8.855 44.27 8.805 44.36 8.805C44.46 8.805 44.76 9.02 45.26 9.45C45.76 9.88 46.01 10.14 46.01 10.23C46.01 10.31 45.91 10.35 45.71 10.35H41.45V13.8C41.45 13.86 41.43 13.905 41.39 13.935C41.36 13.975 41.255 14.05 41.075 14.16C40.905 14.27 40.72 14.36 40.52 14.43C40.32 14.51 40.19 14.55 40.13 14.55C40.08 14.55 40.055 14.505 40.055 14.415L40.115 13.02C40.125 12.6 40.13 12.185 40.13 11.775V3.75H39.875C39.225 5.01 38.135 6.415 36.605 7.965L36.38 7.74C37.26 6.57 37.95 5.435 38.45 4.335C38.95 3.225 39.37 1.945 39.71 0.495C40.34 0.685 40.775 0.85 41.015 0.99C41.255 1.12 41.375 1.21 41.375 1.26C41.375 1.33 41.295 1.385 41.135 1.425C40.975 1.455 40.855 1.575 40.775 1.785C40.695 1.995 40.48 2.48 40.13 3.24ZM34.955 6.315C34.315 7.245 33.525 8.17 32.585 9.09L32.36 8.895C34.24 6.365 35.485 3.575 36.095 0.524999C37.285 0.894999 37.88 1.15 37.88 1.29C37.88 1.35 37.805 1.4 37.655 1.44C37.505 1.48 37.385 1.565 37.295 1.695C37.205 1.815 37.03 2.205 36.77 2.865C36.52 3.515 36.205 4.195 35.825 4.905C36.155 5.025 36.355 5.105 36.425 5.145C36.495 5.185 36.53 5.23 36.53 5.28C36.53 5.33 36.42 5.415 36.2 5.535V13.68C36.2 13.76 36.19 13.815 36.17 13.845C36.15 13.875 36.045 13.94 35.855 14.04C35.675 14.15 35.49 14.24 35.3 14.31C35.11 14.38 34.99 14.415 34.94 14.415C34.9 14.415 34.88 14.36 34.88 14.25L34.925 13.455C34.945 12.915 34.955 12.295 34.955 11.595V6.315ZM53.625 1.545H57.69L58.035 0.915C58.095 0.804999 58.165 0.749999 58.245 0.749999C58.325 0.749999 58.595 0.889999 59.055 1.17C59.515 1.44 59.745 1.63 59.745 1.74C59.745 1.85 59.56 2.01 59.19 2.22V4.98C59.19 5.18 59.195 5.355 59.205 5.505L59.235 5.865C59.235 5.945 59.185 6.02 59.085 6.09C58.995 6.15 58.81 6.23 58.53 6.33C58.26 6.42 58.06 6.465 57.93 6.465C57.85 6.465 57.81 6.42 57.81 6.33V5.4H53.43V5.925C53.43 6.045 53.38 6.145 53.28 6.225C53.18 6.295 53.015 6.38 52.785 6.48C52.555 6.57 52.38 6.615 52.26 6.615C52.14 6.615 52.08 6.57 52.08 6.48L52.11 5.475V2.16C52.11 1.74 52.095 1.315 52.065 0.884999C52.655 1.075 53.175 1.295 53.625 1.545ZM57.81 4.95V1.98H53.43V4.95H57.81ZM57.87 7.485H59.895L60.285 6.915C60.355 6.815 60.43 6.765 60.51 6.765C60.59 6.765 60.85 6.91 61.29 7.2C61.73 7.49 61.95 7.705 61.95 7.845C61.95 7.975 61.775 8.16 61.425 8.4V12.285L61.47 13.185C61.47 13.245 61.435 13.305 61.365 13.365C61.295 13.435 61.105 13.525 60.795 13.635C60.485 13.745 60.265 13.8 60.135 13.8C60.075 13.8 60.045 13.745 60.045 13.635V12.09H57.72V13.125C57.72 13.235 57.67 13.33 57.57 13.41C57.47 13.49 57.295 13.585 57.045 13.695C56.795 13.805 56.625 13.86 56.535 13.86C56.455 13.86 56.415 13.82 56.415 13.74L56.445 12.705V8.19C56.445 7.77 56.43 7.345 56.4 6.915C57.13 7.135 57.62 7.325 57.87 7.485ZM60.045 11.625V7.98H57.72V11.625H60.045ZM51.435 7.62H53.34L53.625 7.125C53.685 7.025 53.745 6.975 53.805 6.975C53.875 6.975 54.05 7.055 54.33 7.215C54.62 7.375 54.84 7.515 54.99 7.635C55.14 7.745 55.215 7.835 55.215 7.905C55.215 8.025 55.06 8.185 54.75 8.385V11.865L54.795 12.765C54.795 12.895 54.62 13.03 54.27 13.17C53.92 13.31 53.7 13.38 53.61 13.38C53.53 13.38 53.49 13.325 53.49 13.215V12.09H51.21V13.29C51.21 13.39 51.195 13.46 51.165 13.5C51.135 13.54 51.035 13.605 50.865 13.695C50.705 13.795 50.535 13.87 50.355 13.92C50.175 13.97 50.05 13.995 49.98 13.995C49.92 13.995 49.89 13.95 49.89 13.86L49.92 12.855V8.175C49.92 7.755 49.905 7.33 49.875 6.9C50.515 7.1 51.035 7.34 51.435 7.62ZM53.49 11.625V8.085H51.21V11.625H53.49ZM67.75 1.83H75.13L75.55 1.29C75.61 1.21 75.67 1.17 75.73 1.17C75.8 1.17 76.055 1.305 76.495 1.575C76.945 1.845 77.17 2.035 77.17 2.145C77.17 2.245 76.97 2.39 76.57 2.58V3.96C76.57 4.11 76.575 4.25 76.585 4.38L76.615 4.695C76.615 4.755 76.59 4.805 76.54 4.845C76.5 4.885 76.34 4.94 76.06 5.01C75.79 5.08 75.565 5.115 75.385 5.115C75.305 5.115 75.265 5.07 75.265 4.98V4.545H67.615C67.605 5.295 67.59 5.93 67.57 6.45C67.77 6.49 68.005 6.51 68.275 6.51H69.625C69.625 5.46 69.615 4.85 69.595 4.68C70.775 4.85 71.365 5.015 71.365 5.175C71.365 5.285 71.185 5.43 70.825 5.61V6.51H72.97C72.97 5.42 72.96 4.795 72.94 4.635C73.33 4.695 73.67 4.76 73.96 4.83C74.25 4.9 74.435 4.955 74.515 4.995C74.605 5.025 74.65 5.065 74.65 5.115C74.65 5.215 74.49 5.34 74.17 5.49V6.51H75.055L75.55 5.79C75.63 5.67 75.705 5.61 75.775 5.61C75.895 5.61 76.16 5.785 76.57 6.135C76.98 6.475 77.185 6.7 77.185 6.81C77.185 6.92 77.1 6.975 76.93 6.975H74.17V8.715H75.94L76.51 7.89C76.59 7.77 76.67 7.71 76.75 7.71C76.84 7.71 77.11 7.9 77.56 8.28C78.02 8.65 78.25 8.895 78.25 9.015C78.25 9.125 78.175 9.18 78.025 9.18H71.77C72.16 9.89 72.625 10.485 73.165 10.965C74.185 10.285 74.935 9.72 75.415 9.27C75.745 9.48 76.045 9.695 76.315 9.915C76.585 10.125 76.735 10.255 76.765 10.305C76.805 10.345 76.825 10.385 76.825 10.425C76.825 10.545 76.74 10.585 76.57 10.545C76.47 10.525 76.37 10.515 76.27 10.515C76.05 10.515 75.725 10.585 75.295 10.725C74.875 10.855 74.315 11.05 73.615 11.31C74.695 12.09 76.34 12.61 78.55 12.87V13.29C78.03 13.29 77.61 13.34 77.29 13.44C76.97 13.54 76.715 13.775 76.525 14.145C76.485 14.215 76.435 14.25 76.375 14.25C76.155 14.25 75.375 13.8 74.035 12.9C72.705 12.01 71.785 10.77 71.275 9.18H70.015V12.66L72.295 11.835L72.475 12.09C71.445 12.84 70.725 13.385 70.315 13.725C69.905 14.075 69.63 14.355 69.49 14.565C69.43 14.655 69.365 14.7 69.295 14.7C69.235 14.7 69.095 14.55 68.875 14.25C68.655 13.95 68.48 13.675 68.35 13.425C68.52 13.285 68.635 13.145 68.695 13.005C68.765 12.865 68.8 12.625 68.8 12.285V9.18H68.29C68.02 9.18 67.81 9.215 67.66 9.285L67.42 8.835C67.32 9.915 67.075 10.875 66.685 11.715C66.295 12.545 65.67 13.48 64.81 14.52L64.51 14.25C65.18 13.02 65.635 11.765 65.875 10.485C66.115 9.205 66.235 7.925 66.235 6.645C66.235 5.355 66.195 3.525 66.115 1.155C66.805 1.365 67.35 1.59 67.75 1.83ZM75.265 4.065V2.34H67.66C67.64 3.2 67.63 3.775 67.63 4.065H75.265ZM67.555 6.63C67.545 7.42 67.505 8.095 67.435 8.655C67.635 8.695 67.87 8.715 68.14 8.715H69.625V6.975H68.44C68.17 6.975 67.96 7.01 67.81 7.08L67.555 6.63ZM72.97 6.975H70.825V8.715H72.97V6.975Z" fill="#9A764E"/>
</svg>
