<svg width="175" height="54" viewBox="0 0 175 54" fill="none" xmlns="http://www.w3.org/2000/svg">
<path d="M78.472 8.292C78.652 8.076 78.868 8.04 79.102 8.22C79.462 8.508 79.894 8.832 80.236 9.138C80.434 9.318 80.56 9.534 80.362 9.714C80.272 9.804 80.146 9.822 80.002 9.822H76.024V12.738H78.364L79.03 11.892C79.21 11.676 79.444 11.64 79.678 11.82C80.038 12.108 80.47 12.45 80.83 12.756C81.028 12.936 81.136 13.152 80.956 13.332C80.866 13.422 80.758 13.44 80.614 13.44H77.392V17.742C77.392 17.904 77.41 17.922 77.788 17.922H78.58C78.922 17.922 79.174 17.922 79.3 17.904C79.48 17.904 79.552 17.868 79.606 17.76C79.696 17.544 79.822 17.04 79.984 16.392L80.128 15.852C80.2 15.6 80.272 15.456 80.326 15.456C80.38 15.456 80.434 15.6 80.434 15.906L80.47 17.796C80.866 17.94 80.956 18.174 80.956 18.48C80.956 19.146 80.416 19.434 78.454 19.434H77.32C76.06 19.434 75.844 19.074 75.844 18.102V13.44H74.278C73.99 16.518 72.82 18.444 69.886 19.65C71.218 20.334 73.036 20.514 75.664 20.514C77.518 20.514 79.102 20.496 80.938 20.424C81.244 20.406 81.406 20.478 81.406 20.604C81.406 20.73 81.28 20.802 81.028 20.91C80.668 21.072 80.434 21.342 80.308 21.648C80.218 21.918 80.092 22.044 79.822 22.044H75.124C71.578 22.044 69.958 21.414 68.356 19.38C68.104 19.146 67.87 19.182 67.726 19.398L67.132 20.298C66.772 20.802 66.358 21.432 66.07 21.882C66.07 21.882 65.746 22.116 65.53 21.828L64.9 21.036C64.72 20.802 64.756 20.568 65.008 20.406C65.386 20.172 65.764 19.884 66.16 19.596C66.466 19.38 66.79 19.128 67.006 18.984V12.738H65.188C64.918 12.738 64.756 12.612 64.72 12.378C64.684 12.162 64.846 12.036 65.152 12.036H66.754L67.294 11.352C67.474 11.136 67.726 11.1 67.942 11.28L69.094 12.18C69.346 12.378 69.382 12.666 69.094 12.792C68.95 12.864 68.77 12.9 68.518 12.936V18.66L68.572 18.714C68.842 19.002 69.184 19.254 69.58 19.488C69.544 19.38 69.634 19.272 69.868 19.11C71.92 17.634 72.442 15.906 72.55 13.44H70.552C70.3 13.44 70.138 13.332 70.066 13.08C69.994 12.882 70.174 12.738 70.498 12.738H74.404V9.822H72.154C71.65 10.722 71.092 11.496 70.48 12.09C70.3 12.288 70.156 12.324 70.048 12.27C69.958 12.234 69.976 12.054 70.102 11.784C70.75 10.47 71.254 8.706 71.542 6.906C71.596 6.6 71.776 6.474 72.064 6.546L73.36 6.852C73.648 6.924 73.864 7.176 73.63 7.392C73.522 7.482 73.36 7.536 73.144 7.536C72.946 8.112 72.73 8.634 72.496 9.12H74.404V6.384C74.404 6.096 74.584 5.916 74.872 5.952L76.204 6.078C76.51 6.114 76.762 6.366 76.528 6.6C76.42 6.69 76.258 6.762 76.024 6.798V9.12H77.806L78.472 8.292ZM65.62 6.636C65.44 6.384 65.404 6.222 65.476 6.168C65.566 6.114 65.71 6.132 65.944 6.24C70.084 8.058 69.112 10.866 67.636 10.29C67.42 10.218 67.33 10.074 67.276 9.876C67.006 8.85 66.304 7.59 65.62 6.636ZM90.37 6.276C90.55 6.06 90.784 6.042 91 6.204C91.36 6.474 91.756 6.762 92.098 7.032C92.296 7.212 92.404 7.428 92.224 7.608C92.134 7.698 92.026 7.716 91.882 7.716H89.92V10.542H90.19L90.802 9.768C90.982 9.534 91.198 9.498 91.432 9.678C91.756 9.948 92.152 10.272 92.476 10.56C92.656 10.74 92.782 10.956 92.584 11.136C92.512 11.226 92.404 11.244 92.26 11.244H89.92V15.438C89.92 15.636 89.452 15.888 88.588 15.888C88.426 15.888 88.318 15.726 88.318 15.438V11.244H86.464C86.248 12.936 85.51 14.754 83.134 16.014C82.882 16.14 82.702 16.122 82.63 16.032C82.558 15.942 82.63 15.798 82.846 15.582C84.304 14.232 84.79 12.738 84.916 11.244H83.242C82.99 11.244 82.828 11.136 82.756 10.884C82.684 10.686 82.864 10.542 83.188 10.542H84.97C84.988 10.308 84.988 10.074 84.988 9.84V7.716H83.674C83.422 7.716 83.26 7.608 83.188 7.356C83.116 7.158 83.296 7.014 83.62 7.014H89.758L90.37 6.276ZM82.738 21.72C82.666 21.522 82.846 21.378 83.17 21.378H90.118V18.228H84.916C84.664 18.228 84.502 18.12 84.43 17.868C84.358 17.67 84.538 17.526 84.862 17.526H90.118V15.51C90.118 15.222 90.298 15.06 90.586 15.078L92.008 15.204C92.314 15.222 92.548 15.456 92.35 15.69C92.26 15.816 92.098 15.888 91.846 15.924V17.526H94.978L95.68 16.68C95.86 16.464 96.094 16.446 96.31 16.608C96.706 16.896 97.138 17.238 97.516 17.544C97.732 17.724 97.858 17.958 97.66 18.12C97.57 18.21 97.444 18.228 97.3 18.228H91.846V21.378H96.436L97.174 20.478C97.354 20.244 97.57 20.226 97.804 20.388C98.218 20.694 98.686 21.054 99.082 21.378C99.28 21.558 99.406 21.792 99.208 21.954C99.1 22.044 98.974 22.062 98.848 22.062H83.242C82.99 22.062 82.81 21.954 82.738 21.72ZM86.518 10.542H88.318V7.716H86.554V9.84C86.554 10.074 86.536 10.308 86.518 10.542ZM93.124 13.674C93.034 13.674 92.98 13.512 92.98 13.224V7.212C92.98 6.924 93.142 6.744 93.448 6.78L94.69 6.888C94.996 6.924 95.248 7.176 95.014 7.392C94.924 7.5 94.78 7.554 94.564 7.59V13.17C94.564 13.44 93.898 13.674 93.268 13.674H93.124ZM95.104 14.718C94.834 14.664 94.69 14.556 94.69 14.412C94.69 14.286 94.852 14.214 95.158 14.232C95.752 14.268 96.328 14.304 96.49 14.304C96.778 14.304 96.814 14.25 96.814 14.088V6.402C96.814 6.114 96.994 5.952 97.282 5.97L98.56 6.078C98.884 6.114 99.118 6.366 98.884 6.582C98.794 6.69 98.65 6.744 98.434 6.78V14.178C98.434 15.222 98.236 15.852 96.778 16.104C96.472 16.14 96.31 15.996 96.256 15.708C96.22 15.474 96.148 15.294 95.986 15.114C95.824 14.952 95.554 14.826 95.104 14.718Z" fill="#7A6855"/>
<path d="M39.172 35.444C39.292 35.3 39.436 35.276 39.592 35.396C39.868 35.612 40.192 35.864 40.468 36.104C40.588 36.212 40.672 36.356 40.564 36.488C40.492 36.56 40.396 36.584 40.3 36.584H37.972C37.78 36.584 37.672 36.692 37.672 36.884V38.108C37.672 38.3 37.78 38.408 37.972 38.408H38.788C38.944 38.408 39.064 38.36 39.16 38.24L39.532 37.784C39.652 37.628 39.808 37.616 39.952 37.724C40.24 37.94 40.576 38.204 40.852 38.432C40.972 38.552 41.056 38.684 40.936 38.828C40.876 38.9 40.792 38.924 40.696 38.924H38.848C38.656 38.924 38.548 39.032 38.548 39.224V41.66C38.548 41.756 38.548 41.756 38.788 41.756H39.268C39.376 41.756 39.472 41.756 39.556 41.744H39.688C39.82 41.744 39.856 41.72 39.892 41.66C39.988 41.492 40.096 41.084 40.24 40.58C40.264 40.496 40.276 40.436 40.3 40.376C40.3 40.376 40.384 40.124 40.42 40.124C40.456 40.124 40.492 40.22 40.492 40.424L40.516 41.42C40.516 41.576 40.6 41.672 40.72 41.792C40.84 41.9 40.876 42.032 40.876 42.212C40.876 42.728 40.468 42.968 39.136 42.968H38.404C37.468 42.968 37.324 42.692 37.324 41.936V39.224C37.324 39.032 37.216 38.924 37.024 38.924H36.796C36.616 38.924 36.496 39.02 36.472 39.212C36.244 40.904 35.512 42.092 33.94 42.848C33.7 42.956 33.688 43.136 33.928 43.208C34.78 43.484 35.884 43.568 37.396 43.568C38.608 43.568 39.652 43.556 40.864 43.496C41.068 43.496 41.176 43.544 41.176 43.64C41.176 43.748 41.092 43.808 40.912 43.88C40.588 44.012 40.408 44.24 40.324 44.504C40.276 44.684 40.18 44.78 40 44.78H36.952C34.624 44.78 33.568 44.348 32.56 43.1C32.476 42.992 32.428 42.908 32.296 42.86C32.176 42.824 32.08 42.872 32.02 42.968C31.912 43.148 31.78 43.376 31.636 43.592C31.564 43.712 31.504 43.796 31.444 43.892C31.288 44.156 31.108 44.432 30.988 44.636C30.988 44.636 30.772 44.792 30.628 44.612L30.088 43.904C29.968 43.736 29.992 43.604 30.16 43.496C30.472 43.304 30.796 43.088 31.084 42.896C31.192 42.824 31.252 42.776 31.336 42.728C31.336 42.728 31.444 42.584 31.444 42.428V38.84C31.444 38.648 31.336 38.54 31.144 38.54H30.28C30.1 38.54 29.992 38.456 29.968 38.276C29.944 38.12 30.052 38.024 30.256 38.024H31.036C31.192 38.024 31.312 37.976 31.408 37.856L31.696 37.508C31.816 37.364 31.972 37.328 32.128 37.448L33.052 38.144C33.208 38.264 33.268 38.432 33.1 38.552C33.052 38.588 32.992 38.612 32.92 38.636C32.752 38.696 32.656 38.792 32.656 38.972V42.296C32.656 42.452 32.692 42.56 32.824 42.656C32.86 42.68 32.896 42.716 32.932 42.74C33.076 42.836 33.148 42.86 33.148 42.86C34.612 41.888 35.032 40.772 35.14 39.236C35.152 39.032 35.032 38.924 34.84 38.924H33.976C33.808 38.924 33.688 38.852 33.64 38.672C33.592 38.516 33.7 38.408 33.916 38.408H36.076C36.268 38.408 36.376 38.3 36.376 38.108V36.884C36.376 36.692 36.268 36.584 36.076 36.584H35.248C35.092 36.584 34.972 36.644 34.888 36.788C34.576 37.304 34.228 37.748 33.868 38.096C33.748 38.228 33.64 38.24 33.58 38.204C33.508 38.168 33.52 38.06 33.592 37.88C33.988 36.98 34.3 35.78 34.444 34.556C34.468 34.352 34.6 34.256 34.792 34.304L35.884 34.544C36.076 34.592 36.208 34.748 36.076 34.916C36.04 34.952 35.992 34.988 35.944 35C35.788 35.072 35.68 35.12 35.62 35.276C35.56 35.432 35.5 35.576 35.428 35.72C35.344 35.924 35.428 36.068 35.656 36.068H36.076C36.268 36.068 36.376 35.96 36.376 35.768V34.22C36.376 34.028 36.496 33.92 36.688 33.932L37.804 34.028C37.996 34.04 38.152 34.172 38.044 34.352C38.02 34.4 37.972 34.436 37.924 34.472C37.768 34.556 37.672 34.64 37.672 34.808V35.768C37.672 35.96 37.78 36.068 37.972 36.068H38.452C38.608 36.068 38.728 36.02 38.824 35.888L39.172 35.444ZM30.496 34.376C30.388 34.208 30.364 34.1 30.412 34.064C30.472 34.028 30.568 34.04 30.724 34.088C33.832 35.204 33.004 37.34 31.828 36.872C31.684 36.812 31.624 36.728 31.6 36.596C31.42 35.888 30.964 35.036 30.496 34.376ZM48.488 34.208C48.608 34.064 48.764 34.052 48.908 34.16C49.196 34.376 49.532 34.628 49.808 34.856C49.94 34.964 50.024 35.108 49.904 35.24C49.844 35.312 49.748 35.336 49.652 35.336H48.584C48.392 35.336 48.284 35.444 48.284 35.636V38.18C48.284 38.372 48.308 38.48 48.332 38.48H48.38L48.86 37.856C48.98 37.7 49.136 37.676 49.292 37.808C49.556 38.024 49.844 38.276 50.096 38.504C50.228 38.624 50.3 38.756 50.18 38.9C50.12 38.972 50.036 38.996 49.94 38.996H48.584C48.392 38.996 48.284 39.104 48.284 39.296V44.564C48.26 44.78 47.828 44.996 47.192 44.996C47.036 44.996 46.952 44.888 46.952 44.696V39.296C46.952 39.104 46.844 38.996 46.652 38.996H45.932C45.74 38.996 45.632 39.104 45.632 39.296C45.572 41.252 45.212 43.448 43.172 44.96C43.028 45.068 42.908 45.08 42.86 45.032C42.812 44.984 42.836 44.876 42.944 44.72C44.072 43.112 44.288 41.204 44.324 39.296C44.324 39.104 44.216 38.996 44.024 38.996H43.208C43.04 38.996 42.92 38.924 42.872 38.744C42.824 38.588 42.932 38.48 43.148 38.48H44.024C44.216 38.48 44.324 38.372 44.324 38.18V35.636C44.324 35.444 44.216 35.336 44.024 35.336H43.46C43.292 35.336 43.172 35.264 43.124 35.084C43.076 34.928 43.184 34.82 43.4 34.82H47.756C47.912 34.82 48.032 34.772 48.128 34.652L48.488 34.208ZM45.632 38.18C45.632 38.372 45.74 38.48 45.932 38.48H46.652C46.844 38.48 46.952 38.372 46.952 38.18V35.636C46.952 35.444 46.844 35.336 46.652 35.336H45.932C45.74 35.336 45.632 35.444 45.632 35.636V38.18ZM48.344 44.912C48.308 44.804 48.368 44.708 48.524 44.612C50.216 43.628 51.488 42.308 52.424 40.388C52.52 40.22 52.652 40.16 52.832 40.244L54.056 40.772C54.248 40.856 54.356 41.072 54.164 41.168C54.14 41.18 54.104 41.192 54.068 41.192C53.9 41.216 53.792 41.252 53.684 41.384C52.34 43.16 50.708 44.264 48.68 44.96C48.5 45.032 48.38 45.008 48.344 44.912ZM48.944 40.988C48.908 40.904 48.956 40.808 49.112 40.7C50.396 39.824 51.452 38.696 52.28 37.304C52.376 37.136 52.52 37.1 52.688 37.184L53.852 37.772C54.056 37.88 54.128 38.096 53.936 38.18C53.912 38.192 53.876 38.192 53.84 38.192C53.672 38.204 53.552 38.216 53.432 38.336C52.232 39.56 50.816 40.436 49.28 41.036C49.1 41.096 48.98 41.084 48.944 40.988ZM49.4 37.664C49.352 37.58 49.4 37.484 49.544 37.364C50.636 36.524 51.536 35.432 52.292 34.22C52.4 34.052 52.532 34.028 52.7 34.112L53.816 34.712C54.008 34.808 54.08 35.036 53.9 35.108C53.864 35.12 53.828 35.12 53.792 35.12C53.636 35.132 53.516 35.156 53.396 35.264C52.316 36.248 51.032 37.1 49.736 37.688C49.568 37.772 49.448 37.76 49.4 37.664ZM61.872 33.884C61.932 33.836 62.04 33.824 62.208 33.86C65.232 34.592 64.272 36.728 63.084 36.248C62.94 36.188 62.892 36.068 62.856 35.912C62.748 35.336 62.388 34.688 61.98 34.196C61.848 34.04 61.812 33.944 61.872 33.884ZM55.992 43.796C55.812 43.748 55.716 43.664 55.716 43.556C55.716 43.448 55.824 43.4 56.028 43.412C56.568 43.448 57.108 43.484 57.264 43.484C57.504 43.484 57.528 43.448 57.528 43.328V41.024C57.528 40.784 57.516 40.604 57.492 40.616C57.48 40.628 57.468 40.628 57.456 40.64C57.396 40.664 57.324 40.712 57.3 40.724L56.868 40.964L56.808 41C56.688 41.072 56.628 41.108 56.604 41.156C56.496 41.348 56.304 41.288 56.22 41.072L55.872 40.172C55.8 39.992 55.86 39.848 56.064 39.788C56.376 39.704 56.796 39.584 57.276 39.44C57.444 39.392 57.528 39.272 57.528 39.104V37.388C57.528 37.196 57.42 37.088 57.228 37.088H56.196C56.028 37.088 55.908 37.016 55.86 36.836C55.812 36.68 55.92 36.572 56.136 36.572H57.228C57.42 36.572 57.528 36.464 57.528 36.272V34.088C57.528 33.896 57.636 33.776 57.84 33.8L58.98 33.908C59.172 33.92 59.328 34.052 59.22 34.232C59.196 34.28 59.148 34.316 59.1 34.352C58.956 34.448 58.86 34.52 58.86 34.688V35.996C58.86 36.272 59.064 36.356 59.232 36.128L59.316 36.008C59.436 35.852 59.58 35.84 59.736 35.96C59.94 36.14 60.18 36.344 60.384 36.548C60.516 36.68 60.528 36.632 60.66 36.572C60.708 36.548 60.78 36.536 60.864 36.536H64.752C64.908 36.536 65.028 36.488 65.124 36.368L65.532 35.876C65.652 35.732 65.808 35.708 65.952 35.816C66.252 36.044 66.624 36.32 66.924 36.572C67.044 36.68 67.128 36.824 67.008 36.956C66.948 37.028 66.852 37.052 66.756 37.052H60.924C60.744 37.052 60.66 37.016 60.636 36.932C60.612 36.86 60.612 36.932 60.492 37.028C60.432 37.076 60.36 37.088 60.276 37.088H59.16C58.968 37.088 58.86 37.196 58.86 37.388V38.588C58.86 38.804 58.992 38.912 59.196 38.84L60.168 38.528C60.348 38.468 60.468 38.48 60.492 38.564C60.528 38.66 60.468 38.744 60.324 38.84C59.952 39.092 59.544 39.38 59.064 39.68C58.92 39.764 58.86 39.884 58.86 40.04V43.448C58.86 44.312 58.68 44.876 57.396 45.056C57.192 45.08 57.084 44.984 57.06 44.78C57.024 44.516 56.964 44.324 56.796 44.144C56.664 44 56.436 43.892 55.992 43.796ZM59.568 44.048C59.52 43.88 59.628 43.784 59.844 43.784H63.216C63.396 43.784 63.516 43.7 63.552 43.52C63.936 41.732 64.272 39.512 64.44 37.832C64.464 37.628 64.584 37.532 64.788 37.58L66.132 37.856C66.324 37.892 66.456 38.06 66.324 38.228C66.288 38.264 66.252 38.3 66.192 38.324C66.036 38.384 65.928 38.444 65.88 38.612C65.484 40.016 64.812 41.876 64.056 43.436C63.96 43.64 64.056 43.784 64.284 43.784H64.872C65.028 43.784 65.148 43.736 65.244 43.616L65.688 43.088C65.808 42.944 65.952 42.932 66.096 43.04C66.42 43.28 66.816 43.556 67.128 43.82C67.248 43.928 67.332 44.072 67.212 44.204C67.152 44.276 67.068 44.3 66.96 44.3H59.904C59.736 44.3 59.616 44.216 59.568 44.048ZM61.032 38.036C60.972 37.856 60.972 37.748 61.032 37.724C61.08 37.7 61.188 37.736 61.308 37.892C64.308 41.204 62.508 43.748 61.656 42.824C61.56 42.716 61.536 42.632 61.548 42.524C61.608 41.384 61.548 39.488 61.032 38.036ZM69.544 34.388C69.544 34.172 69.688 34.076 69.892 34.148L70.828 34.46C70.96 34.508 71.068 34.52 71.2 34.52H71.536C71.68 34.52 71.8 34.484 71.908 34.364L72.136 34.124C72.256 33.992 72.412 33.98 72.556 34.088L73.396 34.688C73.54 34.796 73.624 34.868 73.6 34.904C73.588 34.916 73.768 34.94 74.008 34.94H77.86C78.016 34.94 78.136 34.892 78.232 34.772L78.616 34.316C78.736 34.172 78.892 34.16 79.036 34.268C79.324 34.484 79.672 34.736 79.948 34.976C80.08 35.084 80.164 35.228 80.044 35.36C79.984 35.432 79.9 35.456 79.804 35.456H77.968C77.8 35.456 77.68 35.528 77.62 35.696C77.488 36.092 77.332 36.476 77.164 36.836C77.08 37.016 77.068 37.136 77.14 37.16C77.332 37.22 77.452 37.388 77.308 37.52C77.296 37.532 77.284 37.532 77.272 37.544C77.14 37.652 77.044 37.724 77.044 37.892V43.292C77.02 43.52 76.444 43.712 75.964 43.712C75.808 43.712 75.724 43.604 75.724 43.412V39.644C75.724 39.368 75.544 39.308 75.364 39.512C74.8 40.136 74.188 40.676 73.528 41.144C73.384 41.264 73.276 41.276 73.228 41.216C73.192 41.18 73.144 41.396 73.144 41.66V43.592C73.144 44.384 72.976 44.9 71.872 45.068C71.668 45.104 71.56 44.996 71.536 44.792C71.5 44.564 71.452 44.384 71.344 44.24C71.272 44.132 71.104 44.024 70.804 43.952C70.612 43.916 70.516 43.832 70.516 43.724C70.516 43.616 70.624 43.568 70.828 43.58C71.176 43.604 71.512 43.628 71.62 43.628C71.848 43.628 71.86 43.592 71.86 43.46V40.844C71.86 40.652 71.752 40.544 71.56 40.544H70.996C70.816 40.544 70.696 40.64 70.684 40.832C70.504 42.26 70.084 43.724 69.076 44.9C68.956 45.044 68.872 45.092 68.8 45.044C68.728 44.996 68.74 44.9 68.812 44.732C69.556 42.752 69.544 40.34 69.544 38.168V34.388ZM70.768 39.728C70.756 39.932 70.864 40.04 71.056 40.04H71.56C71.752 40.04 71.86 39.932 71.86 39.74V38.036C71.86 37.844 71.752 37.736 71.56 37.736H71.092C70.9 37.736 70.792 37.844 70.792 38.036V38.156C70.792 38.636 70.792 39.188 70.768 39.728ZM70.792 36.92C70.792 37.112 70.9 37.22 71.092 37.22H71.56C71.752 37.22 71.86 37.112 71.86 36.92V35.324C71.86 35.132 71.752 35.024 71.56 35.024H71.092C70.9 35.024 70.792 35.132 70.792 35.324V36.92ZM73.144 40.532C73.144 40.808 73.336 40.892 73.516 40.676C74.632 39.296 75.496 37.52 75.988 35.792C76.048 35.588 75.952 35.456 75.736 35.456H73.816C73.648 35.456 73.54 35.384 73.504 35.264C73.468 35.132 73.396 35.108 73.3 35.144C73.3 35.144 73.144 35.288 73.144 35.456V40.532ZM73.252 44.252C73.204 44.084 73.312 43.988 73.528 43.988H77.956C78.112 43.988 78.232 43.94 78.328 43.82L78.736 43.328C78.856 43.184 79.012 43.172 79.156 43.28C79.468 43.508 79.816 43.772 80.116 44.024C80.248 44.12 80.332 44.252 80.236 44.396C80.176 44.48 80.068 44.504 79.96 44.504H73.588C73.42 44.504 73.3 44.42 73.252 44.252ZM77.488 38.048C77.356 37.904 77.32 37.796 77.368 37.736C77.428 37.676 77.536 37.676 77.704 37.736C81.04 38.972 80.272 41.312 79.144 40.856C79 40.796 78.952 40.688 78.916 40.556C78.736 39.692 78.112 38.744 77.488 38.048ZM92.588 35.504C92.732 35.624 92.792 35.816 92.624 35.924C92.588 35.936 92.552 35.948 92.504 35.96C92.336 35.984 92.228 36.044 92.144 36.188C91.808 36.752 91.388 37.256 90.92 37.7C90.752 37.856 90.776 38.024 90.992 38.096C91.556 38.288 92.204 38.432 92.936 38.54C93.128 38.564 93.224 38.636 93.212 38.72C93.2 38.828 93.116 38.876 92.96 38.948C92.672 39.092 92.504 39.296 92.42 39.596C92.372 39.788 92.264 39.872 92.072 39.824C91.172 39.572 90.476 39.236 89.864 38.804C89.72 38.708 89.588 38.696 89.444 38.792C88.604 39.284 87.644 39.668 86.576 39.944C86.396 39.992 86.288 39.956 86.24 39.86C86.192 39.752 86.276 39.668 86.456 39.584C87.356 39.224 88.136 38.756 88.796 38.24C88.94 38.12 88.952 37.976 88.832 37.82C88.592 37.52 88.376 37.184 88.184 36.812C88.076 36.608 87.908 36.596 87.764 36.776C87.392 37.256 86.996 37.652 86.576 37.976C86.432 38.084 86.324 38.108 86.264 38.048C86.204 37.988 86.228 37.892 86.324 37.736C86.924 36.788 87.464 35.456 87.752 34.076C87.788 33.872 87.92 33.788 88.112 33.848L89.228 34.172C89.42 34.232 89.552 34.4 89.408 34.532C89.372 34.568 89.324 34.592 89.276 34.616C89.108 34.664 89 34.712 88.928 34.868C88.916 34.904 88.904 34.928 88.88 34.964C88.784 35.168 88.88 35.312 89.108 35.312H90.644C90.788 35.312 90.908 35.276 91.016 35.18L91.376 34.88C91.508 34.772 91.652 34.748 91.796 34.868L92.588 35.504ZM81.8 40.136C81.74 40.088 81.752 39.98 81.824 39.824C82.556 38.312 83.216 36.164 83.564 34.088C83.6 33.896 83.732 33.8 83.924 33.86L85.088 34.196C85.28 34.256 85.4 34.412 85.256 34.568C85.22 34.592 85.184 34.628 85.136 34.64C84.968 34.712 84.86 34.748 84.812 34.916C84.584 35.588 84.344 36.224 84.08 36.8C83.996 36.98 84.056 37.124 84.248 37.184L84.308 37.208C84.5 37.268 84.608 37.448 84.464 37.58C84.452 37.592 84.44 37.604 84.428 37.616C84.284 37.712 84.188 37.784 84.188 37.952V44.516C84.188 44.648 84.188 44.768 84.08 44.852C83.9 45.008 83.516 45.104 83.18 45.104C83.036 45.104 82.952 44.996 82.952 44.804V39.488C82.952 39.2 82.76 39.152 82.592 39.38C82.424 39.596 82.256 39.8 82.088 39.992C81.968 40.136 81.86 40.184 81.8 40.136ZM85.052 43.508C84.98 43.508 84.932 43.4 84.932 43.208V35.948C84.932 35.756 85.052 35.648 85.244 35.66L86.204 35.744C86.408 35.768 86.552 35.912 86.444 36.092C86.42 36.116 86.396 36.14 86.36 36.164C86.216 36.26 86.12 36.344 86.12 36.512V43.076C86.12 43.316 85.556 43.508 85.16 43.508H85.052ZM85.748 44.924C85.724 44.816 85.796 44.72 85.988 44.672C88.184 44.072 89.984 43.22 91.4 41.492C91.508 41.348 91.652 41.312 91.808 41.396L92.876 41.936C93.068 42.032 93.14 42.272 92.936 42.344C92.9 42.356 92.864 42.356 92.816 42.356C92.66 42.368 92.54 42.38 92.42 42.476C90.524 44.096 88.544 44.756 86.072 45.068C85.88 45.092 85.772 45.044 85.748 44.924ZM86.54 41.252C86.492 41.156 86.552 41.048 86.732 40.964C87.692 40.484 88.592 39.848 89.312 39.116C89.444 38.984 89.576 38.972 89.732 39.056L90.584 39.56C90.764 39.668 90.86 39.884 90.68 39.944C90.656 39.956 90.62 39.956 90.584 39.956C90.428 39.968 90.32 39.968 90.188 40.052C89.18 40.616 88.004 41.06 86.876 41.348C86.708 41.384 86.6 41.36 86.54 41.252ZM86.576 43.124C86.54 43.016 86.6 42.92 86.768 42.836C88.16 42.188 89.42 41.348 90.44 40.244C90.56 40.112 90.704 40.088 90.86 40.172L91.76 40.7C91.94 40.808 92.024 41.024 91.844 41.096C91.82 41.108 91.784 41.108 91.736 41.108C91.58 41.108 91.472 41.108 91.34 41.204C89.996 42.128 88.496 42.8 86.912 43.22C86.732 43.268 86.612 43.232 86.576 43.124ZM88.34 35.996C88.268 36.116 88.268 36.236 88.364 36.38C88.628 36.716 88.964 37.028 89.384 37.316C89.528 37.424 89.672 37.412 89.804 37.268C90.104 36.92 90.368 36.548 90.584 36.188C90.704 35.984 90.596 35.828 90.368 35.828H88.688C88.532 35.828 88.412 35.876 88.34 35.996ZM99.972 33.812C100.032 33.752 100.128 33.728 100.284 33.728C101.808 33.752 102.192 34.412 102.024 34.904C101.964 35.108 101.976 35.192 102.192 35.192H103.824C103.98 35.192 104.1 35.144 104.196 35.024L104.592 34.532C104.712 34.376 104.856 34.364 105.012 34.484C105.3 34.712 105.636 34.976 105.912 35.204C106.032 35.324 106.116 35.456 105.996 35.6C105.936 35.672 105.852 35.696 105.756 35.696H103.08L103.812 35.768C104.004 35.78 104.172 35.912 104.064 36.08C104.052 36.092 104.052 36.104 104.04 36.116C103.908 36.224 103.812 36.296 103.812 36.464V36.524C103.812 36.716 103.908 36.824 104.076 36.824H104.112C104.268 36.824 104.388 36.764 104.484 36.644L104.7 36.38C104.82 36.224 104.976 36.212 105.12 36.344C105.324 36.5 105.54 36.68 105.732 36.86C105.852 36.968 105.936 37.1 105.84 37.232C105.78 37.316 105.684 37.34 105.588 37.34H104.724C104.46 37.34 104.364 37.532 104.556 37.712C104.952 38.06 105.42 38.348 105.864 38.552C106.032 38.624 106.104 38.684 106.104 38.792C106.092 38.9 106.008 38.948 105.852 39.008C105.648 39.092 105.504 39.236 105.408 39.428C105.3 39.608 105.192 39.668 105.036 39.512C104.688 39.164 104.376 38.696 104.112 38.132C103.98 37.856 103.812 37.88 103.812 38.18V39.98C103.812 40.196 103.32 40.364 102.9 40.364C102.768 40.364 102.684 40.256 102.684 40.064V39.092C102.684 38.828 102.516 38.756 102.324 38.936C101.904 39.32 101.448 39.656 100.956 39.944C100.788 40.04 100.668 40.028 100.62 39.944C100.572 39.848 100.608 39.74 100.74 39.62C101.34 39.056 101.808 38.384 102.132 37.688C102.228 37.484 102.12 37.34 101.892 37.34H101.772C101.604 37.34 101.508 37.316 101.496 37.28C101.484 37.256 101.448 37.28 101.364 37.328C101.328 37.352 101.292 37.352 101.232 37.352H100.224C100.032 37.352 99.924 37.364 99.924 37.388V37.424C102.048 37.772 101.412 39.188 100.656 38.996C100.5 38.948 100.464 38.828 100.428 38.672C100.404 38.576 100.356 38.468 100.308 38.36C100.164 38.108 99.924 38.192 99.924 38.48V39.992C99.924 40.208 99.42 40.364 99.012 40.364C98.88 40.364 98.796 40.256 98.796 40.064V39.224C98.796 38.96 98.628 38.888 98.436 39.08C98.136 39.392 97.824 39.656 97.5 39.896C97.332 40.016 97.212 40.016 97.164 39.944C97.116 39.872 97.14 39.764 97.248 39.62C97.716 39.044 98.064 38.384 98.316 37.7C98.388 37.484 98.292 37.352 98.076 37.352H97.608C97.44 37.352 97.32 37.28 97.272 37.1C97.224 36.944 97.332 36.836 97.548 36.836H98.496C98.688 36.836 98.796 36.728 98.796 36.536V35.996C98.796 35.804 98.688 35.696 98.496 35.696H97.344C97.152 35.696 97.044 35.804 97.044 35.996V38.396C97.044 40.352 96.96 42.98 95.124 44.804C94.992 44.936 94.884 44.972 94.836 44.936C94.788 44.888 94.788 44.792 94.872 44.624C95.712 42.764 95.748 40.496 95.748 38.408V35.048C95.748 34.832 95.892 34.736 96.096 34.808L97.068 35.132C97.2 35.18 97.308 35.192 97.44 35.192H100.428C100.656 35.192 100.764 35.048 100.656 34.844C100.512 34.592 100.32 34.328 100.104 34.112C99.972 33.968 99.912 33.872 99.972 33.812ZM96.576 44.048C96.528 43.976 96.576 43.868 96.732 43.76C97.656 43.064 98.412 42.164 98.868 41.252C98.964 41.048 98.868 40.904 98.64 40.904H97.536C97.368 40.904 97.248 40.832 97.2 40.652C97.152 40.496 97.26 40.388 97.476 40.388H103.848C104.004 40.388 104.112 40.328 104.208 40.22L104.532 39.86C104.652 39.716 104.808 39.704 104.952 39.812C105.216 39.992 105.516 40.22 105.78 40.424C105.9 40.532 105.996 40.664 105.888 40.808C105.828 40.88 105.732 40.904 105.636 40.904H100.764C100.608 40.904 100.488 40.964 100.404 41.108C100.32 41.24 100.224 41.372 100.14 41.492C100.008 41.684 99.984 41.804 100.068 41.828C100.164 41.864 100.272 41.876 100.404 41.876H103.236C103.38 41.876 103.5 41.84 103.608 41.732L103.86 41.492C103.992 41.36 104.136 41.36 104.28 41.456L105.132 42.032C105.3 42.152 105.348 42.32 105.18 42.44C105.168 42.452 105.156 42.464 105.132 42.464C104.988 42.56 104.892 42.632 104.892 42.8V44.492C104.892 44.624 104.892 44.744 104.772 44.816C104.568 44.96 104.112 45.056 103.788 45.056C103.632 45.056 103.548 44.948 103.548 44.756V44.684C103.548 44.492 103.44 44.384 103.248 44.384H100.356C100.164 44.384 100.056 44.48 100.056 44.672C100.056 44.864 99.66 45.104 98.976 45.104C98.82 45.104 98.736 44.996 98.736 44.804V43.4C98.736 43.16 98.58 43.076 98.376 43.22C97.896 43.544 97.404 43.832 96.9 44.06C96.732 44.132 96.624 44.132 96.576 44.048ZM99.156 35.696L99.912 35.768C100.104 35.792 100.26 35.924 100.164 36.08C100.152 36.092 100.152 36.104 100.14 36.104C100.02 36.224 99.924 36.284 99.924 36.452V36.536C99.924 36.728 99.972 36.836 100.032 36.836C100.092 36.836 100.176 36.788 100.272 36.656L100.428 36.452C100.548 36.308 100.704 36.284 100.848 36.404C100.884 36.428 100.908 36.464 100.944 36.488C101.16 36.668 101.4 36.872 101.4 36.848L101.388 36.824H102.384C102.576 36.824 102.684 36.716 102.684 36.524V35.996C102.684 35.804 102.576 35.696 102.384 35.696H99.156ZM100.056 43.568C100.056 43.76 100.164 43.868 100.356 43.868H103.248C103.44 43.868 103.548 43.76 103.548 43.568V42.692C103.548 42.5 103.44 42.392 103.248 42.392H100.356C100.164 42.392 100.056 42.5 100.056 42.692V43.568ZM111.64 38.504C111.784 38.504 111.892 38.468 112.012 38.36L112.3 38.108C112.432 37.988 112.576 37.976 112.72 38.096L113.488 38.684C113.644 38.804 113.704 38.996 113.524 39.092C113.512 39.104 113.5 39.104 113.488 39.116C113.32 39.188 113.224 39.272 113.212 39.452C113.14 41.72 112.96 42.692 112.48 43.076C112.18 43.292 111.88 43.412 111.496 43.448C111.304 43.46 111.208 43.352 111.184 43.148C111.172 42.956 111.136 42.8 111.028 42.668C110.944 42.584 110.788 42.488 110.548 42.416C110.368 42.368 110.284 42.284 110.284 42.176C110.284 42.068 110.392 42.02 110.596 42.044C110.848 42.068 111.124 42.08 111.256 42.08C111.436 42.08 111.544 42.056 111.592 42.008C111.796 41.78 111.892 41 111.94 39.332C111.952 39.116 111.844 39.008 111.652 39.008H110.68C110.488 39.008 110.38 39.116 110.38 39.308C110.356 41.108 110.056 43.4 108.112 44.972C107.956 45.092 107.848 45.128 107.8 45.068C107.752 45.008 107.764 44.9 107.86 44.744C108.94 42.98 109.012 40.832 109.012 38.888V36.068C109.012 35.852 109.144 35.744 109.348 35.816L110.416 36.164C110.548 36.2 110.656 36.224 110.788 36.224H113.44C113.632 36.224 113.752 36.116 113.74 35.912C113.704 35.324 113.692 34.724 113.68 34.112C113.68 33.908 113.8 33.812 113.992 33.824L115.168 33.932C115.372 33.956 115.516 34.076 115.408 34.256C115.384 34.304 115.348 34.34 115.3 34.376C115.144 34.472 115.048 34.544 115.048 34.724C115.036 35.132 115.048 35.528 115.06 35.936C115.072 36.128 115.168 36.224 115.36 36.224H116.728C116.884 36.224 116.992 36.164 117.088 36.056C117.208 35.924 117.268 35.816 117.208 35.804C117.184 35.804 117.148 35.792 117.112 35.792C116.956 35.768 116.896 35.672 116.824 35.54C116.62 35.168 116.224 34.76 115.828 34.472C115.672 34.364 115.6 34.256 115.66 34.184C115.72 34.112 115.828 34.076 115.996 34.076C117.424 34.112 117.928 34.712 117.892 35.192C117.868 35.36 117.832 35.432 117.832 35.432V35.444C117.88 35.468 117.928 35.516 117.976 35.552C118.216 35.72 118.588 35.984 118.912 36.248C119.044 36.356 119.128 36.5 119.008 36.632C118.948 36.704 118.852 36.728 118.756 36.728H115.408C115.216 36.728 115.108 36.836 115.12 37.04C115.204 38.024 115.348 38.972 115.612 39.836C115.696 40.112 115.924 40.124 116.032 39.86C116.32 39.2 116.536 38.552 116.692 37.904C116.74 37.712 116.884 37.64 117.064 37.688L118.312 38.06C118.504 38.12 118.636 38.276 118.492 38.432C118.456 38.468 118.408 38.492 118.348 38.504C118.18 38.54 118.072 38.588 118 38.756C117.628 39.692 117.16 40.616 116.56 41.456C116.452 41.6 116.44 41.732 116.536 41.876C116.836 42.32 117.232 42.728 117.724 43.076C117.892 43.232 118.036 43.232 118.144 43.04C118.312 42.776 118.588 42.272 118.78 41.84C118.852 41.66 118.924 41.576 118.96 41.588C118.996 41.6 119.008 41.708 118.984 41.876L118.768 43.376C118.744 43.52 118.768 43.64 118.864 43.772C119.176 44.264 119.2 44.6 119.02 44.768C118.444 45.272 117.508 44.816 116.932 44.336C116.464 43.952 116.032 43.496 115.648 42.968C115.528 42.8 115.384 42.788 115.228 42.932C114.364 43.736 113.332 44.42 112.072 44.9C111.892 44.96 111.784 44.96 111.736 44.864C111.688 44.768 111.76 44.684 111.928 44.588C113.14 43.868 114.1 42.968 114.82 41.972C114.916 41.84 114.916 41.72 114.856 41.564C114.268 40.256 113.956 38.708 113.8 37.016C113.788 36.824 113.668 36.728 113.488 36.728H110.68C110.488 36.728 110.38 36.836 110.38 37.028V38.204C110.38 38.396 110.488 38.504 110.68 38.504H111.64ZM128.816 33.968C128.864 33.932 128.96 33.944 129.116 34.004C131.36 34.94 130.364 36.572 129.476 36.128C129.344 36.044 129.308 35.924 129.296 35.768L128.996 34.604V34.628C128.984 34.628 128.96 34.628 128.948 34.64C128.948 34.64 128.732 34.736 128.66 34.892C128.516 35.252 128.348 35.588 128.18 35.912C128.084 36.092 128.096 36.224 128.204 36.26C128.336 36.308 128.444 36.32 128.576 36.32H130.148C130.304 36.32 130.424 36.272 130.52 36.152L130.76 35.852C130.88 35.696 131.036 35.684 131.18 35.804C131.408 35.96 131.648 36.164 131.876 36.344C131.996 36.452 132.08 36.584 131.984 36.728C131.924 36.812 131.828 36.836 131.72 36.836H130.52C130.328 36.836 130.22 36.944 130.22 37.136V38.36C130.22 38.552 130.268 38.66 130.328 38.66C130.4 38.66 130.484 38.6 130.58 38.48L130.76 38.24C130.88 38.084 131.036 38.06 131.192 38.192C131.372 38.348 131.576 38.516 131.744 38.684C131.864 38.804 131.924 38.936 131.828 39.08C131.768 39.152 131.684 39.176 131.588 39.176H130.52C130.328 39.176 130.22 39.284 130.22 39.476V40.808C130.22 41 130.268 41.108 130.34 41.108C130.412 41.108 130.496 41.06 130.592 40.928L130.784 40.676C130.904 40.52 131.048 40.496 131.204 40.628C131.384 40.784 131.588 40.964 131.768 41.132C131.888 41.252 131.948 41.384 131.852 41.528C131.792 41.6 131.708 41.624 131.612 41.624H130.52C130.328 41.624 130.22 41.732 130.22 41.924V43.412C130.22 43.604 130.292 43.712 130.4 43.712C130.508 43.712 130.616 43.664 130.712 43.532L130.94 43.244C131.06 43.1 131.204 43.064 131.36 43.184C131.564 43.352 131.804 43.556 132.008 43.736C132.128 43.856 132.212 43.988 132.092 44.132C132.032 44.204 131.948 44.228 131.852 44.228H128.528C128.336 44.228 128.228 44.336 128.228 44.528V44.708C128.228 44.912 127.832 45.128 127.232 45.128C127.088 45.128 127.004 45.02 127.004 44.828V38.204C127.004 37.94 126.824 37.856 126.632 38.048C126.572 38.108 126.512 38.168 126.452 38.228C126.308 38.372 126.26 38.492 126.332 38.54C126.488 38.648 126.548 38.816 126.416 38.924C126.416 38.924 126.404 38.924 126.404 38.936C126.344 38.972 126.176 39.116 126.176 39.284V44.132C126.152 44.372 125.504 44.588 125.096 44.588C124.952 44.588 124.868 44.48 124.868 44.288V44.144C124.868 43.952 124.76 43.844 124.568 43.844H121.556C121.388 43.844 121.268 43.772 121.22 43.592C121.172 43.424 121.28 43.328 121.496 43.328H124.568C124.76 43.328 124.868 43.22 124.868 43.028V41.576C124.868 41.384 124.76 41.276 124.568 41.276H121.904C121.736 41.276 121.616 41.204 121.568 41.024C121.52 40.856 121.628 40.76 121.844 40.76H124.568C124.76 40.76 124.868 40.652 124.868 40.46V39.212C124.868 39.02 124.76 38.912 124.568 38.912H121.868C121.7 38.912 121.58 38.84 121.532 38.66C121.484 38.492 121.592 38.396 121.808 38.396H123.404C123.572 38.396 123.692 38.324 123.764 38.168C123.992 37.64 124.22 36.992 124.388 36.44C124.46 36.236 124.352 36.104 124.136 36.104H123.332C123.176 36.104 123.056 36.164 122.972 36.308C122.42 37.184 121.832 37.952 121.22 38.54C121.088 38.66 120.992 38.684 120.932 38.648C120.86 38.612 120.872 38.504 120.968 38.324C121.568 37.196 122.18 35.588 122.54 34.04C122.588 33.848 122.72 33.764 122.9 33.812L124.052 34.1C124.244 34.148 124.376 34.304 124.232 34.46C124.196 34.496 124.148 34.532 124.088 34.544C123.944 34.604 123.836 34.652 123.764 34.808C123.692 34.952 123.62 35.096 123.548 35.228C123.44 35.444 123.536 35.588 123.764 35.588H124.28C124.424 35.588 124.532 35.552 124.652 35.444L124.952 35.18C125.096 35.048 125.228 35.048 125.372 35.168L126.128 35.816C126.284 35.948 126.32 36.152 126.128 36.212C126.104 36.224 126.08 36.224 126.044 36.236C125.888 36.26 125.78 36.296 125.684 36.428C125.324 36.92 124.88 37.52 124.424 38.036C124.244 38.228 124.256 38.396 124.436 38.396H124.568C124.712 38.396 124.832 38.36 124.94 38.252L125.168 38.036C125.3 37.916 125.444 37.892 125.588 38L125.732 38.096C125.888 38.216 126.044 38.192 126.14 38.012C126.716 36.98 127.208 35.552 127.472 34.112C127.508 33.908 127.628 33.836 127.82 33.884L128.54 34.076C128.684 34.112 128.756 34.136 128.768 34.16L128.792 34.184C128.756 34.124 128.744 34.076 128.744 34.052V34.016L128.816 33.968ZM128.228 43.412C128.228 43.604 128.336 43.712 128.528 43.712H128.828C129.02 43.712 129.128 43.604 129.128 43.412V41.924C129.128 41.732 129.02 41.624 128.828 41.624H128.528C128.336 41.624 128.228 41.732 128.228 41.924V43.412ZM128.228 40.808C128.228 41 128.336 41.108 128.528 41.108H128.828C129.02 41.108 129.128 41 129.128 40.808V39.476C129.128 39.284 129.02 39.176 128.828 39.176H128.528C128.336 39.176 128.228 39.284 128.228 39.476V40.808ZM128.228 38.36C128.228 38.552 128.336 38.66 128.528 38.66H128.828C129.02 38.66 129.128 38.552 129.128 38.36V37.136C129.128 36.944 129.02 36.836 128.828 36.836H128.528C128.336 36.836 128.228 36.944 128.228 37.136V38.36ZM139.488 34.208C139.608 34.064 139.764 34.052 139.908 34.16C140.196 34.376 140.532 34.628 140.808 34.856C140.94 34.964 141.024 35.108 140.904 35.24C140.844 35.312 140.748 35.336 140.652 35.336H139.584C139.392 35.336 139.284 35.444 139.284 35.636V38.18C139.284 38.372 139.308 38.48 139.332 38.48H139.38L139.86 37.856C139.98 37.7 140.136 37.676 140.292 37.808C140.556 38.024 140.844 38.276 141.096 38.504C141.228 38.624 141.3 38.756 141.18 38.9C141.12 38.972 141.036 38.996 140.94 38.996H139.584C139.392 38.996 139.284 39.104 139.284 39.296V44.564C139.26 44.78 138.828 44.996 138.192 44.996C138.036 44.996 137.952 44.888 137.952 44.696V39.296C137.952 39.104 137.844 38.996 137.652 38.996H136.932C136.74 38.996 136.632 39.104 136.632 39.296C136.572 41.252 136.212 43.448 134.172 44.96C134.028 45.068 133.908 45.08 133.86 45.032C133.812 44.984 133.836 44.876 133.944 44.72C135.072 43.112 135.288 41.204 135.324 39.296C135.324 39.104 135.216 38.996 135.024 38.996H134.208C134.04 38.996 133.92 38.924 133.872 38.744C133.824 38.588 133.932 38.48 134.148 38.48H135.024C135.216 38.48 135.324 38.372 135.324 38.18V35.636C135.324 35.444 135.216 35.336 135.024 35.336H134.46C134.292 35.336 134.172 35.264 134.124 35.084C134.076 34.928 134.184 34.82 134.4 34.82H138.756C138.912 34.82 139.032 34.772 139.128 34.652L139.488 34.208ZM136.632 38.18C136.632 38.372 136.74 38.48 136.932 38.48H137.652C137.844 38.48 137.952 38.372 137.952 38.18V35.636C137.952 35.444 137.844 35.336 137.652 35.336H136.932C136.74 35.336 136.632 35.444 136.632 35.636V38.18ZM139.344 44.912C139.308 44.804 139.368 44.708 139.524 44.612C141.216 43.628 142.488 42.308 143.424 40.388C143.52 40.22 143.652 40.16 143.832 40.244L145.056 40.772C145.248 40.856 145.356 41.072 145.164 41.168C145.14 41.18 145.104 41.192 145.068 41.192C144.9 41.216 144.792 41.252 144.684 41.384C143.34 43.16 141.708 44.264 139.68 44.96C139.5 45.032 139.38 45.008 139.344 44.912ZM139.944 40.988C139.908 40.904 139.956 40.808 140.112 40.7C141.396 39.824 142.452 38.696 143.28 37.304C143.376 37.136 143.52 37.1 143.688 37.184L144.852 37.772C145.056 37.88 145.128 38.096 144.936 38.18C144.912 38.192 144.876 38.192 144.84 38.192C144.672 38.204 144.552 38.216 144.432 38.336C143.232 39.56 141.816 40.436 140.28 41.036C140.1 41.096 139.98 41.084 139.944 40.988ZM140.4 37.664C140.352 37.58 140.4 37.484 140.544 37.364C141.636 36.524 142.536 35.432 143.292 34.22C143.4 34.052 143.532 34.028 143.7 34.112L144.816 34.712C145.008 34.808 145.08 35.036 144.9 35.108C144.864 35.12 144.828 35.12 144.792 35.12C144.636 35.132 144.516 35.156 144.396 35.264C143.316 36.248 142.032 37.1 140.736 37.688C140.568 37.772 140.448 37.76 140.4 37.664Z" fill="#AA967F"/>
</svg>
