<svg width="64" height="16" viewBox="0 0 64 16" fill="none" xmlns="http://www.w3.org/2000/svg">
<path d="M14.832 5.936C15.072 6.064 15.184 6.288 14.976 6.448C14.864 6.544 14.736 6.592 14.608 6.624V10.368C14.608 11.104 14.4 11.696 13.376 11.888C13.104 11.936 12.96 11.776 12.928 11.504C12.912 11.264 12.864 11.136 12.8 11.04C12.768 10.992 12.64 10.912 12.432 10.832C12.208 10.752 12.08 10.688 12.08 10.576C12.08 10.48 12.224 10.432 12.496 10.448C12.704 10.448 12.896 10.464 13.04 10.464C13.28 10.464 13.296 10.448 13.296 10.32V6.768L11.84 7.36V12.096C11.84 12.336 11.328 12.544 10.8 12.544C10.656 12.544 10.56 12.4 10.56 12.144V7.872L9.264 8.4V13.424C9.264 13.712 9.376 13.808 10.112 13.808H12.048C12.848 13.808 13.504 13.792 13.776 13.776C14 13.76 14.144 13.728 14.224 13.648C14.368 13.456 14.528 13.072 14.688 12.56C14.768 12.336 14.848 12.224 14.896 12.224C14.944 12.224 14.976 12.352 14.992 12.608L15.04 13.648C15.472 13.776 15.632 13.936 15.632 14.24C15.632 14.928 14.96 15.12 11.952 15.12L9.92 15.104C8.368 15.104 7.936 14.848 7.936 13.712V8.944L7.36 9.168C7.152 9.248 6.976 9.232 6.832 9.056C6.704 8.912 6.8 8.752 7.072 8.64L7.936 8.272V5.936C7.936 5.68 8.096 5.536 8.352 5.568L9.36 5.664C9.632 5.696 9.856 5.904 9.648 6.112C9.568 6.192 9.44 6.256 9.264 6.272V7.728L10.56 7.2V4.592C10.56 4.336 10.72 4.176 10.976 4.208L11.984 4.304C12.256 4.336 12.464 4.56 12.272 4.768C12.176 4.848 12.048 4.912 11.84 4.944V6.672L13.184 6.144L13.472 5.68C13.6 5.472 13.792 5.408 14.016 5.52L14.832 5.936ZM0.48 15.328C0.416 15.28 0.416 15.136 0.528 14.912C2.048 11.728 2.368 7.904 2.304 4.096H1.056C0.832 4.096 0.688 4 0.624 3.776C0.56 3.6 0.72 3.472 1.008 3.472H5.2L5.744 2.784C5.904 2.592 6.112 2.544 6.32 2.704C6.624 2.944 6.96 3.232 7.232 3.488C7.408 3.648 7.52 3.84 7.344 4C7.28 4.08 7.168 4.096 7.04 4.096H3.808C3.776 4.88 3.744 5.648 3.68 6.416H5.024L5.488 5.984C5.664 5.808 5.856 5.792 6.048 5.952L6.848 6.576C7.072 6.752 7.136 7.008 6.896 7.12C6.784 7.168 6.656 7.2 6.496 7.216C6.368 12.112 6.064 14.016 5.376 14.704C5.024 15.056 4.608 15.216 4.144 15.264C3.888 15.312 3.76 15.152 3.728 14.88C3.712 14.704 3.664 14.56 3.536 14.432C3.44 14.32 3.232 14.224 2.944 14.144C2.72 14.064 2.608 13.968 2.608 13.824C2.608 13.696 2.752 13.632 3.024 13.664C3.36 13.696 3.696 13.712 3.888 13.712C4.144 13.712 4.288 13.68 4.384 13.568C4.832 13.12 5.04 11.328 5.152 7.056H3.632C3.328 10.048 2.608 12.864 0.832 15.104C0.672 15.312 0.56 15.376 0.48 15.328ZM2.448 0.976C2.288 0.751999 2.224 0.624 2.288 0.575999C2.368 0.527999 2.496 0.527999 2.704 0.591999C5.696 1.632 4.768 3.744 3.648 3.344C3.456 3.264 3.392 3.12 3.36 2.928C3.264 2.256 2.88 1.52 2.448 0.976ZM6.72 6.352C6.64 6.304 6.656 6.16 6.784 5.936C7.552 4.624 8.208 2.8 8.576 0.895999C8.624 0.624 8.8 0.527999 9.056 0.591999L10.32 0.927999C10.592 1.008 10.768 1.248 10.544 1.408C10.432 1.472 10.304 1.504 10.112 1.504C9.904 2.048 9.68 2.576 9.44 3.04H12.992L13.632 2.272C13.792 2.08 14 2.048 14.192 2.208C14.544 2.48 14.944 2.784 15.28 3.056C15.456 3.216 15.552 3.408 15.392 3.568C15.312 3.648 15.216 3.664 15.088 3.664H9.12C8.528 4.688 7.84 5.552 7.12 6.208C6.944 6.384 6.8 6.416 6.72 6.352ZM27.872 0.688C28.144 0.719999 28.368 0.943999 28.176 1.152C28.08 1.248 27.936 1.312 27.728 1.344V3.984H29.376L29.808 3.552C29.984 3.376 30.176 3.376 30.368 3.52L31.232 4.16C31.44 4.32 31.52 4.56 31.296 4.688C31.168 4.752 31.04 4.8 30.896 4.832V14.624C30.864 14.864 30.224 15.136 29.712 15.136C29.584 15.136 29.504 14.992 29.504 14.736V14.192H24.64V14.8C24.64 15.04 24.144 15.328 23.536 15.328C23.392 15.328 23.312 15.184 23.312 14.928V6.992C23.216 7.2 23.12 7.232 22.912 7.232H20.528V7.712L20.56 7.696C23.92 8.912 23.008 11.152 21.888 10.704C21.696 10.624 21.632 10.48 21.6 10.272C21.456 9.568 21.008 8.752 20.528 8.128V14.928C20.528 15.12 20.128 15.376 19.488 15.376C19.344 15.376 19.264 15.232 19.264 14.976V9.584C18.672 10.864 17.872 12.016 16.928 13.008C16.752 13.2 16.608 13.248 16.528 13.152C16.432 13.056 16.464 12.928 16.608 12.72C17.616 11.152 18.304 9.184 18.704 7.232H17.024C16.8 7.232 16.656 7.12 16.592 6.928C16.528 6.752 16.688 6.624 16.976 6.624H19.264V2.528C18.512 2.656 17.744 2.752 17.008 2.816C16.768 2.832 16.624 2.768 16.592 2.624C16.56 2.48 16.688 2.384 16.928 2.32C18.576 1.904 20.48 1.232 21.6 0.671999C21.792 0.575999 21.968 0.591999 22.144 0.735999L23.008 1.456C23.232 1.648 23.264 1.968 22.976 1.968C22.832 1.968 22.672 1.92 22.464 1.84C21.904 2 21.232 2.16 20.528 2.304V6.624H21.296L21.76 6.048C21.92 5.856 22.128 5.824 22.32 5.984C22.656 6.24 23.024 6.56 23.312 6.832V3.904C23.312 3.616 23.504 3.488 23.776 3.6L24.72 3.984H26.336V0.959999C26.336 0.704 26.496 0.544 26.752 0.575999L27.872 0.688ZM17.216 3.6C17.12 3.344 17.104 3.184 17.184 3.168C17.28 3.136 17.392 3.184 17.568 3.312C19.712 4.928 18.768 6.656 17.888 6.224C17.712 6.128 17.68 5.968 17.664 5.76C17.664 5.072 17.456 4.24 17.216 3.6ZM20.976 6.176C20.912 6.16 20.912 6.016 20.976 5.776C21.2 4.912 21.424 3.808 21.552 3.072C21.6 2.8 21.76 2.688 22.032 2.784L22.928 3.072C23.168 3.152 23.344 3.376 23.136 3.552C23.056 3.616 22.928 3.664 22.752 3.648C22.4 4.24 21.84 5.184 21.28 5.936C21.136 6.128 21.04 6.192 20.976 6.176ZM24.64 13.568H26.336V9.2H24.64V13.568ZM24.64 8.576H26.336V4.624H24.64V8.576ZM27.728 13.568H29.504V9.2H27.728V13.568ZM27.728 8.576H29.504V4.624H27.728V8.576ZM47.168 3.36C47.376 3.552 47.424 3.824 47.184 3.872C47.088 3.904 46.976 3.92 46.8 3.92C46.32 4.432 45.552 5.072 44.928 5.504C44.736 5.632 44.624 5.664 44.56 5.616C44.496 5.584 44.496 5.44 44.576 5.2C44.752 4.72 44.944 4.144 45.072 3.664H35.024C35.088 4.752 34.656 5.504 34.16 5.808C33.664 6.144 32.928 6.096 32.688 5.52C32.496 4.992 32.864 4.544 33.296 4.336C33.84 4.032 34.4 3.344 34.48 2.56C34.512 2.304 34.528 2.16 34.592 2.16C34.656 2.16 34.736 2.256 34.816 2.48C34.864 2.672 34.912 2.864 34.944 3.04H40.224C40.16 3.024 40.112 3.008 40.048 2.992C39.856 2.912 39.776 2.752 39.744 2.544C39.632 1.984 39.296 1.376 38.864 0.927999C38.672 0.735999 38.608 0.608 38.672 0.544C38.752 0.464 38.88 0.464 39.104 0.495999C42.016 0.992 41.648 2.816 40.624 3.04H45.056L45.632 2.512C45.808 2.352 46.016 2.336 46.208 2.512L47.168 3.36ZM32.592 15.232C32.528 15.12 32.64 14.992 32.896 14.88C36.48 13.264 37.008 11.248 37.2 8.96H33.744C33.52 8.96 33.36 8.864 33.296 8.64C33.232 8.464 33.392 8.336 33.68 8.336H44.496L45.12 7.616C45.28 7.424 45.488 7.392 45.68 7.536C46.032 7.792 46.448 8.096 46.784 8.368C46.96 8.512 47.088 8.704 46.912 8.88C46.832 8.944 46.736 8.96 46.608 8.96H42.304V13.328C42.304 13.504 42.368 13.568 42.928 13.568H44.432C45.024 13.568 45.536 13.552 45.76 13.536C45.984 13.52 46.064 13.472 46.128 13.344C46.256 13.12 46.4 12.608 46.592 11.904L46.688 11.536C46.752 11.296 46.816 11.2 46.864 11.2C46.912 11.2 46.96 11.328 46.96 11.6L46.992 13.392C47.424 13.536 47.536 13.744 47.536 14.048C47.536 14.72 46.928 14.944 44.304 14.944H42.608C41.136 14.944 40.8 14.688 40.8 13.616V8.96H38.848C38.544 11.744 37.808 13.952 33.056 15.312C32.816 15.376 32.672 15.344 32.592 15.232ZM35.552 5.968C35.504 5.776 35.632 5.664 35.92 5.664H42.064L42.656 4.992C42.816 4.8 43.024 4.768 43.216 4.928C43.552 5.152 43.92 5.44 44.256 5.696C44.448 5.84 44.56 6.032 44.384 6.192C44.304 6.272 44.208 6.288 44.08 6.288H35.984C35.744 6.288 35.6 6.176 35.552 5.968ZM53.92 6.768L54.4 6.32C54.592 6.144 54.768 6.16 54.96 6.304L55.792 6.928C56.016 7.088 56.08 7.344 55.856 7.456C55.76 7.504 55.632 7.536 55.472 7.552C55.376 10.784 55.136 12.24 54.512 12.752C54.16 13.04 53.776 13.184 53.328 13.232C53.072 13.248 52.944 13.104 52.912 12.848C52.896 12.656 52.832 12.496 52.704 12.336C52.592 12.224 52.352 12.128 52.048 12.048C51.808 11.984 51.696 11.888 51.696 11.76C51.696 11.632 51.84 11.568 52.112 11.6C52.48 11.632 52.88 11.648 53.072 11.648C53.328 11.648 53.456 11.616 53.536 11.536C53.84 11.216 53.984 10.016 54.048 7.392H51.632C51.632 9.792 51.376 13.008 48.88 15.2C48.688 15.36 48.56 15.424 48.48 15.344C48.416 15.28 48.432 15.136 48.56 14.928C49.984 12.608 50.128 9.824 50.128 7.216V3.552C50.128 3.264 50.32 3.136 50.592 3.232L51.888 3.696H56.416C56.368 2.784 56.336 1.856 56.32 0.895999C56.32 0.624 56.48 0.48 56.736 0.511999L57.984 0.624C58.24 0.655999 58.448 0.848 58.288 1.072C58.192 1.184 58.048 1.264 57.84 1.296C57.824 2.112 57.84 2.896 57.888 3.696H60.816L61.456 2.928C61.616 2.736 61.824 2.704 62.016 2.848C62.384 3.12 62.816 3.44 63.152 3.728C63.328 3.872 63.456 4.064 63.28 4.224C63.2 4.304 63.088 4.32 62.96 4.32H57.904C58.064 6.224 58.352 8.032 58.976 9.584C59.616 8.384 60.08 7.2 60.384 6C60.448 5.744 60.64 5.632 60.88 5.712L62.192 6.096C62.464 6.176 62.64 6.448 62.384 6.592C62.288 6.64 62.144 6.656 61.936 6.656C61.424 8.144 60.672 9.632 59.664 10.96C60.144 11.776 60.8 12.496 61.664 13.056C61.92 13.264 62.08 13.264 62.224 12.992C62.416 12.64 62.736 12 62.976 11.424C63.056 11.2 63.152 11.088 63.2 11.104C63.248 11.12 63.264 11.264 63.232 11.504L62.944 13.648C63.472 14.32 63.568 14.752 63.344 14.976C62.72 15.568 61.6 15.04 60.832 14.448C59.984 13.824 59.248 13.04 58.656 12.112C57.456 13.344 55.968 14.4 54.144 15.136C53.92 15.232 53.776 15.216 53.712 15.12C53.648 15.024 53.744 14.896 53.984 14.768C55.696 13.76 57.056 12.48 58.064 11.04C57.136 9.184 56.688 6.864 56.464 4.32H51.632V6.768H53.92ZM59.04 1.328C58.816 1.168 58.72 1.056 58.784 0.959999C58.848 0.879999 58.976 0.832 59.216 0.848C62.32 1.104 61.952 3.136 60.848 3.008C60.656 2.992 60.56 2.88 60.48 2.752C60.208 2.256 59.616 1.712 59.04 1.328Z" fill="#FFFEF9"/>
</svg>
