<svg width="46" height="15" viewBox="0 0 46 15" fill="none" xmlns="http://www.w3.org/2000/svg">
<path d="M6.66333 3.59297C6.73833 3.53297 6.85833 3.57797 7.02333 3.74297C7.32333 4.05797 7.63833 4.37297 7.92333 4.68797C8.13333 4.92797 8.34333 4.88297 8.40333 4.56797C8.49333 3.95297 8.56833 3.33797 8.62833 2.78297C8.64333 2.52797 8.80833 2.42297 9.04833 2.46797L10.5633 2.73797C10.8033 2.78297 10.9983 2.97797 10.8333 3.17297C10.7883 3.21797 10.7283 3.26297 10.6533 3.27797C10.4433 3.35297 10.3233 3.44297 10.2633 3.65297C10.0683 4.55297 9.81333 5.51297 9.48333 6.47297C9.42333 6.66797 9.43833 6.81797 9.52833 6.99797C11.0433 9.81797 10.2333 11.723 9.34833 11.183C9.19833 11.093 9.13833 10.958 9.10833 10.793C9.01833 10.358 8.89833 9.87797 8.77833 9.35297C8.68833 9.00797 8.44833 8.97797 8.28333 9.29297C7.66833 10.418 6.91833 11.453 6.01833 12.323C5.85333 12.488 5.73333 12.533 5.65833 12.458C5.58333 12.398 5.61333 12.263 5.74833 12.068C6.75333 10.553 7.47333 8.72297 7.93833 6.89297C7.98333 6.72797 7.96833 6.59297 7.90833 6.41297C7.59333 5.57297 7.20333 4.74797 6.73833 3.99797C6.60333 3.78797 6.57333 3.65297 6.66333 3.59297ZM0.573329 14.408C0.483329 14.408 0.423329 14.273 0.423329 14.033V1.07297C0.423329 0.802968 0.603329 0.667968 0.858329 0.772968L1.96833 1.19297C2.11833 1.25297 2.26833 1.28297 2.43333 1.28297H10.5933C10.7733 1.28297 10.9233 1.23797 11.0583 1.08797L11.3883 0.742968C11.5383 0.577968 11.7333 0.547968 11.9133 0.682968L13.0383 1.47797C13.2483 1.62797 13.2933 1.85297 13.0833 2.00297C13.0383 2.03297 13.0083 2.04797 12.9633 2.07797C12.7533 2.16797 12.6483 2.28797 12.6483 2.49797V12.548C12.6483 13.538 12.3783 14.183 10.6683 14.393C10.4133 14.438 10.2783 14.318 10.2183 14.093C10.1583 13.823 10.0533 13.628 9.81333 13.463C9.57333 13.283 9.22833 13.133 8.52333 13.013C8.28333 12.983 8.16333 12.878 8.16333 12.743C8.16333 12.608 8.26833 12.548 8.46333 12.548C8.56833 12.563 8.65833 12.563 8.76333 12.563C9.57333 12.623 10.3533 12.668 10.5933 12.668C10.9383 12.668 10.9983 12.593 10.9983 12.413V2.30297C10.9983 2.06297 10.8633 1.92797 10.6233 1.92797H2.43333C2.19333 1.92797 2.05833 2.06297 2.05833 2.30297V13.763C2.05833 14.093 1.38333 14.408 0.708329 14.408H0.573329ZM2.23833 12.113C2.16333 12.053 2.17833 11.933 2.29833 11.723C3.09333 10.388 3.64833 8.79797 4.05333 7.22297C4.09833 7.04297 4.08333 6.90797 4.00833 6.72797C3.57333 5.79797 3.04833 4.83797 2.38833 4.01297C2.22333 3.83297 2.19333 3.68297 2.26833 3.62297C2.35833 3.56297 2.49333 3.57797 2.67333 3.72797C3.16833 4.11797 3.61833 4.53797 4.02333 4.94297C4.24833 5.16797 4.45833 5.10797 4.50333 4.79297C4.60833 4.08797 4.68333 3.41297 4.72833 2.79797C4.74333 2.55797 4.90833 2.43797 5.14833 2.48297L6.67833 2.75297C6.91833 2.79797 7.09833 2.99297 6.93333 3.20297C6.90333 3.24797 6.84333 3.29297 6.78333 3.30797C6.57333 3.39797 6.43833 3.47297 6.39333 3.68297C6.19833 4.59797 5.95833 5.57297 5.62833 6.56297C5.56833 6.75797 5.58333 6.90797 5.68833 7.08797C6.93333 9.26297 6.31833 10.823 5.47833 10.433C5.31333 10.358 5.25333 10.238 5.19333 10.058C5.11833 9.83297 5.05833 9.59297 4.96833 9.33797C4.86333 9.02297 4.62333 9.00797 4.47333 9.30797C3.94833 10.283 3.31833 11.183 2.59833 11.948C2.43333 12.113 2.31333 12.173 2.23833 12.113ZM19.3783 0.382968C19.6333 0.412968 19.8133 0.577968 19.6933 0.802968C19.6633 0.862968 19.6033 0.907969 19.5433 0.952968C19.3483 1.05797 19.2283 1.16297 19.2283 1.37297V3.48797C19.2283 3.72797 19.2883 3.86297 19.3933 3.86297C19.4983 3.86297 19.6033 3.78797 19.7233 3.63797L20.0833 3.17297C20.2333 2.97797 20.4133 2.94797 20.6083 3.11297C20.8933 3.35297 21.2083 3.62297 21.4783 3.87797C21.6283 4.02797 21.7033 4.19297 21.5833 4.37297C21.4933 4.46297 21.3883 4.49297 21.2683 4.49297H19.6033C19.3633 4.49297 19.2283 4.62797 19.2283 4.86797V5.13797C19.2283 5.34797 19.3333 5.48297 19.5433 5.57297C22.2433 6.74297 21.2083 8.63297 20.1433 8.18297C19.9633 8.09297 19.9033 7.94297 19.8883 7.74797C19.8583 7.50797 19.7833 7.23797 19.6933 6.98297C19.5583 6.63797 19.2283 6.71297 19.2283 7.08797V13.853C19.2283 14.183 18.4933 14.438 17.9683 14.438C17.7733 14.438 17.6533 14.303 17.6533 14.063V9.08297C17.6533 8.72297 17.4133 8.64797 17.2183 8.96297C16.7983 9.59297 16.3333 10.178 15.8233 10.688C15.6583 10.868 15.5233 10.913 15.4483 10.838C15.3583 10.748 15.3883 10.628 15.5083 10.433C16.4533 8.84297 17.0233 6.84797 17.3683 4.89797C17.3983 4.64297 17.2783 4.49297 17.0233 4.49297H15.9883C15.7783 4.49297 15.6283 4.40297 15.5683 4.17797C15.5083 3.98297 15.6433 3.86297 15.9133 3.86297H17.2783C17.5183 3.86297 17.6533 3.72797 17.6533 3.48797V0.607968C17.6533 0.367968 17.8033 0.232968 18.0433 0.262968L19.3783 0.382968ZM20.0833 9.06797C20.0233 8.96297 20.1133 8.82797 20.3383 8.72297C21.8383 8.04797 23.1283 7.17797 24.1483 6.17297C24.3133 6.02297 24.3133 5.84297 24.1783 5.64797C23.8933 5.25797 23.6083 4.80797 23.3683 4.32797C23.2333 4.07297 23.0383 4.05797 22.8583 4.26797C22.2883 4.89797 21.7183 5.42297 21.1333 5.85797C20.9683 5.97797 20.8333 6.00797 20.7433 5.93297C20.6683 5.87297 20.6983 5.73797 20.8483 5.54297C21.7483 4.31297 22.5733 2.52797 23.0233 0.667968C23.0833 0.427968 23.2483 0.337968 23.4883 0.412968L24.9133 0.847968C25.1533 0.922968 25.3033 1.13297 25.1233 1.31297C25.0783 1.35797 25.0183 1.38797 24.9433 1.41797C24.7483 1.47797 24.5983 1.53797 24.5083 1.73297C24.4933 1.77797 24.4933 2.18297 24.7783 2.18297H26.2783C26.4583 2.18297 26.6083 2.13797 26.7433 2.01797L27.2083 1.62797C27.3733 1.47797 27.5533 1.49297 27.7333 1.62797L28.7233 2.43797C28.9183 2.60297 28.9783 2.82797 28.7683 2.94797C28.7083 2.97797 28.6483 2.99297 28.5583 3.00797C28.3633 3.05297 28.2433 3.12797 28.1383 3.30797C27.7033 4.16297 27.1483 4.94297 26.5033 5.61797C26.3083 5.81297 26.3383 6.00797 26.5783 6.12797C27.4183 6.53297 28.3783 6.87797 29.4583 7.11797C29.6983 7.16297 29.8033 7.26797 29.7883 7.37297C29.7733 7.50797 29.6683 7.56797 29.4733 7.65797C29.0683 7.83797 28.8283 8.09297 28.7233 8.46797C28.6483 8.70797 28.6183 8.84297 28.5883 8.82797C28.5433 8.81297 28.6483 8.87297 28.6633 9.05297C28.6633 9.12797 28.6333 9.21797 28.5283 9.29297C28.5133 9.30797 28.4833 9.32297 28.4683 9.32297C28.2583 9.42797 28.1383 9.51797 28.1383 9.74297V13.823C28.1383 14.048 27.6133 14.273 26.7583 14.273C26.5783 14.273 26.4733 14.138 26.4733 13.898V13.748C26.4733 13.508 26.3383 13.373 26.0983 13.373H23.9233C23.6833 13.373 23.5483 13.508 23.5483 13.748V13.943C23.5483 14.168 23.0833 14.408 22.2283 14.408C22.0633 14.408 21.9583 14.273 21.9583 14.033V9.11297C21.9583 8.84297 21.7933 8.72297 21.5233 8.81297C21.1783 8.93297 20.8483 9.05297 20.5033 9.15797C20.2783 9.21797 20.1433 9.18797 20.0833 9.06797ZM23.2933 8.03297C22.9933 8.18297 22.9633 8.39297 23.2183 8.48297L23.4883 8.58797C23.6383 8.64797 23.7883 8.66297 23.9533 8.66297H26.1583C26.3383 8.66297 26.4883 8.60297 26.6233 8.46797L26.6833 8.40797C26.8783 8.21297 26.8483 8.03297 26.6233 7.88297C26.2033 7.64297 25.8133 7.35797 25.4533 7.04297C25.2733 6.89297 25.1083 6.87797 24.9283 7.01297C24.4033 7.38797 23.8633 7.73297 23.2933 8.03297ZM23.6083 3.29297C23.4883 3.47297 23.4883 3.63797 23.6083 3.80297C23.9233 4.20797 24.2833 4.58297 24.7333 4.95797C24.9283 5.12297 25.1233 5.09297 25.2733 4.89797C25.6783 4.35797 26.0083 3.81797 26.2783 3.26297C26.4133 3.00797 26.2783 2.82797 25.9933 2.82797H24.2083C24.0133 2.82797 23.8783 2.90297 23.7583 3.06797C23.7133 3.14297 23.6533 3.21797 23.6083 3.29297ZM23.5483 12.353C23.5483 12.593 23.6833 12.728 23.9233 12.728H26.0983C26.3383 12.728 26.4733 12.593 26.4733 12.353V9.68297C26.4733 9.44297 26.3383 9.30797 26.0983 9.30797H23.9233C23.6833 9.30797 23.5483 9.44297 23.5483 9.68297V12.353ZM43.6733 2.40797C43.8233 2.22797 44.0183 2.21297 44.1983 2.34797C44.6183 2.66297 45.1133 3.02297 45.5033 3.35297C45.6683 3.48797 45.7733 3.65297 45.6533 3.83297C45.5783 3.93797 45.4433 3.96797 45.3083 3.96797H44.3183C44.0933 3.96797 43.9583 4.08797 43.9283 4.31297C43.5983 6.53297 42.9683 8.46797 41.8583 10.073C41.7233 10.268 41.7383 10.433 41.9183 10.598C42.8933 11.393 44.0483 12.038 45.3983 12.428C45.6233 12.488 45.7283 12.563 45.7133 12.698C45.6983 12.833 45.5933 12.908 45.3983 12.998C44.9333 13.193 44.5283 13.538 44.3033 14.003C44.1983 14.228 44.0633 14.318 43.8383 14.213C42.6083 13.643 41.6183 12.878 40.7633 11.888C40.5983 11.693 40.4183 11.678 40.2383 11.843C39.0383 12.878 37.5833 13.688 35.7083 14.318C35.4983 14.393 35.3483 14.363 35.3033 14.258C35.2433 14.153 35.3333 14.033 35.5583 13.928C37.3433 13.013 38.6783 11.963 39.6383 10.748C39.7583 10.583 39.7733 10.433 39.6683 10.238C38.8583 8.69297 38.3333 6.72797 38.0183 4.32797C37.9883 4.08797 37.8533 3.96797 37.6283 3.96797C37.4483 3.96797 37.2233 3.99797 37.2683 4.02797C37.4933 4.14797 37.6133 4.38797 37.3883 4.50797C37.3583 4.52297 37.3133 4.53797 37.2833 4.55297C37.0733 4.59797 36.9383 4.62797 36.8033 4.79297C36.0533 5.81297 34.9133 7.02797 33.8033 8.01797C33.5333 8.25797 33.6233 8.45297 33.9683 8.42297C34.8533 8.31797 35.8883 8.18297 36.9233 8.04797C37.1633 8.00297 37.3133 8.06297 37.3283 8.18297C37.3433 8.31797 37.2533 8.43797 37.0583 8.51297C36.1133 8.91797 34.6583 9.51797 32.9783 10.118C32.7983 10.178 32.7233 10.208 32.7233 10.208L32.7083 10.223C32.5733 10.403 32.3333 10.343 32.2283 10.103L31.7183 8.96297C31.6133 8.72297 31.6733 8.58797 31.8683 8.52797C31.9883 8.49797 32.1083 8.46797 32.1533 8.43797C32.7233 7.95797 33.3533 7.16297 33.9233 6.30797C34.1333 5.99297 33.9233 5.75297 33.5783 5.88797C33.2783 6.00797 32.9633 6.12797 32.6483 6.23297C32.6483 6.23297 32.2883 6.32297 32.1833 6.06797L31.6883 4.97297C31.5833 4.74797 31.6283 4.58297 31.7933 4.53797C31.8083 4.53797 31.8233 4.52297 31.8383 4.52297C32.0033 4.46297 32.0933 4.40297 32.1983 4.26797C32.9033 3.45797 33.7283 1.80797 34.0883 0.712968C34.1633 0.487969 34.3283 0.397968 34.5533 0.487969L35.9783 0.997968C36.2033 1.07297 36.3533 1.29797 36.1733 1.47797C36.1433 1.50797 36.0983 1.53797 36.0383 1.55297C35.8433 1.61297 35.7083 1.65797 35.5883 1.80797C35.0183 2.58797 34.2083 3.45797 33.4433 4.17797C33.1883 4.40297 32.9783 4.62797 33.0083 4.62797H33.0833C33.1883 4.62797 33.3083 4.61297 33.4133 4.61297L34.2383 4.56797C34.3883 4.56797 34.5383 4.56797 34.6883 4.55297C34.8983 4.53797 35.0333 4.46297 35.1233 4.26797C35.2583 3.99797 35.3783 3.75797 35.4683 3.53297C35.5733 3.30797 35.7383 3.23297 35.9633 3.35297L36.3383 3.54797C36.6233 3.69797 36.8633 3.80297 36.8633 3.77297L36.8483 3.74297C36.7733 3.47297 36.8933 3.32297 37.1633 3.32297H40.3433C40.3283 3.32297 40.3133 3.30797 40.2983 3.30797C40.1333 3.24797 40.0583 3.08297 40.0283 2.88797C39.9233 2.16797 39.5483 1.38797 39.0983 0.757968C38.9483 0.562968 38.9183 0.427968 38.9783 0.382968C39.0533 0.337968 39.1733 0.322968 39.3683 0.382968C41.8283 1.04297 42.0533 2.42297 41.4983 3.06797C41.3183 3.26297 41.3333 3.32297 41.6033 3.32297H42.6233C42.8183 3.32297 42.9683 3.26297 43.0883 3.11297L43.6733 2.40797ZM31.7483 12.098C31.6433 11.858 31.7183 11.678 31.9733 11.618C33.1133 11.378 35.1983 10.868 37.2533 10.313C37.4783 10.238 37.6283 10.253 37.6583 10.373C37.6883 10.493 37.6133 10.598 37.4333 10.718C36.4283 11.378 34.9883 12.218 33.0683 13.178C32.8883 13.268 32.8133 13.328 32.7833 13.388C32.6483 13.613 32.4083 13.523 32.3033 13.283L31.7483 12.098ZM38.6633 3.96797C38.4083 3.96797 38.2733 4.11797 38.3333 4.38797C38.7383 6.09797 39.3983 7.58297 40.3283 8.85797C40.4933 9.09797 40.7333 9.06797 40.8533 8.81297C41.5133 7.44797 41.8733 5.99297 42.0533 4.35797C42.0833 4.11797 41.9483 3.96797 41.7083 3.96797H38.6633Z" fill="#7A6855"/>
</svg>
