<svg width="64" height="16" viewBox="0 0 64 16" fill="none" xmlns="http://www.w3.org/2000/svg">
<path d="M12.864 2.704C13.024 2.512 13.216 2.48 13.424 2.64C13.744 2.896 14.128 3.184 14.432 3.456C14.608 3.616 14.72 3.808 14.544 3.968C14.464 4.048 14.352 4.064 14.224 4.064H10.688V6.656H12.768L13.36 5.904C13.52 5.712 13.728 5.68 13.936 5.84C14.256 6.096 14.64 6.4 14.96 6.672C15.136 6.832 15.232 7.024 15.072 7.184C14.992 7.264 14.896 7.28 14.768 7.28H11.904V11.104C11.904 11.248 11.92 11.264 12.256 11.264H12.96C13.264 11.264 13.488 11.264 13.6 11.248C13.76 11.248 13.824 11.216 13.872 11.12C13.952 10.928 14.064 10.48 14.208 9.904L14.336 9.424C14.4 9.2 14.464 9.072 14.512 9.072C14.56 9.072 14.608 9.2 14.608 9.472L14.64 11.152C14.992 11.28 15.072 11.488 15.072 11.76C15.072 12.352 14.592 12.608 12.848 12.608H11.84C10.72 12.608 10.528 12.288 10.528 11.424V7.28H9.136C8.88 10.016 7.84 11.728 5.232 12.8C6.416 13.408 8.032 13.568 10.368 13.568C12.016 13.568 13.424 13.552 15.056 13.488C15.328 13.472 15.472 13.536 15.472 13.648C15.472 13.76 15.36 13.824 15.136 13.92C14.816 14.064 14.608 14.304 14.496 14.576C14.416 14.816 14.304 14.928 14.064 14.928H9.888C6.736 14.928 5.296 14.368 3.872 12.56C3.648 12.352 3.44 12.384 3.312 12.576L2.784 13.376C2.464 13.824 2.096 14.384 1.84 14.784C1.84 14.784 1.552 14.992 1.36 14.736L0.8 14.032C0.64 13.824 0.672 13.616 0.896 13.472C1.232 13.264 1.568 13.008 1.92 12.752C2.192 12.56 2.48 12.336 2.672 12.208V6.656H1.056C0.816 6.656 0.672 6.544 0.64 6.336C0.608 6.144 0.752 6.032 1.024 6.032H2.448L2.928 5.424C3.088 5.232 3.312 5.2 3.504 5.36L4.528 6.16C4.752 6.336 4.784 6.592 4.528 6.704C4.4 6.768 4.24 6.8 4.016 6.832V11.92L4.064 11.968C4.304 12.224 4.608 12.448 4.96 12.656C4.928 12.56 5.008 12.464 5.216 12.32C7.04 11.008 7.504 9.472 7.6 7.28H5.824C5.6 7.28 5.456 7.184 5.392 6.96C5.328 6.784 5.488 6.656 5.776 6.656H9.248V4.064H7.248C6.8 4.864 6.304 5.552 5.76 6.08C5.6 6.256 5.472 6.288 5.376 6.24C5.296 6.208 5.312 6.048 5.424 5.808C6 4.64 6.448 3.072 6.704 1.472C6.752 1.2 6.912 1.088 7.168 1.152L8.32 1.424C8.576 1.488 8.768 1.712 8.56 1.904C8.464 1.984 8.32 2.032 8.128 2.032C7.952 2.544 7.76 3.008 7.552 3.44H9.248V1.008C9.248 0.751999 9.408 0.591999 9.664 0.624L10.848 0.735999C11.12 0.768 11.344 0.992 11.136 1.2C11.04 1.28 10.896 1.344 10.688 1.376V3.44H12.272L12.864 2.704ZM1.44 1.232C1.28 1.008 1.248 0.863999 1.312 0.815999C1.392 0.768 1.52 0.783999 1.728 0.879999C5.408 2.496 4.544 4.992 3.232 4.48C3.04 4.416 2.96 4.288 2.912 4.112C2.672 3.2 2.048 2.08 1.44 1.232ZM29.312 1.12C29.472 0.927999 29.664 0.912 29.856 1.056C30.288 1.36 30.768 1.728 31.184 2.048C31.36 2.192 31.488 2.4 31.312 2.56C31.216 2.624 31.104 2.64 30.976 2.64H23.648C23.088 4.208 22.288 5.728 21.28 7.104L21.872 7.312H28.144L28.656 6.784C28.816 6.608 29.024 6.592 29.216 6.736L30.288 7.504C30.528 7.68 30.56 7.92 30.304 8.064C30.176 8.128 30.016 8.192 29.84 8.224V14.512C29.84 14.688 29.824 14.848 29.68 14.96C29.408 15.12 28.896 15.248 28.544 15.248C28.4 15.248 28.304 15.104 28.304 14.848V13.84H21.664V14.88C21.664 15.088 21.216 15.392 20.416 15.392C20.256 15.392 20.16 15.248 20.16 14.992V8.496C19.168 9.6 18.064 10.576 16.864 11.376C16.656 11.52 16.512 11.536 16.448 11.456C16.384 11.392 16.448 11.264 16.64 11.072C19.056 8.784 20.96 5.568 21.68 2.64H17.232C17.008 2.64 16.864 2.544 16.8 2.32C16.736 2.144 16.896 2.016 17.184 2.016H28.56L29.312 1.12ZM21.664 13.216H28.304V7.936H21.664V13.216ZM47.168 3.36C47.376 3.552 47.424 3.824 47.184 3.872C47.088 3.904 46.976 3.92 46.8 3.92C46.32 4.432 45.552 5.072 44.928 5.504C44.736 5.632 44.624 5.664 44.56 5.616C44.496 5.584 44.496 5.44 44.576 5.2C44.752 4.72 44.944 4.144 45.072 3.664H35.024C35.088 4.752 34.656 5.504 34.16 5.808C33.664 6.144 32.928 6.096 32.688 5.52C32.496 4.992 32.864 4.544 33.296 4.336C33.84 4.032 34.4 3.344 34.48 2.56C34.512 2.304 34.528 2.16 34.592 2.16C34.656 2.16 34.736 2.256 34.816 2.48C34.864 2.672 34.912 2.864 34.944 3.04H40.224C40.16 3.024 40.112 3.008 40.048 2.992C39.856 2.912 39.776 2.752 39.744 2.544C39.632 1.984 39.296 1.376 38.864 0.927999C38.672 0.735999 38.608 0.608 38.672 0.544C38.752 0.464 38.88 0.464 39.104 0.495999C42.016 0.992 41.648 2.816 40.624 3.04H45.056L45.632 2.512C45.808 2.352 46.016 2.336 46.208 2.512L47.168 3.36ZM32.592 15.232C32.528 15.12 32.64 14.992 32.896 14.88C36.48 13.264 37.008 11.248 37.2 8.96H33.744C33.52 8.96 33.36 8.864 33.296 8.64C33.232 8.464 33.392 8.336 33.68 8.336H44.496L45.12 7.616C45.28 7.424 45.488 7.392 45.68 7.536C46.032 7.792 46.448 8.096 46.784 8.368C46.96 8.512 47.088 8.704 46.912 8.88C46.832 8.944 46.736 8.96 46.608 8.96H42.304V13.328C42.304 13.504 42.368 13.568 42.928 13.568H44.432C45.024 13.568 45.536 13.552 45.76 13.536C45.984 13.52 46.064 13.472 46.128 13.344C46.256 13.12 46.4 12.608 46.592 11.904L46.688 11.536C46.752 11.296 46.816 11.2 46.864 11.2C46.912 11.2 46.96 11.328 46.96 11.6L46.992 13.392C47.424 13.536 47.536 13.744 47.536 14.048C47.536 14.72 46.928 14.944 44.304 14.944H42.608C41.136 14.944 40.8 14.688 40.8 13.616V8.96H38.848C38.544 11.744 37.808 13.952 33.056 15.312C32.816 15.376 32.672 15.344 32.592 15.232ZM35.552 5.968C35.504 5.776 35.632 5.664 35.92 5.664H42.064L42.656 4.992C42.816 4.8 43.024 4.768 43.216 4.928C43.552 5.152 43.92 5.44 44.256 5.696C44.448 5.84 44.56 6.032 44.384 6.192C44.304 6.272 44.208 6.288 44.08 6.288H35.984C35.744 6.288 35.6 6.176 35.552 5.968ZM53.92 6.768L54.4 6.32C54.592 6.144 54.768 6.16 54.96 6.304L55.792 6.928C56.016 7.088 56.08 7.344 55.856 7.456C55.76 7.504 55.632 7.536 55.472 7.552C55.376 10.784 55.136 12.24 54.512 12.752C54.16 13.04 53.776 13.184 53.328 13.232C53.072 13.248 52.944 13.104 52.912 12.848C52.896 12.656 52.832 12.496 52.704 12.336C52.592 12.224 52.352 12.128 52.048 12.048C51.808 11.984 51.696 11.888 51.696 11.76C51.696 11.632 51.84 11.568 52.112 11.6C52.48 11.632 52.88 11.648 53.072 11.648C53.328 11.648 53.456 11.616 53.536 11.536C53.84 11.216 53.984 10.016 54.048 7.392H51.632C51.632 9.792 51.376 13.008 48.88 15.2C48.688 15.36 48.56 15.424 48.48 15.344C48.416 15.28 48.432 15.136 48.56 14.928C49.984 12.608 50.128 9.824 50.128 7.216V3.552C50.128 3.264 50.32 3.136 50.592 3.232L51.888 3.696H56.416C56.368 2.784 56.336 1.856 56.32 0.895999C56.32 0.624 56.48 0.48 56.736 0.511999L57.984 0.624C58.24 0.655999 58.448 0.848 58.288 1.072C58.192 1.184 58.048 1.264 57.84 1.296C57.824 2.112 57.84 2.896 57.888 3.696H60.816L61.456 2.928C61.616 2.736 61.824 2.704 62.016 2.848C62.384 3.12 62.816 3.44 63.152 3.728C63.328 3.872 63.456 4.064 63.28 4.224C63.2 4.304 63.088 4.32 62.96 4.32H57.904C58.064 6.224 58.352 8.032 58.976 9.584C59.616 8.384 60.08 7.2 60.384 6C60.448 5.744 60.64 5.632 60.88 5.712L62.192 6.096C62.464 6.176 62.64 6.448 62.384 6.592C62.288 6.64 62.144 6.656 61.936 6.656C61.424 8.144 60.672 9.632 59.664 10.96C60.144 11.776 60.8 12.496 61.664 13.056C61.92 13.264 62.08 13.264 62.224 12.992C62.416 12.64 62.736 12 62.976 11.424C63.056 11.2 63.152 11.088 63.2 11.104C63.248 11.12 63.264 11.264 63.232 11.504L62.944 13.648C63.472 14.32 63.568 14.752 63.344 14.976C62.72 15.568 61.6 15.04 60.832 14.448C59.984 13.824 59.248 13.04 58.656 12.112C57.456 13.344 55.968 14.4 54.144 15.136C53.92 15.232 53.776 15.216 53.712 15.12C53.648 15.024 53.744 14.896 53.984 14.768C55.696 13.76 57.056 12.48 58.064 11.04C57.136 9.184 56.688 6.864 56.464 4.32H51.632V6.768H53.92ZM59.04 1.328C58.816 1.168 58.72 1.056 58.784 0.959999C58.848 0.879999 58.976 0.832 59.216 0.848C62.32 1.104 61.952 3.136 60.848 3.008C60.656 2.992 60.56 2.88 60.48 2.752C60.208 2.256 59.616 1.712 59.04 1.328Z" fill="#FFFEF9"/>
</svg>
