<svg width="56" height="16" viewBox="0 0 56 16" fill="none" xmlns="http://www.w3.org/2000/svg">
<path d="M10.9119 2.97124L11.6479 2.37924C11.8399 2.23524 12.0319 2.23524 12.2079 2.39524L13.2159 3.27524C13.4239 3.46724 13.4719 3.73924 13.1999 3.81924C13.0879 3.86724 12.9439 3.86724 12.7359 3.86724C11.9039 5.14724 10.8799 6.26724 9.67986 7.21124C11.4079 8.10724 13.4719 8.68324 15.6319 9.03524C15.8879 9.08324 16.0159 9.14724 15.9999 9.27524C15.9839 9.38724 15.8559 9.46724 15.6479 9.54724C15.2319 9.69124 14.9279 9.96324 14.7519 10.3152C14.6399 10.5552 14.4959 10.6512 14.2559 10.5872C12.1119 10.0432 10.1919 9.22724 8.62387 7.99524C6.57586 9.35524 4.11186 10.3632 1.21586 10.9712C0.975864 11.0192 0.847864 10.9712 0.783864 10.8432C0.719864 10.7312 0.847864 10.6032 1.10386 10.5232C3.63186 9.70724 5.87186 8.53924 7.64786 7.13124C6.87986 6.37924 6.22386 5.46724 5.69586 4.39524C4.54386 5.57924 3.21586 6.63524 1.82386 7.35524C1.61586 7.46724 1.45586 7.46724 1.39186 7.38724C1.32786 7.30724 1.40786 7.17924 1.61586 7.00324C3.47186 5.56324 5.18386 3.22724 6.06386 1.11524C6.15986 0.875237 6.33586 0.795237 6.57586 0.859237L7.98386 1.21124C8.27186 1.29124 8.46386 1.57924 8.22386 1.67524C8.12786 1.70724 7.98386 1.70724 7.77586 1.69124C7.50386 2.13924 7.21586 2.57124 6.91186 2.97124L10.9119 2.97124ZM4.30386 12.9712C4.04786 12.9072 3.93586 12.7952 3.95186 12.6672C3.96786 12.5392 4.12786 12.4592 4.39986 12.4752C12.9279 12.8592 12.8639 15.8832 11.3439 15.7872C11.1679 15.7872 11.0719 15.7392 11.0079 15.6912C9.82386 14.8592 7.27986 13.6912 4.30386 12.9712ZM5.98386 4.07524C6.59186 4.97124 7.42386 5.78724 8.41586 6.45924C9.40786 5.56324 10.2079 4.60324 10.7999 3.59524L6.39986 3.59524C6.25586 3.77124 6.12786 3.94724 5.98386 4.07524ZM6.46386 10.1392C6.22386 10.0432 6.12786 9.91524 6.15986 9.80324C6.19186 9.67524 6.33586 9.62724 6.60786 9.64324C11.4079 9.88324 11.1679 12.1872 9.98386 12.1552C9.79186 12.1552 9.71186 12.1072 9.64786 12.0432C9.10386 11.5312 7.91986 10.7632 6.46386 10.1392ZM33.8079 2.04324C34.0159 2.23524 34.0319 2.57124 33.7439 2.57124C33.5839 2.55524 33.3919 2.50724 33.1519 2.41124C32.7839 2.47524 32.3999 2.53924 31.9999 2.58724C32.2719 7.05124 33.0719 11.1152 35.6319 13.8352C35.7919 13.9952 35.8559 14.1072 35.8239 14.2192C35.7919 14.3312 35.6799 14.3952 35.4719 14.4592C35.0239 14.6192 34.7039 14.9072 34.4959 15.3232C34.3679 15.5952 34.2239 15.6272 34.0799 15.3712C32.2719 12.3952 31.8239 7.24324 31.6959 2.63524C30.7679 2.76324 29.7919 2.87524 28.7519 2.98724L28.7519 13.0192C28.9759 12.9552 29.1679 12.8912 29.3919 12.8112L30.4639 12.4592C30.2559 11.8192 29.9999 11.2112 29.7439 10.6352C29.6319 10.3952 29.6319 10.2352 29.7119 10.2032C29.8079 10.1712 29.9199 10.2192 30.0959 10.3792C33.3279 13.0512 32.4159 15.7072 31.2159 15.0832C31.0239 14.9872 30.9759 14.8432 30.9599 14.6352C30.9119 14.1072 30.7999 13.5312 30.6239 12.9552C29.9039 13.4672 28.7999 14.2672 27.6799 14.9552C27.6799 14.9552 27.6799 14.9552 27.6799 14.9712C27.6319 15.0352 27.2799 15.1312 27.1359 14.8912L26.6719 14.1232C26.5279 13.8832 26.5919 13.7072 26.8479 13.5632C27.2319 13.3712 27.2639 13.2592 27.2639 13.0352L27.2639 3.11524C26.2879 3.19524 25.2959 3.24324 24.3359 3.29124L24.3359 6.42724C24.3359 9.11524 24.1119 12.9072 21.3119 15.5472C21.1199 15.7232 20.9759 15.7712 20.8959 15.6912C20.8159 15.6112 20.8319 15.4672 20.9599 15.2592C22.6559 12.5232 22.8479 9.30724 22.8479 6.37924L22.8479 2.77924C22.8479 2.49124 23.0239 2.36324 23.2959 2.44324L24.3039 2.74724C27.1039 2.33124 30.3519 1.61124 32.2559 1.00324C32.4639 0.939237 32.6239 0.955236 32.7999 1.11524L33.8079 2.04324ZM54.3839 5.72324C54.6079 5.88324 54.6879 6.13924 54.4639 6.23524C54.3519 6.28324 54.2239 6.31524 54.0799 6.33124C54.0319 7.35524 53.9999 8.25124 53.9679 9.06724C53.8559 11.8672 53.7919 13.4192 53.8239 13.9952C53.8239 14.2032 53.8399 14.2192 54.0319 14.2192L54.4799 14.2192C54.6559 14.2192 54.7039 14.2032 54.7519 14.0912C54.8959 13.7072 55.0399 13.0672 55.1679 12.4272C55.2159 12.1712 55.2799 12.0592 55.3279 12.0592C55.3759 12.0592 55.4079 12.1872 55.4079 12.4592L55.3759 14.0592C55.8079 14.2192 55.9039 14.2992 55.9039 14.6032C55.9039 15.1312 55.5039 15.4672 54.5279 15.4672L53.8559 15.4672C52.8799 15.4672 52.5119 15.0992 52.5119 14.0752C52.5119 13.5152 52.5439 12.6832 52.5919 11.3232C52.6399 10.0912 52.7039 8.44324 52.7679 6.18724L50.2879 6.18724C50.1119 8.82724 49.8879 11.9792 49.7279 13.6112C50.3359 13.3712 50.9919 13.0832 51.6639 12.7952C51.9039 12.6992 52.0639 12.6992 52.1119 12.7952C52.1599 12.9232 52.0799 13.0352 51.8879 13.1792C51.7119 13.3072 51.5199 13.4512 51.2959 13.6272C50.6559 14.1232 49.7919 14.7792 48.9279 15.3872C48.9279 15.3872 48.5279 15.5952 48.3839 15.3552L47.9199 14.6032C47.7919 14.3792 47.8719 14.2512 48.0479 14.0912C48.2399 13.8992 48.4159 13.5952 48.4639 13.1952C48.6399 12.1392 49.0239 5.43524 49.1679 2.90724L48.3839 2.90724C48.1599 2.90724 48.0159 2.81124 47.9519 2.58724C47.8879 2.41124 48.0479 2.28324 48.3359 2.28324L53.2479 2.28324L53.8399 1.56324C53.9999 1.35524 54.2079 1.33924 54.3999 1.49924C54.7359 1.75524 55.1199 2.04324 55.4399 2.29924C55.6159 2.45924 55.7279 2.65124 55.5519 2.81124C55.4719 2.89124 55.3599 2.90724 55.2479 2.90724L50.4959 2.90724L50.3199 5.56324L52.6559 5.56324L52.9759 5.17924C53.1359 4.97124 53.3279 4.93924 53.5359 5.09924L54.3839 5.72324ZM40.7679 15.7232C40.6879 15.6432 40.7359 15.5152 40.8959 15.3072C42.2399 13.5472 42.5119 11.4512 42.5599 9.40324L41.1999 9.40324C40.9759 9.40324 40.8319 9.30724 40.7679 9.08324C40.7039 8.90724 40.8639 8.77924 41.1519 8.77924L42.5599 8.77924L42.5599 5.05124L41.5039 5.05124C41.2799 5.05124 41.1359 4.95524 41.0719 4.73124C41.0079 4.55524 41.1679 4.42724 41.4559 4.42724L44.8799 4.42724C45.2319 3.59524 45.5999 2.42724 45.8719 1.29124C45.9359 1.03524 46.1119 0.939237 46.3679 1.01924L47.5999 1.41924C47.8559 1.49924 48.0159 1.75524 47.7919 1.91524C47.6799 1.97924 47.5359 1.99524 47.3599 1.99524C46.7839 2.89124 46.0959 3.78724 45.4399 4.42724L46.2879 4.42724L46.7679 3.83524C46.9279 3.62724 47.1359 3.61124 47.3279 3.78724C47.5839 3.99524 47.8879 4.21924 48.1439 4.44324C48.3199 4.60324 48.4319 4.79524 48.2719 4.95524C48.1919 5.03524 48.0959 5.05124 47.9679 5.05124L46.5599 5.05124L46.5599 8.77924L46.6079 8.77924L47.0719 8.20324C47.2319 7.99524 47.4399 7.97924 47.6319 8.15524C47.8879 8.36324 48.1759 8.58724 48.4159 8.79524C48.5759 8.95524 48.6879 9.14724 48.5279 9.30724C48.4479 9.38724 48.3519 9.40324 48.2239 9.40324L46.5599 9.40324L46.5599 15.4032C46.5599 15.5792 46.1759 15.8512 45.5039 15.8512C45.3599 15.8512 45.2799 15.7072 45.2799 15.4512L45.2799 9.40324L43.8239 9.40324C43.7439 11.5312 43.3279 13.9472 41.1839 15.6112C40.9919 15.7712 40.8479 15.8032 40.7679 15.7232ZM41.7279 1.48324C41.5839 1.25924 41.5519 1.11524 41.6159 1.06724C41.6959 1.01924 41.8239 1.03524 42.0319 1.13124C45.0879 2.53924 44.0959 4.68324 42.9599 4.18724C42.7679 4.10724 42.7039 3.96324 42.6719 3.77124C42.5599 3.03524 42.1599 2.15524 41.7279 1.48324ZM43.8399 8.77924L45.2799 8.77924L45.2799 5.05124L43.8399 5.05124L43.8399 8.77924ZM50.4959 8.04324C50.3839 7.80324 50.3679 7.62724 50.4479 7.61124C50.5439 7.57924 50.6559 7.62724 50.8319 7.77124C52.9919 9.51524 52.2079 11.2272 51.3919 10.8592C51.1999 10.7792 51.1519 10.6192 51.1359 10.4272C51.0719 9.67524 50.7839 8.76324 50.4959 8.04324Z" fill="white"/>
</svg>
