<svg width="188" height="20" viewBox="0 0 188 20" fill="none" xmlns="http://www.w3.org/2000/svg">
<path d="M8.66 5.64C8.98 5.66 9.24 5.9 9.06 6.18C9.02 6.26 8.94 6.32 8.86 6.38C8.6 6.52 8.44 6.66 8.44 6.94V12.16C8.44 12.56 7.48 12.84 6.74 12.84C6.52 12.84 6.4 12.66 6.4 12.34V6.18C6.4 5.86 6.32 5.68 6.18 5.68C6.1 5.68 6.02 5.68 5.94 5.68C5.72 5.68 5.6 5.5 5.6 5.18V4.38C5.6 4.06 5.42 3.88 5.1 3.88H1.16C0.86 3.88 0.68 3.74 0.62 3.44C0.56 3.18 0.74 3.02 1.08 3.02H5.1C5.42 3.02 5.6 2.84 5.6 2.52V1.34C5.6 1.02 5.8 0.839999 6.12 0.859999L7.88 0.98C8.2 1 8.46 1.22 8.3 1.52C8.24 1.6 8.18 1.66 8.1 1.72C7.84 1.86 7.68 2 7.68 2.28V2.52C7.68 2.84 7.86 3.02 8.18 3.02H11.68C12 3.02 12.18 2.84 12.18 2.52V1.34C12.18 1.02 12.38 0.839999 12.7 0.859999L14.48 0.98C14.8 1 15.08 1.22 14.92 1.52C14.88 1.6 14.8 1.66 14.72 1.72C14.46 1.86 14.3 2 14.3 2.28V2.52C14.3 2.84 14.48 3.02 14.8 3.02H15.9C16.16 3.02 16.36 2.94 16.52 2.74L17.08 2.06C17.28 1.82 17.54 1.78 17.78 1.96C18.24 2.3 18.74 2.7 19.18 3.06C19.38 3.24 19.52 3.46 19.36 3.7C19.26 3.84 19.1 3.88 18.92 3.88H14.8C14.48 3.88 14.3 4.06 14.3 4.38V5.04C14.3 5.18 14.18 5.28 13.98 5.36C13.7 5.48 13.74 5.5 13.84 5.74C13.9 5.84 13.88 5.98 13.76 6.1C13.7 6.16 13.62 6.2 13.54 6.22C13.28 6.32 13.1 6.4 12.98 6.66C12.96 6.7 12.94 6.72 12.94 6.76C12.76 7.1 12.94 7.34 13.32 7.34H15.34C15.6 7.34 15.8 7.26 15.96 7.04L16.56 6.28C16.76 6.02 17 5.98 17.26 6.2C17.7 6.56 18.22 7 18.64 7.4C18.84 7.58 18.98 7.8 18.82 8.02C18.72 8.16 18.56 8.2 18.38 8.2H12.62C12.36 8.2 12.16 8.3 12.02 8.54C11.24 9.88 10.36 11.04 9.38 11.9C9.16 12.1 9.02 12.16 8.9 12.08C8.78 12.02 8.8 11.84 8.94 11.54C9.78 9.86 10.5 7.58 10.9 5.32C10.96 4.98 11.16 4.86 11.48 4.94L11.62 4.98C11.98 5.08 12.18 4.88 12.18 4.54V4.38C12.18 4.06 12 3.88 11.68 3.88H8.18C7.86 3.88 7.68 4.06 7.68 4.38V5.12C7.68 5.12 7.66 5.54 8.08 5.58L8.66 5.64ZM0.74 18.54C0.66 18.26 0.84 18.1 1.2 18.1H2.18C2.5 18.1 2.68 17.92 2.68 17.6V12.8C2.68 12.44 2.92 12.28 3.26 12.4L4.8 12.94C5.02 13.02 5.2 13.04 5.42 13.04H14.34C14.58 13.04 14.78 12.98 14.96 12.8L15.36 12.44C15.58 12.24 15.8 12.22 16.06 12.4L17.34 13.26C17.62 13.46 17.72 13.72 17.5 13.9L17.48 13.92C17.36 14 17.08 14.2 17.08 14.48V17.6C17.08 17.92 17.12 18.1 17.16 18.1H17.22L17.78 17.28C17.96 17 18.22 16.98 18.48 17.2C18.78 17.5 19.1 17.82 19.38 18.14C19.56 18.34 19.66 18.54 19.52 18.78C19.42 18.92 19.28 18.96 19.12 18.96H1.3C1.02 18.96 0.82 18.82 0.74 18.54ZM2.94 12.06C2.84 12.06 2.78 11.88 2.78 11.56V6.58C2.78 6.26 2.98 6.08 3.3 6.1L4.96 6.24C5.3 6.26 5.56 6.5 5.36 6.8C5.32 6.88 5.24 6.94 5.16 7C4.9 7.14 4.74 7.28 4.74 7.56V11.42C4.74 11.78 3.9 12.06 3.1 12.06H2.94ZM4.84 17.6C4.84 17.92 5.02 18.1 5.34 18.1H6.26C6.58 18.1 6.76 17.92 6.76 17.6V14.4C6.76 14.08 6.58 13.9 6.26 13.9H5.34C5.02 13.9 4.84 14.08 4.84 14.4V17.6ZM8.84 17.6C8.84 17.92 9.02 18.1 9.34 18.1H10.32C10.64 18.1 10.82 17.92 10.82 17.6V14.4C10.82 14.08 10.64 13.9 10.32 13.9H9.34C9.02 13.9 8.84 14.08 8.84 14.4V17.6ZM12.88 9.06C12.68 8.8 12.6 8.62 12.7 8.54C12.8 8.46 12.98 8.44 13.24 8.5C17.5 9.56 16.2 12.62 14.52 12.04C14.26 11.96 14.18 11.78 14.14 11.54C13.98 10.7 13.46 9.74 12.88 9.06ZM12.9 17.6C12.9 17.92 13.08 18.1 13.4 18.1H14.36C14.68 18.1 14.86 17.92 14.86 17.6V14.4C14.86 14.08 14.68 13.9 14.36 13.9H13.4C13.08 13.9 12.9 14.08 12.9 14.4V17.6ZM37.24 9.76C37.44 9.52 37.68 9.48 37.94 9.68C38.4 10.02 38.92 10.44 39.36 10.82C39.58 11.02 39.7 11.24 39.5 11.48C39.4 11.6 39.26 11.64 39.1 11.64H35.54C35.22 11.64 35.04 11.82 35.04 12.14V13.02C35.04 13.34 35.22 13.52 35.54 13.52H36.58C36.84 13.52 37.04 13.42 37.2 13.22L37.84 12.44C38.04 12.18 38.28 12.16 38.54 12.36C39.02 12.72 39.58 13.16 40.04 13.56C40.26 13.76 40.38 13.98 40.18 14.22C40.08 14.34 39.94 14.38 39.78 14.38H35.54C35.22 14.38 35.04 14.56 35.04 14.88V16.84C35.04 17.22 34.2 17.46 33.44 17.5H34.18C36.18 17.5 37.92 17.48 39.92 17.38C40.26 17.38 40.44 17.46 40.44 17.62C40.44 17.8 40.3 17.9 40.02 18.02C39.48 18.24 39.18 18.62 39.04 19.06C38.96 19.36 38.8 19.52 38.5 19.52H33.46C29.6 19.52 27.92 18.9 26.3 17.08C26.14 16.92 26.06 16.78 25.84 16.7C25.64 16.64 25.46 16.7 25.34 16.86C25.18 17.1 25.02 17.32 24.82 17.54C24.38 18.12 23.86 18.8 23.5 19.34C23.5 19.34 23.14 19.56 22.9 19.24L22.04 18.06C21.84 17.78 21.9 17.54 22.2 17.38C22.78 17.1 23.4 16.76 23.98 16.46C24 16.44 24.02 16.44 24.04 16.42C24.28 16.28 24.4 16.12 24.4 15.84V11.64C24.4 11.32 24.22 11.14 23.9 11.14H22.48C22.18 11.14 22 11 21.94 10.7C21.9 10.44 22.08 10.28 22.42 10.28H23.74C24 10.28 24.2 10.2 24.36 10L24.74 9.56C24.98 9.26 25.12 9.06 25.08 9.06C25.06 9.06 25.04 9.06 25.02 9.04C24.76 8.96 24.68 8.76 24.62 8.5C24.46 7.66 23.92 6.72 23.3 6C23.08 5.76 23 5.58 23.1 5.5C23.2 5.4 23.38 5.38 23.66 5.44C27.4 6.3 27.16 8.6 25.94 9.06C25.6 9.18 25.56 9.26 25.84 9.48L27.14 10.48C27.4 10.68 27.48 10.98 27.2 11.16C27.12 11.22 27.02 11.26 26.92 11.3C26.62 11.38 26.48 11.54 26.48 11.84V15.74C26.48 16 26.56 16.2 26.78 16.34C27.98 17.12 29.76 17.4 32.4 17.48C32.74 17.5 32.92 17.32 32.92 17V14.88C32.92 14.56 32.74 14.38 32.42 14.38H28.24C27.96 14.38 27.76 14.26 27.68 13.96C27.6 13.7 27.78 13.52 28.14 13.52H32.42C32.74 13.52 32.92 13.34 32.92 13.02V12.14C32.92 11.82 32.74 11.64 32.42 11.64H31.3C31.06 11.64 30.86 11.7 30.68 11.88L30.44 12.12C30.22 12.32 30 12.38 29.74 12.2L28.46 11.34C28.14 11.14 28.12 10.82 28.42 10.66C28.5 10.62 28.58 10.58 28.64 10.56C28.88 10.44 29.02 10.32 29.14 10.1C29.36 9.58 29.6 9.02 29.82 8.48C29.96 8.12 29.78 7.9 29.42 7.9H28.16C27.88 7.9 27.68 7.78 27.6 7.48C27.52 7.22 27.7 7.04 28.06 7.04H29.96C30.24 7.04 30.4 7.02 30.42 6.96C30.42 6.94 30.42 6.92 30.44 6.88C30.46 6.84 30.48 6.78 30.48 6.76C30.66 6.3 30.82 5.88 30.92 5.54C31.02 5.24 31.24 5.12 31.54 5.2L32.44 5.46C32.78 5.56 33 5.4 33 5.04V4.7C33 4.38 32.82 4.2 32.5 4.2H29.38C29.06 4.2 28.88 4.38 28.88 4.7V5.6C28.88 6.02 27.96 6.2 27.08 6.2C26.86 6.2 26.72 6.02 26.72 5.7V4.7C26.72 4.38 26.54 4.2 26.22 4.2H22.22C21.92 4.2 21.74 4.06 21.68 3.76C21.64 3.5 21.82 3.34 22.16 3.34H26.22C26.54 3.34 26.72 3.16 26.72 2.84V1.48C26.72 1.16 26.92 0.98 27.24 1L29.08 1.18C29.4 1.22 29.66 1.42 29.48 1.72C29.44 1.78 29.38 1.84 29.3 1.9C29.04 2.04 28.88 2.18 28.88 2.46V2.84C28.88 3.16 29.06 3.34 29.38 3.34H32.5C32.82 3.34 33 3.16 33 2.84V1.48C33 1.16 33.18 0.959999 33.52 1L35.38 1.18C35.7 1.22 35.96 1.42 35.78 1.72C35.74 1.78 35.68 1.84 35.62 1.88C35.36 2.04 35.2 2.18 35.2 2.46V2.84C35.2 3.16 35.38 3.34 35.7 3.34H36.8C37.06 3.34 37.26 3.26 37.42 3.06L38.02 2.32C38.22 2.06 38.46 2.04 38.72 2.24C39.18 2.58 39.72 3 40.14 3.4C40.34 3.58 40.48 3.8 40.32 4.02C40.22 4.16 40.06 4.2 39.88 4.2H35.7C35.38 4.2 35.2 4.38 35.2 4.7V5.52C35.2 5.8 34.78 5.98 34.14 6.06C33.88 6.1 33.74 6.22 33.52 6.38C33.46 6.42 33.4 6.44 33.34 6.46C33.06 6.54 32.88 6.58 32.8 6.8C32.8 6.8 32.98 7.04 33.34 7.04H36.06C36.32 7.04 36.52 6.94 36.68 6.74L37.28 6C37.48 5.74 37.74 5.72 37.98 5.92C38.46 6.28 39.02 6.7 39.48 7.1C39.68 7.28 39.82 7.52 39.64 7.74C39.52 7.86 39.36 7.9 39.2 7.9H32.78C32.5 7.9 32.32 8.02 32.2 8.3C31.94 8.96 31.66 9.6 31.4 10.2C31.26 10.54 31.4 10.78 31.78 10.78H32.42C32.74 10.78 32.92 10.6 32.92 10.28V8.68C32.92 8.36 33.12 8.18 33.44 8.2L35.26 8.38C35.58 8.42 35.84 8.62 35.66 8.92C35.62 9 35.54 9.06 35.46 9.12C35.2 9.26 35.04 9.4 35.04 9.68V10.28C35.04 10.6 35.22 10.78 35.54 10.78H36.04C36.3 10.78 36.5 10.68 36.66 10.48L37.24 9.76ZM54.7 6.5C55.02 6.52 55.28 6.74 55.12 7.04C55.06 7.1 55 7.16 54.94 7.2C54.68 7.36 54.52 7.5 54.52 7.78V10.48C54.52 10.92 54.82 11.06 55.14 10.72C56.06 9.74 56.9 8.7 57.64 7.66C57.82 7.4 58.08 7.36 58.34 7.54L60.02 8.64C60.3 8.84 60.4 9.22 60.08 9.34C60 9.36 59.92 9.36 59.82 9.36C59.54 9.32 59.34 9.36 59.14 9.56C57.76 11.02 56.3 12.26 54.84 13.28C54.62 13.44 54.52 13.62 54.52 13.88V16.82C54.52 17.12 54.66 17.24 55.38 17.24H57.26C57.96 17.24 58.54 17.24 58.82 17.2C59.1 17.2 59.3 17.12 59.38 16.98C59.6 16.6 59.88 15.62 60.2 14.48C60.28 14.18 60.38 14.04 60.44 14.04C60.5 14.04 60.54 14.2 60.54 14.54L60.6 16.64C60.6 16.92 60.74 17.06 60.98 17.22C61.3 17.42 61.42 17.66 61.42 18C61.42 19.02 60.46 19.3 57.04 19.3H54.92C52.88 19.3 52.28 18.9 52.28 17.28V15.48C52.28 15.1 52.04 14.94 51.68 15.12C50.94 15.48 50.22 15.78 49.54 16.04C49.24 16.14 49.06 16.12 48.98 15.96C48.9 15.8 49 15.66 49.28 15.5C50.2 14.94 51.1 14.3 51.98 13.6C52.2 13.42 52.28 13.24 52.28 12.98V6.8C52.28 6.48 52.48 6.28 52.8 6.32L53.26 6.36C53.58 6.4 53.78 6.22 53.78 5.9V4.8C53.78 4.48 53.6 4.3 53.28 4.3H50.56C50.24 4.3 50.06 4.48 50.06 4.8V5.9C50.06 6.08 49.88 6.22 49.6 6.32C49.16 6.46 49.12 6.64 49.54 6.8L49.92 6.94C50.22 7.06 50.42 7.36 50.16 7.6C50.08 7.66 50 7.7 49.88 7.72C49.62 7.78 49.42 7.82 49.28 8.08C49.04 8.48 48.8 8.86 48.56 9.2C48.36 9.5 48.42 9.74 48.7 9.84C49 9.94 49.22 10.22 48.98 10.44C48.96 10.46 48.94 10.48 48.92 10.5C48.68 10.66 48.52 10.78 48.52 11.06V18.9C48.52 19.12 48.52 19.3 48.34 19.44C48.02 19.66 47.32 19.82 46.72 19.82C46.46 19.82 46.3 19.64 46.3 19.32V12.82C46.3 12.38 46.02 12.26 45.68 12.56C44.8 13.36 43.88 14.04 42.96 14.6C42.7 14.76 42.54 14.78 42.42 14.66C42.3 14.56 42.38 14.38 42.6 14.14C44.36 12.28 46.16 9.46 47.26 6.46C47.36 6.16 47.52 6.02 47.64 6.06C47.76 6.12 47.84 5.88 47.84 5.52V4.8C47.84 4.48 47.66 4.3 47.34 4.3H43.26C42.96 4.3 42.78 4.16 42.72 3.86C42.66 3.6 42.84 3.44 43.18 3.44H47.34C47.66 3.44 47.84 3.26 47.84 2.94V1.48C47.84 1.16 48.04 0.98 48.36 1L50.24 1.16C50.56 1.18 50.84 1.4 50.66 1.7C50.62 1.76 50.56 1.82 50.48 1.88C50.22 2.02 50.06 2.16 50.06 2.44V2.94C50.06 3.26 50.24 3.44 50.56 3.44H53.28C53.6 3.44 53.78 3.26 53.78 2.94V1.48C53.78 1.16 53.98 0.98 54.3 1L56.24 1.16C56.58 1.18 56.84 1.42 56.64 1.72C56.6 1.78 56.54 1.84 56.46 1.88C56.2 2.02 56.04 2.16 56.04 2.44V2.94C56.04 3.26 56.22 3.44 56.54 3.44H57.62C57.88 3.44 58.08 3.36 58.24 3.16L58.88 2.38C59.08 2.12 59.34 2.1 59.58 2.3C60.06 2.66 60.62 3.1 61.06 3.5C61.26 3.68 61.4 3.9 61.24 4.12C61.14 4.26 60.98 4.3 60.8 4.3H56.54C56.22 4.3 56.04 4.48 56.04 4.8V5.8C56.04 6.16 55.18 6.42 54.14 6.42H53.86L54.7 6.5ZM79.84 3.82C80.04 3.58 80.3 3.56 80.54 3.74C81.1 4.16 81.76 4.64 82.28 5.08C82.5 5.26 82.64 5.48 82.48 5.72C82.38 5.86 82.2 5.9 82.02 5.9H80.7C80.4 5.9 80.22 6.06 80.18 6.36C79.74 9.32 78.9 11.9 77.42 14.04C77.24 14.3 77.26 14.52 77.5 14.74C78.8 15.8 80.34 16.66 82.14 17.18C82.44 17.26 82.58 17.36 82.56 17.54C82.54 17.72 82.4 17.82 82.14 17.94C81.52 18.2 80.98 18.66 80.68 19.28C80.54 19.58 80.36 19.7 80.06 19.56C78.42 18.8 77.1 17.78 75.96 16.46C75.74 16.2 75.5 16.18 75.26 16.4C73.66 17.78 71.72 18.86 69.22 19.7C68.94 19.8 68.74 19.76 68.68 19.62C68.6 19.48 68.72 19.32 69.02 19.18C71.4 17.96 73.18 16.56 74.46 14.94C74.62 14.72 74.64 14.52 74.5 14.26C73.42 12.2 72.72 9.58 72.3 6.38C72.26 6.06 72.08 5.9 71.78 5.9C71.54 5.9 71.24 5.94 71.3 5.98C71.6 6.14 71.76 6.46 71.46 6.62C71.42 6.64 71.36 6.66 71.32 6.68C71.04 6.74 70.86 6.78 70.68 7C69.68 8.36 68.16 9.98 66.68 11.3C66.32 11.62 66.44 11.88 66.9 11.84C68.08 11.7 69.46 11.52 70.84 11.34C71.16 11.28 71.36 11.36 71.38 11.52C71.4 11.7 71.28 11.86 71.02 11.96C69.76 12.5 67.82 13.3 65.58 14.1C65.34 14.18 65.24 14.22 65.24 14.22L65.22 14.24C65.04 14.48 64.72 14.4 64.58 14.08L63.9 12.56C63.76 12.24 63.84 12.06 64.1 11.98C64.26 11.94 64.42 11.9 64.48 11.86C65.24 11.22 66.08 10.16 66.84 9.02C67.12 8.6 66.84 8.28 66.38 8.46C65.98 8.62 65.56 8.78 65.14 8.92C65.14 8.92 64.66 9.04 64.52 8.7L63.86 7.24C63.72 6.94 63.78 6.72 64 6.66C64.02 6.66 64.04 6.64 64.06 6.64C64.28 6.56 64.4 6.48 64.54 6.3C65.48 5.22 66.58 3.02 67.06 1.56C67.16 1.26 67.38 1.14 67.68 1.26L69.58 1.94C69.88 2.04 70.08 2.34 69.84 2.58C69.8 2.62 69.74 2.66 69.66 2.68C69.4 2.76 69.22 2.82 69.06 3.02C68.3 4.06 67.22 5.22 66.2 6.18C65.86 6.48 65.58 6.78 65.62 6.78H65.72C65.86 6.78 66.02 6.76 66.16 6.76L67.26 6.7C67.46 6.7 67.66 6.7 67.86 6.68C68.14 6.66 68.32 6.56 68.44 6.3C68.62 5.94 68.78 5.62 68.9 5.32C69.04 5.02 69.26 4.92 69.56 5.08L70.06 5.34C70.44 5.54 70.76 5.68 70.76 5.64L70.74 5.6C70.64 5.24 70.8 5.04 71.16 5.04H75.4C75.38 5.04 75.36 5.02 75.34 5.02C75.12 4.94 75.02 4.72 74.98 4.46C74.84 3.5 74.34 2.46 73.74 1.62C73.54 1.36 73.5 1.18 73.58 1.12C73.68 1.06 73.84 1.04 74.1 1.12C77.38 2 77.68 3.84 76.94 4.7C76.7 4.96 76.72 5.04 77.08 5.04H78.44C78.7 5.04 78.9 4.96 79.06 4.76L79.84 3.82ZM63.94 16.74C63.8 16.42 63.9 16.18 64.24 16.1C65.76 15.78 68.54 15.1 71.28 14.36C71.58 14.26 71.78 14.28 71.82 14.44C71.86 14.6 71.76 14.74 71.52 14.9C70.18 15.78 68.26 16.9 65.7 18.18C65.46 18.3 65.36 18.38 65.32 18.46C65.14 18.76 64.82 18.64 64.68 18.32L63.94 16.74ZM73.16 5.9C72.82 5.9 72.64 6.1 72.72 6.46C73.26 8.74 74.14 10.72 75.38 12.42C75.6 12.74 75.92 12.7 76.08 12.36C76.96 10.54 77.44 8.6 77.68 6.42C77.72 6.1 77.54 5.9 77.22 5.9H73.16ZM86.74 4.72C86.74 4.36 86.98 4.18 87.32 4.3L89.04 4.94C89.24 5.02 89.44 5.04 89.66 5.04H91.18C91.48 5.04 91.66 4.9 91.72 4.6C91.96 3.56 92.18 2.36 92.34 1.38C92.4 1.06 92.6 0.919999 92.92 0.98L95.32 1.48C95.64 1.54 95.88 1.82 95.64 2.1C95.58 2.18 95.5 2.22 95.38 2.26C95.14 2.34 94.94 2.38 94.78 2.58C94.28 3.14 93.72 3.82 93.14 4.44C92.84 4.76 92.96 5.04 93.4 5.04H98.3C98.54 5.04 98.74 4.96 98.92 4.78L99.54 4.16C99.76 3.94 100 3.92 100.24 4.1L101.96 5.38C102.24 5.6 102.28 5.88 102 6.08C101.92 6.14 101.84 6.18 101.74 6.22C101.46 6.34 101.32 6.5 101.32 6.78V18.8C101.28 19.2 100.1 19.68 99.26 19.68C99.02 19.68 98.88 19.5 98.88 19.18V18.46C98.88 18.14 98.7 17.96 98.38 17.96H89.66C89.34 17.96 89.16 18.14 89.16 18.46V18.86C89.16 19.32 88.12 19.76 87.14 19.76C86.88 19.76 86.74 19.58 86.74 19.26V4.72ZM89.16 16.6C89.16 16.92 89.34 17.1 89.66 17.1H98.38C98.7 17.1 98.88 16.92 98.88 16.6V12.32C98.88 12 98.7 11.82 98.38 11.82H89.66C89.34 11.82 89.16 12 89.16 12.32V16.6ZM89.16 10.46C89.16 10.78 89.34 10.96 89.66 10.96H98.38C98.7 10.96 98.88 10.78 98.88 10.46V6.38C98.88 6.06 98.7 5.88 98.38 5.88H89.66C89.34 5.88 89.16 6.06 89.16 6.38V10.46ZM112.74 14.02C112.84 13.9 113 13.86 113.3 13.9C117.12 14.3 116.38 16.76 114.98 16.58C114.74 16.54 114.62 16.38 114.48 16.16C114.18 15.62 113.56 15 113 14.52C112.74 14.3 112.64 14.14 112.74 14.02ZM106 10.9C105.92 10.64 106.1 10.48 106.46 10.48H107.5C107.92 10.48 108.16 10.42 108.04 10.28C107.98 10.18 107.92 10.1 107.88 9.98C107.78 9.76 107.8 9.6 107.82 9.36C107.98 8.06 107.92 7.46 107.44 7.26C107.28 7.2 107.12 7.14 106.92 7.1C106.62 7.04 106.46 6.9 106.46 6.68C106.46 6.46 106.64 6.34 106.96 6.34H107.54C107.9 6.34 108 6.32 108.26 6.08C108.78 5.64 108.8 5.64 112.12 2.4C112.36 2.16 112.54 2.08 112.66 2.16C112.76 2.24 112.74 2.42 112.54 2.7C112.38 2.94 112.18 3.2 111.96 3.48L111.54 4.04C110.82 4.98 110.1 5.94 109.94 6.18C109.66 6.62 109.46 6.98 109.46 7.22C109.46 7.42 109.54 7.6 109.68 7.92C109.82 8.24 110.02 8.7 109.98 9.34C109.98 9.62 109.9 9.86 109.78 10.06C109.54 10.4 109.52 10.48 109.92 10.48H120.46C120.72 10.48 120.88 10.42 121.06 10.22C121.26 10 121.16 9.8 120.82 9.62C119.32 8.86 118.46 7.7 117.96 6.52C117.8 6.16 117.66 6.18 117.52 6.52C116.88 8.02 115.4 9.28 111.22 10.24C110.9 10.3 110.7 10.24 110.62 10.02C110.54 9.84 110.68 9.66 111 9.54C114.94 8.08 115.58 6.52 115.74 4.54C115.78 4.22 115.96 4.06 116.28 4.08L118.1 4.22C118.42 4.24 118.68 4.48 118.5 4.76C118.46 4.84 118.4 4.9 118.32 4.94C118.08 5.1 117.92 5.06 117.92 5.12C117.9 5.16 117.94 5.3 118.08 5.5C118.76 6.52 120.4 7.38 123.4 7.9C123.72 7.96 123.88 8.08 123.88 8.24C123.86 8.4 123.72 8.52 123.42 8.6C123.08 8.7 122.82 8.84 122.62 9.02C122.4 9.24 122.48 9.5 122.74 9.68C123.06 9.92 123.46 10.22 123.84 10.52C124.06 10.7 124.2 10.94 124.02 11.16C123.9 11.28 123.76 11.32 123.58 11.32H113.56C113.28 11.32 113.08 11.44 112.98 11.72L112.78 12.24C112.64 12.6 112.8 12.82 113.16 12.82H117.48C117.74 12.82 117.92 12.72 118.08 12.54L118.38 12.22C118.58 12 118.82 11.94 119.08 12.12L120.52 13.06C120.82 13.24 120.9 13.56 120.6 13.72C120.56 13.74 120.52 13.76 120.48 13.76C120.22 13.88 120.08 13.92 120.04 14.06C120.02 14.14 120.02 14.2 120 14.26L119.84 14.98C119.58 16.24 119.44 16.9 119.44 17.24C119.46 17.44 119.56 17.48 120.02 17.48H121.94C122.56 17.48 122.7 17.44 122.76 17.3C122.94 16.9 123.14 16.3 123.3 15.66C123.36 15.36 123.44 15.22 123.5 15.22C123.56 15.22 123.6 15.38 123.6 15.72L123.58 16.78C123.58 17.06 123.72 17.26 124 17.38C124.4 17.54 124.54 17.72 124.54 18.1C124.54 18.98 123.78 19.5 121.96 19.5H119.7C117.86 19.5 117.32 18.88 117.3 17.44C117.28 16.94 117.38 16.42 117.52 15.62C117.62 15.22 117.7 14.76 117.8 14.22C117.86 13.88 117.68 13.68 117.34 13.68H112.64C112.36 13.68 112.16 13.8 112.06 14.08C111.66 15.06 111.26 16.06 110.94 16.82C110.8 17.18 110.96 17.4 111.34 17.36C112.62 17.26 114.1 17.1 115.54 16.94C115.88 16.9 116.08 16.96 116.08 17.16C116.08 17.36 115.96 17.5 115.68 17.6C114.12 18.12 111.78 18.86 109.04 19.54C109.04 19.54 108.64 19.64 108.46 19.34L107.68 18.02C107.52 17.76 107.6 17.54 107.86 17.34C108.14 17.12 108.46 16.82 108.62 16.54C108.96 15.96 109.88 13.52 110.46 11.9C110.58 11.54 110.42 11.32 110.06 11.32H106.56C106.28 11.32 106.08 11.18 106 10.9ZM106.86 2.1C106.6 1.88 106.48 1.72 106.58 1.62C106.68 1.52 106.86 1.46 107.14 1.48C111.42 1.74 110.48 4.76 108.78 4.4C108.54 4.34 108.42 4.2 108.36 4C108.1 3.36 107.5 2.62 106.86 2.1ZM110.82 7.08C110.72 7 110.8 6.82 111 6.58C112.18 5.22 113.14 3.12 113.6 1.26C113.66 0.959999 113.88 0.819999 114.18 0.859999L116.28 1.18C116.62 1.24 116.9 1.56 116.6 1.76C116.56 1.8 116.5 1.82 116.42 1.84C116.14 1.9 115.96 1.96 115.82 2.22C115.76 2.32 115.7 2.42 115.64 2.52C115.44 2.88 115.58 3.12 115.98 3.12H120.34C120.58 3.12 120.76 3.06 120.96 2.88L121.48 2.42C121.72 2.2 121.96 2.2 122.2 2.42L123.54 3.6C123.8 3.84 123.86 4.18 123.56 4.26C123.52 4.28 123.46 4.28 123.42 4.3C123.16 4.34 122.98 4.38 122.8 4.54C122.14 5.08 121.3 5.66 120.6 6.06C120.36 6.2 120.2 6.22 120.12 6.16C120.04 6.12 120.04 5.94 120.16 5.64C120.28 5.3 120.4 4.92 120.52 4.54C120.64 4.2 120.46 3.98 120.1 3.98H115.02C114.76 3.98 114.58 4.06 114.4 4.28C113.5 5.36 112.44 6.32 111.34 7C111.1 7.16 110.92 7.18 110.82 7.08ZM138.76 3.64C139 3.64 139.2 3.58 139.38 3.42L140.2 2.74C140.44 2.56 140.68 2.56 140.9 2.76L142.46 4.1C142.7 4.32 142.8 4.6 142.54 4.78C142.44 4.84 142.34 4.88 142.18 4.88C141.92 4.92 141.74 5.02 141.58 5.24C140.72 6.46 139.72 7.6 138.6 8.56C138.3 8.82 138.34 9.1 138.7 9.24C140.66 10.08 142.96 10.64 145.28 10.98C145.6 11.02 145.76 11.12 145.74 11.3C145.72 11.48 145.56 11.58 145.3 11.66C144.62 11.88 144.16 12.32 143.9 12.92C143.78 13.22 143.6 13.34 143.3 13.26C140.84 12.62 138.66 11.72 136.8 10.38C136.56 10.2 136.34 10.2 136.1 10.34C133.56 11.88 130.58 13 127.1 13.66C126.8 13.72 126.6 13.64 126.54 13.46C126.48 13.28 126.62 13.14 126.94 13.04C129.86 12.08 132.52 10.76 134.64 9.14C134.9 8.94 134.9 8.7 134.7 8.44C134.12 7.78 133.58 7 133.12 6.12C132.96 5.8 132.7 5.76 132.44 6.02C131.08 7.3 129.56 8.42 127.98 9.18C127.7 9.32 127.52 9.3 127.44 9.18C127.36 9.06 127.44 8.9 127.7 8.7C130 6.9 132.08 3.94 133.1 1.26C133.22 0.959999 133.42 0.839999 133.72 0.919999L135.96 1.44C136.3 1.52 136.56 1.88 136.26 2.06C136.2 2.1 136.14 2.12 136.06 2.12C135.78 2.16 135.6 2.22 135.44 2.46C135.3 2.66 135.18 2.84 135.04 3.04C134.8 3.38 134.96 3.64 135.36 3.64H138.76ZM131.02 16.26C130.72 16.18 130.58 16.06 130.6 15.86C130.62 15.66 130.8 15.58 131.16 15.58C142.2 15.72 141.84 20 139.64 19.8C139.42 19.78 139.3 19.72 139.22 19.66C137.8 18.64 134.64 17.2 131.02 16.26ZM133.64 12.7C133.36 12.56 133.22 12.4 133.28 12.24C133.34 12.08 133.52 11.98 133.84 11.98C140.26 12.04 139.76 15.4 138 15.3C137.76 15.28 137.66 15.22 137.58 15.14C136.96 14.5 135.48 13.5 133.64 12.7ZM133.38 5.08C133.32 5.14 133.36 5.3 133.54 5.54C134.14 6.32 134.88 7 135.76 7.62C136.02 7.8 136.26 7.78 136.46 7.58C137.3 6.78 137.98 5.94 138.54 5.08C138.76 4.74 138.6 4.48 138.2 4.48H134.3C134.04 4.48 133.86 4.56 133.72 4.74L133.7 4.76C133.64 4.82 133.46 5 133.38 5.08ZM164.04 2.68C164.32 2.94 164.32 3.3 163.96 3.34C163.8 3.36 163.62 3.32 163.38 3.26C163.14 3.18 162.96 3.16 162.72 3.2C162.52 3.22 162.34 3.26 162.14 3.28C161.82 3.32 161.66 3.5 161.7 3.82C162.06 9.1 163.22 13.78 166.3 16.92C166.5 17.1 166.56 17.26 166.54 17.4C166.52 17.54 166.36 17.64 166.1 17.72C165.38 17.98 164.88 18.46 164.6 19.16C164.46 19.5 164.28 19.54 164.1 19.22C162.02 15.68 161.5 9.46 161.34 3.92C161.32 3.58 161.28 3.42 161.18 3.42C161.14 3.42 161.1 3.42 161.06 3.42C160.98 3.44 160.88 3.46 160.8 3.46C160.56 3.48 160.36 3.5 160.14 3.54C159.58 3.6 158.98 3.66 158.38 3.72C158.06 3.74 157.9 3.94 157.9 4.24V15.32C157.9 15.68 158.12 15.86 158.46 15.74L159.18 15.5C159.48 15.4 159.62 15.2 159.52 14.88C159.34 14.32 159.14 13.78 158.92 13.24C158.8 12.94 158.8 12.74 158.9 12.7C159.02 12.66 159.16 12.72 159.38 12.9C163.72 16.2 162.26 19.84 160.56 18.9C160.34 18.76 160.26 18.58 160.24 18.32C160.22 17.8 160.14 17.26 160.02 16.68C159.92 16.3 159.64 16.2 159.34 16.44C158.5 17.16 157.42 18.02 156.28 18.8C156.28 18.82 156.26 18.82 156.26 18.84C156.12 19 155.76 19 155.58 18.72L154.76 17.5C154.58 17.22 154.66 16.96 155 16.8C155.62 16.48 155.68 16.36 155.68 16.06V4.46C155.68 4.14 155.5 3.96 155.16 3.98C154.4 4.02 153.64 4.06 152.86 4.1C152.54 4.12 152.38 4.28 152.38 4.6V8.02C152.38 11.42 152.1 16.26 148.24 19.5C148 19.7 147.8 19.74 147.72 19.64C147.64 19.54 147.66 19.36 147.82 19.1C149.92 15.66 150.14 11.62 150.14 7.96V3.3C150.14 2.94 150.36 2.78 150.7 2.88L151.98 3.24C152.2 3.3 152.38 3.3 152.62 3.26C155.9 2.72 159.6 1.82 161.78 1.08C162.04 1 162.24 1.04 162.46 1.24L164.04 2.68ZM185.84 7.04C186.14 7.24 186.2 7.56 185.92 7.72C185.9 7.74 185.86 7.74 185.84 7.76C185.56 7.88 185.4 8 185.38 8.3C185.36 9.4 185.32 10.38 185.3 11.26L185.24 13.12C185.16 15.4 185.12 16.72 185.14 17.3C185.14 17.54 185.14 17.54 185.36 17.54H185.78C186 17.54 186.06 17.5 186.1 17.38C186.28 16.92 186.46 16.1 186.62 15.28C186.7 14.98 186.78 14.82 186.84 14.82C186.9 14.84 186.94 14.98 186.94 15.3L186.9 16.9C186.9 17.2 187.04 17.34 187.3 17.48C187.56 17.64 187.64 17.8 187.64 18.12C187.64 18.92 187.08 19.38 185.8 19.38H185.08C183.74 19.38 183.22 18.84 183.22 17.42C183.22 16.98 183.24 16.4 183.26 15.62C183.26 15.14 183.28 14.58 183.3 13.92C183.36 12.52 183.42 10.64 183.48 8.18C183.5 7.84 183.32 7.66 183 7.66H181.24C180.94 7.66 180.74 7.82 180.72 8.14C180.54 10.92 180.32 14.02 180.14 16.04C180.1 16.42 180.34 16.58 180.7 16.46C181.22 16.26 181.74 16.04 182.28 15.82C182.58 15.7 182.78 15.7 182.84 15.86C182.9 16 182.82 16.16 182.6 16.36C181.8 17.04 180.58 18.08 179.16 19.1C178.98 19.24 178.92 19.3 178.92 19.3C178.88 19.4 178.44 19.58 178.24 19.26L177.46 18.08C177.3 17.82 177.38 17.64 177.6 17.42C177.88 17.14 178.14 16.7 178.22 16.16C178.42 14.92 178.84 7.6 179.02 4.1C179.04 3.78 178.84 3.6 178.52 3.6H178.14C177.86 3.6 177.66 3.48 177.58 3.18C177.5 2.92 177.68 2.74 178.04 2.74H183.66C183.92 2.74 184.12 2.66 184.28 2.46L184.88 1.74C185.08 1.5 185.34 1.46 185.58 1.64C186.06 2 186.62 2.4 187.08 2.8C187.28 2.98 187.42 3.22 187.24 3.44C187.12 3.56 186.98 3.6 186.82 3.6H181.5C181.2 3.6 181 3.78 180.98 4.08L180.84 6.28C180.82 6.6 181 6.8 181.32 6.8H182.98C183.24 6.8 183.42 6.7 183.58 6.52L183.84 6.24C184.04 6 184.26 5.96 184.52 6.14L185.84 7.04ZM168.56 19.68C168.46 19.56 168.5 19.4 168.68 19.16C170.26 17.06 170.6 14.66 170.68 12.22C170.7 11.9 170.52 11.72 170.2 11.72H169.14C168.86 11.72 168.66 11.6 168.58 11.3C168.5 11.04 168.68 10.86 169.04 10.86H170.2C170.52 10.86 170.7 10.68 170.7 10.36V6.82C170.7 6.5 170.52 6.32 170.2 6.32H169.48C169.2 6.32 169 6.2 168.92 5.9C168.84 5.64 169.02 5.46 169.38 5.46H173.3C173.58 5.46 173.76 5.34 173.86 5.06C174.2 4.02 174.52 2.72 174.8 1.46C174.86 1.12 175.08 1 175.4 1.1L177.3 1.7C177.62 1.8 177.82 2.08 177.58 2.32C177.52 2.38 177.44 2.44 177.34 2.46C177.08 2.54 176.9 2.6 176.74 2.82C176.22 3.54 175.66 4.26 175.12 4.86C174.82 5.18 174.74 5.46 174.98 5.46H175.06C175.32 5.46 175.52 5.36 175.68 5.16L176.12 4.62C176.32 4.38 176.56 4.34 176.82 4.54C177.2 4.84 177.62 5.18 177.98 5.5C178.2 5.7 178.32 5.92 178.14 6.16C178.04 6.28 177.9 6.32 177.74 6.32H176.52C176.2 6.32 176.02 6.5 176.02 6.82V9.72C176.02 10.18 176.28 10.38 176.52 10.08C176.72 9.84 176.96 9.8 177.22 10C177.56 10.28 177.96 10.6 178.28 10.9C178.5 11.1 178.62 11.32 178.44 11.56C178.34 11.68 178.2 11.72 178.04 11.72H176.52C176.2 11.72 176.02 11.9 176.02 12.22V19.22C176.02 19.52 175.46 19.86 174.46 19.86C174.26 19.86 174.14 19.68 174.14 19.36V12.22C174.14 11.9 173.96 11.72 173.64 11.72H173.04C172.72 11.72 172.56 11.88 172.54 12.2C172.4 14.76 171.76 17.56 169.1 19.56C168.84 19.76 168.66 19.78 168.56 19.68ZM169.72 1.7C169.56 1.42 169.52 1.24 169.62 1.18C169.72 1.1 169.88 1.12 170.14 1.22C174.4 2.96 172.82 5.98 171.14 5.22C170.9 5.1 170.82 4.92 170.8 4.66C170.68 3.66 170.22 2.56 169.72 1.7ZM172.58 10.36C172.58 10.68 172.76 10.86 173.08 10.86H173.64C173.96 10.86 174.14 10.68 174.14 10.36V6.82C174.14 6.5 173.96 6.32 173.64 6.32H173.08C172.76 6.32 172.58 6.5 172.58 6.82V10.36ZM180.84 9.92C180.72 9.6 180.72 9.42 180.82 9.38C180.94 9.34 181.08 9.4 181.3 9.58C184.12 11.8 182.9 14.08 181.74 13.48C181.52 13.36 181.46 13.16 181.46 12.92C181.42 11.96 181.14 10.82 180.84 9.92Z" fill="#463A36"/>
</svg>
