<svg width="47" height="15" viewBox="0 0 47 15" fill="none" xmlns="http://www.w3.org/2000/svg">
<path d="M5.66857 7.46297C5.74357 7.38797 5.86357 7.35797 6.07357 7.38797C9.16357 7.71797 8.24857 9.84797 7.00357 9.51797C6.80857 9.45797 6.73357 9.33797 6.67357 9.15797C6.50857 8.72297 6.17857 8.22797 5.83357 7.83797C5.65357 7.65797 5.59357 7.52297 5.66857 7.46297ZM0.568573 6.87797C0.523573 6.74297 0.613573 6.62297 0.838573 6.54797C3.14857 5.70797 4.81357 4.38797 5.72857 2.70797C5.87857 2.43797 5.74357 2.25797 5.45857 2.25797H4.06357C3.88357 2.25797 3.73357 2.30297 3.59857 2.43797C3.58357 2.45297 3.58357 2.45297 3.56857 2.46797C3.40357 2.63297 3.43357 2.84297 3.70357 2.97797C5.02357 3.60797 4.30357 4.88297 3.41857 4.65797C3.22357 4.61297 3.16357 4.46297 3.10357 4.28297C3.04357 4.08797 2.93857 3.87797 2.80357 3.65297C2.66857 3.44297 2.47357 3.42797 2.27857 3.57797C1.85857 3.90797 1.42357 4.17797 1.01857 4.38797C0.823573 4.49297 0.688573 4.49297 0.613573 4.40297C0.538573 4.32797 0.598573 4.19297 0.793573 4.02797C1.76857 3.11297 2.63857 1.73297 3.08857 0.487969C3.17857 0.277969 3.32857 0.187968 3.55357 0.232968L4.94857 0.532968C5.20357 0.592968 5.39857 0.832969 5.18857 0.982968C5.15857 0.997968 5.11357 1.01297 5.05357 1.01297C4.85857 1.04297 4.72357 1.10297 4.60357 1.25297C4.45357 1.46297 4.58857 1.61297 4.90357 1.61297H5.75857C5.93857 1.61297 6.08857 1.56797 6.22357 1.44797L6.61357 1.11797C6.77857 0.982968 6.98857 0.982968 7.15357 1.11797L7.72357 1.59797C7.96357 1.79297 8.18857 1.68797 8.18857 1.37297V1.13297C8.18857 0.862968 8.36857 0.742968 8.62357 0.832969L9.65857 1.20797C9.80857 1.26797 9.95857 1.28297 10.1236 1.28297H11.3236C11.5186 1.28297 11.6536 1.23797 11.7886 1.08797L11.9986 0.862968C12.1486 0.697969 12.3436 0.667968 12.5236 0.802968L13.5136 1.47797C13.7236 1.62797 13.7836 1.85297 13.5886 1.98797C13.5436 2.01797 13.5136 2.03297 13.4686 2.06297C13.2586 2.15297 13.1536 2.27297 13.1536 2.48297V3.06797C13.1536 3.80297 12.9736 4.23797 11.8486 4.40297C11.5936 4.44797 11.4586 4.31297 11.4136 4.08797C11.3986 3.96797 11.3536 3.86297 11.2636 3.77297C11.2036 3.71297 11.0686 3.62297 10.7836 3.56297C10.5436 3.50297 10.4236 3.41297 10.4236 3.27797C10.4236 3.14297 10.4836 3.08297 10.6036 3.08297C10.6636 3.08297 10.7386 3.09797 10.7986 3.09797C11.0986 3.12797 11.3686 3.14297 11.4886 3.14297C11.7136 3.14297 11.7286 3.11297 11.7286 2.99297V2.30297C11.7286 2.06297 11.5936 1.92797 11.3536 1.92797H10.0636C9.82357 1.92797 9.68857 2.06297 9.68857 2.30297V4.71797C9.68857 4.85297 9.71857 4.88297 10.2436 4.88297H11.6986C12.2536 4.88297 12.7486 4.86797 12.9586 4.85297C13.1536 4.83797 13.2886 4.80797 13.3336 4.74797C13.4986 4.55297 13.6486 4.20797 13.7986 3.75797C13.8736 3.54797 13.9336 3.44297 13.9786 3.44297C14.0236 3.44297 14.0536 3.56297 14.0686 3.80297L14.0986 4.43297C14.1136 4.65797 14.2186 4.74797 14.3986 4.85297C14.5936 4.97297 14.6686 5.12297 14.6686 5.34797C14.6686 5.96297 14.1736 6.14297 12.3586 6.18797C11.9686 6.18797 11.8636 6.42797 12.1486 6.63797L12.3286 6.77297C12.5086 6.90797 12.5986 7.14797 12.3886 7.28297C12.3736 7.28297 12.3586 7.29797 12.3586 7.29797C12.1786 7.37297 12.0286 7.49297 12.0136 7.71797C11.9536 8.78297 11.7886 9.30797 11.3986 9.56297C11.0386 9.77297 10.7086 9.83297 10.2136 9.84797C9.97357 9.84797 9.86857 9.71297 9.82357 9.47297C9.79357 9.36797 9.73357 9.29297 9.61357 9.17297C9.50857 9.08297 9.29857 9.00797 8.99857 8.93297C8.77357 8.88797 8.65357 8.78297 8.65357 8.64797C8.65357 8.51297 8.78857 8.45297 9.04357 8.46797C9.38857 8.48297 9.77857 8.51297 9.94357 8.51297C10.1536 8.51297 10.2586 8.48297 10.2886 8.45297C10.4086 8.33297 10.4536 8.09297 10.4836 7.59797C10.4986 7.34297 10.3486 7.19297 10.1086 7.19297H5.26357C5.02357 7.19297 4.88857 7.32797 4.88857 7.56797V9.56297C4.88857 9.80297 5.02357 9.93797 5.26357 9.93797H11.9686C12.1486 9.93797 12.2986 9.89297 12.4336 9.77297L12.7636 9.48797C12.9286 9.33797 13.1086 9.32297 13.2886 9.45797L14.2486 10.163C14.4586 10.328 14.5036 10.553 14.2786 10.673C14.2636 10.688 14.2486 10.703 14.2186 10.703C14.0236 10.793 13.8886 10.883 13.8586 11.108C13.6636 12.683 13.3186 13.658 12.7486 14.018C12.3736 14.243 11.9686 14.378 11.4586 14.408C11.2186 14.423 11.0986 14.273 11.0836 14.033C11.0536 13.838 10.9936 13.658 10.8286 13.523C10.6936 13.388 10.3936 13.268 9.98857 13.178C9.76357 13.118 9.65857 13.013 9.65857 12.878C9.65857 12.743 9.79357 12.683 10.0486 12.698C10.5136 12.743 11.0686 12.788 11.2786 12.788C11.3836 12.788 11.4736 12.788 11.5486 12.773C11.7136 12.743 11.8036 12.653 11.8786 12.518C12.0436 12.233 12.1786 11.723 12.2686 10.988C12.2986 10.733 12.1636 10.583 11.9236 10.583H5.26357C5.06857 10.583 4.91857 10.658 4.81357 10.823L4.66357 11.033C4.52857 11.213 4.33357 11.258 4.13857 11.153L3.02857 10.568C2.78857 10.433 2.72857 10.253 2.90857 10.073C2.92357 10.058 2.95357 10.028 2.96857 10.013C3.11857 9.87797 3.19357 9.74297 3.19357 9.54797V6.77297C3.19357 6.50297 3.02857 6.38297 2.75857 6.47297C2.20357 6.68297 1.61857 6.86297 0.988573 7.01297C0.763573 7.05797 0.613573 7.01297 0.568573 6.87797ZM1.09357 12.083C1.03357 11.873 1.16857 11.768 1.43857 11.768H8.50357C8.69857 11.768 8.84857 11.708 8.96857 11.558L9.34357 11.108C9.49357 10.928 9.68857 10.898 9.86857 11.048C10.1836 11.273 10.5286 11.543 10.8436 11.798C10.9936 11.948 11.0986 12.128 10.9486 12.293C10.8736 12.383 10.7686 12.413 10.6486 12.413H1.51357C1.30357 12.413 1.15357 12.323 1.09357 12.098V12.083ZM4.28857 5.76797C4.00357 5.93297 4.00357 6.14297 4.31857 6.26297L4.87357 6.47297C5.02357 6.53297 5.17357 6.54797 5.33857 6.54797C5.54857 6.54797 5.68357 6.44297 5.71357 6.21797C5.78857 5.85797 5.84857 5.48297 5.89357 5.16797C5.92357 4.91297 6.08857 4.80797 6.32857 4.85297L7.69357 5.12297C7.93357 5.16797 8.11357 5.37797 7.93357 5.57297C7.88857 5.61797 7.82857 5.64797 7.76857 5.67797C7.57357 5.73797 7.43857 5.75297 7.30357 5.88797C7.22857 5.94797 7.13857 6.02297 7.04857 6.09797C6.77857 6.32297 6.85357 6.54797 7.19857 6.54797H10.1236C10.3036 6.54797 10.4536 6.50297 10.5886 6.38297C10.7086 6.27797 10.4536 6.17297 10.1086 6.17297H9.92857C8.48857 6.17297 8.18857 5.94797 8.18857 4.92797V2.73797C8.18857 2.48297 8.09857 2.37797 7.91857 2.40797C7.91857 2.40797 7.58857 2.51297 7.49857 2.67797C6.74857 3.98297 5.68357 5.00297 4.28857 5.76797ZM19.1186 7.22297C19.1186 6.96797 18.9686 6.83297 18.6986 6.89297C18.1286 7.02797 17.5286 7.16297 16.8686 7.26797C16.6286 7.31297 16.4936 7.23797 16.4486 7.10297C16.4186 6.96797 16.5236 6.86297 16.7786 6.80297C18.6836 6.32297 19.9886 5.70797 20.8586 5.06297C21.1436 4.85297 21.0236 4.59797 20.6786 4.59797H17.1386C16.9286 4.59797 16.7786 4.50797 16.7186 4.28297C16.6586 4.08797 16.7936 3.95297 17.0636 3.95297H18.3386C18.5786 3.95297 18.7136 3.81797 18.7136 3.57797V1.43297C18.7136 1.16297 18.8936 1.04297 19.1486 1.13297L20.2736 1.53797C20.4386 1.59797 20.5736 1.61297 20.7386 1.61297H22.2986C22.5386 1.61297 22.6736 1.52297 22.6736 1.35797C22.6736 1.28297 22.6736 1.19297 22.6736 1.11797V0.652968C22.6736 0.412968 22.8086 0.262968 23.0636 0.292968L24.4886 0.427968C24.7436 0.457968 24.9236 0.607968 24.8036 0.817968C24.7736 0.862968 24.7286 0.907969 24.6836 0.952968C24.4886 1.07297 24.3686 1.08797 24.3686 1.16297C24.3686 1.17797 24.3686 1.20797 24.3686 1.22297C24.3686 1.47797 24.4886 1.61297 24.7286 1.61297H26.1986C26.3936 1.61297 26.5436 1.55297 26.6636 1.40297L26.9786 1.04297C27.1286 0.877968 27.3086 0.847968 27.5036 0.967968L28.7336 1.74797C28.9436 1.88297 29.0186 2.10797 28.8086 2.25797C28.7636 2.28797 28.7186 2.30297 28.6736 2.33297C28.4486 2.39297 28.3286 2.51297 28.3286 2.73797V3.57797C28.3286 3.81797 28.3736 3.95297 28.4336 3.95297C28.5086 3.95297 28.5986 3.89297 28.7186 3.72797L29.0486 3.30797C29.1986 3.12797 29.3936 3.09797 29.5736 3.24797C29.8586 3.47297 30.1886 3.74297 30.4736 3.98297C30.6236 4.13297 30.7286 4.31297 30.5786 4.47797C30.5036 4.56797 30.4136 4.59797 30.2936 4.59797H26.4536C26.0936 4.59797 25.9886 4.94297 26.3486 5.04797C27.4736 5.39297 28.9136 5.54297 30.3836 5.58797C30.6236 5.58797 30.7586 5.63297 30.7586 5.76797C30.7586 5.88797 30.6536 5.97797 30.4586 6.08297C30.1436 6.24797 29.9486 6.48797 29.8436 6.83297C29.7686 7.05797 29.6486 7.17797 29.4086 7.13297C29.0786 7.07297 28.7786 6.99797 28.4786 6.93797C28.2086 6.87797 28.1786 6.89297 28.2236 7.07297C28.2386 7.17797 28.2086 7.26797 28.0886 7.32797C28.0736 7.34297 28.0586 7.34297 28.0436 7.35797C27.8486 7.44797 27.7286 7.53797 27.6986 7.77797C27.6236 8.87297 27.4286 9.44297 27.0086 9.69797C26.6486 9.90797 26.3036 9.96797 25.8086 9.98297C25.5686 9.98297 25.4636 9.84797 25.4186 9.60797C25.3886 9.48797 25.3436 9.39797 25.2086 9.27797C25.1036 9.17297 24.8786 9.09797 24.5936 9.03797C24.3686 8.97797 24.2486 8.88797 24.2486 8.75297C24.2486 8.61797 24.3386 8.54297 24.5036 8.55797C24.5936 8.55797 24.6836 8.57297 24.7736 8.57297C25.0886 8.58797 25.4036 8.60297 25.5536 8.60297C25.6136 8.60297 25.6586 8.60297 25.7036 8.60297C25.8686 8.58797 25.9736 8.51297 26.0336 8.36297C26.0936 8.21297 26.1386 7.98797 26.1686 7.65797C26.1836 7.40297 26.0486 7.25297 25.8086 7.25297H21.1136C20.8736 7.25297 20.7386 7.38797 20.7386 7.62797V9.68297C20.7386 9.92297 20.8736 10.058 21.1136 10.058H27.6086C27.7886 10.058 27.9386 10.013 28.0736 9.89297L28.4036 9.60797C28.5686 9.45797 28.7486 9.45797 28.9286 9.59297L29.8436 10.283C30.0386 10.433 30.1136 10.673 29.8886 10.793C29.8586 10.808 29.8436 10.823 29.8136 10.823C29.6186 10.913 29.4836 11.003 29.4536 11.228C29.2436 12.728 28.8686 13.673 28.2836 14.048C27.9086 14.273 27.4886 14.393 26.9786 14.423C26.7386 14.438 26.6186 14.303 26.5886 14.063C26.5736 13.868 26.5136 13.718 26.3486 13.568C26.2136 13.433 25.8986 13.328 25.5086 13.238C25.2836 13.178 25.1786 13.073 25.1786 12.938C25.1786 12.803 25.3136 12.743 25.5686 12.758C26.0486 12.803 26.6036 12.833 26.8286 12.833C26.9336 12.833 27.0236 12.833 27.0986 12.818C27.2636 12.788 27.3686 12.713 27.4586 12.578C27.6536 12.308 27.7886 11.813 27.8936 11.108C27.9386 10.853 27.8036 10.703 27.5486 10.703H21.0986C20.9036 10.703 20.7686 10.778 20.6486 10.943L20.5286 11.108C20.3936 11.303 20.2286 11.363 20.0186 11.243L18.9536 10.673C18.7136 10.553 18.6686 10.358 18.8336 10.193L18.9086 10.133C19.0586 9.99797 19.1186 9.86297 19.1186 9.66797V7.22297ZM16.9136 12.053C16.8536 11.843 16.9886 11.738 17.2586 11.738H24.1586C24.3536 11.738 24.5036 11.678 24.6236 11.528L25.0286 11.033C25.1786 10.838 25.3736 10.823 25.5536 10.958C25.8836 11.213 26.2736 11.498 26.5886 11.768C26.7536 11.918 26.8436 12.083 26.6936 12.263C26.6186 12.353 26.5136 12.383 26.3936 12.383H17.3336C17.1236 12.383 16.9736 12.293 16.9136 12.068V12.053ZM20.9636 6.14297C20.6486 6.27797 20.4686 6.44297 20.6336 6.50297L20.7086 6.53297C20.8736 6.59297 21.0086 6.60797 21.1736 6.60797H22.0586C22.2836 6.60797 22.4186 6.50297 22.4636 6.27797C22.5386 5.96297 22.5986 5.63297 22.6586 5.36297C22.6586 5.36297 22.8536 5.07797 23.0936 5.13797L24.1886 5.37797C24.4286 5.43797 24.6086 5.63297 24.4436 5.82797C24.3986 5.87297 24.3536 5.91797 24.2786 5.93297C24.0986 5.99297 23.9486 6.00797 23.8136 6.14297C23.7686 6.18797 23.6336 6.60797 23.9786 6.60797H25.8386C26.0186 6.60797 26.1686 6.56297 26.3036 6.44297C26.4386 6.32297 26.3486 6.18797 26.1086 6.03797C25.5836 5.72297 25.1186 5.31797 24.7286 4.82297C24.5936 4.67297 24.4586 4.59797 24.2636 4.59797H23.4536C23.2736 4.59797 23.1386 4.64297 23.0336 4.74797C22.5236 5.25797 21.8486 5.73797 20.9636 6.14297ZM20.3636 3.57797C20.3636 3.81797 20.4986 3.95297 20.7386 3.95297H21.6386C21.8336 3.95297 21.9836 3.89297 22.0886 3.71297C22.2986 3.35297 22.4336 3.00797 22.5236 2.66297C22.5836 2.40797 22.4336 2.25797 22.1786 2.25797H20.7386C20.4986 2.25797 20.3636 2.39297 20.3636 2.63297V3.57797ZM21.8336 7.94297C21.6836 7.76297 21.6386 7.64297 21.6986 7.56797C21.7586 7.49297 21.8786 7.47797 22.1036 7.50797C24.9986 8.03297 24.0536 9.98297 22.9136 9.63797C22.7186 9.57797 22.6586 9.44297 22.5986 9.29297C22.4636 8.85797 22.1486 8.33297 21.8336 7.94297ZM23.8736 3.51797C23.7536 3.77297 23.8436 3.95297 24.1286 3.95297H26.2436C26.4836 3.95297 26.6186 3.81797 26.6186 3.57797V2.63297C26.6186 2.39297 26.4836 2.25797 26.2436 2.25797H24.6086C24.3836 2.25797 24.2486 2.36297 24.2036 2.57297C24.1286 2.90297 24.0236 3.21797 23.8736 3.51797ZM44.6736 2.40797C44.8236 2.22797 45.0186 2.21297 45.1986 2.34797C45.6186 2.66297 46.1136 3.02297 46.5036 3.35297C46.6686 3.48797 46.7736 3.65297 46.6536 3.83297C46.5786 3.93797 46.4436 3.96797 46.3086 3.96797H45.3186C45.0936 3.96797 44.9586 4.08797 44.9286 4.31297C44.5986 6.53297 43.9686 8.46797 42.8586 10.073C42.7236 10.268 42.7386 10.433 42.9186 10.598C43.8936 11.393 45.0486 12.038 46.3986 12.428C46.6236 12.488 46.7286 12.563 46.7136 12.698C46.6986 12.833 46.5936 12.908 46.3986 12.998C45.9336 13.193 45.5286 13.538 45.3036 14.003C45.1986 14.228 45.0636 14.318 44.8386 14.213C43.6086 13.643 42.6186 12.878 41.7636 11.888C41.5986 11.693 41.4186 11.678 41.2386 11.843C40.0386 12.878 38.5836 13.688 36.7086 14.318C36.4986 14.393 36.3486 14.363 36.3036 14.258C36.2436 14.153 36.3336 14.033 36.5586 13.928C38.3436 13.013 39.6786 11.963 40.6386 10.748C40.7586 10.583 40.7736 10.433 40.6686 10.238C39.8586 8.69297 39.3336 6.72797 39.0186 4.32797C38.9886 4.08797 38.8536 3.96797 38.6286 3.96797C38.4486 3.96797 38.2236 3.99797 38.2686 4.02797C38.4936 4.14797 38.6136 4.38797 38.3886 4.50797C38.3586 4.52297 38.3136 4.53797 38.2836 4.55297C38.0736 4.59797 37.9386 4.62797 37.8036 4.79297C37.0536 5.81297 35.9136 7.02797 34.8036 8.01797C34.5336 8.25797 34.6236 8.45297 34.9686 8.42297C35.8536 8.31797 36.8886 8.18297 37.9236 8.04797C38.1636 8.00297 38.3136 8.06297 38.3286 8.18297C38.3436 8.31797 38.2536 8.43797 38.0586 8.51297C37.1136 8.91797 35.6586 9.51797 33.9786 10.118C33.7986 10.178 33.7236 10.208 33.7236 10.208L33.7086 10.223C33.5736 10.403 33.3336 10.343 33.2286 10.103L32.7186 8.96297C32.6136 8.72297 32.6736 8.58797 32.8686 8.52797C32.9886 8.49797 33.1086 8.46797 33.1536 8.43797C33.7236 7.95797 34.3536 7.16297 34.9236 6.30797C35.1336 5.99297 34.9236 5.75297 34.5786 5.88797C34.2786 6.00797 33.9636 6.12797 33.6486 6.23297C33.6486 6.23297 33.2886 6.32297 33.1836 6.06797L32.6886 4.97297C32.5836 4.74797 32.6286 4.58297 32.7936 4.53797C32.8086 4.53797 32.8236 4.52297 32.8386 4.52297C33.0036 4.46297 33.0936 4.40297 33.1986 4.26797C33.9036 3.45797 34.7286 1.80797 35.0886 0.712968C35.1636 0.487969 35.3286 0.397968 35.5536 0.487969L36.9786 0.997968C37.2036 1.07297 37.3536 1.29797 37.1736 1.47797C37.1436 1.50797 37.0986 1.53797 37.0386 1.55297C36.8436 1.61297 36.7086 1.65797 36.5886 1.80797C36.0186 2.58797 35.2086 3.45797 34.4436 4.17797C34.1886 4.40297 33.9786 4.62797 34.0086 4.62797H34.0836C34.1886 4.62797 34.3086 4.61297 34.4136 4.61297L35.2386 4.56797C35.3886 4.56797 35.5386 4.56797 35.6886 4.55297C35.8986 4.53797 36.0336 4.46297 36.1236 4.26797C36.2586 3.99797 36.3786 3.75797 36.4686 3.53297C36.5736 3.30797 36.7386 3.23297 36.9636 3.35297L37.3386 3.54797C37.6236 3.69797 37.8636 3.80297 37.8636 3.77297L37.8486 3.74297C37.7736 3.47297 37.8936 3.32297 38.1636 3.32297H41.3436C41.3286 3.32297 41.3136 3.30797 41.2986 3.30797C41.1336 3.24797 41.0586 3.08297 41.0286 2.88797C40.9236 2.16797 40.5486 1.38797 40.0986 0.757968C39.9486 0.562968 39.9186 0.427968 39.9786 0.382968C40.0536 0.337968 40.1736 0.322968 40.3686 0.382968C42.8286 1.04297 43.0536 2.42297 42.4986 3.06797C42.3186 3.26297 42.3336 3.32297 42.6036 3.32297H43.6236C43.8186 3.32297 43.9686 3.26297 44.0886 3.11297L44.6736 2.40797ZM32.7486 12.098C32.6436 11.858 32.7186 11.678 32.9736 11.618C34.1136 11.378 36.1986 10.868 38.2536 10.313C38.4786 10.238 38.6286 10.253 38.6586 10.373C38.6886 10.493 38.6136 10.598 38.4336 10.718C37.4286 11.378 35.9886 12.218 34.0686 13.178C33.8886 13.268 33.8136 13.328 33.7836 13.388C33.6486 13.613 33.4086 13.523 33.3036 13.283L32.7486 12.098ZM39.6636 3.96797C39.4086 3.96797 39.2736 4.11797 39.3336 4.38797C39.7386 6.09797 40.3986 7.58297 41.3286 8.85797C41.4936 9.09797 41.7336 9.06797 41.8536 8.81297C42.5136 7.44797 42.8736 5.99297 43.0536 4.35797C43.0836 4.11797 42.9486 3.96797 42.7086 3.96797H39.6636Z" fill="#7A6855"/>
</svg>
