<svg width="167" height="20" viewBox="0 0 167 20" fill="none" xmlns="http://www.w3.org/2000/svg">
<path d="M19.18 2.6C19.48 2.74 19.68 3.12 19.36 3.26C19.32 3.28 19.26 3.3 19.18 3.3C18.9 3.3 18.7 3.36 18.54 3.6C17.84 4.74 17.1 5.8 16.32 6.78C16.06 7.1 16.04 7.38 16.28 7.38H16.34C16.6 7.38 16.8 7.3 16.96 7.08L17.34 6.6C17.54 6.34 17.78 6.3 18.04 6.52C18.38 6.8 18.76 7.12 19.12 7.4C19.32 7.58 19.46 7.8 19.3 8.04C19.2 8.16 19.06 8.22 18.88 8.22H15.46C15.2 8.22 15.02 8.3 14.84 8.48C14.28 9.06 13.72 9.6 13.16 10.12C12.88 10.4 12.8 10.62 12.94 10.66C13.12 10.74 13.3 10.76 13.52 10.76H15.64C15.88 10.76 16.08 10.7 16.26 10.5L16.62 10.12C16.82 9.9 17.08 9.9 17.32 10.06L18.7 11C18.98 11.2 19.04 11.5 18.76 11.7C18.7 11.74 18.66 11.78 18.6 11.8C18.34 11.94 18.18 12.1 18.18 12.38V18.86C18.18 19.08 18.18 19.26 17.98 19.4C17.66 19.62 16.96 19.76 16.5 19.76C16.3 19.76 16.18 19.58 16.18 19.26V19.04C16.18 18.72 16 18.54 15.68 18.54H13.44C13.12 18.54 12.94 18.72 12.94 19.04V19.16C12.94 19.48 12.3 19.86 11.28 19.86C11.06 19.86 10.94 19.68 10.94 19.36V12.68C10.94 12.28 10.86 12.02 10.76 12.08C10.54 12.24 10.38 12.36 10.2 12.48C10.16 12.52 10.18 12.66 10.22 12.96C10.46 14.22 9.68 15.06 8.88 14.62C8.64 14.5 8.58 14.3 8.58 14.04C8.56 13.38 8.44 12.66 8.28 11.96C8.16 11.54 7.68 11.64 7.68 12.06V17.5C7.68 18.62 7.48 19.48 6.08 19.8C5.74 19.88 5.54 19.68 5.5 19.34C5.48 19.04 5.42 18.82 5.3 18.62C5.22 18.48 5 18.34 4.6 18.22C4.3 18.16 4.14 18.02 4.14 17.84C4.14 17.66 4.32 17.58 4.66 17.6C5.08 17.62 5.44 17.64 5.58 17.64C5.9 17.64 5.92 17.62 5.92 17.44V8.78C5.92 8.46 5.76 8.28 5.5 8.28C5.24 8.28 5.08 8.46 5.06 8.78C4.96 13.06 4.58 16.8 1.44 19.5C1.2 19.7 1 19.72 0.88 19.6C0.76 19.48 0.8 19.28 1 19.04C2.02 17.74 2.58 16.3 2.92 14.74C2.8 15.32 2.26 13.62 2.42 13.26C2.06 14.06 1.64 14.78 1.18 15.38C1 15.62 0.84 15.7 0.72 15.62C0.6 15.54 0.6 15.38 0.7 15.08C1.18 13.74 1.54 12.04 1.68 10.34C1.72 10 1.92 9.84 2.24 9.9L2.78 10.02C3.12 10.1 3.32 9.92 3.34 9.56C3.34 9.3 3.34 9.04 3.34 8.78C3.34 8.46 3.16 8.28 2.84 8.28H1.28C1 8.28 0.8 8.16 0.72 7.86C0.64 7.6 0.82 7.42 1.18 7.42H3.96C4.28 7.42 4.46 7.24 4.46 6.92V5.4C4.46 5.08 4.28 4.9 3.96 4.9H2.12C1.84 4.9 1.64 4.78 1.56 4.48C1.48 4.22 1.66 4.04 2.02 4.04H3.96C4.28 4.04 4.46 3.86 4.46 3.54V1.5C4.46 1.18 4.66 1 4.98 1.02L6.7 1.16C7.02 1.18 7.28 1.4 7.12 1.7C7.08 1.78 7.02 1.84 6.94 1.88C6.7 2.04 6.54 2.18 6.54 2.46V3.54C6.54 3.86 6.66 4.04 6.86 4.04C7.06 4.04 7.24 3.96 7.4 3.74L7.78 3.24C7.98 2.98 8.24 2.94 8.48 3.16C8.84 3.44 9.24 3.78 9.56 4.1C9.76 4.28 9.9 4.5 9.74 4.72C9.64 4.86 9.5 4.9 9.34 4.9H7.04C6.72 4.9 6.54 5.08 6.54 5.4V6.92C6.54 7.24 6.72 7.42 7.04 7.42H7.16C7.42 7.42 7.62 7.34 7.78 7.14L8.28 6.52C8.48 6.26 8.72 6.24 8.96 6.44L9.88 7.16C10.06 7.3 10.26 7.38 10.5 7.38H11.46C11.78 7.38 11.96 7.2 11.96 6.88V5.38C11.96 5.06 11.78 4.88 11.46 4.88H10.64C10.36 4.88 10.16 4.76 10.08 4.46C10 4.2 10.18 4.02 10.54 4.02H11.46C11.78 4.02 11.96 3.84 11.96 3.52V1.6C11.96 1.28 12.16 1.1 12.48 1.12L14.14 1.26C14.34 1.28 14.54 1.38 14.6 1.52C14.66 1.74 14.52 1.9 14.32 2C14.32 2 14 2.22 14 2.52V3.52C14 3.84 14.08 4.02 14.2 4.02C14.32 4.02 14.46 3.94 14.62 3.72L14.84 3.44C15.04 3.18 15.3 3.16 15.54 3.38L15.7 3.52C15.98 3.76 16.24 3.7 16.4 3.38C16.62 2.96 16.82 2.54 17 2.14C17.14 1.86 17.4 1.76 17.68 1.9L19.18 2.6ZM7.68 9.62C7.68 9.92 7.78 10.02 8 10.06C8.1 10.08 8.2 10.12 8.3 10.2C8.8 10.58 9.2 11.02 9.52 11.44C9.72 11.72 9.96 11.76 10.22 11.52C10.38 11.38 10.54 11.22 10.7 11.08C10.88 10.9 10.94 10.76 10.94 10.58C10.94 10.22 11.06 10 11.24 10.06C11.44 10.14 11.64 10.08 11.84 9.88C12.16 9.52 12.46 9.18 12.76 8.84C13.04 8.5 12.88 8.22 12.46 8.22H10.62C10.4 8.22 10.26 8.24 10.14 8.26C10.1 8.28 10.04 8.28 9.98 8.28H8.18C7.86 8.28 7.68 8.46 7.68 8.78V9.62ZM12.94 17.18C12.94 17.5 13.12 17.68 13.44 17.68H15.68C16 17.68 16.18 17.5 16.18 17.18V15.38C16.18 15.06 16 14.88 15.68 14.88H13.44C13.12 14.88 12.94 15.06 12.94 15.38V17.18ZM12.94 13.52C12.94 13.84 13.12 14.02 13.44 14.02H15.68C16 14.02 16.18 13.84 16.18 13.52V12.12C16.18 11.8 16 11.62 15.68 11.62H13.44C13.12 11.62 12.94 11.8 12.94 12.12V13.52ZM14 6.16C14 6.64 14.34 6.76 14.62 6.36C14.82 6.06 15 5.78 15.2 5.48C15.4 5.14 15.26 4.88 14.86 4.88H14.5C14.18 4.88 14 5.06 14 5.38V6.16ZM38.02 16.68C38.22 16.44 38.46 16.4 38.72 16.6C39.22 16.98 39.82 17.44 40.3 17.84C40.52 18.04 40.64 18.26 40.44 18.5C40.34 18.62 40.2 18.66 40.02 18.66H28.42C28.14 18.66 27.94 18.54 27.86 18.24C27.78 17.98 27.96 17.82 28.32 17.82H32.46C32.78 17.82 32.96 17.64 32.96 17.32V4.96C32.96 4.64 32.78 4.46 32.46 4.46H29.8C29.52 4.46 29.32 4.34 29.24 4.04C29.16 3.78 29.34 3.6 29.7 3.6H36.32C36.58 3.6 36.78 3.5 36.94 3.3L37.58 2.52C37.78 2.26 38.04 2.24 38.28 2.44C38.76 2.82 39.34 3.26 39.82 3.66C40.02 3.84 40.16 4.06 39.98 4.3C39.86 4.42 39.72 4.46 39.56 4.46H35.82C35.5 4.46 35.32 4.64 35.32 4.96V17.32C35.32 17.64 35.5 17.82 35.82 17.82H36.74C37 17.82 37.2 17.74 37.36 17.52L38.02 16.68ZM21.8 7.2C21.72 7.04 21.7 6.9 21.74 6.8C21.82 6.6 22 6.6 22.14 6.56C22.2 6.52 22.26 6.5 22.3 6.48C23.34 5.52 24.66 3.14 25.18 1.6C25.3 1.3 25.52 1.18 25.82 1.3L27.84 2.08C28.14 2.2 28.32 2.5 28.06 2.72C28.02 2.76 27.98 2.78 27.92 2.8C27.66 2.9 27.48 2.92 27.3 3.14C26.48 4.14 25.34 5.26 24.24 6.2C23.88 6.5 23.54 6.82 23.6 6.82C23.66 6.8 23.7 6.8 23.74 6.8C24.36 6.8 25.1 6.78 25.86 6.74H26.24H26.26C26.34 6.72 26.7 6.62 26.86 6.4C27.18 5.9 27.44 5.44 27.64 5.04C27.78 4.74 28.02 4.64 28.3 4.8L30.18 5.78C30.48 5.94 30.62 6.26 30.32 6.42C30.28 6.44 30.22 6.46 30.16 6.48C29.9 6.54 29.7 6.56 29.54 6.78C28.4 8.1 26.64 9.74 24.92 11.08C24.54 11.38 24.64 11.66 25.12 11.6C26.38 11.46 27.84 11.26 29.3 11.08C29.64 11.04 29.84 11.1 29.84 11.28C29.84 11.46 29.72 11.58 29.46 11.7C28.16 12.26 26.06 13.12 23.6 13.94C23.38 14.02 23.3 14.04 23.3 14.04L23.28 14.06C23.18 14.18 22.76 14.24 22.62 13.9L21.92 12.3C21.78 11.98 21.86 11.8 22.12 11.72C22.3 11.68 22.46 11.62 22.52 11.58C23.26 11.04 24.1 10.18 24.88 9.22C25.2 8.82 24.94 8.46 24.46 8.62C24 8.78 23.54 8.94 23.06 9.08C23.02 9.1 22.98 9.14 22.96 9.16C22.96 9.16 22.66 9.1 22.52 8.8L21.8 7.2ZM21.88 16.84C21.74 16.52 21.84 16.28 22.18 16.2C23.74 15.88 26.66 15.22 29.5 14.48C29.84 14.38 30.04 14.4 30.06 14.56C30.08 14.74 30 14.86 29.76 15.02C28.36 15.92 26.38 17.08 23.66 18.36C23.44 18.46 23.36 18.52 23.32 18.56C23.32 18.58 23.3 18.6 23.28 18.62C23.1 18.94 22.78 18.82 22.64 18.5L21.88 16.84ZM56.28 6.68C56.56 6.88 56.62 7.2 56.34 7.38C56.32 7.4 56.28 7.42 56.26 7.42C55.98 7.56 55.84 7.72 55.84 8V13.9C55.8 14.26 54.76 14.58 54.12 14.58C53.9 14.58 53.78 14.4 53.78 14.08V13.66C53.78 13.34 53.6 13.16 53.28 13.16H50.94C50.62 13.16 50.44 13.34 50.44 13.66V14.16C50.44 14.56 49.52 14.9 48.74 14.9C48.54 14.9 48.42 14.72 48.42 14.4V6.26C48.42 5.9 48.64 5.72 49 5.86L50.24 6.32C50.44 6.4 50.64 6.42 50.86 6.42H53.24C53.48 6.42 53.68 6.34 53.86 6.16L54.24 5.8C54.46 5.6 54.7 5.56 54.94 5.74L56.28 6.68ZM44.16 19.64C44.04 19.64 43.96 19.46 43.96 19.14V2.3C43.96 1.94 44.18 1.76 44.54 1.9L46.08 2.48C46.28 2.56 46.48 2.58 46.7 2.58H57.2C57.44 2.58 57.64 2.5 57.82 2.32L58.32 1.82C58.54 1.6 58.78 1.58 59.02 1.76L60.5 2.86C60.76 3.06 60.86 3.34 60.58 3.54C60.54 3.56 60.48 3.6 60.42 3.62C60.16 3.74 60.02 3.92 60.02 4.2V18.7C59.98 19.12 58.88 19.48 58.1 19.48C57.88 19.48 57.74 19.3 57.74 18.98V18.22C57.74 17.9 57.56 17.72 57.24 17.72H46.7C46.38 17.72 46.2 17.9 46.2 18.22V18.78C46.2 19.22 45.24 19.64 44.34 19.64H44.16ZM46.2 16.36C46.2 16.68 46.38 16.86 46.7 16.86H57.24C57.56 16.86 57.74 16.68 57.74 16.36V3.94C57.74 3.62 57.56 3.44 57.24 3.44H46.7C46.38 3.44 46.2 3.62 46.2 3.94V16.36ZM50.44 11.8C50.44 12.12 50.62 12.3 50.94 12.3H53.28C53.6 12.3 53.78 12.12 53.78 11.8V7.78C53.78 7.46 53.6 7.28 53.28 7.28H50.94C50.62 7.28 50.44 7.46 50.44 7.78V11.8ZM79.84 3.82C80.04 3.58 80.3 3.56 80.54 3.74C81.1 4.16 81.76 4.64 82.28 5.08C82.5 5.26 82.64 5.48 82.48 5.72C82.38 5.86 82.2 5.9 82.02 5.9H80.7C80.4 5.9 80.22 6.06 80.18 6.36C79.74 9.32 78.9 11.9 77.42 14.04C77.24 14.3 77.26 14.52 77.5 14.74C78.8 15.8 80.34 16.66 82.14 17.18C82.44 17.26 82.58 17.36 82.56 17.54C82.54 17.72 82.4 17.82 82.14 17.94C81.52 18.2 80.98 18.66 80.68 19.28C80.54 19.58 80.36 19.7 80.06 19.56C78.42 18.8 77.1 17.78 75.96 16.46C75.74 16.2 75.5 16.18 75.26 16.4C73.66 17.78 71.72 18.86 69.22 19.7C68.94 19.8 68.74 19.76 68.68 19.62C68.6 19.48 68.72 19.32 69.02 19.18C71.4 17.96 73.18 16.56 74.46 14.94C74.62 14.72 74.64 14.52 74.5 14.26C73.42 12.2 72.72 9.58 72.3 6.38C72.26 6.06 72.08 5.9 71.78 5.9C71.54 5.9 71.24 5.94 71.3 5.98C71.6 6.14 71.76 6.46 71.46 6.62C71.42 6.64 71.36 6.66 71.32 6.68C71.04 6.74 70.86 6.78 70.68 7C69.68 8.36 68.16 9.98 66.68 11.3C66.32 11.62 66.44 11.88 66.9 11.84C68.08 11.7 69.46 11.52 70.84 11.34C71.16 11.28 71.36 11.36 71.38 11.52C71.4 11.7 71.28 11.86 71.02 11.96C69.76 12.5 67.82 13.3 65.58 14.1C65.34 14.18 65.24 14.22 65.24 14.22L65.22 14.24C65.04 14.48 64.72 14.4 64.58 14.08L63.9 12.56C63.76 12.24 63.84 12.06 64.1 11.98C64.26 11.94 64.42 11.9 64.48 11.86C65.24 11.22 66.08 10.16 66.84 9.02C67.12 8.6 66.84 8.28 66.38 8.46C65.98 8.62 65.56 8.78 65.14 8.92C65.14 8.92 64.66 9.04 64.52 8.7L63.86 7.24C63.72 6.94 63.78 6.72 64 6.66C64.02 6.66 64.04 6.64 64.06 6.64C64.28 6.56 64.4 6.48 64.54 6.3C65.48 5.22 66.58 3.02 67.06 1.56C67.16 1.26 67.38 1.14 67.68 1.26L69.58 1.94C69.88 2.04 70.08 2.34 69.84 2.58C69.8 2.62 69.74 2.66 69.66 2.68C69.4 2.76 69.22 2.82 69.06 3.02C68.3 4.06 67.22 5.22 66.2 6.18C65.86 6.48 65.58 6.78 65.62 6.78H65.72C65.86 6.78 66.02 6.76 66.16 6.76L67.26 6.7C67.46 6.7 67.66 6.7 67.86 6.68C68.14 6.66 68.32 6.56 68.44 6.3C68.62 5.94 68.78 5.62 68.9 5.32C69.04 5.02 69.26 4.92 69.56 5.08L70.06 5.34C70.44 5.54 70.76 5.68 70.76 5.64L70.74 5.6C70.64 5.24 70.8 5.04 71.16 5.04H75.4C75.38 5.04 75.36 5.02 75.34 5.02C75.12 4.94 75.02 4.72 74.98 4.46C74.84 3.5 74.34 2.46 73.74 1.62C73.54 1.36 73.5 1.18 73.58 1.12C73.68 1.06 73.84 1.04 74.1 1.12C77.38 2 77.68 3.84 76.94 4.7C76.7 4.96 76.72 5.04 77.08 5.04H78.44C78.7 5.04 78.9 4.96 79.06 4.76L79.84 3.82ZM63.94 16.74C63.8 16.42 63.9 16.18 64.24 16.1C65.76 15.78 68.54 15.1 71.28 14.36C71.58 14.26 71.78 14.28 71.82 14.44C71.86 14.6 71.76 14.74 71.52 14.9C70.18 15.78 68.26 16.9 65.7 18.18C65.46 18.3 65.36 18.38 65.32 18.46C65.14 18.76 64.82 18.64 64.68 18.32L63.94 16.74ZM73.16 5.9C72.82 5.9 72.64 6.1 72.72 6.46C73.26 8.74 74.14 10.72 75.38 12.42C75.6 12.74 75.92 12.7 76.08 12.36C76.96 10.54 77.44 8.6 77.68 6.42C77.72 6.1 77.54 5.9 77.22 5.9H73.16ZM101.02 16.68C101.22 16.44 101.46 16.4 101.72 16.6C102.22 16.98 102.82 17.44 103.3 17.84C103.52 18.04 103.64 18.26 103.44 18.5C103.34 18.62 103.2 18.66 103.02 18.66H91.42C91.14 18.66 90.94 18.54 90.86 18.24C90.78 17.98 90.96 17.82 91.32 17.82H95.46C95.78 17.82 95.96 17.64 95.96 17.32V4.96C95.96 4.64 95.78 4.46 95.46 4.46H92.8C92.52 4.46 92.32 4.34 92.24 4.04C92.16 3.78 92.34 3.6 92.7 3.6H99.32C99.58 3.6 99.78 3.5 99.94 3.3L100.58 2.52C100.78 2.26 101.04 2.24 101.28 2.44C101.76 2.82 102.34 3.26 102.82 3.66C103.02 3.84 103.16 4.06 102.98 4.3C102.86 4.42 102.72 4.46 102.56 4.46H98.82C98.5 4.46 98.32 4.64 98.32 4.96V17.32C98.32 17.64 98.5 17.82 98.82 17.82H99.74C100 17.82 100.2 17.74 100.36 17.52L101.02 16.68ZM84.8 7.2C84.72 7.04 84.7 6.9 84.74 6.8C84.82 6.6 85 6.6 85.14 6.56C85.2 6.52 85.26 6.5 85.3 6.48C86.34 5.52 87.66 3.14 88.18 1.6C88.3 1.3 88.52 1.18 88.82 1.3L90.84 2.08C91.14 2.2 91.32 2.5 91.06 2.72C91.02 2.76 90.98 2.78 90.92 2.8C90.66 2.9 90.48 2.92 90.3 3.14C89.48 4.14 88.34 5.26 87.24 6.2C86.88 6.5 86.54 6.82 86.6 6.82C86.66 6.8 86.7 6.8 86.74 6.8C87.36 6.8 88.1 6.78 88.86 6.74H89.24H89.26C89.34 6.72 89.7 6.62 89.86 6.4C90.18 5.9 90.44 5.44 90.64 5.04C90.78 4.74 91.02 4.64 91.3 4.8L93.18 5.78C93.48 5.94 93.62 6.26 93.32 6.42C93.28 6.44 93.22 6.46 93.16 6.48C92.9 6.54 92.7 6.56 92.54 6.78C91.4 8.1 89.64 9.74 87.92 11.08C87.54 11.38 87.64 11.66 88.12 11.6C89.38 11.46 90.84 11.26 92.3 11.08C92.64 11.04 92.84 11.1 92.84 11.28C92.84 11.46 92.72 11.58 92.46 11.7C91.16 12.26 89.06 13.12 86.6 13.94C86.38 14.02 86.3 14.04 86.3 14.04L86.28 14.06C86.18 14.18 85.76 14.24 85.62 13.9L84.92 12.3C84.78 11.98 84.86 11.8 85.12 11.72C85.3 11.68 85.46 11.62 85.52 11.58C86.26 11.04 87.1 10.18 87.88 9.22C88.2 8.82 87.94 8.46 87.46 8.62C87 8.78 86.54 8.94 86.06 9.08C86.02 9.1 85.98 9.14 85.96 9.16C85.96 9.16 85.66 9.1 85.52 8.8L84.8 7.2ZM84.88 16.84C84.74 16.52 84.84 16.28 85.18 16.2C86.74 15.88 89.66 15.22 92.5 14.48C92.84 14.38 93.04 14.4 93.06 14.56C93.08 14.74 93 14.86 92.76 15.02C91.36 15.92 89.38 17.08 86.66 18.36C86.44 18.46 86.36 18.52 86.32 18.56C86.32 18.58 86.3 18.6 86.28 18.62C86.1 18.94 85.78 18.82 85.64 18.5L84.88 16.84ZM114.62 14.2C114.62 14.52 114.8 14.7 115.12 14.7H115.38C115.7 14.7 115.88 14.52 115.88 14.2V11.16C115.88 10.84 115.7 10.66 115.38 10.66H112.94C112.66 10.66 112.46 10.54 112.38 10.24C112.3 9.98 112.48 9.8 112.84 9.8H115.38C115.7 9.8 115.88 9.62 115.88 9.3V8.36C115.88 8.04 115.74 7.86 115.48 7.86H115.44C115.18 7.86 115.02 7.94 114.82 8.12C114.36 8.6 113.9 9 113.44 9.32C113.22 9.48 113.04 9.5 112.94 9.42C112.82 9.34 112.86 9.16 113.02 8.88C113.36 8.3 113.66 7.58 113.94 6.82C114.08 6.36 113.66 6.14 113.32 6.5C112.82 7.04 112.3 7.54 111.74 8C111.5 8.2 111.32 8.24 111.24 8.14C111.16 8.06 111.18 7.88 111.36 7.62C112.52 5.78 113.46 3.28 113.92 1.44C114 1.12 114.22 1 114.54 1.1L116.5 1.72C116.82 1.82 117.04 2.12 116.76 2.34C116.7 2.38 116.66 2.4 116.58 2.42C116.32 2.5 116.12 2.56 115.98 2.8C115.92 2.94 115.84 3.06 115.78 3.18C115.58 3.54 115.72 3.78 116.12 3.78H121.08C121.32 3.78 121.52 3.72 121.7 3.54L122.24 3.02C122.46 2.8 122.7 2.8 122.94 3L124.26 4.06C124.52 4.26 124.58 4.6 124.28 4.76C124.24 4.78 124.18 4.8 124.12 4.82C123.84 4.92 123.68 5.08 123.68 5.4C123.62 13.7 123.46 17.66 122.46 18.82C121.86 19.52 121.18 19.86 120.28 19.94C119.96 19.96 119.8 19.78 119.78 19.44C119.74 19.08 119.66 18.8 119.4 18.56C119.16 18.32 118.62 18.12 117.94 17.96C117.64 17.88 117.5 17.76 117.5 17.56C117.5 17.38 117.68 17.28 118.02 17.3C118.78 17.38 119.64 17.44 120.02 17.44C120.42 17.44 120.64 17.38 120.76 17.24C121.46 16.48 121.58 12.42 121.64 5.16C121.64 4.82 121.46 4.64 121.14 4.64H115.24C114.98 4.64 114.8 4.7 114.68 4.88C114.68 4.88 114.74 5.18 115.08 5.3L116.42 5.74C116.74 5.84 116.92 6.12 116.68 6.36C116.62 6.42 116.54 6.46 116.44 6.5C116.18 6.58 116 6.58 115.88 6.76C115.88 6.76 116.04 7 116.44 7H117.92C118.18 7 118.38 6.92 118.54 6.72L118.86 6.34C119.06 6.1 119.32 6.06 119.56 6.26C119.88 6.5 120.22 6.8 120.54 7.06C120.74 7.24 120.88 7.46 120.72 7.68C120.62 7.82 120.48 7.86 120.32 7.86H118.12C117.8 7.86 117.62 8.04 117.62 8.36V9.3C117.62 9.62 117.8 9.8 118.12 9.8H118.54C118.8 9.8 119 9.72 119.16 9.5L119.5 9.06C119.7 8.8 119.94 8.76 120.2 8.96C120.52 9.22 120.9 9.54 121.22 9.84C121.42 10.04 121.52 10.26 121.36 10.5C121.26 10.62 121.12 10.66 120.96 10.66H118.12C117.8 10.66 117.62 10.84 117.62 11.16V14.2C117.62 14.52 117.8 14.7 118.12 14.7H118.4C118.72 14.7 118.9 14.52 118.9 14.2V11.96C118.9 11.64 119.1 11.46 119.42 11.5L120.44 11.6C120.78 11.62 121.04 11.84 120.88 12.1C120.86 12.12 120.86 12.14 120.84 12.16C120.66 12.38 120.48 12.46 120.48 12.74V15.9C120.48 16.24 119.78 16.46 119.2 16.46C119.02 16.46 118.9 16.28 118.9 16C118.9 15.72 118.72 15.56 118.4 15.56H115.06C114.8 15.56 114.66 15.62 114.54 15.74C114.34 15.96 114.1 16.02 113.84 15.88L113.06 15.5C112.74 15.34 112.6 15.14 112.74 14.98C112.74 14.96 112.76 14.96 112.76 14.94C112.86 14.84 113 14.74 113.04 14.7C113.08 14.66 113.1 14.52 113.1 14.28V11.98C113.1 11.66 113.3 11.48 113.62 11.52L114.62 11.62C114.94 11.66 115.2 11.88 115.02 12.14C115 12.16 115 12.18 114.98 12.2C114.78 12.4 114.62 12.5 114.62 12.78V14.2ZM106.54 19.84C106.44 19.84 106.36 19.66 106.36 19.34V2.1C106.36 1.74 106.6 1.58 106.94 1.7L108.36 2.2C108.58 2.28 108.76 2.3 108.98 2.3H109.62C109.86 2.3 110.04 2.24 110.24 2.06L110.68 1.68C110.92 1.46 111.16 1.46 111.4 1.68L112.76 2.88C113 3.1 113.1 3.44 112.78 3.56C112.72 3.58 112.64 3.6 112.56 3.6C112.28 3.64 112.1 3.72 111.98 3.98C111.42 5.08 110.58 6.64 109.86 7.74C109.7 8.02 109.74 8.24 109.96 8.44C111.5 9.82 112.2 11.54 112.2 13.04C112.22 14.88 111.64 15.92 110.04 16.14C109.7 16.18 109.52 16 109.5 15.66C109.48 15.3 109.4 14.94 109.26 14.74C109.22 14.66 109.08 14.58 108.88 14.52C108.6 14.42 108.44 14.3 108.44 14.12C108.44 13.94 108.62 13.84 108.94 13.84H109.5C109.7 13.84 109.86 13.82 109.94 13.76C110.26 13.52 110.32 13.2 110.32 12.6C110.32 11.28 110.04 9.94 109.2 8.62C109.06 8.38 109.04 8.2 109.1 7.94C109.4 6.8 109.76 5.08 110 3.7C110.06 3.36 109.9 3.16 109.56 3.16H108.9C108.58 3.16 108.4 3.34 108.4 3.66V19.1C108.4 19.42 107.76 19.84 106.72 19.84H106.54ZM144.2 6.68C144.46 6.88 144.54 7.22 144.24 7.38C144.2 7.4 144.16 7.42 144.12 7.42C143.84 7.54 143.68 7.68 143.68 7.98C143.66 8.5 143.64 9 143.62 9.46C143.6 9.96 143.74 10.4 143.84 10.24C144.02 9.96 144.3 9.9 144.54 10.14C144.84 10.44 145.18 10.76 145.44 11.08C145.62 11.28 145.72 11.48 145.58 11.72C145.48 11.86 145.34 11.9 145.18 11.9H144C143.68 11.9 143.52 12.08 143.5 12.4C143.46 13.04 143.42 13.64 143.38 14.2C143.32 14.7 143.48 15.08 143.64 14.84C143.82 14.56 144.08 14.52 144.34 14.76C144.62 15.04 144.96 15.34 145.24 15.64C145.42 15.86 145.5 16.08 145.34 16.3C145.24 16.42 145.1 16.46 144.94 16.46H143.56C143.26 16.46 143.08 16.62 143.02 16.92C142.8 18 142.48 18.66 142.16 18.98C141.58 19.58 140.94 19.8 140.18 19.86C139.86 19.88 139.7 19.7 139.68 19.36C139.66 19.1 139.6 18.9 139.4 18.68C139.22 18.5 138.86 18.36 138.38 18.24C138.08 18.16 137.94 18.04 137.94 17.84C137.94 17.66 138.12 17.56 138.46 17.58C139.02 17.64 139.62 17.68 139.9 17.68C140.24 17.68 140.46 17.62 140.6 17.48C140.72 17.36 140.82 17.22 140.88 17.04C141.02 16.68 140.82 16.46 140.46 16.46H136.66C136.4 16.46 136.24 16.56 136.06 16.74L135.86 16.94C135.66 17.18 135.42 17.2 135.16 17.06L133.94 16.34C133.62 16.14 133.54 15.88 133.82 15.7C133.86 15.68 133.9 15.64 133.96 15.62C134.18 15.48 134.3 15.34 134.34 15.08C134.46 14.3 134.6 13.4 134.74 12.44C134.78 12.1 134.62 11.9 134.28 11.9C133.98 11.9 133.82 11.74 133.74 11.48C133.66 11.24 133.52 11.26 133.2 11.36C133 11.42 132.8 11.4 132.6 11.32C132.36 11.24 132.28 11.04 132.24 10.78C132.22 10.6 132.18 10.42 132.14 10.24C132.02 9.78 131.52 9.88 131.52 10.36V19.08C131.52 19.52 130.54 19.86 129.84 19.86C129.58 19.86 129.42 19.68 129.42 19.36V12.72C129.42 12.24 129.1 12.14 128.84 12.56C128.26 13.38 127.64 14.16 126.96 14.86C126.74 15.1 126.56 15.16 126.46 15.06C126.36 14.96 126.38 14.78 126.54 14.52C127.8 12.4 128.58 9.74 129.04 7.14C129.08 6.8 128.92 6.6 128.58 6.6H127.24C126.96 6.6 126.76 6.48 126.68 6.18C126.6 5.92 126.78 5.76 127.14 5.76H128.92C129.24 5.76 129.42 5.58 129.42 5.26V1.42C129.42 1.1 129.62 0.919999 129.94 0.939999L131.72 1.1C132.06 1.14 132.3 1.38 132.14 1.68C132.1 1.76 132.02 1.82 131.94 1.88C131.68 2.02 131.52 2.16 131.52 2.44V5.26C131.52 5.58 131.58 5.76 131.66 5.76C131.74 5.76 131.84 5.66 132 5.46L132.4 4.94C132.6 4.68 132.84 4.64 133.1 4.86C133.44 5.14 133.8 5.48 134.12 5.78C134.32 5.98 134.42 6.2 134.26 6.44C134.16 6.56 134.02 6.6 133.86 6.6H132.02C131.7 6.6 131.52 6.78 131.52 7.1V7.4C131.52 7.68 131.64 7.86 131.92 8C133.58 8.78 134.02 9.82 133.88 10.54C133.82 10.88 133.88 11.04 134.22 11.04H134.44C134.74 11.04 134.94 10.88 134.98 10.56C135.08 9.6 135.18 8.64 135.24 7.78C135.28 7.32 134.98 7.18 134.64 7.52C134.38 7.78 134.1 8.02 133.84 8.22C133.6 8.42 133.42 8.46 133.34 8.38C133.26 8.3 133.3 8.14 133.48 7.88C134.62 6.2 135.54 3.62 135.98 1.42C136.06 1.12 136.26 0.98 136.58 1.04L138.64 1.42C138.98 1.48 139.24 1.8 138.96 2.02C138.92 2.04 138.86 2.06 138.8 2.08C138.52 2.12 138.32 2.2 138.2 2.46C138.08 2.68 137.98 2.9 137.86 3.1C137.68 3.46 137.84 3.7 138.22 3.7H141.78C142.04 3.7 142.24 3.62 142.4 3.42L142.98 2.7C143.18 2.44 143.44 2.42 143.68 2.62C144.16 2.96 144.68 3.36 145.1 3.76C145.3 3.94 145.44 4.16 145.28 4.38C145.18 4.52 145.02 4.56 144.84 4.56H137.44C137.18 4.56 137 4.66 136.84 4.88C136.76 5.02 136.66 5.14 136.58 5.26C136.36 5.56 136.44 5.8 136.76 5.94L137.56 6.28C137.76 6.36 137.96 6.4 138.18 6.4H141.14C141.38 6.4 141.58 6.34 141.76 6.16L142.26 5.7C142.48 5.48 142.72 5.48 142.96 5.68L144.2 6.68ZM136.38 15.08C136.32 15.4 136.5 15.6 136.84 15.6H140.74C141.04 15.6 141.24 15.44 141.28 15.14C141.36 14.4 141.46 13.5 141.52 12.42C141.54 12.08 141.34 11.9 141.02 11.9H137.28C136.98 11.9 136.78 12.08 136.74 12.44C136.6 13.38 136.48 14.3 136.38 15.08ZM136.98 10.5C136.94 10.84 137.12 11.04 137.46 11.04H141.08C141.4 11.04 141.56 10.88 141.58 10.56C141.64 9.7 141.66 8.78 141.68 7.78C141.7 7.44 141.52 7.26 141.2 7.26H137.82C137.52 7.26 137.32 7.4 137.3 7.66C137.22 8.5 137.1 9.5 136.98 10.5ZM137.78 12.66C137.58 12.38 137.52 12.2 137.62 12.14C137.72 12.08 137.9 12.06 138.16 12.16C141.62 13.4 140.3 15.72 138.94 15.22C138.7 15.12 138.64 14.94 138.6 14.7C138.52 14.02 138.18 13.26 137.78 12.66ZM138.08 8.22C137.9 7.96 137.84 7.76 137.94 7.7C138.04 7.64 138.2 7.62 138.46 7.72C141.76 8.76 140.62 10.98 139.34 10.58C139.08 10.5 139 10.32 138.96 10.1C138.82 9.48 138.46 8.78 138.08 8.22ZM164.84 7.04C165.14 7.24 165.2 7.56 164.92 7.72C164.9 7.74 164.86 7.74 164.84 7.76C164.56 7.88 164.4 8 164.38 8.3C164.36 9.4 164.32 10.38 164.3 11.26L164.24 13.12C164.16 15.4 164.12 16.72 164.14 17.3C164.14 17.54 164.14 17.54 164.36 17.54H164.78C165 17.54 165.06 17.5 165.1 17.38C165.28 16.92 165.46 16.1 165.62 15.28C165.7 14.98 165.78 14.82 165.84 14.82C165.9 14.84 165.94 14.98 165.94 15.3L165.9 16.9C165.9 17.2 166.04 17.34 166.3 17.48C166.56 17.64 166.64 17.8 166.64 18.12C166.64 18.92 166.08 19.38 164.8 19.38H164.08C162.74 19.38 162.22 18.84 162.22 17.42C162.22 16.98 162.24 16.4 162.26 15.62C162.26 15.14 162.28 14.58 162.3 13.92C162.36 12.52 162.42 10.64 162.48 8.18C162.5 7.84 162.32 7.66 162 7.66H160.24C159.94 7.66 159.74 7.82 159.72 8.14C159.54 10.92 159.32 14.02 159.14 16.04C159.1 16.42 159.34 16.58 159.7 16.46C160.22 16.26 160.74 16.04 161.28 15.82C161.58 15.7 161.78 15.7 161.84 15.86C161.9 16 161.82 16.16 161.6 16.36C160.8 17.04 159.58 18.08 158.16 19.1C157.98 19.24 157.92 19.3 157.92 19.3C157.88 19.4 157.44 19.58 157.24 19.26L156.46 18.08C156.3 17.82 156.38 17.64 156.6 17.42C156.88 17.14 157.14 16.7 157.22 16.16C157.42 14.92 157.84 7.6 158.02 4.1C158.04 3.78 157.84 3.6 157.52 3.6H157.14C156.86 3.6 156.66 3.48 156.58 3.18C156.5 2.92 156.68 2.74 157.04 2.74H162.66C162.92 2.74 163.12 2.66 163.28 2.46L163.88 1.74C164.08 1.5 164.34 1.46 164.58 1.64C165.06 2 165.62 2.4 166.08 2.8C166.28 2.98 166.42 3.22 166.24 3.44C166.12 3.56 165.98 3.6 165.82 3.6H160.5C160.2 3.6 160 3.78 159.98 4.08L159.84 6.28C159.82 6.6 160 6.8 160.32 6.8H161.98C162.24 6.8 162.42 6.7 162.58 6.52L162.84 6.24C163.04 6 163.26 5.96 163.52 6.14L164.84 7.04ZM147.56 19.68C147.46 19.56 147.5 19.4 147.68 19.16C149.26 17.06 149.6 14.66 149.68 12.22C149.7 11.9 149.52 11.72 149.2 11.72H148.14C147.86 11.72 147.66 11.6 147.58 11.3C147.5 11.04 147.68 10.86 148.04 10.86H149.2C149.52 10.86 149.7 10.68 149.7 10.36V6.82C149.7 6.5 149.52 6.32 149.2 6.32H148.48C148.2 6.32 148 6.2 147.92 5.9C147.84 5.64 148.02 5.46 148.38 5.46H152.3C152.58 5.46 152.76 5.34 152.86 5.06C153.2 4.02 153.52 2.72 153.8 1.46C153.86 1.12 154.08 1 154.4 1.1L156.3 1.7C156.62 1.8 156.82 2.08 156.58 2.32C156.52 2.38 156.44 2.44 156.34 2.46C156.08 2.54 155.9 2.6 155.74 2.82C155.22 3.54 154.66 4.26 154.12 4.86C153.82 5.18 153.74 5.46 153.98 5.46H154.06C154.32 5.46 154.52 5.36 154.68 5.16L155.12 4.62C155.32 4.38 155.56 4.34 155.82 4.54C156.2 4.84 156.62 5.18 156.98 5.5C157.2 5.7 157.32 5.92 157.14 6.16C157.04 6.28 156.9 6.32 156.74 6.32H155.52C155.2 6.32 155.02 6.5 155.02 6.82V9.72C155.02 10.18 155.28 10.38 155.52 10.08C155.72 9.84 155.96 9.8 156.22 10C156.56 10.28 156.96 10.6 157.28 10.9C157.5 11.1 157.62 11.32 157.44 11.56C157.34 11.68 157.2 11.72 157.04 11.72H155.52C155.2 11.72 155.02 11.9 155.02 12.22V19.22C155.02 19.52 154.46 19.86 153.46 19.86C153.26 19.86 153.14 19.68 153.14 19.36V12.22C153.14 11.9 152.96 11.72 152.64 11.72H152.04C151.72 11.72 151.56 11.88 151.54 12.2C151.4 14.76 150.76 17.56 148.1 19.56C147.84 19.76 147.66 19.78 147.56 19.68ZM148.72 1.7C148.56 1.42 148.52 1.24 148.62 1.18C148.72 1.1 148.88 1.12 149.14 1.22C153.4 2.96 151.82 5.98 150.14 5.22C149.9 5.1 149.82 4.92 149.8 4.66C149.68 3.66 149.22 2.56 148.72 1.7ZM151.58 10.36C151.58 10.68 151.76 10.86 152.08 10.86H152.64C152.96 10.86 153.14 10.68 153.14 10.36V6.82C153.14 6.5 152.96 6.32 152.64 6.32H152.08C151.76 6.32 151.58 6.5 151.58 6.82V10.36ZM159.84 9.92C159.72 9.6 159.72 9.42 159.82 9.38C159.94 9.34 160.08 9.4 160.3 9.58C163.12 11.8 161.9 14.08 160.74 13.48C160.52 13.36 160.46 13.16 160.46 12.92C160.42 11.96 160.14 10.82 159.84 9.92Z" fill="#463A36"/>
</svg>
