<svg width="47" height="15" viewBox="0 0 47 15" fill="none" xmlns="http://www.w3.org/2000/svg">
<path d="M4.03551 1.82297C4.27551 1.82297 4.41051 1.68797 4.41051 1.44797V0.637968C4.41051 0.397968 4.56051 0.262968 4.80051 0.277969L6.16551 0.397968C6.40551 0.412968 6.61551 0.577968 6.48051 0.802968C6.45051 0.847968 6.40551 0.892968 6.34551 0.937968C6.15051 1.04297 6.03051 1.14797 6.03051 1.35797V1.44797C6.03051 1.68797 6.16551 1.82297 6.40551 1.82297H8.76051C9.00051 1.82297 9.13551 1.68797 9.13551 1.44797V0.637968C9.13551 0.397968 9.28551 0.262968 9.52551 0.277969L10.9355 0.397968C11.1755 0.412968 11.3705 0.592968 11.2355 0.802968C11.2055 0.847968 11.1605 0.892968 11.1155 0.922968C10.9205 1.04297 10.8005 1.14797 10.8005 1.35797V1.44797C10.8005 1.68797 10.9355 1.82297 11.1755 1.82297H11.9855C12.1805 1.82297 12.3305 1.76297 12.4505 1.61297L12.8705 1.10297C13.0205 0.922968 13.2155 0.907969 13.3955 1.04297C13.7405 1.29797 14.1155 1.58297 14.4305 1.85297C14.5805 1.98797 14.6855 2.15297 14.5655 2.33297C14.4905 2.43797 14.3705 2.46797 14.2355 2.46797H11.1755C10.9355 2.46797 10.8005 2.60297 10.8005 2.84297V3.20297C10.8005 3.50297 10.1405 3.60797 9.40551 3.62297C9.24051 3.62297 9.13551 3.48797 9.13551 3.24797V2.84297C9.13551 2.60297 9.00051 2.46797 8.76051 2.46797H6.40551C6.16551 2.46797 6.03051 2.60297 6.03051 2.84297V3.26297C6.03051 3.41297 5.89551 3.51797 5.65551 3.57797C5.44551 3.63797 5.38551 3.74297 5.25051 3.90797L5.23551 3.92297C5.11551 4.02797 4.93551 4.14797 4.93551 4.35797V5.21297C4.93551 5.45297 5.04051 5.58797 5.22051 5.58797C5.41551 5.58797 5.56551 5.51297 5.68551 5.36297L6.09051 4.86797C6.24051 4.67297 6.43551 4.65797 6.61551 4.80797C6.93051 5.06297 7.32051 5.34797 7.63551 5.61797C7.78551 5.76797 7.89051 5.94797 7.74051 6.11297C7.66551 6.20297 7.56051 6.23297 7.42551 6.23297H5.31051C5.07051 6.23297 4.93551 6.36797 4.93551 6.60797V8.03297C4.93551 8.27297 4.96551 8.40797 5.02551 8.40797C5.08551 8.40797 5.17551 8.36297 5.31051 8.22797L5.61051 7.94297C5.77551 7.77797 5.95551 7.77797 6.13551 7.91297L7.12551 8.58797C7.33551 8.73797 7.39551 8.94797 7.18551 9.09797C7.17051 9.11297 7.15551 9.12797 7.14051 9.12797C6.96051 9.26297 6.84051 9.35297 6.84051 9.56297V12.533C6.81051 12.848 5.98551 13.058 5.52051 13.058C5.35551 13.058 5.25051 12.923 5.25051 12.683V12.533C5.25051 12.293 5.11551 12.158 4.87551 12.158H3.42051C3.18051 12.158 3.04551 12.293 3.04551 12.533V13.283C3.04551 13.583 2.32551 13.823 1.72551 13.823C1.57551 13.823 1.48551 13.688 1.48551 13.448V8.27297C1.48551 8.00297 1.66551 7.88297 1.92051 7.97297L2.89551 8.33297C3.04551 8.39297 3.15051 8.40797 3.22551 8.40797C3.28551 8.40797 3.33051 8.27297 3.33051 8.03297V6.60797C3.33051 6.36797 3.19551 6.23297 2.95551 6.23297H1.09551C0.885507 6.23297 0.735507 6.14297 0.675507 5.91797C0.615507 5.72297 0.750507 5.58797 1.02051 5.58797H2.95551C3.19551 5.58797 3.33051 5.45297 3.33051 5.21297V3.71297C3.33051 3.47297 3.48051 3.33797 3.72051 3.35297L4.02051 3.38297C4.26051 3.39797 4.41051 3.26297 4.41051 3.02297V2.84297C4.41051 2.60297 4.27551 2.46797 4.03551 2.46797H1.09551C0.870507 2.46797 0.735507 2.36297 0.690507 2.13797C0.645507 1.94297 0.780507 1.82297 1.03551 1.82297H4.03551ZM3.04551 11.138C3.04551 11.378 3.18051 11.513 3.42051 11.513H4.87551C5.11551 11.513 5.25051 11.378 5.25051 11.138V9.42797C5.25051 9.18797 5.11551 9.05297 4.87551 9.05297H3.42051C3.18051 9.05297 3.04551 9.18797 3.04551 9.42797V11.138ZM5.86551 14.288C5.79051 14.198 5.85051 14.063 6.03051 13.898C7.92051 12.158 8.16051 10.073 8.16051 7.80797V3.92297C8.16051 3.65297 8.34051 3.53297 8.59551 3.62297L9.79551 4.02797C9.96051 4.08797 10.0955 4.10297 10.2605 4.10297H11.7005C11.8955 4.10297 12.0305 4.05797 12.1655 3.90797L12.4655 3.57797C12.6155 3.41297 12.8105 3.39797 12.9905 3.53297L14.1005 4.32797C14.3105 4.47797 14.3555 4.70297 14.1305 4.83797C14.1005 4.85297 14.0705 4.86797 14.0405 4.88297C13.8455 4.97297 13.7255 5.09297 13.7255 5.30297V12.563C13.7255 13.538 13.5305 14.198 12.0155 14.408C11.7605 14.453 11.6255 14.318 11.5955 14.078C11.5505 13.793 11.4755 13.583 11.3105 13.388C11.1605 13.253 10.9205 13.103 10.4555 12.998C10.2155 12.953 10.0955 12.848 10.0955 12.713C10.0955 12.578 10.1855 12.518 10.3505 12.518C10.4405 12.533 10.5305 12.533 10.6205 12.533C11.1305 12.578 11.6105 12.608 11.7905 12.608C12.0755 12.608 12.1055 12.563 12.1055 12.413V10.313C12.1055 10.073 11.9705 9.93797 11.7305 9.93797H9.94551C9.72051 9.93797 9.58551 10.043 9.52551 10.268C9.16551 11.768 8.31051 13.223 6.28551 14.258C6.07551 14.363 5.94051 14.363 5.86551 14.288ZM9.73551 8.90297C9.70551 9.15797 9.84051 9.29297 10.0805 9.29297H11.7305C11.9705 9.29297 12.1055 9.15797 12.1055 8.91797V7.65797C12.1055 7.41797 11.9705 7.28297 11.7305 7.28297H10.1405C9.90051 7.28297 9.76551 7.41797 9.76551 7.65797V7.80797C9.76551 8.16797 9.75051 8.52797 9.73551 8.90297ZM9.76551 6.26297C9.76551 6.50297 9.90051 6.63797 10.1405 6.63797H11.7305C11.9705 6.63797 12.1055 6.50297 12.1055 6.26297V5.10797C12.1055 4.86797 11.9705 4.73297 11.7305 4.73297H10.1405C9.90051 4.73297 9.76551 4.86797 9.76551 5.10797V6.26297ZM22.4955 3.32297C22.5555 3.27797 22.6755 3.27797 22.8705 3.32297C25.0905 3.80297 25.1655 4.94297 24.5655 5.43797C24.3855 5.58797 24.3855 5.61797 24.6255 5.61797H26.6205C26.8005 5.61797 26.9505 5.55797 27.0855 5.42297L27.4155 5.10797C27.5805 4.95797 27.7605 4.94297 27.9405 5.06297L29.0355 5.81297C29.2455 5.94797 29.3055 6.18797 29.0955 6.32297C29.0655 6.33797 29.0355 6.36797 28.9905 6.38297C28.7955 6.48797 28.6905 6.59297 28.6905 6.80297V9.84797C28.6605 10.118 27.8355 10.358 27.3105 10.358C27.1305 10.358 27.0255 10.223 27.0255 9.98297V9.81797C27.0255 9.57797 26.8905 9.44297 26.6505 9.44297H20.7105C20.4855 9.44297 20.3505 9.56297 20.3205 9.78797C20.0805 11.393 19.2855 13.118 16.9905 14.288C16.7805 14.393 16.6455 14.408 16.5855 14.318C16.5255 14.228 16.5705 14.108 16.7505 13.943C18.5505 12.188 18.7905 10.133 18.7905 8.15297V5.43797C18.7905 5.16797 18.9555 5.03297 19.2105 5.12297L20.4855 5.54297C20.6505 5.58797 20.7855 5.61797 20.9505 5.61797H23.5455C23.5155 5.61797 23.4855 5.60297 23.4555 5.58797C23.2755 5.51297 23.2155 5.36297 23.1855 5.16797C23.0955 4.68797 22.8555 4.13297 22.5855 3.69797C22.4655 3.48797 22.4355 3.36797 22.4955 3.32297ZM16.7205 2.46797C16.6755 2.25797 16.8105 2.15297 17.0655 2.15297H20.0055C20.2455 2.15297 20.3805 2.01797 20.3805 1.77797V0.697969C20.3805 0.457968 20.5305 0.322968 20.7705 0.337968L22.1655 0.457968C22.4055 0.472968 22.6155 0.637968 22.4805 0.847968C22.4505 0.892968 22.4055 0.937968 22.3455 0.982968C22.1655 1.10297 22.0455 1.19297 22.0455 1.40297V1.77797C22.0455 2.01797 22.1805 2.15297 22.4205 2.15297H24.7155C24.9555 2.15297 25.0905 2.01797 25.0905 1.77797V0.697969C25.0905 0.457968 25.2405 0.322968 25.4805 0.337968L26.9205 0.457968C27.1605 0.472968 27.3705 0.637968 27.2355 0.862968C27.2055 0.907969 27.1605 0.952968 27.1005 0.997968C26.9055 1.10297 26.7855 1.20797 26.7855 1.41797V1.77797C26.7855 2.01797 26.9205 2.15297 27.1605 2.15297H27.8205C28.0155 2.15297 28.1655 2.09297 28.2855 1.94297L28.7505 1.37297C28.9005 1.17797 29.0955 1.16297 29.2755 1.31297C29.6355 1.58297 30.0555 1.89797 30.3855 2.19797C30.5355 2.33297 30.6405 2.49797 30.5205 2.66297C30.4455 2.76797 30.3255 2.79797 30.1905 2.79797H27.1605C26.9205 2.79797 26.7855 2.93297 26.7855 3.17297V3.90797C26.7855 4.22297 26.0955 4.35797 25.3605 4.37297C25.1955 4.37297 25.0905 4.23797 25.0905 3.99797V3.17297C25.0905 2.93297 24.9555 2.79797 24.7155 2.79797H22.4205C22.1805 2.79797 22.0455 2.93297 22.0455 3.17297V3.98297C22.0455 4.31297 21.3255 4.44797 20.6505 4.44797C20.4855 4.44797 20.3805 4.31297 20.3805 4.07297V3.17297C20.3805 2.93297 20.2455 2.79797 20.0055 2.79797H17.1255C16.9005 2.79797 16.7655 2.67797 16.7205 2.46797ZM20.4405 8.46797C20.4405 8.67797 20.5605 8.79797 20.8005 8.79797H26.6505C26.8905 8.79797 27.0255 8.66297 27.0255 8.42297V6.62297C27.0255 6.38297 26.8905 6.24797 26.6505 6.24797H20.8155C20.5755 6.24797 20.4405 6.38297 20.4405 6.62297V8.13797C20.4405 8.24297 20.4405 8.34797 20.4405 8.46797ZM44.7805 2.40797C44.9305 2.22797 45.1255 2.21297 45.3055 2.34797C45.7255 2.66297 46.2205 3.02297 46.6105 3.35297C46.7755 3.48797 46.8805 3.65297 46.7605 3.83297C46.6855 3.93797 46.5505 3.96797 46.4155 3.96797H45.4255C45.2005 3.96797 45.0655 4.08797 45.0355 4.31297C44.7055 6.53297 44.0755 8.46797 42.9655 10.073C42.8305 10.268 42.8455 10.433 43.0255 10.598C44.0005 11.393 45.1555 12.038 46.5055 12.428C46.7305 12.488 46.8355 12.563 46.8205 12.698C46.8055 12.833 46.7005 12.908 46.5055 12.998C46.0405 13.193 45.6355 13.538 45.4105 14.003C45.3055 14.228 45.1705 14.318 44.9455 14.213C43.7155 13.643 42.7255 12.878 41.8705 11.888C41.7055 11.693 41.5255 11.678 41.3455 11.843C40.1455 12.878 38.6905 13.688 36.8155 14.318C36.6055 14.393 36.4555 14.363 36.4105 14.258C36.3505 14.153 36.4405 14.033 36.6655 13.928C38.4505 13.013 39.7855 11.963 40.7455 10.748C40.8655 10.583 40.8805 10.433 40.7755 10.238C39.9655 8.69297 39.4405 6.72797 39.1255 4.32797C39.0955 4.08797 38.9605 3.96797 38.7355 3.96797C38.5555 3.96797 38.3305 3.99797 38.3755 4.02797C38.6005 4.14797 38.7205 4.38797 38.4955 4.50797C38.4655 4.52297 38.4205 4.53797 38.3905 4.55297C38.1805 4.59797 38.0455 4.62797 37.9105 4.79297C37.1605 5.81297 36.0205 7.02797 34.9105 8.01797C34.6405 8.25797 34.7305 8.45297 35.0755 8.42297C35.9605 8.31797 36.9955 8.18297 38.0305 8.04797C38.2705 8.00297 38.4205 8.06297 38.4355 8.18297C38.4505 8.31797 38.3605 8.43797 38.1655 8.51297C37.2205 8.91797 35.7655 9.51797 34.0855 10.118C33.9055 10.178 33.8305 10.208 33.8305 10.208L33.8155 10.223C33.6805 10.403 33.4405 10.343 33.3355 10.103L32.8255 8.96297C32.7205 8.72297 32.7805 8.58797 32.9755 8.52797C33.0955 8.49797 33.2155 8.46797 33.2605 8.43797C33.8305 7.95797 34.4605 7.16297 35.0305 6.30797C35.2405 5.99297 35.0305 5.75297 34.6855 5.88797C34.3855 6.00797 34.0705 6.12797 33.7555 6.23297C33.7555 6.23297 33.3955 6.32297 33.2905 6.06797L32.7955 4.97297C32.6905 4.74797 32.7355 4.58297 32.9005 4.53797C32.9155 4.53797 32.9305 4.52297 32.9455 4.52297C33.1105 4.46297 33.2005 4.40297 33.3055 4.26797C34.0105 3.45797 34.8355 1.80797 35.1955 0.712968C35.2705 0.487969 35.4355 0.397968 35.6605 0.487969L37.0855 0.997968C37.3105 1.07297 37.4605 1.29797 37.2805 1.47797C37.2505 1.50797 37.2055 1.53797 37.1455 1.55297C36.9505 1.61297 36.8155 1.65797 36.6955 1.80797C36.1255 2.58797 35.3155 3.45797 34.5505 4.17797C34.2955 4.40297 34.0855 4.62797 34.1155 4.62797H34.1905C34.2955 4.62797 34.4155 4.61297 34.5205 4.61297L35.3455 4.56797C35.4955 4.56797 35.6455 4.56797 35.7955 4.55297C36.0055 4.53797 36.1405 4.46297 36.2305 4.26797C36.3655 3.99797 36.4855 3.75797 36.5755 3.53297C36.6805 3.30797 36.8455 3.23297 37.0705 3.35297L37.4455 3.54797C37.7305 3.69797 37.9705 3.80297 37.9705 3.77297L37.9555 3.74297C37.8805 3.47297 38.0005 3.32297 38.2705 3.32297H41.4505C41.4355 3.32297 41.4205 3.30797 41.4055 3.30797C41.2405 3.24797 41.1655 3.08297 41.1355 2.88797C41.0305 2.16797 40.6555 1.38797 40.2055 0.757968C40.0555 0.562968 40.0255 0.427968 40.0855 0.382968C40.1605 0.337968 40.2805 0.322968 40.4755 0.382968C42.9355 1.04297 43.1605 2.42297 42.6055 3.06797C42.4255 3.26297 42.4405 3.32297 42.7105 3.32297H43.7305C43.9255 3.32297 44.0755 3.26297 44.1955 3.11297L44.7805 2.40797ZM32.8555 12.098C32.7505 11.858 32.8255 11.678 33.0805 11.618C34.2205 11.378 36.3055 10.868 38.3605 10.313C38.5855 10.238 38.7355 10.253 38.7655 10.373C38.7955 10.493 38.7205 10.598 38.5405 10.718C37.5355 11.378 36.0955 12.218 34.1755 13.178C33.9955 13.268 33.9205 13.328 33.8905 13.388C33.7555 13.613 33.5155 13.523 33.4105 13.283L32.8555 12.098ZM39.7705 3.96797C39.5155 3.96797 39.3805 4.11797 39.4405 4.38797C39.8455 6.09797 40.5055 7.58297 41.4355 8.85797C41.6005 9.09797 41.8405 9.06797 41.9605 8.81297C42.6205 7.44797 42.9805 5.99297 43.1605 4.35797C43.1905 4.11797 43.0555 3.96797 42.8155 3.96797H39.7705Z" fill="#7A6855"/>
</svg>
