<svg width="48" height="15" viewBox="0 0 48 15" fill="none" xmlns="http://www.w3.org/2000/svg">
<path d="M12.6801 6.97649C12.8301 6.79649 13.0101 6.76649 13.2051 6.91649C13.5501 7.17149 13.9401 7.48649 14.2701 7.77149C14.4351 7.92149 14.5251 8.08649 14.3751 8.26649C14.3001 8.35649 14.1951 8.38649 14.0751 8.38649H11.4051C11.1651 8.38649 11.0301 8.52149 11.0301 8.76149V9.42149C11.0301 9.66149 11.1651 9.79649 11.4051 9.79649H12.1851C12.3801 9.79649 12.5301 9.72149 12.6501 9.57149L13.1301 8.98649C13.2801 8.79149 13.4601 8.77649 13.6551 8.92649C14.0151 9.19649 14.4351 9.52649 14.7801 9.82649C14.9451 9.97649 15.0351 10.1415 14.8851 10.3215C14.8101 10.4115 14.7051 10.4415 14.5851 10.4415H11.4051C11.1651 10.4415 11.0301 10.5765 11.0301 10.8165V12.2865C11.0301 12.5715 10.4001 12.7515 9.83012 12.7815H10.3851C11.8851 12.7815 13.1901 12.7665 14.6901 12.6915C14.9451 12.6915 15.0801 12.7515 15.0801 12.8715C15.0801 13.0065 14.9751 13.0815 14.7651 13.1715C14.3601 13.3365 14.1351 13.6215 14.0301 13.9515C13.9701 14.1765 13.8501 14.2965 13.6251 14.2965H9.84512C6.95012 14.2965 5.69012 13.8315 4.47512 12.4665C4.35512 12.3465 4.29512 12.2415 4.13012 12.1815C3.98012 12.1365 3.84512 12.1815 3.75512 12.3015C3.63512 12.4815 3.51512 12.6465 3.36512 12.8115C3.03512 13.2465 2.64512 13.7565 2.37512 14.1615C2.37512 14.1615 2.10512 14.3265 1.92512 14.0865L1.28012 13.2015C1.13012 12.9915 1.17512 12.8115 1.40012 12.6915C1.83512 12.4815 2.30012 12.2265 2.73512 12.0015C2.75012 11.9865 2.76512 11.9865 2.78012 11.9715C2.96012 11.8665 3.05012 11.7465 3.05012 11.5365V8.38649C3.05012 8.14649 2.91512 8.01149 2.67512 8.01149H1.61012C1.38512 8.01149 1.25012 7.90649 1.20512 7.68149C1.17512 7.48649 1.31012 7.36649 1.56512 7.36649H2.55512C2.75012 7.36649 2.90012 7.30649 3.02012 7.15649L3.30512 6.82649C3.48512 6.60149 3.59012 6.45149 3.56012 6.45149C3.54512 6.45149 3.53012 6.45149 3.51512 6.43649C3.32012 6.37649 3.26012 6.22649 3.21512 6.03149C3.09512 5.40149 2.69012 4.69649 2.22512 4.15649C2.06012 3.97649 2.00012 3.84149 2.07512 3.78149C2.15012 3.70649 2.28512 3.69149 2.49512 3.73649C5.30012 4.38149 5.12012 6.10649 4.20512 6.45149C3.95012 6.54149 3.92012 6.60149 4.13012 6.76649L5.10512 7.51649C5.30012 7.66649 5.36012 7.89149 5.15012 8.02649C5.09012 8.07149 5.01512 8.10149 4.94012 8.13149C4.71512 8.19149 4.61012 8.31149 4.61012 8.53649V11.4615C4.61012 11.6565 4.67012 11.8065 4.83512 11.9115C5.73512 12.4965 7.07012 12.7065 9.05012 12.7665C9.30512 12.7815 9.44012 12.6465 9.44012 12.4065V10.8165C9.44012 10.5765 9.30512 10.4415 9.06512 10.4415H5.93012C5.72012 10.4415 5.57012 10.3515 5.51012 10.1265C5.45012 9.93149 5.58512 9.79649 5.85512 9.79649H9.06512C9.30512 9.79649 9.44012 9.66149 9.44012 9.42149V8.76149C9.44012 8.52149 9.30512 8.38649 9.06512 8.38649H8.22512C8.04512 8.38649 7.89512 8.43149 7.76012 8.56649L7.58012 8.74649C7.41512 8.89649 7.25012 8.94149 7.05512 8.80649L6.09512 8.16149C5.85512 8.01149 5.84012 7.77149 6.06512 7.65149C6.12512 7.62149 6.18512 7.59149 6.23012 7.57649C6.41012 7.48649 6.51512 7.39649 6.60512 7.23149C6.77012 6.84149 6.95012 6.42149 7.11512 6.01649C7.22012 5.74649 7.08512 5.58149 6.81512 5.58149H5.87012C5.66012 5.58149 5.51012 5.49149 5.45012 5.26649C5.39012 5.07149 5.52512 4.93649 5.79512 4.93649H7.22012C7.43012 4.93649 7.55012 4.92149 7.56512 4.87649C7.56512 4.86149 7.56512 4.84649 7.58012 4.81649C7.59512 4.78649 7.61012 4.74149 7.61012 4.72649C7.74512 4.38149 7.86512 4.06649 7.94012 3.81149C8.01512 3.58649 8.18012 3.49649 8.40512 3.55649L9.08012 3.75149C9.33512 3.82649 9.50012 3.70649 9.50012 3.43649V3.18149C9.50012 2.94149 9.36512 2.80649 9.12512 2.80649H6.78512C6.54512 2.80649 6.41012 2.94149 6.41012 3.18149V3.85649C6.41012 4.17149 5.72012 4.30649 5.06012 4.30649C4.89512 4.30649 4.79012 4.17149 4.79012 3.93149V3.18149C4.79012 2.94149 4.65512 2.80649 4.41512 2.80649H1.41512C1.19012 2.80649 1.05512 2.70149 1.01012 2.47649C0.980116 2.28149 1.11512 2.16149 1.37012 2.16149H4.41512C4.65512 2.16149 4.79012 2.02649 4.79012 1.78649V0.766494C4.79012 0.526493 4.94012 0.391494 5.18012 0.406494L6.56012 0.541494C6.80012 0.571493 6.99512 0.721493 6.86012 0.946494C6.83012 0.991493 6.78512 1.03649 6.72512 1.08149C6.53012 1.18649 6.41012 1.29149 6.41012 1.50149V1.78649C6.41012 2.02649 6.54512 2.16149 6.78512 2.16149H9.12512C9.36512 2.16149 9.50012 2.02649 9.50012 1.78649V0.766494C9.50012 0.526493 9.63512 0.376493 9.89012 0.406494L11.2851 0.541494C11.5251 0.571493 11.7201 0.721493 11.5851 0.946494C11.5551 0.991493 11.5101 1.03649 11.4651 1.06649C11.2701 1.18649 11.1501 1.29149 11.1501 1.50149V1.78649C11.1501 2.02649 11.2851 2.16149 11.5251 2.16149H12.3501C12.5451 2.16149 12.6951 2.10149 12.8151 1.95149L13.2651 1.39649C13.4151 1.20149 13.5951 1.18649 13.7901 1.33649C14.1351 1.59149 14.5401 1.90649 14.8551 2.20649C15.0051 2.34149 15.1101 2.50649 14.9901 2.67149C14.9151 2.77649 14.7951 2.80649 14.6601 2.80649H11.5251C11.2851 2.80649 11.1501 2.94149 11.1501 3.18149V3.79649C11.1501 4.00649 10.8351 4.14149 10.3551 4.20149C10.1601 4.23149 10.0551 4.32149 9.89012 4.44149C9.84512 4.47149 9.80012 4.48649 9.75512 4.50149C9.54512 4.56149 9.41012 4.59149 9.35012 4.75649C9.35012 4.75649 9.48512 4.93649 9.75512 4.93649H11.7951C11.9901 4.93649 12.1401 4.86149 12.2601 4.71149L12.7101 4.15649C12.8601 3.96149 13.0551 3.94649 13.2351 4.09649C13.5951 4.36649 14.0151 4.68149 14.3601 4.98149C14.5101 5.11649 14.6151 5.29649 14.4801 5.46149C14.3901 5.55149 14.2701 5.58149 14.1501 5.58149H9.33512C9.12512 5.58149 8.99012 5.67149 8.90012 5.88149C8.70512 6.37649 8.49512 6.85649 8.30012 7.30649C8.19512 7.56149 8.30012 7.74149 8.58512 7.74149H9.06512C9.30512 7.74149 9.44012 7.60649 9.44012 7.36649V6.16649C9.44012 5.92649 9.59012 5.79149 9.83012 5.80649L11.1951 5.94149C11.4351 5.97149 11.6301 6.12149 11.4951 6.34649C11.4651 6.40649 11.4051 6.45149 11.3451 6.49649C11.1501 6.60149 11.0301 6.70649 11.0301 6.91649V7.36649C11.0301 7.60649 11.1651 7.74149 11.4051 7.74149H11.7801C11.9751 7.74149 12.1251 7.66649 12.2451 7.51649L12.6801 6.97649ZM26.0251 4.53149C26.2651 4.54649 26.4601 4.71149 26.3401 4.93649C26.2951 4.98149 26.2501 5.02649 26.2051 5.05649C26.0101 5.17649 25.8901 5.28149 25.8901 5.49149V7.51649C25.8901 7.84649 26.1151 7.95149 26.3551 7.69649C27.0451 6.96149 27.6751 6.18149 28.2301 5.40149C28.3651 5.20649 28.5601 5.17649 28.7551 5.31149L30.0151 6.13649C30.2251 6.28649 30.3001 6.57149 30.0601 6.66149C30.0001 6.67649 29.9401 6.67649 29.8651 6.67649C29.6551 6.64649 29.5051 6.67649 29.3551 6.82649C28.3201 7.92149 27.2251 8.85149 26.1301 9.61649C25.9651 9.73649 25.8901 9.87149 25.8901 10.0665V12.2715C25.8901 12.4965 25.9951 12.5865 26.5351 12.5865H27.9451C28.4701 12.5865 28.9051 12.5865 29.1151 12.5565C29.3251 12.5565 29.4751 12.4965 29.5351 12.3915C29.7001 12.1065 29.9101 11.3715 30.1501 10.5165C30.2101 10.2915 30.2851 10.1865 30.3301 10.1865C30.3751 10.1865 30.4051 10.3065 30.4051 10.5615L30.4501 12.1365C30.4501 12.3465 30.5551 12.4515 30.7351 12.5715C30.9751 12.7215 31.0651 12.9015 31.0651 13.1565C31.0651 13.9215 30.3451 14.1315 27.7801 14.1315H26.1901C24.6601 14.1315 24.2101 13.8315 24.2101 12.6165V11.2665C24.2101 10.9815 24.0301 10.8615 23.7601 10.9965C23.2051 11.2665 22.6651 11.4915 22.1551 11.6865C21.9301 11.7615 21.7951 11.7465 21.7351 11.6265C21.6751 11.5065 21.7501 11.4015 21.9601 11.2815C22.6501 10.8615 23.3251 10.3815 23.9851 9.85649C24.1501 9.72149 24.2101 9.58649 24.2101 9.39149V4.75649C24.2101 4.51649 24.3601 4.36649 24.6001 4.39649L24.9451 4.42649C25.1851 4.45649 25.3351 4.32149 25.3351 4.08149V3.25649C25.3351 3.01649 25.2001 2.88149 24.9601 2.88149H22.9201C22.6801 2.88149 22.5451 3.01649 22.5451 3.25649V4.08149C22.5451 4.21649 22.4101 4.32149 22.2001 4.39649C21.8701 4.50149 21.8401 4.63649 22.1551 4.75649L22.4401 4.86149C22.6651 4.95149 22.8151 5.17649 22.6201 5.35649C22.5601 5.40149 22.5001 5.43149 22.4101 5.44649C22.2151 5.49149 22.0651 5.52149 21.9601 5.71649C21.7801 6.01649 21.6001 6.30149 21.4201 6.55649C21.2701 6.78149 21.3151 6.96149 21.5251 7.03649C21.7501 7.11149 21.9151 7.32149 21.7351 7.48649C21.7201 7.50149 21.7051 7.51649 21.6901 7.53149C21.5101 7.65149 21.3901 7.74149 21.3901 7.95149V13.8315C21.3901 13.9965 21.3901 14.1315 21.2551 14.2365C21.0151 14.4015 20.4901 14.5215 20.0401 14.5215C19.8451 14.5215 19.7251 14.3865 19.7251 14.1465V9.27149C19.7251 8.94149 19.5151 8.85149 19.2601 9.07649C18.6001 9.67649 17.9101 10.1865 17.2201 10.6065C17.0251 10.7265 16.9051 10.7415 16.8151 10.6515C16.7251 10.5765 16.7851 10.4415 16.9501 10.2615C18.2701 8.86649 19.6201 6.75149 20.4451 4.50149C20.5201 4.27649 20.6401 4.17149 20.7301 4.20149C20.8201 4.24649 20.8801 4.06649 20.8801 3.79649V3.25649C20.8801 3.01649 20.7451 2.88149 20.5051 2.88149H17.4451C17.2201 2.88149 17.0851 2.77649 17.0401 2.55149C16.9951 2.35649 17.1301 2.23649 17.3851 2.23649H20.5051C20.7451 2.23649 20.8801 2.10149 20.8801 1.86149V0.766494C20.8801 0.526493 21.0301 0.391494 21.2701 0.406494L22.6801 0.526493C22.9201 0.541494 23.1301 0.706493 22.9951 0.931493C22.9651 0.976494 22.9201 1.02149 22.8601 1.06649C22.6651 1.17149 22.5451 1.27649 22.5451 1.48649V1.86149C22.5451 2.10149 22.6801 2.23649 22.9201 2.23649H24.9601C25.2001 2.23649 25.3351 2.10149 25.3351 1.86149V0.766494C25.3351 0.526493 25.4851 0.391494 25.7251 0.406494L27.1801 0.526493C27.4351 0.541494 27.6301 0.721493 27.4801 0.946494C27.4501 0.991493 27.4051 1.03649 27.3451 1.06649C27.1501 1.17149 27.0301 1.27649 27.0301 1.48649V1.86149C27.0301 2.10149 27.1651 2.23649 27.4051 2.23649H28.2151C28.4101 2.23649 28.5601 2.17649 28.6801 2.02649L29.1601 1.44149C29.3101 1.24649 29.5051 1.23149 29.6851 1.38149C30.0451 1.65149 30.4651 1.98149 30.7951 2.28149C30.9451 2.41649 31.0501 2.58149 30.9301 2.74649C30.8551 2.85149 30.7351 2.88149 30.6001 2.88149H27.4051C27.1651 2.88149 27.0301 3.01649 27.0301 3.25649V4.00649C27.0301 4.27649 26.3851 4.47149 25.6051 4.47149H25.3951L26.0251 4.53149ZM45.1301 2.52149C45.2801 2.34149 45.4751 2.32649 45.6551 2.46149C46.0751 2.77649 46.5701 3.13649 46.9601 3.46649C47.1251 3.60149 47.2301 3.76649 47.1101 3.94649C47.0351 4.05149 46.9001 4.08149 46.7651 4.08149H45.7751C45.5501 4.08149 45.4151 4.20149 45.3851 4.42649C45.0551 6.64649 44.4251 8.58149 43.3151 10.1865C43.1801 10.3815 43.1951 10.5465 43.3751 10.7115C44.3501 11.5065 45.5051 12.1515 46.8551 12.5415C47.0801 12.6015 47.1851 12.6765 47.1701 12.8115C47.1551 12.9465 47.0501 13.0215 46.8551 13.1115C46.3901 13.3065 45.9851 13.6515 45.7601 14.1165C45.6551 14.3415 45.5201 14.4315 45.2951 14.3265C44.0651 13.7565 43.0751 12.9915 42.2201 12.0015C42.0551 11.8065 41.8751 11.7915 41.6951 11.9565C40.4951 12.9915 39.0401 13.8015 37.1651 14.4315C36.9551 14.5065 36.8051 14.4765 36.7601 14.3715C36.7001 14.2665 36.7901 14.1465 37.0151 14.0415C38.8001 13.1265 40.1351 12.0765 41.0951 10.8615C41.2151 10.6965 41.2301 10.5465 41.1251 10.3515C40.3151 8.80649 39.7901 6.84149 39.4751 4.44149C39.4451 4.20149 39.3101 4.08149 39.0851 4.08149C38.9051 4.08149 38.6801 4.11149 38.7251 4.14149C38.9501 4.26149 39.0701 4.50149 38.8451 4.62149C38.8151 4.63649 38.7701 4.65149 38.7401 4.66649C38.5301 4.71149 38.3951 4.74149 38.2601 4.90649C37.5101 5.92649 36.3701 7.14149 35.2601 8.13149C34.9901 8.37149 35.0801 8.56649 35.4251 8.53649C36.3101 8.43149 37.3451 8.29649 38.3801 8.16149C38.6201 8.11649 38.7701 8.17649 38.7851 8.29649C38.8001 8.43149 38.7101 8.55149 38.5151 8.62649C37.5701 9.03149 36.1151 9.63149 34.4351 10.2315C34.2551 10.2915 34.1801 10.3215 34.1801 10.3215L34.1651 10.3365C34.0301 10.5165 33.7901 10.4565 33.6851 10.2165L33.1751 9.07649C33.0701 8.83649 33.1301 8.70149 33.3251 8.64149C33.4451 8.61149 33.5651 8.58149 33.6101 8.55149C34.1801 8.07149 34.8101 7.27649 35.3801 6.42149C35.5901 6.10649 35.3801 5.86649 35.0351 6.00149C34.7351 6.12149 34.4201 6.24149 34.1051 6.34649C34.1051 6.34649 33.7451 6.43649 33.6401 6.18149L33.1451 5.08649C33.0401 4.86149 33.0851 4.69649 33.2501 4.65149C33.2651 4.65149 33.2801 4.63649 33.2951 4.63649C33.4601 4.57649 33.5501 4.51649 33.6551 4.38149C34.3601 3.57149 35.1851 1.92149 35.5451 0.826494C35.6201 0.601494 35.7851 0.511493 36.0101 0.601494L37.4351 1.11149C37.6601 1.18649 37.8101 1.41149 37.6301 1.59149C37.6001 1.62149 37.5551 1.65149 37.4951 1.66649C37.3001 1.72649 37.1651 1.77149 37.0451 1.92149C36.4751 2.70149 35.6651 3.57149 34.9001 4.29149C34.6451 4.51649 34.4351 4.74149 34.4651 4.74149H34.5401C34.6451 4.74149 34.7651 4.72649 34.8701 4.72649L35.6951 4.68149C35.8451 4.68149 35.9951 4.68149 36.1451 4.66649C36.3551 4.65149 36.4901 4.57649 36.5801 4.38149C36.7151 4.11149 36.8351 3.87149 36.9251 3.64649C37.0301 3.42149 37.1951 3.34649 37.4201 3.46649L37.7951 3.66149C38.0801 3.81149 38.3201 3.91649 38.3201 3.88649L38.3051 3.85649C38.2301 3.58649 38.3501 3.43649 38.6201 3.43649H41.8001C41.7851 3.43649 41.7701 3.42149 41.7551 3.42149C41.5901 3.36149 41.5151 3.19649 41.4851 3.00149C41.3801 2.28149 41.0051 1.50149 40.5551 0.871493C40.4051 0.676494 40.3751 0.541494 40.4351 0.496494C40.5101 0.451493 40.6301 0.436493 40.8251 0.496494C43.2851 1.15649 43.5101 2.53649 42.9551 3.18149C42.7751 3.37649 42.7901 3.43649 43.0601 3.43649H44.0801C44.2751 3.43649 44.4251 3.37649 44.5451 3.22649L45.1301 2.52149ZM33.2051 12.2115C33.1001 11.9715 33.1751 11.7915 33.4301 11.7315C34.5701 11.4915 36.6551 10.9815 38.7101 10.4265C38.9351 10.3515 39.0851 10.3665 39.1151 10.4865C39.1451 10.6065 39.0701 10.7115 38.8901 10.8315C37.8851 11.4915 36.4451 12.3315 34.5251 13.2915C34.3451 13.3815 34.2701 13.4415 34.2401 13.5015C34.1051 13.7265 33.8651 13.6365 33.7601 13.3965L33.2051 12.2115ZM40.1201 4.08149C39.8651 4.08149 39.7301 4.23149 39.7901 4.50149C40.1951 6.21149 40.8551 7.69649 41.7851 8.97149C41.9501 9.21149 42.1901 9.18149 42.3101 8.92649C42.9701 7.56149 43.3301 6.10649 43.5101 4.47149C43.5401 4.23149 43.4051 4.08149 43.1651 4.08149H40.1201Z" fill="#7A6855"/>
</svg>
