<svg width="64" height="16" viewBox="0 0 64 16" fill="none" xmlns="http://www.w3.org/2000/svg">
<path d="M7.648 7.392C7.808 7.2 8 7.168 8.208 7.328C8.512 7.568 8.864 7.84 9.168 8.096C9.328 8.24 9.456 8.432 9.28 8.592C9.216 8.672 9.104 8.688 8.976 8.688H5.792V9.568C9.936 10.32 9.296 12.928 7.968 12.576C7.776 12.512 7.696 12.384 7.616 12.192C7.296 11.408 6.528 10.544 5.792 9.968V14.896C5.792 15.152 5.168 15.392 4.608 15.392C4.432 15.392 4.32 15.248 4.32 14.992V10.768C3.44 12.064 2.288 13.152 0.944 14.032C0.736 14.176 0.592 14.208 0.512 14.096C0.432 13.984 0.48 13.856 0.656 13.68C2.064 12.288 3.088 10.496 3.696 8.688H1.248C1.024 8.688 0.88 8.576 0.816 8.384C0.752 8.208 0.912 8.08 1.2 8.08H4.32V6.48C4.32 6.224 4.48 6.08 4.736 6.112L6.144 6.24C6.592 5.472 7.088 4.288 7.44 3.152C7.52 2.896 7.696 2.8 7.936 2.896L9.056 3.328C9.312 3.424 9.472 3.696 9.232 3.84C9.12 3.904 8.976 3.904 8.8 3.888C8.16 4.784 7.392 5.664 6.656 6.24C6.48 6.384 6.384 6.432 6.368 6.432L6.336 6.416C6.288 6.656 6.112 6.784 5.792 6.848V8.08H7.104L7.648 7.392ZM0.848 2.784C0.816 2.64 0.944 2.56 1.2 2.512C3.376 2.096 5.872 1.36 7.328 0.688C7.52 0.591999 7.696 0.591999 7.872 0.751999L8.88 1.632C9.12 1.84 9.12 2.144 8.816 2.144C8.672 2.144 8.496 2.096 8.256 2.016C6.464 2.464 3.744 2.864 1.264 2.976C1.008 2.992 0.864 2.928 0.848 2.784ZM1.184 3.792C1.04 3.568 1.008 3.424 1.088 3.376C1.168 3.328 1.296 3.344 1.504 3.44C4.144 4.704 3.152 6.672 2.128 6.224C1.936 6.144 1.888 5.984 1.872 5.776C1.84 5.104 1.536 4.368 1.184 3.792ZM3.696 3.36C3.568 3.12 3.536 2.976 3.6 2.944C3.68 2.896 3.808 2.912 4.016 3.024C6.592 4.288 5.6 6.256 4.592 5.808C4.4 5.728 4.352 5.568 4.336 5.36C4.304 4.688 4.032 3.952 3.696 3.36ZM7.664 15.2C7.616 15.088 7.696 14.944 7.92 14.832C10.24 13.584 12.096 11.92 13.456 9.424C13.584 9.184 13.776 9.12 14 9.232L15.28 9.84C15.536 9.968 15.68 10.256 15.44 10.336C15.328 10.368 15.2 10.352 15.008 10.336C13.168 12.784 10.912 14.288 8.096 15.248C7.856 15.328 7.712 15.312 7.664 15.2ZM8.816 9.504C8.768 9.392 8.832 9.264 9.04 9.12C10.688 8.064 12.112 6.64 13.216 4.944C13.36 4.736 13.536 4.688 13.76 4.8L14.976 5.424C15.232 5.552 15.36 5.856 15.12 5.92C15.024 5.952 14.896 5.936 14.704 5.92C13.184 7.488 11.28 8.72 9.264 9.552C9.024 9.648 8.864 9.632 8.816 9.504ZM8.864 5.2C8.8 5.088 8.864 4.976 9.088 4.816C10.592 3.792 11.984 2.448 13.072 0.959999C13.216 0.768 13.424 0.719999 13.632 0.848L14.768 1.504C15.008 1.648 15.136 1.952 14.896 2.016C14.8 2.032 14.688 2.016 14.496 1.984C13.008 3.312 11.168 4.448 9.312 5.232C9.072 5.328 8.928 5.312 8.864 5.2ZM26.816 10.016C27.072 10.144 27.2 10.384 26.976 10.512C26.88 10.56 26.752 10.576 26.576 10.544C25.76 11.472 24.432 12.64 23.232 13.472C24.624 13.408 26.704 13.296 28.896 13.136C28.56 12.528 28.144 11.904 27.76 11.344C27.6 11.12 27.568 10.96 27.632 10.928C27.712 10.88 27.84 10.912 28.048 11.024C32.032 13.12 31.248 15.776 29.936 15.248C29.76 15.168 29.68 15.024 29.632 14.832C29.536 14.464 29.36 14.08 29.152 13.664C27.616 14.016 25.328 14.512 22.704 14.96C22.704 14.96 22.352 15.024 22.24 14.768L21.856 13.872C21.744 13.632 21.776 13.456 21.952 13.408C22.064 13.376 22.16 13.344 22.208 13.312C23.248 12.56 24.544 10.72 25.12 9.568H22.176C21.952 9.568 21.808 9.456 21.744 9.248C21.68 9.04 21.824 8.928 22.112 8.928H28.336L29.024 8.144C29.184 7.952 29.392 7.936 29.584 8.08C29.952 8.352 30.384 8.672 30.752 8.96C30.928 9.12 31.04 9.312 30.864 9.472C30.784 9.552 30.688 9.568 30.56 9.568H25.92L26.816 10.016ZM16.576 5.456C16.464 5.2 16.496 5.056 16.656 4.992C16.768 4.96 16.864 4.928 16.896 4.912C17.664 4.096 18.608 2.16 19.024 0.943999C19.12 0.704 19.296 0.608 19.536 0.704L20.72 1.152C20.992 1.248 21.136 1.488 20.928 1.632C20.832 1.696 20.704 1.728 20.528 1.712C19.824 2.784 18.672 4.176 17.664 5.136C18.32 5.12 19.152 5.088 20 5.024C20.304 4.512 20.544 4.048 20.736 3.648C20.848 3.408 21.04 3.328 21.264 3.456L22.384 4.064C22.624 4.192 22.736 4.464 22.496 4.576C22.4 4.624 22.272 4.624 22.096 4.592C21.184 5.92 19.536 7.728 18.032 9.024C18.928 8.896 20.064 8.72 21.2 8.544C21.456 8.496 21.616 8.528 21.632 8.656C21.648 8.8 21.568 8.896 21.36 8.992C20.496 9.408 19.136 10.016 17.632 10.56C17.616 10.592 17.584 10.624 17.568 10.656C17.408 10.896 17.168 10.8 17.056 10.528L16.624 9.568C16.512 9.328 16.56 9.152 16.752 9.104C16.864 9.072 16.976 9.024 17.024 8.992C17.808 8.304 18.72 7.088 19.472 5.904C18.848 6.128 18.16 6.368 17.456 6.592C17.456 6.592 17.088 6.656 16.976 6.4L16.576 5.456ZM16.656 13.152C16.528 12.896 16.624 12.704 16.896 12.64C17.952 12.4 19.808 11.92 21.616 11.392C21.856 11.312 22.016 11.312 22.048 11.424C22.08 11.52 22 11.648 21.808 11.776C20.816 12.416 19.488 13.216 17.696 14.144C17.68 14.176 17.68 14.192 17.664 14.224C17.536 14.48 17.264 14.384 17.136 14.128L16.656 13.152ZM20.912 7.424C20.832 7.344 20.896 7.216 21.104 7.04C22.768 5.568 24.432 3.28 25.424 0.704C25.52 0.447999 25.696 0.367999 25.936 0.464L27.184 0.959999C27.456 1.072 27.6 1.296 27.392 1.44C27.312 1.504 27.184 1.52 27.024 1.504C27.92 3.168 29.728 4.736 31.392 5.648C31.6 5.76 31.696 5.856 31.664 5.984C31.632 6.096 31.52 6.176 31.344 6.288C31.088 6.416 30.912 6.592 30.784 6.784C30.656 7.024 30.512 7.088 30.32 6.912C28.832 5.712 27.504 3.792 26.72 1.824C25.312 4.368 23.424 6.224 21.344 7.392C21.136 7.504 20.992 7.504 20.912 7.424ZM23.328 6.656C23.28 6.464 23.408 6.336 23.696 6.336H26.832L27.408 5.648C27.568 5.456 27.776 5.44 27.968 5.584C28.288 5.84 28.656 6.112 28.976 6.368C29.152 6.528 29.248 6.72 29.088 6.88C29.008 6.96 28.912 6.976 28.784 6.976H23.76C23.52 6.976 23.376 6.864 23.328 6.656ZM47.168 3.36C47.376 3.552 47.424 3.824 47.184 3.872C47.088 3.904 46.976 3.92 46.8 3.92C46.32 4.432 45.552 5.072 44.928 5.504C44.736 5.632 44.624 5.664 44.56 5.616C44.496 5.584 44.496 5.44 44.576 5.2C44.752 4.72 44.944 4.144 45.072 3.664H35.024C35.088 4.752 34.656 5.504 34.16 5.808C33.664 6.144 32.928 6.096 32.688 5.52C32.496 4.992 32.864 4.544 33.296 4.336C33.84 4.032 34.4 3.344 34.48 2.56C34.512 2.304 34.528 2.16 34.592 2.16C34.656 2.16 34.736 2.256 34.816 2.48C34.864 2.672 34.912 2.864 34.944 3.04H40.224C40.16 3.024 40.112 3.008 40.048 2.992C39.856 2.912 39.776 2.752 39.744 2.544C39.632 1.984 39.296 1.376 38.864 0.927999C38.672 0.735999 38.608 0.608 38.672 0.544C38.752 0.464 38.88 0.464 39.104 0.495999C42.016 0.992 41.648 2.816 40.624 3.04H45.056L45.632 2.512C45.808 2.352 46.016 2.336 46.208 2.512L47.168 3.36ZM32.592 15.232C32.528 15.12 32.64 14.992 32.896 14.88C36.48 13.264 37.008 11.248 37.2 8.96H33.744C33.52 8.96 33.36 8.864 33.296 8.64C33.232 8.464 33.392 8.336 33.68 8.336H44.496L45.12 7.616C45.28 7.424 45.488 7.392 45.68 7.536C46.032 7.792 46.448 8.096 46.784 8.368C46.96 8.512 47.088 8.704 46.912 8.88C46.832 8.944 46.736 8.96 46.608 8.96H42.304V13.328C42.304 13.504 42.368 13.568 42.928 13.568H44.432C45.024 13.568 45.536 13.552 45.76 13.536C45.984 13.52 46.064 13.472 46.128 13.344C46.256 13.12 46.4 12.608 46.592 11.904L46.688 11.536C46.752 11.296 46.816 11.2 46.864 11.2C46.912 11.2 46.96 11.328 46.96 11.6L46.992 13.392C47.424 13.536 47.536 13.744 47.536 14.048C47.536 14.72 46.928 14.944 44.304 14.944H42.608C41.136 14.944 40.8 14.688 40.8 13.616V8.96H38.848C38.544 11.744 37.808 13.952 33.056 15.312C32.816 15.376 32.672 15.344 32.592 15.232ZM35.552 5.968C35.504 5.776 35.632 5.664 35.92 5.664H42.064L42.656 4.992C42.816 4.8 43.024 4.768 43.216 4.928C43.552 5.152 43.92 5.44 44.256 5.696C44.448 5.84 44.56 6.032 44.384 6.192C44.304 6.272 44.208 6.288 44.08 6.288H35.984C35.744 6.288 35.6 6.176 35.552 5.968ZM53.92 6.768L54.4 6.32C54.592 6.144 54.768 6.16 54.96 6.304L55.792 6.928C56.016 7.088 56.08 7.344 55.856 7.456C55.76 7.504 55.632 7.536 55.472 7.552C55.376 10.784 55.136 12.24 54.512 12.752C54.16 13.04 53.776 13.184 53.328 13.232C53.072 13.248 52.944 13.104 52.912 12.848C52.896 12.656 52.832 12.496 52.704 12.336C52.592 12.224 52.352 12.128 52.048 12.048C51.808 11.984 51.696 11.888 51.696 11.76C51.696 11.632 51.84 11.568 52.112 11.6C52.48 11.632 52.88 11.648 53.072 11.648C53.328 11.648 53.456 11.616 53.536 11.536C53.84 11.216 53.984 10.016 54.048 7.392H51.632C51.632 9.792 51.376 13.008 48.88 15.2C48.688 15.36 48.56 15.424 48.48 15.344C48.416 15.28 48.432 15.136 48.56 14.928C49.984 12.608 50.128 9.824 50.128 7.216V3.552C50.128 3.264 50.32 3.136 50.592 3.232L51.888 3.696H56.416C56.368 2.784 56.336 1.856 56.32 0.895999C56.32 0.624 56.48 0.48 56.736 0.511999L57.984 0.624C58.24 0.655999 58.448 0.848 58.288 1.072C58.192 1.184 58.048 1.264 57.84 1.296C57.824 2.112 57.84 2.896 57.888 3.696H60.816L61.456 2.928C61.616 2.736 61.824 2.704 62.016 2.848C62.384 3.12 62.816 3.44 63.152 3.728C63.328 3.872 63.456 4.064 63.28 4.224C63.2 4.304 63.088 4.32 62.96 4.32H57.904C58.064 6.224 58.352 8.032 58.976 9.584C59.616 8.384 60.08 7.2 60.384 6C60.448 5.744 60.64 5.632 60.88 5.712L62.192 6.096C62.464 6.176 62.64 6.448 62.384 6.592C62.288 6.64 62.144 6.656 61.936 6.656C61.424 8.144 60.672 9.632 59.664 10.96C60.144 11.776 60.8 12.496 61.664 13.056C61.92 13.264 62.08 13.264 62.224 12.992C62.416 12.64 62.736 12 62.976 11.424C63.056 11.2 63.152 11.088 63.2 11.104C63.248 11.12 63.264 11.264 63.232 11.504L62.944 13.648C63.472 14.32 63.568 14.752 63.344 14.976C62.72 15.568 61.6 15.04 60.832 14.448C59.984 13.824 59.248 13.04 58.656 12.112C57.456 13.344 55.968 14.4 54.144 15.136C53.92 15.232 53.776 15.216 53.712 15.12C53.648 15.024 53.744 14.896 53.984 14.768C55.696 13.76 57.056 12.48 58.064 11.04C57.136 9.184 56.688 6.864 56.464 4.32H51.632V6.768H53.92ZM59.04 1.328C58.816 1.168 58.72 1.056 58.784 0.959999C58.848 0.879999 58.976 0.832 59.216 0.848C62.32 1.104 61.952 3.136 60.848 3.008C60.656 2.992 60.56 2.88 60.48 2.752C60.208 2.256 59.616 1.712 59.04 1.328Z" fill="#FFFEF9"/>
</svg>
