<svg width="31" height="16" viewBox="0 0 31 16" fill="none" xmlns="http://www.w3.org/2000/svg">
<path d="M0.328 1.264H13.656V15.296H12.456V2.368H1.496V15.296H0.328V1.264ZM1.016 13.536H13.16V14.608H1.016V13.536ZM4.984 9.552L5.496 8.816C6.776 9.072 8.408 9.6 9.304 10.016L8.792 10.816C7.912 10.384 6.28 9.824 4.984 9.552ZM5.624 2.688L6.616 3.024C5.704 4.496 4.248 5.872 2.904 6.768C2.728 6.576 2.312 6.224 2.072 6.048C3.432 5.232 4.808 3.984 5.624 2.688ZM9.896 3.952H10.104L10.296 3.904L10.968 4.32C9.32 6.96 5.592 8.704 2.344 9.456C2.232 9.168 1.992 8.688 1.784 8.464C4.92 7.856 8.52 6.272 9.896 4.128V3.952ZM4.92 4.832C6.328 6.528 9.256 7.824 12.168 8.352C11.944 8.576 11.64 8.976 11.496 9.264C8.568 8.64 5.608 7.168 4.024 5.248L4.92 4.832ZM5.256 3.952H10.248V4.896H4.616L5.256 3.952ZM3.4 11.584L3.96 10.752C6.12 11.008 8.872 11.616 10.44 12.144L9.896 13.04C8.376 12.496 5.608 11.856 3.4 11.584ZM22.376 0.575999H23.576V2.416H22.376V0.575999ZM22.344 8.992H23.56V15.28H22.344V8.992ZM16.28 1.76H29.784V4.08H28.632V2.784H17.4V4.08H16.28V1.76ZM16.088 4.464H29.96V5.456H16.088V4.464ZM15.832 10.32H30.184V11.36H15.832V10.32ZM21.544 2.976L22.68 3.312C21.64 4.736 20.264 6.48 19.304 7.616L18.184 7.248C19.192 6.128 20.584 4.336 21.544 2.976ZM19.112 7.136L19.8 6.384C22.84 6.944 26.92 7.984 29.176 8.848L28.456 9.728C26.36 8.88 22.248 7.744 19.112 7.136ZM21.912 10.864L22.808 11.264C21.368 12.96 18.728 14.416 16.296 15.072C16.12 14.784 15.784 14.32 15.528 14.096C17.944 13.568 20.6 12.288 21.912 10.864ZM24.04 10.832C25.4 12.288 28.104 13.552 30.552 14.08C30.28 14.336 29.944 14.784 29.768 15.088C27.336 14.432 24.632 12.976 23.16 11.248L24.04 10.832ZM25.768 5.024H27.048C25.944 7.856 23.464 9.152 16.904 9.616C16.872 9.344 16.68 8.896 16.52 8.656C22.776 8.272 24.856 7.184 25.768 5.024Z" fill="#9A764E"/>
</svg>
