<svg width="30" height="16" viewBox="0 0 30 16" fill="none" xmlns="http://www.w3.org/2000/svg">
<path d="M6.36 0.559999H7.592V2.464H6.36V0.559999ZM4.68 2.768H5.848C5.32 4.704 4.024 5.824 0.728 6.416C0.632 6.16 0.36 5.728 0.152 5.52C3.144 5.072 4.216 4.192 4.68 2.768ZM7.576 2.672H8.744V4.496C8.744 4.832 8.84 4.896 9.448 4.896C9.736 4.896 11.192 4.896 11.592 4.896C12.04 4.896 12.136 4.752 12.184 3.808C12.424 3.968 12.872 4.112 13.176 4.16C13.064 5.456 12.744 5.792 11.72 5.792C11.416 5.792 9.624 5.792 9.336 5.792C7.944 5.792 7.576 5.536 7.576 4.512V2.672ZM0.00800002 1.936H14.072V4.192H12.872V2.944H1.16V4.384H0.00800002V1.936ZM2.088 13.392H11.928V14.496H2.088V13.392ZM-0.00799996 9.488H14.04V10.544H-0.00799996V9.488ZM3.144 6.752H12.552V7.76H3.144V6.752ZM6.344 7.472H7.528V13.92H6.344V7.472ZM1.48 10.976H2.632V15.296H1.48V10.976ZM11.416 10.992H12.584V15.248H11.416V10.992ZM3.32 5.616L4.456 5.792C3.896 7.024 3.128 8.32 1.944 9.392C1.72 9.152 1.32 8.848 1.032 8.72C2.136 7.792 2.92 6.592 3.32 5.616ZM17.016 2.24H29.016V14.816H27.72V3.456H18.264V14.896H17.016V2.24ZM17.576 12.288H28.616V13.52H17.576V12.288Z" fill="#9A764E"/>
</svg>
