<svg width="32" height="16" viewBox="0 0 32 16" fill="none" xmlns="http://www.w3.org/2000/svg">
<path d="M7.488 3.984H14.816V15.184H13.712V5.072H8.576V15.296H7.488V3.984ZM7.984 8.496H14.224V9.584H7.984V8.496ZM7.984 13.312H14.272V14.4H7.984V13.312ZM10.512 0.575999H11.76V4.496H11.68V13.952H10.592V4.496H10.512V0.575999ZM0.656 6.448H6.928V7.52H0.656V6.448ZM3.328 1.808L4.432 1.504V15.296H3.328V1.808ZM5.904 0.591999L6.56 1.488C5.152 2 2.912 2.352 1.104 2.528C1.056 2.272 0.928 1.888 0.784 1.632C2.56 1.44 4.704 1.072 5.904 0.591999ZM1.072 3.216L1.92 2.944C2.256 3.824 2.576 4.96 2.688 5.712L1.792 6.016C1.696 5.264 1.392 4.096 1.072 3.216ZM3.312 6.896L4.064 7.216C3.44 9.328 2.224 12.048 1.12 13.472C1.008 13.152 0.704 12.688 0.512 12.416C1.552 11.168 2.768 8.752 3.312 6.896ZM4.4 7.552C4.832 8 6.416 9.968 6.784 10.448L6.096 11.28C5.632 10.528 4.304 8.688 3.76 8.064L4.4 7.552ZM5.792 2.656L6.784 3.04C6.416 4.048 6 5.296 5.664 6.048L4.912 5.728C5.216 4.912 5.616 3.568 5.792 2.656ZM19.328 0.624H20.448V15.264H19.328V0.624ZM16.752 5.936H23.072V7.072H16.752V5.936ZM19.152 6.528L19.872 6.848C19.312 9.024 18.176 11.792 17.104 13.248C16.976 12.896 16.688 12.384 16.496 12.064C17.52 10.832 18.64 8.4 19.152 6.528ZM20.416 7.28C20.864 7.76 22.496 9.936 22.864 10.464L22.064 11.424C21.664 10.56 20.352 8.464 19.824 7.776L20.416 7.28ZM16.864 1.808L17.744 1.584C18.192 2.704 18.56 4.16 18.672 5.12L17.728 5.376C17.648 4.416 17.28 2.928 16.864 1.808ZM22.032 1.52L23.088 1.792C22.672 3.008 22.176 4.512 21.744 5.408L20.976 5.168C21.328 4.208 21.808 2.608 22.032 1.52ZM28.24 0.575999H29.376V15.28H28.24V0.575999ZM23.04 10.752L31.264 9.28L31.456 10.384L23.232 11.872L23.04 10.752ZM24.24 2.528L24.864 1.712C25.792 2.256 26.896 3.072 27.424 3.664L26.784 4.592C26.272 3.968 25.168 3.104 24.24 2.528ZM23.424 6.56L23.984 5.712C24.944 6.208 26.128 6.96 26.704 7.536L26.096 8.48C25.536 7.904 24.384 7.088 23.424 6.56Z" fill="#9A764E"/>
</svg>
